%TF.GenerationSoftware,KiCad,Pcbnew,7.0.1*%
%TF.CreationDate,2023-08-30T15:18:28-03:00*%
%TF.ProjectId,qre1113_modulo,71726531-3131-4335-9f6d-6f64756c6f2e,rev?*%
%TF.SameCoordinates,Original*%
%TF.FileFunction,Copper,L2,Bot*%
%TF.FilePolarity,Positive*%
%FSLAX46Y46*%
G04 Gerber Fmt 4.6, Leading zero omitted, Abs format (unit mm)*
G04 Created by KiCad (PCBNEW 7.0.1) date 2023-08-30 15:18:28*
%MOMM*%
%LPD*%
G01*
G04 APERTURE LIST*
G04 Aperture macros list*
%AMRoundRect*
0 Rectangle with rounded corners*
0 $1 Rounding radius*
0 $2 $3 $4 $5 $6 $7 $8 $9 X,Y pos of 4 corners*
0 Add a 4 corners polygon primitive as box body*
4,1,4,$2,$3,$4,$5,$6,$7,$8,$9,$2,$3,0*
0 Add four circle primitives for the rounded corners*
1,1,$1+$1,$2,$3*
1,1,$1+$1,$4,$5*
1,1,$1+$1,$6,$7*
1,1,$1+$1,$8,$9*
0 Add four rect primitives between the rounded corners*
20,1,$1+$1,$2,$3,$4,$5,0*
20,1,$1+$1,$4,$5,$6,$7,0*
20,1,$1+$1,$6,$7,$8,$9,0*
20,1,$1+$1,$8,$9,$2,$3,0*%
G04 Aperture macros list end*
%TA.AperFunction,ComponentPad*%
%ADD10R,1.700000X1.700000*%
%TD*%
%TA.AperFunction,ComponentPad*%
%ADD11O,1.700000X1.700000*%
%TD*%
%TA.AperFunction,ComponentPad*%
%ADD12C,3.250000*%
%TD*%
%TA.AperFunction,SMDPad,CuDef*%
%ADD13RoundRect,0.197500X-0.197500X-0.632500X0.197500X-0.632500X0.197500X0.632500X-0.197500X0.632500X0*%
%TD*%
%TA.AperFunction,ViaPad*%
%ADD14C,0.800000*%
%TD*%
%TA.AperFunction,Conductor*%
%ADD15C,0.750000*%
%TD*%
%TA.AperFunction,Profile*%
%ADD16C,0.100000*%
%TD*%
G04 APERTURE END LIST*
D10*
%TO.P,J1,1,P1*%
%TO.N,+3V3*%
X129790000Y-122445000D03*
D11*
%TO.P,J1,2,P2*%
%TO.N,GND*%
X129790000Y-124985000D03*
%TO.P,J1,3,P3*%
%TO.N,/OUT*%
X129790000Y-127525000D03*
%TD*%
D12*
%TO.P,H1,1*%
%TO.N,N/C*%
X121330000Y-124970000D03*
%TD*%
D13*
%TO.P,U1,1,A*%
%TO.N,Net-(U1-A)*%
X125192832Y-126970000D03*
%TO.P,U1,2,K*%
%TO.N,GND*%
X125192832Y-122970000D03*
%TO.P,U1,3*%
%TO.N,/OUT*%
X126992832Y-122970000D03*
%TO.P,U1,4*%
%TO.N,GND*%
X126992832Y-126970000D03*
%TD*%
D14*
%TO.N,Net-(U1-A)*%
X122810000Y-128390000D03*
%TO.N,/OUT*%
X123030000Y-121590000D03*
%TD*%
D15*
%TO.N,Net-(U1-A)*%
X122810000Y-128390000D02*
X122810000Y-127660000D01*
X123490000Y-126980000D02*
X125192832Y-126980000D01*
X122810000Y-127660000D02*
X123490000Y-126980000D01*
%TO.N,/OUT*%
X126360000Y-124910000D02*
X126992832Y-124277168D01*
X126992832Y-124277168D02*
X126992832Y-122980000D01*
X126992832Y-124402832D02*
X128150000Y-125560000D01*
X128150000Y-125560000D02*
X128150000Y-127030000D01*
X128645000Y-127525000D02*
X129775000Y-127525000D01*
X128150000Y-127030000D02*
X128645000Y-127525000D01*
X126992832Y-124277168D02*
X126992832Y-124402832D01*
X124790000Y-124910000D02*
X126360000Y-124910000D01*
X129775000Y-127525000D02*
X129790000Y-127540000D01*
X123030000Y-121590000D02*
X123030000Y-123150000D01*
X123030000Y-123150000D02*
X124790000Y-124910000D01*
%TO.N,GND*%
X126992832Y-125922832D02*
X126992832Y-126980000D01*
%TD*%
%TA.AperFunction,Conductor*%
%TO.N,GND*%
G36*
X131142832Y-120483763D02*
G01*
X131179069Y-120520000D01*
X131192332Y-120569500D01*
X131192332Y-129370500D01*
X131179069Y-129420000D01*
X131142832Y-129456237D01*
X131093332Y-129469500D01*
X119292332Y-129469500D01*
X119242832Y-129456237D01*
X119206595Y-129420000D01*
X119193332Y-129370500D01*
X119193332Y-128390000D01*
X122204318Y-128390000D01*
X122224955Y-128546761D01*
X122285464Y-128692841D01*
X122381717Y-128818282D01*
X122477971Y-128892139D01*
X122507159Y-128914536D01*
X122653238Y-128975044D01*
X122810000Y-128995682D01*
X122966762Y-128975044D01*
X123112841Y-128914536D01*
X123238282Y-128818282D01*
X123334536Y-128692841D01*
X123395044Y-128546762D01*
X123415682Y-128390000D01*
X123395044Y-128233238D01*
X123395044Y-128233236D01*
X123393036Y-128228389D01*
X123385500Y-128190504D01*
X123385500Y-127939388D01*
X123393036Y-127901502D01*
X123414496Y-127869384D01*
X123699384Y-127584496D01*
X123731502Y-127563036D01*
X123769388Y-127555500D01*
X124500374Y-127555500D01*
X124545320Y-127566291D01*
X124580467Y-127596310D01*
X124598155Y-127639015D01*
X124612092Y-127727021D01*
X124614086Y-127730934D01*
X124669330Y-127839355D01*
X124758477Y-127928502D01*
X124870810Y-127985739D01*
X124964009Y-128000500D01*
X125421654Y-128000499D01*
X125421657Y-128000499D01*
X125491554Y-127989428D01*
X125514854Y-127985739D01*
X125627187Y-127928502D01*
X125716334Y-127839355D01*
X125773571Y-127727022D01*
X125788332Y-127633823D01*
X125788331Y-126306178D01*
X125788331Y-126306177D01*
X125788331Y-126306174D01*
X125773571Y-126212978D01*
X125716335Y-126100647D01*
X125716334Y-126100645D01*
X125627187Y-126011498D01*
X125514854Y-125954261D01*
X125514853Y-125954260D01*
X125514852Y-125954260D01*
X125421655Y-125939500D01*
X124964006Y-125939500D01*
X124870810Y-125954260D01*
X124758479Y-126011496D01*
X124669329Y-126100646D01*
X124612092Y-126212979D01*
X124596113Y-126313873D01*
X124595130Y-126313717D01*
X124584069Y-126355000D01*
X124547832Y-126391237D01*
X124498332Y-126404500D01*
X123534202Y-126404500D01*
X123521281Y-126403653D01*
X123490000Y-126399534D01*
X123458719Y-126403653D01*
X123458707Y-126403653D01*
X123300057Y-126424540D01*
X123274222Y-126446460D01*
X123199768Y-126477301D01*
X123112348Y-126544380D01*
X123112342Y-126544383D01*
X123112343Y-126544384D01*
X123079548Y-126569550D01*
X123060340Y-126594580D01*
X123051805Y-126604313D01*
X122434313Y-127221805D01*
X122424580Y-127230340D01*
X122399550Y-127249548D01*
X122374384Y-127282343D01*
X122374359Y-127282373D01*
X122354477Y-127308287D01*
X122354475Y-127308287D01*
X122354476Y-127308288D01*
X122307302Y-127369766D01*
X122249312Y-127509764D01*
X122233653Y-127628713D01*
X122233653Y-127628719D01*
X122229534Y-127659999D01*
X122233653Y-127691281D01*
X122234500Y-127704202D01*
X122234500Y-128190504D01*
X122226964Y-128228389D01*
X122224955Y-128233236D01*
X122204318Y-128390000D01*
X119193332Y-128390000D01*
X119193332Y-125038680D01*
X119450737Y-125038680D01*
X119480763Y-125311568D01*
X119550205Y-125577186D01*
X119657575Y-125829848D01*
X119657577Y-125829852D01*
X119800595Y-126064196D01*
X119976209Y-126275218D01*
X120180677Y-126458423D01*
X120318744Y-126549767D01*
X120409644Y-126609906D01*
X120658220Y-126726433D01*
X120805638Y-126770784D01*
X120921119Y-126805527D01*
X121192731Y-126845500D01*
X121398545Y-126845500D01*
X121398547Y-126845500D01*
X121603805Y-126830477D01*
X121871775Y-126770784D01*
X122128198Y-126672711D01*
X122367609Y-126538347D01*
X122584904Y-126370557D01*
X122775454Y-126172916D01*
X122935196Y-125949637D01*
X123060727Y-125705479D01*
X123149370Y-125445646D01*
X123199236Y-125175674D01*
X123209262Y-124901320D01*
X123179236Y-124628429D01*
X123109796Y-124362818D01*
X123073362Y-124277083D01*
X123066585Y-124223593D01*
X123088845Y-124174483D01*
X123133540Y-124144323D01*
X123187412Y-124142058D01*
X123234481Y-124168361D01*
X124351803Y-125285683D01*
X124360340Y-125295418D01*
X124379549Y-125320451D01*
X124409729Y-125343609D01*
X124409732Y-125343612D01*
X124499767Y-125412699D01*
X124579310Y-125445646D01*
X124639764Y-125470687D01*
X124752280Y-125485500D01*
X124752281Y-125485500D01*
X124758707Y-125486346D01*
X124758719Y-125486347D01*
X124790000Y-125490465D01*
X124821281Y-125486346D01*
X124834202Y-125485500D01*
X126315798Y-125485500D01*
X126328719Y-125486347D01*
X126360000Y-125490465D01*
X126391281Y-125486347D01*
X126391292Y-125486346D01*
X126397718Y-125485500D01*
X126397720Y-125485500D01*
X126510236Y-125470687D01*
X126650233Y-125412698D01*
X126654057Y-125409764D01*
X126740268Y-125343612D01*
X126740268Y-125343611D01*
X126753278Y-125333629D01*
X126753280Y-125333626D01*
X126770451Y-125320451D01*
X126789660Y-125295416D01*
X126798190Y-125285688D01*
X126859997Y-125223882D01*
X126904376Y-125198260D01*
X126955622Y-125198260D01*
X127000003Y-125223883D01*
X127545504Y-125769384D01*
X127566964Y-125801502D01*
X127574500Y-125839388D01*
X127574500Y-126985798D01*
X127573653Y-126998719D01*
X127569534Y-127029999D01*
X127573653Y-127061281D01*
X127573653Y-127061287D01*
X127586294Y-127157302D01*
X127586294Y-127157303D01*
X127589312Y-127180234D01*
X127647302Y-127320233D01*
X127716389Y-127410269D01*
X127739549Y-127440451D01*
X127764575Y-127459654D01*
X127774312Y-127468192D01*
X128206803Y-127900683D01*
X128215340Y-127910418D01*
X128229562Y-127928952D01*
X128234549Y-127935451D01*
X128264729Y-127958609D01*
X128264732Y-127958612D01*
X128354768Y-128027699D01*
X128399031Y-128046033D01*
X128494764Y-128085687D01*
X128607280Y-128100500D01*
X128645000Y-128105466D01*
X128676286Y-128101346D01*
X128689208Y-128100500D01*
X128856505Y-128100500D01*
X128898833Y-128110005D01*
X128933032Y-128136694D01*
X129043590Y-128271410D01*
X129203550Y-128402685D01*
X129386046Y-128500232D01*
X129584066Y-128560300D01*
X129790000Y-128580583D01*
X129995934Y-128560300D01*
X130193954Y-128500232D01*
X130376450Y-128402685D01*
X130536410Y-128271410D01*
X130667685Y-128111450D01*
X130765232Y-127928954D01*
X130825300Y-127730934D01*
X130845583Y-127525000D01*
X130825300Y-127319066D01*
X130765232Y-127121046D01*
X130667685Y-126938550D01*
X130536410Y-126778590D01*
X130376450Y-126647315D01*
X130193954Y-126549768D01*
X130193953Y-126549767D01*
X130193952Y-126549767D01*
X129995933Y-126489699D01*
X129790000Y-126469416D01*
X129584066Y-126489699D01*
X129386047Y-126549767D01*
X129203549Y-126647315D01*
X129043590Y-126778590D01*
X128963631Y-126876020D01*
X128918925Y-126906961D01*
X128864622Y-126909629D01*
X128817099Y-126883219D01*
X128754496Y-126820616D01*
X128733036Y-126788498D01*
X128725500Y-126750612D01*
X128725500Y-125604208D01*
X128726347Y-125591286D01*
X128728203Y-125577186D01*
X128730466Y-125560000D01*
X128711073Y-125412697D01*
X128710687Y-125409764D01*
X128659291Y-125285683D01*
X128652699Y-125269768D01*
X128583612Y-125179732D01*
X128579662Y-125174584D01*
X128579661Y-125174584D01*
X128579658Y-125174580D01*
X128560451Y-125149549D01*
X128535418Y-125130340D01*
X128525683Y-125121803D01*
X127597328Y-124193448D01*
X127575868Y-124161330D01*
X127568332Y-124123444D01*
X127568332Y-123761071D01*
X127572727Y-123742763D01*
X127571118Y-123742509D01*
X127573571Y-123727022D01*
X127588332Y-123633823D01*
X127588332Y-123314747D01*
X128739500Y-123314747D01*
X128751133Y-123373231D01*
X128795447Y-123439552D01*
X128839761Y-123469162D01*
X128861769Y-123483867D01*
X128920252Y-123495500D01*
X130659747Y-123495500D01*
X130659748Y-123495500D01*
X130718231Y-123483867D01*
X130784552Y-123439552D01*
X130828867Y-123373231D01*
X130840500Y-123314748D01*
X130840500Y-121575252D01*
X130828867Y-121516769D01*
X130814162Y-121494761D01*
X130784552Y-121450447D01*
X130718231Y-121406133D01*
X130659748Y-121394500D01*
X128920252Y-121394500D01*
X128891010Y-121400316D01*
X128861768Y-121406133D01*
X128795447Y-121450447D01*
X128751133Y-121516768D01*
X128739500Y-121575253D01*
X128739500Y-123314747D01*
X127588332Y-123314747D01*
X127588331Y-122306178D01*
X127588331Y-122306176D01*
X127588331Y-122306174D01*
X127573571Y-122212978D01*
X127516335Y-122100647D01*
X127516334Y-122100645D01*
X127427187Y-122011498D01*
X127314854Y-121954261D01*
X127314853Y-121954260D01*
X127314852Y-121954260D01*
X127221655Y-121939500D01*
X126764006Y-121939500D01*
X126670810Y-121954260D01*
X126558479Y-122011496D01*
X126469329Y-122100646D01*
X126412092Y-122212979D01*
X126397332Y-122306176D01*
X126397332Y-123633825D01*
X126414545Y-123742511D01*
X126412936Y-123742765D01*
X126417332Y-123761073D01*
X126417332Y-123997780D01*
X126409796Y-124035666D01*
X126388336Y-124067784D01*
X126150616Y-124305504D01*
X126118498Y-124326964D01*
X126080612Y-124334500D01*
X125069388Y-124334500D01*
X125031502Y-124326964D01*
X124999384Y-124305504D01*
X123634496Y-122940616D01*
X123613036Y-122908498D01*
X123605500Y-122870612D01*
X123605500Y-121789496D01*
X123613036Y-121751611D01*
X123615044Y-121746763D01*
X123617194Y-121730426D01*
X123635682Y-121590000D01*
X123615044Y-121433238D01*
X123554536Y-121287159D01*
X123532139Y-121257970D01*
X123458282Y-121161717D01*
X123332841Y-121065464D01*
X123186761Y-121004955D01*
X123030000Y-120984318D01*
X122873238Y-121004955D01*
X122727158Y-121065464D01*
X122601717Y-121161717D01*
X122505464Y-121287158D01*
X122444955Y-121433238D01*
X122424318Y-121590000D01*
X122444955Y-121746763D01*
X122446964Y-121751611D01*
X122454500Y-121789496D01*
X122454500Y-123105798D01*
X122453653Y-123118719D01*
X122449534Y-123150000D01*
X122453653Y-123181281D01*
X122453653Y-123181287D01*
X122466162Y-123276305D01*
X122457552Y-123331453D01*
X122420479Y-123373179D01*
X122366728Y-123388219D01*
X122313384Y-123371793D01*
X122250355Y-123330093D01*
X122001779Y-123213566D01*
X121738883Y-123134473D01*
X121467269Y-123094500D01*
X121261453Y-123094500D01*
X121193033Y-123099507D01*
X121056191Y-123109523D01*
X120788230Y-123169214D01*
X120531798Y-123267290D01*
X120292390Y-123401653D01*
X120075094Y-123569443D01*
X119884549Y-123767079D01*
X119724803Y-123990363D01*
X119599273Y-124234519D01*
X119510629Y-124494358D01*
X119460764Y-124764323D01*
X119450737Y-125038680D01*
X119193332Y-125038680D01*
X119193332Y-120569500D01*
X119206595Y-120520000D01*
X119242832Y-120483763D01*
X119292332Y-120470500D01*
X131093332Y-120470500D01*
X131142832Y-120483763D01*
G37*
%TD.AperFunction*%
%TD*%
D16*
X119192832Y-120470000D02*
X131192832Y-120470000D01*
X131192832Y-129470000D01*
X119192832Y-129470000D01*
X119192832Y-120470000D01*
M02*
