%TF.GenerationSoftware,KiCad,Pcbnew,7.0.1*%
%TF.CreationDate,2023-08-29T23:28:33-03:00*%
%TF.ProjectId,BoverJr_PCBWAY,426f7665-724a-4725-9f50-43425741592e,rev?*%
%TF.SameCoordinates,Original*%
%TF.FileFunction,Legend,Bot*%
%TF.FilePolarity,Positive*%
%FSLAX46Y46*%
G04 Gerber Fmt 4.6, Leading zero omitted, Abs format (unit mm)*
G04 Created by KiCad (PCBNEW 7.0.1) date 2023-08-29 23:28:33*
%MOMM*%
%LPD*%
G01*
G04 APERTURE LIST*
%ADD10C,0.254000*%
%TA.AperFunction,Profile*%
%ADD11C,0.100000*%
%TD*%
G04 APERTURE END LIST*
%TO.C,G14*%
G36*
X169113637Y-112538821D02*
G01*
X169113637Y-114977589D01*
X169113637Y-118735439D01*
X168346728Y-118735439D01*
X167579820Y-118735439D01*
X167579820Y-117327829D01*
X167579820Y-115920219D01*
X166529156Y-115905390D01*
X166431191Y-115903921D01*
X166073687Y-115896497D01*
X165768734Y-115885725D01*
X165509307Y-115870388D01*
X165288380Y-115849271D01*
X165098929Y-115821158D01*
X164933926Y-115784834D01*
X164786348Y-115739081D01*
X164649169Y-115682686D01*
X164515362Y-115614431D01*
X164377903Y-115533102D01*
X164311375Y-115489942D01*
X164035301Y-115267898D01*
X163804285Y-115006415D01*
X163619753Y-114708780D01*
X163483133Y-114378283D01*
X163395851Y-114018208D01*
X163359334Y-113631845D01*
X163362424Y-113551140D01*
X164987818Y-113551140D01*
X164987819Y-113560369D01*
X164990756Y-113709137D01*
X165001323Y-113816731D01*
X165022585Y-113902180D01*
X165057606Y-113984513D01*
X165168885Y-114159810D01*
X165340465Y-114326990D01*
X165553273Y-114452426D01*
X165802397Y-114532504D01*
X165860383Y-114540850D01*
X165978983Y-114551302D01*
X166140088Y-114561455D01*
X166333310Y-114570755D01*
X166548265Y-114578645D01*
X166774567Y-114584569D01*
X167579820Y-114601325D01*
X167579820Y-113570073D01*
X167579820Y-112538821D01*
X166835919Y-112539429D01*
X166716329Y-112539904D01*
X166497367Y-112542639D01*
X166292529Y-112547458D01*
X166113621Y-112553975D01*
X165972450Y-112561806D01*
X165880823Y-112570565D01*
X165873176Y-112571691D01*
X165613649Y-112637162D01*
X165391377Y-112749286D01*
X165209070Y-112906273D01*
X165069439Y-113106333D01*
X165049372Y-113145405D01*
X165017203Y-113222372D01*
X164998578Y-113302801D01*
X164989962Y-113405966D01*
X164987818Y-113551140D01*
X163362424Y-113551140D01*
X163375010Y-113222481D01*
X163417102Y-112931332D01*
X163499770Y-112621108D01*
X163622238Y-112343841D01*
X163789579Y-112088463D01*
X164006865Y-111843906D01*
X164136275Y-111720406D01*
X164255769Y-111622093D01*
X164375604Y-111543981D01*
X164515529Y-111471617D01*
X164559626Y-111451141D01*
X164695243Y-111392879D01*
X164821263Y-111344801D01*
X164915134Y-111315707D01*
X165012476Y-111296069D01*
X165135479Y-111278396D01*
X165284778Y-111263417D01*
X165464755Y-111250965D01*
X165679787Y-111240874D01*
X165934257Y-111232977D01*
X166232544Y-111227107D01*
X166579028Y-111223099D01*
X166978089Y-111220786D01*
X167434108Y-111220001D01*
X169113637Y-111219739D01*
X169113637Y-112538821D01*
G37*
G36*
X159774550Y-111290650D02*
G01*
X160237218Y-111361550D01*
X160686396Y-111487210D01*
X161115790Y-111668017D01*
X161221814Y-111722877D01*
X161628559Y-111973048D01*
X161989922Y-112262544D01*
X162304188Y-112589110D01*
X162569642Y-112950490D01*
X162784571Y-113344427D01*
X162947260Y-113768667D01*
X163055995Y-114220953D01*
X163060439Y-114247875D01*
X163082854Y-114446607D01*
X163095950Y-114683199D01*
X163099735Y-114938011D01*
X163094221Y-115191400D01*
X163079415Y-115423727D01*
X163055328Y-115615348D01*
X163039761Y-115699197D01*
X162920952Y-116153012D01*
X162750717Y-116577317D01*
X162532054Y-116968940D01*
X162267960Y-117324714D01*
X161961429Y-117641468D01*
X161615460Y-117916033D01*
X161233048Y-118145238D01*
X160817190Y-118325915D01*
X160370883Y-118454894D01*
X160300096Y-118470436D01*
X160170722Y-118498091D01*
X160065697Y-118519591D01*
X160002767Y-118531256D01*
X159979116Y-118534232D01*
X159871372Y-118541344D01*
X159721245Y-118545576D01*
X159542973Y-118547072D01*
X159350790Y-118545972D01*
X159158934Y-118542422D01*
X158981640Y-118536561D01*
X158833145Y-118528534D01*
X158727685Y-118518484D01*
X158666629Y-118509412D01*
X158224644Y-118408603D01*
X157790974Y-118247498D01*
X157366741Y-118026669D01*
X156953067Y-117746687D01*
X156551075Y-117408127D01*
X156337613Y-117209831D01*
X156751410Y-116786664D01*
X156755016Y-116782976D01*
X156887372Y-116647543D01*
X157007825Y-116524149D01*
X157108622Y-116420747D01*
X157182012Y-116345288D01*
X157220241Y-116305725D01*
X157246098Y-116281600D01*
X157274228Y-116273214D01*
X157312442Y-116290083D01*
X157372373Y-116337695D01*
X157465652Y-116421540D01*
X157694783Y-116617610D01*
X158015616Y-116846225D01*
X158337337Y-117019153D01*
X158666554Y-117139199D01*
X159009874Y-117209169D01*
X159373902Y-117231869D01*
X159547362Y-117227339D01*
X159880504Y-117187529D01*
X160197954Y-117102595D01*
X160521149Y-116967597D01*
X160585212Y-116935848D01*
X160715730Y-116863912D01*
X160828407Y-116786964D01*
X160942378Y-116691044D01*
X161076777Y-116562190D01*
X161152501Y-116485779D01*
X161259943Y-116368821D01*
X161342055Y-116262283D01*
X161412638Y-116147360D01*
X161485492Y-116005246D01*
X161594418Y-115748301D01*
X161667420Y-115492397D01*
X161707910Y-115219488D01*
X161720109Y-114909861D01*
X161719810Y-114864037D01*
X161705149Y-114584208D01*
X161665243Y-114338791D01*
X161595590Y-114107278D01*
X161491688Y-113869155D01*
X161396788Y-113696302D01*
X161185684Y-113404760D01*
X160934219Y-113154373D01*
X160647844Y-112947670D01*
X160332006Y-112787182D01*
X159992155Y-112675439D01*
X159633741Y-112614970D01*
X159262213Y-112608306D01*
X158883019Y-112657977D01*
X158822161Y-112671226D01*
X158478988Y-112774197D01*
X158150486Y-112924121D01*
X157828138Y-113125475D01*
X157503423Y-113382733D01*
X157269819Y-113586466D01*
X157140822Y-113471017D01*
X157117555Y-113449991D01*
X157034214Y-113373346D01*
X156922900Y-113269799D01*
X156795323Y-113150269D01*
X156663196Y-113025675D01*
X156314566Y-112695783D01*
X156430276Y-112554575D01*
X156447116Y-112534625D01*
X156559171Y-112417980D01*
X156705096Y-112284298D01*
X156869683Y-112146423D01*
X157037727Y-112017200D01*
X157194021Y-111909472D01*
X157479182Y-111743970D01*
X157914878Y-111546888D01*
X158368557Y-111402627D01*
X158833925Y-111311576D01*
X159304688Y-111274121D01*
X159774550Y-111290650D01*
G37*
G36*
X156014844Y-112569497D02*
G01*
X156014844Y-114949414D01*
X156014844Y-115453072D01*
X156014844Y-118771118D01*
X154181934Y-118758172D01*
X154116444Y-118757705D01*
X153709676Y-118754495D01*
X153358010Y-118750900D01*
X153056001Y-118746549D01*
X152798209Y-118741068D01*
X152579191Y-118734087D01*
X152393504Y-118725232D01*
X152235705Y-118714131D01*
X152100351Y-118700413D01*
X151982002Y-118683704D01*
X151875213Y-118663633D01*
X151774542Y-118639828D01*
X151674547Y-118611916D01*
X151569785Y-118579524D01*
X151513291Y-118560798D01*
X151173020Y-118416561D01*
X150860994Y-118229947D01*
X150584774Y-118006921D01*
X150351921Y-117753447D01*
X150169997Y-117475489D01*
X150048298Y-117247637D01*
X150038322Y-116641421D01*
X150037056Y-116550342D01*
X150037164Y-116331179D01*
X151940531Y-116331179D01*
X151957534Y-116576296D01*
X152024347Y-116785665D01*
X152141329Y-116959842D01*
X152308837Y-117099381D01*
X152527228Y-117204836D01*
X152537665Y-117208594D01*
X152605536Y-117230728D01*
X152675322Y-117247642D01*
X152756928Y-117260261D01*
X152860262Y-117269510D01*
X152995229Y-117276313D01*
X153171735Y-117281595D01*
X153399687Y-117286281D01*
X154082236Y-117298755D01*
X154082236Y-116375913D01*
X154082236Y-115453072D01*
X153537731Y-115454019D01*
X153475868Y-115454226D01*
X153192806Y-115458557D01*
X152961142Y-115469086D01*
X152772718Y-115486795D01*
X152619378Y-115512666D01*
X152492963Y-115547683D01*
X152385316Y-115592827D01*
X152263204Y-115661364D01*
X152121550Y-115775317D01*
X152025551Y-115911630D01*
X151968068Y-116081636D01*
X151941961Y-116296671D01*
X151940531Y-116331179D01*
X150037164Y-116331179D01*
X150037195Y-116269346D01*
X150045200Y-116037418D01*
X150062120Y-115845283D01*
X150089001Y-115683668D01*
X150126892Y-115543297D01*
X150176838Y-115414898D01*
X150197670Y-115372043D01*
X150323510Y-115187279D01*
X150499142Y-115011624D01*
X150715160Y-114852251D01*
X150962159Y-114716336D01*
X151230733Y-114611051D01*
X151433014Y-114546917D01*
X151251553Y-114440927D01*
X151040775Y-114292050D01*
X150829373Y-114076839D01*
X150657818Y-113823312D01*
X150530116Y-113538879D01*
X150467588Y-113297726D01*
X152425885Y-113297726D01*
X152435552Y-113486574D01*
X152473663Y-113660330D01*
X152546249Y-113797024D01*
X152659162Y-113907146D01*
X152818253Y-114001189D01*
X152879257Y-114029741D01*
X152939494Y-114052879D01*
X153004428Y-114069269D01*
X153085388Y-114080430D01*
X153193706Y-114087885D01*
X153340710Y-114093153D01*
X153537731Y-114097756D01*
X154082236Y-114109273D01*
X154082236Y-113339385D01*
X154082236Y-112569497D01*
X153565614Y-112569497D01*
X153346177Y-112571593D01*
X153149013Y-112579289D01*
X153003527Y-112592956D01*
X152904689Y-112612926D01*
X152802240Y-112650649D01*
X152637240Y-112753865D01*
X152519601Y-112895991D01*
X152449193Y-113077216D01*
X152425885Y-113297726D01*
X150467588Y-113297726D01*
X150450274Y-113230951D01*
X150422296Y-112906937D01*
X150429323Y-112725485D01*
X150482499Y-112407816D01*
X150586908Y-112122800D01*
X150741425Y-111871526D01*
X150944928Y-111655082D01*
X151196292Y-111474556D01*
X151494394Y-111331037D01*
X151838111Y-111225614D01*
X152226318Y-111159375D01*
X152260342Y-111156389D01*
X152372444Y-111150566D01*
X152536502Y-111145197D01*
X152746207Y-111140378D01*
X152995249Y-111136208D01*
X153277321Y-111132784D01*
X153586113Y-111130203D01*
X153915317Y-111128563D01*
X154258625Y-111127962D01*
X156014844Y-111127710D01*
X156014844Y-112569497D01*
G37*
G36*
X139987382Y-116900272D02*
G01*
X139990106Y-117170947D01*
X139986664Y-117221625D01*
X139970514Y-117376356D01*
X139948174Y-117521464D01*
X139923394Y-117631092D01*
X139819256Y-117896368D01*
X139656150Y-118164439D01*
X139449407Y-118400174D01*
X139206215Y-118596779D01*
X138933761Y-118747456D01*
X138639230Y-118845410D01*
X138613371Y-118850872D01*
X138443342Y-118872519D01*
X138238764Y-118880838D01*
X138018671Y-118876616D01*
X137802100Y-118860637D01*
X137608087Y-118833689D01*
X137455666Y-118796556D01*
X137306201Y-118740960D01*
X136961924Y-118569940D01*
X136641206Y-118349547D01*
X136428009Y-118179544D01*
X136419182Y-118457946D01*
X136410356Y-118736349D01*
X135498893Y-118728225D01*
X134587429Y-118720101D01*
X134587990Y-116603435D01*
X134588168Y-116239650D01*
X134588383Y-116066599D01*
X136411317Y-116066599D01*
X136419663Y-116640529D01*
X136428009Y-117214459D01*
X136578911Y-117328475D01*
X136642292Y-117372358D01*
X136774809Y-117449510D01*
X136901012Y-117508291D01*
X137007410Y-117542162D01*
X137203638Y-117577174D01*
X137407893Y-117585478D01*
X137603998Y-117567880D01*
X137775776Y-117525183D01*
X137907052Y-117458195D01*
X137917775Y-117450100D01*
X138012106Y-117365033D01*
X138072407Y-117272305D01*
X138106911Y-117154257D01*
X138123854Y-116993229D01*
X138126494Y-116900272D01*
X138106582Y-116704607D01*
X138045524Y-116546656D01*
X137938546Y-116419903D01*
X137780877Y-116317833D01*
X137567744Y-116233928D01*
X137524235Y-116221167D01*
X137377873Y-116186284D01*
X137197734Y-116151098D01*
X137002497Y-116118574D01*
X136810838Y-116091674D01*
X136641435Y-116073361D01*
X136512966Y-116066599D01*
X136411317Y-116066599D01*
X134588383Y-116066599D01*
X134588624Y-115872370D01*
X134589453Y-115557710D01*
X134590765Y-115290987D01*
X134592668Y-115067520D01*
X134595272Y-114882626D01*
X134598686Y-114731623D01*
X134603020Y-114609829D01*
X134608381Y-114512562D01*
X134614881Y-114435139D01*
X134622627Y-114372878D01*
X134631729Y-114321098D01*
X134642296Y-114275115D01*
X134701344Y-114080297D01*
X134826979Y-113801963D01*
X134993468Y-113559734D01*
X135202448Y-113352748D01*
X135455557Y-113180145D01*
X135754431Y-113041062D01*
X136100708Y-112934638D01*
X136496025Y-112860011D01*
X136942019Y-112816320D01*
X137440327Y-112802704D01*
X137780996Y-112809380D01*
X138092234Y-112827709D01*
X138356055Y-112856909D01*
X138511627Y-112881040D01*
X138687879Y-112910868D01*
X138870086Y-112943699D01*
X139047167Y-112977365D01*
X139208040Y-113009702D01*
X139341624Y-113038543D01*
X139436838Y-113061723D01*
X139482599Y-113077076D01*
X139486880Y-113087266D01*
X139494737Y-113149685D01*
X139501383Y-113261506D01*
X139506510Y-113414760D01*
X139509811Y-113601480D01*
X139510980Y-113813699D01*
X139510980Y-114532782D01*
X139440250Y-114532782D01*
X139417792Y-114530064D01*
X139337702Y-114509148D01*
X139226263Y-114472079D01*
X139100365Y-114424250D01*
X139006843Y-114388662D01*
X138835319Y-114329526D01*
X138648581Y-114270612D01*
X138473208Y-114220555D01*
X138339215Y-114186237D01*
X138193427Y-114154901D01*
X138059932Y-114136419D01*
X137914213Y-114127647D01*
X137731753Y-114125440D01*
X137641276Y-114126245D01*
X137308931Y-114145891D01*
X137030758Y-114192289D01*
X136805623Y-114266057D01*
X136632395Y-114367815D01*
X136509943Y-114498180D01*
X136437136Y-114657774D01*
X136412842Y-114847215D01*
X136418292Y-114900859D01*
X136448138Y-114926283D01*
X136520738Y-114931575D01*
X136559669Y-114932558D01*
X136677206Y-114939968D01*
X136836850Y-114953490D01*
X137026113Y-114971748D01*
X137232512Y-114993367D01*
X137443560Y-115016973D01*
X137646772Y-115041192D01*
X137829661Y-115064647D01*
X137979743Y-115085964D01*
X138084530Y-115103769D01*
X138113734Y-115109693D01*
X138531876Y-115215811D01*
X138896412Y-115351364D01*
X139207854Y-115516907D01*
X139466711Y-115712992D01*
X139673496Y-115940175D01*
X139828717Y-116199008D01*
X139932885Y-116490045D01*
X139986512Y-116813840D01*
X139987382Y-116900272D01*
G37*
G36*
X141520509Y-111166055D02*
G01*
X141527029Y-111194887D01*
X141546174Y-111282118D01*
X141576338Y-111420782D01*
X141616470Y-111606006D01*
X141665520Y-111832916D01*
X141722439Y-112096639D01*
X141786176Y-112392303D01*
X141855681Y-112715033D01*
X141929906Y-113059957D01*
X142007799Y-113422200D01*
X142088311Y-113796891D01*
X142170392Y-114179156D01*
X142252992Y-114564121D01*
X142335061Y-114946913D01*
X142379248Y-115151856D01*
X142429336Y-115381036D01*
X142474701Y-115585248D01*
X142513749Y-115757481D01*
X142544888Y-115890722D01*
X142566526Y-115977960D01*
X142577068Y-116012183D01*
X142584198Y-115999936D01*
X142604473Y-115936178D01*
X142635459Y-115824358D01*
X142675416Y-115671181D01*
X142722606Y-115483349D01*
X142775288Y-115267568D01*
X142831724Y-115030541D01*
X142839790Y-114996261D01*
X142908499Y-114704548D01*
X142982473Y-114390969D01*
X143057855Y-114071843D01*
X143130787Y-113763490D01*
X143197414Y-113482228D01*
X143253878Y-113244377D01*
X143275296Y-113154257D01*
X143339847Y-112882357D01*
X143408785Y-112591607D01*
X143477458Y-112301640D01*
X143541217Y-112032090D01*
X143595410Y-111802589D01*
X143615868Y-111716152D01*
X143660224Y-111530906D01*
X143699505Y-111369758D01*
X143731501Y-111241623D01*
X143753998Y-111155412D01*
X143764785Y-111120041D01*
X143773785Y-111117208D01*
X143834158Y-111111779D01*
X143944724Y-111106942D01*
X144098002Y-111102872D01*
X144286513Y-111099746D01*
X144502776Y-111097741D01*
X144739310Y-111097034D01*
X145700010Y-111097034D01*
X146322596Y-113587701D01*
X146945181Y-116078369D01*
X147247456Y-114607689D01*
X147280272Y-114448016D01*
X147352258Y-114097718D01*
X147427238Y-113732796D01*
X147502655Y-113365704D01*
X147575950Y-113008893D01*
X147644565Y-112674819D01*
X147705941Y-112375933D01*
X147757522Y-112124691D01*
X147965313Y-111112372D01*
X148983799Y-111104289D01*
X149154567Y-111103064D01*
X149383895Y-111101857D01*
X149587510Y-111101299D01*
X149758283Y-111101381D01*
X149889088Y-111102097D01*
X149972797Y-111103437D01*
X150002284Y-111105396D01*
X150000522Y-111113114D01*
X149986212Y-111171071D01*
X149958429Y-111282084D01*
X149918266Y-111441837D01*
X149866816Y-111646018D01*
X149805173Y-111890312D01*
X149734428Y-112170405D01*
X149655676Y-112481983D01*
X149570010Y-112820732D01*
X149478522Y-113182338D01*
X149382306Y-113562486D01*
X149282455Y-113956864D01*
X149180063Y-114361156D01*
X149076222Y-114771049D01*
X148972025Y-115182229D01*
X148868566Y-115590381D01*
X148766937Y-115991192D01*
X148668233Y-116380347D01*
X148573546Y-116753533D01*
X148483968Y-117106435D01*
X148400595Y-117434740D01*
X148324517Y-117734132D01*
X148256830Y-118000299D01*
X148198625Y-118228926D01*
X148150996Y-118415700D01*
X148115036Y-118556305D01*
X148091838Y-118646428D01*
X148082496Y-118681756D01*
X148079889Y-118688248D01*
X148068075Y-118701356D01*
X148043354Y-118711797D01*
X147999669Y-118719872D01*
X147930965Y-118725880D01*
X147831187Y-118730122D01*
X147694279Y-118732899D01*
X147514185Y-118734511D01*
X147284851Y-118735257D01*
X147000220Y-118735439D01*
X145934898Y-118735439D01*
X145386236Y-116549751D01*
X145304822Y-116225527D01*
X145218278Y-115881093D01*
X145136664Y-115556510D01*
X145061229Y-115256737D01*
X144993222Y-114986730D01*
X144933894Y-114751447D01*
X144884493Y-114555845D01*
X144846269Y-114404881D01*
X144820470Y-114303512D01*
X144808347Y-114256695D01*
X144807123Y-114251999D01*
X144802168Y-114229044D01*
X144798050Y-114208262D01*
X144793749Y-114193226D01*
X144788247Y-114187513D01*
X144780525Y-114194697D01*
X144769562Y-114218352D01*
X144754340Y-114262054D01*
X144733839Y-114329377D01*
X144707040Y-114423896D01*
X144672925Y-114549186D01*
X144630473Y-114708822D01*
X144578665Y-114906379D01*
X144516482Y-115145432D01*
X144442905Y-115429555D01*
X144356914Y-115762324D01*
X144257491Y-116147313D01*
X144143616Y-116588096D01*
X144119658Y-116680795D01*
X144033905Y-117012583D01*
X143952436Y-117327791D01*
X143876635Y-117621068D01*
X143807885Y-117887060D01*
X143747570Y-118120414D01*
X143697073Y-118315778D01*
X143657778Y-118467799D01*
X143631068Y-118571125D01*
X143618327Y-118620403D01*
X143588567Y-118735439D01*
X142519897Y-118735439D01*
X141451227Y-118735439D01*
X141279213Y-118052891D01*
X141271131Y-118020830D01*
X141226382Y-117843520D01*
X141169272Y-117617474D01*
X141102018Y-117351468D01*
X141026843Y-117054276D01*
X140945965Y-116734674D01*
X140861604Y-116401437D01*
X140775982Y-116063341D01*
X140691318Y-115729159D01*
X140541118Y-115136335D01*
X140396485Y-114565254D01*
X140265745Y-114048746D01*
X140148269Y-113584298D01*
X140043426Y-113169397D01*
X139950589Y-112801533D01*
X139869126Y-112478192D01*
X139798409Y-112196862D01*
X139737809Y-111955032D01*
X139686695Y-111750190D01*
X139644438Y-111579823D01*
X139610410Y-111441419D01*
X139583980Y-111332466D01*
X139564519Y-111250452D01*
X139551398Y-111192865D01*
X139543987Y-111157193D01*
X139541656Y-111140924D01*
X139541822Y-111138843D01*
X139552214Y-111126904D01*
X139582954Y-111117407D01*
X139639899Y-111110090D01*
X139728907Y-111104691D01*
X139855835Y-111100948D01*
X140026541Y-111098598D01*
X140246881Y-111097381D01*
X140522714Y-111097034D01*
X141503772Y-111097034D01*
X141520509Y-111166055D01*
G37*
G36*
X130671520Y-113451442D02*
G01*
X130703931Y-113554172D01*
X130782840Y-113804678D01*
X130875835Y-114100323D01*
X130980078Y-114432073D01*
X131092732Y-114790896D01*
X131210962Y-115167759D01*
X131331932Y-115553629D01*
X131452804Y-115939474D01*
X131505111Y-116102859D01*
X131553354Y-116246408D01*
X131593073Y-116357140D01*
X131621169Y-116426425D01*
X131634544Y-116445633D01*
X131645247Y-116416643D01*
X131673810Y-116334032D01*
X131718349Y-116203163D01*
X131777127Y-116029202D01*
X131848405Y-115817314D01*
X131930446Y-115572668D01*
X132021512Y-115300428D01*
X132119865Y-115005761D01*
X132223768Y-114693833D01*
X132797975Y-112968290D01*
X133765006Y-112968290D01*
X133876682Y-112968355D01*
X134134398Y-112969234D01*
X134337796Y-112971300D01*
X134491988Y-112974760D01*
X134602086Y-112979817D01*
X134673201Y-112986679D01*
X134710445Y-112995549D01*
X134718930Y-113006635D01*
X134716629Y-113012954D01*
X134696326Y-113067539D01*
X134656531Y-113174041D01*
X134598741Y-113328470D01*
X134524451Y-113526832D01*
X134435159Y-113765139D01*
X134332359Y-114039397D01*
X134217548Y-114345617D01*
X134092221Y-114679806D01*
X133957875Y-115037974D01*
X133816005Y-115416129D01*
X133668107Y-115810281D01*
X132630391Y-118575581D01*
X132854062Y-119154000D01*
X132868952Y-119192478D01*
X132935871Y-119364704D01*
X132994564Y-119514640D01*
X133041579Y-119633544D01*
X133073463Y-119712673D01*
X133086764Y-119743286D01*
X133095356Y-119744184D01*
X133154022Y-119741886D01*
X133260630Y-119734634D01*
X133406396Y-119723104D01*
X133582534Y-119707973D01*
X133780259Y-119689916D01*
X134734517Y-119603491D01*
X135833374Y-119512586D01*
X136897401Y-119434585D01*
X137940113Y-119368643D01*
X138975020Y-119313919D01*
X140015636Y-119269569D01*
X141075472Y-119234750D01*
X141191273Y-119231830D01*
X141447308Y-119226981D01*
X141753389Y-119222796D01*
X142102197Y-119219277D01*
X142486415Y-119216424D01*
X142898726Y-119214237D01*
X143331811Y-119212718D01*
X143778354Y-119211865D01*
X144231036Y-119211680D01*
X144682540Y-119212164D01*
X145125549Y-119213317D01*
X145552744Y-119215139D01*
X145956808Y-119217631D01*
X146330423Y-119220794D01*
X146666272Y-119224628D01*
X146957037Y-119229133D01*
X147195400Y-119234311D01*
X147735943Y-119250291D01*
X148858756Y-119293888D01*
X150036771Y-119352898D01*
X151267252Y-119427135D01*
X152547458Y-119516414D01*
X153874651Y-119620551D01*
X155246094Y-119739362D01*
X156659047Y-119872661D01*
X158630739Y-120079406D01*
X161158402Y-120384499D01*
X163681146Y-120734631D01*
X166212166Y-121131661D01*
X168764663Y-121577448D01*
X169719433Y-121752508D01*
X169831089Y-122291619D01*
X169863114Y-122447949D01*
X169894868Y-122606873D01*
X169919991Y-122736970D01*
X169936476Y-122827839D01*
X169942321Y-122869075D01*
X169941877Y-122879428D01*
X169935560Y-122895425D01*
X169914463Y-122902901D01*
X169869520Y-122901107D01*
X169791664Y-122889295D01*
X169671828Y-122866715D01*
X169500945Y-122832619D01*
X169268918Y-122786542D01*
X168941725Y-122722906D01*
X168569978Y-122651774D01*
X168162356Y-122574754D01*
X167727540Y-122493452D01*
X167274210Y-122409475D01*
X166811048Y-122324429D01*
X166346734Y-122239922D01*
X165889949Y-122157561D01*
X165449372Y-122078952D01*
X165033685Y-122005702D01*
X164555713Y-121922718D01*
X162229820Y-121537263D01*
X159946902Y-121189758D01*
X157707753Y-120880302D01*
X155513166Y-120608995D01*
X153363932Y-120375935D01*
X151260846Y-120181221D01*
X149204699Y-120024954D01*
X148894954Y-120004342D01*
X147575365Y-119922960D01*
X146310542Y-119855850D01*
X145096504Y-119802967D01*
X143929271Y-119764266D01*
X142804861Y-119739705D01*
X141719294Y-119729239D01*
X140668589Y-119732823D01*
X139648765Y-119750414D01*
X138655841Y-119781967D01*
X137685837Y-119827439D01*
X136734772Y-119886785D01*
X136481180Y-119904871D01*
X136161974Y-119928283D01*
X135833899Y-119952971D01*
X135502794Y-119978452D01*
X135174496Y-120004243D01*
X134854843Y-120029860D01*
X134549672Y-120054819D01*
X134264822Y-120078636D01*
X134006131Y-120100829D01*
X133779436Y-120120914D01*
X133590575Y-120138407D01*
X133445386Y-120152825D01*
X133349707Y-120163684D01*
X133309375Y-120170501D01*
X133289420Y-120185269D01*
X133283426Y-120214726D01*
X133294836Y-120268921D01*
X133325919Y-120358397D01*
X133378946Y-120493700D01*
X133416634Y-120590607D01*
X133456445Y-120701093D01*
X133481182Y-120780401D01*
X133486590Y-120815801D01*
X133475930Y-120818490D01*
X133412964Y-120822435D01*
X133300099Y-120825055D01*
X133144744Y-120826306D01*
X132954307Y-120826147D01*
X132736196Y-120824536D01*
X132497821Y-120821430D01*
X131521979Y-120806092D01*
X131434878Y-120574587D01*
X131347777Y-120343083D01*
X130528835Y-120413656D01*
X130429681Y-120422162D01*
X130142033Y-120446502D01*
X129831642Y-120472364D01*
X129519474Y-120498021D01*
X129226492Y-120521745D01*
X128973661Y-120541807D01*
X128237429Y-120599386D01*
X128091716Y-120493061D01*
X128028096Y-120444285D01*
X127968865Y-120392610D01*
X127946004Y-120363438D01*
X127955283Y-120358548D01*
X128014718Y-120345215D01*
X128121827Y-120327108D01*
X128268080Y-120305526D01*
X128444945Y-120281770D01*
X128643890Y-120257138D01*
X128890289Y-120227801D01*
X129172495Y-120194149D01*
X129461721Y-120159614D01*
X129735319Y-120126902D01*
X129970641Y-120098716D01*
X129970714Y-120098707D01*
X130183841Y-120073175D01*
X130397884Y-120047582D01*
X130597385Y-120023772D01*
X130766887Y-120003590D01*
X130890931Y-119988882D01*
X130966486Y-119979751D01*
X131079406Y-119965193D01*
X131158810Y-119953743D01*
X131190975Y-119947304D01*
X131190183Y-119942581D01*
X131174259Y-119892938D01*
X131140029Y-119794205D01*
X131089684Y-119652489D01*
X131025419Y-119473898D01*
X130949426Y-119264539D01*
X130863900Y-119030520D01*
X130771032Y-118777948D01*
X130751829Y-118725874D01*
X130635944Y-118411701D01*
X130506743Y-118061540D01*
X130366883Y-117682586D01*
X130219023Y-117282036D01*
X130065820Y-116867085D01*
X129909932Y-116444930D01*
X129754017Y-116022767D01*
X129600733Y-115607792D01*
X129452738Y-115207200D01*
X129312689Y-114828188D01*
X129183245Y-114477952D01*
X129067062Y-114163689D01*
X128966800Y-113892593D01*
X128885116Y-113671862D01*
X128856334Y-113593844D01*
X128790874Y-113414201D01*
X128734570Y-113256612D01*
X128690518Y-113129926D01*
X128661815Y-113042990D01*
X128651559Y-113004652D01*
X128660431Y-112996285D01*
X128702576Y-112986999D01*
X128783503Y-112979795D01*
X128907725Y-112974498D01*
X129079752Y-112970932D01*
X129304097Y-112968921D01*
X129585272Y-112968290D01*
X130518984Y-112968290D01*
X130671520Y-113451442D01*
G37*
D10*
%TO.C,H2*%
X127100000Y-101300000D02*
X127100000Y-106300000D01*
X129600000Y-103800000D02*
X124600000Y-103800000D01*
X127100000Y-124300000D02*
X127100000Y-129300000D01*
X129600000Y-126800000D02*
X124600000Y-126800000D01*
X129600000Y-103800000D02*
G75*
G03*
X129600000Y-103800000I-2500000J0D01*
G01*
X129600000Y-126800000D02*
G75*
G03*
X129600000Y-126800000I-2500000J0D01*
G01*
%TO.C,H5*%
X107000000Y-57000000D02*
X113000000Y-57000000D01*
X110000000Y-54000000D02*
X110000000Y-60000000D01*
X113000000Y-57000000D02*
G75*
G03*
X113000000Y-57000000I-3000000J0D01*
G01*
%TO.C,H1*%
X172900000Y-129200000D02*
X172900000Y-124200000D01*
X170400000Y-126700000D02*
X175400000Y-126700000D01*
X172900000Y-106200000D02*
X172900000Y-101200000D01*
X170400000Y-103700000D02*
X175400000Y-103700000D01*
X175400000Y-126700000D02*
G75*
G03*
X175400000Y-126700000I-2500000J0D01*
G01*
X175400000Y-103700000D02*
G75*
G03*
X175400000Y-103700000I-2500000J0D01*
G01*
%TO.C,G2*%
G36*
X122589349Y-63150000D02*
G01*
X122589349Y-63355479D01*
X122351381Y-63340239D01*
X122237009Y-63331394D01*
X122150695Y-63309156D01*
X122118320Y-63255746D01*
X122113412Y-63150000D01*
X122115480Y-63065759D01*
X122138203Y-63000829D01*
X122208011Y-62972551D01*
X122351381Y-62959760D01*
X122589349Y-62944520D01*
X122589349Y-63150000D01*
G37*
%TO.C,H3*%
X147000000Y-125900000D02*
X153000000Y-125900000D01*
X150000000Y-122900000D02*
X150000000Y-128900000D01*
X153000000Y-125900000D02*
G75*
G03*
X153000000Y-125900000I-3000000J0D01*
G01*
%TO.C,H4*%
X187000000Y-57900000D02*
X193000000Y-57900000D01*
X190000000Y-54900000D02*
X190000000Y-60900000D01*
X193000000Y-57900000D02*
G75*
G03*
X193000000Y-57900000I-3000000J0D01*
G01*
%TD*%
D11*
X200000000Y-79800000D02*
G75*
G03*
X100000000Y-79800000I-50000000J0D01*
G01*
X120000000Y-129750000D02*
X120000000Y-102900000D01*
X180000000Y-102900000D02*
X200000000Y-102900000D01*
X180000000Y-129800000D02*
X180000000Y-102900000D01*
X120000000Y-102900000D02*
X100000000Y-102900000D01*
X100000000Y-102900000D02*
X100000000Y-79800000D01*
X200000000Y-102900000D02*
X200000000Y-79800000D01*
X120000000Y-129750000D02*
X180000000Y-129800000D01*
M02*
