%TF.GenerationSoftware,KiCad,Pcbnew,7.0.1*%
%TF.CreationDate,2023-08-29T23:28:33-03:00*%
%TF.ProjectId,BoverJr_PCBWAY,426f7665-724a-4725-9f50-43425741592e,rev?*%
%TF.SameCoordinates,Original*%
%TF.FileFunction,Paste,Top*%
%TF.FilePolarity,Positive*%
%FSLAX46Y46*%
G04 Gerber Fmt 4.6, Leading zero omitted, Abs format (unit mm)*
G04 Created by KiCad (PCBNEW 7.0.1) date 2023-08-29 23:28:33*
%MOMM*%
%LPD*%
G01*
G04 APERTURE LIST*
G04 Aperture macros list*
%AMRoundRect*
0 Rectangle with rounded corners*
0 $1 Rounding radius*
0 $2 $3 $4 $5 $6 $7 $8 $9 X,Y pos of 4 corners*
0 Add a 4 corners polygon primitive as box body*
4,1,4,$2,$3,$4,$5,$6,$7,$8,$9,$2,$3,0*
0 Add four circle primitives for the rounded corners*
1,1,$1+$1,$2,$3*
1,1,$1+$1,$4,$5*
1,1,$1+$1,$6,$7*
1,1,$1+$1,$8,$9*
0 Add four rect primitives between the rounded corners*
20,1,$1+$1,$2,$3,$4,$5,0*
20,1,$1+$1,$4,$5,$6,$7,0*
20,1,$1+$1,$6,$7,$8,$9,0*
20,1,$1+$1,$8,$9,$2,$3,0*%
G04 Aperture macros list end*
%ADD10C,0.150000*%
%ADD11R,0.889000X1.397000*%
%ADD12R,1.397000X0.889000*%
%ADD13RoundRect,0.250000X0.475000X-0.250000X0.475000X0.250000X-0.475000X0.250000X-0.475000X-0.250000X0*%
%ADD14RoundRect,0.250000X0.250000X0.475000X-0.250000X0.475000X-0.250000X-0.475000X0.250000X-0.475000X0*%
%ADD15R,1.198880X1.198880*%
%ADD16RoundRect,0.250000X-0.475000X0.250000X-0.475000X-0.250000X0.475000X-0.250000X0.475000X0.250000X0*%
%ADD17R,1.000760X1.000760*%
%ADD18R,2.000000X1.500000*%
%ADD19R,2.000000X3.800000*%
%ADD20RoundRect,0.250000X-0.250000X-0.475000X0.250000X-0.475000X0.250000X0.475000X-0.250000X0.475000X0*%
%ADD21R,0.300000X1.500000*%
%ADD22R,1.500000X2.000000*%
%ADD23R,3.800000X2.000000*%
%ADD24R,1.500000X0.900000*%
%ADD25R,0.900000X1.500000*%
%ADD26R,0.900000X0.900000*%
%TA.AperFunction,Profile*%
%ADD27C,0.100000*%
%TD*%
G04 APERTURE END LIST*
D10*
X146000000Y-102000000D02*
X149000000Y-102000000D01*
X149000000Y-108000000D01*
X146000000Y-108000000D01*
X146000000Y-102000000D01*
G36*
X146000000Y-102000000D02*
G01*
X149000000Y-102000000D01*
X149000000Y-108000000D01*
X146000000Y-108000000D01*
X146000000Y-102000000D01*
G37*
X151000000Y-102000000D02*
X154000000Y-102000000D01*
X154000000Y-108000000D01*
X151000000Y-108000000D01*
X151000000Y-102000000D01*
G36*
X151000000Y-102000000D02*
G01*
X154000000Y-102000000D01*
X154000000Y-108000000D01*
X151000000Y-108000000D01*
X151000000Y-102000000D01*
G37*
X155500000Y-102000000D02*
X158500000Y-102000000D01*
X158500000Y-108000000D01*
X155500000Y-108000000D01*
X155500000Y-102000000D01*
G36*
X155500000Y-102000000D02*
G01*
X158500000Y-102000000D01*
X158500000Y-108000000D01*
X155500000Y-108000000D01*
X155500000Y-102000000D01*
G37*
X141500000Y-102000000D02*
X144500000Y-102000000D01*
X144500000Y-108000000D01*
X141500000Y-108000000D01*
X141500000Y-102000000D01*
G36*
X141500000Y-102000000D02*
G01*
X144500000Y-102000000D01*
X144500000Y-108000000D01*
X141500000Y-108000000D01*
X141500000Y-102000000D01*
G37*
D11*
%TO.C,R8*%
X150127500Y-70250000D03*
X148222500Y-70250000D03*
%TD*%
D12*
%TO.C,R2*%
X131000000Y-72797500D03*
X131000000Y-74702500D03*
%TD*%
D13*
%TO.C,C14*%
X137350000Y-41900000D03*
X137350000Y-40000000D03*
%TD*%
D14*
%TO.C,C7*%
X126450000Y-63750000D03*
X124550000Y-63750000D03*
%TD*%
D15*
%TO.C,LED_ESP32*%
X122349020Y-48650000D03*
X120250980Y-48650000D03*
%TD*%
D16*
%TO.C,C3*%
X120900000Y-76150000D03*
X120900000Y-78050000D03*
%TD*%
D13*
%TO.C,C6*%
X116700000Y-68450000D03*
X116700000Y-66550000D03*
%TD*%
D17*
%TO.C,SW_START1*%
X138599180Y-67000000D03*
X131400820Y-67000000D03*
%TD*%
%TO.C,SW_BOOT1*%
X140450820Y-67000000D03*
X147649180Y-67000000D03*
%TD*%
D14*
%TO.C,C8*%
X126350000Y-61150000D03*
X124450000Y-61150000D03*
%TD*%
D18*
%TO.C,U7*%
X119350000Y-66450000D03*
X119350000Y-68750000D03*
D19*
X125650000Y-68750000D03*
D18*
X119350000Y-71050000D03*
%TD*%
D16*
%TO.C,C13*%
X151500000Y-64325000D03*
X151500000Y-66225000D03*
%TD*%
D20*
%TO.C,C9*%
X150300000Y-72750000D03*
X152200000Y-72750000D03*
%TD*%
D21*
%TO.C,U5*%
X146955000Y-87153000D03*
X147605000Y-87153000D03*
X148255000Y-87153000D03*
X148905000Y-87153000D03*
X149555000Y-87153000D03*
X150205000Y-87153000D03*
X150855000Y-87153000D03*
X151505000Y-87153000D03*
X151505000Y-80753000D03*
X150855000Y-80753000D03*
X150205000Y-80753000D03*
X149555000Y-80753000D03*
X148905000Y-80753000D03*
X148255000Y-80753000D03*
X147605000Y-80753000D03*
X146955000Y-80753000D03*
%TD*%
D16*
%TO.C,C10*%
X154400000Y-82850000D03*
X154400000Y-84750000D03*
%TD*%
D12*
%TO.C,R7*%
X125550000Y-42602500D03*
X125550000Y-40697500D03*
%TD*%
D16*
%TO.C,C11*%
X152000000Y-74850000D03*
X152000000Y-76750000D03*
%TD*%
D17*
%TO.C,SW_EN1*%
X117400820Y-52500000D03*
X124599180Y-52500000D03*
%TD*%
D12*
%TO.C,R3*%
X144540000Y-82857500D03*
X144540000Y-84762500D03*
%TD*%
D22*
%TO.C,U3*%
X118162000Y-75947000D03*
X115862000Y-75947000D03*
D23*
X115862000Y-82247000D03*
D22*
X113562000Y-75947000D03*
%TD*%
D12*
%TO.C,R1*%
X125550000Y-48352500D03*
X125550000Y-46447500D03*
%TD*%
D13*
%TO.C,C1*%
X107300000Y-75950000D03*
X107300000Y-74050000D03*
%TD*%
%TO.C,C5*%
X114450000Y-68450000D03*
X114450000Y-66550000D03*
%TD*%
D24*
%TO.C,U1*%
X141400000Y-42160000D03*
X141400000Y-44700000D03*
X141400000Y-45970000D03*
X141400000Y-43430000D03*
X141400000Y-47240000D03*
X141400000Y-48510000D03*
X141400000Y-49780000D03*
X141400000Y-51050000D03*
X141400000Y-52320000D03*
X141400000Y-53590000D03*
X141400000Y-54860000D03*
X141400000Y-56130000D03*
X141400000Y-57400000D03*
D25*
X145705000Y-58650000D03*
X154595000Y-58650000D03*
X155865000Y-58650000D03*
D24*
X158900000Y-57400000D03*
X158900000Y-56130000D03*
X158900000Y-54860000D03*
X158900000Y-53590000D03*
D25*
X146975000Y-58650000D03*
X148245000Y-58650000D03*
X149515000Y-58650000D03*
X150785000Y-58650000D03*
X152055000Y-58650000D03*
X153325000Y-58650000D03*
D24*
X158900000Y-52320000D03*
X158900000Y-51050000D03*
X158900000Y-42160000D03*
X158900000Y-49780000D03*
X158900000Y-43430000D03*
X158900000Y-45970000D03*
X158900000Y-44700000D03*
X158900000Y-47240000D03*
X141400000Y-40890000D03*
D25*
X144435000Y-58650000D03*
D26*
X147250000Y-47210000D03*
X147250000Y-48610000D03*
X147250000Y-50010000D03*
X148650000Y-47210000D03*
X148650000Y-48610000D03*
X148650000Y-50010000D03*
X150050000Y-47210000D03*
X150050000Y-48610000D03*
X150050000Y-50010000D03*
D24*
X158900000Y-40890000D03*
X158900000Y-48510000D03*
%TD*%
D13*
%TO.C,C4*%
X123900000Y-78050000D03*
X123900000Y-76150000D03*
%TD*%
%TO.C,C2*%
X110900000Y-75950000D03*
X110900000Y-74050000D03*
%TD*%
D20*
%TO.C,C12*%
X121450000Y-42900000D03*
X123350000Y-42900000D03*
%TD*%
D27*
X200000000Y-79800000D02*
G75*
G03*
X100000000Y-79800000I-50000000J0D01*
G01*
X120000000Y-129750000D02*
X120000000Y-102900000D01*
X180000000Y-102900000D02*
X200000000Y-102900000D01*
X180000000Y-129800000D02*
X180000000Y-102900000D01*
X120000000Y-102900000D02*
X100000000Y-102900000D01*
X100000000Y-102900000D02*
X100000000Y-79800000D01*
X200000000Y-102900000D02*
X200000000Y-79800000D01*
X120000000Y-129750000D02*
X180000000Y-129800000D01*
M02*
