%TF.GenerationSoftware,KiCad,Pcbnew,7.0.1*%
%TF.CreationDate,2023-08-29T23:28:33-03:00*%
%TF.ProjectId,BoverJr_PCBWAY,426f7665-724a-4725-9f50-43425741592e,rev?*%
%TF.SameCoordinates,Original*%
%TF.FileFunction,Soldermask,Top*%
%TF.FilePolarity,Negative*%
%FSLAX46Y46*%
G04 Gerber Fmt 4.6, Leading zero omitted, Abs format (unit mm)*
G04 Created by KiCad (PCBNEW 7.0.1) date 2023-08-29 23:28:33*
%MOMM*%
%LPD*%
G01*
G04 APERTURE LIST*
G04 Aperture macros list*
%AMRoundRect*
0 Rectangle with rounded corners*
0 $1 Rounding radius*
0 $2 $3 $4 $5 $6 $7 $8 $9 X,Y pos of 4 corners*
0 Add a 4 corners polygon primitive as box body*
4,1,4,$2,$3,$4,$5,$6,$7,$8,$9,$2,$3,0*
0 Add four circle primitives for the rounded corners*
1,1,$1+$1,$2,$3*
1,1,$1+$1,$4,$5*
1,1,$1+$1,$6,$7*
1,1,$1+$1,$8,$9*
0 Add four rect primitives between the rounded corners*
20,1,$1+$1,$2,$3,$4,$5,0*
20,1,$1+$1,$4,$5,$6,$7,0*
20,1,$1+$1,$6,$7,$8,$9,0*
20,1,$1+$1,$8,$9,$2,$3,0*%
G04 Aperture macros list end*
%ADD10R,0.889000X1.397000*%
%ADD11R,1.397000X0.889000*%
%ADD12RoundRect,0.250000X0.475000X-0.250000X0.475000X0.250000X-0.475000X0.250000X-0.475000X-0.250000X0*%
%ADD13RoundRect,0.250000X0.250000X0.475000X-0.250000X0.475000X-0.250000X-0.475000X0.250000X-0.475000X0*%
%ADD14RoundRect,0.250000X-0.600000X-0.725000X0.600000X-0.725000X0.600000X0.725000X-0.600000X0.725000X0*%
%ADD15O,1.700000X1.950000*%
%ADD16RoundRect,0.250000X-0.600000X-0.750000X0.600000X-0.750000X0.600000X0.750000X-0.600000X0.750000X0*%
%ADD17O,1.700000X2.000000*%
%ADD18C,3.000000*%
%ADD19R,1.198880X1.198880*%
%ADD20RoundRect,0.250000X-0.475000X0.250000X-0.475000X-0.250000X0.475000X-0.250000X0.475000X0.250000X0*%
%ADD21C,2.200000*%
%ADD22C,1.524000*%
%ADD23R,1.700000X1.700000*%
%ADD24O,1.700000X1.700000*%
%ADD25R,1.000760X1.000760*%
%ADD26RoundRect,0.250000X0.600000X0.725000X-0.600000X0.725000X-0.600000X-0.725000X0.600000X-0.725000X0*%
%ADD27O,1.600000X2.000000*%
%ADD28R,2.000000X1.500000*%
%ADD29R,2.000000X3.800000*%
%ADD30RoundRect,0.250000X-0.250000X-0.475000X0.250000X-0.475000X0.250000X0.475000X-0.250000X0.475000X0*%
%ADD31R,0.300000X1.500000*%
%ADD32R,1.408000X1.408000*%
%ADD33C,1.408000*%
%ADD34O,1.508000X3.016000*%
%ADD35R,1.500000X2.000000*%
%ADD36R,3.800000X2.000000*%
%ADD37R,1.500000X0.900000*%
%ADD38R,0.900000X1.500000*%
%ADD39R,0.900000X0.900000*%
%TA.AperFunction,Profile*%
%ADD40C,0.100000*%
%TD*%
G04 APERTURE END LIST*
D10*
%TO.C,R8*%
X150127500Y-70250000D03*
X148222500Y-70250000D03*
%TD*%
D11*
%TO.C,R2*%
X131000000Y-72797500D03*
X131000000Y-74702500D03*
%TD*%
D12*
%TO.C,C14*%
X137350000Y-41900000D03*
X137350000Y-40000000D03*
%TD*%
D13*
%TO.C,C7*%
X126450000Y-63750000D03*
X124550000Y-63750000D03*
%TD*%
D14*
%TO.C,J1*%
X166500000Y-93750000D03*
D15*
X169000000Y-93750000D03*
X171500000Y-93750000D03*
X174000000Y-93750000D03*
X176500000Y-93750000D03*
X179000000Y-93750000D03*
%TD*%
D16*
%TO.C,J10*%
X105000000Y-95400000D03*
D17*
X107500000Y-95400000D03*
%TD*%
D18*
%TO.C,H5*%
X110000000Y-57000000D03*
%TD*%
D19*
%TO.C,LED_ESP32*%
X122349020Y-48650000D03*
X120250980Y-48650000D03*
%TD*%
D20*
%TO.C,C3*%
X120900000Y-76150000D03*
X120900000Y-78050000D03*
%TD*%
D21*
%TO.C,J11*%
X147500000Y-100100000D03*
D22*
X147500000Y-103600000D03*
%TD*%
D23*
%TO.C,J3*%
X187875000Y-71100000D03*
D24*
X187875000Y-68560000D03*
X187875000Y-66020000D03*
X187875000Y-63480000D03*
%TD*%
D12*
%TO.C,C6*%
X116700000Y-68450000D03*
X116700000Y-66550000D03*
%TD*%
D25*
%TO.C,SW_START1*%
X138599180Y-67000000D03*
X131400820Y-67000000D03*
%TD*%
%TO.C,SW_BOOT1*%
X140450820Y-67000000D03*
X147649180Y-67000000D03*
%TD*%
D21*
%TO.C,J7*%
X156900000Y-100100000D03*
D22*
X156900000Y-103600000D03*
%TD*%
D13*
%TO.C,C8*%
X126350000Y-61150000D03*
X124450000Y-61150000D03*
%TD*%
D26*
%TO.C,J8*%
X169400000Y-42175000D03*
D15*
X166900000Y-42175000D03*
X164400000Y-42175000D03*
%TD*%
D14*
%TO.C,J4*%
X169400000Y-50350000D03*
D15*
X171900000Y-50350000D03*
X174400000Y-50350000D03*
%TD*%
D27*
%TO.C,OLED1*%
X160670000Y-81625000D03*
X163210000Y-81625000D03*
X165750000Y-81625000D03*
X168290000Y-81625000D03*
%TD*%
D28*
%TO.C,U7*%
X119350000Y-66450000D03*
X119350000Y-68750000D03*
D29*
X125650000Y-68750000D03*
D28*
X119350000Y-71050000D03*
%TD*%
D14*
%TO.C,J5*%
X130850000Y-50350000D03*
D15*
X133350000Y-50350000D03*
X135850000Y-50350000D03*
%TD*%
D20*
%TO.C,C13*%
X151500000Y-64325000D03*
X151500000Y-66225000D03*
%TD*%
D21*
%TO.C,J6*%
X152400000Y-100100000D03*
D22*
X152400000Y-103600000D03*
%TD*%
D30*
%TO.C,C9*%
X150300000Y-72750000D03*
X152200000Y-72750000D03*
%TD*%
D31*
%TO.C,U5*%
X146955000Y-87153000D03*
X147605000Y-87153000D03*
X148255000Y-87153000D03*
X148905000Y-87153000D03*
X149555000Y-87153000D03*
X150205000Y-87153000D03*
X150855000Y-87153000D03*
X151505000Y-87153000D03*
X151505000Y-80753000D03*
X150855000Y-80753000D03*
X150205000Y-80753000D03*
X149555000Y-80753000D03*
X148905000Y-80753000D03*
X148255000Y-80753000D03*
X147605000Y-80753000D03*
X146955000Y-80753000D03*
%TD*%
D20*
%TO.C,C10*%
X154400000Y-82850000D03*
X154400000Y-84750000D03*
%TD*%
D11*
%TO.C,R7*%
X125550000Y-42602500D03*
X125550000Y-40697500D03*
%TD*%
D32*
%TO.C,SW1*%
X106200000Y-87250000D03*
D33*
X108700000Y-87250000D03*
X111200000Y-87250000D03*
%TD*%
D20*
%TO.C,C11*%
X152000000Y-74850000D03*
X152000000Y-76750000D03*
%TD*%
D25*
%TO.C,SW_EN1*%
X117400820Y-52500000D03*
X124599180Y-52500000D03*
%TD*%
D34*
%TO.C,U2*%
X160210000Y-76200000D03*
X162750000Y-76200000D03*
X165290000Y-76200000D03*
X167830000Y-76200000D03*
X170370000Y-76200000D03*
X172910000Y-76200000D03*
X175450000Y-76200000D03*
X177990000Y-76200000D03*
%TD*%
D11*
%TO.C,R3*%
X144540000Y-82857500D03*
X144540000Y-84762500D03*
%TD*%
D35*
%TO.C,U3*%
X118162000Y-75947000D03*
X115862000Y-75947000D03*
D36*
X115862000Y-82247000D03*
D35*
X113562000Y-75947000D03*
%TD*%
D11*
%TO.C,R1*%
X125550000Y-48352500D03*
X125550000Y-46447500D03*
%TD*%
D12*
%TO.C,C1*%
X107300000Y-75950000D03*
X107300000Y-74050000D03*
%TD*%
%TO.C,C5*%
X114450000Y-68450000D03*
X114450000Y-66550000D03*
%TD*%
D37*
%TO.C,U1*%
X141400000Y-42160000D03*
X141400000Y-44700000D03*
X141400000Y-45970000D03*
X141400000Y-43430000D03*
X141400000Y-47240000D03*
X141400000Y-48510000D03*
X141400000Y-49780000D03*
X141400000Y-51050000D03*
X141400000Y-52320000D03*
X141400000Y-53590000D03*
X141400000Y-54860000D03*
X141400000Y-56130000D03*
X141400000Y-57400000D03*
D38*
X145705000Y-58650000D03*
X154595000Y-58650000D03*
X155865000Y-58650000D03*
D37*
X158900000Y-57400000D03*
X158900000Y-56130000D03*
X158900000Y-54860000D03*
X158900000Y-53590000D03*
D38*
X146975000Y-58650000D03*
X148245000Y-58650000D03*
X149515000Y-58650000D03*
X150785000Y-58650000D03*
X152055000Y-58650000D03*
X153325000Y-58650000D03*
D37*
X158900000Y-52320000D03*
X158900000Y-51050000D03*
X158900000Y-42160000D03*
X158900000Y-49780000D03*
X158900000Y-43430000D03*
X158900000Y-45970000D03*
X158900000Y-44700000D03*
X158900000Y-47240000D03*
X141400000Y-40890000D03*
D38*
X144435000Y-58650000D03*
D39*
X147250000Y-47210000D03*
X147250000Y-48610000D03*
X147250000Y-50010000D03*
X148650000Y-47210000D03*
X148650000Y-48610000D03*
X148650000Y-50010000D03*
X150050000Y-47210000D03*
X150050000Y-48610000D03*
X150050000Y-50010000D03*
D37*
X158900000Y-40890000D03*
X158900000Y-48510000D03*
%TD*%
D12*
%TO.C,C4*%
X123900000Y-78050000D03*
X123900000Y-76150000D03*
%TD*%
D18*
%TO.C,H3*%
X150000000Y-125900000D03*
%TD*%
D12*
%TO.C,C2*%
X110900000Y-75950000D03*
X110900000Y-74050000D03*
%TD*%
D14*
%TO.C,J2*%
X119500000Y-93750000D03*
D15*
X122000000Y-93750000D03*
X124500000Y-93750000D03*
X127000000Y-93750000D03*
X129500000Y-93750000D03*
X132000000Y-93750000D03*
%TD*%
D30*
%TO.C,C12*%
X121450000Y-42900000D03*
X123350000Y-42900000D03*
%TD*%
D18*
%TO.C,H4*%
X190000000Y-57900000D03*
%TD*%
D22*
%TO.C,J9*%
X143000000Y-103600000D03*
D21*
X143000000Y-100100000D03*
%TD*%
D40*
X200000000Y-79800000D02*
G75*
G03*
X100000000Y-79800000I-50000000J0D01*
G01*
X120000000Y-129750000D02*
X120000000Y-102900000D01*
X180000000Y-102900000D02*
X200000000Y-102900000D01*
X180000000Y-129800000D02*
X180000000Y-102900000D01*
X120000000Y-102900000D02*
X100000000Y-102900000D01*
X100000000Y-102900000D02*
X100000000Y-79800000D01*
X200000000Y-102900000D02*
X200000000Y-79800000D01*
X120000000Y-129750000D02*
X180000000Y-129800000D01*
M02*
