M48
; DRILL file {KiCad 7.0.1} date Tue Aug 29 23:28:55 2023
; FORMAT={-:-/ absolute / metric / decimal}
; #@! TF.CreationDate,2023-08-29T23:28:55-03:00
; #@! TF.GenerationSoftware,Kicad,Pcbnew,7.0.1
; #@! TF.FileFunction,Plated,1,2,PTH
FMAT,2
METRIC
; #@! TA.AperFunction,Plated,PTH,ViaDrill
T1C0.400
; #@! TA.AperFunction,Plated,PTH,ComponentDrill
T2C0.762
; #@! TA.AperFunction,Plated,PTH,ComponentDrill
T3C0.900
; #@! TA.AperFunction,Plated,PTH,ComponentDrill
T4C0.950
; #@! TA.AperFunction,Plated,PTH,ComponentDrill
T5C1.000
; #@! TA.AperFunction,Plated,PTH,ComponentDrill
T6C1.500
; #@! TA.AperFunction,Plated,PTH,ComponentDrill
T7C3.000
%
G90
G05
T1
X139.5Y-51.1
X152.2Y-70.4
X160.3Y-56.125
X160.4Y-54.9
X160.425Y-53.55
X160.8Y-43.5
X160.8Y-47.3
T2
X143.0Y-103.6
X147.5Y-103.6
X152.4Y-103.6
X156.9Y-103.6
T3
X106.2Y-87.25
X108.7Y-87.25
X111.2Y-87.25
T4
X119.5Y-93.75
X122.0Y-93.75
X124.5Y-93.75
X127.0Y-93.75
X129.5Y-93.75
X130.85Y-50.35
X132.0Y-93.75
X133.35Y-50.35
X135.85Y-50.35
X164.4Y-42.175
X166.5Y-93.75
X166.9Y-42.175
X169.0Y-93.75
X169.4Y-42.175
X169.4Y-50.35
X171.5Y-93.75
X171.9Y-50.35
X174.0Y-93.75
X174.4Y-50.35
X176.5Y-93.75
X179.0Y-93.75
T5
X105.0Y-95.4
X107.5Y-95.4
X160.21Y-76.2
X160.67Y-81.625
X162.75Y-76.2
X163.21Y-81.625
X165.29Y-76.2
X165.75Y-81.625
X167.83Y-76.2
X168.29Y-81.625
X170.37Y-76.2
X172.91Y-76.2
X175.45Y-76.2
X177.99Y-76.2
X187.875Y-63.48
X187.875Y-66.02
X187.875Y-68.56
X187.875Y-71.1
T6
X143.0Y-100.1
X143.0Y-103.6
X147.5Y-100.1
X147.5Y-103.6
X152.4Y-100.1
X152.4Y-103.6
X156.9Y-100.1
X156.9Y-103.6
T7
X110.0Y-57.0
X127.1Y-103.8
X127.1Y-126.8
X150.0Y-125.9
X172.9Y-103.7
X172.9Y-126.7
X190.0Y-57.9
T0
M30
