%TF.GenerationSoftware,KiCad,Pcbnew,7.0.1*%
%TF.CreationDate,2023-08-29T23:28:33-03:00*%
%TF.ProjectId,BoverJr_PCBWAY,426f7665-724a-4725-9f50-43425741592e,rev?*%
%TF.SameCoordinates,Original*%
%TF.FileFunction,Paste,Bot*%
%TF.FilePolarity,Positive*%
%FSLAX46Y46*%
G04 Gerber Fmt 4.6, Leading zero omitted, Abs format (unit mm)*
G04 Created by KiCad (PCBNEW 7.0.1) date 2023-08-29 23:28:33*
%MOMM*%
%LPD*%
G01*
G04 APERTURE LIST*
%ADD10C,0.150000*%
%TA.AperFunction,Profile*%
%ADD11C,0.100000*%
%TD*%
G04 APERTURE END LIST*
D10*
X146000000Y-102000000D02*
X149000000Y-102000000D01*
X149000000Y-108000000D01*
X146000000Y-108000000D01*
X146000000Y-102000000D01*
G36*
X146000000Y-102000000D02*
G01*
X149000000Y-102000000D01*
X149000000Y-108000000D01*
X146000000Y-108000000D01*
X146000000Y-102000000D01*
G37*
X141500000Y-102000000D02*
X144500000Y-102000000D01*
X144500000Y-108000000D01*
X141500000Y-108000000D01*
X141500000Y-102000000D01*
G36*
X141500000Y-102000000D02*
G01*
X144500000Y-102000000D01*
X144500000Y-108000000D01*
X141500000Y-108000000D01*
X141500000Y-102000000D01*
G37*
X151000000Y-102000000D02*
X154000000Y-102000000D01*
X154000000Y-108000000D01*
X151000000Y-108000000D01*
X151000000Y-102000000D01*
G36*
X151000000Y-102000000D02*
G01*
X154000000Y-102000000D01*
X154000000Y-108000000D01*
X151000000Y-108000000D01*
X151000000Y-102000000D01*
G37*
X155500000Y-102000000D02*
X158500000Y-102000000D01*
X158500000Y-108000000D01*
X155500000Y-108000000D01*
X155500000Y-102000000D01*
G36*
X155500000Y-102000000D02*
G01*
X158500000Y-102000000D01*
X158500000Y-108000000D01*
X155500000Y-108000000D01*
X155500000Y-102000000D01*
G37*
%TO.C,G3*%
G36*
X168890453Y-65691846D02*
G01*
X168922021Y-65799270D01*
X168974323Y-65975875D01*
X169035049Y-66179900D01*
X169096507Y-66385461D01*
X169234142Y-66844615D01*
X168866610Y-66844615D01*
X168733151Y-66843210D01*
X168596666Y-66835452D01*
X168521863Y-66819749D01*
X168499077Y-66794789D01*
X168504939Y-66756647D01*
X168526473Y-66653483D01*
X168560241Y-66503520D01*
X168602432Y-66322814D01*
X168649237Y-66127422D01*
X168696849Y-65933400D01*
X168741458Y-65756805D01*
X168779254Y-65613692D01*
X168822034Y-65457384D01*
X168890453Y-65691846D01*
G37*
G36*
X173238962Y-65560723D02*
G01*
X173270393Y-65637877D01*
X173315033Y-65763969D01*
X173368367Y-65924522D01*
X173425882Y-66105059D01*
X173483062Y-66291104D01*
X173535393Y-66468178D01*
X173578362Y-66621805D01*
X173607454Y-66737509D01*
X173618154Y-66800811D01*
X173617898Y-66803101D01*
X173573078Y-66826180D01*
X173451042Y-66840010D01*
X173251593Y-66844615D01*
X172885031Y-66844615D01*
X173042121Y-66209615D01*
X173081391Y-66053278D01*
X173132187Y-65858378D01*
X173175711Y-65699706D01*
X173208294Y-65590515D01*
X173226269Y-65544059D01*
X173238962Y-65560723D01*
G37*
G36*
X167540213Y-56183536D02*
G01*
X167578139Y-56271417D01*
X167627767Y-56405293D01*
X167682657Y-56568540D01*
X167807808Y-56958154D01*
X168251135Y-56958154D01*
X168412726Y-56960182D01*
X168558738Y-56966417D01*
X168657605Y-56975852D01*
X168693827Y-56987461D01*
X168690559Y-56994242D01*
X168643204Y-57040203D01*
X168551313Y-57113927D01*
X168430058Y-57203014D01*
X168401733Y-57223099D01*
X168267676Y-57319055D01*
X168153099Y-57402410D01*
X168080247Y-57457014D01*
X167993571Y-57524769D01*
X168124500Y-57935077D01*
X168169017Y-58077636D01*
X168210964Y-58219480D01*
X168237367Y-58318238D01*
X168243830Y-58358320D01*
X168243785Y-58358370D01*
X168209044Y-58355603D01*
X168130384Y-58313021D01*
X168002393Y-58227264D01*
X167819659Y-58094972D01*
X167772259Y-58060436D01*
X167650671Y-57976681D01*
X167556506Y-57918694D01*
X167507044Y-57897395D01*
X167476494Y-57910413D01*
X167392289Y-57962155D01*
X167272252Y-58044081D01*
X167131385Y-58146254D01*
X167020797Y-58225718D01*
X166903603Y-58302224D01*
X166821819Y-58346253D01*
X166788555Y-58350013D01*
X166789437Y-58329412D01*
X166808388Y-58243967D01*
X166845627Y-58113584D01*
X166896016Y-57957054D01*
X166923852Y-57873382D01*
X166970224Y-57726735D01*
X167002222Y-57615483D01*
X167014154Y-57558823D01*
X166997600Y-57531559D01*
X166928944Y-57464246D01*
X166819289Y-57372673D01*
X166682000Y-57268520D01*
X166577687Y-57191042D01*
X166459952Y-57098619D01*
X166379584Y-57029268D01*
X166349846Y-56993954D01*
X166378520Y-56981408D01*
X166470983Y-56967961D01*
X166612120Y-56956851D01*
X166786278Y-56949664D01*
X167222709Y-56938615D01*
X167356231Y-56537833D01*
X167403636Y-56402875D01*
X167456397Y-56270280D01*
X167498481Y-56183918D01*
X167523630Y-56157989D01*
X167540213Y-56183536D01*
G37*
G36*
X174543064Y-56173925D02*
G01*
X174575292Y-56239439D01*
X174621873Y-56350420D01*
X174675915Y-56488577D01*
X174730529Y-56635618D01*
X174778823Y-56773254D01*
X174813908Y-56883193D01*
X174828893Y-56947144D01*
X174864457Y-56951263D01*
X174963132Y-56956355D01*
X175109639Y-56961712D01*
X175288693Y-56966683D01*
X175747846Y-56977692D01*
X175415693Y-57225443D01*
X175310642Y-57304136D01*
X175185734Y-57398691D01*
X175094280Y-57469123D01*
X175050945Y-57504221D01*
X175046695Y-57529533D01*
X175059342Y-57617600D01*
X175091308Y-57750661D01*
X175138868Y-57911476D01*
X175173140Y-58020066D01*
X175217601Y-58166702D01*
X175248076Y-58274727D01*
X175259385Y-58326313D01*
X175258834Y-58338311D01*
X175248413Y-58357421D01*
X175216782Y-58351691D01*
X175153603Y-58315621D01*
X175048538Y-58243711D01*
X174891250Y-58130461D01*
X174794875Y-58061477D01*
X174670811Y-57976103D01*
X174579712Y-57917665D01*
X174536462Y-57896000D01*
X174510989Y-57907402D01*
X174431880Y-57956511D01*
X174315328Y-58035473D01*
X174176062Y-58134539D01*
X174072476Y-58207642D01*
X173950561Y-58287305D01*
X173862597Y-58336987D01*
X173822776Y-58348108D01*
X173821411Y-58320540D01*
X173838966Y-58231112D01*
X173874985Y-58096740D01*
X173925365Y-57933976D01*
X173964182Y-57811215D01*
X174005675Y-57666704D01*
X174030472Y-57562442D01*
X174034201Y-57515252D01*
X174012376Y-57494906D01*
X173936855Y-57436004D01*
X173821775Y-57351194D01*
X173681507Y-57251231D01*
X173577626Y-57176895D01*
X173458420Y-57087363D01*
X173376735Y-57020678D01*
X173346075Y-56987461D01*
X173377070Y-56976667D01*
X173471664Y-56967059D01*
X173614693Y-56960549D01*
X173790744Y-56958154D01*
X174236872Y-56958154D01*
X174368105Y-56564454D01*
X174412093Y-56437637D01*
X174465329Y-56298039D01*
X174508080Y-56201561D01*
X174533846Y-56163915D01*
X174543064Y-56173925D01*
G37*
G36*
X171046396Y-54669361D02*
G01*
X171087473Y-54763585D01*
X171142952Y-54918371D01*
X171216134Y-55141077D01*
X171261650Y-55281532D01*
X171328130Y-55482557D01*
X171389188Y-55662893D01*
X171435787Y-55795615D01*
X171517529Y-56020308D01*
X172255226Y-56020308D01*
X172266882Y-56020312D01*
X172496150Y-56022099D01*
X172695428Y-56026776D01*
X172852677Y-56033810D01*
X172955855Y-56042672D01*
X172992923Y-56052831D01*
X172963560Y-56084250D01*
X172880336Y-56153516D01*
X172753177Y-56252738D01*
X172592011Y-56374170D01*
X172406770Y-56510065D01*
X172224201Y-56644167D01*
X172062543Y-56766463D01*
X171934766Y-56866939D01*
X171850810Y-56937776D01*
X171820616Y-56971155D01*
X171829493Y-57008783D01*
X171859206Y-57110561D01*
X171906051Y-57262870D01*
X171966129Y-57453056D01*
X172035539Y-57668462D01*
X172096338Y-57857146D01*
X172157902Y-58052237D01*
X172206717Y-58211465D01*
X172238874Y-58322045D01*
X172250462Y-58371190D01*
X172250326Y-58374466D01*
X172241466Y-58386573D01*
X172213570Y-58380187D01*
X172159381Y-58350589D01*
X172071639Y-58293060D01*
X171943086Y-58202881D01*
X171766464Y-58075332D01*
X171534514Y-57905695D01*
X171426830Y-57827885D01*
X171264521Y-57715437D01*
X171129378Y-57627752D01*
X171033112Y-57572304D01*
X170987437Y-57556567D01*
X170950384Y-57579236D01*
X170858712Y-57641706D01*
X170724854Y-57735791D01*
X170559857Y-57853717D01*
X170374770Y-57987707D01*
X170269462Y-58063723D01*
X170070745Y-58202177D01*
X169923635Y-58296739D01*
X169831109Y-58345562D01*
X169796142Y-58346800D01*
X169802365Y-58301470D01*
X169829817Y-58192504D01*
X169875258Y-58034122D01*
X169934974Y-57839216D01*
X170005255Y-57620676D01*
X170060606Y-57448469D01*
X170123492Y-57239856D01*
X170167440Y-57076610D01*
X170189974Y-56968134D01*
X170188621Y-56923830D01*
X170165705Y-56908886D01*
X170047000Y-56827686D01*
X169899697Y-56722614D01*
X169735294Y-56602373D01*
X169565286Y-56475664D01*
X169401169Y-56351186D01*
X169254441Y-56237641D01*
X169136597Y-56143731D01*
X169059134Y-56078155D01*
X169033547Y-56049615D01*
X169033773Y-56049302D01*
X169078761Y-56040152D01*
X169189070Y-56032194D01*
X169352276Y-56025912D01*
X169555953Y-56021789D01*
X169787676Y-56020308D01*
X170524586Y-56020308D01*
X170748022Y-55346231D01*
X170815178Y-55144727D01*
X170880715Y-54950415D01*
X170934645Y-54793004D01*
X170972700Y-54684941D01*
X170990614Y-54638674D01*
X170994231Y-54633163D01*
X171016416Y-54628339D01*
X171046396Y-54669361D01*
G37*
G36*
X176705231Y-60342489D02*
G01*
X176705231Y-60865846D01*
X176275385Y-60865846D01*
X175845539Y-60865846D01*
X175845539Y-61022154D01*
X175845539Y-61178461D01*
X176275385Y-61178461D01*
X176705231Y-61178461D01*
X176705231Y-61779973D01*
X176704918Y-61895541D01*
X176704781Y-61946226D01*
X176701946Y-62133287D01*
X176695518Y-62261327D01*
X176684372Y-62341734D01*
X176667381Y-62385896D01*
X176643420Y-62405204D01*
X176612833Y-62410562D01*
X176510889Y-62417855D01*
X176355026Y-62423675D01*
X176159868Y-62427529D01*
X175940035Y-62428923D01*
X175298462Y-62428923D01*
X175298462Y-62658383D01*
X175298462Y-66094977D01*
X175298270Y-66584257D01*
X175297236Y-67263983D01*
X175295303Y-67866747D01*
X175292460Y-68393265D01*
X175292340Y-68407692D01*
X175288701Y-68844254D01*
X175284019Y-69220430D01*
X175278404Y-69522510D01*
X175271849Y-69751208D01*
X175264347Y-69907243D01*
X175255889Y-69991329D01*
X175176737Y-70273243D01*
X175021607Y-70573402D01*
X174805499Y-70830061D01*
X174534180Y-71036607D01*
X174213416Y-71186431D01*
X174116673Y-71214775D01*
X173977385Y-71242166D01*
X173797629Y-71264933D01*
X173564841Y-71284619D01*
X173266462Y-71302766D01*
X172926464Y-71324003D01*
X172617399Y-71351888D01*
X172363034Y-71386621D01*
X172151129Y-71430299D01*
X171969447Y-71485015D01*
X171805750Y-71552867D01*
X171687085Y-71616625D01*
X171470064Y-71768671D01*
X171275771Y-71947198D01*
X171130760Y-72129520D01*
X171034288Y-72282342D01*
X170883423Y-72074171D01*
X170858087Y-72039831D01*
X170692146Y-71848458D01*
X170503994Y-71695458D01*
X170265870Y-71557606D01*
X170239390Y-71544442D01*
X170084897Y-71478274D01*
X169915066Y-71425484D01*
X169717341Y-71383852D01*
X169479164Y-71351154D01*
X169187980Y-71325169D01*
X168831231Y-71303672D01*
X168634082Y-71292836D01*
X168356602Y-71272790D01*
X168135703Y-71248176D01*
X167957855Y-71216329D01*
X167809524Y-71174583D01*
X167677178Y-71120271D01*
X167547284Y-71050727D01*
X167530641Y-71040720D01*
X167341492Y-70896056D01*
X167157079Y-70706100D01*
X166999628Y-70496530D01*
X166891368Y-70293023D01*
X166879515Y-70262707D01*
X166860649Y-70209324D01*
X166844920Y-70151935D01*
X166831914Y-70083127D01*
X166821215Y-69995484D01*
X166812408Y-69881594D01*
X166805081Y-69734041D01*
X166798816Y-69545411D01*
X166793201Y-69308291D01*
X166787821Y-69015267D01*
X166782260Y-68658923D01*
X166776104Y-68231846D01*
X166773929Y-68072721D01*
X166772027Y-67915934D01*
X167366805Y-67915934D01*
X167369712Y-68020946D01*
X167390696Y-68187315D01*
X167415546Y-68368615D01*
X168015927Y-68368615D01*
X168616308Y-68368615D01*
X168616308Y-68095077D01*
X168616308Y-67821538D01*
X168416687Y-67821538D01*
X168330196Y-67820533D01*
X168256632Y-67811334D01*
X168231796Y-67785237D01*
X168238173Y-67733615D01*
X168240066Y-67725599D01*
X168262234Y-67621797D01*
X168285835Y-67499154D01*
X168312390Y-67352615D01*
X168867946Y-67352615D01*
X169423501Y-67352615D01*
X169469951Y-67553850D01*
X169486311Y-67632162D01*
X169500332Y-67728253D01*
X169498131Y-67773356D01*
X169484928Y-67779598D01*
X169412176Y-67796008D01*
X169302084Y-67811664D01*
X169124308Y-67831702D01*
X169124308Y-68119697D01*
X169124308Y-68407692D01*
X169730000Y-68407692D01*
X170335693Y-68407692D01*
X170335693Y-68114615D01*
X170335693Y-67821538D01*
X170182193Y-67821538D01*
X170028694Y-67821538D01*
X169814061Y-67147461D01*
X169783190Y-67050423D01*
X169699314Y-66786224D01*
X169601744Y-66478306D01*
X169497252Y-66148067D01*
X169392611Y-65816909D01*
X169294596Y-65506231D01*
X168989763Y-64539077D01*
X168810472Y-64539077D01*
X168631180Y-64539077D01*
X168505746Y-64998231D01*
X168499998Y-65019265D01*
X168453726Y-65188355D01*
X168391380Y-65415889D01*
X168316951Y-65687321D01*
X168234428Y-65988106D01*
X168147799Y-66303701D01*
X168061054Y-66619560D01*
X167741797Y-67781735D01*
X167553822Y-67806671D01*
X167535051Y-67809185D01*
X167442624Y-67826040D01*
X167388825Y-67856294D01*
X167366805Y-67915934D01*
X166772027Y-67915934D01*
X166768217Y-67601924D01*
X166762780Y-67080458D01*
X166757777Y-66528319D01*
X166753371Y-65965506D01*
X166749722Y-65412016D01*
X166746992Y-64887848D01*
X166745341Y-64412999D01*
X166744340Y-63993173D01*
X168252535Y-63993173D01*
X168257972Y-64118670D01*
X168278970Y-64200611D01*
X168319518Y-64261171D01*
X168357219Y-64296121D01*
X168464865Y-64342390D01*
X168602932Y-64336387D01*
X168776770Y-64276554D01*
X168991728Y-64161333D01*
X169253155Y-63989163D01*
X169304094Y-63954164D01*
X169500056Y-63838342D01*
X169687320Y-63765839D01*
X169881320Y-63735528D01*
X170097491Y-63746281D01*
X170351265Y-63796968D01*
X170658077Y-63886463D01*
X171039077Y-64008619D01*
X171039077Y-64840463D01*
X171039077Y-65672308D01*
X170746000Y-65672308D01*
X170452923Y-65672308D01*
X170452923Y-65384069D01*
X170452923Y-65095831D01*
X170228231Y-65076350D01*
X170130709Y-65069724D01*
X170026392Y-65067758D01*
X169974231Y-65073817D01*
X169969061Y-65091176D01*
X169961299Y-65175880D01*
X169954657Y-65320865D01*
X169949481Y-65515057D01*
X169946121Y-65747382D01*
X169944923Y-66006768D01*
X169944923Y-66922769D01*
X170198923Y-66922769D01*
X170452923Y-66922769D01*
X170452923Y-66610154D01*
X170452923Y-66297538D01*
X170746600Y-66297538D01*
X171040276Y-66297538D01*
X171029907Y-67415837D01*
X171020711Y-68407692D01*
X171019539Y-68534136D01*
X170835382Y-68606458D01*
X170783159Y-68629483D01*
X170645815Y-68701115D01*
X170482461Y-68796178D01*
X170318152Y-68900435D01*
X170276929Y-68927815D01*
X170136334Y-69018624D01*
X170036964Y-69073923D01*
X169960092Y-69100841D01*
X169886988Y-69106506D01*
X169798924Y-69098046D01*
X169744341Y-69090513D01*
X169620171Y-69070097D01*
X169534616Y-69051591D01*
X169455557Y-69051447D01*
X169363375Y-69108176D01*
X169302879Y-69214089D01*
X169302527Y-69215309D01*
X169313068Y-69309384D01*
X169381060Y-69419267D01*
X169493070Y-69528541D01*
X169635667Y-69620790D01*
X169810448Y-69677714D01*
X170027677Y-69697379D01*
X170251065Y-69677174D01*
X170449622Y-69617233D01*
X170515303Y-69583154D01*
X170657961Y-69490631D01*
X170787077Y-69386944D01*
X170958551Y-69243563D01*
X171113482Y-69153416D01*
X171275277Y-69107237D01*
X171468923Y-69094300D01*
X171564911Y-69096806D01*
X171738683Y-69122253D01*
X171887444Y-69180907D01*
X171945550Y-69209853D01*
X172087724Y-69259299D01*
X172186787Y-69252216D01*
X172250705Y-69188776D01*
X172267452Y-69143135D01*
X172257420Y-69024832D01*
X172185752Y-68899180D01*
X172061824Y-68776430D01*
X171895009Y-68666835D01*
X171694681Y-68580647D01*
X171508000Y-68518642D01*
X171508000Y-68368615D01*
X171820616Y-68368615D01*
X172426308Y-68368615D01*
X173032000Y-68368615D01*
X173032000Y-68095077D01*
X173032000Y-67821538D01*
X172836616Y-67821538D01*
X172752681Y-67820963D01*
X172679712Y-67810112D01*
X172650554Y-67772545D01*
X172656044Y-67691692D01*
X172687019Y-67550981D01*
X172732808Y-67352615D01*
X173286000Y-67352615D01*
X173839193Y-67352615D01*
X173885107Y-67551527D01*
X173900383Y-67626830D01*
X173913351Y-67730376D01*
X173909051Y-67785989D01*
X173896439Y-67795694D01*
X173823402Y-67814194D01*
X173713540Y-67821538D01*
X173540000Y-67821538D01*
X173540000Y-68089225D01*
X173540000Y-68356912D01*
X173897696Y-68382302D01*
X173942374Y-68385347D01*
X174144865Y-68396715D01*
X174344348Y-68404686D01*
X174503388Y-68407692D01*
X174751385Y-68407692D01*
X174751385Y-68114615D01*
X174751385Y-67821538D01*
X174597374Y-67821538D01*
X174443364Y-67821538D01*
X174209520Y-67088846D01*
X174194565Y-67041967D01*
X174106212Y-66764388D01*
X174003737Y-66441625D01*
X173894927Y-66098249D01*
X173787570Y-65758831D01*
X173689454Y-65447942D01*
X173403231Y-64539731D01*
X173238529Y-64539404D01*
X173206778Y-64539874D01*
X173095079Y-64558302D01*
X173038562Y-64607461D01*
X173033884Y-64619301D01*
X173008826Y-64698407D01*
X172966700Y-64841289D01*
X172909871Y-65039575D01*
X172840707Y-65284897D01*
X172761572Y-65568886D01*
X172674834Y-65883172D01*
X172582858Y-66219384D01*
X172544358Y-66360178D01*
X172454111Y-66685864D01*
X172369680Y-66984655D01*
X172293459Y-67248451D01*
X172227839Y-67469148D01*
X172175214Y-67638645D01*
X172137975Y-67748840D01*
X172118517Y-67791632D01*
X172118014Y-67791956D01*
X172049568Y-67812193D01*
X171947616Y-67820940D01*
X171820616Y-67821538D01*
X171820616Y-68095077D01*
X171820616Y-68368615D01*
X171508000Y-68368615D01*
X171508000Y-66281662D01*
X171508000Y-64044682D01*
X171889000Y-63963672D01*
X171916927Y-63957705D01*
X172192739Y-63893771D01*
X172409679Y-63829986D01*
X172584954Y-63758018D01*
X172735772Y-63669532D01*
X172879339Y-63556194D01*
X173032863Y-63409672D01*
X173156203Y-63275211D01*
X173280796Y-63119602D01*
X173388112Y-62966309D01*
X173469249Y-62829137D01*
X173515303Y-62721894D01*
X173517371Y-62658383D01*
X173509879Y-62656229D01*
X173449101Y-62672785D01*
X173342518Y-62716606D01*
X173207124Y-62780978D01*
X172819687Y-62943046D01*
X172345247Y-63070183D01*
X171842707Y-63137938D01*
X171325079Y-63145438D01*
X170805377Y-63091810D01*
X170296616Y-62976181D01*
X170266064Y-62967269D01*
X169904220Y-62877244D01*
X169592842Y-62832442D01*
X169320310Y-62831895D01*
X169075001Y-62874638D01*
X168800125Y-62979768D01*
X168571177Y-63138361D01*
X168403331Y-63345457D01*
X168297508Y-63599905D01*
X168254627Y-63900555D01*
X168252535Y-63993173D01*
X166744340Y-63993173D01*
X166740616Y-62430768D01*
X166066539Y-62420076D01*
X165392462Y-62409384D01*
X165388021Y-62155384D01*
X165646462Y-62155384D01*
X171013026Y-62155384D01*
X171405848Y-62155315D01*
X172034710Y-62154908D01*
X172639336Y-62154156D01*
X173215234Y-62153081D01*
X173757910Y-62151705D01*
X174262872Y-62150049D01*
X174725625Y-62148135D01*
X175141677Y-62145984D01*
X175506535Y-62143619D01*
X175815704Y-62141061D01*
X176064693Y-62138331D01*
X176249008Y-62135453D01*
X176364155Y-62132446D01*
X176405641Y-62129333D01*
X176414797Y-62106570D01*
X176425595Y-62020261D01*
X176430281Y-61895541D01*
X176428794Y-61757310D01*
X176421075Y-61630470D01*
X176407063Y-61539923D01*
X176383501Y-61452000D01*
X171014981Y-61452000D01*
X165646462Y-61452000D01*
X165646462Y-61803692D01*
X165646462Y-62155384D01*
X165388021Y-62155384D01*
X165381700Y-61793923D01*
X165370939Y-61178461D01*
X165801777Y-61178461D01*
X166232616Y-61178461D01*
X166232616Y-61023476D01*
X166232616Y-60868490D01*
X165812539Y-60857399D01*
X165392462Y-60846308D01*
X165388021Y-60592308D01*
X165646462Y-60592308D01*
X170368529Y-60592308D01*
X170725352Y-60592376D01*
X171333753Y-60592810D01*
X171926258Y-60593621D01*
X172497206Y-60594782D01*
X173040938Y-60596269D01*
X173551793Y-60598055D01*
X174024113Y-60600114D01*
X174452237Y-60602420D01*
X174830506Y-60604949D01*
X175153261Y-60607673D01*
X175414840Y-60610568D01*
X175609585Y-60613607D01*
X175731836Y-60616765D01*
X175882643Y-60621624D01*
X176081757Y-60625028D01*
X176243878Y-60624178D01*
X176355316Y-60619209D01*
X176402385Y-60610252D01*
X176414777Y-60573491D01*
X176425497Y-60475407D01*
X176430264Y-60342489D01*
X176428900Y-60198948D01*
X176421226Y-60068996D01*
X176407063Y-59976846D01*
X176383501Y-59888923D01*
X171014981Y-59888923D01*
X165646462Y-59888923D01*
X165646462Y-60240615D01*
X165646462Y-60592308D01*
X165388021Y-60592308D01*
X165381700Y-60230846D01*
X165370939Y-59615384D01*
X166076662Y-59615384D01*
X166782384Y-59615384D01*
X166756732Y-59422010D01*
X166748604Y-59319234D01*
X166747705Y-59144405D01*
X166758497Y-58972625D01*
X166785913Y-58716615D01*
X171042188Y-58716615D01*
X175298462Y-58716615D01*
X175298462Y-59166000D01*
X175298462Y-59615384D01*
X176001846Y-59615384D01*
X176705231Y-59615384D01*
X176705231Y-60240615D01*
X176705231Y-60342489D01*
G37*
G36*
X176609205Y-63812095D02*
G01*
X176631299Y-63849347D01*
X176682985Y-63967316D01*
X176743004Y-64133076D01*
X176804928Y-64328281D01*
X176862329Y-64534584D01*
X176906470Y-64705937D01*
X177003905Y-64495634D01*
X177025984Y-64449214D01*
X177115146Y-64287515D01*
X177194610Y-64184477D01*
X177258364Y-64148308D01*
X177269247Y-64155247D01*
X177286006Y-64219846D01*
X177291414Y-64339953D01*
X177286199Y-64500428D01*
X177271085Y-64686129D01*
X177246798Y-64881912D01*
X177214064Y-65072636D01*
X177137103Y-65408322D01*
X176992389Y-65870000D01*
X176816628Y-66263492D01*
X176688779Y-66503361D01*
X176799839Y-66937757D01*
X176841755Y-67096361D01*
X176884614Y-67247184D01*
X176918739Y-67355111D01*
X176939193Y-67403635D01*
X176944504Y-67407044D01*
X176978550Y-67382216D01*
X177018451Y-67305943D01*
X177037515Y-67261950D01*
X177101077Y-67144737D01*
X177174849Y-67035279D01*
X177243920Y-66954361D01*
X177293374Y-66922769D01*
X177307051Y-66933217D01*
X177323897Y-67003754D01*
X177329585Y-67127504D01*
X177324784Y-67288789D01*
X177310163Y-67471932D01*
X177286394Y-67661254D01*
X177254145Y-67841077D01*
X177182947Y-68138664D01*
X177083535Y-68477311D01*
X176974123Y-68782654D01*
X176862070Y-69032339D01*
X176846541Y-69062788D01*
X176803004Y-69158787D01*
X176773620Y-69253253D01*
X176754699Y-69366106D01*
X176742552Y-69517269D01*
X176733490Y-69726662D01*
X176716401Y-70205477D01*
X176898852Y-70034815D01*
X177039610Y-69909973D01*
X177156745Y-69824158D01*
X177228159Y-69797596D01*
X177252308Y-69831178D01*
X177251566Y-69846342D01*
X177222404Y-69963936D01*
X177156082Y-70128918D01*
X177059871Y-70327758D01*
X176941041Y-70546925D01*
X176806862Y-70772890D01*
X176664606Y-70992122D01*
X176521543Y-71191092D01*
X176360963Y-71384702D01*
X176147776Y-71612533D01*
X175911815Y-71842033D01*
X175670428Y-72057103D01*
X175440963Y-72241644D01*
X175240769Y-72379558D01*
X174910063Y-72580500D01*
X175199325Y-72595107D01*
X175283258Y-72600041D01*
X175427585Y-72615621D01*
X175507240Y-72640281D01*
X175531617Y-72678205D01*
X175510113Y-72733581D01*
X175474199Y-72769147D01*
X175356857Y-72827328D01*
X175176835Y-72881540D01*
X174943855Y-72930176D01*
X174667637Y-72971627D01*
X174357903Y-73004287D01*
X174024373Y-73026546D01*
X173676770Y-73036798D01*
X173441520Y-73040751D01*
X173211883Y-73049611D01*
X173032813Y-73064117D01*
X172889155Y-73085575D01*
X172765752Y-73115291D01*
X172519043Y-73186767D01*
X172785291Y-73340550D01*
X172939700Y-73433704D01*
X173101916Y-73547497D01*
X173196615Y-73640134D01*
X173227385Y-73714651D01*
X173225539Y-73726919D01*
X173201450Y-73748174D01*
X173139002Y-73758586D01*
X173025034Y-73759447D01*
X172846385Y-73752049D01*
X172661747Y-73737948D01*
X172429025Y-73701643D01*
X172194036Y-73639249D01*
X171924548Y-73543474D01*
X171913132Y-73540527D01*
X171904863Y-73564379D01*
X171944049Y-73642481D01*
X172032009Y-73777704D01*
X172055105Y-73811906D01*
X172134668Y-73937825D01*
X172190391Y-74038912D01*
X172211385Y-74095854D01*
X172207224Y-74114017D01*
X172157090Y-74143104D01*
X172041481Y-74152000D01*
X171871578Y-74152000D01*
X171731412Y-73868692D01*
X171727592Y-73861013D01*
X171638044Y-73697698D01*
X171538171Y-73539374D01*
X171448886Y-73419308D01*
X171364606Y-73326354D01*
X171295034Y-73276374D01*
X171209992Y-73256678D01*
X171078154Y-73253231D01*
X170947466Y-73256576D01*
X170862077Y-73276015D01*
X170792504Y-73325581D01*
X170707422Y-73419308D01*
X170703543Y-73423876D01*
X170613236Y-73546638D01*
X170513382Y-73705998D01*
X170424896Y-73868692D01*
X170284730Y-74152000D01*
X170114827Y-74152000D01*
X170092698Y-74151730D01*
X169994799Y-74137777D01*
X169950157Y-74097431D01*
X169959230Y-74023428D01*
X170022472Y-73908506D01*
X170140340Y-73745403D01*
X170335757Y-73490442D01*
X170157998Y-73566638D01*
X170045778Y-73611450D01*
X169639194Y-73723171D01*
X169226129Y-73761231D01*
X169137184Y-73760395D01*
X169013064Y-73752924D01*
X168947854Y-73735786D01*
X168928923Y-73706663D01*
X168932149Y-73689453D01*
X168983726Y-73614793D01*
X169087618Y-73520581D01*
X169230135Y-73418147D01*
X169397587Y-73318822D01*
X169488349Y-73264608D01*
X169556135Y-73210418D01*
X169568946Y-73177666D01*
X169547127Y-73161816D01*
X169434755Y-73116517D01*
X169269708Y-73079286D01*
X169071164Y-73052915D01*
X168858301Y-73040198D01*
X168650298Y-73043926D01*
X168444048Y-73049842D01*
X168163595Y-73041453D01*
X167862201Y-73018368D01*
X167556380Y-72982875D01*
X167262647Y-72937261D01*
X166997517Y-72883813D01*
X166777506Y-72824819D01*
X166619127Y-72762567D01*
X166611728Y-72758731D01*
X166537025Y-72715233D01*
X166524543Y-72686592D01*
X166565998Y-72656232D01*
X166567240Y-72655556D01*
X166643652Y-72632650D01*
X166770558Y-72611696D01*
X166921155Y-72597152D01*
X167203072Y-72579060D01*
X166864382Y-72355128D01*
X166736611Y-72263711D01*
X166510289Y-72077856D01*
X166265620Y-71853788D01*
X166018415Y-71607489D01*
X165784486Y-71354939D01*
X165579645Y-71112118D01*
X165419703Y-70895007D01*
X165401905Y-70867981D01*
X165276309Y-70664363D01*
X165155742Y-70448846D01*
X165049976Y-70240531D01*
X164968781Y-70058523D01*
X164921932Y-69921923D01*
X164915410Y-69889547D01*
X164924186Y-69824876D01*
X164979070Y-69823153D01*
X165080112Y-69884393D01*
X165227364Y-70008612D01*
X165439796Y-70202762D01*
X165422539Y-69725304D01*
X165417929Y-69606271D01*
X165408108Y-69433206D01*
X165393161Y-69306271D01*
X165368903Y-69204626D01*
X165331153Y-69107431D01*
X165275727Y-68993846D01*
X165205780Y-68844548D01*
X165084727Y-68525328D01*
X164980245Y-68172510D01*
X164898459Y-67811118D01*
X164845493Y-67466173D01*
X164827473Y-67162698D01*
X164829100Y-66864154D01*
X164962816Y-67015553D01*
X165003401Y-67065144D01*
X165087448Y-67190585D01*
X165141253Y-67302458D01*
X165150048Y-67327006D01*
X165185949Y-67394446D01*
X165215052Y-67405059D01*
X165232997Y-67363929D01*
X165266207Y-67260746D01*
X165308560Y-67113106D01*
X165355094Y-66937580D01*
X165466057Y-66503007D01*
X165325759Y-66234195D01*
X165286429Y-66155584D01*
X165144645Y-65813931D01*
X165021444Y-65422970D01*
X164924151Y-65005111D01*
X164900533Y-64863203D01*
X164878223Y-64674422D01*
X164864915Y-64491063D01*
X164861396Y-64331071D01*
X164868451Y-64212393D01*
X164886864Y-64152974D01*
X164892343Y-64149726D01*
X164937578Y-64170306D01*
X165003331Y-64238838D01*
X165076327Y-64337723D01*
X165143292Y-64449363D01*
X165190954Y-64556158D01*
X165245085Y-64714923D01*
X165291602Y-64539077D01*
X165330046Y-64399058D01*
X165394908Y-64184127D01*
X165456789Y-64003213D01*
X165510755Y-63870345D01*
X165551866Y-63799551D01*
X165562728Y-63788927D01*
X165596615Y-63777839D01*
X165631644Y-63817822D01*
X165679930Y-63920300D01*
X165709698Y-63998038D01*
X165760924Y-64163388D01*
X165800240Y-64327672D01*
X165806136Y-64358226D01*
X165841161Y-64538807D01*
X165866755Y-64649806D01*
X165889243Y-64697186D01*
X165914950Y-64686911D01*
X165950203Y-64624944D01*
X166001327Y-64517249D01*
X166063397Y-64399382D01*
X166143397Y-64272678D01*
X166212366Y-64188053D01*
X166310770Y-64095607D01*
X166310612Y-64268496D01*
X166310591Y-64275485D01*
X166291330Y-64558071D01*
X166240201Y-64883914D01*
X166163331Y-65228746D01*
X166066847Y-65568294D01*
X165956876Y-65878289D01*
X165839545Y-66134462D01*
X165746745Y-66332658D01*
X165690725Y-66546131D01*
X165689855Y-66763943D01*
X165740959Y-67014447D01*
X165758468Y-67080718D01*
X165795503Y-67236353D01*
X165821712Y-67366802D01*
X165847045Y-67517758D01*
X165956539Y-67288648D01*
X166014525Y-67179401D01*
X166096455Y-67051679D01*
X166168862Y-66964804D01*
X166271693Y-66870069D01*
X166271693Y-67045841D01*
X166258017Y-67281199D01*
X166210964Y-67599063D01*
X166135998Y-67941999D01*
X166038975Y-68286989D01*
X165925751Y-68611019D01*
X165802184Y-68891071D01*
X165775551Y-68945075D01*
X165709605Y-69092745D01*
X165663690Y-69216568D01*
X165646462Y-69294140D01*
X165653884Y-69331721D01*
X165694962Y-69435102D01*
X165763942Y-69572899D01*
X165851616Y-69725735D01*
X166056770Y-70061796D01*
X166080621Y-69850205D01*
X166090958Y-69778877D01*
X166126687Y-69617095D01*
X166170944Y-69482308D01*
X166205529Y-69408700D01*
X166236465Y-69372028D01*
X166265249Y-69385773D01*
X166296320Y-69456477D01*
X166334116Y-69590680D01*
X166383076Y-69794923D01*
X166467504Y-70224210D01*
X166522699Y-70721342D01*
X166523186Y-71175394D01*
X166468673Y-71580290D01*
X166460190Y-71630618D01*
X166467242Y-71733009D01*
X166519932Y-71812089D01*
X166626386Y-71873395D01*
X166794732Y-71922464D01*
X167033096Y-71964831D01*
X167436816Y-72024586D01*
X167205946Y-71777786D01*
X167110420Y-71671872D01*
X167013282Y-71547674D01*
X166976061Y-71470321D01*
X166999049Y-71440569D01*
X167082539Y-71459174D01*
X167105441Y-71468058D01*
X167280953Y-71545269D01*
X167496939Y-71651553D01*
X167731802Y-71775258D01*
X167963947Y-71904729D01*
X168171779Y-72028313D01*
X168333702Y-72134356D01*
X168371629Y-72161718D01*
X168543330Y-72294772D01*
X168713213Y-72438558D01*
X168849435Y-72566399D01*
X168873435Y-72590683D01*
X168975298Y-72689118D01*
X169054271Y-72758227D01*
X169094921Y-72784308D01*
X169101948Y-72783539D01*
X169167530Y-72764083D01*
X169264911Y-72726609D01*
X169403003Y-72668910D01*
X169284958Y-72521455D01*
X169225695Y-72439574D01*
X169152135Y-72316711D01*
X169094138Y-72197482D01*
X169061261Y-72102153D01*
X169063063Y-72050989D01*
X169098529Y-72050139D01*
X169195732Y-72068678D01*
X169338582Y-72103924D01*
X169511828Y-72151389D01*
X169700219Y-72206587D01*
X169888504Y-72265031D01*
X170061430Y-72322233D01*
X170203746Y-72373707D01*
X170300202Y-72414965D01*
X170414047Y-72487752D01*
X170551717Y-72599540D01*
X170678324Y-72723217D01*
X170740708Y-72790796D01*
X170826557Y-72874972D01*
X170896185Y-72919721D01*
X170972437Y-72937462D01*
X171078154Y-72940615D01*
X171141293Y-72939944D01*
X171227982Y-72930307D01*
X171297765Y-72899254D01*
X171373485Y-72834364D01*
X171477984Y-72723217D01*
X171598844Y-72604743D01*
X171736638Y-72492195D01*
X171856106Y-72415577D01*
X171875235Y-72406592D01*
X171979127Y-72365301D01*
X172129153Y-72311957D01*
X172308184Y-72251972D01*
X172499092Y-72190758D01*
X172684750Y-72133727D01*
X172848030Y-72086290D01*
X172971804Y-72053859D01*
X173038943Y-72041846D01*
X173065395Y-72053232D01*
X173075599Y-72113653D01*
X173050528Y-72212196D01*
X172996443Y-72333060D01*
X172919605Y-72460443D01*
X172826276Y-72578542D01*
X172745988Y-72665853D01*
X172887739Y-72725080D01*
X172914867Y-72736226D01*
X173005555Y-72770502D01*
X173054778Y-72784308D01*
X173084995Y-72764300D01*
X173161453Y-72700110D01*
X173270911Y-72602218D01*
X173400984Y-72481461D01*
X173504892Y-72388183D01*
X173795654Y-72161086D01*
X174127946Y-71939364D01*
X174477279Y-71738678D01*
X174819163Y-71574686D01*
X174866004Y-71554963D01*
X175037217Y-71488934D01*
X175142843Y-71462315D01*
X175183949Y-71477183D01*
X175161606Y-71535613D01*
X175076883Y-71639681D01*
X174930849Y-71791464D01*
X174871718Y-71851864D01*
X174783023Y-71948940D01*
X174731097Y-72015361D01*
X174725696Y-72039341D01*
X174751806Y-72036209D01*
X174845264Y-72021825D01*
X174985005Y-71998658D01*
X175151979Y-71969815D01*
X175222088Y-71957012D01*
X175412491Y-71914448D01*
X175539752Y-71870157D01*
X175615410Y-71820420D01*
X175631728Y-71803692D01*
X175662046Y-71763671D01*
X175677947Y-71713225D01*
X175680675Y-71635564D01*
X175671471Y-71513900D01*
X175651577Y-71331444D01*
X175649946Y-71316950D01*
X175627659Y-71043574D01*
X175627809Y-70792980D01*
X175650322Y-70516323D01*
X175655607Y-70470499D01*
X175685361Y-70257034D01*
X175723448Y-70033100D01*
X175766207Y-69816295D01*
X175809974Y-69624215D01*
X175851088Y-69474456D01*
X175885885Y-69384615D01*
X175889203Y-69379435D01*
X175923058Y-69376123D01*
X175963950Y-69434713D01*
X176006383Y-69541695D01*
X176044860Y-69683553D01*
X176073884Y-69846776D01*
X176103283Y-70068461D01*
X176187292Y-69912154D01*
X176216654Y-69859480D01*
X176301941Y-69717118D01*
X176390406Y-69580000D01*
X176432836Y-69510707D01*
X176488012Y-69392737D01*
X176509679Y-69303020D01*
X176503982Y-69265737D01*
X176469625Y-69157883D01*
X176411082Y-69013607D01*
X176336346Y-68853635D01*
X176288952Y-68753548D01*
X176160001Y-68427694D01*
X176048976Y-68069124D01*
X175962010Y-67702422D01*
X175905231Y-67352172D01*
X175884773Y-67042957D01*
X175884616Y-66870069D01*
X175987817Y-66964804D01*
X176045063Y-67031571D01*
X176125576Y-67154577D01*
X176198974Y-67294000D01*
X176306929Y-67528461D01*
X176333490Y-67372154D01*
X176347307Y-67297858D01*
X176379394Y-67144531D01*
X176415410Y-66987998D01*
X176454962Y-66798567D01*
X176468867Y-66627385D01*
X176449007Y-66468143D01*
X176391965Y-66295332D01*
X176294327Y-66083445D01*
X176198388Y-65866997D01*
X176079388Y-65530995D01*
X175977945Y-65167753D01*
X175901920Y-64806325D01*
X175859179Y-64475766D01*
X175857605Y-64454351D01*
X175852962Y-64279971D01*
X175869084Y-64179484D01*
X175906625Y-64152986D01*
X175966238Y-64200572D01*
X176048577Y-64322334D01*
X176154298Y-64518368D01*
X176213832Y-64632410D01*
X176252816Y-64691730D01*
X176275162Y-64696033D01*
X176289077Y-64653553D01*
X176290394Y-64646869D01*
X176337386Y-64414071D01*
X176375390Y-64241262D01*
X176408666Y-64111836D01*
X176441472Y-64009188D01*
X176478068Y-63916714D01*
X176510483Y-63843312D01*
X176546145Y-63780877D01*
X176574666Y-63773971D01*
X176609205Y-63812095D01*
G37*
%TO.C,G2*%
G36*
X122589349Y-63150000D02*
G01*
X122589349Y-63355479D01*
X122351381Y-63340239D01*
X122237009Y-63331394D01*
X122150695Y-63309156D01*
X122118320Y-63255746D01*
X122113412Y-63150000D01*
X122115480Y-63065759D01*
X122138203Y-63000829D01*
X122208011Y-62972551D01*
X122351381Y-62959760D01*
X122589349Y-62944520D01*
X122589349Y-63150000D01*
G37*
G36*
X133799606Y-63150000D02*
G01*
X133799606Y-63355479D01*
X133561638Y-63340239D01*
X133447266Y-63331394D01*
X133360951Y-63309156D01*
X133328577Y-63255746D01*
X133323669Y-63150000D01*
X133325737Y-63065759D01*
X133348460Y-63000829D01*
X133418268Y-62972551D01*
X133561638Y-62959760D01*
X133799606Y-62944520D01*
X133799606Y-63150000D01*
G37*
G36*
X133799606Y-64372260D02*
G01*
X133799606Y-64650000D01*
X133605346Y-64650000D01*
X133534643Y-64647009D01*
X133389632Y-64602671D01*
X133317503Y-64496203D01*
X133307912Y-64315989D01*
X133317663Y-64222762D01*
X133346036Y-64152748D01*
X133417947Y-64122733D01*
X133561638Y-64109760D01*
X133799606Y-64094520D01*
X133799606Y-64372260D01*
G37*
G36*
X131094951Y-63747900D02*
G01*
X131097111Y-63893769D01*
X131098537Y-64150247D01*
X131096662Y-64363656D01*
X131091733Y-64515029D01*
X131083999Y-64585400D01*
X131034763Y-64623422D01*
X130918472Y-64646673D01*
X130775192Y-64647090D01*
X130642964Y-64625010D01*
X130559828Y-64580770D01*
X130536017Y-64508979D01*
X130520032Y-64347006D01*
X130513466Y-64093036D01*
X130516120Y-63743270D01*
X130529980Y-62975000D01*
X130805523Y-62975000D01*
X131081065Y-62975000D01*
X131094951Y-63747900D01*
G37*
G36*
X123583223Y-53812939D02*
G01*
X123726193Y-53874812D01*
X123926456Y-54012758D01*
X124569263Y-54472538D01*
X125265163Y-54893258D01*
X125945028Y-55222552D01*
X126606007Y-55459231D01*
X127245246Y-55602110D01*
X127859894Y-55650000D01*
X128346604Y-55618876D01*
X128968285Y-55496919D01*
X129609543Y-55285271D01*
X130263506Y-54986719D01*
X130923299Y-54604052D01*
X131582051Y-54140058D01*
X131800160Y-53978264D01*
X131961120Y-53873863D01*
X132075825Y-53821265D01*
X132158186Y-53812563D01*
X132167194Y-53815686D01*
X132248840Y-53863787D01*
X132401434Y-53965599D01*
X132617860Y-54116010D01*
X132891007Y-54309909D01*
X133213759Y-54542186D01*
X133579003Y-54807728D01*
X133979627Y-55101424D01*
X134408515Y-55418164D01*
X134858555Y-55752835D01*
X137433679Y-57674343D01*
X137399445Y-58896777D01*
X137344723Y-60094094D01*
X137237574Y-61327913D01*
X137078517Y-62501899D01*
X136865128Y-63630833D01*
X136594984Y-64729497D01*
X136265663Y-65812672D01*
X136191080Y-66032475D01*
X135698831Y-67311117D01*
X135124669Y-68535254D01*
X134467577Y-69706222D01*
X133726535Y-70825355D01*
X132900525Y-71893988D01*
X131988528Y-72913455D01*
X130989526Y-73885090D01*
X129902499Y-74810230D01*
X128726430Y-75690207D01*
X128466523Y-75868735D01*
X128216450Y-76028196D01*
X128039587Y-76123610D01*
X127934512Y-76155727D01*
X127899803Y-76125294D01*
X127915969Y-76108060D01*
X127999497Y-76045071D01*
X128138124Y-75949496D01*
X128313713Y-75834097D01*
X128804046Y-75503006D01*
X129469392Y-75011173D01*
X130147533Y-74466422D01*
X130817438Y-73887091D01*
X131458075Y-73291518D01*
X132048415Y-72698042D01*
X132567426Y-72125000D01*
X132918803Y-71702251D01*
X133743763Y-70601206D01*
X134484116Y-69447309D01*
X135138991Y-68242416D01*
X135707512Y-66988382D01*
X136188806Y-65687064D01*
X136581999Y-64340318D01*
X136886218Y-62950000D01*
X136981568Y-62405720D01*
X137085070Y-61723438D01*
X137165299Y-61058359D01*
X137225181Y-60381348D01*
X137267644Y-59663273D01*
X137295615Y-58875000D01*
X137325569Y-57725000D01*
X134811013Y-55850000D01*
X134736744Y-55794631D01*
X134295874Y-55466391D01*
X133878315Y-55156234D01*
X133491177Y-54869396D01*
X133141570Y-54611111D01*
X132836603Y-54386614D01*
X132583384Y-54201141D01*
X132389024Y-54059926D01*
X132260630Y-53968205D01*
X132205312Y-53931212D01*
X132201625Y-53929577D01*
X132146168Y-53927175D01*
X132059893Y-53960380D01*
X131931039Y-54036030D01*
X131747849Y-54160957D01*
X131498563Y-54341997D01*
X131266172Y-54508990D01*
X130579055Y-54946384D01*
X129906602Y-55287176D01*
X129244757Y-55532395D01*
X128589460Y-55683068D01*
X127936656Y-55740226D01*
X127282284Y-55704895D01*
X126622288Y-55578106D01*
X126245263Y-55460457D01*
X125745180Y-55255641D01*
X125221905Y-54994070D01*
X124697648Y-54687017D01*
X124194618Y-54345757D01*
X124062456Y-54249324D01*
X123860540Y-54104350D01*
X123717474Y-54007987D01*
X123619061Y-53952931D01*
X123551103Y-53931877D01*
X123499402Y-53937522D01*
X123449762Y-53962562D01*
X123447728Y-53963831D01*
X123380708Y-54010756D01*
X123241308Y-54111735D01*
X123036816Y-54261391D01*
X122774519Y-54454344D01*
X122461705Y-54685217D01*
X122105663Y-54948631D01*
X121713679Y-55239208D01*
X121293043Y-55551570D01*
X120851042Y-55880338D01*
X118373059Y-57725000D01*
X118399773Y-58900000D01*
X118413653Y-59367133D01*
X118479037Y-60515311D01*
X118590029Y-61607318D01*
X118750211Y-62668522D01*
X118963163Y-63724293D01*
X119232465Y-64800000D01*
X119299038Y-65037753D01*
X119722477Y-66333380D01*
X120236290Y-67587824D01*
X120838570Y-68798497D01*
X121527410Y-69962815D01*
X122300902Y-71078193D01*
X123157138Y-72142045D01*
X124094211Y-73151786D01*
X125110213Y-74104830D01*
X126203236Y-74998593D01*
X127371374Y-75830489D01*
X127504872Y-75921818D01*
X127652835Y-76033249D01*
X127732364Y-76108727D01*
X127734603Y-76140690D01*
X127693919Y-76136963D01*
X127565964Y-76083065D01*
X127377166Y-75974240D01*
X127136939Y-75817589D01*
X126854693Y-75620213D01*
X126539842Y-75389216D01*
X126201798Y-75131698D01*
X125849972Y-74854761D01*
X125493776Y-74565508D01*
X125142624Y-74271039D01*
X124805927Y-73978457D01*
X124493097Y-73694863D01*
X123917744Y-73137917D01*
X122986891Y-72129320D01*
X122139164Y-71065087D01*
X121374822Y-69945722D01*
X120694123Y-68771730D01*
X120097325Y-67543614D01*
X119584686Y-66261879D01*
X119156464Y-64927029D01*
X118812919Y-63539567D01*
X118554307Y-62100000D01*
X118548819Y-62062685D01*
X118483600Y-61599909D01*
X118431427Y-61182297D01*
X118390347Y-60785658D01*
X118358405Y-60385798D01*
X118333647Y-59958525D01*
X118314120Y-59479647D01*
X118297868Y-58924970D01*
X118266101Y-57674940D01*
X120841039Y-55753477D01*
X120966659Y-55659809D01*
X121411034Y-55329629D01*
X121831883Y-55018702D01*
X122222141Y-54732142D01*
X122574744Y-54475060D01*
X122882627Y-54252569D01*
X123138726Y-54069780D01*
X123335975Y-53931807D01*
X123467310Y-53843762D01*
X123525667Y-53810756D01*
X123583223Y-53812939D01*
G37*
G36*
X133695570Y-56175000D02*
G01*
X133985339Y-56389942D01*
X134385256Y-56687211D01*
X135482080Y-57503353D01*
X136416568Y-58198701D01*
X136416182Y-58636850D01*
X136415876Y-58686454D01*
X136407988Y-58969875D01*
X136406326Y-59004064D01*
X136390749Y-59324505D01*
X136365905Y-59727204D01*
X136335201Y-60154836D01*
X136300382Y-60584262D01*
X136300087Y-60587500D01*
X136263195Y-60992345D01*
X136225386Y-61355945D01*
X136188700Y-61651926D01*
X136096242Y-62200000D01*
X135960986Y-63001776D01*
X135653810Y-64325321D01*
X135271229Y-65588449D01*
X134979889Y-66354064D01*
X134811986Y-66795297D01*
X134274824Y-67950000D01*
X134190694Y-68113969D01*
X134071853Y-68342243D01*
X133972548Y-68528977D01*
X133901287Y-68658244D01*
X133866578Y-68714119D01*
X133861435Y-68716513D01*
X133807749Y-68682787D01*
X133718787Y-68586195D01*
X133610878Y-68443986D01*
X133393522Y-68134734D01*
X133552382Y-67993071D01*
X133592334Y-67956616D01*
X133677363Y-67871737D01*
X133711243Y-67825704D01*
X133702749Y-67818604D01*
X133625455Y-67805284D01*
X133493729Y-67800000D01*
X133417768Y-67799168D01*
X133315278Y-67782567D01*
X133259903Y-67724368D01*
X133215742Y-67598556D01*
X133179468Y-67506508D01*
X133124192Y-67436038D01*
X133078797Y-67440667D01*
X133059961Y-67527950D01*
X133056372Y-67567880D01*
X133032863Y-67591376D01*
X132981217Y-67560210D01*
X132894267Y-67467454D01*
X132764847Y-67306177D01*
X132585791Y-67069451D01*
X132190388Y-66538902D01*
X132310941Y-66448148D01*
X132431494Y-66357394D01*
X132381799Y-66353353D01*
X133135109Y-66353353D01*
X133319910Y-66504069D01*
X133504712Y-66654786D01*
X133432097Y-66860192D01*
X133412945Y-66916671D01*
X133380753Y-67029336D01*
X133375390Y-67081475D01*
X133388383Y-67080522D01*
X133462950Y-67043428D01*
X133577473Y-66971090D01*
X133660287Y-66916056D01*
X133745277Y-66874878D01*
X133812192Y-66883890D01*
X133900266Y-66939216D01*
X133925194Y-66956406D01*
X134062979Y-67048352D01*
X134135766Y-67086586D01*
X134157490Y-67075804D01*
X134142086Y-67020702D01*
X134091140Y-66872230D01*
X134071526Y-66724352D01*
X134112333Y-66609792D01*
X134217866Y-66498912D01*
X134387574Y-66354064D01*
X134153781Y-66352032D01*
X134049922Y-66349573D01*
X133952539Y-66329190D01*
X133896229Y-66266762D01*
X133845355Y-66137500D01*
X133770723Y-65925000D01*
X133683285Y-66137500D01*
X133646845Y-66222592D01*
X133590165Y-66310396D01*
X133508988Y-66344924D01*
X133365478Y-66351676D01*
X133135109Y-66353353D01*
X132381799Y-66353353D01*
X132232309Y-66341197D01*
X132110145Y-66321410D01*
X132007972Y-66262014D01*
X131911916Y-66137500D01*
X131790708Y-65950000D01*
X129519614Y-65950000D01*
X129133862Y-65950411D01*
X128693440Y-65951951D01*
X128293444Y-65954515D01*
X127943837Y-65957978D01*
X127654579Y-65962215D01*
X127435632Y-65967104D01*
X127296959Y-65972519D01*
X127248521Y-65978336D01*
X127252970Y-65991463D01*
X127299295Y-66067122D01*
X127379714Y-66178336D01*
X127510906Y-66350000D01*
X127396416Y-66350000D01*
X127355569Y-66351549D01*
X127348399Y-66355881D01*
X127327682Y-66368399D01*
X127363296Y-66416784D01*
X127469515Y-66512500D01*
X127533493Y-66569250D01*
X127609998Y-66653688D01*
X127628476Y-66725126D01*
X127603108Y-66815754D01*
X127555978Y-66957975D01*
X127552173Y-67043247D01*
X127604149Y-67049202D01*
X127714291Y-66979349D01*
X127879470Y-66853608D01*
X128215278Y-67301048D01*
X128333333Y-67460000D01*
X128446190Y-67615821D01*
X128522832Y-67726287D01*
X128551085Y-67774243D01*
X128526478Y-67790714D01*
X128442968Y-67801487D01*
X128438363Y-67802081D01*
X128398988Y-67804138D01*
X128369065Y-67820957D01*
X128401964Y-67868849D01*
X128504513Y-67964581D01*
X128592143Y-68045605D01*
X128649590Y-68123031D01*
X128654758Y-68206634D01*
X128620416Y-68337500D01*
X128603057Y-68399834D01*
X128580179Y-68507433D01*
X128582657Y-68550000D01*
X128593997Y-68546075D01*
X128666750Y-68501047D01*
X128776188Y-68421869D01*
X128944508Y-68293738D01*
X129296750Y-68759369D01*
X129327417Y-68799977D01*
X129466449Y-68987771D01*
X129551303Y-69113182D01*
X129573766Y-69158829D01*
X129588957Y-69189698D01*
X129586389Y-69230808D01*
X129550577Y-69250000D01*
X129528668Y-69256222D01*
X129495478Y-69281565D01*
X129526369Y-69328888D01*
X129630010Y-69416346D01*
X129647784Y-69430778D01*
X129759682Y-69548854D01*
X129783033Y-69641346D01*
X129757238Y-69735595D01*
X129723126Y-69871345D01*
X129688042Y-70017690D01*
X129841203Y-69908845D01*
X129864518Y-69892629D01*
X129972165Y-69826722D01*
X130038949Y-69800000D01*
X130067735Y-69820630D01*
X130146988Y-69907546D01*
X130259294Y-70046751D01*
X130390418Y-70221186D01*
X130468159Y-70328966D01*
X130580318Y-70495904D01*
X130594297Y-70525000D01*
X130632120Y-70603725D01*
X130624848Y-70665315D01*
X130559784Y-70693560D01*
X130438210Y-70701345D01*
X130413447Y-70702128D01*
X130373910Y-70715197D01*
X130400141Y-70756777D01*
X130499059Y-70842976D01*
X130561596Y-70895848D01*
X130629990Y-70972457D01*
X130640498Y-71050004D01*
X130606788Y-71169981D01*
X130573183Y-71289148D01*
X130574641Y-71371683D01*
X130632687Y-71374425D01*
X130752505Y-71302074D01*
X130754324Y-71300786D01*
X130889765Y-71231447D01*
X130998597Y-71222681D01*
X131034146Y-71238692D01*
X131152574Y-71324161D01*
X131289513Y-71451821D01*
X131416494Y-71593631D01*
X131505054Y-71721550D01*
X131525786Y-71763933D01*
X131538572Y-71837234D01*
X131503651Y-71919650D01*
X131411522Y-72043930D01*
X131381665Y-72079632D01*
X131363002Y-72100000D01*
X131263840Y-72208220D01*
X131097621Y-72379654D01*
X130900725Y-72575867D01*
X130690868Y-72778794D01*
X130400484Y-73050359D01*
X130096380Y-73322975D01*
X129830441Y-73550000D01*
X129781675Y-73591630D01*
X129441788Y-73868172D01*
X129062141Y-74164446D01*
X128628154Y-74492302D01*
X128125247Y-74863585D01*
X128006564Y-74949027D01*
X127902806Y-75020463D01*
X127855613Y-75048481D01*
X127826746Y-75036138D01*
X127726418Y-74972215D01*
X127569260Y-74862454D01*
X127368319Y-74716587D01*
X127136643Y-74544345D01*
X126887278Y-74355461D01*
X126633269Y-74159667D01*
X126387665Y-73966694D01*
X126163511Y-73786275D01*
X126124106Y-73753991D01*
X125892196Y-73551487D01*
X127223472Y-73551487D01*
X127414910Y-73713243D01*
X127482978Y-73772204D01*
X127559341Y-73855035D01*
X127577777Y-73925682D01*
X127552681Y-74015754D01*
X127503725Y-74166068D01*
X127504219Y-74245579D01*
X127562462Y-74248254D01*
X127682489Y-74179175D01*
X127754249Y-74131412D01*
X127843043Y-74086346D01*
X127910451Y-74092059D01*
X127995606Y-74144174D01*
X128082870Y-74203548D01*
X128196466Y-74270872D01*
X128245536Y-74270823D01*
X128240604Y-74198252D01*
X128192194Y-74048013D01*
X128167465Y-73969483D01*
X128165477Y-73891132D01*
X128213676Y-73817873D01*
X128325787Y-73715551D01*
X128517680Y-73550000D01*
X128281835Y-73550000D01*
X128179960Y-73548429D01*
X128078530Y-73528734D01*
X128015584Y-73466553D01*
X127953434Y-73337500D01*
X127860877Y-73125000D01*
X127803706Y-73275000D01*
X127757219Y-73398357D01*
X127724544Y-73487500D01*
X127714081Y-73502433D01*
X127623772Y-73537498D01*
X127463012Y-73550743D01*
X127223472Y-73551487D01*
X125892196Y-73551487D01*
X125158768Y-72911056D01*
X124345481Y-72101487D01*
X125369823Y-72101487D01*
X125561261Y-72263243D01*
X125629329Y-72322204D01*
X125705692Y-72405035D01*
X125724128Y-72475682D01*
X125699032Y-72565754D01*
X125649840Y-72717132D01*
X125650947Y-72795766D01*
X125710001Y-72797570D01*
X125831141Y-72727615D01*
X125870578Y-72701211D01*
X125975690Y-72641726D01*
X126046747Y-72635264D01*
X126119208Y-72675398D01*
X126218767Y-72745677D01*
X126333629Y-72814580D01*
X126385617Y-72815146D01*
X126384124Y-72744062D01*
X126338545Y-72598013D01*
X126313816Y-72519483D01*
X126311828Y-72441132D01*
X126360027Y-72367873D01*
X126472138Y-72265551D01*
X126664031Y-72100000D01*
X126428186Y-72100000D01*
X126326312Y-72098429D01*
X126224881Y-72078734D01*
X126161935Y-72016553D01*
X126099785Y-71887500D01*
X126084099Y-71851487D01*
X127223472Y-71851487D01*
X127414910Y-72013243D01*
X127482978Y-72072204D01*
X127508604Y-72100000D01*
X127559341Y-72155035D01*
X127577777Y-72225682D01*
X127552681Y-72315754D01*
X127502802Y-72470005D01*
X127503055Y-72550682D01*
X127559560Y-72552166D01*
X127674943Y-72477945D01*
X127752438Y-72420032D01*
X127833931Y-72375124D01*
X127899480Y-72383008D01*
X127988060Y-72438812D01*
X128134998Y-72537803D01*
X128217536Y-72584385D01*
X128246910Y-72582228D01*
X128236895Y-72536752D01*
X128236549Y-72535847D01*
X128206146Y-72430810D01*
X128175991Y-72291050D01*
X128165233Y-72190361D01*
X128196767Y-72105701D01*
X128198824Y-72104064D01*
X129177318Y-72104064D01*
X129348609Y-72250231D01*
X129420722Y-72313291D01*
X129484107Y-72390139D01*
X129492044Y-72472386D01*
X129457858Y-72603066D01*
X129441909Y-72658641D01*
X129415006Y-72772133D01*
X129411814Y-72823859D01*
X129424381Y-72822623D01*
X129498679Y-72785531D01*
X129613233Y-72713847D01*
X129798656Y-72589712D01*
X129954283Y-72700310D01*
X130046219Y-72759989D01*
X130122369Y-72781314D01*
X130141752Y-72723218D01*
X130111904Y-72579947D01*
X130094526Y-72511862D01*
X130090246Y-72421911D01*
X130135282Y-72347334D01*
X130244913Y-72250259D01*
X130427563Y-72100000D01*
X130194590Y-72100000D01*
X130099713Y-72098734D01*
X129999198Y-72081620D01*
X129944530Y-72026821D01*
X129901581Y-71912500D01*
X129895087Y-71892412D01*
X129838679Y-71744200D01*
X129793079Y-71692463D01*
X129750742Y-71735664D01*
X129704121Y-71872264D01*
X129699084Y-71890220D01*
X129640233Y-72100000D01*
X129408775Y-72102032D01*
X129177318Y-72104064D01*
X128198824Y-72104064D01*
X128298156Y-72025000D01*
X128401442Y-71949563D01*
X128440583Y-71890220D01*
X128385306Y-71859047D01*
X128233374Y-71850000D01*
X128157413Y-71849168D01*
X128054923Y-71832567D01*
X127999548Y-71774368D01*
X127955387Y-71648556D01*
X127912247Y-71532820D01*
X127861831Y-71482100D01*
X127809022Y-71529526D01*
X127749277Y-71675696D01*
X127726324Y-71740656D01*
X127680447Y-71814956D01*
X127602140Y-71844881D01*
X127457555Y-71850743D01*
X127223472Y-71851487D01*
X126084099Y-71851487D01*
X126007229Y-71675000D01*
X125950057Y-71825000D01*
X125903570Y-71948357D01*
X125870895Y-72037500D01*
X125860432Y-72052433D01*
X125770123Y-72087498D01*
X125609363Y-72100743D01*
X125369823Y-72101487D01*
X124345481Y-72101487D01*
X124280043Y-72036348D01*
X123476460Y-71116777D01*
X123164067Y-70704064D01*
X124167456Y-70704064D01*
X124340678Y-70851839D01*
X124412893Y-70915048D01*
X124477684Y-70993445D01*
X124487757Y-71077935D01*
X124457134Y-71211868D01*
X124441798Y-71271398D01*
X124416603Y-71385209D01*
X124412007Y-71435736D01*
X124423784Y-71433511D01*
X124496200Y-71394250D01*
X124609820Y-71321090D01*
X124692634Y-71266056D01*
X124777624Y-71224878D01*
X124844540Y-71233890D01*
X124932613Y-71289216D01*
X124993062Y-71330847D01*
X125107669Y-71404061D01*
X125158464Y-71414170D01*
X125158945Y-71356794D01*
X125122606Y-71227553D01*
X125054437Y-71001488D01*
X125237179Y-70852420D01*
X125419921Y-70703353D01*
X125183964Y-70701676D01*
X125077390Y-70699357D01*
X124981738Y-70680010D01*
X124929822Y-70621206D01*
X124910006Y-70563822D01*
X126270525Y-70563822D01*
X126305875Y-70606235D01*
X126415865Y-70687175D01*
X126438047Y-70703353D01*
X126441239Y-70705681D01*
X126552832Y-70812711D01*
X126570480Y-70896762D01*
X126543007Y-70984949D01*
X126511167Y-71118252D01*
X126482211Y-71261504D01*
X126682078Y-71146702D01*
X126881944Y-71031900D01*
X127035392Y-71140950D01*
X127087554Y-71177091D01*
X127195554Y-71238975D01*
X127239212Y-71233854D01*
X127225323Y-71162500D01*
X127187056Y-71054538D01*
X127159771Y-70902770D01*
X127193278Y-70792809D01*
X127291458Y-70697378D01*
X127376245Y-70625851D01*
X127413698Y-70554317D01*
X127356443Y-70513174D01*
X127203396Y-70500000D01*
X128277762Y-70500000D01*
X128343788Y-70554317D01*
X128460412Y-70650259D01*
X128528402Y-70707623D01*
X128601349Y-70787877D01*
X128617929Y-70866027D01*
X128593422Y-70979947D01*
X128567599Y-71090063D01*
X128571672Y-71172694D01*
X128630280Y-71174211D01*
X128750958Y-71100370D01*
X128906501Y-70989832D01*
X129104532Y-71120625D01*
X129128448Y-71136403D01*
X129240650Y-71205469D01*
X129289620Y-71211132D01*
X129286720Y-71142635D01*
X129243311Y-70989220D01*
X129221928Y-70914916D01*
X129210379Y-70818199D01*
X129250069Y-70746934D01*
X129355478Y-70658419D01*
X129526899Y-70525000D01*
X129303169Y-70500000D01*
X129223478Y-70489859D01*
X129118417Y-70458995D01*
X129055123Y-70389987D01*
X128997955Y-70254125D01*
X128916471Y-70033251D01*
X128827169Y-70266625D01*
X128778720Y-70386527D01*
X128725145Y-70465732D01*
X128645903Y-70495474D01*
X128507815Y-70500000D01*
X128277762Y-70500000D01*
X127203396Y-70500000D01*
X127153688Y-70499447D01*
X127054312Y-70483295D01*
X126998317Y-70424253D01*
X126952387Y-70295132D01*
X126913220Y-70183383D01*
X126870149Y-70131255D01*
X126824786Y-70175157D01*
X126768371Y-70316088D01*
X126701238Y-70437875D01*
X126593026Y-70488997D01*
X126503538Y-70501538D01*
X126351443Y-70529410D01*
X126302220Y-70541336D01*
X126270525Y-70563822D01*
X124910006Y-70563822D01*
X124887967Y-70500000D01*
X124872110Y-70451228D01*
X124825554Y-70343127D01*
X124787770Y-70300000D01*
X124776159Y-70306053D01*
X124733367Y-70376298D01*
X124687572Y-70500000D01*
X124661074Y-70583296D01*
X124616152Y-70664110D01*
X124539742Y-70695714D01*
X124397494Y-70702032D01*
X124167456Y-70704064D01*
X123164067Y-70704064D01*
X122736549Y-70139254D01*
X122155787Y-69253754D01*
X122914990Y-69253754D01*
X123097747Y-69414377D01*
X123280505Y-69575000D01*
X123210270Y-69770634D01*
X123193746Y-69818415D01*
X123161153Y-69929878D01*
X123155607Y-69981810D01*
X123168505Y-69980758D01*
X123242902Y-69943493D01*
X123357355Y-69871090D01*
X123440168Y-69816056D01*
X123525159Y-69774878D01*
X123592074Y-69783890D01*
X123680148Y-69839216D01*
X123782089Y-69908927D01*
X123889423Y-69973361D01*
X123932404Y-69971765D01*
X123921847Y-69899018D01*
X123868566Y-69750000D01*
X123839493Y-69666739D01*
X123832958Y-69586637D01*
X123877264Y-69514696D01*
X123985099Y-69414377D01*
X124143335Y-69275000D01*
X125092729Y-69275000D01*
X125271003Y-69416346D01*
X125288867Y-69430816D01*
X125401052Y-69548875D01*
X125424453Y-69641346D01*
X125399106Y-69733862D01*
X125365107Y-69869113D01*
X125330585Y-70013227D01*
X125521393Y-69883825D01*
X125580471Y-69846825D01*
X125696032Y-69792688D01*
X125766456Y-69785409D01*
X125770959Y-69788031D01*
X125852537Y-69840189D01*
X125966137Y-69917043D01*
X126111564Y-70017690D01*
X126076480Y-69871345D01*
X126046468Y-69751337D01*
X126016573Y-69641346D01*
X126014604Y-69632509D01*
X126048233Y-69536765D01*
X126170023Y-69416346D01*
X126348297Y-69275000D01*
X126113730Y-69250000D01*
X126060225Y-69243820D01*
X125936627Y-69217140D01*
X125869397Y-69164200D01*
X125862471Y-69148490D01*
X127379043Y-69148490D01*
X127392916Y-69205228D01*
X127465339Y-69275000D01*
X127485722Y-69294637D01*
X127517475Y-69321699D01*
X127600911Y-69407880D01*
X127622757Y-69487484D01*
X127598443Y-69602671D01*
X127561330Y-69744469D01*
X127563343Y-69812164D01*
X127619403Y-69807565D01*
X127741564Y-69742443D01*
X127934015Y-69631900D01*
X128087463Y-69740950D01*
X128145709Y-69781281D01*
X128248096Y-69839549D01*
X128289874Y-69832909D01*
X128281298Y-69762500D01*
X128261720Y-69695854D01*
X128223044Y-69539681D01*
X128221721Y-69440913D01*
X128261816Y-69371237D01*
X128347398Y-69302339D01*
X128432142Y-69232222D01*
X128469015Y-69158829D01*
X128410109Y-69114723D01*
X128255467Y-69100000D01*
X128205759Y-69099447D01*
X128106383Y-69083295D01*
X128050388Y-69024253D01*
X128004458Y-68895132D01*
X127965296Y-68783399D01*
X127922220Y-68731254D01*
X127876870Y-68775151D01*
X127820500Y-68916088D01*
X127805954Y-68954933D01*
X127736293Y-69053407D01*
X127620106Y-69089649D01*
X127616280Y-69090034D01*
X127451149Y-69113675D01*
X127379043Y-69148490D01*
X125862471Y-69148490D01*
X125824888Y-69063249D01*
X125819412Y-69047627D01*
X125768482Y-68943923D01*
X125720513Y-68901498D01*
X125715422Y-68902252D01*
X125665825Y-68954336D01*
X125616138Y-69063249D01*
X125603080Y-69100107D01*
X125555253Y-69184260D01*
X125474540Y-69226973D01*
X125327296Y-69250000D01*
X125292073Y-69253754D01*
X125092729Y-69275000D01*
X124143335Y-69275000D01*
X124167456Y-69253754D01*
X123931498Y-69251877D01*
X123825051Y-69249470D01*
X123729328Y-69230048D01*
X123677370Y-69171214D01*
X123635501Y-69050000D01*
X123619753Y-69001022D01*
X123575314Y-68893063D01*
X123541223Y-68850000D01*
X123531005Y-68856106D01*
X123491428Y-68926379D01*
X123446945Y-69050000D01*
X123418133Y-69139842D01*
X123373138Y-69216394D01*
X123295301Y-69246083D01*
X123150948Y-69251877D01*
X122914990Y-69253754D01*
X122155787Y-69253754D01*
X122048840Y-69090690D01*
X121709737Y-68507655D01*
X121353227Y-67804162D01*
X122013215Y-67804162D01*
X122194036Y-67964581D01*
X122284030Y-68046835D01*
X122340639Y-68121957D01*
X122344058Y-68200282D01*
X122306559Y-68320634D01*
X122290995Y-68367639D01*
X122261451Y-68481970D01*
X122260219Y-68538183D01*
X122273899Y-68538820D01*
X122348007Y-68502161D01*
X122458586Y-68425809D01*
X122634995Y-68291520D01*
X122804771Y-68420760D01*
X122847855Y-68452831D01*
X122949830Y-68522303D01*
X123004995Y-68550000D01*
X123011209Y-68538389D01*
X123002109Y-68458882D01*
X122968755Y-68328846D01*
X122902067Y-68107692D01*
X123083874Y-67956477D01*
X123241951Y-67825000D01*
X124172105Y-67825000D01*
X124360921Y-67975658D01*
X124422091Y-68025571D01*
X124501703Y-68106219D01*
X124521483Y-68175814D01*
X124496368Y-68266413D01*
X124447703Y-68415946D01*
X124448165Y-68495544D01*
X124506406Y-68498265D01*
X124626474Y-68429175D01*
X124698233Y-68381412D01*
X124787027Y-68336346D01*
X124854436Y-68342059D01*
X124939590Y-68394174D01*
X125076045Y-68486033D01*
X125160408Y-68533983D01*
X125190755Y-68532458D01*
X125180879Y-68486752D01*
X125180533Y-68485847D01*
X125150130Y-68380810D01*
X125119975Y-68241050D01*
X125109217Y-68140361D01*
X125140751Y-68055701D01*
X125242140Y-67975000D01*
X125345426Y-67899563D01*
X125384567Y-67840220D01*
X125329291Y-67809047D01*
X125202330Y-67801487D01*
X126171401Y-67801487D01*
X126217271Y-67840220D01*
X126366345Y-67966099D01*
X126467692Y-68054640D01*
X126525938Y-68128721D01*
X126531950Y-68204887D01*
X126499123Y-68318705D01*
X126486747Y-68357963D01*
X126458835Y-68471688D01*
X126458062Y-68527763D01*
X126468150Y-68529201D01*
X126538095Y-68497525D01*
X126645877Y-68426075D01*
X126685357Y-68398910D01*
X126796515Y-68342233D01*
X126867734Y-68334859D01*
X126869294Y-68335757D01*
X126948901Y-68386249D01*
X127060651Y-68461603D01*
X127143303Y-68513655D01*
X127187908Y-68516839D01*
X127187042Y-68449518D01*
X127147125Y-68299669D01*
X127127287Y-68224794D01*
X127125761Y-68140222D01*
X127173418Y-68064955D01*
X127284896Y-67963243D01*
X127473965Y-67801487D01*
X127234756Y-67800743D01*
X127174653Y-67800024D01*
X127052615Y-67787298D01*
X126986966Y-67746629D01*
X126945203Y-67662500D01*
X126904324Y-67551930D01*
X126865852Y-67450000D01*
X126852723Y-67431653D01*
X126809186Y-67461462D01*
X126744146Y-67587500D01*
X126700482Y-67683008D01*
X126642412Y-67763890D01*
X126558438Y-67795201D01*
X126411423Y-67800743D01*
X126171401Y-67801487D01*
X125202330Y-67801487D01*
X125177358Y-67800000D01*
X125099866Y-67799137D01*
X124998142Y-67782227D01*
X124942970Y-67723039D01*
X124898343Y-67595132D01*
X124859180Y-67483393D01*
X124816106Y-67431254D01*
X124770750Y-67475154D01*
X124714363Y-67616088D01*
X124697992Y-67660666D01*
X124649715Y-67738177D01*
X124566645Y-67777903D01*
X124416096Y-67800000D01*
X124364731Y-67805263D01*
X124172105Y-67825000D01*
X123241951Y-67825000D01*
X123265681Y-67805263D01*
X123029723Y-67802631D01*
X122923751Y-67799896D01*
X122827761Y-67780191D01*
X122775649Y-67721246D01*
X122733726Y-67600000D01*
X122717978Y-67551022D01*
X122673538Y-67443063D01*
X122639448Y-67400000D01*
X122629230Y-67406106D01*
X122589652Y-67476379D01*
X122545170Y-67600000D01*
X122516392Y-67689735D01*
X122471381Y-67766368D01*
X122393534Y-67796152D01*
X122249173Y-67802081D01*
X122013215Y-67804162D01*
X121353227Y-67804162D01*
X121161236Y-67425310D01*
X120708188Y-66354064D01*
X121361933Y-66354064D01*
X121535155Y-66501839D01*
X121607370Y-66565048D01*
X121672161Y-66643445D01*
X121682234Y-66727935D01*
X121651612Y-66861868D01*
X121636275Y-66921398D01*
X121611080Y-67035209D01*
X121606484Y-67085736D01*
X121618262Y-67083511D01*
X121690677Y-67044250D01*
X121804297Y-66971090D01*
X121887111Y-66916056D01*
X121972102Y-66874878D01*
X122039017Y-66883890D01*
X122127091Y-66939216D01*
X122237953Y-67015514D01*
X122339781Y-67077999D01*
X122378780Y-67076124D01*
X122367095Y-67004736D01*
X122316875Y-66858679D01*
X122244796Y-66654786D01*
X122429597Y-66504069D01*
X122613527Y-66354064D01*
X123365878Y-66354064D01*
X123539100Y-66501839D01*
X123611315Y-66565048D01*
X123676106Y-66643445D01*
X123686179Y-66727935D01*
X123655556Y-66861868D01*
X123640210Y-66921407D01*
X123614960Y-67035150D01*
X123610268Y-67085575D01*
X123621496Y-67083302D01*
X123692275Y-67043002D01*
X123803703Y-66967818D01*
X123985662Y-66838607D01*
X124126658Y-66936105D01*
X124194193Y-66982639D01*
X124307327Y-67054624D01*
X124357184Y-67063814D01*
X124357255Y-67006145D01*
X124321028Y-66877553D01*
X124252859Y-66651488D01*
X124435601Y-66502420D01*
X124618343Y-66353353D01*
X124560373Y-66352931D01*
X125269625Y-66352931D01*
X125270090Y-66353353D01*
X125438868Y-66506487D01*
X125500601Y-66563806D01*
X125568834Y-66646761D01*
X125581287Y-66727823D01*
X125551590Y-66848323D01*
X125547124Y-66863212D01*
X125507863Y-67006031D01*
X125511231Y-67064423D01*
X125569506Y-67048755D01*
X125694964Y-66969394D01*
X125894859Y-66837370D01*
X126070704Y-66971230D01*
X126179547Y-67042703D01*
X126239624Y-67047119D01*
X126243023Y-66972665D01*
X126192553Y-66815754D01*
X126176287Y-66769461D01*
X126169391Y-66691151D01*
X126213471Y-66617404D01*
X126322737Y-66515440D01*
X126506918Y-66355881D01*
X126268221Y-66340440D01*
X126199647Y-66335275D01*
X126082035Y-66313586D01*
X126018295Y-66263777D01*
X125975216Y-66166088D01*
X125928459Y-66044555D01*
X125881662Y-65982191D01*
X125838830Y-66016049D01*
X125791203Y-66145132D01*
X125763395Y-66232685D01*
X125718219Y-66314147D01*
X125641800Y-66345608D01*
X125499664Y-66351465D01*
X125269625Y-66352931D01*
X124560373Y-66352931D01*
X124387974Y-66351676D01*
X124295074Y-66349682D01*
X124192319Y-66329973D01*
X124130043Y-66267744D01*
X124070446Y-66137500D01*
X123983287Y-65925000D01*
X123902198Y-66137500D01*
X123868825Y-66221482D01*
X123814960Y-66310184D01*
X123735617Y-66345060D01*
X123593493Y-66352032D01*
X123445521Y-66353353D01*
X123365878Y-66354064D01*
X122613527Y-66354064D01*
X122614399Y-66353353D01*
X122378441Y-66351676D01*
X122271867Y-66349357D01*
X122176216Y-66330010D01*
X122124299Y-66271206D01*
X122082444Y-66150000D01*
X122066697Y-66101018D01*
X122022290Y-65993062D01*
X121988255Y-65950000D01*
X121977613Y-65956366D01*
X121936014Y-66026780D01*
X121887969Y-66150000D01*
X121859777Y-66230884D01*
X121812030Y-66313090D01*
X121734458Y-66345471D01*
X121591883Y-66352032D01*
X121361933Y-66354064D01*
X120708188Y-66354064D01*
X120676928Y-66280149D01*
X120353296Y-65350000D01*
X120986193Y-65350000D01*
X121535736Y-65350000D01*
X122085279Y-65350000D01*
X122099346Y-64737500D01*
X122113412Y-64125000D01*
X122351381Y-64109760D01*
X122589349Y-64094520D01*
X122589349Y-64372260D01*
X122588201Y-64472825D01*
X122577009Y-64586992D01*
X122546832Y-64638182D01*
X122489152Y-64650000D01*
X122481176Y-64650097D01*
X122431648Y-64662495D01*
X122403849Y-64710690D01*
X122391658Y-64816064D01*
X122388955Y-65000000D01*
X122388955Y-65350000D01*
X123015187Y-65350000D01*
X123641420Y-65350000D01*
X123641420Y-65000000D01*
X123640325Y-64890425D01*
X123630469Y-64744594D01*
X123607101Y-64670583D01*
X123566272Y-64650000D01*
X123539080Y-64637817D01*
X123518718Y-64591368D01*
X123504903Y-64497503D01*
X123496474Y-64343082D01*
X123492268Y-64114961D01*
X123491124Y-63800000D01*
X123492201Y-63492425D01*
X123496308Y-63262108D01*
X123504606Y-63105848D01*
X123518259Y-63010505D01*
X123538427Y-62962935D01*
X123566272Y-62950000D01*
X123595120Y-62941407D01*
X123623258Y-62888910D01*
X123637484Y-62772802D01*
X123641420Y-62575000D01*
X123641420Y-62200000D01*
X123891913Y-62200000D01*
X123891913Y-62625000D01*
X123891913Y-63050000D01*
X124267653Y-63050000D01*
X124285273Y-63049953D01*
X124470565Y-63042753D01*
X124596770Y-63025193D01*
X124643393Y-63000000D01*
X124660297Y-62981989D01*
X124750994Y-62958993D01*
X124893886Y-62950000D01*
X125144379Y-62950000D01*
X125144379Y-63200000D01*
X125140998Y-63290053D01*
X125122859Y-63405031D01*
X125094280Y-63450000D01*
X125071233Y-63441538D01*
X125044182Y-63375000D01*
X125035573Y-63346209D01*
X124982971Y-63318126D01*
X124866634Y-63303928D01*
X124668442Y-63300000D01*
X124292702Y-63300000D01*
X124292702Y-63800000D01*
X124292702Y-64300000D01*
X124668442Y-64300000D01*
X124812680Y-64298281D01*
X124953372Y-64287782D01*
X125024499Y-64264560D01*
X125044182Y-64225000D01*
X125049834Y-64190497D01*
X125094280Y-64150000D01*
X125112326Y-64166871D01*
X125135367Y-64257389D01*
X125144379Y-64400000D01*
X125144379Y-64650000D01*
X124899246Y-64650000D01*
X124828105Y-64648465D01*
X124686735Y-64626283D01*
X124625276Y-64575000D01*
X124619164Y-64562916D01*
X124563280Y-64525558D01*
X124444393Y-64505788D01*
X124244176Y-64500000D01*
X123891913Y-64500000D01*
X123891913Y-64925000D01*
X123891913Y-65350000D01*
X125044182Y-65350000D01*
X126196450Y-65350000D01*
X126196450Y-65000000D01*
X126195354Y-64890425D01*
X126185499Y-64744594D01*
X126162131Y-64670583D01*
X126121302Y-64650000D01*
X126094109Y-64637817D01*
X126073747Y-64591368D01*
X126059932Y-64497503D01*
X126051503Y-64343082D01*
X126047298Y-64114961D01*
X126046154Y-63800000D01*
X126047231Y-63492425D01*
X126051338Y-63262108D01*
X126059636Y-63105848D01*
X126073288Y-63010505D01*
X126093456Y-62962935D01*
X126121302Y-62950000D01*
X126150149Y-62941407D01*
X126178288Y-62888910D01*
X126192513Y-62772802D01*
X126196450Y-62575000D01*
X126196450Y-62200000D01*
X126346746Y-62200000D01*
X126346746Y-62575000D01*
X126346746Y-62950000D01*
X126485424Y-62950000D01*
X126492545Y-62950026D01*
X126541722Y-62954797D01*
X126583530Y-62976857D01*
X126624394Y-63029164D01*
X126670740Y-63124673D01*
X126728993Y-63276344D01*
X126805578Y-63497134D01*
X126906921Y-63800000D01*
X126925880Y-63857135D01*
X127025646Y-64165618D01*
X127092678Y-64390502D01*
X127129133Y-64540430D01*
X127137166Y-64624048D01*
X127118934Y-64650000D01*
X127103079Y-64652819D01*
X127070299Y-64696753D01*
X127053107Y-64806916D01*
X127048126Y-65000000D01*
X127048126Y-65350000D01*
X127899803Y-65350000D01*
X128751479Y-65350000D01*
X128751479Y-65000000D01*
X128749965Y-64878759D01*
X129603156Y-64878759D01*
X129842845Y-65114379D01*
X130082535Y-65350000D01*
X130809127Y-65350000D01*
X131535719Y-65350000D01*
X131771805Y-65110782D01*
X132000790Y-64878759D01*
X132258383Y-64878759D01*
X132498072Y-65114379D01*
X132737761Y-65350000D01*
X133725488Y-65350000D01*
X134713215Y-65350000D01*
X134713215Y-65000000D01*
X134712119Y-64890425D01*
X134702264Y-64744594D01*
X134678896Y-64670583D01*
X134638067Y-64650000D01*
X134610875Y-64637817D01*
X134590513Y-64591368D01*
X134576698Y-64497503D01*
X134568268Y-64343082D01*
X134564063Y-64114961D01*
X134562919Y-63800000D01*
X134563996Y-63492425D01*
X134568103Y-63262108D01*
X134576401Y-63105848D01*
X134590054Y-63010505D01*
X134610222Y-62962935D01*
X134638067Y-62950000D01*
X134666915Y-62941407D01*
X134695053Y-62888910D01*
X134709279Y-62772802D01*
X134713215Y-62575000D01*
X134713215Y-62200000D01*
X133747105Y-62200000D01*
X132780996Y-62200000D01*
X132519689Y-62464072D01*
X132258383Y-62728144D01*
X132258383Y-63131322D01*
X132262062Y-63339470D01*
X132276699Y-63476534D01*
X132307422Y-63563578D01*
X132359357Y-63625702D01*
X132460332Y-63716903D01*
X132359357Y-63824174D01*
X132337245Y-63849594D01*
X132296665Y-63920211D01*
X132272696Y-64020793D01*
X132261286Y-64174653D01*
X132258383Y-64405102D01*
X132258383Y-64871565D01*
X132258383Y-64878759D01*
X132000790Y-64878759D01*
X132007890Y-64871565D01*
X132007890Y-63771402D01*
X132007890Y-62671240D01*
X131768200Y-62435620D01*
X131528511Y-62200000D01*
X130827140Y-62200000D01*
X130125769Y-62200000D01*
X129864462Y-62464072D01*
X129603156Y-62728144D01*
X129603156Y-63803451D01*
X129603156Y-64878759D01*
X128749965Y-64878759D01*
X128749747Y-64861272D01*
X128738908Y-64730791D01*
X128714157Y-64666920D01*
X128670971Y-64650000D01*
X128632462Y-64640807D01*
X128613502Y-64587500D01*
X128626306Y-64550604D01*
X128667596Y-64428558D01*
X128730601Y-64240830D01*
X128809523Y-64004713D01*
X128898562Y-63737500D01*
X128949076Y-63586258D01*
X129034679Y-63336111D01*
X129099538Y-63161440D01*
X129150159Y-63048870D01*
X129193050Y-62985024D01*
X129234719Y-62956526D01*
X129281673Y-62950000D01*
X129321627Y-62948683D01*
X129367317Y-62931595D01*
X129391539Y-62877649D01*
X129401088Y-62765798D01*
X129402761Y-62575000D01*
X129402761Y-62200000D01*
X128751479Y-62200000D01*
X128100197Y-62200000D01*
X128100197Y-62570833D01*
X128105731Y-62754363D01*
X128125171Y-62900609D01*
X128156778Y-62960489D01*
X128163143Y-62969629D01*
X128159846Y-63048434D01*
X128132644Y-63185882D01*
X128089002Y-63356181D01*
X128036386Y-63533536D01*
X127982259Y-63692153D01*
X127934088Y-63806239D01*
X127899338Y-63850000D01*
X127895645Y-63848095D01*
X127862137Y-63787790D01*
X127810399Y-63659857D01*
X127749989Y-63487500D01*
X127702960Y-63333440D01*
X127660490Y-63135665D01*
X127642695Y-62926665D01*
X127643924Y-62662500D01*
X127657295Y-62200000D01*
X127002020Y-62200000D01*
X126346746Y-62200000D01*
X126196450Y-62200000D01*
X125044182Y-62200000D01*
X123891913Y-62200000D01*
X123641420Y-62200000D01*
X122675310Y-62200000D01*
X121709201Y-62200000D01*
X121447894Y-62464072D01*
X121186588Y-62728144D01*
X121186588Y-63131322D01*
X121190267Y-63339470D01*
X121204905Y-63476534D01*
X121235628Y-63563578D01*
X121287563Y-63625702D01*
X121388537Y-63716903D01*
X121287563Y-63824174D01*
X121256206Y-63862087D01*
X121213448Y-63952548D01*
X121192283Y-64085997D01*
X121186588Y-64290722D01*
X121186523Y-64333511D01*
X121182675Y-64503672D01*
X121168633Y-64599052D01*
X121138503Y-64640785D01*
X121086391Y-64650000D01*
X121078415Y-64650097D01*
X121028886Y-64662495D01*
X121001087Y-64710690D01*
X120988897Y-64816064D01*
X120986193Y-65000000D01*
X120986193Y-65350000D01*
X120353296Y-65350000D01*
X120260790Y-65084130D01*
X119916799Y-63849209D01*
X119648931Y-62587347D01*
X119461165Y-61310500D01*
X119433843Y-61055750D01*
X119396847Y-60659303D01*
X119391076Y-60587500D01*
X120235056Y-60587500D01*
X120239386Y-60598734D01*
X120298508Y-60659600D01*
X120404726Y-60740063D01*
X120574052Y-60855126D01*
X120506977Y-61077563D01*
X120472181Y-61208339D01*
X120472495Y-61282782D01*
X120524488Y-61277669D01*
X120635503Y-61200000D01*
X120745209Y-61131348D01*
X120835898Y-61102223D01*
X120924939Y-61130544D01*
X121036292Y-61200000D01*
X121134470Y-61270397D01*
X121194928Y-61286946D01*
X121202596Y-61225000D01*
X121164818Y-61077563D01*
X121097743Y-60855126D01*
X121267070Y-60740063D01*
X121304754Y-60713519D01*
X121398882Y-60636585D01*
X121436739Y-60587500D01*
X121426976Y-60576502D01*
X121347341Y-60557512D01*
X121213648Y-60550000D01*
X121127684Y-60548954D01*
X121027520Y-60531724D01*
X120973385Y-60473662D01*
X120930176Y-60350000D01*
X120914427Y-60301022D01*
X120869988Y-60193063D01*
X120835898Y-60150000D01*
X120825680Y-60156106D01*
X120786102Y-60226379D01*
X120741619Y-60350000D01*
X120717436Y-60426667D01*
X120672662Y-60511697D01*
X120597933Y-60544552D01*
X120458147Y-60550000D01*
X120392635Y-60551655D01*
X120279613Y-60565050D01*
X120235056Y-60587500D01*
X119391076Y-60587500D01*
X119363351Y-60242544D01*
X119334583Y-59825427D01*
X119311772Y-59427905D01*
X119296145Y-59069933D01*
X119294553Y-59004064D01*
X119909073Y-59004064D01*
X120082295Y-59151839D01*
X120154510Y-59215048D01*
X120219301Y-59293445D01*
X120229374Y-59377935D01*
X120198752Y-59511868D01*
X120183415Y-59571398D01*
X120158220Y-59685209D01*
X120153624Y-59735736D01*
X120165402Y-59733511D01*
X120237817Y-59694250D01*
X120351437Y-59621090D01*
X120434251Y-59566056D01*
X120519242Y-59524878D01*
X120586157Y-59533890D01*
X120674231Y-59589216D01*
X120734679Y-59630847D01*
X120849287Y-59704061D01*
X120900082Y-59714170D01*
X120900562Y-59656794D01*
X120864224Y-59527553D01*
X120796054Y-59301488D01*
X120978796Y-59152420D01*
X121161539Y-59003353D01*
X120925581Y-59001676D01*
X120819007Y-58999357D01*
X120723356Y-58980010D01*
X120671439Y-58921206D01*
X120629584Y-58800000D01*
X120613837Y-58751018D01*
X120569430Y-58643062D01*
X120535395Y-58600000D01*
X120524753Y-58606366D01*
X120483154Y-58676780D01*
X120435109Y-58800000D01*
X120406917Y-58880884D01*
X120359170Y-58963090D01*
X120281598Y-58995471D01*
X120139023Y-59002032D01*
X119909073Y-59004064D01*
X119294553Y-59004064D01*
X119288932Y-58771463D01*
X119291361Y-58552449D01*
X119307890Y-58179899D01*
X119959172Y-57690060D01*
X120108632Y-57578673D01*
X120315007Y-57428507D01*
X120485472Y-57308849D01*
X120605497Y-57229820D01*
X120660552Y-57201540D01*
X120661723Y-57201788D01*
X120707582Y-57246373D01*
X120803794Y-57360589D01*
X120942217Y-57534081D01*
X121114711Y-57756492D01*
X121313135Y-58017468D01*
X121529347Y-58306653D01*
X121663118Y-58487187D01*
X121877102Y-58777697D01*
X122040284Y-59003353D01*
X122040608Y-59003801D01*
X122159961Y-59175756D01*
X122241483Y-59303819D01*
X122291499Y-59398249D01*
X122316332Y-59469301D01*
X122322304Y-59527235D01*
X122315739Y-59582306D01*
X122312562Y-59599317D01*
X122298650Y-59701026D01*
X122319027Y-59725341D01*
X122385483Y-59690560D01*
X122404939Y-59678607D01*
X122452593Y-59656897D01*
X122498773Y-59661635D01*
X122555579Y-59703693D01*
X122635112Y-59793942D01*
X122749471Y-59943254D01*
X122910757Y-60162500D01*
X122983167Y-60262306D01*
X123083466Y-60408280D01*
X123131190Y-60495950D01*
X123132691Y-60538722D01*
X123094318Y-60550000D01*
X123062296Y-60546016D01*
X122991656Y-60488952D01*
X122934121Y-60350000D01*
X122918372Y-60301022D01*
X122873933Y-60193063D01*
X122839842Y-60150000D01*
X122829625Y-60156106D01*
X122790047Y-60226379D01*
X122745564Y-60350000D01*
X122721381Y-60426667D01*
X122676606Y-60511697D01*
X122601878Y-60544552D01*
X122462092Y-60550000D01*
X122396580Y-60551655D01*
X122283558Y-60565050D01*
X122239001Y-60587500D01*
X122243331Y-60598734D01*
X122302453Y-60659600D01*
X122408670Y-60740063D01*
X122577997Y-60855126D01*
X122510922Y-61077563D01*
X122490734Y-61149112D01*
X122467438Y-61257376D01*
X122469842Y-61299999D01*
X122479596Y-61296943D01*
X122550536Y-61253951D01*
X122658238Y-61176375D01*
X122820638Y-61052750D01*
X123002927Y-61176375D01*
X123053426Y-61210035D01*
X123156474Y-61274432D01*
X123208021Y-61299999D01*
X123211790Y-61288402D01*
X123198926Y-61208775D01*
X123164030Y-61078494D01*
X123140681Y-60998488D01*
X123121616Y-60895872D01*
X123142103Y-60836183D01*
X123207191Y-60785084D01*
X123254005Y-60758447D01*
X123304459Y-60754285D01*
X123362216Y-60793921D01*
X123444106Y-60889987D01*
X123566956Y-61055113D01*
X123816765Y-61397045D01*
X126086685Y-61398522D01*
X126625158Y-61398392D01*
X127088903Y-61397062D01*
X127466445Y-61394326D01*
X127764887Y-61389989D01*
X127991331Y-61383857D01*
X128152881Y-61375737D01*
X128256641Y-61365433D01*
X128309714Y-61352752D01*
X128319203Y-61337500D01*
X128310529Y-61324264D01*
X128249831Y-61238947D01*
X128145069Y-61095646D01*
X128008161Y-60910587D01*
X127851025Y-60700000D01*
X127764077Y-60583858D01*
X128400789Y-60583858D01*
X128404465Y-60594226D01*
X128458517Y-60658217D01*
X128556577Y-60747518D01*
X128592978Y-60778262D01*
X128670363Y-60860088D01*
X128687188Y-60942752D01*
X128658132Y-61073348D01*
X128646177Y-61118254D01*
X128621131Y-61231332D01*
X128617914Y-61283364D01*
X128628109Y-61282712D01*
X128698471Y-61247323D01*
X128809807Y-61176717D01*
X128987685Y-61056084D01*
X129177268Y-61184655D01*
X129366851Y-61313227D01*
X129332329Y-61169113D01*
X129303152Y-61052197D01*
X129273937Y-60944346D01*
X129271638Y-60929318D01*
X129313941Y-60836280D01*
X129439137Y-60719346D01*
X129617127Y-60583458D01*
X130467956Y-60583458D01*
X130490779Y-60637577D01*
X130605128Y-60725000D01*
X130628931Y-60741439D01*
X130727106Y-60840791D01*
X130749678Y-60959957D01*
X130703924Y-61128679D01*
X130676454Y-61214156D01*
X130680762Y-61280382D01*
X130744591Y-61270185D01*
X130872060Y-61184944D01*
X131041522Y-61055944D01*
X131221456Y-61177972D01*
X131269754Y-61210177D01*
X131372592Y-61274446D01*
X131424195Y-61300000D01*
X131427971Y-61288525D01*
X131415187Y-61209097D01*
X131380352Y-61078984D01*
X131313705Y-60857969D01*
X131485110Y-60741484D01*
X131524677Y-60713586D01*
X131618983Y-60636479D01*
X131656857Y-60587500D01*
X131653624Y-60583858D01*
X132408679Y-60583858D01*
X132410093Y-60587500D01*
X132413296Y-60595749D01*
X132469657Y-60661156D01*
X132569562Y-60751764D01*
X132617706Y-60792556D01*
X132690445Y-60871709D01*
X132703674Y-60951874D01*
X132671386Y-61077862D01*
X132659080Y-61119913D01*
X132633034Y-61234308D01*
X132632459Y-61290006D01*
X132643480Y-61290801D01*
X132713867Y-61255986D01*
X132821624Y-61181424D01*
X132990658Y-61052750D01*
X133175605Y-61178177D01*
X133291540Y-61245879D01*
X133353508Y-61247679D01*
X133357350Y-61172876D01*
X133307183Y-61016413D01*
X133290943Y-60969877D01*
X133284727Y-60892972D01*
X133330310Y-60822253D01*
X133442629Y-60725658D01*
X133615779Y-60587500D01*
X134463064Y-60587500D01*
X134467394Y-60598734D01*
X134526516Y-60659600D01*
X134632733Y-60740063D01*
X134802060Y-60855126D01*
X134734985Y-61077563D01*
X134700189Y-61208339D01*
X134700503Y-61282782D01*
X134752496Y-61277669D01*
X134863511Y-61200000D01*
X134973216Y-61131348D01*
X135063905Y-61102223D01*
X135152946Y-61130544D01*
X135264300Y-61200000D01*
X135362478Y-61270397D01*
X135422936Y-61286946D01*
X135430604Y-61225000D01*
X135392826Y-61077563D01*
X135325751Y-60855126D01*
X135495077Y-60740063D01*
X135532762Y-60713519D01*
X135626890Y-60636585D01*
X135664747Y-60587500D01*
X135654984Y-60576502D01*
X135575349Y-60557512D01*
X135441656Y-60550000D01*
X135355692Y-60548954D01*
X135255528Y-60531724D01*
X135201393Y-60473662D01*
X135158184Y-60350000D01*
X135142435Y-60301022D01*
X135097996Y-60193063D01*
X135063905Y-60150000D01*
X135053688Y-60156106D01*
X135014110Y-60226379D01*
X134969627Y-60350000D01*
X134945444Y-60426667D01*
X134900669Y-60511697D01*
X134825941Y-60544552D01*
X134686155Y-60550000D01*
X134620643Y-60551655D01*
X134507621Y-60565050D01*
X134487873Y-60575000D01*
X134463064Y-60587500D01*
X133615779Y-60587500D01*
X133631445Y-60575000D01*
X133387454Y-60550000D01*
X133318933Y-60542232D01*
X133198452Y-60515687D01*
X133132765Y-60463691D01*
X133089187Y-60366088D01*
X133042459Y-60244565D01*
X132995671Y-60182191D01*
X132952838Y-60216046D01*
X132905207Y-60345132D01*
X132882454Y-60417875D01*
X132837174Y-60508904D01*
X132763756Y-60544132D01*
X132626192Y-60550000D01*
X132566072Y-60551323D01*
X132453387Y-60563356D01*
X132408679Y-60583858D01*
X131653624Y-60583858D01*
X131647094Y-60576502D01*
X131567460Y-60557512D01*
X131433767Y-60550000D01*
X131347803Y-60548954D01*
X131247638Y-60531724D01*
X131193503Y-60473662D01*
X131150294Y-60350000D01*
X131134546Y-60301022D01*
X131090107Y-60193063D01*
X131056016Y-60150000D01*
X131045798Y-60156106D01*
X131006220Y-60226379D01*
X130961738Y-60350000D01*
X130937554Y-60426667D01*
X130892780Y-60511697D01*
X130818052Y-60544552D01*
X130678265Y-60550000D01*
X130539270Y-60556396D01*
X130490245Y-60575000D01*
X130467956Y-60583458D01*
X129617127Y-60583458D01*
X129628205Y-60575000D01*
X129381890Y-60550000D01*
X129308801Y-60541742D01*
X129189557Y-60515197D01*
X129124542Y-60463265D01*
X129081298Y-60366088D01*
X129034569Y-60244565D01*
X128987782Y-60182191D01*
X128944948Y-60216046D01*
X128897318Y-60345132D01*
X128874564Y-60417875D01*
X128829284Y-60508904D01*
X128755867Y-60544132D01*
X128618303Y-60550000D01*
X128558183Y-60551323D01*
X128445498Y-60563356D01*
X128400789Y-60583858D01*
X127764077Y-60583858D01*
X127648124Y-60428971D01*
X127446332Y-60158383D01*
X127295300Y-59953679D01*
X127189807Y-59807065D01*
X127124632Y-59710749D01*
X127094554Y-59656939D01*
X127094353Y-59637842D01*
X127118806Y-59645664D01*
X127162694Y-59672614D01*
X127296970Y-59760422D01*
X127227774Y-59530955D01*
X127158579Y-59301488D01*
X127341321Y-59152420D01*
X127523191Y-59004064D01*
X128375740Y-59004064D01*
X128548962Y-59151839D01*
X128621177Y-59215048D01*
X128685968Y-59293445D01*
X128696041Y-59377935D01*
X128665418Y-59511868D01*
X128650082Y-59571398D01*
X128624887Y-59685209D01*
X128620291Y-59735736D01*
X128632068Y-59733511D01*
X128704484Y-59694250D01*
X128818104Y-59621090D01*
X128900918Y-59566056D01*
X128985908Y-59524878D01*
X129052824Y-59533890D01*
X129140897Y-59589216D01*
X129201346Y-59630847D01*
X129315953Y-59704061D01*
X129366749Y-59714170D01*
X129367229Y-59656794D01*
X129330890Y-59527553D01*
X129262721Y-59301488D01*
X129445463Y-59152420D01*
X129628205Y-59003353D01*
X129392248Y-59001676D01*
X129315224Y-59000000D01*
X130488237Y-59000000D01*
X130492108Y-59003353D01*
X130675826Y-59162500D01*
X130739805Y-59219250D01*
X130816310Y-59303688D01*
X130834788Y-59375126D01*
X130809420Y-59465754D01*
X130760831Y-59614109D01*
X130760231Y-59694418D01*
X130816107Y-59695596D01*
X130931269Y-59621230D01*
X131107113Y-59487370D01*
X131314299Y-59624210D01*
X131521485Y-59761049D01*
X131487939Y-59643024D01*
X131465263Y-59561587D01*
X131430796Y-59404453D01*
X131436017Y-59301161D01*
X131486870Y-59222060D01*
X131589300Y-59137500D01*
X131755687Y-59013318D01*
X132626585Y-59013318D01*
X132662007Y-59052345D01*
X132773171Y-59133470D01*
X132803046Y-59155483D01*
X132912637Y-59262073D01*
X132937776Y-59345970D01*
X132913510Y-59435003D01*
X132880208Y-59567891D01*
X132845992Y-59710782D01*
X133045230Y-59596341D01*
X133244468Y-59481900D01*
X133397917Y-59590950D01*
X133439609Y-59619992D01*
X133553360Y-59687062D01*
X133601824Y-59686871D01*
X133591143Y-59620354D01*
X133538737Y-59468182D01*
X133522802Y-59341445D01*
X133562371Y-59245560D01*
X133662170Y-59149164D01*
X133828264Y-59013872D01*
X133757979Y-59003353D01*
X134688166Y-59003353D01*
X134701061Y-59013872D01*
X134870908Y-59152420D01*
X135053650Y-59301488D01*
X134985481Y-59527553D01*
X134966831Y-59590040D01*
X134944096Y-59688482D01*
X134963183Y-59717866D01*
X135037577Y-59682190D01*
X135180768Y-59585454D01*
X135203306Y-59569917D01*
X135293916Y-59517345D01*
X135361600Y-59522225D01*
X135456311Y-59584359D01*
X135465114Y-59590748D01*
X135607755Y-59691101D01*
X135685020Y-59734762D01*
X135709839Y-59726404D01*
X135695143Y-59670702D01*
X135644197Y-59522230D01*
X135624583Y-59374352D01*
X135665391Y-59259792D01*
X135770923Y-59148912D01*
X135940631Y-59004064D01*
X135710593Y-59002032D01*
X135614410Y-58999884D01*
X135516262Y-58981054D01*
X135463080Y-58922400D01*
X135420515Y-58800000D01*
X135404658Y-58751228D01*
X135358102Y-58643127D01*
X135320317Y-58600000D01*
X135308707Y-58606053D01*
X135265915Y-58676298D01*
X135220120Y-58800000D01*
X135191275Y-58889947D01*
X135146295Y-58966420D01*
X135068469Y-58996015D01*
X134924123Y-59001676D01*
X134688166Y-59003353D01*
X133757979Y-59003353D01*
X133601748Y-58979971D01*
X133536058Y-58969387D01*
X133422999Y-58936184D01*
X133361101Y-58871430D01*
X133315350Y-58746591D01*
X133278573Y-58645921D01*
X133226526Y-58581913D01*
X133178016Y-58617813D01*
X133134323Y-58753571D01*
X133077428Y-58874299D01*
X132936334Y-58968354D01*
X132719129Y-59000000D01*
X132660670Y-59000991D01*
X132626585Y-59013318D01*
X131755687Y-59013318D01*
X131773531Y-59000000D01*
X131537966Y-59000000D01*
X131436364Y-58998439D01*
X131334999Y-58978773D01*
X131272230Y-58916602D01*
X131210405Y-58787500D01*
X131118409Y-58575000D01*
X131031674Y-58787500D01*
X130995461Y-58872765D01*
X130939314Y-58960352D01*
X130858887Y-58994313D01*
X130716588Y-59000000D01*
X130488237Y-59000000D01*
X129315224Y-59000000D01*
X129285674Y-58999357D01*
X129190022Y-58980010D01*
X129138106Y-58921206D01*
X129096251Y-58800000D01*
X129080394Y-58751228D01*
X129033838Y-58643127D01*
X128996054Y-58600000D01*
X128984444Y-58606053D01*
X128941651Y-58676298D01*
X128895856Y-58800000D01*
X128869358Y-58883296D01*
X128824436Y-58964110D01*
X128748026Y-58995714D01*
X128605778Y-59002032D01*
X128375740Y-59004064D01*
X127523191Y-59004064D01*
X127524063Y-59003353D01*
X127288106Y-59001676D01*
X127181532Y-58999357D01*
X127085880Y-58980010D01*
X127033964Y-58921206D01*
X126992109Y-58800000D01*
X126976252Y-58751228D01*
X126929696Y-58643127D01*
X126891912Y-58600000D01*
X126880302Y-58606053D01*
X126837509Y-58676298D01*
X126791714Y-58800000D01*
X126785882Y-58818686D01*
X126722896Y-58951861D01*
X126651932Y-58997598D01*
X126620301Y-58968640D01*
X126534080Y-58868097D01*
X126401520Y-58704587D01*
X126229754Y-58487480D01*
X126025916Y-58226147D01*
X125797139Y-57929960D01*
X125550559Y-57608290D01*
X125470640Y-57503353D01*
X126121302Y-57503353D01*
X126305196Y-57653342D01*
X126361311Y-57700115D01*
X126442043Y-57783895D01*
X126463999Y-57859942D01*
X126442967Y-57963836D01*
X126442410Y-57965777D01*
X126403497Y-58125047D01*
X126408132Y-58199061D01*
X126462475Y-58195297D01*
X126572689Y-58121230D01*
X126748533Y-57987370D01*
X126952988Y-58122406D01*
X126993340Y-58148788D01*
X127093923Y-58207934D01*
X127134269Y-58212440D01*
X127130213Y-58166220D01*
X127099441Y-58060836D01*
X127064874Y-57910727D01*
X127068080Y-57811448D01*
X127113260Y-57733767D01*
X127204615Y-57648449D01*
X127373767Y-57504064D01*
X128526036Y-57504064D01*
X128695188Y-57648449D01*
X128747745Y-57694670D01*
X128815058Y-57772446D01*
X128838336Y-57857474D01*
X128821780Y-57978988D01*
X128769590Y-58166220D01*
X128764954Y-58183772D01*
X128771537Y-58216425D01*
X128826878Y-58197274D01*
X128946815Y-58122406D01*
X129151270Y-57987370D01*
X129327114Y-58121230D01*
X129328440Y-58122238D01*
X129438095Y-58195675D01*
X129491939Y-58198737D01*
X129496132Y-58123949D01*
X129456836Y-57963836D01*
X129443634Y-57913895D01*
X129438983Y-57826212D01*
X129484045Y-57751221D01*
X129594607Y-57653342D01*
X129751961Y-57525000D01*
X130936512Y-57525000D01*
X131123978Y-57650000D01*
X131183423Y-57690847D01*
X131259143Y-57759957D01*
X131287476Y-57839456D01*
X131274245Y-57957695D01*
X131225276Y-58143024D01*
X131191730Y-58261049D01*
X131396532Y-58125784D01*
X131601333Y-57990520D01*
X131779562Y-58126194D01*
X131893111Y-58200041D01*
X131952419Y-58202124D01*
X131955097Y-58125169D01*
X131903795Y-57965754D01*
X131886599Y-57916310D01*
X131881244Y-57839241D01*
X131926780Y-57765367D01*
X132037389Y-57662500D01*
X132221594Y-57502931D01*
X133385602Y-57502931D01*
X133554845Y-57656487D01*
X133616578Y-57713806D01*
X133684810Y-57796761D01*
X133697264Y-57877823D01*
X133667566Y-57998323D01*
X133663100Y-58013212D01*
X133623839Y-58156031D01*
X133627207Y-58214423D01*
X133685482Y-58198755D01*
X133810941Y-58119394D01*
X134010836Y-57987370D01*
X134186680Y-58121230D01*
X134188006Y-58122238D01*
X134297662Y-58195675D01*
X134351505Y-58198737D01*
X134355698Y-58123949D01*
X134316402Y-57963836D01*
X134303200Y-57913895D01*
X134298549Y-57826212D01*
X134343611Y-57751221D01*
X134454173Y-57653342D01*
X134638067Y-57503353D01*
X134403984Y-57501676D01*
X134317180Y-57499972D01*
X134211796Y-57483389D01*
X134154779Y-57432106D01*
X134112262Y-57325696D01*
X134062206Y-57197688D01*
X134008524Y-57133261D01*
X133958020Y-57167084D01*
X133906151Y-57298556D01*
X133879191Y-57383344D01*
X133834228Y-57464183D01*
X133757837Y-57495552D01*
X133650871Y-57500000D01*
X133615640Y-57501465D01*
X133385602Y-57502931D01*
X132221594Y-57502931D01*
X132224978Y-57500000D01*
X131989947Y-57500000D01*
X131936724Y-57499575D01*
X131813186Y-57487585D01*
X131746764Y-57447175D01*
X131704572Y-57362500D01*
X131663557Y-57251951D01*
X131624654Y-57150000D01*
X131610851Y-57130188D01*
X131568222Y-57155879D01*
X131504124Y-57275000D01*
X131474792Y-57336995D01*
X131411447Y-57431410D01*
X131324163Y-57477066D01*
X131174839Y-57500000D01*
X131142875Y-57503353D01*
X130936512Y-57525000D01*
X129751961Y-57525000D01*
X129778501Y-57503353D01*
X129544418Y-57501676D01*
X129457614Y-57499972D01*
X129352230Y-57483389D01*
X129295212Y-57432106D01*
X129252696Y-57325696D01*
X129202640Y-57197688D01*
X129148958Y-57133261D01*
X129098454Y-57167084D01*
X129046585Y-57298556D01*
X129019728Y-57383022D01*
X128974717Y-57464097D01*
X128898295Y-57495738D01*
X128756074Y-57502032D01*
X128526036Y-57504064D01*
X127373767Y-57504064D01*
X127143729Y-57502032D01*
X127046892Y-57499861D01*
X126949069Y-57480895D01*
X126895974Y-57421822D01*
X126853218Y-57298556D01*
X126810077Y-57182820D01*
X126759662Y-57132100D01*
X126706853Y-57179526D01*
X126647107Y-57325696D01*
X126624364Y-57390076D01*
X126578400Y-57464792D01*
X126500028Y-57495183D01*
X126355385Y-57501676D01*
X126121302Y-57503353D01*
X125470640Y-57503353D01*
X125293308Y-57270508D01*
X125032520Y-56925985D01*
X124775330Y-56584092D01*
X124528871Y-56254202D01*
X124300277Y-55945684D01*
X124096682Y-55667910D01*
X123925220Y-55430252D01*
X123793025Y-55242080D01*
X123784925Y-55219192D01*
X123833846Y-55230318D01*
X123952944Y-55296546D01*
X124136154Y-55414823D01*
X124181818Y-55445298D01*
X124904630Y-55873949D01*
X125639000Y-56210591D01*
X126379350Y-56453371D01*
X127120099Y-56600435D01*
X127855666Y-56649931D01*
X128075707Y-56645917D01*
X128783483Y-56576126D01*
X129483124Y-56417739D01*
X130138318Y-56183858D01*
X131757397Y-56183858D01*
X131762014Y-56195749D01*
X131818375Y-56261156D01*
X131918280Y-56351764D01*
X131966423Y-56392556D01*
X132039163Y-56471709D01*
X132052392Y-56551874D01*
X132020104Y-56677862D01*
X132007818Y-56719885D01*
X131981904Y-56834445D01*
X131981583Y-56890411D01*
X131986498Y-56892309D01*
X132048627Y-56869295D01*
X132150510Y-56805454D01*
X132271101Y-56733912D01*
X132401814Y-56702760D01*
X132483660Y-56749731D01*
X132519298Y-56787935D01*
X132611863Y-56851490D01*
X132635852Y-56862938D01*
X132699507Y-56861889D01*
X132706560Y-56781661D01*
X132657392Y-56620328D01*
X132642694Y-56578091D01*
X132636587Y-56501017D01*
X132682077Y-56428714D01*
X132794017Y-56329573D01*
X132982519Y-56175000D01*
X132737350Y-56150000D01*
X132666507Y-56141983D01*
X132546657Y-56115438D01*
X132481313Y-56063474D01*
X132437905Y-55966088D01*
X132391177Y-55844565D01*
X132344389Y-55782191D01*
X132301556Y-55816046D01*
X132253925Y-55945132D01*
X132231172Y-56017875D01*
X132185892Y-56108904D01*
X132112474Y-56144132D01*
X131974910Y-56150000D01*
X131914790Y-56151323D01*
X131802105Y-56163356D01*
X131757397Y-56183858D01*
X130138318Y-56183858D01*
X130181622Y-56168400D01*
X130885971Y-55825752D01*
X131603164Y-55387439D01*
X131760302Y-55282672D01*
X131931973Y-55172526D01*
X132049198Y-55107137D01*
X132128516Y-55079201D01*
X132186471Y-55081416D01*
X132239603Y-55106480D01*
X132246366Y-55110833D01*
X132324270Y-55165738D01*
X132472563Y-55273233D01*
X132683115Y-55427328D01*
X132947797Y-55622035D01*
X133258481Y-55851365D01*
X133607038Y-56109330D01*
X133695570Y-56175000D01*
G37*
%TD*%
D11*
X200000000Y-79800000D02*
G75*
G03*
X100000000Y-79800000I-50000000J0D01*
G01*
X120000000Y-129750000D02*
X120000000Y-102900000D01*
X180000000Y-102900000D02*
X200000000Y-102900000D01*
X180000000Y-129800000D02*
X180000000Y-102900000D01*
X120000000Y-102900000D02*
X100000000Y-102900000D01*
X100000000Y-102900000D02*
X100000000Y-79800000D01*
X200000000Y-102900000D02*
X200000000Y-79800000D01*
X120000000Y-129750000D02*
X180000000Y-129800000D01*
M02*
