%TF.GenerationSoftware,KiCad,Pcbnew,7.0.1*%
%TF.CreationDate,2023-08-30T00:37:42-03:00*%
%TF.ProjectId,PCB-MPU-9150,5043422d-4d50-4552-9d39-3135302e6b69,rev?*%
%TF.SameCoordinates,Original*%
%TF.FileFunction,Legend,Bot*%
%TF.FilePolarity,Positive*%
%FSLAX46Y46*%
G04 Gerber Fmt 4.6, Leading zero omitted, Abs format (unit mm)*
G04 Created by KiCad (PCBNEW 7.0.1) date 2023-08-30 00:37:42*
%MOMM*%
%LPD*%
G01*
G04 APERTURE LIST*
%ADD10C,0.250000*%
%ADD11C,0.300000*%
%ADD12C,0.150000*%
%ADD13C,0.200000*%
%TA.AperFunction,Profile*%
%ADD14C,0.100000*%
%TD*%
G04 APERTURE END LIST*
D10*
X165297142Y-59377619D02*
X165297142Y-58377619D01*
X164820952Y-59377619D02*
X164820952Y-58377619D01*
X164820952Y-58377619D02*
X164249524Y-59377619D01*
X164249524Y-59377619D02*
X164249524Y-58377619D01*
X163916190Y-58377619D02*
X163344762Y-58377619D01*
X163630476Y-59377619D02*
X163630476Y-58377619D01*
X165292380Y-53327619D02*
X164625714Y-54327619D01*
X164625714Y-53327619D02*
X165292380Y-54327619D01*
X163673333Y-54232380D02*
X163720952Y-54280000D01*
X163720952Y-54280000D02*
X163863809Y-54327619D01*
X163863809Y-54327619D02*
X163959047Y-54327619D01*
X163959047Y-54327619D02*
X164101904Y-54280000D01*
X164101904Y-54280000D02*
X164197142Y-54184761D01*
X164197142Y-54184761D02*
X164244761Y-54089523D01*
X164244761Y-54089523D02*
X164292380Y-53899047D01*
X164292380Y-53899047D02*
X164292380Y-53756190D01*
X164292380Y-53756190D02*
X164244761Y-53565714D01*
X164244761Y-53565714D02*
X164197142Y-53470476D01*
X164197142Y-53470476D02*
X164101904Y-53375238D01*
X164101904Y-53375238D02*
X163959047Y-53327619D01*
X163959047Y-53327619D02*
X163863809Y-53327619D01*
X163863809Y-53327619D02*
X163720952Y-53375238D01*
X163720952Y-53375238D02*
X163673333Y-53422857D01*
X162768571Y-54327619D02*
X163244761Y-54327619D01*
X163244761Y-54327619D02*
X163244761Y-53327619D01*
X165294761Y-49130000D02*
X165151904Y-49177619D01*
X165151904Y-49177619D02*
X164913809Y-49177619D01*
X164913809Y-49177619D02*
X164818571Y-49130000D01*
X164818571Y-49130000D02*
X164770952Y-49082380D01*
X164770952Y-49082380D02*
X164723333Y-48987142D01*
X164723333Y-48987142D02*
X164723333Y-48891904D01*
X164723333Y-48891904D02*
X164770952Y-48796666D01*
X164770952Y-48796666D02*
X164818571Y-48749047D01*
X164818571Y-48749047D02*
X164913809Y-48701428D01*
X164913809Y-48701428D02*
X165104285Y-48653809D01*
X165104285Y-48653809D02*
X165199523Y-48606190D01*
X165199523Y-48606190D02*
X165247142Y-48558571D01*
X165247142Y-48558571D02*
X165294761Y-48463333D01*
X165294761Y-48463333D02*
X165294761Y-48368095D01*
X165294761Y-48368095D02*
X165247142Y-48272857D01*
X165247142Y-48272857D02*
X165199523Y-48225238D01*
X165199523Y-48225238D02*
X165104285Y-48177619D01*
X165104285Y-48177619D02*
X164866190Y-48177619D01*
X164866190Y-48177619D02*
X164723333Y-48225238D01*
X164294761Y-49177619D02*
X164294761Y-48177619D01*
X164294761Y-48177619D02*
X164056666Y-48177619D01*
X164056666Y-48177619D02*
X163913809Y-48225238D01*
X163913809Y-48225238D02*
X163818571Y-48320476D01*
X163818571Y-48320476D02*
X163770952Y-48415714D01*
X163770952Y-48415714D02*
X163723333Y-48606190D01*
X163723333Y-48606190D02*
X163723333Y-48749047D01*
X163723333Y-48749047D02*
X163770952Y-48939523D01*
X163770952Y-48939523D02*
X163818571Y-49034761D01*
X163818571Y-49034761D02*
X163913809Y-49130000D01*
X163913809Y-49130000D02*
X164056666Y-49177619D01*
X164056666Y-49177619D02*
X164294761Y-49177619D01*
X163342380Y-48891904D02*
X162866190Y-48891904D01*
X163437618Y-49177619D02*
X163104285Y-48177619D01*
X163104285Y-48177619D02*
X162770952Y-49177619D01*
X165292380Y-50777619D02*
X164625714Y-51777619D01*
X164625714Y-50777619D02*
X165292380Y-51777619D01*
X164244761Y-51777619D02*
X164244761Y-50777619D01*
X164244761Y-50777619D02*
X164006666Y-50777619D01*
X164006666Y-50777619D02*
X163863809Y-50825238D01*
X163863809Y-50825238D02*
X163768571Y-50920476D01*
X163768571Y-50920476D02*
X163720952Y-51015714D01*
X163720952Y-51015714D02*
X163673333Y-51206190D01*
X163673333Y-51206190D02*
X163673333Y-51349047D01*
X163673333Y-51349047D02*
X163720952Y-51539523D01*
X163720952Y-51539523D02*
X163768571Y-51634761D01*
X163768571Y-51634761D02*
X163863809Y-51730000D01*
X163863809Y-51730000D02*
X164006666Y-51777619D01*
X164006666Y-51777619D02*
X164244761Y-51777619D01*
X163292380Y-51491904D02*
X162816190Y-51491904D01*
X163387618Y-51777619D02*
X163054285Y-50777619D01*
X163054285Y-50777619D02*
X162720952Y-51777619D01*
X165289999Y-40577619D02*
X164956666Y-41577619D01*
X164956666Y-41577619D02*
X164623333Y-40577619D01*
X163718571Y-41482380D02*
X163766190Y-41530000D01*
X163766190Y-41530000D02*
X163909047Y-41577619D01*
X163909047Y-41577619D02*
X164004285Y-41577619D01*
X164004285Y-41577619D02*
X164147142Y-41530000D01*
X164147142Y-41530000D02*
X164242380Y-41434761D01*
X164242380Y-41434761D02*
X164289999Y-41339523D01*
X164289999Y-41339523D02*
X164337618Y-41149047D01*
X164337618Y-41149047D02*
X164337618Y-41006190D01*
X164337618Y-41006190D02*
X164289999Y-40815714D01*
X164289999Y-40815714D02*
X164242380Y-40720476D01*
X164242380Y-40720476D02*
X164147142Y-40625238D01*
X164147142Y-40625238D02*
X164004285Y-40577619D01*
X164004285Y-40577619D02*
X163909047Y-40577619D01*
X163909047Y-40577619D02*
X163766190Y-40625238D01*
X163766190Y-40625238D02*
X163718571Y-40672857D01*
X162718571Y-41482380D02*
X162766190Y-41530000D01*
X162766190Y-41530000D02*
X162909047Y-41577619D01*
X162909047Y-41577619D02*
X163004285Y-41577619D01*
X163004285Y-41577619D02*
X163147142Y-41530000D01*
X163147142Y-41530000D02*
X163242380Y-41434761D01*
X163242380Y-41434761D02*
X163289999Y-41339523D01*
X163289999Y-41339523D02*
X163337618Y-41149047D01*
X163337618Y-41149047D02*
X163337618Y-41006190D01*
X163337618Y-41006190D02*
X163289999Y-40815714D01*
X163289999Y-40815714D02*
X163242380Y-40720476D01*
X163242380Y-40720476D02*
X163147142Y-40625238D01*
X163147142Y-40625238D02*
X163004285Y-40577619D01*
X163004285Y-40577619D02*
X162909047Y-40577619D01*
X162909047Y-40577619D02*
X162766190Y-40625238D01*
X162766190Y-40625238D02*
X162718571Y-40672857D01*
X165194761Y-56541904D02*
X164718571Y-56541904D01*
X165289999Y-56827619D02*
X164956666Y-55827619D01*
X164956666Y-55827619D02*
X164623333Y-56827619D01*
X164289999Y-56827619D02*
X164289999Y-55827619D01*
X164289999Y-55827619D02*
X164051904Y-55827619D01*
X164051904Y-55827619D02*
X163909047Y-55875238D01*
X163909047Y-55875238D02*
X163813809Y-55970476D01*
X163813809Y-55970476D02*
X163766190Y-56065714D01*
X163766190Y-56065714D02*
X163718571Y-56256190D01*
X163718571Y-56256190D02*
X163718571Y-56399047D01*
X163718571Y-56399047D02*
X163766190Y-56589523D01*
X163766190Y-56589523D02*
X163813809Y-56684761D01*
X163813809Y-56684761D02*
X163909047Y-56780000D01*
X163909047Y-56780000D02*
X164051904Y-56827619D01*
X164051904Y-56827619D02*
X164289999Y-56827619D01*
X163099523Y-55827619D02*
X163004285Y-55827619D01*
X163004285Y-55827619D02*
X162909047Y-55875238D01*
X162909047Y-55875238D02*
X162861428Y-55922857D01*
X162861428Y-55922857D02*
X162813809Y-56018095D01*
X162813809Y-56018095D02*
X162766190Y-56208571D01*
X162766190Y-56208571D02*
X162766190Y-56446666D01*
X162766190Y-56446666D02*
X162813809Y-56637142D01*
X162813809Y-56637142D02*
X162861428Y-56732380D01*
X162861428Y-56732380D02*
X162909047Y-56780000D01*
X162909047Y-56780000D02*
X163004285Y-56827619D01*
X163004285Y-56827619D02*
X163099523Y-56827619D01*
X163099523Y-56827619D02*
X163194761Y-56780000D01*
X163194761Y-56780000D02*
X163242380Y-56732380D01*
X163242380Y-56732380D02*
X163289999Y-56637142D01*
X163289999Y-56637142D02*
X163337618Y-56446666D01*
X163337618Y-56446666D02*
X163337618Y-56208571D01*
X163337618Y-56208571D02*
X163289999Y-56018095D01*
X163289999Y-56018095D02*
X163242380Y-55922857D01*
X163242380Y-55922857D02*
X163194761Y-55875238D01*
X163194761Y-55875238D02*
X163099523Y-55827619D01*
X165294761Y-46630000D02*
X165151904Y-46677619D01*
X165151904Y-46677619D02*
X164913809Y-46677619D01*
X164913809Y-46677619D02*
X164818571Y-46630000D01*
X164818571Y-46630000D02*
X164770952Y-46582380D01*
X164770952Y-46582380D02*
X164723333Y-46487142D01*
X164723333Y-46487142D02*
X164723333Y-46391904D01*
X164723333Y-46391904D02*
X164770952Y-46296666D01*
X164770952Y-46296666D02*
X164818571Y-46249047D01*
X164818571Y-46249047D02*
X164913809Y-46201428D01*
X164913809Y-46201428D02*
X165104285Y-46153809D01*
X165104285Y-46153809D02*
X165199523Y-46106190D01*
X165199523Y-46106190D02*
X165247142Y-46058571D01*
X165247142Y-46058571D02*
X165294761Y-45963333D01*
X165294761Y-45963333D02*
X165294761Y-45868095D01*
X165294761Y-45868095D02*
X165247142Y-45772857D01*
X165247142Y-45772857D02*
X165199523Y-45725238D01*
X165199523Y-45725238D02*
X165104285Y-45677619D01*
X165104285Y-45677619D02*
X164866190Y-45677619D01*
X164866190Y-45677619D02*
X164723333Y-45725238D01*
X163723333Y-46582380D02*
X163770952Y-46630000D01*
X163770952Y-46630000D02*
X163913809Y-46677619D01*
X163913809Y-46677619D02*
X164009047Y-46677619D01*
X164009047Y-46677619D02*
X164151904Y-46630000D01*
X164151904Y-46630000D02*
X164247142Y-46534761D01*
X164247142Y-46534761D02*
X164294761Y-46439523D01*
X164294761Y-46439523D02*
X164342380Y-46249047D01*
X164342380Y-46249047D02*
X164342380Y-46106190D01*
X164342380Y-46106190D02*
X164294761Y-45915714D01*
X164294761Y-45915714D02*
X164247142Y-45820476D01*
X164247142Y-45820476D02*
X164151904Y-45725238D01*
X164151904Y-45725238D02*
X164009047Y-45677619D01*
X164009047Y-45677619D02*
X163913809Y-45677619D01*
X163913809Y-45677619D02*
X163770952Y-45725238D01*
X163770952Y-45725238D02*
X163723333Y-45772857D01*
X162818571Y-46677619D02*
X163294761Y-46677619D01*
X163294761Y-46677619D02*
X163294761Y-45677619D01*
D11*
X155632095Y-54664285D02*
X156832095Y-54664285D01*
X156832095Y-54664285D02*
X155974952Y-54264285D01*
X155974952Y-54264285D02*
X156832095Y-53864285D01*
X156832095Y-53864285D02*
X155632095Y-53864285D01*
X155632095Y-53292856D02*
X156832095Y-53292856D01*
X156832095Y-53292856D02*
X156832095Y-52835713D01*
X156832095Y-52835713D02*
X156774952Y-52721428D01*
X156774952Y-52721428D02*
X156717809Y-52664285D01*
X156717809Y-52664285D02*
X156603523Y-52607142D01*
X156603523Y-52607142D02*
X156432095Y-52607142D01*
X156432095Y-52607142D02*
X156317809Y-52664285D01*
X156317809Y-52664285D02*
X156260666Y-52721428D01*
X156260666Y-52721428D02*
X156203523Y-52835713D01*
X156203523Y-52835713D02*
X156203523Y-53292856D01*
X156832095Y-52092856D02*
X155860666Y-52092856D01*
X155860666Y-52092856D02*
X155746380Y-52035713D01*
X155746380Y-52035713D02*
X155689238Y-51978571D01*
X155689238Y-51978571D02*
X155632095Y-51864285D01*
X155632095Y-51864285D02*
X155632095Y-51635713D01*
X155632095Y-51635713D02*
X155689238Y-51521428D01*
X155689238Y-51521428D02*
X155746380Y-51464285D01*
X155746380Y-51464285D02*
X155860666Y-51407142D01*
X155860666Y-51407142D02*
X156832095Y-51407142D01*
X156089238Y-50835713D02*
X156089238Y-49921428D01*
X155632095Y-49292856D02*
X155632095Y-49064285D01*
X155632095Y-49064285D02*
X155689238Y-48949999D01*
X155689238Y-48949999D02*
X155746380Y-48892856D01*
X155746380Y-48892856D02*
X155917809Y-48778571D01*
X155917809Y-48778571D02*
X156146380Y-48721428D01*
X156146380Y-48721428D02*
X156603523Y-48721428D01*
X156603523Y-48721428D02*
X156717809Y-48778571D01*
X156717809Y-48778571D02*
X156774952Y-48835714D01*
X156774952Y-48835714D02*
X156832095Y-48949999D01*
X156832095Y-48949999D02*
X156832095Y-49178571D01*
X156832095Y-49178571D02*
X156774952Y-49292856D01*
X156774952Y-49292856D02*
X156717809Y-49349999D01*
X156717809Y-49349999D02*
X156603523Y-49407142D01*
X156603523Y-49407142D02*
X156317809Y-49407142D01*
X156317809Y-49407142D02*
X156203523Y-49349999D01*
X156203523Y-49349999D02*
X156146380Y-49292856D01*
X156146380Y-49292856D02*
X156089238Y-49178571D01*
X156089238Y-49178571D02*
X156089238Y-48949999D01*
X156089238Y-48949999D02*
X156146380Y-48835714D01*
X156146380Y-48835714D02*
X156203523Y-48778571D01*
X156203523Y-48778571D02*
X156317809Y-48721428D01*
X155632095Y-47578571D02*
X155632095Y-48264285D01*
X155632095Y-47921428D02*
X156832095Y-47921428D01*
X156832095Y-47921428D02*
X156660666Y-48035714D01*
X156660666Y-48035714D02*
X156546380Y-48149999D01*
X156546380Y-48149999D02*
X156489238Y-48264285D01*
X156832095Y-46492857D02*
X156832095Y-47064285D01*
X156832095Y-47064285D02*
X156260666Y-47121428D01*
X156260666Y-47121428D02*
X156317809Y-47064285D01*
X156317809Y-47064285D02*
X156374952Y-46950000D01*
X156374952Y-46950000D02*
X156374952Y-46664285D01*
X156374952Y-46664285D02*
X156317809Y-46550000D01*
X156317809Y-46550000D02*
X156260666Y-46492857D01*
X156260666Y-46492857D02*
X156146380Y-46435714D01*
X156146380Y-46435714D02*
X155860666Y-46435714D01*
X155860666Y-46435714D02*
X155746380Y-46492857D01*
X155746380Y-46492857D02*
X155689238Y-46550000D01*
X155689238Y-46550000D02*
X155632095Y-46664285D01*
X155632095Y-46664285D02*
X155632095Y-46950000D01*
X155632095Y-46950000D02*
X155689238Y-47064285D01*
X155689238Y-47064285D02*
X155746380Y-47121428D01*
X156832095Y-45692857D02*
X156832095Y-45578571D01*
X156832095Y-45578571D02*
X156774952Y-45464285D01*
X156774952Y-45464285D02*
X156717809Y-45407143D01*
X156717809Y-45407143D02*
X156603523Y-45350000D01*
X156603523Y-45350000D02*
X156374952Y-45292857D01*
X156374952Y-45292857D02*
X156089238Y-45292857D01*
X156089238Y-45292857D02*
X155860666Y-45350000D01*
X155860666Y-45350000D02*
X155746380Y-45407143D01*
X155746380Y-45407143D02*
X155689238Y-45464285D01*
X155689238Y-45464285D02*
X155632095Y-45578571D01*
X155632095Y-45578571D02*
X155632095Y-45692857D01*
X155632095Y-45692857D02*
X155689238Y-45807143D01*
X155689238Y-45807143D02*
X155746380Y-45864285D01*
X155746380Y-45864285D02*
X155860666Y-45921428D01*
X155860666Y-45921428D02*
X156089238Y-45978571D01*
X156089238Y-45978571D02*
X156374952Y-45978571D01*
X156374952Y-45978571D02*
X156603523Y-45921428D01*
X156603523Y-45921428D02*
X156717809Y-45864285D01*
X156717809Y-45864285D02*
X156774952Y-45807143D01*
X156774952Y-45807143D02*
X156832095Y-45692857D01*
D10*
X164723333Y-43225238D02*
X164818571Y-43177619D01*
X164818571Y-43177619D02*
X164961428Y-43177619D01*
X164961428Y-43177619D02*
X165104285Y-43225238D01*
X165104285Y-43225238D02*
X165199523Y-43320476D01*
X165199523Y-43320476D02*
X165247142Y-43415714D01*
X165247142Y-43415714D02*
X165294761Y-43606190D01*
X165294761Y-43606190D02*
X165294761Y-43749047D01*
X165294761Y-43749047D02*
X165247142Y-43939523D01*
X165247142Y-43939523D02*
X165199523Y-44034761D01*
X165199523Y-44034761D02*
X165104285Y-44130000D01*
X165104285Y-44130000D02*
X164961428Y-44177619D01*
X164961428Y-44177619D02*
X164866190Y-44177619D01*
X164866190Y-44177619D02*
X164723333Y-44130000D01*
X164723333Y-44130000D02*
X164675714Y-44082380D01*
X164675714Y-44082380D02*
X164675714Y-43749047D01*
X164675714Y-43749047D02*
X164866190Y-43749047D01*
X164247142Y-44177619D02*
X164247142Y-43177619D01*
X164247142Y-43177619D02*
X163675714Y-44177619D01*
X163675714Y-44177619D02*
X163675714Y-43177619D01*
X163199523Y-44177619D02*
X163199523Y-43177619D01*
X163199523Y-43177619D02*
X162961428Y-43177619D01*
X162961428Y-43177619D02*
X162818571Y-43225238D01*
X162818571Y-43225238D02*
X162723333Y-43320476D01*
X162723333Y-43320476D02*
X162675714Y-43415714D01*
X162675714Y-43415714D02*
X162628095Y-43606190D01*
X162628095Y-43606190D02*
X162628095Y-43749047D01*
X162628095Y-43749047D02*
X162675714Y-43939523D01*
X162675714Y-43939523D02*
X162723333Y-44034761D01*
X162723333Y-44034761D02*
X162818571Y-44130000D01*
X162818571Y-44130000D02*
X162961428Y-44177619D01*
X162961428Y-44177619D02*
X163199523Y-44177619D01*
D12*
%TO.C,*%
D10*
X159594082Y-54777702D02*
X159355987Y-55444369D01*
X159117892Y-54777702D02*
X159355987Y-55444369D01*
X159355987Y-55444369D02*
X159451225Y-55682464D01*
X159451225Y-55682464D02*
X159498844Y-55730083D01*
X159498844Y-55730083D02*
X159594082Y-55777702D01*
X158317892Y-56844369D02*
X157794083Y-56177702D01*
X158317892Y-56177702D02*
X157794083Y-56844369D01*
D13*
X160565988Y-57841750D02*
X160565988Y-54031750D01*
X160565988Y-57841750D02*
X156755988Y-57841750D01*
X160565988Y-54031750D02*
X161200988Y-54666750D01*
X160565988Y-54031750D02*
X159930988Y-54666750D01*
X156755988Y-57841750D02*
X157390988Y-58476750D01*
X156755988Y-57841750D02*
X157390988Y-57206750D01*
%TD*%
D14*
X154885238Y-60000000D02*
X154885238Y-40000000D01*
X169885238Y-60000000D02*
X169885238Y-40000000D01*
X154885238Y-54825000D02*
X154885238Y-45175000D01*
X154885238Y-40000000D02*
X169885238Y-40000000D01*
X154885238Y-60000000D02*
X169885238Y-60000000D01*
M02*
