%TF.GenerationSoftware,KiCad,Pcbnew,7.0.1*%
%TF.CreationDate,2023-08-30T00:37:41-03:00*%
%TF.ProjectId,PCB-MPU-9150,5043422d-4d50-4552-9d39-3135302e6b69,rev?*%
%TF.SameCoordinates,Original*%
%TF.FileFunction,Copper,L1,Top*%
%TF.FilePolarity,Positive*%
%FSLAX46Y46*%
G04 Gerber Fmt 4.6, Leading zero omitted, Abs format (unit mm)*
G04 Created by KiCad (PCBNEW 7.0.1) date 2023-08-30 00:37:41*
%MOMM*%
%LPD*%
G01*
G04 APERTURE LIST*
G04 Aperture macros list*
%AMRoundRect*
0 Rectangle with rounded corners*
0 $1 Rounding radius*
0 $2 $3 $4 $5 $6 $7 $8 $9 X,Y pos of 4 corners*
0 Add a 4 corners polygon primitive as box body*
4,1,4,$2,$3,$4,$5,$6,$7,$8,$9,$2,$3,0*
0 Add four circle primitives for the rounded corners*
1,1,$1+$1,$2,$3*
1,1,$1+$1,$4,$5*
1,1,$1+$1,$6,$7*
1,1,$1+$1,$8,$9*
0 Add four rect primitives between the rounded corners*
20,1,$1+$1,$2,$3,$4,$5,0*
20,1,$1+$1,$4,$5,$6,$7,0*
20,1,$1+$1,$6,$7,$8,$9,0*
20,1,$1+$1,$8,$9,$2,$3,0*%
G04 Aperture macros list end*
%TA.AperFunction,SMDPad,CuDef*%
%ADD10R,1.000000X1.100000*%
%TD*%
%TA.AperFunction,SMDPad,CuDef*%
%ADD11R,1.397000X0.889000*%
%TD*%
%TA.AperFunction,SMDPad,CuDef*%
%ADD12R,1.100000X1.000000*%
%TD*%
%TA.AperFunction,SMDPad,CuDef*%
%ADD13RoundRect,0.060000X0.615000X-0.240000X0.615000X0.240000X-0.615000X0.240000X-0.615000X-0.240000X0*%
%TD*%
%TA.AperFunction,SMDPad,CuDef*%
%ADD14R,1.198880X1.198880*%
%TD*%
%TA.AperFunction,SMDPad,CuDef*%
%ADD15R,1.000000X0.889000*%
%TD*%
%TA.AperFunction,SMDPad,CuDef*%
%ADD16R,0.889000X1.397000*%
%TD*%
%TA.AperFunction,SMDPad,CuDef*%
%ADD17R,0.350000X0.400000*%
%TD*%
%TA.AperFunction,SMDPad,CuDef*%
%ADD18R,0.400000X0.350000*%
%TD*%
%TA.AperFunction,ComponentPad*%
%ADD19O,3.016000X1.508000*%
%TD*%
%TA.AperFunction,ViaPad*%
%ADD20C,1.000000*%
%TD*%
%TA.AperFunction,ViaPad*%
%ADD21C,0.800000*%
%TD*%
%TA.AperFunction,Conductor*%
%ADD22C,0.400000*%
%TD*%
%TA.AperFunction,Conductor*%
%ADD23C,0.600000*%
%TD*%
%TA.AperFunction,Conductor*%
%ADD24C,0.500000*%
%TD*%
%TA.AperFunction,Conductor*%
%ADD25C,0.700000*%
%TD*%
%TA.AperFunction,Conductor*%
%ADD26C,0.250000*%
%TD*%
%TA.AperFunction,Profile*%
%ADD27C,0.100000*%
%TD*%
G04 APERTURE END LIST*
D10*
%TO.P,C2,1*%
%TO.N,GND*%
X158600000Y-57950000D03*
%TO.P,C2,2*%
%TO.N,Net-(U1-REGOUT)*%
X158600000Y-56250000D03*
%TD*%
D11*
%TO.P,R3,1*%
%TO.N,+3.3V*%
X158775238Y-47184250D03*
%TO.P,R3,2*%
%TO.N,Net-(LED1-A)*%
X158775238Y-45279250D03*
%TD*%
D12*
%TO.P,C1,1*%
%TO.N,GND*%
X162100000Y-56150000D03*
%TO.P,C1,2*%
%TO.N,Net-(U1-CPOUT)*%
X163800000Y-56150000D03*
%TD*%
D13*
%TO.P,U2,1,VIN*%
%TO.N,VCC*%
X162890238Y-43300000D03*
%TO.P,U2,2,GND*%
%TO.N,GND*%
X162890238Y-42350000D03*
X160520238Y-41400000D03*
%TO.P,U2,3,EN*%
%TO.N,VCC*%
X162890238Y-41400000D03*
%TO.P,U2,5,VOUT*%
%TO.N,+3.3V*%
X160520238Y-43300000D03*
%TD*%
D10*
%TO.P,C5,1*%
%TO.N,GND*%
X156655238Y-41500000D03*
%TO.P,C5,2*%
%TO.N,+3.3V*%
X156655238Y-43200000D03*
%TD*%
D14*
%TO.P,LED1,1,A*%
%TO.N,Net-(LED1-A)*%
X156825238Y-45150980D03*
%TO.P,LED1,2,K*%
%TO.N,GND*%
X156825238Y-47249020D03*
%TD*%
D10*
%TO.P,C7,1*%
%TO.N,VCC*%
X165350000Y-41450000D03*
%TO.P,C7,2*%
%TO.N,GND*%
X165350000Y-43150000D03*
%TD*%
D15*
%TO.P,JP1,1,A*%
%TO.N,GND*%
X156300000Y-58100000D03*
%TO.P,JP1,2,C*%
%TO.N,/AD0*%
X156300000Y-56500000D03*
%TO.P,JP1,3,B*%
%TO.N,+3.3V*%
X156300000Y-54900000D03*
%TD*%
D12*
%TO.P,C4,1*%
%TO.N,+3.3V*%
X157515238Y-52240000D03*
%TO.P,C4,2*%
%TO.N,GND*%
X155815238Y-52240000D03*
%TD*%
D10*
%TO.P,C6,1*%
%TO.N,GND*%
X158515238Y-41500000D03*
%TO.P,C6,2*%
%TO.N,+3.3V*%
X158515238Y-43200000D03*
%TD*%
D12*
%TO.P,C3,1*%
%TO.N,+3.3V*%
X157515238Y-50320000D03*
%TO.P,C3,2*%
%TO.N,GND*%
X155815238Y-50320000D03*
%TD*%
D16*
%TO.P,R1,1*%
%TO.N,+3.3V*%
X162105238Y-48710000D03*
%TO.P,R1,2*%
%TO.N,/SDA*%
X164010238Y-48710000D03*
%TD*%
%TO.P,R2,1*%
%TO.N,+3.3V*%
X162095238Y-46170000D03*
%TO.P,R2,2*%
%TO.N,/SCL*%
X164000238Y-46170000D03*
%TD*%
D17*
%TO.P,U1,1,CLKIN*%
%TO.N,GND*%
X163105238Y-51255000D03*
%TO.P,U1,2,RESV*%
%TO.N,unconnected-(U1-RESV-Pad2)*%
X162605238Y-51255000D03*
%TO.P,U1,3,VDD*%
%TO.N,+3.3V*%
X162105238Y-51255000D03*
%TO.P,U1,4,RESV*%
%TO.N,unconnected-(U1-RESV-Pad4)*%
X161605238Y-51255000D03*
%TO.P,U1,5,RESV*%
%TO.N,unconnected-(U1-RESV-Pad5)*%
X161105238Y-51255000D03*
%TO.P,U1,6,ES_DA*%
%TO.N,/XDA*%
X160605238Y-51255000D03*
D18*
%TO.P,U1,7,ES_CL*%
%TO.N,/XCL*%
X160120238Y-51740000D03*
%TO.P,U1,8,VLOGIC*%
%TO.N,+3.3V*%
X160120238Y-52240000D03*
%TO.P,U1,9,AD0*%
%TO.N,/AD0*%
X160120238Y-52740000D03*
%TO.P,U1,10,REGOUT*%
%TO.N,Net-(U1-REGOUT)*%
X160120238Y-53240000D03*
%TO.P,U1,11,FSYNC*%
%TO.N,GND*%
X160120238Y-53740000D03*
%TO.P,U1,12,INT*%
%TO.N,/INT*%
X160120238Y-54240000D03*
D17*
%TO.P,U1,13,VDD*%
%TO.N,+3.3V*%
X160605238Y-54725000D03*
%TO.P,U1,14,RESV*%
%TO.N,unconnected-(U1-RESV-Pad14)*%
X161105238Y-54725000D03*
%TO.P,U1,15,GND*%
%TO.N,GND*%
X161605238Y-54725000D03*
%TO.P,U1,16,RESV*%
%TO.N,unconnected-(U1-RESV-Pad16)*%
X162105238Y-54725000D03*
%TO.P,U1,17,GND*%
%TO.N,GND*%
X162605238Y-54725000D03*
%TO.P,U1,18,GND*%
X163105238Y-54725000D03*
D18*
%TO.P,U1,19,RESV*%
%TO.N,unconnected-(U1-RESV-Pad19)*%
X163590238Y-54240000D03*
%TO.P,U1,20,CPOUT*%
%TO.N,Net-(U1-CPOUT)*%
X163590238Y-53740000D03*
%TO.P,U1,21,RESV*%
%TO.N,unconnected-(U1-RESV-Pad21)*%
X163590238Y-53240000D03*
%TO.P,U1,22,RESV*%
%TO.N,unconnected-(U1-RESV-Pad22)*%
X163590238Y-52740000D03*
%TO.P,U1,23,SCL*%
%TO.N,/SCL*%
X163590238Y-52240000D03*
%TO.P,U1,24,SDA*%
%TO.N,/SDA*%
X163590238Y-51740000D03*
%TD*%
D19*
%TO.P,P1,1,P1*%
%TO.N,VCC*%
X167895238Y-41090000D03*
%TO.P,P1,2,P2*%
%TO.N,GND*%
X167895238Y-43630000D03*
%TO.P,P1,3,P3*%
%TO.N,/SCL*%
X167895238Y-46170000D03*
%TO.P,P1,4,P4*%
%TO.N,/SDA*%
X167895238Y-48710000D03*
%TO.P,P1,5,P5*%
%TO.N,/XDA*%
X167895238Y-51250000D03*
%TO.P,P1,6,P6*%
%TO.N,/XCL*%
X167895238Y-53790000D03*
%TO.P,P1,7,P7*%
%TO.N,/AD0*%
X167895238Y-56330000D03*
%TO.P,P1,8,P8*%
%TO.N,/INT*%
X167895238Y-58870000D03*
%TD*%
D20*
%TO.N,/SCL*%
X165575238Y-50000000D03*
%TO.N,/XDA*%
X160605238Y-48890000D03*
%TO.N,/XCL*%
X158975238Y-50150000D03*
%TO.N,/INT*%
X160500000Y-56200000D03*
D21*
%TO.N,/AD0*%
X157700000Y-54950000D03*
%TD*%
D22*
%TO.N,GND*%
X163105238Y-51255000D02*
X163090238Y-51270000D01*
X158515238Y-41500000D02*
X160575238Y-41500000D01*
X162600000Y-53689524D02*
X162605238Y-53694762D01*
D23*
X155500000Y-46800000D02*
X155949020Y-47249020D01*
D24*
X161700000Y-44200000D02*
X161700000Y-42450000D01*
X161800000Y-42350000D02*
X162890238Y-42350000D01*
D22*
X161605238Y-54044762D02*
X161605238Y-54725000D01*
D23*
X155815238Y-52240000D02*
X155285238Y-52770000D01*
D22*
X161605238Y-54725000D02*
X161605238Y-55200000D01*
D24*
X165400000Y-43200000D02*
X165350000Y-43150000D01*
X161900000Y-44400000D02*
X161700000Y-44200000D01*
D22*
X162100000Y-55694762D02*
X162100000Y-56150000D01*
X161955238Y-53694762D02*
X161605238Y-54044762D01*
D24*
X160800000Y-42350000D02*
X161800000Y-42350000D01*
D23*
X155815238Y-50320000D02*
X155815238Y-52240000D01*
D24*
X165350000Y-43850000D02*
X164800000Y-44400000D01*
D22*
X163090238Y-51745000D02*
X162600000Y-52235238D01*
D24*
X157450000Y-57950000D02*
X157300000Y-58100000D01*
D23*
X155285238Y-52770000D02*
X155285238Y-57950000D01*
X155685238Y-41500000D02*
X155500000Y-41685238D01*
X155500000Y-41685238D02*
X155500000Y-46800000D01*
D24*
X160665238Y-41590000D02*
X160665238Y-42215238D01*
D23*
X155435238Y-58100000D02*
X156300000Y-58100000D01*
D24*
X161700000Y-42450000D02*
X161800000Y-42350000D01*
D22*
X162605238Y-53694762D02*
X162605238Y-54205238D01*
D24*
X165350000Y-43150000D02*
X165350000Y-43850000D01*
D22*
X162100000Y-56150000D02*
X162100000Y-57450000D01*
X159550000Y-57900000D02*
X159500000Y-57850000D01*
X158515238Y-41500000D02*
X156655238Y-41500000D01*
D24*
X164800000Y-44400000D02*
X161900000Y-44400000D01*
X157300000Y-58100000D02*
X156300000Y-58100000D01*
D22*
X158650000Y-57900000D02*
X158600000Y-57950000D01*
X162600000Y-52235238D02*
X162600000Y-53689524D01*
X159500000Y-57850000D02*
X159500000Y-53900000D01*
X162100000Y-57450000D02*
X161650000Y-57900000D01*
X159500000Y-53900000D02*
X159660000Y-53740000D01*
X162605238Y-53694762D02*
X161955238Y-53694762D01*
X162605238Y-54725000D02*
X162605238Y-54205238D01*
D24*
X167895238Y-43630000D02*
X167465238Y-43200000D01*
D22*
X161605238Y-55200000D02*
X162100000Y-55694762D01*
D24*
X158600000Y-57950000D02*
X157450000Y-57950000D01*
X160665238Y-42215238D02*
X160800000Y-42350000D01*
D22*
X163105238Y-54725000D02*
X162605238Y-54725000D01*
X161650000Y-57900000D02*
X158650000Y-57900000D01*
D23*
X155285238Y-57950000D02*
X155435238Y-58100000D01*
D24*
X167465238Y-43200000D02*
X165400000Y-43200000D01*
D22*
X159660000Y-53740000D02*
X160120238Y-53740000D01*
D23*
X155949020Y-47249020D02*
X155815238Y-47382802D01*
X156655238Y-41500000D02*
X155685238Y-41500000D01*
X155949020Y-47249020D02*
X156825238Y-47249020D01*
X155815238Y-47382802D02*
X155815238Y-50320000D01*
D22*
X163090238Y-51270000D02*
X163090238Y-51745000D01*
%TO.N,Net-(U1-CPOUT)*%
X164385238Y-53740000D02*
X163590238Y-53740000D01*
X164700000Y-55900000D02*
X164700000Y-54054762D01*
X164700000Y-54054762D02*
X164385238Y-53740000D01*
X164450000Y-56150000D02*
X164700000Y-55900000D01*
X163800000Y-56150000D02*
X164450000Y-56150000D01*
%TO.N,Net-(U1-REGOUT)*%
X159260000Y-53240000D02*
X160120238Y-53240000D01*
X158600000Y-53900000D02*
X159260000Y-53240000D01*
X158600000Y-56250000D02*
X158600000Y-53900000D01*
D25*
%TO.N,+3.3V*%
X157515238Y-50320000D02*
X157515238Y-52240000D01*
X158515238Y-43200000D02*
X160420238Y-43200000D01*
X162090988Y-47184250D02*
X160545238Y-47184250D01*
X158775238Y-48090000D02*
X157515238Y-49350000D01*
X160520238Y-47159250D02*
X160545238Y-47184250D01*
X162095238Y-47180000D02*
X162090988Y-47184250D01*
X162095238Y-48700000D02*
X162105238Y-48710000D01*
X156655238Y-43200000D02*
X158515238Y-43200000D01*
X158775238Y-47184250D02*
X158775238Y-48090000D01*
X160520238Y-43300000D02*
X160520238Y-47159250D01*
D24*
X156650000Y-54550000D02*
X156650000Y-53850000D01*
D26*
X160540000Y-52240000D02*
X160120238Y-52240000D01*
D25*
X157515238Y-49350000D02*
X157515238Y-50320000D01*
D24*
X157515238Y-52984762D02*
X157515238Y-52240000D01*
D26*
X160605238Y-52305238D02*
X160540000Y-52240000D01*
D25*
X162095238Y-46170000D02*
X162095238Y-47180000D01*
D24*
X156650000Y-53850000D02*
X157515238Y-52984762D01*
D22*
X162105238Y-51255000D02*
X162105238Y-48710000D01*
D25*
X160545238Y-47184250D02*
X158775238Y-47184250D01*
D26*
X160605238Y-54725000D02*
X160605238Y-52305238D01*
D22*
X157515238Y-52240000D02*
X160120238Y-52240000D01*
D24*
X156300000Y-54900000D02*
X156650000Y-54550000D01*
D25*
X162095238Y-47180000D02*
X162095238Y-48700000D01*
X160420238Y-43200000D02*
X160520238Y-43300000D01*
D23*
%TO.N,VCC*%
X166050000Y-41450000D02*
X165350000Y-41450000D01*
X163800000Y-43300000D02*
X162890238Y-43300000D01*
X164250000Y-42850000D02*
X163800000Y-43300000D01*
X165300000Y-41400000D02*
X165350000Y-41450000D01*
X167895238Y-41090000D02*
X166410000Y-41090000D01*
X162890238Y-41400000D02*
X164250000Y-41400000D01*
X164250000Y-41400000D02*
X164250000Y-42850000D01*
X164250000Y-41400000D02*
X165300000Y-41400000D01*
X166410000Y-41090000D02*
X166050000Y-41450000D01*
D24*
%TO.N,Net-(LED1-A)*%
X158646968Y-45150980D02*
X158775238Y-45279250D01*
X156825238Y-45150980D02*
X158646968Y-45150980D01*
D22*
%TO.N,/SCL*%
X165575238Y-51810000D02*
X165145238Y-52240000D01*
D25*
X165575238Y-46170000D02*
X164000238Y-46170000D01*
D22*
X165145238Y-52240000D02*
X163590238Y-52240000D01*
D25*
X167895238Y-46170000D02*
X165575238Y-46170000D01*
D22*
X165575238Y-50000000D02*
X165575238Y-51810000D01*
D25*
%TO.N,/SDA*%
X167895238Y-48710000D02*
X164010238Y-48710000D01*
D22*
X164145238Y-51740000D02*
X163590238Y-51740000D01*
X164355238Y-51530000D02*
X164355238Y-50240000D01*
X164355238Y-50240000D02*
X164010238Y-49895000D01*
X164145238Y-51740000D02*
X164355238Y-51530000D01*
X164010238Y-49895000D02*
X164010238Y-48710000D01*
%TO.N,/XDA*%
X160605238Y-51255000D02*
X160605238Y-48890000D01*
D25*
%TO.N,/XCL*%
X167895238Y-53790000D02*
X167065238Y-53790000D01*
D22*
X158975238Y-51460000D02*
X158975238Y-50150000D01*
X159255238Y-51740000D02*
X158975238Y-51460000D01*
X160120238Y-51740000D02*
X159255238Y-51740000D01*
D26*
%TO.N,/INT*%
X160120238Y-55070238D02*
X160120238Y-54240000D01*
X160500000Y-56200000D02*
X160500000Y-55450000D01*
X160500000Y-55450000D02*
X160120238Y-55070238D01*
D22*
%TO.N,/AD0*%
X157700000Y-53850000D02*
X158810000Y-52740000D01*
X157700000Y-54950000D02*
X157700000Y-53850000D01*
X157700000Y-54950000D02*
X157650000Y-55000000D01*
X157650000Y-55000000D02*
X157650000Y-55850000D01*
X157000000Y-56500000D02*
X156300000Y-56500000D01*
X158810000Y-52740000D02*
X160120238Y-52740000D01*
X157650000Y-55850000D02*
X157000000Y-56500000D01*
%TD*%
%TA.AperFunction,Conductor*%
%TO.N,GND*%
G36*
X166212968Y-40013764D02*
G01*
X166256830Y-40050717D01*
X166279371Y-40103455D01*
X166275770Y-40160695D01*
X166246798Y-40210189D01*
X166156466Y-40304670D01*
X166156463Y-40304673D01*
X166148756Y-40312735D01*
X166148728Y-40312708D01*
X166129964Y-40333005D01*
X166094704Y-40352234D01*
X166060477Y-40364210D01*
X166028070Y-40384573D01*
X166015878Y-40391309D01*
X166012292Y-40393035D01*
X165945261Y-40404594D01*
X165902711Y-40400020D01*
X165897872Y-40399500D01*
X164802130Y-40399500D01*
X164742515Y-40405909D01*
X164624303Y-40450000D01*
X164607669Y-40456204D01*
X164492454Y-40542454D01*
X164486946Y-40549811D01*
X164443185Y-40586384D01*
X164387680Y-40599500D01*
X164301915Y-40599500D01*
X164288032Y-40598720D01*
X164283591Y-40598219D01*
X164250000Y-40594434D01*
X164216408Y-40598219D01*
X164211967Y-40598720D01*
X164198085Y-40599500D01*
X162238494Y-40599500D01*
X162128919Y-40613924D01*
X161992568Y-40670403D01*
X161875482Y-40760246D01*
X161803144Y-40854519D01*
X161759454Y-40890323D01*
X161704415Y-40903031D01*
X161649450Y-40890009D01*
X161605965Y-40853956D01*
X161534943Y-40760297D01*
X161412278Y-40667280D01*
X161269073Y-40610806D01*
X161179085Y-40600000D01*
X160770238Y-40600000D01*
X160770238Y-41526000D01*
X160753625Y-41588000D01*
X160708238Y-41633387D01*
X160646238Y-41650000D01*
X159555238Y-41650000D01*
X159546453Y-41658784D01*
X159538625Y-41688000D01*
X159493238Y-41733387D01*
X159431238Y-41750000D01*
X155655238Y-41750000D01*
X155655238Y-42097824D01*
X155661640Y-42157375D01*
X155717056Y-42305951D01*
X155724874Y-42349285D01*
X155717056Y-42392619D01*
X155711443Y-42407667D01*
X155711442Y-42407669D01*
X155661147Y-42542517D01*
X155655675Y-42593419D01*
X155654738Y-42602130D01*
X155654738Y-43797869D01*
X155659922Y-43846091D01*
X155661147Y-43857483D01*
X155711442Y-43992331D01*
X155781089Y-44085367D01*
X155808376Y-44121818D01*
X155805459Y-44124001D01*
X155824790Y-44148576D01*
X155833930Y-44212114D01*
X155810074Y-44271708D01*
X155782003Y-44309206D01*
X155731707Y-44444056D01*
X155725298Y-44503670D01*
X155725298Y-45798289D01*
X155731707Y-45857904D01*
X155756854Y-45925327D01*
X155782002Y-45992751D01*
X155868252Y-46107966D01*
X155878936Y-46122238D01*
X155877571Y-46123259D01*
X155895580Y-46144810D01*
X155908695Y-46200310D01*
X155895583Y-46255809D01*
X155877846Y-46277036D01*
X155879293Y-46278119D01*
X155782445Y-46407490D01*
X155732200Y-46542204D01*
X155725798Y-46601756D01*
X155725798Y-46999020D01*
X156951238Y-46999020D01*
X157013238Y-47015633D01*
X157058625Y-47061020D01*
X157075238Y-47123020D01*
X157075238Y-48348460D01*
X157106932Y-48380154D01*
X157139026Y-48435742D01*
X157139026Y-48499929D01*
X157106933Y-48555514D01*
X157022735Y-48639713D01*
X156941848Y-48720600D01*
X156934446Y-48727424D01*
X156894136Y-48761664D01*
X156846160Y-48824773D01*
X156844097Y-48827412D01*
X156794324Y-48889335D01*
X156782236Y-48908824D01*
X156782184Y-48908935D01*
X156782184Y-48908936D01*
X156772340Y-48930214D01*
X156748882Y-48980916D01*
X156747432Y-48983941D01*
X156712146Y-49055090D01*
X156704531Y-49076719D01*
X156687457Y-49154283D01*
X156686691Y-49157549D01*
X156664301Y-49247586D01*
X156661627Y-49246921D01*
X156652566Y-49280343D01*
X156613214Y-49323448D01*
X156558502Y-49343775D01*
X156500552Y-49336822D01*
X156472615Y-49326402D01*
X156413062Y-49320000D01*
X156065238Y-49320000D01*
X156065238Y-53251330D01*
X156079569Y-53275338D01*
X156082216Y-53335976D01*
X156055768Y-53390607D01*
X156017894Y-53435744D01*
X156007418Y-53452187D01*
X155975192Y-53521294D01*
X155973622Y-53524536D01*
X155939393Y-53592692D01*
X155932996Y-53611098D01*
X155917573Y-53685788D01*
X155916793Y-53689305D01*
X155899208Y-53763505D01*
X155897229Y-53782878D01*
X155897436Y-53789982D01*
X155898456Y-53825056D01*
X155898525Y-53827395D01*
X155883146Y-53890907D01*
X155837615Y-53937782D01*
X155774577Y-53955001D01*
X155752128Y-53955001D01*
X155722322Y-53958204D01*
X155692515Y-53961409D01*
X155557669Y-54011704D01*
X155442454Y-54097954D01*
X155356204Y-54213168D01*
X155305909Y-54348016D01*
X155299500Y-54407630D01*
X155299500Y-55392369D01*
X155305909Y-55451984D01*
X155356204Y-55586832D01*
X155385293Y-55625690D01*
X155407192Y-55673642D01*
X155407192Y-55726358D01*
X155385293Y-55774310D01*
X155356205Y-55813166D01*
X155307928Y-55942605D01*
X155305909Y-55948017D01*
X155299735Y-56005446D01*
X155299500Y-56007630D01*
X155299500Y-56992369D01*
X155305909Y-57051984D01*
X155326814Y-57108033D01*
X155356204Y-57186831D01*
X155370060Y-57205340D01*
X155385605Y-57226105D01*
X155407504Y-57274057D01*
X155407504Y-57326773D01*
X155385606Y-57374725D01*
X155356648Y-57413408D01*
X155306402Y-57548124D01*
X155300000Y-57607676D01*
X155300000Y-57850000D01*
X157300000Y-57850000D01*
X157300000Y-57607676D01*
X157293597Y-57548124D01*
X157243351Y-57413408D01*
X157214394Y-57374726D01*
X157192495Y-57326774D01*
X157192495Y-57274058D01*
X157214391Y-57226110D01*
X157243796Y-57186831D01*
X157243797Y-57186826D01*
X157253669Y-57173640D01*
X157308964Y-57132010D01*
X157327930Y-57124818D01*
X157336270Y-57119060D01*
X157355819Y-57108035D01*
X157365057Y-57103878D01*
X157412413Y-57066775D01*
X157418404Y-57062366D01*
X157462891Y-57031660D01*
X157521226Y-57010304D01*
X157582600Y-57019922D01*
X157631607Y-57058100D01*
X157655947Y-57115256D01*
X157649510Y-57177045D01*
X157606402Y-57292622D01*
X157600000Y-57352176D01*
X157600000Y-57700000D01*
X159600000Y-57700000D01*
X159600000Y-57352176D01*
X159593597Y-57292624D01*
X159538182Y-57144049D01*
X159530364Y-57100715D01*
X159538182Y-57057382D01*
X159546190Y-57035912D01*
X159578845Y-56948359D01*
X159616147Y-56896017D01*
X159674645Y-56869380D01*
X159738619Y-56875609D01*
X159778708Y-56904314D01*
X159779677Y-56903135D01*
X159789115Y-56910880D01*
X159789117Y-56910883D01*
X159941462Y-57035910D01*
X160115273Y-57128814D01*
X160303868Y-57186024D01*
X160500000Y-57205341D01*
X160696132Y-57186024D01*
X160884727Y-57128814D01*
X161058538Y-57035910D01*
X161065742Y-57029997D01*
X161114454Y-57005522D01*
X161168959Y-57004305D01*
X161218718Y-57026583D01*
X161307910Y-57093352D01*
X161442624Y-57143597D01*
X161502176Y-57150000D01*
X161850000Y-57150000D01*
X161850000Y-56024000D01*
X161866613Y-55962000D01*
X161912000Y-55916613D01*
X161974000Y-55900000D01*
X162226000Y-55900000D01*
X162288000Y-55916613D01*
X162333387Y-55962000D01*
X162350000Y-56024000D01*
X162350000Y-57150000D01*
X162697824Y-57150000D01*
X162757375Y-57143597D01*
X162905951Y-57088182D01*
X162949285Y-57080364D01*
X162992619Y-57088182D01*
X163007667Y-57093794D01*
X163007669Y-57093796D01*
X163142517Y-57144091D01*
X163202127Y-57150500D01*
X164397872Y-57150499D01*
X164457483Y-57144091D01*
X164592331Y-57093796D01*
X164707546Y-57007546D01*
X164793796Y-56892331D01*
X164844091Y-56757483D01*
X164844091Y-56757481D01*
X164844688Y-56755881D01*
X164863050Y-56723009D01*
X164890431Y-56697163D01*
X164917929Y-56678183D01*
X164957823Y-56633150D01*
X164962924Y-56627731D01*
X165177731Y-56412924D01*
X165183151Y-56407822D01*
X165228183Y-56367929D01*
X165262358Y-56318416D01*
X165266779Y-56312407D01*
X165303877Y-56265057D01*
X165308033Y-56255820D01*
X165319058Y-56236273D01*
X165324818Y-56227930D01*
X165346154Y-56171668D01*
X165349014Y-56164766D01*
X165373694Y-56109932D01*
X165375519Y-56099971D01*
X165381545Y-56078348D01*
X165385140Y-56068872D01*
X165392389Y-56009165D01*
X165393516Y-56001762D01*
X165404357Y-55942606D01*
X165400726Y-55882577D01*
X165400500Y-55875090D01*
X165400500Y-54079683D01*
X165400726Y-54072196D01*
X165400927Y-54068864D01*
X165404358Y-54012156D01*
X165393507Y-53952947D01*
X165392390Y-53945603D01*
X165385140Y-53885890D01*
X165381547Y-53876418D01*
X165375522Y-53854806D01*
X165373695Y-53844831D01*
X165349009Y-53789982D01*
X165346152Y-53783088D01*
X165324818Y-53726832D01*
X165324816Y-53726830D01*
X165324816Y-53726828D01*
X165319062Y-53718493D01*
X165308033Y-53698939D01*
X165303878Y-53689706D01*
X165266780Y-53642353D01*
X165262352Y-53636335D01*
X165228184Y-53586834D01*
X165228183Y-53586833D01*
X165183153Y-53546940D01*
X165177715Y-53541820D01*
X164898178Y-53262283D01*
X164893060Y-53256847D01*
X164853167Y-53211817D01*
X164803670Y-53177651D01*
X164797645Y-53173217D01*
X164783471Y-53162113D01*
X164746260Y-53114024D01*
X164736384Y-53054026D01*
X164756218Y-52996548D01*
X164800992Y-52955408D01*
X164859941Y-52940500D01*
X165120317Y-52940500D01*
X165127804Y-52940726D01*
X165130944Y-52940915D01*
X165187844Y-52944358D01*
X165247020Y-52933513D01*
X165254419Y-52932387D01*
X165314110Y-52925140D01*
X165323573Y-52921550D01*
X165345196Y-52915522D01*
X165355170Y-52913695D01*
X165410046Y-52888996D01*
X165416911Y-52886152D01*
X165473168Y-52864818D01*
X165481508Y-52859060D01*
X165501057Y-52848035D01*
X165510295Y-52843878D01*
X165557651Y-52806775D01*
X165563658Y-52802355D01*
X165613167Y-52768183D01*
X165653061Y-52723150D01*
X165658162Y-52717731D01*
X166052969Y-52322924D01*
X166058388Y-52317823D01*
X166103421Y-52277929D01*
X166137615Y-52228389D01*
X166142006Y-52222423D01*
X166144858Y-52218781D01*
X166198229Y-52179422D01*
X166264255Y-52173195D01*
X166324046Y-52201885D01*
X166400879Y-52269013D01*
X166594730Y-52384834D01*
X166645169Y-52403764D01*
X166692748Y-52435788D01*
X166720828Y-52485797D01*
X166723402Y-52543092D01*
X166699917Y-52595417D01*
X166655400Y-52631577D01*
X166495203Y-52708723D01*
X166312520Y-52841450D01*
X166312517Y-52841452D01*
X166312517Y-52841453D01*
X166306752Y-52847483D01*
X166156463Y-53004673D01*
X166032064Y-53193130D01*
X165943314Y-53400769D01*
X165893066Y-53620924D01*
X165882934Y-53846508D01*
X165913247Y-54070282D01*
X165983026Y-54285041D01*
X166090034Y-54483895D01*
X166228346Y-54657331D01*
X166230827Y-54660442D01*
X166400881Y-54809014D01*
X166400883Y-54809015D01*
X166594730Y-54924834D01*
X166645169Y-54943764D01*
X166692748Y-54975788D01*
X166720828Y-55025797D01*
X166723402Y-55083092D01*
X166699917Y-55135417D01*
X166655400Y-55171577D01*
X166495203Y-55248723D01*
X166312520Y-55381450D01*
X166312517Y-55381452D01*
X166312517Y-55381453D01*
X166270405Y-55425499D01*
X166156463Y-55544673D01*
X166032064Y-55733130D01*
X165943314Y-55940769D01*
X165893066Y-56160924D01*
X165882934Y-56386508D01*
X165913247Y-56610282D01*
X165983026Y-56825041D01*
X166090034Y-57023895D01*
X166230825Y-57200440D01*
X166230827Y-57200442D01*
X166400881Y-57349014D01*
X166443914Y-57374725D01*
X166594730Y-57464834D01*
X166645169Y-57483764D01*
X166692748Y-57515788D01*
X166720828Y-57565797D01*
X166723402Y-57623092D01*
X166699917Y-57675417D01*
X166655400Y-57711577D01*
X166495203Y-57788723D01*
X166312520Y-57921450D01*
X166156463Y-58084673D01*
X166032064Y-58273130D01*
X165943314Y-58480769D01*
X165893066Y-58700924D01*
X165882934Y-58926508D01*
X165913247Y-59150282D01*
X165983026Y-59365041D01*
X166090034Y-59563895D01*
X166230827Y-59740442D01*
X166278530Y-59782119D01*
X166312643Y-59830889D01*
X166320103Y-59889936D01*
X166299190Y-59945658D01*
X166254723Y-59985217D01*
X166196946Y-59999500D01*
X155124000Y-59999500D01*
X155062000Y-59982887D01*
X155016613Y-59937500D01*
X155000000Y-59875500D01*
X155000000Y-58350000D01*
X155300000Y-58350000D01*
X155300000Y-58592324D01*
X155306402Y-58651875D01*
X155356647Y-58786589D01*
X155442811Y-58901688D01*
X155557910Y-58987852D01*
X155692624Y-59038097D01*
X155752176Y-59044500D01*
X156050000Y-59044500D01*
X156050000Y-58350000D01*
X156550000Y-58350000D01*
X156550000Y-59044500D01*
X156847824Y-59044500D01*
X156907375Y-59038097D01*
X157042089Y-58987852D01*
X157157188Y-58901688D01*
X157243352Y-58786589D01*
X157293597Y-58651875D01*
X157300000Y-58592324D01*
X157300000Y-58350000D01*
X156550000Y-58350000D01*
X156050000Y-58350000D01*
X155300000Y-58350000D01*
X155000000Y-58350000D01*
X155000000Y-58200000D01*
X157600000Y-58200000D01*
X157600000Y-58547824D01*
X157606402Y-58607375D01*
X157656647Y-58742089D01*
X157742811Y-58857188D01*
X157857910Y-58943352D01*
X157992624Y-58993597D01*
X158052176Y-59000000D01*
X158350000Y-59000000D01*
X158350000Y-58200000D01*
X158850000Y-58200000D01*
X158850000Y-59000000D01*
X159147824Y-59000000D01*
X159207375Y-58993597D01*
X159342089Y-58943352D01*
X159457188Y-58857188D01*
X159543352Y-58742089D01*
X159593597Y-58607375D01*
X159600000Y-58547824D01*
X159600000Y-58200000D01*
X158850000Y-58200000D01*
X158350000Y-58200000D01*
X157600000Y-58200000D01*
X155000000Y-58200000D01*
X155000000Y-53353313D01*
X155014123Y-53295840D01*
X155053276Y-53251459D01*
X155108540Y-53230281D01*
X155142132Y-53234193D01*
X155142376Y-53231933D01*
X155217414Y-53240000D01*
X155565238Y-53240000D01*
X155565238Y-49320000D01*
X155217414Y-49320000D01*
X155142376Y-49328067D01*
X155142132Y-49325806D01*
X155108540Y-49329719D01*
X155053276Y-49308541D01*
X155014123Y-49264160D01*
X155000000Y-49206687D01*
X155000000Y-47499020D01*
X155725798Y-47499020D01*
X155725798Y-47896284D01*
X155732200Y-47955835D01*
X155782445Y-48090549D01*
X155868609Y-48205648D01*
X155983708Y-48291812D01*
X156118422Y-48342057D01*
X156177974Y-48348460D01*
X156575238Y-48348460D01*
X156575238Y-47499020D01*
X155725798Y-47499020D01*
X155000000Y-47499020D01*
X155000000Y-41250000D01*
X155655238Y-41250000D01*
X156405238Y-41250000D01*
X156405238Y-40450000D01*
X156905238Y-40450000D01*
X156905238Y-41250000D01*
X158265238Y-41250000D01*
X158265238Y-40450000D01*
X158765238Y-40450000D01*
X158765238Y-41250000D01*
X159305238Y-41250000D01*
X159314022Y-41241215D01*
X159321851Y-41212000D01*
X159367238Y-41166613D01*
X159429238Y-41150000D01*
X160270238Y-41150000D01*
X160270238Y-40600001D01*
X159861399Y-40600001D01*
X159771400Y-40610807D01*
X159628194Y-40667281D01*
X159600021Y-40688645D01*
X159540327Y-40712901D01*
X159476520Y-40703929D01*
X159425831Y-40664150D01*
X159372428Y-40592812D01*
X159257327Y-40506647D01*
X159122613Y-40456402D01*
X159063062Y-40450000D01*
X158765238Y-40450000D01*
X158265238Y-40450000D01*
X157967414Y-40450000D01*
X157907862Y-40456402D01*
X157773148Y-40506647D01*
X157659549Y-40591688D01*
X157611596Y-40613587D01*
X157558880Y-40613587D01*
X157510927Y-40591688D01*
X157397327Y-40506647D01*
X157262613Y-40456402D01*
X157203062Y-40450000D01*
X156905238Y-40450000D01*
X156405238Y-40450000D01*
X156107414Y-40450000D01*
X156047862Y-40456402D01*
X155913148Y-40506647D01*
X155798049Y-40592811D01*
X155711885Y-40707910D01*
X155661640Y-40842624D01*
X155655238Y-40902176D01*
X155655238Y-41250000D01*
X155000000Y-41250000D01*
X155000000Y-40124500D01*
X155016613Y-40062500D01*
X155062000Y-40017113D01*
X155124000Y-40000500D01*
X166157170Y-40000500D01*
X166212968Y-40013764D01*
G37*
%TD.AperFunction*%
%TA.AperFunction,Conductor*%
G36*
X161382365Y-51955500D02*
G01*
X161828110Y-51955499D01*
X161828112Y-51955499D01*
X161841980Y-51954008D01*
X161868488Y-51954008D01*
X161882365Y-51955500D01*
X162005739Y-51955499D01*
X162005747Y-51955500D01*
X162020182Y-51955500D01*
X162190294Y-51955500D01*
X162204728Y-51955500D01*
X162204736Y-51955499D01*
X162328113Y-51955499D01*
X162341980Y-51954008D01*
X162368488Y-51954008D01*
X162382365Y-51955500D01*
X162765738Y-51955499D01*
X162827738Y-51972112D01*
X162873125Y-52017499D01*
X162889738Y-52079499D01*
X162889738Y-52462870D01*
X162891230Y-52476750D01*
X162891230Y-52503241D01*
X162889738Y-52517128D01*
X162889738Y-52962870D01*
X162891230Y-52976750D01*
X162891230Y-53003241D01*
X162889738Y-53017128D01*
X162889738Y-53462870D01*
X162891230Y-53476750D01*
X162891230Y-53503241D01*
X162890534Y-53509719D01*
X162889738Y-53517127D01*
X162889738Y-53654942D01*
X162889738Y-53654944D01*
X162889738Y-53825056D01*
X162889738Y-53825058D01*
X162889738Y-53890907D01*
X162889739Y-53900998D01*
X162873127Y-53962999D01*
X162827739Y-54008387D01*
X162785545Y-54019692D01*
X162780238Y-54025000D01*
X162780238Y-54026373D01*
X162761733Y-54091540D01*
X162711742Y-54137257D01*
X162645185Y-54149879D01*
X162581928Y-54125640D01*
X162522569Y-54081204D01*
X162490223Y-54069139D01*
X162445878Y-54040640D01*
X162430238Y-54025000D01*
X162382411Y-54025000D01*
X162370831Y-54026244D01*
X162344339Y-54026243D01*
X162328117Y-54024500D01*
X161882363Y-54024500D01*
X161866143Y-54026244D01*
X161839644Y-54026244D01*
X161828069Y-54025000D01*
X161780237Y-54025000D01*
X161764596Y-54040641D01*
X161720250Y-54069140D01*
X161687907Y-54081203D01*
X161679547Y-54087462D01*
X161631596Y-54109360D01*
X161578880Y-54109360D01*
X161530929Y-54087462D01*
X161522571Y-54081205D01*
X161522569Y-54081204D01*
X161490223Y-54069139D01*
X161445878Y-54040640D01*
X161430238Y-54025000D01*
X161382411Y-54025000D01*
X161370831Y-54026244D01*
X161344382Y-54026248D01*
X161341534Y-54025943D01*
X161285263Y-54005358D01*
X161245214Y-53960791D01*
X161230738Y-53902648D01*
X161230738Y-52387978D01*
X161233001Y-52367474D01*
X161231668Y-52325058D01*
X161230799Y-52297382D01*
X161230738Y-52293488D01*
X161230738Y-52265895D01*
X161230738Y-52265888D01*
X161230233Y-52261891D01*
X161229318Y-52250261D01*
X161227947Y-52206610D01*
X161222357Y-52187372D01*
X161218412Y-52168320D01*
X161215902Y-52148444D01*
X161206678Y-52125149D01*
X161198718Y-52065894D01*
X161219410Y-52009802D01*
X161263945Y-51969912D01*
X161321969Y-51955499D01*
X161328113Y-51955499D01*
X161341980Y-51954008D01*
X161368488Y-51954008D01*
X161382365Y-51955500D01*
G37*
%TD.AperFunction*%
%TA.AperFunction,Conductor*%
G36*
X165538000Y-42916613D02*
G01*
X165583387Y-42962000D01*
X165600000Y-43024000D01*
X165600000Y-44200000D01*
X165897823Y-44200000D01*
X165934108Y-44196099D01*
X165982540Y-44200483D01*
X166025561Y-44223155D01*
X166056556Y-44260627D01*
X166090453Y-44323616D01*
X166231190Y-44500097D01*
X166401172Y-44648605D01*
X166594950Y-44764383D01*
X166645791Y-44783464D01*
X166693370Y-44815488D01*
X166721450Y-44865497D01*
X166724024Y-44922792D01*
X166700540Y-44975117D01*
X166656022Y-45011277D01*
X166495203Y-45088723D01*
X166312516Y-45221453D01*
X166255400Y-45281192D01*
X166214509Y-45309522D01*
X166165774Y-45319500D01*
X165667735Y-45319500D01*
X165008320Y-45319500D01*
X164959507Y-45309488D01*
X164918577Y-45281070D01*
X164892138Y-45238833D01*
X164889597Y-45232020D01*
X164888534Y-45229169D01*
X164802284Y-45113954D01*
X164687069Y-45027704D01*
X164552221Y-44977409D01*
X164492611Y-44971000D01*
X164492607Y-44971000D01*
X163507868Y-44971000D01*
X163448253Y-44977409D01*
X163313407Y-45027704D01*
X163198191Y-45113954D01*
X163147005Y-45182331D01*
X163103242Y-45218904D01*
X163047738Y-45232020D01*
X162992234Y-45218904D01*
X162948471Y-45182331D01*
X162897284Y-45113954D01*
X162782069Y-45027704D01*
X162647221Y-44977409D01*
X162587611Y-44971000D01*
X162587607Y-44971000D01*
X161602868Y-44971000D01*
X161543253Y-44977409D01*
X161538069Y-44979343D01*
X161479283Y-44986193D01*
X161424017Y-44965015D01*
X161384862Y-44920634D01*
X161370738Y-44863160D01*
X161370738Y-44126940D01*
X161383526Y-44072096D01*
X161419252Y-44028564D01*
X161534992Y-43939754D01*
X161606862Y-43846091D01*
X161650394Y-43810365D01*
X161705238Y-43797577D01*
X161760082Y-43810365D01*
X161803614Y-43846091D01*
X161875483Y-43939754D01*
X161928734Y-43980614D01*
X161992569Y-44029596D01*
X162128918Y-44086074D01*
X162238497Y-44100500D01*
X162833001Y-44100499D01*
X162833011Y-44100500D01*
X162845284Y-44100500D01*
X163709806Y-44100500D01*
X163844954Y-44100500D01*
X163890194Y-44100500D01*
X163890195Y-44100500D01*
X163901009Y-44098031D01*
X163927520Y-44091980D01*
X163941197Y-44089655D01*
X163979255Y-44085368D01*
X164015399Y-44072720D01*
X164028721Y-44068882D01*
X164066061Y-44060360D01*
X164100549Y-44043750D01*
X164113391Y-44038431D01*
X164149522Y-44025789D01*
X164181932Y-44005423D01*
X164194103Y-43998697D01*
X164228587Y-43982091D01*
X164258523Y-43958216D01*
X164269857Y-43950176D01*
X164270264Y-43949920D01*
X164328227Y-43931182D01*
X164388120Y-43942308D01*
X164435487Y-43980614D01*
X164492809Y-44057187D01*
X164607910Y-44143352D01*
X164742624Y-44193597D01*
X164802176Y-44200000D01*
X165100000Y-44200000D01*
X165100000Y-43024000D01*
X165116613Y-42962000D01*
X165162000Y-42916613D01*
X165224000Y-42900000D01*
X165476000Y-42900000D01*
X165538000Y-42916613D01*
G37*
%TD.AperFunction*%
%TA.AperFunction,Conductor*%
G36*
X161629473Y-42033895D02*
G01*
X161679642Y-42064404D01*
X161715238Y-42100000D01*
X161911906Y-42100000D01*
X161951764Y-42106581D01*
X161987392Y-42125624D01*
X161990752Y-42128201D01*
X161992569Y-42129596D01*
X162128918Y-42186074D01*
X162238497Y-42200500D01*
X162833001Y-42200499D01*
X162833011Y-42200500D01*
X162845284Y-42200500D01*
X163016238Y-42200500D01*
X163078238Y-42217113D01*
X163123625Y-42262500D01*
X163140238Y-42324500D01*
X163140238Y-42375500D01*
X163123625Y-42437500D01*
X163078238Y-42482887D01*
X163016238Y-42499500D01*
X162238494Y-42499500D01*
X162128919Y-42513924D01*
X161992568Y-42570404D01*
X161987392Y-42574376D01*
X161951764Y-42593419D01*
X161911906Y-42600000D01*
X161715239Y-42600000D01*
X161679786Y-42635453D01*
X161629392Y-42666032D01*
X161570573Y-42669887D01*
X161516619Y-42646147D01*
X161417907Y-42570404D01*
X161417906Y-42570403D01*
X161281558Y-42513926D01*
X161208505Y-42504308D01*
X161171980Y-42499500D01*
X161171979Y-42499500D01*
X160949958Y-42499500D01*
X160908782Y-42492464D01*
X160893630Y-42484033D01*
X160893076Y-42485152D01*
X160881125Y-42479225D01*
X160861410Y-42466996D01*
X160795577Y-42436538D01*
X160745010Y-42393586D01*
X160723826Y-42330712D01*
X160738089Y-42265916D01*
X160783715Y-42217749D01*
X160847644Y-42199999D01*
X161179077Y-42199999D01*
X161269075Y-42189192D01*
X161412279Y-42132719D01*
X161517036Y-42053281D01*
X161570893Y-42029888D01*
X161629473Y-42033895D01*
G37*
%TD.AperFunction*%
%TD*%
D27*
X154885238Y-60000000D02*
X154885238Y-40000000D01*
X169885238Y-60000000D02*
X169885238Y-40000000D01*
X154885238Y-54825000D02*
X154885238Y-45175000D01*
X154885238Y-40000000D02*
X169885238Y-40000000D01*
X154885238Y-60000000D02*
X169885238Y-60000000D01*
M02*
