%TF.GenerationSoftware,KiCad,Pcbnew,7.0.1*%
%TF.CreationDate,2023-08-30T00:37:42-03:00*%
%TF.ProjectId,PCB-MPU-9150,5043422d-4d50-4552-9d39-3135302e6b69,rev?*%
%TF.SameCoordinates,Original*%
%TF.FileFunction,Soldermask,Top*%
%TF.FilePolarity,Negative*%
%FSLAX46Y46*%
G04 Gerber Fmt 4.6, Leading zero omitted, Abs format (unit mm)*
G04 Created by KiCad (PCBNEW 7.0.1) date 2023-08-30 00:37:42*
%MOMM*%
%LPD*%
G01*
G04 APERTURE LIST*
G04 Aperture macros list*
%AMRoundRect*
0 Rectangle with rounded corners*
0 $1 Rounding radius*
0 $2 $3 $4 $5 $6 $7 $8 $9 X,Y pos of 4 corners*
0 Add a 4 corners polygon primitive as box body*
4,1,4,$2,$3,$4,$5,$6,$7,$8,$9,$2,$3,0*
0 Add four circle primitives for the rounded corners*
1,1,$1+$1,$2,$3*
1,1,$1+$1,$4,$5*
1,1,$1+$1,$6,$7*
1,1,$1+$1,$8,$9*
0 Add four rect primitives between the rounded corners*
20,1,$1+$1,$2,$3,$4,$5,0*
20,1,$1+$1,$4,$5,$6,$7,0*
20,1,$1+$1,$6,$7,$8,$9,0*
20,1,$1+$1,$8,$9,$2,$3,0*%
G04 Aperture macros list end*
%ADD10C,0.010000*%
%ADD11R,1.000000X1.100000*%
%ADD12R,1.397000X0.889000*%
%ADD13R,1.100000X1.000000*%
%ADD14RoundRect,0.060000X0.615000X-0.240000X0.615000X0.240000X-0.615000X0.240000X-0.615000X-0.240000X0*%
%ADD15R,1.198880X1.198880*%
%ADD16R,1.000000X0.889000*%
%ADD17R,0.889000X1.397000*%
%ADD18O,3.016000X1.508000*%
%TA.AperFunction,Profile*%
%ADD19C,0.100000*%
%TD*%
G04 APERTURE END LIST*
%TO.C,U1*%
D10*
X163330238Y-51505000D02*
X162880238Y-51505000D01*
X162880238Y-51005000D01*
X163330238Y-51005000D01*
X163330238Y-51505000D01*
G36*
X163330238Y-51505000D02*
G01*
X162880238Y-51505000D01*
X162880238Y-51005000D01*
X163330238Y-51005000D01*
X163330238Y-51505000D01*
G37*
X162830238Y-51505000D02*
X162380238Y-51505000D01*
X162380238Y-51005000D01*
X162830238Y-51005000D01*
X162830238Y-51505000D01*
G36*
X162830238Y-51505000D02*
G01*
X162380238Y-51505000D01*
X162380238Y-51005000D01*
X162830238Y-51005000D01*
X162830238Y-51505000D01*
G37*
X162330238Y-51505000D02*
X161880238Y-51505000D01*
X161880238Y-51005000D01*
X162330238Y-51005000D01*
X162330238Y-51505000D01*
G36*
X162330238Y-51505000D02*
G01*
X161880238Y-51505000D01*
X161880238Y-51005000D01*
X162330238Y-51005000D01*
X162330238Y-51505000D01*
G37*
X161830238Y-51505000D02*
X161380238Y-51505000D01*
X161380238Y-51005000D01*
X161830238Y-51005000D01*
X161830238Y-51505000D01*
G36*
X161830238Y-51505000D02*
G01*
X161380238Y-51505000D01*
X161380238Y-51005000D01*
X161830238Y-51005000D01*
X161830238Y-51505000D01*
G37*
X161330238Y-51505000D02*
X160880238Y-51505000D01*
X160880238Y-51005000D01*
X161330238Y-51005000D01*
X161330238Y-51505000D01*
G36*
X161330238Y-51505000D02*
G01*
X160880238Y-51505000D01*
X160880238Y-51005000D01*
X161330238Y-51005000D01*
X161330238Y-51505000D01*
G37*
X160830238Y-51505000D02*
X160380238Y-51505000D01*
X160380238Y-51005000D01*
X160830238Y-51005000D01*
X160830238Y-51505000D01*
G36*
X160830238Y-51505000D02*
G01*
X160380238Y-51505000D01*
X160380238Y-51005000D01*
X160830238Y-51005000D01*
X160830238Y-51505000D01*
G37*
X163840238Y-51965000D02*
X163340238Y-51965000D01*
X163340238Y-51515000D01*
X163840238Y-51515000D01*
X163840238Y-51965000D01*
G36*
X163840238Y-51965000D02*
G01*
X163340238Y-51965000D01*
X163340238Y-51515000D01*
X163840238Y-51515000D01*
X163840238Y-51965000D01*
G37*
X160370238Y-51965000D02*
X159870238Y-51965000D01*
X159870238Y-51515000D01*
X160370238Y-51515000D01*
X160370238Y-51965000D01*
G36*
X160370238Y-51965000D02*
G01*
X159870238Y-51965000D01*
X159870238Y-51515000D01*
X160370238Y-51515000D01*
X160370238Y-51965000D01*
G37*
X163840238Y-52465000D02*
X163340238Y-52465000D01*
X163340238Y-52015000D01*
X163840238Y-52015000D01*
X163840238Y-52465000D01*
G36*
X163840238Y-52465000D02*
G01*
X163340238Y-52465000D01*
X163340238Y-52015000D01*
X163840238Y-52015000D01*
X163840238Y-52465000D01*
G37*
X160370238Y-52465000D02*
X159870238Y-52465000D01*
X159870238Y-52015000D01*
X160370238Y-52015000D01*
X160370238Y-52465000D01*
G36*
X160370238Y-52465000D02*
G01*
X159870238Y-52465000D01*
X159870238Y-52015000D01*
X160370238Y-52015000D01*
X160370238Y-52465000D01*
G37*
X163840238Y-52965000D02*
X163340238Y-52965000D01*
X163340238Y-52515000D01*
X163840238Y-52515000D01*
X163840238Y-52965000D01*
G36*
X163840238Y-52965000D02*
G01*
X163340238Y-52965000D01*
X163340238Y-52515000D01*
X163840238Y-52515000D01*
X163840238Y-52965000D01*
G37*
X160370238Y-52965000D02*
X159870238Y-52965000D01*
X159870238Y-52515000D01*
X160370238Y-52515000D01*
X160370238Y-52965000D01*
G36*
X160370238Y-52965000D02*
G01*
X159870238Y-52965000D01*
X159870238Y-52515000D01*
X160370238Y-52515000D01*
X160370238Y-52965000D01*
G37*
X163840238Y-53465000D02*
X163340238Y-53465000D01*
X163340238Y-53015000D01*
X163840238Y-53015000D01*
X163840238Y-53465000D01*
G36*
X163840238Y-53465000D02*
G01*
X163340238Y-53465000D01*
X163340238Y-53015000D01*
X163840238Y-53015000D01*
X163840238Y-53465000D01*
G37*
X160370238Y-53465000D02*
X159870238Y-53465000D01*
X159870238Y-53015000D01*
X160370238Y-53015000D01*
X160370238Y-53465000D01*
G36*
X160370238Y-53465000D02*
G01*
X159870238Y-53465000D01*
X159870238Y-53015000D01*
X160370238Y-53015000D01*
X160370238Y-53465000D01*
G37*
X163840238Y-53965000D02*
X163340238Y-53965000D01*
X163340238Y-53515000D01*
X163840238Y-53515000D01*
X163840238Y-53965000D01*
G36*
X163840238Y-53965000D02*
G01*
X163340238Y-53965000D01*
X163340238Y-53515000D01*
X163840238Y-53515000D01*
X163840238Y-53965000D01*
G37*
X160370238Y-53965000D02*
X159870238Y-53965000D01*
X159870238Y-53515000D01*
X160370238Y-53515000D01*
X160370238Y-53965000D01*
G36*
X160370238Y-53965000D02*
G01*
X159870238Y-53965000D01*
X159870238Y-53515000D01*
X160370238Y-53515000D01*
X160370238Y-53965000D01*
G37*
X163840238Y-54465000D02*
X163340238Y-54465000D01*
X163340238Y-54015000D01*
X163840238Y-54015000D01*
X163840238Y-54465000D01*
G36*
X163840238Y-54465000D02*
G01*
X163340238Y-54465000D01*
X163340238Y-54015000D01*
X163840238Y-54015000D01*
X163840238Y-54465000D01*
G37*
X160370238Y-54465000D02*
X159870238Y-54465000D01*
X159870238Y-54015000D01*
X160370238Y-54015000D01*
X160370238Y-54465000D01*
G36*
X160370238Y-54465000D02*
G01*
X159870238Y-54465000D01*
X159870238Y-54015000D01*
X160370238Y-54015000D01*
X160370238Y-54465000D01*
G37*
X163330238Y-54975000D02*
X162880238Y-54975000D01*
X162880238Y-54475000D01*
X163330238Y-54475000D01*
X163330238Y-54975000D01*
G36*
X163330238Y-54975000D02*
G01*
X162880238Y-54975000D01*
X162880238Y-54475000D01*
X163330238Y-54475000D01*
X163330238Y-54975000D01*
G37*
X162830238Y-54975000D02*
X162380238Y-54975000D01*
X162380238Y-54475000D01*
X162830238Y-54475000D01*
X162830238Y-54975000D01*
G36*
X162830238Y-54975000D02*
G01*
X162380238Y-54975000D01*
X162380238Y-54475000D01*
X162830238Y-54475000D01*
X162830238Y-54975000D01*
G37*
X162330238Y-54975000D02*
X161880238Y-54975000D01*
X161880238Y-54475000D01*
X162330238Y-54475000D01*
X162330238Y-54975000D01*
G36*
X162330238Y-54975000D02*
G01*
X161880238Y-54975000D01*
X161880238Y-54475000D01*
X162330238Y-54475000D01*
X162330238Y-54975000D01*
G37*
X161830238Y-54975000D02*
X161380238Y-54975000D01*
X161380238Y-54475000D01*
X161830238Y-54475000D01*
X161830238Y-54975000D01*
G36*
X161830238Y-54975000D02*
G01*
X161380238Y-54975000D01*
X161380238Y-54475000D01*
X161830238Y-54475000D01*
X161830238Y-54975000D01*
G37*
X161330238Y-54975000D02*
X160880238Y-54975000D01*
X160880238Y-54475000D01*
X161330238Y-54475000D01*
X161330238Y-54975000D01*
G36*
X161330238Y-54975000D02*
G01*
X160880238Y-54975000D01*
X160880238Y-54475000D01*
X161330238Y-54475000D01*
X161330238Y-54975000D01*
G37*
X160830238Y-54975000D02*
X160380238Y-54975000D01*
X160380238Y-54475000D01*
X160830238Y-54475000D01*
X160830238Y-54975000D01*
G36*
X160830238Y-54975000D02*
G01*
X160380238Y-54975000D01*
X160380238Y-54475000D01*
X160830238Y-54475000D01*
X160830238Y-54975000D01*
G37*
%TD*%
D11*
%TO.C,C2*%
X158600000Y-57950000D03*
X158600000Y-56250000D03*
%TD*%
D12*
%TO.C,R3*%
X158775238Y-47184250D03*
X158775238Y-45279250D03*
%TD*%
D13*
%TO.C,C1*%
X162100000Y-56150000D03*
X163800000Y-56150000D03*
%TD*%
D14*
%TO.C,U2*%
X162890238Y-43300000D03*
X162890238Y-42350000D03*
X160520238Y-41400000D03*
X162890238Y-41400000D03*
X160520238Y-43300000D03*
%TD*%
D11*
%TO.C,C5*%
X156655238Y-41500000D03*
X156655238Y-43200000D03*
%TD*%
D15*
%TO.C,LED1*%
X156825238Y-45150980D03*
X156825238Y-47249020D03*
%TD*%
D11*
%TO.C,C7*%
X165350000Y-41450000D03*
X165350000Y-43150000D03*
%TD*%
D16*
%TO.C,JP1*%
X156300000Y-58100000D03*
X156300000Y-56500000D03*
X156300000Y-54900000D03*
%TD*%
D13*
%TO.C,C4*%
X157515238Y-52240000D03*
X155815238Y-52240000D03*
%TD*%
D11*
%TO.C,C6*%
X158515238Y-41500000D03*
X158515238Y-43200000D03*
%TD*%
D13*
%TO.C,C3*%
X157515238Y-50320000D03*
X155815238Y-50320000D03*
%TD*%
D17*
%TO.C,R1*%
X162105238Y-48710000D03*
X164010238Y-48710000D03*
%TD*%
%TO.C,R2*%
X162095238Y-46170000D03*
X164000238Y-46170000D03*
%TD*%
D18*
%TO.C,P1*%
X167895238Y-41090000D03*
X167895238Y-43630000D03*
X167895238Y-46170000D03*
X167895238Y-48710000D03*
X167895238Y-51250000D03*
X167895238Y-53790000D03*
X167895238Y-56330000D03*
X167895238Y-58870000D03*
%TD*%
D19*
X154885238Y-60000000D02*
X154885238Y-40000000D01*
X169885238Y-60000000D02*
X169885238Y-40000000D01*
X154885238Y-54825000D02*
X154885238Y-45175000D01*
X154885238Y-40000000D02*
X169885238Y-40000000D01*
X154885238Y-60000000D02*
X169885238Y-60000000D01*
M02*
