%TF.GenerationSoftware,KiCad,Pcbnew,7.0.1*%
%TF.CreationDate,2023-08-30T00:37:42-03:00*%
%TF.ProjectId,PCB-MPU-9150,5043422d-4d50-4552-9d39-3135302e6b69,rev?*%
%TF.SameCoordinates,Original*%
%TF.FileFunction,Legend,Top*%
%TF.FilePolarity,Positive*%
%FSLAX46Y46*%
G04 Gerber Fmt 4.6, Leading zero omitted, Abs format (unit mm)*
G04 Created by KiCad (PCBNEW 7.0.1) date 2023-08-30 00:37:42*
%MOMM*%
%LPD*%
G01*
G04 APERTURE LIST*
%ADD10C,0.300000*%
%ADD11C,0.127000*%
%ADD12C,0.099060*%
%ADD13C,0.200000*%
%TA.AperFunction,Profile*%
%ADD14C,0.100000*%
%TD*%
G04 APERTURE END LIST*
D10*
%TO.C,JP1*%
X153493928Y-57749999D02*
X154565357Y-57749999D01*
X154565357Y-57749999D02*
X154779642Y-57821428D01*
X154779642Y-57821428D02*
X154922500Y-57964285D01*
X154922500Y-57964285D02*
X154993928Y-58178571D01*
X154993928Y-58178571D02*
X154993928Y-58321428D01*
X154993928Y-57035714D02*
X153493928Y-57035714D01*
X153493928Y-57035714D02*
X153493928Y-56464285D01*
X153493928Y-56464285D02*
X153565357Y-56321428D01*
X153565357Y-56321428D02*
X153636785Y-56249999D01*
X153636785Y-56249999D02*
X153779642Y-56178571D01*
X153779642Y-56178571D02*
X153993928Y-56178571D01*
X153993928Y-56178571D02*
X154136785Y-56249999D01*
X154136785Y-56249999D02*
X154208214Y-56321428D01*
X154208214Y-56321428D02*
X154279642Y-56464285D01*
X154279642Y-56464285D02*
X154279642Y-57035714D01*
X154993928Y-54749999D02*
X154993928Y-55607142D01*
X154993928Y-55178571D02*
X153493928Y-55178571D01*
X153493928Y-55178571D02*
X153708214Y-55321428D01*
X153708214Y-55321428D02*
X153851071Y-55464285D01*
X153851071Y-55464285D02*
X153922500Y-55607142D01*
D11*
%TO.C,C2*%
X158150000Y-57250000D02*
X158150000Y-56950000D01*
X159050000Y-57250000D02*
X159050000Y-56950000D01*
D12*
%TO.C,R3*%
X157949738Y-47755750D02*
X157949738Y-46739750D01*
X159600738Y-47755750D02*
X157949738Y-47755750D01*
X159600738Y-46739750D02*
X159600738Y-47755750D01*
X157949738Y-45723750D02*
X157949738Y-44644250D01*
X157949738Y-44644250D02*
X159600738Y-44644250D01*
X159600738Y-44644250D02*
X159600738Y-45723750D01*
D11*
%TO.C,C1*%
X162800000Y-55700000D02*
X163100000Y-55700000D01*
X162800000Y-56600000D02*
X163100000Y-56600000D01*
%TO.C,U2*%
X162555238Y-43900000D02*
X162555238Y-43800000D01*
X162555238Y-40800000D02*
X162555238Y-43900000D01*
X162555238Y-40800000D02*
X162555238Y-40900000D01*
X160855238Y-43900000D02*
X162555238Y-43900000D01*
X160855238Y-43900000D02*
X160855238Y-43800000D01*
X160855238Y-43900000D02*
X160855238Y-40800000D01*
X160855238Y-40800000D02*
X162555238Y-40800000D01*
X160855238Y-40800000D02*
X160855238Y-40900000D01*
D13*
X164005238Y-43300000D02*
G75*
G03*
X164005238Y-43300000I-100000J0D01*
G01*
D11*
%TO.C,C5*%
X157105238Y-42200000D02*
X157105238Y-42500000D01*
X156205238Y-42200000D02*
X156205238Y-42500000D01*
%TO.C,LED1*%
X157625238Y-45900000D02*
X157625238Y-46500000D01*
X157625338Y-45900280D02*
X156025138Y-45900280D01*
X157124958Y-46100940D02*
X156525518Y-46100940D01*
X156525518Y-46100940D02*
X156825238Y-46400660D01*
X157025898Y-46200000D02*
X156624578Y-46200000D01*
X156726178Y-46299060D02*
X156924298Y-46299060D01*
X156825238Y-46400660D02*
X157124958Y-46100940D01*
X156025138Y-46499720D02*
X157625338Y-46499720D01*
X156025238Y-46500000D02*
X156025238Y-45900000D01*
%TO.C,C7*%
X165800000Y-42150000D02*
X165800000Y-42450000D01*
X164900000Y-42150000D02*
X164900000Y-42450000D01*
%TO.C,C4*%
X156815238Y-52690000D02*
X156515238Y-52690000D01*
X156815238Y-51790000D02*
X156515238Y-51790000D01*
%TO.C,C6*%
X158965238Y-42200000D02*
X158965238Y-42500000D01*
X158065238Y-42200000D02*
X158065238Y-42500000D01*
%TO.C,C3*%
X156815238Y-50770000D02*
X156515238Y-50770000D01*
X156815238Y-49870000D02*
X156515238Y-49870000D01*
D12*
%TO.C,R1*%
X161533738Y-47884500D02*
X162549738Y-47884500D01*
X161533738Y-49535500D02*
X161533738Y-47884500D01*
X162549738Y-49535500D02*
X161533738Y-49535500D01*
X163565738Y-47884500D02*
X164645238Y-47884500D01*
X164645238Y-47884500D02*
X164645238Y-49535500D01*
X164645238Y-49535500D02*
X163565738Y-49535500D01*
%TO.C,R2*%
X161523738Y-45344500D02*
X162539738Y-45344500D01*
X161523738Y-46995500D02*
X161523738Y-45344500D01*
X162539738Y-46995500D02*
X161523738Y-46995500D01*
X163555738Y-45344500D02*
X164635238Y-45344500D01*
X164635238Y-45344500D02*
X164635238Y-46995500D01*
X164635238Y-46995500D02*
X163555738Y-46995500D01*
D11*
%TO.C,U1*%
X163855238Y-50990000D02*
X163855238Y-51245000D01*
X163600238Y-50990000D02*
X163855238Y-50990000D01*
X159855238Y-50990000D02*
X160110238Y-50990000D01*
X159855238Y-51245000D02*
X159855238Y-50990000D01*
X163855238Y-54735000D02*
X163855238Y-54990000D01*
X163855238Y-54990000D02*
X163600238Y-54990000D01*
X159855238Y-54990000D02*
X159855238Y-54735000D01*
X159855238Y-54990000D02*
X160110238Y-54990000D01*
D13*
X163205238Y-50055000D02*
G75*
G03*
X163205238Y-50055000I-100000J0D01*
G01*
%TD*%
D14*
X154885238Y-60000000D02*
X154885238Y-40000000D01*
X169885238Y-60000000D02*
X169885238Y-40000000D01*
X154885238Y-54825000D02*
X154885238Y-45175000D01*
X154885238Y-40000000D02*
X169885238Y-40000000D01*
X154885238Y-60000000D02*
X169885238Y-60000000D01*
M02*
