%TF.GenerationSoftware,KiCad,Pcbnew,7.0.1*%
%TF.CreationDate,2023-08-30T00:37:42-03:00*%
%TF.ProjectId,PCB-MPU-9150,5043422d-4d50-4552-9d39-3135302e6b69,rev?*%
%TF.SameCoordinates,Original*%
%TF.FileFunction,Copper,L2,Bot*%
%TF.FilePolarity,Positive*%
%FSLAX46Y46*%
G04 Gerber Fmt 4.6, Leading zero omitted, Abs format (unit mm)*
G04 Created by KiCad (PCBNEW 7.0.1) date 2023-08-30 00:37:42*
%MOMM*%
%LPD*%
G01*
G04 APERTURE LIST*
%TA.AperFunction,ComponentPad*%
%ADD10O,3.016000X1.508000*%
%TD*%
%TA.AperFunction,ViaPad*%
%ADD11C,1.000000*%
%TD*%
%TA.AperFunction,ViaPad*%
%ADD12C,0.800000*%
%TD*%
%TA.AperFunction,Conductor*%
%ADD13C,0.700000*%
%TD*%
%TA.AperFunction,Conductor*%
%ADD14C,0.600000*%
%TD*%
%TA.AperFunction,Conductor*%
%ADD15C,0.500000*%
%TD*%
%TA.AperFunction,Profile*%
%ADD16C,0.100000*%
%TD*%
G04 APERTURE END LIST*
D10*
%TO.P,P1,1,P1*%
%TO.N,VCC*%
X167895238Y-41090000D03*
%TO.P,P1,2,P2*%
%TO.N,GND*%
X167895238Y-43630000D03*
%TO.P,P1,3,P3*%
%TO.N,/SCL*%
X167895238Y-46170000D03*
%TO.P,P1,4,P4*%
%TO.N,/SDA*%
X167895238Y-48710000D03*
%TO.P,P1,5,P5*%
%TO.N,/XDA*%
X167895238Y-51250000D03*
%TO.P,P1,6,P6*%
%TO.N,/XCL*%
X167895238Y-53790000D03*
%TO.P,P1,7,P7*%
%TO.N,/AD0*%
X167895238Y-56330000D03*
%TO.P,P1,8,P8*%
%TO.N,/INT*%
X167895238Y-58870000D03*
%TD*%
D11*
%TO.N,/SCL*%
X165575238Y-50000000D03*
%TO.N,/XDA*%
X160605238Y-48890000D03*
%TO.N,/XCL*%
X158975238Y-50150000D03*
%TO.N,/INT*%
X160500000Y-56200000D03*
D12*
%TO.N,/AD0*%
X157700000Y-54950000D03*
%TD*%
D13*
%TO.N,/SCL*%
X165575238Y-46624762D02*
X166030000Y-46170000D01*
X166030000Y-46170000D02*
X167895238Y-46170000D01*
X165575238Y-50000000D02*
X165575238Y-46624762D01*
D14*
%TO.N,/XDA*%
X160605238Y-50755238D02*
X161100000Y-51250000D01*
X160605238Y-48890000D02*
X160605238Y-50755238D01*
X161100000Y-51250000D02*
X167895238Y-51250000D01*
%TO.N,/XCL*%
X158975238Y-50150000D02*
X158975238Y-51975238D01*
X158975238Y-51975238D02*
X160790000Y-53790000D01*
X160790000Y-53790000D02*
X167895238Y-53790000D01*
D15*
%TO.N,/INT*%
X161220000Y-58870000D02*
X167895238Y-58870000D01*
X160500000Y-56200000D02*
X160500000Y-58150000D01*
X160500000Y-58150000D02*
X161220000Y-58870000D01*
D14*
%TO.N,/AD0*%
X157700000Y-54950000D02*
X164100000Y-54950000D01*
X164100000Y-54950000D02*
X165480000Y-56330000D01*
X165480000Y-56330000D02*
X167895238Y-56330000D01*
%TD*%
%TA.AperFunction,Conductor*%
%TO.N,GND*%
G36*
X166212968Y-40013764D02*
G01*
X166256830Y-40050717D01*
X166279371Y-40103455D01*
X166275770Y-40160695D01*
X166246798Y-40210189D01*
X166166686Y-40293979D01*
X166156463Y-40304673D01*
X166032064Y-40493130D01*
X165943314Y-40700769D01*
X165893066Y-40920924D01*
X165882934Y-41146508D01*
X165913247Y-41370282D01*
X165983026Y-41585041D01*
X166090034Y-41783895D01*
X166230825Y-41960440D01*
X166230827Y-41960442D01*
X166400881Y-42109014D01*
X166400883Y-42109015D01*
X166594731Y-42224834D01*
X166645816Y-42244007D01*
X166693396Y-42276031D01*
X166721476Y-42326040D01*
X166724049Y-42383335D01*
X166700564Y-42435660D01*
X166656047Y-42471820D01*
X166495462Y-42549153D01*
X166312845Y-42681833D01*
X166156857Y-42844982D01*
X166032506Y-43033368D01*
X165943791Y-43240924D01*
X165912049Y-43379999D01*
X165912050Y-43380000D01*
X168021238Y-43380000D01*
X168083238Y-43396613D01*
X168128625Y-43442000D01*
X168145238Y-43504000D01*
X168145238Y-43756000D01*
X168128625Y-43818000D01*
X168083238Y-43863387D01*
X168021238Y-43880000D01*
X165909649Y-43880000D01*
X165913735Y-43910166D01*
X165983488Y-44124844D01*
X166090453Y-44323616D01*
X166231190Y-44500097D01*
X166401172Y-44648605D01*
X166594950Y-44764383D01*
X166645791Y-44783464D01*
X166693370Y-44815488D01*
X166721450Y-44865497D01*
X166724024Y-44922792D01*
X166700540Y-44975117D01*
X166656022Y-45011277D01*
X166495203Y-45088723D01*
X166312516Y-45221453D01*
X166255400Y-45281192D01*
X166214509Y-45309522D01*
X166165774Y-45319500D01*
X166069606Y-45319500D01*
X166059543Y-45319091D01*
X166043904Y-45317817D01*
X166006833Y-45314799D01*
X166006832Y-45314799D01*
X165928264Y-45325502D01*
X165924936Y-45325910D01*
X165860508Y-45332917D01*
X165846090Y-45334486D01*
X165846089Y-45334486D01*
X165845972Y-45334499D01*
X165823636Y-45339734D01*
X165749105Y-45367114D01*
X165745942Y-45368228D01*
X165670667Y-45393592D01*
X165649978Y-45403507D01*
X165583026Y-45446300D01*
X165580176Y-45448067D01*
X165512169Y-45488986D01*
X165494096Y-45503115D01*
X165437959Y-45559251D01*
X165435556Y-45561589D01*
X165377875Y-45616229D01*
X165363094Y-45634115D01*
X165001848Y-45995361D01*
X164994446Y-46002186D01*
X164954136Y-46036426D01*
X164906160Y-46099535D01*
X164904097Y-46102174D01*
X164854324Y-46164097D01*
X164842236Y-46183586D01*
X164808882Y-46255678D01*
X164807432Y-46258703D01*
X164772146Y-46329852D01*
X164764531Y-46351481D01*
X164747457Y-46429045D01*
X164746691Y-46432311D01*
X164727527Y-46509372D01*
X164724738Y-46532152D01*
X164724738Y-46611535D01*
X164724693Y-46614892D01*
X164722541Y-46694313D01*
X164724738Y-46717412D01*
X164724738Y-49437698D01*
X164710096Y-49496151D01*
X164646423Y-49615273D01*
X164589214Y-49803866D01*
X164569897Y-50000000D01*
X164589214Y-50196133D01*
X164617538Y-50289504D01*
X164621052Y-50346699D01*
X164598476Y-50399367D01*
X164554630Y-50436260D01*
X164498878Y-50449500D01*
X161529738Y-50449500D01*
X161467738Y-50432887D01*
X161422351Y-50387500D01*
X161405738Y-50325500D01*
X161405738Y-49536053D01*
X161412987Y-49494279D01*
X161433885Y-49457388D01*
X161434243Y-49456951D01*
X161441148Y-49448538D01*
X161534052Y-49274727D01*
X161591262Y-49086132D01*
X161610579Y-48890000D01*
X161591262Y-48693868D01*
X161534052Y-48505273D01*
X161441148Y-48331462D01*
X161316121Y-48179117D01*
X161163776Y-48054090D01*
X161141329Y-48042091D01*
X160989964Y-47961185D01*
X160801371Y-47903976D01*
X160605238Y-47884659D01*
X160409104Y-47903976D01*
X160220511Y-47961185D01*
X160046701Y-48054089D01*
X159894355Y-48179117D01*
X159769327Y-48331463D01*
X159676423Y-48505273D01*
X159619214Y-48693866D01*
X159599897Y-48889999D01*
X159619213Y-49086131D01*
X159631380Y-49126238D01*
X159634788Y-49184032D01*
X159611587Y-49237074D01*
X159566834Y-49273802D01*
X159510284Y-49286209D01*
X159454266Y-49271591D01*
X159359964Y-49221185D01*
X159171371Y-49163976D01*
X158975238Y-49144659D01*
X158779104Y-49163976D01*
X158590511Y-49221185D01*
X158416701Y-49314089D01*
X158264355Y-49439117D01*
X158139327Y-49591463D01*
X158046423Y-49765273D01*
X157989214Y-49953866D01*
X157969897Y-50150000D01*
X157989214Y-50346133D01*
X158046423Y-50534726D01*
X158139327Y-50708537D01*
X158146591Y-50717388D01*
X158167489Y-50754279D01*
X158174738Y-50796053D01*
X158174738Y-52065434D01*
X158183255Y-52102756D01*
X158185583Y-52116457D01*
X158189869Y-52154490D01*
X158202510Y-52190618D01*
X158206357Y-52203974D01*
X158214876Y-52241296D01*
X158231488Y-52275791D01*
X158236808Y-52288636D01*
X158249447Y-52324758D01*
X158260008Y-52341565D01*
X158269814Y-52357171D01*
X158276536Y-52369333D01*
X158293146Y-52403824D01*
X158317010Y-52433748D01*
X158325056Y-52445088D01*
X158345422Y-52477500D01*
X159805741Y-53937819D01*
X159835991Y-53987182D01*
X159840533Y-54044898D01*
X159818378Y-54098385D01*
X159774355Y-54135985D01*
X159718060Y-54149500D01*
X158142367Y-54149500D01*
X158091931Y-54138779D01*
X157979802Y-54088855D01*
X157794648Y-54049500D01*
X157794646Y-54049500D01*
X157605354Y-54049500D01*
X157605352Y-54049500D01*
X157420197Y-54088855D01*
X157247269Y-54165848D01*
X157094129Y-54277110D01*
X156967466Y-54417783D01*
X156872820Y-54581715D01*
X156814326Y-54761742D01*
X156794540Y-54949999D01*
X156814326Y-55138257D01*
X156872820Y-55318284D01*
X156967466Y-55482216D01*
X157094129Y-55622889D01*
X157247269Y-55734151D01*
X157420197Y-55811144D01*
X157605352Y-55850500D01*
X157605354Y-55850500D01*
X157794646Y-55850500D01*
X157794648Y-55850500D01*
X157960377Y-55815273D01*
X157979803Y-55811144D01*
X158091930Y-55761221D01*
X158142367Y-55750500D01*
X159423640Y-55750500D01*
X159479392Y-55763740D01*
X159523238Y-55800633D01*
X159545814Y-55853301D01*
X159542300Y-55910496D01*
X159513976Y-56003866D01*
X159494659Y-56199999D01*
X159513976Y-56396133D01*
X159571185Y-56584726D01*
X159664089Y-56758537D01*
X159721353Y-56828313D01*
X159742251Y-56865204D01*
X159749500Y-56906978D01*
X159749500Y-58086294D01*
X159748191Y-58104264D01*
X159744711Y-58128023D01*
X159749028Y-58177369D01*
X159749500Y-58188176D01*
X159749500Y-58193708D01*
X159753098Y-58224496D01*
X159753464Y-58228081D01*
X159760110Y-58304041D01*
X159764329Y-58323071D01*
X159764758Y-58324251D01*
X159764759Y-58324255D01*
X159790413Y-58394742D01*
X159791582Y-58398107D01*
X159815580Y-58470524D01*
X159824075Y-58488072D01*
X159865979Y-58551784D01*
X159867889Y-58554782D01*
X159907288Y-58618656D01*
X159907952Y-58619732D01*
X159920253Y-58634830D01*
X159921168Y-58635693D01*
X159921170Y-58635696D01*
X159975708Y-58687150D01*
X159978295Y-58689663D01*
X160644269Y-59355637D01*
X160656051Y-59369270D01*
X160670389Y-59388529D01*
X160708337Y-59420372D01*
X160716311Y-59427680D01*
X160720221Y-59431590D01*
X160744537Y-59450816D01*
X160747336Y-59453096D01*
X160805752Y-59502113D01*
X160822179Y-59512578D01*
X160891320Y-59544819D01*
X160894567Y-59546391D01*
X160962699Y-59580609D01*
X160981087Y-59587000D01*
X160982323Y-59587255D01*
X160982327Y-59587257D01*
X161055895Y-59602447D01*
X161059242Y-59603189D01*
X161132279Y-59620500D01*
X161132281Y-59620500D01*
X161133509Y-59620791D01*
X161152878Y-59622770D01*
X161154140Y-59622733D01*
X161154144Y-59622734D01*
X161226533Y-59620627D01*
X161229131Y-59620552D01*
X161232737Y-59620500D01*
X166075461Y-59620500D01*
X166129263Y-59632780D01*
X166172408Y-59667187D01*
X166230827Y-59740442D01*
X166278530Y-59782119D01*
X166312643Y-59830889D01*
X166320103Y-59889936D01*
X166299190Y-59945658D01*
X166254723Y-59985217D01*
X166196946Y-59999500D01*
X155124000Y-59999500D01*
X155062000Y-59982887D01*
X155016613Y-59937500D01*
X155000000Y-59875500D01*
X155000000Y-40124500D01*
X155016613Y-40062500D01*
X155062000Y-40017113D01*
X155124000Y-40000500D01*
X166157170Y-40000500D01*
X166212968Y-40013764D01*
G37*
%TD.AperFunction*%
%TD*%
D16*
X154885238Y-60000000D02*
X154885238Y-40000000D01*
X169885238Y-60000000D02*
X169885238Y-40000000D01*
X154885238Y-54825000D02*
X154885238Y-45175000D01*
X154885238Y-40000000D02*
X169885238Y-40000000D01*
X154885238Y-60000000D02*
X169885238Y-60000000D01*
M02*
