M48
; DRILL file {KiCad 7.0.1} date Tue Aug 29 20:31:09 2023
; FORMAT={-:-/ absolute / metric / decimal}
; #@! TF.CreationDate,2023-08-29T20:31:09-03:00
; #@! TF.GenerationSoftware,Kicad,Pcbnew,7.0.1
; #@! TF.FileFunction,Plated,1,2,PTH
FMAT,2
METRIC
; #@! TA.AperFunction,Plated,PTH,ComponentDrill
T1C0.300
; #@! TA.AperFunction,Plated,PTH,ViaDrill
T2C0.400
; #@! TA.AperFunction,Plated,PTH,ComponentDrill
T3C0.400
; #@! TA.AperFunction,Plated,PTH,ComponentDrill
T4C0.650
; #@! TA.AperFunction,Plated,PTH,ComponentDrill
T5C0.762
; #@! TA.AperFunction,Plated,PTH,ComponentDrill
T6C1.000
; #@! TA.AperFunction,Plated,PTH,ComponentDrill
T7C1.001
; #@! TA.AperFunction,Plated,PTH,ComponentDrill
T8C1.300
; #@! TA.AperFunction,Plated,PTH,ComponentDrill
T9C3.250
%
G90
G05
T1
X141.85Y-102.63
X141.85Y-103.25
X141.85Y-103.85
X141.85Y-104.47
X142.45Y-102.63
X142.45Y-103.25
X142.45Y-103.85
X142.45Y-104.47
X143.05Y-102.61
X143.05Y-103.23
X143.05Y-103.83
X143.05Y-104.45
X143.65Y-102.63
X143.65Y-103.25
X143.65Y-103.85
X143.65Y-104.47
X146.95Y-102.63
X146.95Y-103.25
X146.95Y-103.85
X146.95Y-104.47
X147.55Y-102.63
X147.55Y-103.25
X147.55Y-103.85
X147.55Y-104.47
X148.15Y-102.63
X148.15Y-103.25
X148.15Y-103.85
X148.15Y-104.47
X148.75Y-102.63
X148.75Y-103.25
X148.75Y-103.85
X148.75Y-104.47
X159.26Y-103.17
X159.26Y-103.79
X159.26Y-104.39
X159.26Y-105.01
X159.86Y-103.17
X159.86Y-103.79
X159.86Y-104.39
X159.86Y-105.01
X160.46Y-103.15
X160.46Y-103.77
X160.46Y-104.37
X160.46Y-104.99
X161.06Y-103.17
X161.06Y-103.79
X161.06Y-104.39
X161.06Y-105.01
X164.36Y-103.25
X164.36Y-103.87
X164.36Y-104.47
X164.36Y-105.09
X164.96Y-103.25
X164.96Y-103.87
X164.96Y-104.47
X164.96Y-105.09
X165.56Y-103.25
X165.56Y-103.87
X165.56Y-104.47
X165.56Y-105.09
X166.16Y-103.25
X166.16Y-103.87
X166.16Y-104.47
X166.16Y-105.07
X169.47Y-103.87
X169.47Y-105.14
X169.49Y-103.27
X169.49Y-104.54
X170.04Y-103.87
X170.04Y-105.14
X170.06Y-103.27
X170.06Y-104.54
X170.67Y-103.87
X170.67Y-105.14
X170.69Y-103.27
X170.69Y-104.54
X171.27Y-103.87
X171.27Y-105.14
X171.29Y-103.27
X171.29Y-104.54
X181.43Y-102.69
X181.43Y-103.31
X181.43Y-103.91
X181.43Y-104.53
X182.03Y-102.69
X182.03Y-103.31
X182.03Y-103.91
X182.03Y-104.53
X182.63Y-102.67
X182.63Y-103.29
X182.63Y-103.89
X182.63Y-104.51
X183.23Y-102.69
X183.23Y-103.31
X183.23Y-103.91
X183.23Y-104.53
X186.53Y-102.69
X186.53Y-103.31
X186.53Y-103.91
X186.53Y-104.53
X187.13Y-102.69
X187.13Y-103.31
X187.13Y-103.91
X187.13Y-104.53
X187.73Y-102.69
X187.73Y-103.31
X187.73Y-103.91
X187.73Y-104.53
X188.33Y-102.69
X188.33Y-103.31
X188.33Y-103.91
X188.33Y-104.53
T2
X141.26Y-96.88
X155.6Y-68.8
X155.6Y-72.5
X160.0Y-90.75
X167.0Y-86.6
X168.2Y-84.8
X176.385Y-73.985
X176.4Y-63.7
X176.4Y-70.0
X176.4Y-71.25
X176.4Y-75.1
X180.6Y-97.8
T3
X143.475Y-92.3
X143.475Y-93.0
X143.475Y-93.7
X143.475Y-94.4
X144.175Y-92.3
X144.175Y-93.0
X144.175Y-93.7
X144.175Y-94.4
X144.875Y-92.3
X144.875Y-93.0
X144.875Y-93.7
X144.875Y-94.4
X145.575Y-92.3
X145.575Y-93.0
X145.575Y-93.7
X145.575Y-94.4
X146.275Y-92.3
X146.275Y-93.0
X146.275Y-93.7
X146.275Y-94.4
X146.975Y-92.3
X146.975Y-93.0
X146.975Y-93.7
X146.975Y-94.4
X161.31Y-92.54
X161.31Y-93.24
X161.31Y-93.94
X161.31Y-94.64
X162.01Y-92.54
X162.01Y-93.24
X162.01Y-93.94
X162.01Y-94.64
X162.71Y-92.54
X162.71Y-93.24
X162.71Y-93.94
X162.71Y-94.64
X163.41Y-92.54
X163.41Y-93.24
X163.41Y-93.94
X163.41Y-94.64
X164.11Y-92.54
X164.11Y-93.24
X164.11Y-93.94
X164.11Y-94.64
X164.81Y-92.54
X164.81Y-93.24
X164.81Y-93.94
X164.81Y-94.64
T4
X153.1Y-90.6
X153.1Y-92.6
T5
X169.6Y-91.3
X169.6Y-95.3
X182.8Y-90.9
X182.8Y-94.9
T6
X144.06Y-71.4
X144.06Y-74.6
X144.06Y-77.8
X144.06Y-81.0
X144.06Y-84.2
X146.6Y-71.4
X146.6Y-74.6
X146.6Y-77.8
X146.6Y-81.0
X146.6Y-84.2
X149.14Y-71.4
X149.14Y-74.6
X149.14Y-77.8
X149.14Y-81.0
X149.14Y-84.2
X182.96Y-65.75
X182.96Y-69.0
X183.035Y-62.5
X185.5Y-65.75
X185.5Y-69.0
X185.575Y-62.5
X188.04Y-65.75
X188.04Y-69.0
X188.115Y-62.5
T7
X180.39Y-85.4
X180.42Y-80.0
X180.44Y-74.5
X182.93Y-85.4
X182.96Y-80.0
X182.98Y-74.5
X185.47Y-85.4
X185.5Y-80.0
X185.52Y-74.5
X188.01Y-85.4
X188.04Y-80.0
X188.06Y-74.5
T8
X142.71Y-106.25
X147.79Y-106.25
X160.18Y-106.27
X165.26Y-106.27
X170.34Y-106.27
X182.29Y-106.31
X187.37Y-106.31
T9
X143.4Y-63.3
X152.85Y-97.31
X186.79Y-97.19
T0
M30
