M48
; DRILL file {KiCad 7.0.1} date Wed Aug 30 01:06:17 2023
; FORMAT={-:-/ absolute / inch / decimal}
; #@! TF.CreationDate,2023-08-30T01:06:17-03:00
; #@! TF.GenerationSoftware,Kicad,Pcbnew,7.0.1
; #@! TF.FileFunction,Plated,1,2,PTH
FMAT,2
INCH
; #@! TA.AperFunction,Plated,PTH,ComponentDrill
T1C0.0118
; #@! TA.AperFunction,Plated,PTH,ViaDrill
T2C0.0157
; #@! TA.AperFunction,Plated,PTH,ComponentDrill
T3C0.0157
; #@! TA.AperFunction,Plated,PTH,ComponentDrill
T4C0.0256
; #@! TA.AperFunction,Plated,PTH,ComponentDrill
T5C0.0300
; #@! TA.AperFunction,Plated,PTH,ComponentDrill
T6C0.0394
; #@! TA.AperFunction,Plated,PTH,ComponentDrill
T7C0.0394
; #@! TA.AperFunction,Plated,PTH,ComponentDrill
T8C0.0512
; #@! TA.AperFunction,Plated,PTH,ComponentDrill
T9C0.1280
%
G90
G05
T1
X5.5807Y-4.0406
X5.5807Y-4.065
X5.5807Y-4.0886
X5.5807Y-4.113
X5.6043Y-4.0406
X5.6043Y-4.065
X5.6043Y-4.0886
X5.6043Y-4.113
X5.628Y-4.0398
X5.628Y-4.0642
X5.628Y-4.0878
X5.628Y-4.1122
X5.6516Y-4.0406
X5.6516Y-4.065
X5.6516Y-4.0886
X5.6516Y-4.113
X5.7815Y-4.0406
X5.7815Y-4.065
X5.7815Y-4.0886
X5.7815Y-4.113
X5.8051Y-4.0406
X5.8051Y-4.065
X5.8051Y-4.0886
X5.8051Y-4.113
X5.8287Y-4.0406
X5.8287Y-4.065
X5.8287Y-4.0886
X5.8287Y-4.113
X5.8524Y-4.0406
X5.8524Y-4.065
X5.8524Y-4.0886
X5.8524Y-4.113
X6.2701Y-4.0618
X6.2701Y-4.0862
X6.2701Y-4.1098
X6.2701Y-4.1343
X6.2937Y-4.0618
X6.2937Y-4.0862
X6.2937Y-4.1098
X6.2937Y-4.1343
X6.3173Y-4.061
X6.3173Y-4.0854
X6.3173Y-4.1091
X6.3173Y-4.1335
X6.3409Y-4.0618
X6.3409Y-4.0862
X6.3409Y-4.1098
X6.3409Y-4.1343
X6.4709Y-4.065
X6.4709Y-4.0894
X6.4709Y-4.113
X6.4709Y-4.1374
X6.4945Y-4.065
X6.4945Y-4.0894
X6.4945Y-4.113
X6.4945Y-4.1374
X6.5181Y-4.065
X6.5181Y-4.0894
X6.5181Y-4.113
X6.5181Y-4.1374
X6.5417Y-4.065
X6.5417Y-4.0894
X6.5417Y-4.113
X6.5417Y-4.1366
X6.672Y-4.0894
X6.672Y-4.1394
X6.6728Y-4.0657
X6.6728Y-4.1157
X6.6945Y-4.0894
X6.6945Y-4.1394
X6.6953Y-4.0657
X6.6953Y-4.1157
X6.7193Y-4.0894
X6.7193Y-4.1394
X6.7201Y-4.0657
X6.7201Y-4.1157
X6.7429Y-4.0894
X6.7429Y-4.1394
X6.7437Y-4.0657
X6.7437Y-4.1157
X7.1457Y-4.0504
X7.1457Y-4.0748
X7.1457Y-4.0984
X7.1457Y-4.1228
X7.1693Y-4.0504
X7.1693Y-4.0748
X7.1693Y-4.0984
X7.1693Y-4.1228
X7.1929Y-4.0496
X7.1929Y-4.074
X7.1929Y-4.0976
X7.1929Y-4.122
X7.2165Y-4.0504
X7.2165Y-4.0748
X7.2165Y-4.0984
X7.2165Y-4.1228
X7.3465Y-4.0504
X7.3465Y-4.0748
X7.3465Y-4.0984
X7.3465Y-4.1228
X7.3701Y-4.0504
X7.3701Y-4.0748
X7.3701Y-4.0984
X7.3701Y-4.1228
X7.3937Y-4.0504
X7.3937Y-4.0748
X7.3937Y-4.0984
X7.3937Y-4.1228
X7.4173Y-4.0504
X7.4173Y-4.0748
X7.4173Y-4.0984
X7.4173Y-4.1228
T2
X5.5614Y-3.8142
X6.126Y-2.7087
X6.126Y-2.8543
X6.2992Y-3.5728
X6.5748Y-3.4094
X6.622Y-3.3386
X6.9443Y-2.9128
X6.9449Y-2.5079
X6.9449Y-2.7559
X6.9449Y-2.8051
X6.9449Y-2.9567
X7.1102Y-3.8504
T3
X5.6486Y-3.6339
X5.6486Y-3.6614
X5.6486Y-3.689
X5.6486Y-3.7165
X5.6762Y-3.6339
X5.6762Y-3.6614
X5.6762Y-3.689
X5.6762Y-3.7165
X5.7037Y-3.6339
X5.7037Y-3.6614
X5.7037Y-3.689
X5.7037Y-3.7165
X5.7313Y-3.6339
X5.7313Y-3.6614
X5.7313Y-3.689
X5.7313Y-3.7165
X5.7589Y-3.6339
X5.7589Y-3.6614
X5.7589Y-3.689
X5.7589Y-3.7165
X5.7864Y-3.6339
X5.7864Y-3.6614
X5.7864Y-3.689
X5.7864Y-3.7165
X6.3508Y-3.6433
X6.3508Y-3.6709
X6.3508Y-3.6984
X6.3508Y-3.726
X6.3783Y-3.6433
X6.3783Y-3.6709
X6.3783Y-3.6984
X6.3783Y-3.726
X6.4059Y-3.6433
X6.4059Y-3.6709
X6.4059Y-3.6984
X6.4059Y-3.726
X6.4335Y-3.6433
X6.4335Y-3.6709
X6.4335Y-3.6984
X6.4335Y-3.726
X6.461Y-3.6433
X6.461Y-3.6709
X6.461Y-3.6984
X6.461Y-3.726
X6.4886Y-3.6433
X6.4886Y-3.6709
X6.4886Y-3.6984
X6.4886Y-3.726
T4
X6.0276Y-3.5669
X6.0276Y-3.6457
T5
X6.6772Y-3.5945
X6.6772Y-3.752
X7.1969Y-3.5787
X7.1969Y-3.7362
T6
X5.6717Y-2.811
X5.6717Y-2.937
X5.6717Y-3.063
X5.6717Y-3.189
X5.6717Y-3.315
X5.7717Y-2.811
X5.7717Y-2.937
X5.7717Y-3.063
X5.7717Y-3.189
X5.7717Y-3.315
X5.8717Y-2.811
X5.8717Y-2.937
X5.8717Y-3.063
X5.8717Y-3.189
X5.8717Y-3.315
X7.2031Y-2.5886
X7.2031Y-2.7165
X7.2061Y-2.4606
X7.3031Y-2.5886
X7.3031Y-2.7165
X7.3061Y-2.4606
X7.4031Y-2.5886
X7.4031Y-2.7165
X7.4061Y-2.4606
T7
X7.102Y-3.3622
X7.1031Y-3.1496
X7.1039Y-2.9331
X7.202Y-3.3622
X7.2031Y-3.1496
X7.2039Y-2.9331
X7.302Y-3.3622
X7.3031Y-3.1496
X7.3039Y-2.9331
X7.402Y-3.3622
X7.4031Y-3.1496
X7.4039Y-2.9331
T8
X5.6146Y-4.1831
X5.8146Y-4.1831
X6.3063Y-4.1839
X6.5063Y-4.1839
X6.7063Y-4.1839
X7.1795Y-4.1929
X7.3795Y-4.1929
T9
X5.6457Y-2.4921
X6.0177Y-3.8311
X7.3539Y-3.8264
T0
M30
