%TF.GenerationSoftware,KiCad,Pcbnew,7.0.1*%
%TF.CreationDate,2023-08-29T20:30:57-03:00*%
%TF.ProjectId,Wakanda_MultiRobot,57616b61-6e64-4615-9f4d-756c7469526f,rev?*%
%TF.SameCoordinates,Original*%
%TF.FileFunction,Copper,L2,Bot*%
%TF.FilePolarity,Positive*%
%FSLAX46Y46*%
G04 Gerber Fmt 4.6, Leading zero omitted, Abs format (unit mm)*
G04 Created by KiCad (PCBNEW 7.0.1) date 2023-08-29 20:30:57*
%MOMM*%
%LPD*%
G01*
G04 APERTURE LIST*
%TA.AperFunction,ComponentPad*%
%ADD10C,0.700000*%
%TD*%
%TA.AperFunction,ComponentPad*%
%ADD11R,3.000000X5.500000*%
%TD*%
%TA.AperFunction,ComponentPad*%
%ADD12R,3.100000X5.500000*%
%TD*%
%TA.AperFunction,ComponentPad*%
%ADD13R,1.750000X2.200000*%
%TD*%
%TA.AperFunction,ComponentPad*%
%ADD14O,1.750000X2.200000*%
%TD*%
%TA.AperFunction,ComponentPad*%
%ADD15R,2.000000X2.000000*%
%TD*%
%TA.AperFunction,ComponentPad*%
%ADD16O,2.000000X2.000000*%
%TD*%
%TA.AperFunction,ComponentPad*%
%ADD17C,1.524000*%
%TD*%
%TA.AperFunction,ComponentPad*%
%ADD18C,3.250000*%
%TD*%
%TA.AperFunction,ComponentPad*%
%ADD19R,1.524000X1.524000*%
%TD*%
%TA.AperFunction,ComponentPad*%
%ADD20R,3.500000X7.000000*%
%TD*%
%TA.AperFunction,ViaPad*%
%ADD21C,0.800000*%
%TD*%
%TA.AperFunction,Conductor*%
%ADD22C,1.000000*%
%TD*%
%TA.AperFunction,Conductor*%
%ADD23C,0.700000*%
%TD*%
%TA.AperFunction,Conductor*%
%ADD24C,0.600000*%
%TD*%
G04 APERTURE END LIST*
D10*
%TO.P,J1,1*%
%TO.N,Vin*%
X159260000Y-103170000D03*
X159260000Y-103790000D03*
X159260000Y-104390000D03*
X159260000Y-105010000D03*
X159860000Y-103170000D03*
X159860000Y-103790000D03*
X159860000Y-104390000D03*
X159860000Y-105010000D03*
D11*
X160180000Y-105520000D03*
D10*
X160460000Y-103150000D03*
X160460000Y-103770000D03*
X160460000Y-104370000D03*
X160460000Y-104990000D03*
X161060000Y-103170000D03*
X161060000Y-103790000D03*
X161060000Y-104390000D03*
X161060000Y-105010000D03*
%TO.P,J1,2*%
%TO.N,GND*%
X164360000Y-103250000D03*
X164360000Y-103870000D03*
X164360000Y-104470000D03*
X164360000Y-105090000D03*
X164960000Y-103250000D03*
X164960000Y-103870000D03*
X164960000Y-104470000D03*
X164960000Y-105090000D03*
D12*
X165310000Y-105570000D03*
D10*
X165560000Y-103250000D03*
X165560000Y-103870000D03*
X165560000Y-104470000D03*
X165560000Y-105090000D03*
X166160000Y-103250000D03*
X166160000Y-103870000D03*
X166160000Y-104470000D03*
X166160000Y-105070000D03*
%TO.P,J1,3*%
%TO.N,+5V*%
X169470000Y-103870000D03*
X169470000Y-105140000D03*
X169490000Y-103270000D03*
X169490000Y-104540000D03*
X170040000Y-103870000D03*
X170040000Y-105140000D03*
X170060000Y-103270000D03*
X170060000Y-104540000D03*
D11*
X170250000Y-105570000D03*
D10*
X170670000Y-103870000D03*
X170670000Y-105140000D03*
X170690000Y-103270000D03*
X170690000Y-104540000D03*
X171270000Y-103870000D03*
X171270000Y-105140000D03*
X171290000Y-103270000D03*
X171290000Y-104540000D03*
%TD*%
D13*
%TO.P,J9,1*%
%TO.N,/RXD*%
X180440000Y-74500000D03*
D14*
%TO.P,J9,2*%
%TO.N,/TXD*%
X182980000Y-74500000D03*
%TO.P,J9,3*%
%TO.N,+5V*%
X185520000Y-74500000D03*
%TO.P,J9,4*%
%TO.N,GND*%
X188060000Y-74500000D03*
%TD*%
D15*
%TO.P,J4,1,P1*%
%TO.N,GND*%
X144060000Y-71400000D03*
D16*
%TO.P,J4,2,P2*%
%TO.N,+5V*%
X146600000Y-71400000D03*
%TO.P,J4,3,P3*%
%TO.N,/SENSOR5*%
X149140000Y-71400000D03*
%TD*%
D17*
%TO.P,C10,1*%
%TO.N,+5V*%
X182800000Y-94900000D03*
%TO.P,C10,2*%
%TO.N,GND*%
X182800000Y-90900000D03*
%TD*%
D15*
%TO.P,J2,1,P1*%
%TO.N,+5V*%
X144060000Y-84200000D03*
D16*
%TO.P,J2,2,P2*%
%TO.N,GND*%
X146600000Y-84200000D03*
%TO.P,J2,3,P3*%
%TO.N,/SENSOR2*%
X149140000Y-84200000D03*
%TD*%
D17*
%TO.P,C9,1*%
%TO.N,+3V3*%
X169600000Y-95300000D03*
%TO.P,C9,2*%
%TO.N,GND*%
X169600000Y-91300000D03*
%TD*%
D15*
%TO.P,J3,1,P1*%
%TO.N,+5V*%
X144060000Y-81000000D03*
D16*
%TO.P,J3,2,P2*%
%TO.N,GND*%
X146600000Y-81000000D03*
%TO.P,J3,3,P3*%
%TO.N,/SENSOR1*%
X149140000Y-81000000D03*
%TD*%
D10*
%TO.P,U3,1,GND*%
%TO.N,GND*%
X164810000Y-94640000D03*
X164810000Y-93940000D03*
X164810000Y-93240000D03*
X164810000Y-92540000D03*
X164110000Y-94640000D03*
X164110000Y-93940000D03*
X164110000Y-93240000D03*
X164110000Y-92540000D03*
X163410000Y-94640000D03*
X163410000Y-93940000D03*
X163410000Y-93240000D03*
X163410000Y-92540000D03*
X162710000Y-94640000D03*
X162710000Y-93940000D03*
X162710000Y-93240000D03*
X162710000Y-92540000D03*
X162010000Y-94640000D03*
X162010000Y-93940000D03*
X162010000Y-93240000D03*
X162010000Y-92540000D03*
X161310000Y-94640000D03*
X161310000Y-93940000D03*
X161310000Y-93240000D03*
X161310000Y-92540000D03*
%TD*%
D18*
%TO.P,P3,1*%
%TO.N,N/C*%
X186790000Y-97190000D03*
%TD*%
D19*
%TO.P,C3,1*%
%TO.N,Vin*%
X153100000Y-92600000D03*
D17*
%TO.P,C3,2*%
%TO.N,GND*%
X153100000Y-90600000D03*
%TD*%
D13*
%TO.P,J10,1,Pin_1*%
%TO.N,/SDA*%
X180420000Y-80000000D03*
D14*
%TO.P,J10,2,Pin_2*%
%TO.N,/SCL*%
X182960000Y-80000000D03*
%TO.P,J10,3,Pin_3*%
%TO.N,+5V*%
X185500000Y-80000000D03*
%TO.P,J10,4,Pin_4*%
%TO.N,GND*%
X188040000Y-80000000D03*
%TD*%
D15*
%TO.P,J7,1,P1*%
%TO.N,GND*%
X188115000Y-62500000D03*
D16*
%TO.P,J7,2,P2*%
%TO.N,+5V*%
X185575000Y-62500000D03*
%TO.P,J7,3,P3*%
%TO.N,/TATAMI_FD*%
X183035000Y-62500000D03*
%TD*%
D13*
%TO.P,J14,1,Pin_1*%
%TO.N,+5V*%
X180390000Y-85400000D03*
D14*
%TO.P,J14,2,Pin_2*%
%TO.N,/GPIO4*%
X182930000Y-85400000D03*
%TO.P,J14,3,Pin_3*%
%TO.N,/GPIO5*%
X185470000Y-85400000D03*
%TO.P,J14,4,Pin_4*%
%TO.N,GND*%
X188010000Y-85400000D03*
%TD*%
D15*
%TO.P,J6,1,P1*%
%TO.N,+5V*%
X188040000Y-69000000D03*
D16*
%TO.P,J6,2,P2*%
%TO.N,GND*%
X185500000Y-69000000D03*
%TO.P,J6,3,P3*%
%TO.N,/SENSOR4*%
X182960000Y-69000000D03*
%TD*%
D10*
%TO.P,U2,1,GND*%
%TO.N,GND*%
X146975000Y-94400000D03*
X146975000Y-93700000D03*
X146975000Y-93000000D03*
X146975000Y-92300000D03*
X146275000Y-94400000D03*
X146275000Y-93700000D03*
X146275000Y-93000000D03*
X146275000Y-92300000D03*
X145575000Y-94400000D03*
X145575000Y-93700000D03*
X145575000Y-93000000D03*
X145575000Y-92300000D03*
X144875000Y-94400000D03*
X144875000Y-93700000D03*
X144875000Y-93000000D03*
X144875000Y-92300000D03*
X144175000Y-94400000D03*
X144175000Y-93700000D03*
X144175000Y-93000000D03*
X144175000Y-92300000D03*
X143475000Y-94400000D03*
X143475000Y-93700000D03*
X143475000Y-93000000D03*
X143475000Y-92300000D03*
%TD*%
D15*
%TO.P,J5,1,P1*%
%TO.N,+5V*%
X188040000Y-65750000D03*
D16*
%TO.P,J5,2,P2*%
%TO.N,GND*%
X185500000Y-65750000D03*
%TO.P,J5,3,P3*%
%TO.N,/SENSOR3*%
X182960000Y-65750000D03*
%TD*%
D10*
%TO.P,J12,1*%
%TO.N,Net-(U3-OUT1)*%
X181430000Y-102690000D03*
X181430000Y-103310000D03*
X181430000Y-103910000D03*
X181430000Y-104530000D03*
X182030000Y-102690000D03*
X182030000Y-103310000D03*
X182030000Y-103910000D03*
X182030000Y-104530000D03*
D20*
X182290000Y-104770000D03*
D10*
X182630000Y-102670000D03*
X182630000Y-103290000D03*
X182630000Y-103890000D03*
X182630000Y-104510000D03*
X183230000Y-102690000D03*
X183230000Y-103310000D03*
X183230000Y-103910000D03*
X183230000Y-104530000D03*
%TO.P,J12,2*%
%TO.N,Net-(U3-OUT2)*%
X186530000Y-102690000D03*
X186530000Y-103310000D03*
X186530000Y-103910000D03*
X186530000Y-104530000D03*
X187130000Y-102690000D03*
X187130000Y-103310000D03*
X187130000Y-103910000D03*
X187130000Y-104530000D03*
D20*
X187370000Y-104770000D03*
D10*
X187730000Y-102690000D03*
X187730000Y-103310000D03*
X187730000Y-103910000D03*
X187730000Y-104530000D03*
X188330000Y-102690000D03*
X188330000Y-103310000D03*
X188330000Y-103910000D03*
X188330000Y-104530000D03*
%TD*%
D18*
%TO.P,P2,1*%
%TO.N,N/C*%
X152850000Y-97310000D03*
%TD*%
D15*
%TO.P,SW1,1,P1*%
%TO.N,GND*%
X144060000Y-74600000D03*
D16*
%TO.P,SW1,2,P2*%
%TO.N,+5V*%
X146600000Y-74600000D03*
%TO.P,SW1,3,P3*%
%TO.N,/START*%
X149140000Y-74600000D03*
%TD*%
D10*
%TO.P,J11,1*%
%TO.N,Net-(U2-OUT1)*%
X141850000Y-102630000D03*
X141850000Y-103250000D03*
X141850000Y-103850000D03*
X141850000Y-104470000D03*
X142450000Y-102630000D03*
X142450000Y-103250000D03*
X142450000Y-103850000D03*
X142450000Y-104470000D03*
D20*
X142710000Y-104710000D03*
D10*
X143050000Y-102610000D03*
X143050000Y-103230000D03*
X143050000Y-103830000D03*
X143050000Y-104450000D03*
X143650000Y-102630000D03*
X143650000Y-103250000D03*
X143650000Y-103850000D03*
X143650000Y-104470000D03*
%TO.P,J11,2*%
%TO.N,Net-(U2-OUT2)*%
X146950000Y-102630000D03*
X146950000Y-103250000D03*
X146950000Y-103850000D03*
X146950000Y-104470000D03*
X147550000Y-102630000D03*
X147550000Y-103250000D03*
X147550000Y-103850000D03*
X147550000Y-104470000D03*
D20*
X147790000Y-104710000D03*
D10*
X148150000Y-102630000D03*
X148150000Y-103250000D03*
X148150000Y-103850000D03*
X148150000Y-104470000D03*
X148750000Y-102630000D03*
X148750000Y-103250000D03*
X148750000Y-103850000D03*
X148750000Y-104470000D03*
%TD*%
D15*
%TO.P,J8,1,P1*%
%TO.N,GND*%
X144060000Y-77800000D03*
D16*
%TO.P,J8,2,P2*%
%TO.N,+5V*%
X146600000Y-77800000D03*
%TO.P,J8,3,P3*%
%TO.N,/TATAMI_FI*%
X149140000Y-77800000D03*
%TD*%
D18*
%TO.P,P4,1*%
%TO.N,N/C*%
X143400000Y-63300000D03*
%TD*%
D21*
%TO.N,Vin*%
X141260000Y-96880000D03*
%TO.N,+5V*%
X160000000Y-90750000D03*
X180600000Y-97800000D03*
%TO.N,/SENSOR2*%
X155600000Y-72500000D03*
%TO.N,/SENSOR3*%
X176400000Y-70000000D03*
%TO.N,/SENSOR4*%
X176400000Y-71250000D03*
%TO.N,/SCL*%
X176400000Y-63700000D03*
%TO.N,/START*%
X155600000Y-68800000D03*
%TO.N,/M_DER_B*%
X176400000Y-75100000D03*
X168200000Y-84800000D03*
%TO.N,/M_DER_A*%
X176385000Y-73985000D03*
X167000000Y-86600000D03*
%TD*%
D22*
%TO.N,GND*%
X146600000Y-84200000D02*
X146600000Y-81000000D01*
%TO.N,Vin*%
X151440000Y-92600000D02*
X153100000Y-92600000D01*
X147160000Y-96880000D02*
X151440000Y-92600000D01*
X141260000Y-96880000D02*
X147160000Y-96880000D01*
D23*
%TO.N,+5V*%
X185500000Y-81720000D02*
X185500000Y-80000000D01*
X184220000Y-83000000D02*
X185500000Y-81720000D01*
X182800000Y-94900000D02*
X181270000Y-94900000D01*
X188040000Y-70470000D02*
X185520000Y-72990000D01*
X144860000Y-88000000D02*
X144000000Y-87140000D01*
X180590000Y-97790000D02*
X180600000Y-97800000D01*
X146190000Y-69150000D02*
X146600000Y-69560000D01*
X188143000Y-68897000D02*
X188040000Y-69000000D01*
X185520000Y-72990000D02*
X185520000Y-74500000D01*
X188040000Y-69000000D02*
X188040000Y-70470000D01*
X169340000Y-97330000D02*
X159680000Y-97330000D01*
X141340000Y-69830000D02*
X142020000Y-69150000D01*
X188040000Y-65750000D02*
X188143000Y-65853000D01*
X180390000Y-83400000D02*
X180790000Y-83000000D01*
X146500000Y-74700000D02*
X146600000Y-74600000D01*
X143960000Y-84100000D02*
X143960000Y-81100000D01*
X170580000Y-98880000D02*
X170580000Y-98570000D01*
X185975000Y-64175000D02*
X187800000Y-64175000D01*
X187800000Y-64175000D02*
X188040000Y-64415000D01*
X144000000Y-84260000D02*
X144060000Y-84200000D01*
X143960000Y-81100000D02*
X144060000Y-81000000D01*
X160000000Y-90750000D02*
X160000000Y-89000000D01*
X146500000Y-77700000D02*
X146500000Y-74700000D01*
X170580000Y-98570000D02*
X169340000Y-97330000D01*
X141340000Y-80250000D02*
X141340000Y-69830000D01*
X158750000Y-96400000D02*
X158750000Y-91200000D01*
X181270000Y-94900000D02*
X180390000Y-94020000D01*
X159000000Y-88000000D02*
X144860000Y-88000000D01*
X144060000Y-81000000D02*
X142090000Y-81000000D01*
X146600000Y-69560000D02*
X146600000Y-71400000D01*
X144060000Y-84200000D02*
X143960000Y-84100000D01*
X180390000Y-85400000D02*
X180390000Y-83400000D01*
X188040000Y-64415000D02*
X188040000Y-65750000D01*
X180790000Y-83000000D02*
X184220000Y-83000000D01*
X185575000Y-62500000D02*
X185575000Y-63775000D01*
X146600000Y-71400000D02*
X146600000Y-74600000D01*
X160000000Y-89000000D02*
X159000000Y-88000000D01*
X142090000Y-81000000D02*
X141340000Y-80250000D01*
X170580000Y-98880000D02*
X171670000Y-97790000D01*
X159200000Y-90750000D02*
X160000000Y-90750000D01*
X142020000Y-69150000D02*
X146190000Y-69150000D01*
X170580000Y-106500000D02*
X170580000Y-98880000D01*
X159680000Y-97330000D02*
X158750000Y-96400000D01*
X185520000Y-74500000D02*
X185500000Y-74520000D01*
X185500000Y-74520000D02*
X185500000Y-80000000D01*
X144000000Y-87140000D02*
X144000000Y-84260000D01*
X158750000Y-91200000D02*
X159200000Y-90750000D01*
X146600000Y-77800000D02*
X146500000Y-77700000D01*
X188143000Y-65853000D02*
X188143000Y-68897000D01*
X171670000Y-97790000D02*
X180590000Y-97790000D01*
X180390000Y-94020000D02*
X180390000Y-85400000D01*
X185575000Y-63775000D02*
X185975000Y-64175000D01*
D24*
%TO.N,/SENSOR2*%
X155600000Y-82300000D02*
X155600000Y-72500000D01*
X149140000Y-84200000D02*
X153700000Y-84200000D01*
X153700000Y-84200000D02*
X155600000Y-82300000D01*
%TO.N,/SENSOR3*%
X178930000Y-65750000D02*
X182960000Y-65750000D01*
X176400000Y-68280000D02*
X178930000Y-65750000D01*
X176400000Y-70000000D02*
X176400000Y-68280000D01*
%TO.N,/SENSOR4*%
X181200000Y-69000000D02*
X182960000Y-69000000D01*
X176400000Y-71250000D02*
X178950000Y-71250000D01*
X178950000Y-71250000D02*
X181200000Y-69000000D01*
%TO.N,/SCL*%
X176400000Y-66500000D02*
X175050000Y-67850000D01*
X177800000Y-74030000D02*
X177800000Y-76600000D01*
X176400000Y-63700000D02*
X176400000Y-66500000D01*
X178600000Y-77400000D02*
X182400000Y-77400000D01*
X182400000Y-77400000D02*
X182960000Y-77960000D01*
X175050000Y-71280000D02*
X177800000Y-74030000D01*
X177800000Y-76600000D02*
X178600000Y-77400000D01*
X175050000Y-67850000D02*
X175050000Y-71280000D01*
X182960000Y-77960000D02*
X182960000Y-80000000D01*
%TO.N,/START*%
X153140000Y-73700000D02*
X152240000Y-74600000D01*
X154500000Y-68800000D02*
X153140000Y-70160000D01*
X152240000Y-74600000D02*
X149140000Y-74600000D01*
X153140000Y-70160000D02*
X153140000Y-73700000D01*
X155600000Y-68800000D02*
X154500000Y-68800000D01*
%TO.N,/M_DER_B*%
X169000000Y-75000000D02*
X168200000Y-75800000D01*
X176300000Y-75000000D02*
X169000000Y-75000000D01*
X168200000Y-75800000D02*
X168200000Y-84800000D01*
X176400000Y-75100000D02*
X176300000Y-75000000D01*
%TO.N,/M_DER_A*%
X176340000Y-73940000D02*
X168230000Y-73940000D01*
X168230000Y-73940000D02*
X168230000Y-73970000D01*
X167000000Y-75200000D02*
X167000000Y-86600000D01*
X168230000Y-73970000D02*
X167000000Y-75200000D01*
X176385000Y-73985000D02*
X176340000Y-73940000D01*
%TD*%
%TA.AperFunction,Conductor*%
%TO.N,GND*%
G36*
X147960890Y-81934620D02*
G01*
X148116784Y-82103967D01*
X148116787Y-82103970D01*
X148120256Y-82107738D01*
X148316491Y-82260474D01*
X148535190Y-82378828D01*
X148770386Y-82459571D01*
X148871443Y-82476434D01*
X148878975Y-82477691D01*
X148941029Y-82507394D01*
X148977699Y-82565602D01*
X148977699Y-82634398D01*
X148941029Y-82692606D01*
X148878975Y-82722309D01*
X148775443Y-82739585D01*
X148775441Y-82739585D01*
X148770386Y-82740429D01*
X148765541Y-82742092D01*
X148765534Y-82742094D01*
X148540037Y-82819507D01*
X148540026Y-82819511D01*
X148535190Y-82821172D01*
X148530693Y-82823605D01*
X148530683Y-82823610D01*
X148321002Y-82937084D01*
X148320995Y-82937088D01*
X148316491Y-82939526D01*
X148312448Y-82942672D01*
X148312440Y-82942678D01*
X148124304Y-83089111D01*
X148120256Y-83092262D01*
X148116793Y-83096023D01*
X148116784Y-83096032D01*
X147960890Y-83265379D01*
X147903401Y-83300717D01*
X147835919Y-83300717D01*
X147778431Y-83265379D01*
X147622879Y-83096405D01*
X147615362Y-83089486D01*
X147427281Y-82943096D01*
X147418723Y-82937504D01*
X147209114Y-82824070D01*
X147199760Y-82819967D01*
X146974343Y-82742582D01*
X146964431Y-82740071D01*
X146857984Y-82722309D01*
X146795931Y-82692606D01*
X146759261Y-82634398D01*
X146759261Y-82565602D01*
X146795931Y-82507394D01*
X146857984Y-82477691D01*
X146964431Y-82459928D01*
X146974343Y-82457417D01*
X147199760Y-82380032D01*
X147209114Y-82375929D01*
X147418723Y-82262495D01*
X147427281Y-82256903D01*
X147615362Y-82110513D01*
X147622872Y-82103600D01*
X147778430Y-81934620D01*
X147835919Y-81899282D01*
X147903401Y-81899282D01*
X147960890Y-81934620D01*
G37*
%TD.AperFunction*%
%TA.AperFunction,Conductor*%
G36*
X145644403Y-82171540D02*
G01*
X145692504Y-82194470D01*
X145772718Y-82256903D01*
X145781276Y-82262495D01*
X145990885Y-82375929D01*
X146000239Y-82380032D01*
X146225656Y-82457417D01*
X146235568Y-82459928D01*
X146342015Y-82477691D01*
X146404068Y-82507394D01*
X146440738Y-82565602D01*
X146440738Y-82634398D01*
X146404068Y-82692606D01*
X146342015Y-82722309D01*
X146235568Y-82740071D01*
X146225656Y-82742582D01*
X146000239Y-82819967D01*
X145990885Y-82824070D01*
X145781276Y-82937504D01*
X145772720Y-82943095D01*
X145692503Y-83005530D01*
X145644403Y-83028459D01*
X145591121Y-83029084D01*
X145542496Y-83007290D01*
X145507508Y-82967101D01*
X145506895Y-82965979D01*
X145503796Y-82957669D01*
X145498480Y-82950568D01*
X145422858Y-82849550D01*
X145417546Y-82842454D01*
X145370606Y-82807315D01*
X145309431Y-82761519D01*
X145309430Y-82761518D01*
X145302331Y-82756204D01*
X145195025Y-82716181D01*
X145145815Y-82682533D01*
X145117995Y-82629808D01*
X145117995Y-82570192D01*
X145145815Y-82517467D01*
X145195026Y-82483818D01*
X145207260Y-82479255D01*
X145302331Y-82443796D01*
X145417546Y-82357546D01*
X145503796Y-82242331D01*
X145506896Y-82234017D01*
X145507507Y-82232900D01*
X145542495Y-82192710D01*
X145591120Y-82170915D01*
X145644403Y-82171540D01*
G37*
%TD.AperFunction*%
%TA.AperFunction,Conductor*%
G36*
X142554239Y-70014624D02*
G01*
X142598620Y-70053780D01*
X142619797Y-70109046D01*
X142612946Y-70167833D01*
X142569112Y-70285358D01*
X142565573Y-70300332D01*
X142560353Y-70348885D01*
X142560000Y-70355482D01*
X142560000Y-71133674D01*
X142563450Y-71146549D01*
X142576326Y-71150000D01*
X144186000Y-71150000D01*
X144248000Y-71166613D01*
X144293387Y-71212000D01*
X144310000Y-71274000D01*
X144310000Y-71526000D01*
X144293387Y-71588000D01*
X144248000Y-71633387D01*
X144186000Y-71650000D01*
X142576326Y-71650000D01*
X142563450Y-71653450D01*
X142560000Y-71666326D01*
X142560000Y-72444518D01*
X142560353Y-72451114D01*
X142565573Y-72499667D01*
X142569111Y-72514641D01*
X142613547Y-72633777D01*
X142621962Y-72649189D01*
X142697498Y-72750092D01*
X142709907Y-72762501D01*
X142810810Y-72838037D01*
X142826220Y-72846451D01*
X142926403Y-72883818D01*
X142975613Y-72917467D01*
X143003433Y-72970193D01*
X143003433Y-73029807D01*
X142975613Y-73082533D01*
X142926403Y-73116182D01*
X142826220Y-73153548D01*
X142810810Y-73161962D01*
X142709907Y-73237498D01*
X142697498Y-73249907D01*
X142621962Y-73350810D01*
X142613547Y-73366222D01*
X142569111Y-73485358D01*
X142565573Y-73500332D01*
X142560353Y-73548885D01*
X142560000Y-73555482D01*
X142560000Y-74333674D01*
X142563450Y-74346549D01*
X142576326Y-74350000D01*
X144186000Y-74350000D01*
X144248000Y-74366613D01*
X144293387Y-74412000D01*
X144310000Y-74474000D01*
X144310000Y-74726000D01*
X144293387Y-74788000D01*
X144248000Y-74833387D01*
X144186000Y-74850000D01*
X142576326Y-74850000D01*
X142563450Y-74853450D01*
X142560000Y-74866326D01*
X142560000Y-75644518D01*
X142560353Y-75651114D01*
X142565573Y-75699667D01*
X142569111Y-75714641D01*
X142613547Y-75833777D01*
X142621962Y-75849189D01*
X142697498Y-75950092D01*
X142709907Y-75962501D01*
X142810810Y-76038037D01*
X142826220Y-76046451D01*
X142926403Y-76083818D01*
X142975613Y-76117467D01*
X143003433Y-76170193D01*
X143003433Y-76229807D01*
X142975613Y-76282533D01*
X142926403Y-76316182D01*
X142826220Y-76353548D01*
X142810810Y-76361962D01*
X142709907Y-76437498D01*
X142697498Y-76449907D01*
X142621962Y-76550810D01*
X142613547Y-76566222D01*
X142569111Y-76685358D01*
X142565573Y-76700332D01*
X142560353Y-76748885D01*
X142560000Y-76755482D01*
X142560000Y-77533674D01*
X142563450Y-77546549D01*
X142576326Y-77550000D01*
X144186000Y-77550000D01*
X144248000Y-77566613D01*
X144293387Y-77612000D01*
X144310000Y-77674000D01*
X144310000Y-77926000D01*
X144293387Y-77988000D01*
X144248000Y-78033387D01*
X144186000Y-78050000D01*
X142576326Y-78050000D01*
X142563450Y-78053450D01*
X142560000Y-78066326D01*
X142560000Y-78844518D01*
X142560353Y-78851114D01*
X142565573Y-78899667D01*
X142569111Y-78914641D01*
X142613547Y-79033777D01*
X142621962Y-79049189D01*
X142697498Y-79150092D01*
X142709907Y-79162501D01*
X142810810Y-79238037D01*
X142826222Y-79246452D01*
X142925688Y-79283551D01*
X142974898Y-79317200D01*
X143002719Y-79369925D01*
X143002719Y-79429540D01*
X142974899Y-79482266D01*
X142925689Y-79515915D01*
X142848162Y-79544830D01*
X142817669Y-79556204D01*
X142810572Y-79561516D01*
X142810568Y-79561519D01*
X142709550Y-79637141D01*
X142709546Y-79637144D01*
X142702454Y-79642454D01*
X142697144Y-79649546D01*
X142697141Y-79649550D01*
X142621519Y-79750568D01*
X142621518Y-79750570D01*
X142616204Y-79757669D01*
X142613104Y-79765978D01*
X142613104Y-79765980D01*
X142568620Y-79885247D01*
X142568619Y-79885250D01*
X142565909Y-79892517D01*
X142565079Y-79900227D01*
X142565079Y-79900232D01*
X142559855Y-79948819D01*
X142559854Y-79948831D01*
X142559500Y-79952127D01*
X142559500Y-79955449D01*
X142559500Y-79967350D01*
X142545985Y-80023645D01*
X142508385Y-80067668D01*
X142454898Y-80089823D01*
X142397182Y-80085281D01*
X142347821Y-80055033D01*
X142226816Y-79934027D01*
X142199939Y-79893802D01*
X142190500Y-79846349D01*
X142190500Y-70233651D01*
X142199939Y-70186198D01*
X142226819Y-70145970D01*
X142335970Y-70036819D01*
X142376198Y-70009939D01*
X142423651Y-70000500D01*
X142496764Y-70000500D01*
X142554239Y-70014624D01*
G37*
%TD.AperFunction*%
%TA.AperFunction,Conductor*%
G36*
X185688000Y-65516613D02*
G01*
X185733387Y-65562000D01*
X185750000Y-65624000D01*
X185750000Y-67215516D01*
X185752363Y-67226233D01*
X185763320Y-67226800D01*
X185864432Y-67209927D01*
X185874341Y-67207418D01*
X186099760Y-67130032D01*
X186109114Y-67125929D01*
X186318723Y-67012495D01*
X186327280Y-67006904D01*
X186407495Y-66944470D01*
X186455595Y-66921540D01*
X186508877Y-66920914D01*
X186557502Y-66942708D01*
X186592491Y-66982897D01*
X186593104Y-66984019D01*
X186596204Y-66992331D01*
X186601518Y-66999430D01*
X186601519Y-66999431D01*
X186607425Y-67007321D01*
X186682454Y-67107546D01*
X186797669Y-67193796D01*
X186932517Y-67244091D01*
X186992127Y-67250500D01*
X187168500Y-67250500D01*
X187230500Y-67267113D01*
X187275887Y-67312500D01*
X187292500Y-67374500D01*
X187292500Y-67375501D01*
X187275887Y-67437501D01*
X187230500Y-67482888D01*
X187168500Y-67499501D01*
X186992128Y-67499501D01*
X186988850Y-67499853D01*
X186988838Y-67499854D01*
X186940231Y-67505079D01*
X186940225Y-67505080D01*
X186932517Y-67505909D01*
X186925252Y-67508618D01*
X186925246Y-67508620D01*
X186805980Y-67553104D01*
X186805978Y-67553104D01*
X186797669Y-67556204D01*
X186790572Y-67561516D01*
X186790568Y-67561519D01*
X186689550Y-67637141D01*
X186689546Y-67637144D01*
X186682454Y-67642454D01*
X186677144Y-67649546D01*
X186677141Y-67649550D01*
X186601518Y-67750569D01*
X186601515Y-67750574D01*
X186596204Y-67757669D01*
X186593105Y-67765977D01*
X186592490Y-67767104D01*
X186557500Y-67807292D01*
X186508876Y-67829085D01*
X186455595Y-67828459D01*
X186407496Y-67805529D01*
X186327287Y-67743100D01*
X186318723Y-67737504D01*
X186109114Y-67624070D01*
X186099760Y-67619967D01*
X185874341Y-67542581D01*
X185864432Y-67540072D01*
X185763320Y-67523199D01*
X185752363Y-67523766D01*
X185750000Y-67534484D01*
X185750000Y-70465516D01*
X185752363Y-70476233D01*
X185763320Y-70476800D01*
X185864432Y-70459927D01*
X185874341Y-70457418D01*
X186099760Y-70380032D01*
X186109114Y-70375929D01*
X186318723Y-70262495D01*
X186327280Y-70256904D01*
X186407495Y-70194470D01*
X186455595Y-70171540D01*
X186508877Y-70170914D01*
X186557502Y-70192708D01*
X186592491Y-70232897D01*
X186593104Y-70234019D01*
X186596204Y-70242331D01*
X186601518Y-70249430D01*
X186601519Y-70249431D01*
X186639623Y-70300332D01*
X186682454Y-70357546D01*
X186720710Y-70386184D01*
X186755230Y-70426023D01*
X186770082Y-70476604D01*
X186762580Y-70528783D01*
X186734079Y-70573131D01*
X184946610Y-72360599D01*
X184939207Y-72367424D01*
X184904023Y-72397310D01*
X184904016Y-72397317D01*
X184898900Y-72401663D01*
X184894836Y-72407007D01*
X184894832Y-72407013D01*
X184850923Y-72464772D01*
X184848858Y-72467413D01*
X184803367Y-72524008D01*
X184803361Y-72524016D01*
X184799158Y-72529246D01*
X184796177Y-72535254D01*
X184793557Y-72539354D01*
X184791005Y-72543594D01*
X184786946Y-72548936D01*
X184784128Y-72555026D01*
X184784123Y-72555035D01*
X184753642Y-72620917D01*
X184752194Y-72623939D01*
X184719951Y-72688954D01*
X184719948Y-72688961D01*
X184716964Y-72694979D01*
X184715343Y-72701495D01*
X184713635Y-72706145D01*
X184712086Y-72710739D01*
X184709268Y-72716833D01*
X184707824Y-72723390D01*
X184707820Y-72723404D01*
X184692218Y-72794282D01*
X184691453Y-72797549D01*
X184673936Y-72867986D01*
X184673934Y-72867996D01*
X184672316Y-72874505D01*
X184672133Y-72881214D01*
X184671475Y-72886050D01*
X184670943Y-72890944D01*
X184669500Y-72897503D01*
X184669500Y-72904223D01*
X184669500Y-72976773D01*
X184669455Y-72980130D01*
X184667972Y-73034898D01*
X184667307Y-73059432D01*
X184668574Y-73066039D01*
X184669091Y-73072375D01*
X184669500Y-73082443D01*
X184669500Y-73135125D01*
X184658492Y-73186201D01*
X184627424Y-73228208D01*
X184527312Y-73316317D01*
X184527306Y-73316322D01*
X184523359Y-73319797D01*
X184520055Y-73323888D01*
X184520051Y-73323893D01*
X184379573Y-73497872D01*
X184379568Y-73497878D01*
X184376265Y-73501970D01*
X184373698Y-73506564D01*
X184373696Y-73506568D01*
X184357491Y-73535576D01*
X184314251Y-73580690D01*
X184254500Y-73598988D01*
X184193412Y-73585823D01*
X184146503Y-73544537D01*
X184120840Y-73506568D01*
X184054057Y-73407759D01*
X183892044Y-73238717D01*
X183858910Y-73214211D01*
X183708029Y-73102620D01*
X183708023Y-73102616D01*
X183703792Y-73099487D01*
X183494718Y-72994074D01*
X183489683Y-72992532D01*
X183275871Y-72927052D01*
X183275863Y-72927050D01*
X183270837Y-72925511D01*
X183265616Y-72924842D01*
X183265614Y-72924842D01*
X183043806Y-72896439D01*
X183043805Y-72896438D01*
X183038589Y-72895771D01*
X183033334Y-72895994D01*
X183033329Y-72895994D01*
X182809918Y-72905484D01*
X182809912Y-72905484D01*
X182804655Y-72905708D01*
X182799511Y-72906816D01*
X182799508Y-72906817D01*
X182580919Y-72953927D01*
X182580914Y-72953928D01*
X182575766Y-72955038D01*
X182570881Y-72957000D01*
X182570871Y-72957004D01*
X182363390Y-73040377D01*
X182363385Y-73040379D01*
X182358506Y-73042340D01*
X182354030Y-73045095D01*
X182354026Y-73045098D01*
X182163602Y-73162346D01*
X182163590Y-73162354D01*
X182159125Y-73165104D01*
X182155181Y-73168574D01*
X182155173Y-73168581D01*
X181994994Y-73309555D01*
X181942285Y-73336981D01*
X181882868Y-73336736D01*
X181830386Y-73308879D01*
X181796889Y-73259803D01*
X181793198Y-73249907D01*
X181758796Y-73157669D01*
X181672546Y-73042454D01*
X181662452Y-73034898D01*
X181564431Y-72961519D01*
X181564430Y-72961518D01*
X181557331Y-72956204D01*
X181481227Y-72927819D01*
X181429752Y-72908620D01*
X181429750Y-72908619D01*
X181422483Y-72905909D01*
X181414770Y-72905079D01*
X181414767Y-72905079D01*
X181366180Y-72899855D01*
X181366169Y-72899854D01*
X181362873Y-72899500D01*
X181359550Y-72899500D01*
X179520439Y-72899500D01*
X179520420Y-72899500D01*
X179517128Y-72899501D01*
X179513850Y-72899853D01*
X179513838Y-72899854D01*
X179465231Y-72905079D01*
X179465225Y-72905080D01*
X179457517Y-72905909D01*
X179450252Y-72908618D01*
X179450246Y-72908620D01*
X179330980Y-72953104D01*
X179330978Y-72953104D01*
X179322669Y-72956204D01*
X179315572Y-72961516D01*
X179315568Y-72961519D01*
X179214550Y-73037141D01*
X179214546Y-73037144D01*
X179207454Y-73042454D01*
X179202144Y-73049546D01*
X179202141Y-73049550D01*
X179126519Y-73150568D01*
X179126516Y-73150572D01*
X179121204Y-73157669D01*
X179118104Y-73165978D01*
X179118104Y-73165980D01*
X179073620Y-73285247D01*
X179073619Y-73285250D01*
X179070909Y-73292517D01*
X179070079Y-73300227D01*
X179070079Y-73300232D01*
X179064855Y-73348819D01*
X179064854Y-73348831D01*
X179064500Y-73352127D01*
X179064500Y-73355448D01*
X179064500Y-73355449D01*
X179064500Y-75644560D01*
X179064500Y-75644578D01*
X179064501Y-75647872D01*
X179064853Y-75651150D01*
X179064854Y-75651161D01*
X179070079Y-75699768D01*
X179070080Y-75699773D01*
X179070909Y-75707483D01*
X179073619Y-75714749D01*
X179073620Y-75714753D01*
X179092003Y-75764039D01*
X179121204Y-75842331D01*
X179126518Y-75849430D01*
X179126519Y-75849431D01*
X179166216Y-75902460D01*
X179207454Y-75957546D01*
X179322669Y-76043796D01*
X179457517Y-76094091D01*
X179517127Y-76100500D01*
X181362872Y-76100499D01*
X181422483Y-76094091D01*
X181557331Y-76043796D01*
X181672546Y-75957546D01*
X181758796Y-75842331D01*
X181798136Y-75736852D01*
X181833613Y-75686044D01*
X181889247Y-75658747D01*
X181951143Y-75661780D01*
X182003840Y-75694385D01*
X182067956Y-75761283D01*
X182120981Y-75800500D01*
X182251970Y-75897379D01*
X182251973Y-75897380D01*
X182256208Y-75900513D01*
X182465282Y-76005926D01*
X182689163Y-76074489D01*
X182921411Y-76104229D01*
X183155345Y-76094292D01*
X183384234Y-76044962D01*
X183601494Y-75957660D01*
X183800875Y-75834896D01*
X183976641Y-75680203D01*
X184123735Y-75498030D01*
X184142507Y-75464425D01*
X184185745Y-75419310D01*
X184245497Y-75401011D01*
X184306585Y-75414176D01*
X184353496Y-75455462D01*
X184397449Y-75520492D01*
X184445943Y-75592241D01*
X184449589Y-75596045D01*
X184535845Y-75686044D01*
X184607956Y-75761283D01*
X184608519Y-75761700D01*
X184638493Y-75802228D01*
X184649500Y-75853303D01*
X184649500Y-78635125D01*
X184638492Y-78686201D01*
X184607424Y-78728208D01*
X184507312Y-78816317D01*
X184507306Y-78816322D01*
X184503359Y-78819797D01*
X184500055Y-78823888D01*
X184500051Y-78823893D01*
X184359573Y-78997872D01*
X184359568Y-78997878D01*
X184356265Y-79001970D01*
X184353698Y-79006564D01*
X184353696Y-79006568D01*
X184337491Y-79035576D01*
X184294251Y-79080690D01*
X184234500Y-79098988D01*
X184173412Y-79085823D01*
X184126503Y-79044537D01*
X184100840Y-79006568D01*
X184034057Y-78907759D01*
X183872044Y-78738717D01*
X183810764Y-78693394D01*
X183773777Y-78649525D01*
X183760500Y-78593700D01*
X183760500Y-77876768D01*
X183760500Y-77869806D01*
X183751981Y-77832484D01*
X183749653Y-77818777D01*
X183747537Y-77800000D01*
X183745368Y-77780745D01*
X183743069Y-77774175D01*
X183743068Y-77774170D01*
X183732725Y-77744613D01*
X183728879Y-77731266D01*
X183720360Y-77693939D01*
X183717340Y-77687667D01*
X183717338Y-77687662D01*
X183703748Y-77659443D01*
X183698433Y-77646613D01*
X183685789Y-77610478D01*
X183665424Y-77578068D01*
X183658699Y-77565898D01*
X183645114Y-77537690D01*
X183642092Y-77531414D01*
X183618229Y-77501491D01*
X183610182Y-77490150D01*
X183593520Y-77463633D01*
X183593519Y-77463632D01*
X183589816Y-77457738D01*
X183462262Y-77330184D01*
X182934255Y-76802177D01*
X182934252Y-76802173D01*
X182907181Y-76775103D01*
X182902262Y-76770184D01*
X182869851Y-76749818D01*
X182858509Y-76741771D01*
X182857816Y-76741218D01*
X182828587Y-76717909D01*
X182822318Y-76714890D01*
X182822315Y-76714888D01*
X182794093Y-76701296D01*
X182781927Y-76694572D01*
X182755414Y-76677913D01*
X182755412Y-76677912D01*
X182749522Y-76674211D01*
X182713393Y-76661568D01*
X182700554Y-76656250D01*
X182672336Y-76642661D01*
X182672329Y-76642658D01*
X182666061Y-76639640D01*
X182659276Y-76638091D01*
X182659267Y-76638088D01*
X182628735Y-76631119D01*
X182615382Y-76627273D01*
X182579255Y-76614632D01*
X182572338Y-76613852D01*
X182572336Y-76613852D01*
X182541218Y-76610345D01*
X182527518Y-76608017D01*
X182496988Y-76601050D01*
X182496983Y-76601049D01*
X182490194Y-76599500D01*
X182483228Y-76599500D01*
X178982940Y-76599500D01*
X178935487Y-76590061D01*
X178895259Y-76563181D01*
X178636819Y-76304741D01*
X178609939Y-76264513D01*
X178600500Y-76217060D01*
X178600500Y-73946766D01*
X178600500Y-73939805D01*
X178591980Y-73902481D01*
X178589655Y-73888800D01*
X178585368Y-73850745D01*
X178572724Y-73814610D01*
X178568875Y-73801249D01*
X178567901Y-73796981D01*
X178560359Y-73763939D01*
X178543750Y-73729450D01*
X178538433Y-73716613D01*
X178528088Y-73687048D01*
X178528087Y-73687047D01*
X178525789Y-73680478D01*
X178505418Y-73648058D01*
X178498694Y-73635890D01*
X178485113Y-73607688D01*
X178485112Y-73607687D01*
X178482091Y-73601413D01*
X178458223Y-73571484D01*
X178450177Y-73560143D01*
X178447248Y-73555482D01*
X178429816Y-73527738D01*
X178302262Y-73400184D01*
X177164259Y-72262181D01*
X177134009Y-72212818D01*
X177129467Y-72155102D01*
X177151622Y-72101615D01*
X177195645Y-72064015D01*
X177251940Y-72050500D01*
X179033233Y-72050500D01*
X179040194Y-72050500D01*
X179077523Y-72041979D01*
X179091197Y-72039655D01*
X179129255Y-72035368D01*
X179165403Y-72022718D01*
X179178726Y-72018881D01*
X179216061Y-72010360D01*
X179250546Y-71993752D01*
X179263398Y-71988429D01*
X179299522Y-71975789D01*
X179331939Y-71955418D01*
X179344086Y-71948705D01*
X179378587Y-71932091D01*
X179408519Y-71908220D01*
X179419853Y-71900179D01*
X179452262Y-71879816D01*
X179579816Y-71752262D01*
X179579816Y-71752261D01*
X181495258Y-69836819D01*
X181535487Y-69809939D01*
X181582940Y-69800500D01*
X181623531Y-69800500D01*
X181682548Y-69815445D01*
X181727339Y-69856677D01*
X181771836Y-69924785D01*
X181775310Y-69928559D01*
X181775311Y-69928560D01*
X181936784Y-70103967D01*
X181936787Y-70103970D01*
X181940256Y-70107738D01*
X182136491Y-70260474D01*
X182355190Y-70378828D01*
X182590386Y-70459571D01*
X182835665Y-70500500D01*
X183079201Y-70500500D01*
X183084335Y-70500500D01*
X183329614Y-70459571D01*
X183564810Y-70378828D01*
X183783509Y-70260474D01*
X183979744Y-70107738D01*
X184139111Y-69934618D01*
X184196598Y-69899282D01*
X184264079Y-69899282D01*
X184321568Y-69934620D01*
X184477120Y-70103594D01*
X184484637Y-70110513D01*
X184672718Y-70256903D01*
X184681276Y-70262495D01*
X184890885Y-70375929D01*
X184900239Y-70380032D01*
X185125658Y-70457418D01*
X185135567Y-70459927D01*
X185236679Y-70476800D01*
X185247636Y-70476233D01*
X185250000Y-70465516D01*
X185250000Y-67534484D01*
X185247636Y-67523766D01*
X185236679Y-67523199D01*
X185135567Y-67540072D01*
X185125658Y-67542581D01*
X184900239Y-67619967D01*
X184890885Y-67624070D01*
X184681276Y-67737504D01*
X184672718Y-67743096D01*
X184484637Y-67889486D01*
X184477126Y-67896400D01*
X184321568Y-68065380D01*
X184264079Y-68100717D01*
X184196598Y-68100717D01*
X184139109Y-68065379D01*
X184107573Y-68031122D01*
X184068594Y-67988779D01*
X183983215Y-67896032D01*
X183983211Y-67896029D01*
X183979744Y-67892262D01*
X183783509Y-67739526D01*
X183739481Y-67715699D01*
X183569316Y-67623610D01*
X183569310Y-67623607D01*
X183564810Y-67621172D01*
X183559969Y-67619510D01*
X183559962Y-67619507D01*
X183334465Y-67542094D01*
X183334461Y-67542093D01*
X183329614Y-67540429D01*
X183293987Y-67534484D01*
X183089398Y-67500344D01*
X183089387Y-67500343D01*
X183084335Y-67499500D01*
X182835665Y-67499500D01*
X182830613Y-67500343D01*
X182830601Y-67500344D01*
X182595443Y-67539585D01*
X182595441Y-67539585D01*
X182590386Y-67540429D01*
X182585541Y-67542092D01*
X182585534Y-67542094D01*
X182360037Y-67619507D01*
X182360026Y-67619511D01*
X182355190Y-67621172D01*
X182350693Y-67623605D01*
X182350683Y-67623610D01*
X182141002Y-67737084D01*
X182140995Y-67737088D01*
X182136491Y-67739526D01*
X182132448Y-67742672D01*
X182132440Y-67742678D01*
X181949270Y-67885246D01*
X181940256Y-67892262D01*
X181936793Y-67896023D01*
X181936784Y-67896032D01*
X181775311Y-68071439D01*
X181775305Y-68071446D01*
X181771836Y-68075215D01*
X181769031Y-68079507D01*
X181769032Y-68079507D01*
X181727340Y-68143322D01*
X181682548Y-68184555D01*
X181623531Y-68199500D01*
X181290195Y-68199500D01*
X181109806Y-68199500D01*
X181103020Y-68201048D01*
X181103008Y-68201050D01*
X181072479Y-68208017D01*
X181058781Y-68210345D01*
X181027665Y-68213852D01*
X181027663Y-68213852D01*
X181020745Y-68214632D01*
X180984619Y-68227272D01*
X180971268Y-68231118D01*
X180940726Y-68238089D01*
X180940711Y-68238094D01*
X180933939Y-68239640D01*
X180927672Y-68242657D01*
X180927674Y-68242657D01*
X180899441Y-68256252D01*
X180886603Y-68261569D01*
X180857046Y-68271912D01*
X180857041Y-68271914D01*
X180850478Y-68274211D01*
X180844592Y-68277908D01*
X180844582Y-68277914D01*
X180818066Y-68294575D01*
X180805903Y-68301297D01*
X180777692Y-68314883D01*
X180777681Y-68314889D01*
X180771414Y-68317908D01*
X180765975Y-68322245D01*
X180765966Y-68322251D01*
X180741481Y-68341777D01*
X180730145Y-68349820D01*
X180703637Y-68366476D01*
X180703628Y-68366482D01*
X180697738Y-68370184D01*
X180692816Y-68375105D01*
X180692812Y-68375109D01*
X178654741Y-70413181D01*
X178614513Y-70440061D01*
X178567060Y-70449500D01*
X177371462Y-70449500D01*
X177315167Y-70435985D01*
X177271144Y-70398385D01*
X177248989Y-70344898D01*
X177253531Y-70287182D01*
X177283666Y-70194435D01*
X177285674Y-70188256D01*
X177305460Y-70000000D01*
X177285674Y-69811744D01*
X177227179Y-69631716D01*
X177217113Y-69614281D01*
X177200500Y-69552281D01*
X177200500Y-68662940D01*
X177209939Y-68615487D01*
X177236819Y-68575259D01*
X179225259Y-66586819D01*
X179265487Y-66559939D01*
X179312940Y-66550500D01*
X181623531Y-66550500D01*
X181682548Y-66565445D01*
X181727339Y-66606677D01*
X181771836Y-66674785D01*
X181775310Y-66678559D01*
X181775311Y-66678560D01*
X181936784Y-66853967D01*
X181936787Y-66853970D01*
X181940256Y-66857738D01*
X182136491Y-67010474D01*
X182355190Y-67128828D01*
X182590386Y-67209571D01*
X182835665Y-67250500D01*
X183079201Y-67250500D01*
X183084335Y-67250500D01*
X183329614Y-67209571D01*
X183564810Y-67128828D01*
X183783509Y-67010474D01*
X183979744Y-66857738D01*
X184139111Y-66684618D01*
X184196598Y-66649282D01*
X184264079Y-66649282D01*
X184321568Y-66684620D01*
X184477120Y-66853594D01*
X184484637Y-66860513D01*
X184672718Y-67006903D01*
X184681276Y-67012495D01*
X184890885Y-67125929D01*
X184900239Y-67130032D01*
X185125658Y-67207418D01*
X185135567Y-67209927D01*
X185236679Y-67226800D01*
X185247636Y-67226233D01*
X185250000Y-67215516D01*
X185250000Y-65624000D01*
X185266613Y-65562000D01*
X185312000Y-65516613D01*
X185374000Y-65500000D01*
X185626000Y-65500000D01*
X185688000Y-65516613D01*
G37*
%TD.AperFunction*%
%TA.AperFunction,Conductor*%
G36*
X189937500Y-60017113D02*
G01*
X189982887Y-60062500D01*
X189999500Y-60124500D01*
X189999500Y-109875500D01*
X189982887Y-109937500D01*
X189937500Y-109982887D01*
X189875500Y-109999500D01*
X140124500Y-109999500D01*
X140062500Y-109982887D01*
X140017113Y-109937500D01*
X140000500Y-109875500D01*
X140000500Y-108254578D01*
X140459500Y-108254578D01*
X140459501Y-108257872D01*
X140459853Y-108261150D01*
X140459854Y-108261161D01*
X140465079Y-108309768D01*
X140465080Y-108309773D01*
X140465909Y-108317483D01*
X140468619Y-108324749D01*
X140468620Y-108324753D01*
X140490999Y-108384752D01*
X140516204Y-108452331D01*
X140521518Y-108459430D01*
X140521519Y-108459431D01*
X140592146Y-108553777D01*
X140602454Y-108567546D01*
X140717669Y-108653796D01*
X140852517Y-108704091D01*
X140912127Y-108710500D01*
X144507872Y-108710499D01*
X144567483Y-108704091D01*
X144702331Y-108653796D01*
X144817546Y-108567546D01*
X144903796Y-108452331D01*
X144954091Y-108317483D01*
X144960500Y-108257873D01*
X144960500Y-108254578D01*
X145539500Y-108254578D01*
X145539501Y-108257872D01*
X145539853Y-108261150D01*
X145539854Y-108261161D01*
X145545079Y-108309768D01*
X145545080Y-108309773D01*
X145545909Y-108317483D01*
X145548619Y-108324749D01*
X145548620Y-108324753D01*
X145570999Y-108384752D01*
X145596204Y-108452331D01*
X145601518Y-108459430D01*
X145601519Y-108459431D01*
X145672146Y-108553777D01*
X145682454Y-108567546D01*
X145797669Y-108653796D01*
X145932517Y-108704091D01*
X145992127Y-108710500D01*
X149587872Y-108710499D01*
X149647483Y-108704091D01*
X149782331Y-108653796D01*
X149897546Y-108567546D01*
X149983796Y-108452331D01*
X150034091Y-108317483D01*
X150034403Y-108314578D01*
X158179500Y-108314578D01*
X158179501Y-108317872D01*
X158179853Y-108321150D01*
X158179854Y-108321161D01*
X158185079Y-108369768D01*
X158185080Y-108369773D01*
X158185909Y-108377483D01*
X158188619Y-108384749D01*
X158188620Y-108384753D01*
X158207269Y-108434752D01*
X158236204Y-108512331D01*
X158241518Y-108519430D01*
X158241519Y-108519431D01*
X158281514Y-108572858D01*
X158322454Y-108627546D01*
X158437669Y-108713796D01*
X158572517Y-108764091D01*
X158632127Y-108770500D01*
X161727872Y-108770499D01*
X161787483Y-108764091D01*
X161922331Y-108713796D01*
X162037546Y-108627546D01*
X162123796Y-108512331D01*
X162174091Y-108377483D01*
X162175485Y-108364518D01*
X163260000Y-108364518D01*
X163260353Y-108371114D01*
X163265573Y-108419667D01*
X163269111Y-108434641D01*
X163313547Y-108553777D01*
X163321962Y-108569189D01*
X163397498Y-108670092D01*
X163409907Y-108682501D01*
X163510810Y-108758037D01*
X163526222Y-108766452D01*
X163645358Y-108810888D01*
X163660332Y-108814426D01*
X163708885Y-108819646D01*
X163715482Y-108820000D01*
X165043674Y-108820000D01*
X165056549Y-108816549D01*
X165060000Y-108803674D01*
X165560000Y-108803674D01*
X165563450Y-108816549D01*
X165576326Y-108820000D01*
X166904518Y-108820000D01*
X166911114Y-108819646D01*
X166959667Y-108814426D01*
X166974641Y-108810888D01*
X167093777Y-108766452D01*
X167109189Y-108758037D01*
X167210092Y-108682501D01*
X167222501Y-108670092D01*
X167298037Y-108569189D01*
X167306452Y-108553777D01*
X167350888Y-108434641D01*
X167354426Y-108419667D01*
X167359646Y-108371114D01*
X167360000Y-108364518D01*
X167360000Y-105836326D01*
X167356549Y-105823450D01*
X167343674Y-105820000D01*
X165775765Y-105820000D01*
X165750495Y-105825026D01*
X165731643Y-105832835D01*
X165683261Y-105832835D01*
X165664408Y-105825026D01*
X165639139Y-105820000D01*
X165576326Y-105820000D01*
X165563450Y-105823450D01*
X165560000Y-105836326D01*
X165560000Y-108803674D01*
X165060000Y-108803674D01*
X165060000Y-105860861D01*
X165057756Y-105849582D01*
X165051361Y-105840011D01*
X165039988Y-105828638D01*
X165030417Y-105822243D01*
X165019139Y-105820000D01*
X164900861Y-105820000D01*
X164889582Y-105822243D01*
X164881440Y-105827684D01*
X164836740Y-105846199D01*
X164788356Y-105846199D01*
X164743656Y-105827684D01*
X164735513Y-105822243D01*
X164724235Y-105820000D01*
X163276326Y-105820000D01*
X163263450Y-105823450D01*
X163260000Y-105836326D01*
X163260000Y-108364518D01*
X162175485Y-108364518D01*
X162180500Y-108317873D01*
X162180499Y-105303674D01*
X163260000Y-105303674D01*
X163263450Y-105316549D01*
X163276326Y-105320000D01*
X164221771Y-105320000D01*
X164231061Y-105317769D01*
X164226069Y-105309622D01*
X163641579Y-104725132D01*
X163609485Y-104669544D01*
X163609485Y-104605357D01*
X163641579Y-104549769D01*
X163699809Y-104491539D01*
X163706471Y-104480000D01*
X163699807Y-104468457D01*
X163641579Y-104410229D01*
X163609485Y-104354642D01*
X163609485Y-104290454D01*
X163641579Y-104234867D01*
X163694903Y-104181542D01*
X163701567Y-104170000D01*
X163694903Y-104158457D01*
X163641579Y-104105133D01*
X163609485Y-104049546D01*
X163609485Y-103985358D01*
X163641579Y-103929771D01*
X163699807Y-103871542D01*
X163706471Y-103860000D01*
X163699807Y-103848457D01*
X163641579Y-103790229D01*
X163609485Y-103734642D01*
X163609485Y-103670454D01*
X163641579Y-103614867D01*
X164360000Y-102896447D01*
X164724867Y-102531579D01*
X164780454Y-102499485D01*
X164844642Y-102499485D01*
X164900229Y-102531579D01*
X164948457Y-102579807D01*
X164960000Y-102586471D01*
X164971542Y-102579807D01*
X164974675Y-102576674D01*
X165560000Y-102576674D01*
X165562230Y-102585964D01*
X165570374Y-102580974D01*
X165619769Y-102531579D01*
X165675357Y-102499485D01*
X165739544Y-102499485D01*
X165795132Y-102531579D01*
X166878420Y-103614867D01*
X166910514Y-103670454D01*
X166910514Y-103734641D01*
X166878421Y-103790229D01*
X166820191Y-103848459D01*
X166813528Y-103860000D01*
X166820192Y-103871542D01*
X166878420Y-103929770D01*
X166910514Y-103985357D01*
X166910514Y-104049545D01*
X166878420Y-104105132D01*
X166825096Y-104158455D01*
X166818431Y-104170000D01*
X166825095Y-104181542D01*
X166878420Y-104234866D01*
X166910514Y-104290453D01*
X166910514Y-104354641D01*
X166878421Y-104410229D01*
X166830191Y-104458459D01*
X166823528Y-104470000D01*
X166830192Y-104481542D01*
X166878420Y-104529770D01*
X166910514Y-104585357D01*
X166910514Y-104649544D01*
X166878420Y-104705132D01*
X166273930Y-105309622D01*
X166268938Y-105317769D01*
X166278229Y-105320000D01*
X167343674Y-105320000D01*
X167356549Y-105316549D01*
X167360000Y-105303674D01*
X167360000Y-102775482D01*
X167359646Y-102768885D01*
X167354426Y-102720332D01*
X167350888Y-102705358D01*
X167306452Y-102586222D01*
X167298037Y-102570810D01*
X167222501Y-102469907D01*
X167210092Y-102457498D01*
X167109189Y-102381962D01*
X167093777Y-102373547D01*
X166974641Y-102329111D01*
X166959667Y-102325573D01*
X166911114Y-102320353D01*
X166904518Y-102320000D01*
X165576326Y-102320000D01*
X165563450Y-102323450D01*
X165560000Y-102336326D01*
X165560000Y-102576674D01*
X164974675Y-102576674D01*
X165051361Y-102499988D01*
X165057756Y-102490417D01*
X165060000Y-102479139D01*
X165060000Y-102336326D01*
X165056549Y-102323450D01*
X165043674Y-102320000D01*
X163715482Y-102320000D01*
X163708885Y-102320353D01*
X163660332Y-102325573D01*
X163645358Y-102329111D01*
X163526222Y-102373547D01*
X163510810Y-102381962D01*
X163409907Y-102457498D01*
X163397498Y-102469907D01*
X163321962Y-102570810D01*
X163313547Y-102586222D01*
X163269111Y-102705358D01*
X163265573Y-102720332D01*
X163260353Y-102768885D01*
X163260000Y-102775482D01*
X163260000Y-105303674D01*
X162180499Y-105303674D01*
X162180499Y-102722128D01*
X162174091Y-102662517D01*
X162123796Y-102527669D01*
X162037546Y-102412454D01*
X161922331Y-102326204D01*
X161787483Y-102275909D01*
X161779770Y-102275079D01*
X161779767Y-102275079D01*
X161731180Y-102269855D01*
X161731169Y-102269854D01*
X161727873Y-102269500D01*
X161724550Y-102269500D01*
X158635439Y-102269500D01*
X158635420Y-102269500D01*
X158632128Y-102269501D01*
X158628850Y-102269853D01*
X158628838Y-102269854D01*
X158580231Y-102275079D01*
X158580225Y-102275080D01*
X158572517Y-102275909D01*
X158565252Y-102278618D01*
X158565246Y-102278620D01*
X158445980Y-102323104D01*
X158445978Y-102323104D01*
X158437669Y-102326204D01*
X158430572Y-102331516D01*
X158430568Y-102331519D01*
X158329550Y-102407141D01*
X158329546Y-102407144D01*
X158322454Y-102412454D01*
X158317144Y-102419546D01*
X158317141Y-102419550D01*
X158241519Y-102520568D01*
X158241516Y-102520572D01*
X158236204Y-102527669D01*
X158233104Y-102535978D01*
X158233104Y-102535980D01*
X158188620Y-102655247D01*
X158188619Y-102655250D01*
X158185909Y-102662517D01*
X158185079Y-102670227D01*
X158185079Y-102670232D01*
X158179855Y-102718819D01*
X158179854Y-102718831D01*
X158179500Y-102722127D01*
X158179500Y-102725448D01*
X158179500Y-102725449D01*
X158179500Y-108314560D01*
X158179500Y-108314578D01*
X150034403Y-108314578D01*
X150040500Y-108257873D01*
X150040499Y-101162128D01*
X150034091Y-101102517D01*
X149983796Y-100967669D01*
X149897546Y-100852454D01*
X149869580Y-100831519D01*
X149789431Y-100771519D01*
X149789430Y-100771518D01*
X149782331Y-100766204D01*
X149647483Y-100715909D01*
X149639770Y-100715079D01*
X149639767Y-100715079D01*
X149591180Y-100709855D01*
X149591169Y-100709854D01*
X149587873Y-100709500D01*
X149584550Y-100709500D01*
X145995439Y-100709500D01*
X145995420Y-100709500D01*
X145992128Y-100709501D01*
X145988850Y-100709853D01*
X145988838Y-100709854D01*
X145940231Y-100715079D01*
X145940225Y-100715080D01*
X145932517Y-100715909D01*
X145925252Y-100718618D01*
X145925246Y-100718620D01*
X145805980Y-100763104D01*
X145805978Y-100763104D01*
X145797669Y-100766204D01*
X145790572Y-100771516D01*
X145790568Y-100771519D01*
X145689550Y-100847141D01*
X145689546Y-100847144D01*
X145682454Y-100852454D01*
X145677144Y-100859546D01*
X145677141Y-100859550D01*
X145601519Y-100960568D01*
X145601516Y-100960572D01*
X145596204Y-100967669D01*
X145593104Y-100975978D01*
X145593104Y-100975980D01*
X145548620Y-101095247D01*
X145548619Y-101095250D01*
X145545909Y-101102517D01*
X145545079Y-101110227D01*
X145545079Y-101110232D01*
X145539855Y-101158819D01*
X145539854Y-101158831D01*
X145539500Y-101162127D01*
X145539500Y-101165448D01*
X145539500Y-101165449D01*
X145539500Y-108254560D01*
X145539500Y-108254578D01*
X144960500Y-108254578D01*
X144960499Y-101162128D01*
X144954091Y-101102517D01*
X144903796Y-100967669D01*
X144817546Y-100852454D01*
X144789580Y-100831519D01*
X144709431Y-100771519D01*
X144709430Y-100771518D01*
X144702331Y-100766204D01*
X144567483Y-100715909D01*
X144559770Y-100715079D01*
X144559767Y-100715079D01*
X144511180Y-100709855D01*
X144511169Y-100709854D01*
X144507873Y-100709500D01*
X144504550Y-100709500D01*
X140915439Y-100709500D01*
X140915420Y-100709500D01*
X140912128Y-100709501D01*
X140908850Y-100709853D01*
X140908838Y-100709854D01*
X140860231Y-100715079D01*
X140860225Y-100715080D01*
X140852517Y-100715909D01*
X140845252Y-100718618D01*
X140845246Y-100718620D01*
X140725980Y-100763104D01*
X140725978Y-100763104D01*
X140717669Y-100766204D01*
X140710572Y-100771516D01*
X140710568Y-100771519D01*
X140609550Y-100847141D01*
X140609546Y-100847144D01*
X140602454Y-100852454D01*
X140597144Y-100859546D01*
X140597141Y-100859550D01*
X140521519Y-100960568D01*
X140521516Y-100960572D01*
X140516204Y-100967669D01*
X140513104Y-100975978D01*
X140513104Y-100975980D01*
X140468620Y-101095247D01*
X140468619Y-101095250D01*
X140465909Y-101102517D01*
X140465079Y-101110227D01*
X140465079Y-101110232D01*
X140459855Y-101158819D01*
X140459854Y-101158831D01*
X140459500Y-101162127D01*
X140459500Y-101165448D01*
X140459500Y-101165449D01*
X140459500Y-108254560D01*
X140459500Y-108254578D01*
X140000500Y-108254578D01*
X140000500Y-96930936D01*
X140255631Y-96930936D01*
X140256582Y-96937148D01*
X140256583Y-96937154D01*
X140285491Y-97125856D01*
X140285493Y-97125864D01*
X140286444Y-97132071D01*
X140288625Y-97137961D01*
X140288627Y-97137967D01*
X140354928Y-97316986D01*
X140354930Y-97316990D01*
X140357114Y-97322887D01*
X140360440Y-97328223D01*
X140360442Y-97328227D01*
X140457689Y-97484247D01*
X140464748Y-97495571D01*
X140521773Y-97555561D01*
X140586312Y-97623456D01*
X140604941Y-97643053D01*
X140771951Y-97759295D01*
X140958942Y-97839540D01*
X141158259Y-97880500D01*
X147145722Y-97880500D01*
X147148862Y-97880539D01*
X147236363Y-97882757D01*
X147294458Y-97872344D01*
X147303739Y-97871042D01*
X147362438Y-97865074D01*
X147391464Y-97855966D01*
X147406713Y-97852224D01*
X147436653Y-97846858D01*
X147491423Y-97824980D01*
X147500303Y-97821818D01*
X147513508Y-97817675D01*
X147556588Y-97804159D01*
X147583194Y-97789390D01*
X147597362Y-97782662D01*
X147625617Y-97771377D01*
X147674891Y-97738902D01*
X147682910Y-97734043D01*
X147734502Y-97705409D01*
X147748343Y-97693526D01*
X147757583Y-97685594D01*
X147770125Y-97676137D01*
X147770999Y-97675561D01*
X147795519Y-97659402D01*
X147837238Y-97617681D01*
X147844122Y-97611301D01*
X147888895Y-97572866D01*
X147907524Y-97548798D01*
X147917884Y-97537035D01*
X148144919Y-97310000D01*
X150719533Y-97310000D01*
X150719822Y-97314225D01*
X150724211Y-97378391D01*
X150724500Y-97386853D01*
X150724500Y-97455388D01*
X150725076Y-97459580D01*
X150725077Y-97459592D01*
X150733830Y-97523280D01*
X150734696Y-97531698D01*
X150737513Y-97572866D01*
X150739376Y-97600099D01*
X150740235Y-97604233D01*
X150740236Y-97604240D01*
X150753324Y-97667226D01*
X150754762Y-97675567D01*
X150763470Y-97738918D01*
X150764094Y-97743456D01*
X150765237Y-97747535D01*
X150765239Y-97747545D01*
X150782584Y-97809453D01*
X150784588Y-97817675D01*
X150788697Y-97837448D01*
X150798536Y-97884793D01*
X150799953Y-97888779D01*
X150821490Y-97949380D01*
X150824050Y-97957448D01*
X150841398Y-98019364D01*
X150841403Y-98019379D01*
X150842544Y-98023450D01*
X150844228Y-98027328D01*
X150844231Y-98027335D01*
X150852613Y-98046631D01*
X150869852Y-98086320D01*
X150869853Y-98086321D01*
X150872959Y-98094198D01*
X150894489Y-98154778D01*
X150894491Y-98154783D01*
X150895912Y-98158780D01*
X150897859Y-98162538D01*
X150897862Y-98162544D01*
X150927445Y-98219636D01*
X150931077Y-98227273D01*
X150958390Y-98290153D01*
X150964632Y-98300418D01*
X150994005Y-98348720D01*
X150998153Y-98356098D01*
X151027737Y-98413191D01*
X151029688Y-98416956D01*
X151069214Y-98472951D01*
X151073854Y-98480025D01*
X151109473Y-98538598D01*
X151152092Y-98590985D01*
X151152728Y-98591766D01*
X151157843Y-98598511D01*
X151194927Y-98651048D01*
X151194931Y-98651053D01*
X151197373Y-98654512D01*
X151200266Y-98657610D01*
X151200268Y-98657612D01*
X151216563Y-98675060D01*
X151242701Y-98703047D01*
X151244154Y-98704602D01*
X151249713Y-98710977D01*
X151292978Y-98764157D01*
X151296071Y-98767045D01*
X151296076Y-98767051D01*
X151343070Y-98810940D01*
X151349058Y-98816928D01*
X151392950Y-98863925D01*
X151395843Y-98867022D01*
X151399116Y-98869685D01*
X151399127Y-98869695D01*
X151449014Y-98910281D01*
X151455395Y-98915845D01*
X151502387Y-98959732D01*
X151502396Y-98959739D01*
X151505488Y-98962627D01*
X151561491Y-99002158D01*
X151568219Y-99007260D01*
X151618112Y-99047852D01*
X151618126Y-99047862D01*
X151621402Y-99050527D01*
X151675292Y-99083298D01*
X151679961Y-99086137D01*
X151687040Y-99090781D01*
X151739573Y-99127863D01*
X151739580Y-99127867D01*
X151743044Y-99130312D01*
X151803910Y-99161850D01*
X151811279Y-99165994D01*
X151869847Y-99201610D01*
X151932735Y-99228926D01*
X151940357Y-99232551D01*
X151954821Y-99240046D01*
X151997452Y-99262136D01*
X151997457Y-99262138D01*
X152001220Y-99264088D01*
X152005218Y-99265508D01*
X152005216Y-99265508D01*
X152065795Y-99287038D01*
X152073672Y-99290144D01*
X152136550Y-99317456D01*
X152202548Y-99335947D01*
X152210604Y-99338503D01*
X152275207Y-99361464D01*
X152342333Y-99375412D01*
X152350535Y-99377411D01*
X152416544Y-99395906D01*
X152484445Y-99405238D01*
X152492766Y-99406673D01*
X152559901Y-99420624D01*
X152628280Y-99425301D01*
X152628295Y-99425302D01*
X152636717Y-99426167D01*
X152704612Y-99435500D01*
X152777384Y-99435500D01*
X152991151Y-99435500D01*
X152995388Y-99435500D01*
X153063316Y-99426163D01*
X153071680Y-99425303D01*
X153140099Y-99420624D01*
X153207242Y-99406670D01*
X153215548Y-99405239D01*
X153283456Y-99395906D01*
X153349450Y-99377414D01*
X153357658Y-99375414D01*
X153424793Y-99361464D01*
X153489385Y-99338506D01*
X153497422Y-99335954D01*
X153563450Y-99317456D01*
X153626341Y-99290137D01*
X153634187Y-99287043D01*
X153698780Y-99264088D01*
X153759657Y-99232542D01*
X153767273Y-99228922D01*
X153791251Y-99218507D01*
X153830153Y-99201610D01*
X153888726Y-99165990D01*
X153896074Y-99161858D01*
X153956956Y-99130312D01*
X154012972Y-99090770D01*
X154020025Y-99086145D01*
X154031102Y-99079409D01*
X154078598Y-99050527D01*
X154131779Y-99007260D01*
X154138509Y-99002158D01*
X154161847Y-98985683D01*
X154194512Y-98962627D01*
X154244632Y-98915817D01*
X154250983Y-98910281D01*
X154304157Y-98867022D01*
X154350949Y-98816918D01*
X154356918Y-98810949D01*
X154407022Y-98764157D01*
X154450286Y-98710976D01*
X154455817Y-98704632D01*
X154502627Y-98654512D01*
X154525683Y-98621847D01*
X154542158Y-98598509D01*
X154547260Y-98591779D01*
X154590527Y-98538598D01*
X154626147Y-98480021D01*
X154630770Y-98472972D01*
X154670312Y-98416956D01*
X154701858Y-98356074D01*
X154705995Y-98348718D01*
X154716031Y-98332216D01*
X154741610Y-98290153D01*
X154768923Y-98227269D01*
X154772542Y-98219657D01*
X154804088Y-98158780D01*
X154827043Y-98094187D01*
X154830146Y-98086321D01*
X154857456Y-98023450D01*
X154875954Y-97957422D01*
X154878507Y-97949384D01*
X154879718Y-97945976D01*
X154901464Y-97884793D01*
X154915414Y-97817658D01*
X154917417Y-97809442D01*
X154918371Y-97806040D01*
X154935906Y-97743456D01*
X154945239Y-97675548D01*
X154946674Y-97667226D01*
X154960624Y-97600099D01*
X154965303Y-97531680D01*
X154966163Y-97523316D01*
X154975500Y-97455388D01*
X154975500Y-97386853D01*
X154975789Y-97378391D01*
X154980178Y-97314225D01*
X154980467Y-97310000D01*
X154975789Y-97241609D01*
X154975500Y-97233147D01*
X154975500Y-97168849D01*
X154975500Y-97164612D01*
X154966167Y-97096717D01*
X154965302Y-97088295D01*
X154962604Y-97048849D01*
X154960624Y-97019901D01*
X154946673Y-96952766D01*
X154945237Y-96944437D01*
X154935906Y-96876544D01*
X154917411Y-96810535D01*
X154915412Y-96802333D01*
X154901464Y-96735207D01*
X154878503Y-96670604D01*
X154875944Y-96662539D01*
X154875207Y-96659909D01*
X154857456Y-96596550D01*
X154830144Y-96533672D01*
X154827038Y-96525795D01*
X154805508Y-96465216D01*
X154805505Y-96465208D01*
X154804088Y-96461220D01*
X154787824Y-96429833D01*
X154772554Y-96400363D01*
X154768924Y-96392730D01*
X154741610Y-96329847D01*
X154705994Y-96271278D01*
X154701847Y-96263904D01*
X154670312Y-96203044D01*
X154667869Y-96199584D01*
X154667863Y-96199573D01*
X154630781Y-96147040D01*
X154626137Y-96139961D01*
X154626134Y-96139956D01*
X154590527Y-96081402D01*
X154587862Y-96078126D01*
X154587852Y-96078112D01*
X154547260Y-96028219D01*
X154542158Y-96021491D01*
X154502627Y-95965488D01*
X154499739Y-95962396D01*
X154499732Y-95962387D01*
X154455845Y-95915395D01*
X154450281Y-95909014D01*
X154409695Y-95859127D01*
X154409685Y-95859116D01*
X154407022Y-95855843D01*
X154403930Y-95852955D01*
X154403927Y-95852952D01*
X154356928Y-95809058D01*
X154350940Y-95803070D01*
X154307051Y-95756076D01*
X154307045Y-95756071D01*
X154304157Y-95752978D01*
X154250977Y-95709713D01*
X154244607Y-95704158D01*
X154204884Y-95667060D01*
X154197612Y-95660268D01*
X154197610Y-95660266D01*
X154194512Y-95657373D01*
X154191055Y-95654933D01*
X154191048Y-95654927D01*
X154138511Y-95617843D01*
X154131766Y-95612728D01*
X154081884Y-95572146D01*
X154081880Y-95572143D01*
X154078598Y-95569473D01*
X154020028Y-95533856D01*
X154012960Y-95529219D01*
X153956956Y-95489688D01*
X153953191Y-95487737D01*
X153896098Y-95458153D01*
X153888720Y-95454005D01*
X153885663Y-95452146D01*
X153830153Y-95418390D01*
X153767277Y-95391078D01*
X153759636Y-95387445D01*
X153759626Y-95387440D01*
X153725367Y-95369688D01*
X153702544Y-95357862D01*
X153702540Y-95357860D01*
X153698780Y-95355912D01*
X153694786Y-95354492D01*
X153694778Y-95354489D01*
X153634198Y-95332959D01*
X153626329Y-95329856D01*
X153601408Y-95319031D01*
X153567335Y-95304231D01*
X153567328Y-95304228D01*
X153563450Y-95302544D01*
X153559379Y-95301403D01*
X153559364Y-95301398D01*
X153497448Y-95284050D01*
X153489380Y-95281490D01*
X153449846Y-95267440D01*
X153424793Y-95258536D01*
X153420640Y-95257673D01*
X153357675Y-95244588D01*
X153349453Y-95242584D01*
X153287545Y-95225239D01*
X153287536Y-95225237D01*
X153283456Y-95224094D01*
X153279259Y-95223517D01*
X153279254Y-95223516D01*
X153215567Y-95214762D01*
X153207226Y-95213324D01*
X153144240Y-95200236D01*
X153144233Y-95200235D01*
X153140099Y-95199376D01*
X153135885Y-95199087D01*
X153135880Y-95199087D01*
X153071698Y-95194696D01*
X153063280Y-95193830D01*
X152999592Y-95185077D01*
X152999580Y-95185076D01*
X152995388Y-95184500D01*
X152704612Y-95184500D01*
X152700419Y-95185076D01*
X152700408Y-95185077D01*
X152636720Y-95193830D01*
X152628302Y-95194696D01*
X152564121Y-95199087D01*
X152564116Y-95199087D01*
X152559901Y-95199376D01*
X152555760Y-95200236D01*
X152555756Y-95200237D01*
X152492776Y-95213323D01*
X152484437Y-95214761D01*
X152420739Y-95223517D01*
X152420733Y-95223518D01*
X152416544Y-95224094D01*
X152412468Y-95225235D01*
X152412458Y-95225238D01*
X152350550Y-95242583D01*
X152342328Y-95244587D01*
X152279355Y-95257673D01*
X152279341Y-95257676D01*
X152275207Y-95258536D01*
X152271229Y-95259949D01*
X152271221Y-95259952D01*
X152227724Y-95275411D01*
X152210620Y-95281490D01*
X152202559Y-95284049D01*
X152140623Y-95301402D01*
X152140612Y-95301405D01*
X152136550Y-95302544D01*
X152132677Y-95304225D01*
X152132655Y-95304234D01*
X152073666Y-95329856D01*
X152065795Y-95332960D01*
X152005208Y-95354494D01*
X152005200Y-95354497D01*
X152001220Y-95355912D01*
X151997476Y-95357851D01*
X151997462Y-95357858D01*
X151940370Y-95387440D01*
X151932730Y-95391074D01*
X151873727Y-95416704D01*
X151873719Y-95416707D01*
X151869847Y-95418390D01*
X151866239Y-95420583D01*
X151866237Y-95420585D01*
X151811278Y-95454005D01*
X151803903Y-95458151D01*
X151746804Y-95487739D01*
X151746796Y-95487743D01*
X151743044Y-95489688D01*
X151739601Y-95492118D01*
X151739585Y-95492128D01*
X151687031Y-95529224D01*
X151679958Y-95533863D01*
X151621402Y-95569473D01*
X151618113Y-95572148D01*
X151618104Y-95572155D01*
X151568222Y-95612736D01*
X151561478Y-95617850D01*
X151508954Y-95654926D01*
X151508953Y-95654927D01*
X151505488Y-95657373D01*
X151502394Y-95660262D01*
X151502386Y-95660269D01*
X151455391Y-95704157D01*
X151449014Y-95709717D01*
X151399138Y-95750295D01*
X151399119Y-95750312D01*
X151395843Y-95752978D01*
X151392952Y-95756073D01*
X151392946Y-95756079D01*
X151349055Y-95803073D01*
X151343073Y-95809055D01*
X151296079Y-95852946D01*
X151296073Y-95852952D01*
X151292978Y-95855843D01*
X151290312Y-95859119D01*
X151290295Y-95859138D01*
X151249717Y-95909014D01*
X151244157Y-95915391D01*
X151200269Y-95962386D01*
X151200262Y-95962394D01*
X151197373Y-95965488D01*
X151194928Y-95968950D01*
X151194926Y-95968954D01*
X151157850Y-96021478D01*
X151152736Y-96028222D01*
X151112155Y-96078104D01*
X151112148Y-96078113D01*
X151109473Y-96081402D01*
X151086944Y-96118449D01*
X151073865Y-96139956D01*
X151069224Y-96147031D01*
X151032128Y-96199585D01*
X151032118Y-96199601D01*
X151029688Y-96203044D01*
X151027743Y-96206796D01*
X151027739Y-96206804D01*
X150998151Y-96263903D01*
X150994005Y-96271278D01*
X150960585Y-96326237D01*
X150958390Y-96329847D01*
X150956707Y-96333719D01*
X150956704Y-96333727D01*
X150931074Y-96392730D01*
X150927440Y-96400370D01*
X150897858Y-96457462D01*
X150897851Y-96457476D01*
X150895912Y-96461220D01*
X150894497Y-96465200D01*
X150894494Y-96465208D01*
X150872960Y-96525795D01*
X150869856Y-96533666D01*
X150844234Y-96592655D01*
X150844225Y-96592677D01*
X150842544Y-96596550D01*
X150841405Y-96600612D01*
X150841402Y-96600623D01*
X150824049Y-96662559D01*
X150821488Y-96670627D01*
X150799952Y-96731221D01*
X150799951Y-96731225D01*
X150798536Y-96735207D01*
X150797676Y-96739341D01*
X150797673Y-96739355D01*
X150784587Y-96802328D01*
X150782583Y-96810550D01*
X150765238Y-96872458D01*
X150765235Y-96872468D01*
X150764094Y-96876544D01*
X150763518Y-96880733D01*
X150763517Y-96880739D01*
X150754761Y-96944437D01*
X150753323Y-96952776D01*
X150745162Y-96992055D01*
X150739376Y-97019901D01*
X150739087Y-97024116D01*
X150739087Y-97024121D01*
X150734696Y-97088302D01*
X150733830Y-97096720D01*
X150725077Y-97160408D01*
X150725077Y-97160414D01*
X150724500Y-97164612D01*
X150724500Y-97168849D01*
X150724500Y-97168851D01*
X150724500Y-97233147D01*
X150724210Y-97241609D01*
X150719533Y-97310000D01*
X148144919Y-97310000D01*
X151774344Y-93680575D01*
X151835664Y-93647092D01*
X151905355Y-93652076D01*
X151961289Y-93693946D01*
X151975140Y-93712448D01*
X151980454Y-93719546D01*
X152095669Y-93805796D01*
X152230517Y-93856091D01*
X152290127Y-93862500D01*
X153909872Y-93862499D01*
X153969483Y-93856091D01*
X154104331Y-93805796D01*
X154219546Y-93719546D01*
X154305796Y-93604331D01*
X154356091Y-93469483D01*
X154362500Y-93409873D01*
X154362499Y-91790128D01*
X154356091Y-91730517D01*
X154305796Y-91595669D01*
X154219546Y-91480454D01*
X154212449Y-91475141D01*
X154212448Y-91475140D01*
X154187491Y-91456457D01*
X154148337Y-91407205D01*
X154138396Y-91345076D01*
X154160229Y-91286066D01*
X154193990Y-91237850D01*
X154199390Y-91228496D01*
X154288135Y-91038180D01*
X154291821Y-91028056D01*
X154346173Y-90825213D01*
X154348047Y-90814581D01*
X154366349Y-90605395D01*
X154366349Y-90594605D01*
X154348047Y-90385418D01*
X154346173Y-90374786D01*
X154291822Y-90171949D01*
X154288134Y-90161815D01*
X154199388Y-89971500D01*
X154193990Y-89962150D01*
X154159529Y-89912935D01*
X154151418Y-89905502D01*
X154142139Y-89911413D01*
X153187680Y-90865872D01*
X153132093Y-90897966D01*
X153067905Y-90897966D01*
X153012318Y-90865872D01*
X152057859Y-89911413D01*
X152048581Y-89905502D01*
X152040468Y-89912936D01*
X152006006Y-89962154D01*
X152000612Y-89971498D01*
X151911865Y-90161815D01*
X151908177Y-90171949D01*
X151853826Y-90374786D01*
X151851952Y-90385418D01*
X151833651Y-90594605D01*
X151833651Y-90605395D01*
X151851952Y-90814581D01*
X151853826Y-90825213D01*
X151908178Y-91028056D01*
X151911864Y-91038180D01*
X152000609Y-91228496D01*
X152006011Y-91237854D01*
X152039771Y-91286068D01*
X152061603Y-91345077D01*
X152051663Y-91407205D01*
X152012509Y-91456456D01*
X151987553Y-91475138D01*
X151987546Y-91475144D01*
X151980454Y-91480454D01*
X151975144Y-91487546D01*
X151975137Y-91487554D01*
X151928532Y-91549811D01*
X151884770Y-91586384D01*
X151829266Y-91599500D01*
X151454262Y-91599500D01*
X151451121Y-91599460D01*
X151369924Y-91597402D01*
X151369920Y-91597402D01*
X151363637Y-91597243D01*
X151351267Y-91599460D01*
X151305578Y-91607648D01*
X151296254Y-91608955D01*
X151243821Y-91614288D01*
X151243807Y-91614290D01*
X151237562Y-91614926D01*
X151231568Y-91616806D01*
X151231565Y-91616807D01*
X151208526Y-91624035D01*
X151193292Y-91627774D01*
X151169539Y-91632032D01*
X151163347Y-91633142D01*
X151157514Y-91635471D01*
X151157496Y-91635477D01*
X151108567Y-91655021D01*
X151099697Y-91658179D01*
X151049411Y-91673957D01*
X151049396Y-91673963D01*
X151043412Y-91675841D01*
X151037922Y-91678887D01*
X151037915Y-91678891D01*
X151016809Y-91690605D01*
X151002640Y-91697334D01*
X150980223Y-91706289D01*
X150980213Y-91706293D01*
X150974383Y-91708623D01*
X150969140Y-91712078D01*
X150969131Y-91712083D01*
X150925123Y-91741086D01*
X150917073Y-91745963D01*
X150865498Y-91774591D01*
X150860729Y-91778684D01*
X150860726Y-91778687D01*
X150842414Y-91794407D01*
X150829887Y-91803852D01*
X150809731Y-91817136D01*
X150809719Y-91817145D01*
X150804481Y-91820598D01*
X150800039Y-91825039D01*
X150800035Y-91825043D01*
X150762774Y-91862303D01*
X150755868Y-91868704D01*
X150715873Y-91903040D01*
X150715869Y-91903043D01*
X150711105Y-91907134D01*
X150707260Y-91912100D01*
X150707260Y-91912101D01*
X150692480Y-91931194D01*
X150682108Y-91942969D01*
X148030847Y-94594232D01*
X147979006Y-94625259D01*
X147918656Y-94628105D01*
X147864125Y-94602094D01*
X147828358Y-94553403D01*
X147819845Y-94493589D01*
X147829003Y-94406460D01*
X147829003Y-94393540D01*
X147811684Y-94228763D01*
X147808996Y-94216121D01*
X147767471Y-94088317D01*
X147761402Y-94049999D01*
X147767471Y-94011681D01*
X147808996Y-93883878D01*
X147811684Y-93871236D01*
X147829003Y-93706460D01*
X147829003Y-93693540D01*
X147811684Y-93528763D01*
X147808996Y-93516121D01*
X147767471Y-93388317D01*
X147761402Y-93349999D01*
X147767471Y-93311681D01*
X147808996Y-93183878D01*
X147811684Y-93171236D01*
X147829003Y-93006460D01*
X147829003Y-92993540D01*
X147811684Y-92828763D01*
X147808996Y-92816121D01*
X147767471Y-92688317D01*
X147761402Y-92649999D01*
X147767471Y-92611681D01*
X147808996Y-92483878D01*
X147811684Y-92471236D01*
X147829003Y-92306460D01*
X147829003Y-92293540D01*
X147811684Y-92128763D01*
X147808996Y-92116121D01*
X147757798Y-91958548D01*
X147752541Y-91946742D01*
X147733784Y-91914254D01*
X147726105Y-91906055D01*
X147716563Y-91911989D01*
X147081101Y-92547451D01*
X146990096Y-92638455D01*
X146983431Y-92650000D01*
X146990095Y-92661542D01*
X147081102Y-92752548D01*
X147081102Y-92752549D01*
X147240871Y-92912318D01*
X147272965Y-92967905D01*
X147272965Y-93032092D01*
X147240872Y-93087680D01*
X147081102Y-93247451D01*
X147081098Y-93247456D01*
X146990096Y-93338457D01*
X146983432Y-93349999D01*
X146990096Y-93361542D01*
X147081099Y-93452545D01*
X147081101Y-93452548D01*
X147240871Y-93612318D01*
X147272965Y-93667905D01*
X147272965Y-93732092D01*
X147240872Y-93787680D01*
X147081102Y-93947451D01*
X147081101Y-93947451D01*
X146990096Y-94038455D01*
X146983431Y-94050000D01*
X146990095Y-94061542D01*
X147081102Y-94152548D01*
X147081102Y-94152549D01*
X147240872Y-94312319D01*
X147272966Y-94367906D01*
X147272966Y-94432094D01*
X147240872Y-94487681D01*
X147062681Y-94665872D01*
X147007094Y-94697966D01*
X146942906Y-94697966D01*
X146887319Y-94665872D01*
X146727548Y-94506101D01*
X146727547Y-94506101D01*
X146636542Y-94415095D01*
X146624999Y-94408431D01*
X146613455Y-94415096D01*
X146522451Y-94506101D01*
X146522451Y-94506102D01*
X146362680Y-94665872D01*
X146307092Y-94697965D01*
X146242905Y-94697965D01*
X146187318Y-94665871D01*
X146027548Y-94506101D01*
X146027547Y-94506101D01*
X145936542Y-94415095D01*
X145924999Y-94408431D01*
X145913455Y-94415096D01*
X145822451Y-94506101D01*
X145822451Y-94506102D01*
X145662680Y-94665872D01*
X145607092Y-94697965D01*
X145542905Y-94697965D01*
X145487318Y-94665871D01*
X145327548Y-94506101D01*
X145327547Y-94506101D01*
X145236542Y-94415095D01*
X145224999Y-94408431D01*
X145213455Y-94415096D01*
X145122451Y-94506101D01*
X145122451Y-94506102D01*
X144962680Y-94665872D01*
X144907092Y-94697965D01*
X144842905Y-94697965D01*
X144787318Y-94665871D01*
X144627548Y-94506101D01*
X144627547Y-94506101D01*
X144536542Y-94415095D01*
X144524999Y-94408431D01*
X144513455Y-94415096D01*
X144422451Y-94506101D01*
X144422451Y-94506102D01*
X144262680Y-94665872D01*
X144207092Y-94697965D01*
X144142905Y-94697965D01*
X144087318Y-94665871D01*
X143927548Y-94506101D01*
X143927547Y-94506101D01*
X143836542Y-94415095D01*
X143824999Y-94408431D01*
X143813455Y-94415096D01*
X143722451Y-94506101D01*
X143475000Y-94753553D01*
X143086501Y-95142051D01*
X143080592Y-95151837D01*
X143089618Y-95158857D01*
X143204950Y-95210207D01*
X143217249Y-95214203D01*
X143379298Y-95248647D01*
X143392164Y-95250000D01*
X143557836Y-95250000D01*
X143570701Y-95248647D01*
X143732748Y-95214203D01*
X143745048Y-95210206D01*
X143774561Y-95197066D01*
X143825000Y-95186344D01*
X143875439Y-95197066D01*
X143904951Y-95210206D01*
X143917251Y-95214203D01*
X144079298Y-95248647D01*
X144092164Y-95250000D01*
X144257836Y-95250000D01*
X144270701Y-95248647D01*
X144432748Y-95214203D01*
X144445048Y-95210206D01*
X144474561Y-95197066D01*
X144525000Y-95186344D01*
X144575439Y-95197066D01*
X144604951Y-95210206D01*
X144617251Y-95214203D01*
X144779298Y-95248647D01*
X144792164Y-95250000D01*
X144957836Y-95250000D01*
X144970701Y-95248647D01*
X145132748Y-95214203D01*
X145145048Y-95210206D01*
X145174561Y-95197066D01*
X145225000Y-95186344D01*
X145275439Y-95197066D01*
X145304951Y-95210206D01*
X145317251Y-95214203D01*
X145479298Y-95248647D01*
X145492164Y-95250000D01*
X145657836Y-95250000D01*
X145670701Y-95248647D01*
X145832748Y-95214203D01*
X145845048Y-95210206D01*
X145874561Y-95197066D01*
X145925000Y-95186344D01*
X145975439Y-95197066D01*
X146004951Y-95210206D01*
X146017251Y-95214203D01*
X146179298Y-95248647D01*
X146192164Y-95250000D01*
X146357836Y-95250000D01*
X146370701Y-95248647D01*
X146532748Y-95214203D01*
X146545048Y-95210206D01*
X146574561Y-95197066D01*
X146625000Y-95186344D01*
X146675439Y-95197066D01*
X146704951Y-95210206D01*
X146717251Y-95214203D01*
X146879298Y-95248647D01*
X146892164Y-95250000D01*
X147057839Y-95250000D01*
X147064087Y-95249343D01*
X147123902Y-95257853D01*
X147172595Y-95293620D01*
X147198607Y-95348151D01*
X147195762Y-95408502D01*
X147164735Y-95460344D01*
X146781899Y-95843181D01*
X146741671Y-95870061D01*
X146694218Y-95879500D01*
X141209258Y-95879500D01*
X141206147Y-95879816D01*
X141206134Y-95879817D01*
X141063814Y-95894290D01*
X141063811Y-95894290D01*
X141057562Y-95894926D01*
X141051564Y-95896807D01*
X141051563Y-95896808D01*
X140869415Y-95953957D01*
X140869410Y-95953959D01*
X140863412Y-95955841D01*
X140857916Y-95958891D01*
X140857910Y-95958894D01*
X140690997Y-96051538D01*
X140690991Y-96051542D01*
X140685498Y-96054591D01*
X140680733Y-96058680D01*
X140680728Y-96058685D01*
X140535873Y-96183040D01*
X140535868Y-96183044D01*
X140531105Y-96187134D01*
X140527262Y-96192098D01*
X140527255Y-96192106D01*
X140410405Y-96343064D01*
X140406552Y-96348042D01*
X140403784Y-96353683D01*
X140403780Y-96353691D01*
X140319708Y-96525084D01*
X140319704Y-96525092D01*
X140316940Y-96530729D01*
X140315365Y-96536809D01*
X140315364Y-96536814D01*
X140267511Y-96721634D01*
X140265937Y-96727715D01*
X140265619Y-96733982D01*
X140265618Y-96733990D01*
X140255949Y-96924654D01*
X140255949Y-96924659D01*
X140255631Y-96930936D01*
X140000500Y-96930936D01*
X140000500Y-94406460D01*
X142620997Y-94406460D01*
X142638315Y-94571236D01*
X142641003Y-94583878D01*
X142692201Y-94741451D01*
X142697457Y-94753256D01*
X142716214Y-94785744D01*
X142723893Y-94793943D01*
X142733435Y-94788009D01*
X143368898Y-94152548D01*
X143459903Y-94061542D01*
X143466567Y-94050000D01*
X143459903Y-94038457D01*
X143368900Y-93947454D01*
X143368898Y-93947451D01*
X143209127Y-93787680D01*
X143177033Y-93732092D01*
X143177033Y-93667905D01*
X143209127Y-93612317D01*
X143368898Y-93452547D01*
X143368898Y-93452548D01*
X143459903Y-93361542D01*
X143466567Y-93350000D01*
X143459903Y-93338457D01*
X143368900Y-93247454D01*
X143368898Y-93247451D01*
X143209127Y-93087680D01*
X143177033Y-93032092D01*
X143177033Y-92967905D01*
X143209127Y-92912317D01*
X143368898Y-92752547D01*
X143368898Y-92752548D01*
X143459903Y-92661542D01*
X143466567Y-92650000D01*
X143459903Y-92638457D01*
X143368900Y-92547454D01*
X143368898Y-92547451D01*
X142733434Y-91911988D01*
X142723893Y-91906055D01*
X142716215Y-91914253D01*
X142697457Y-91946743D01*
X142692201Y-91958548D01*
X142641003Y-92116121D01*
X142638315Y-92128763D01*
X142620997Y-92293540D01*
X142620997Y-92306460D01*
X142638315Y-92471236D01*
X142641003Y-92483882D01*
X142682528Y-92611683D01*
X142688597Y-92650000D01*
X142682528Y-92688317D01*
X142641003Y-92816117D01*
X142638315Y-92828763D01*
X142620997Y-92993540D01*
X142620997Y-93006460D01*
X142638315Y-93171236D01*
X142641003Y-93183882D01*
X142682528Y-93311683D01*
X142688597Y-93350000D01*
X142682528Y-93388317D01*
X142641003Y-93516117D01*
X142638315Y-93528763D01*
X142620997Y-93693540D01*
X142620997Y-93706460D01*
X142638315Y-93871236D01*
X142641003Y-93883882D01*
X142682528Y-94011683D01*
X142688597Y-94050000D01*
X142682528Y-94088317D01*
X142641003Y-94216117D01*
X142638315Y-94228763D01*
X142620997Y-94393540D01*
X142620997Y-94406460D01*
X140000500Y-94406460D01*
X140000500Y-91548161D01*
X143080592Y-91548161D01*
X143086501Y-91557947D01*
X143475000Y-91946447D01*
X143722451Y-92193898D01*
X143813456Y-92284902D01*
X143825000Y-92291567D01*
X143836542Y-92284903D01*
X143927548Y-92193898D01*
X143927547Y-92193898D01*
X144087317Y-92034127D01*
X144142905Y-92002033D01*
X144207092Y-92002033D01*
X144262680Y-92034127D01*
X144422451Y-92193898D01*
X144513456Y-92284902D01*
X144525000Y-92291567D01*
X144536542Y-92284903D01*
X144627548Y-92193898D01*
X144627547Y-92193898D01*
X144787317Y-92034127D01*
X144842905Y-92002033D01*
X144907092Y-92002033D01*
X144962680Y-92034127D01*
X145122451Y-92193898D01*
X145213456Y-92284902D01*
X145225000Y-92291567D01*
X145236542Y-92284903D01*
X145327548Y-92193898D01*
X145327547Y-92193898D01*
X145487317Y-92034127D01*
X145542905Y-92002033D01*
X145607092Y-92002033D01*
X145662680Y-92034127D01*
X145822451Y-92193898D01*
X145913456Y-92284902D01*
X145925000Y-92291567D01*
X145936542Y-92284903D01*
X146027548Y-92193898D01*
X146027547Y-92193898D01*
X146187317Y-92034127D01*
X146242905Y-92002033D01*
X146307092Y-92002033D01*
X146362680Y-92034127D01*
X146522451Y-92193898D01*
X146613456Y-92284902D01*
X146625000Y-92291567D01*
X146636542Y-92284903D01*
X146727548Y-92193898D01*
X146975000Y-91946447D01*
X147363497Y-91557947D01*
X147369406Y-91548161D01*
X147360381Y-91541141D01*
X147245049Y-91489792D01*
X147232750Y-91485796D01*
X147070701Y-91451352D01*
X147057836Y-91450000D01*
X146892164Y-91450000D01*
X146879298Y-91451352D01*
X146717249Y-91485796D01*
X146704946Y-91489794D01*
X146675433Y-91502934D01*
X146624998Y-91513654D01*
X146574563Y-91502933D01*
X146545053Y-91489794D01*
X146532750Y-91485796D01*
X146370701Y-91451352D01*
X146357836Y-91450000D01*
X146192164Y-91450000D01*
X146179298Y-91451352D01*
X146017249Y-91485796D01*
X146004946Y-91489794D01*
X145975433Y-91502934D01*
X145924998Y-91513654D01*
X145874563Y-91502933D01*
X145845053Y-91489794D01*
X145832750Y-91485796D01*
X145670701Y-91451352D01*
X145657836Y-91450000D01*
X145492164Y-91450000D01*
X145479298Y-91451352D01*
X145317249Y-91485796D01*
X145304946Y-91489794D01*
X145275433Y-91502934D01*
X145224998Y-91513654D01*
X145174563Y-91502933D01*
X145145053Y-91489794D01*
X145132750Y-91485796D01*
X144970701Y-91451352D01*
X144957836Y-91450000D01*
X144792164Y-91450000D01*
X144779298Y-91451352D01*
X144617249Y-91485796D01*
X144604946Y-91489794D01*
X144575433Y-91502934D01*
X144524998Y-91513654D01*
X144474563Y-91502933D01*
X144445053Y-91489794D01*
X144432750Y-91485796D01*
X144270701Y-91451352D01*
X144257836Y-91450000D01*
X144092164Y-91450000D01*
X144079298Y-91451352D01*
X143917249Y-91485796D01*
X143904946Y-91489794D01*
X143875433Y-91502934D01*
X143824998Y-91513654D01*
X143774563Y-91502933D01*
X143745053Y-91489794D01*
X143732750Y-91485796D01*
X143570701Y-91451352D01*
X143557836Y-91450000D01*
X143392164Y-91450000D01*
X143379298Y-91451352D01*
X143217249Y-91485796D01*
X143204950Y-91489793D01*
X143089617Y-91541141D01*
X143080592Y-91548161D01*
X140000500Y-91548161D01*
X140000500Y-89548581D01*
X152405502Y-89548581D01*
X152411413Y-89557859D01*
X153088457Y-90234903D01*
X153099999Y-90241567D01*
X153111542Y-90234903D01*
X153788582Y-89557862D01*
X153794496Y-89548579D01*
X153787065Y-89540470D01*
X153737848Y-89506008D01*
X153728496Y-89500609D01*
X153538180Y-89411864D01*
X153528056Y-89408178D01*
X153325213Y-89353826D01*
X153314581Y-89351952D01*
X153105395Y-89333651D01*
X153094605Y-89333651D01*
X152885418Y-89351952D01*
X152874786Y-89353826D01*
X152671949Y-89408177D01*
X152661815Y-89411865D01*
X152471498Y-89500612D01*
X152462154Y-89506006D01*
X152412936Y-89540468D01*
X152405502Y-89548581D01*
X140000500Y-89548581D01*
X140000500Y-80273167D01*
X140484799Y-80273167D01*
X140485706Y-80279831D01*
X140485707Y-80279833D01*
X140495502Y-80351733D01*
X140495910Y-80355063D01*
X140503758Y-80427224D01*
X140503759Y-80427231D01*
X140504486Y-80433910D01*
X140506632Y-80440281D01*
X140507696Y-80445111D01*
X140508866Y-80449818D01*
X140509773Y-80456468D01*
X140512088Y-80462770D01*
X140512090Y-80462777D01*
X140537113Y-80530891D01*
X140538227Y-80534054D01*
X140561408Y-80602849D01*
X140561411Y-80602856D01*
X140563556Y-80609221D01*
X140567018Y-80614976D01*
X140569092Y-80619458D01*
X140571251Y-80623812D01*
X140573568Y-80630116D01*
X140577186Y-80635777D01*
X140577188Y-80635780D01*
X140616267Y-80696919D01*
X140618036Y-80699771D01*
X140655462Y-80761974D01*
X140655467Y-80761981D01*
X140658930Y-80767736D01*
X140663551Y-80772614D01*
X140666498Y-80776491D01*
X140669576Y-80780321D01*
X140673200Y-80785989D01*
X140677957Y-80790746D01*
X140677958Y-80790747D01*
X140729267Y-80842056D01*
X140731609Y-80844462D01*
X140781525Y-80897158D01*
X140781527Y-80897160D01*
X140786151Y-80902041D01*
X140791716Y-80905814D01*
X140796568Y-80909935D01*
X140803974Y-80916763D01*
X141460598Y-81573387D01*
X141467425Y-81580792D01*
X141497310Y-81615976D01*
X141497313Y-81615979D01*
X141501663Y-81621100D01*
X141564806Y-81669100D01*
X141567366Y-81671101D01*
X141629246Y-81720842D01*
X141635267Y-81723828D01*
X141639371Y-81726451D01*
X141643584Y-81728986D01*
X141648936Y-81733054D01*
X141655040Y-81735878D01*
X141720915Y-81766355D01*
X141723890Y-81767779D01*
X141794979Y-81803036D01*
X141801515Y-81804661D01*
X141806176Y-81806373D01*
X141810725Y-81807905D01*
X141816833Y-81810732D01*
X141894292Y-81827781D01*
X141897545Y-81828543D01*
X141974505Y-81847684D01*
X141981236Y-81847866D01*
X141986041Y-81848521D01*
X141990928Y-81849052D01*
X141997503Y-81850500D01*
X142076773Y-81850500D01*
X142080130Y-81850545D01*
X142159432Y-81852693D01*
X142166042Y-81851424D01*
X142172375Y-81850909D01*
X142182443Y-81850500D01*
X142435501Y-81850500D01*
X142497501Y-81867113D01*
X142542888Y-81912500D01*
X142559501Y-81974500D01*
X142559501Y-82047872D01*
X142559853Y-82051150D01*
X142559854Y-82051161D01*
X142565079Y-82099768D01*
X142565080Y-82099773D01*
X142565909Y-82107483D01*
X142568619Y-82114749D01*
X142568620Y-82114753D01*
X142590006Y-82172090D01*
X142616204Y-82242331D01*
X142621518Y-82249429D01*
X142621519Y-82249431D01*
X142641608Y-82276267D01*
X142702454Y-82357546D01*
X142817669Y-82443796D01*
X142894194Y-82472338D01*
X142924973Y-82483818D01*
X142974184Y-82517467D01*
X143002004Y-82570193D01*
X143002004Y-82629807D01*
X142974184Y-82682533D01*
X142924973Y-82716182D01*
X142825980Y-82753104D01*
X142825978Y-82753104D01*
X142817669Y-82756204D01*
X142810572Y-82761516D01*
X142810568Y-82761519D01*
X142709550Y-82837141D01*
X142709546Y-82837144D01*
X142702454Y-82842454D01*
X142697144Y-82849546D01*
X142697141Y-82849550D01*
X142621519Y-82950568D01*
X142621518Y-82950570D01*
X142616204Y-82957669D01*
X142613104Y-82965978D01*
X142613104Y-82965980D01*
X142568620Y-83085247D01*
X142568619Y-83085250D01*
X142565909Y-83092517D01*
X142565079Y-83100227D01*
X142565079Y-83100232D01*
X142559855Y-83148819D01*
X142559854Y-83148831D01*
X142559500Y-83152127D01*
X142559500Y-83155448D01*
X142559500Y-83155449D01*
X142559500Y-85244560D01*
X142559500Y-85244578D01*
X142559501Y-85247872D01*
X142559853Y-85251150D01*
X142559854Y-85251161D01*
X142565079Y-85299768D01*
X142565080Y-85299773D01*
X142565909Y-85307483D01*
X142568619Y-85314749D01*
X142568620Y-85314753D01*
X142597697Y-85392710D01*
X142616204Y-85442331D01*
X142621518Y-85449429D01*
X142621519Y-85449431D01*
X142627425Y-85457321D01*
X142702454Y-85557546D01*
X142817669Y-85643796D01*
X142952517Y-85694091D01*
X143012127Y-85700500D01*
X143025500Y-85700500D01*
X143087500Y-85717113D01*
X143132887Y-85762500D01*
X143149500Y-85824500D01*
X143149500Y-87100394D01*
X143149091Y-87110458D01*
X143145344Y-87156462D01*
X143145344Y-87156470D01*
X143144799Y-87163167D01*
X143145706Y-87169831D01*
X143145707Y-87169833D01*
X143155502Y-87241733D01*
X143155910Y-87245063D01*
X143163758Y-87317224D01*
X143163759Y-87317231D01*
X143164486Y-87323910D01*
X143166632Y-87330281D01*
X143167696Y-87335111D01*
X143168866Y-87339818D01*
X143169773Y-87346468D01*
X143172088Y-87352770D01*
X143172090Y-87352777D01*
X143197113Y-87420891D01*
X143198227Y-87424054D01*
X143221408Y-87492849D01*
X143221411Y-87492856D01*
X143223556Y-87499221D01*
X143227018Y-87504976D01*
X143229092Y-87509458D01*
X143231251Y-87513812D01*
X143233568Y-87520116D01*
X143237186Y-87525777D01*
X143237188Y-87525780D01*
X143276267Y-87586919D01*
X143278036Y-87589771D01*
X143315462Y-87651974D01*
X143315467Y-87651981D01*
X143318930Y-87657736D01*
X143323551Y-87662614D01*
X143326498Y-87666491D01*
X143329576Y-87670321D01*
X143333200Y-87675989D01*
X143337958Y-87680746D01*
X143337958Y-87680747D01*
X143389266Y-87732055D01*
X143391608Y-87734461D01*
X143446151Y-87792041D01*
X143451714Y-87795813D01*
X143456565Y-87799933D01*
X143463972Y-87806761D01*
X144230593Y-88573381D01*
X144237420Y-88580786D01*
X144271663Y-88621100D01*
X144334807Y-88669101D01*
X144337428Y-88671150D01*
X144399247Y-88720842D01*
X144405273Y-88723830D01*
X144409381Y-88726456D01*
X144413581Y-88728983D01*
X144418936Y-88733054D01*
X144481130Y-88761827D01*
X144490920Y-88766357D01*
X144493949Y-88767809D01*
X144564979Y-88803037D01*
X144571511Y-88804661D01*
X144576142Y-88806362D01*
X144580727Y-88807906D01*
X144586833Y-88810732D01*
X144660000Y-88826837D01*
X144664253Y-88827773D01*
X144667525Y-88828540D01*
X144737976Y-88846061D01*
X144737984Y-88846062D01*
X144744506Y-88847684D01*
X144751225Y-88847865D01*
X144756020Y-88848519D01*
X144760930Y-88849053D01*
X144767503Y-88850500D01*
X144846773Y-88850500D01*
X144850130Y-88850545D01*
X144929432Y-88852693D01*
X144936042Y-88851424D01*
X144942375Y-88850909D01*
X144952443Y-88850500D01*
X158596349Y-88850500D01*
X158643802Y-88859939D01*
X158684030Y-88886819D01*
X159113181Y-89315969D01*
X159140061Y-89356197D01*
X159149500Y-89403650D01*
X159149500Y-89788731D01*
X159135056Y-89846813D01*
X159095089Y-89891363D01*
X159038909Y-89912004D01*
X159022772Y-89913759D01*
X159022769Y-89913759D01*
X159016090Y-89914486D01*
X159009730Y-89916628D01*
X159004961Y-89917678D01*
X159000182Y-89918866D01*
X158993532Y-89919773D01*
X158987224Y-89922090D01*
X158987221Y-89922091D01*
X158919073Y-89947126D01*
X158915912Y-89948239D01*
X158874629Y-89962150D01*
X158840779Y-89973556D01*
X158835027Y-89977015D01*
X158830563Y-89979081D01*
X158826183Y-89981253D01*
X158819884Y-89983568D01*
X158814232Y-89987180D01*
X158814225Y-89987184D01*
X158753059Y-90026280D01*
X158750208Y-90028049D01*
X158688017Y-90065468D01*
X158688013Y-90065470D01*
X158682264Y-90068930D01*
X158677394Y-90073541D01*
X158673504Y-90076499D01*
X158669664Y-90079585D01*
X158664011Y-90083200D01*
X158618371Y-90128838D01*
X158607959Y-90139251D01*
X158605556Y-90141590D01*
X158552833Y-90191533D01*
X158552828Y-90191538D01*
X158547959Y-90196151D01*
X158544192Y-90201706D01*
X158540060Y-90206571D01*
X158533235Y-90213974D01*
X158176610Y-90570599D01*
X158169207Y-90577424D01*
X158134023Y-90607310D01*
X158134016Y-90607317D01*
X158128900Y-90611663D01*
X158124836Y-90617007D01*
X158124832Y-90617013D01*
X158080923Y-90674772D01*
X158078858Y-90677413D01*
X158033367Y-90734008D01*
X158033361Y-90734016D01*
X158029158Y-90739246D01*
X158026177Y-90745254D01*
X158023557Y-90749354D01*
X158021005Y-90753594D01*
X158016946Y-90758936D01*
X158014128Y-90765026D01*
X158014123Y-90765035D01*
X157983642Y-90830917D01*
X157982194Y-90833939D01*
X157949951Y-90898954D01*
X157949948Y-90898961D01*
X157946964Y-90904979D01*
X157945343Y-90911495D01*
X157943635Y-90916145D01*
X157942086Y-90920739D01*
X157939268Y-90926833D01*
X157937824Y-90933390D01*
X157937820Y-90933404D01*
X157922218Y-91004282D01*
X157921453Y-91007549D01*
X157903936Y-91077986D01*
X157903934Y-91077996D01*
X157902316Y-91084505D01*
X157902133Y-91091214D01*
X157901475Y-91096050D01*
X157900943Y-91100944D01*
X157899500Y-91107503D01*
X157899500Y-91114223D01*
X157899500Y-91186773D01*
X157899454Y-91190130D01*
X157897307Y-91269432D01*
X157898574Y-91276039D01*
X157899091Y-91282375D01*
X157899500Y-91292443D01*
X157899500Y-96360389D01*
X157899091Y-96370452D01*
X157895344Y-96416461D01*
X157895344Y-96416470D01*
X157894799Y-96423167D01*
X157895706Y-96429831D01*
X157895707Y-96429833D01*
X157905502Y-96501733D01*
X157905910Y-96505063D01*
X157913758Y-96577224D01*
X157913759Y-96577231D01*
X157914486Y-96583910D01*
X157916632Y-96590281D01*
X157917696Y-96595111D01*
X157918866Y-96599818D01*
X157919773Y-96606468D01*
X157922088Y-96612770D01*
X157922090Y-96612777D01*
X157947113Y-96680891D01*
X157948227Y-96684054D01*
X157971408Y-96752849D01*
X157971411Y-96752856D01*
X157973556Y-96759221D01*
X157977018Y-96764976D01*
X157979092Y-96769458D01*
X157981251Y-96773812D01*
X157983568Y-96780116D01*
X157987186Y-96785777D01*
X157987188Y-96785780D01*
X158026267Y-96846919D01*
X158028036Y-96849771D01*
X158065462Y-96911974D01*
X158065467Y-96911981D01*
X158068930Y-96917736D01*
X158073551Y-96922614D01*
X158076498Y-96926491D01*
X158079576Y-96930321D01*
X158083200Y-96935989D01*
X158087958Y-96940747D01*
X158139266Y-96992055D01*
X158141608Y-96994461D01*
X158185131Y-97040408D01*
X158196151Y-97052041D01*
X158201714Y-97055813D01*
X158206565Y-97059933D01*
X158213972Y-97066761D01*
X159050593Y-97903381D01*
X159057420Y-97910786D01*
X159091663Y-97951100D01*
X159154807Y-97999101D01*
X159157428Y-98001150D01*
X159219247Y-98050842D01*
X159225273Y-98053830D01*
X159229381Y-98056456D01*
X159233581Y-98058983D01*
X159238936Y-98063054D01*
X159289228Y-98086321D01*
X159310920Y-98096357D01*
X159313949Y-98097809D01*
X159333049Y-98107282D01*
X159384979Y-98133037D01*
X159391511Y-98134661D01*
X159396142Y-98136362D01*
X159400727Y-98137906D01*
X159406833Y-98140732D01*
X159480000Y-98156837D01*
X159484253Y-98157773D01*
X159487525Y-98158540D01*
X159557976Y-98176061D01*
X159557984Y-98176062D01*
X159564506Y-98177684D01*
X159571225Y-98177865D01*
X159576020Y-98178519D01*
X159580930Y-98179053D01*
X159587503Y-98180500D01*
X159666774Y-98180500D01*
X159670131Y-98180545D01*
X159749433Y-98182693D01*
X159756043Y-98181424D01*
X159762376Y-98180909D01*
X159772444Y-98180500D01*
X168936349Y-98180500D01*
X168983802Y-98189939D01*
X169024030Y-98216819D01*
X169387142Y-98579930D01*
X169419674Y-98637198D01*
X169418290Y-98703047D01*
X168262838Y-102577669D01*
X168250923Y-102617624D01*
X168250426Y-102619898D01*
X168250424Y-102619908D01*
X168235290Y-102689227D01*
X168235286Y-102689244D01*
X168234794Y-102691502D01*
X168234470Y-102693793D01*
X168234469Y-102693804D01*
X168232840Y-102705358D01*
X168229631Y-102728117D01*
X168229479Y-102730428D01*
X168229479Y-102730438D01*
X168224853Y-102801238D01*
X168224852Y-102801255D01*
X168224702Y-102803559D01*
X168224724Y-102805874D01*
X168224724Y-102805884D01*
X168239617Y-104354641D01*
X168243334Y-104741220D01*
X168243899Y-104745224D01*
X168243900Y-104745232D01*
X168248282Y-104776262D01*
X168249500Y-104793599D01*
X168249500Y-108364560D01*
X168249500Y-108364578D01*
X168249501Y-108367872D01*
X168249853Y-108371150D01*
X168249854Y-108371161D01*
X168255079Y-108419768D01*
X168255080Y-108419773D01*
X168255909Y-108427483D01*
X168258619Y-108434749D01*
X168258620Y-108434753D01*
X168284455Y-108504019D01*
X168306204Y-108562331D01*
X168311518Y-108569430D01*
X168311519Y-108569431D01*
X168376994Y-108656895D01*
X168392454Y-108677546D01*
X168507669Y-108763796D01*
X168642517Y-108814091D01*
X168702127Y-108820500D01*
X171797872Y-108820499D01*
X171857483Y-108814091D01*
X171992331Y-108763796D01*
X172107546Y-108677546D01*
X172193796Y-108562331D01*
X172244091Y-108427483D01*
X172250500Y-108367873D01*
X172250500Y-108314578D01*
X180039500Y-108314578D01*
X180039501Y-108317872D01*
X180039853Y-108321150D01*
X180039854Y-108321161D01*
X180045079Y-108369768D01*
X180045080Y-108369773D01*
X180045909Y-108377483D01*
X180048619Y-108384749D01*
X180048620Y-108384753D01*
X180067269Y-108434752D01*
X180096204Y-108512331D01*
X180101518Y-108519430D01*
X180101519Y-108519431D01*
X180141514Y-108572858D01*
X180182454Y-108627546D01*
X180297669Y-108713796D01*
X180432517Y-108764091D01*
X180492127Y-108770500D01*
X184087872Y-108770499D01*
X184147483Y-108764091D01*
X184282331Y-108713796D01*
X184397546Y-108627546D01*
X184483796Y-108512331D01*
X184534091Y-108377483D01*
X184540500Y-108317873D01*
X184540500Y-108314578D01*
X185119500Y-108314578D01*
X185119501Y-108317872D01*
X185119853Y-108321150D01*
X185119854Y-108321161D01*
X185125079Y-108369768D01*
X185125080Y-108369773D01*
X185125909Y-108377483D01*
X185128619Y-108384749D01*
X185128620Y-108384753D01*
X185147269Y-108434752D01*
X185176204Y-108512331D01*
X185181518Y-108519430D01*
X185181519Y-108519431D01*
X185221514Y-108572858D01*
X185262454Y-108627546D01*
X185377669Y-108713796D01*
X185512517Y-108764091D01*
X185572127Y-108770500D01*
X189167872Y-108770499D01*
X189227483Y-108764091D01*
X189362331Y-108713796D01*
X189477546Y-108627546D01*
X189563796Y-108512331D01*
X189614091Y-108377483D01*
X189620500Y-108317873D01*
X189620499Y-101222128D01*
X189614091Y-101162517D01*
X189563796Y-101027669D01*
X189477546Y-100912454D01*
X189406875Y-100859550D01*
X189369431Y-100831519D01*
X189369430Y-100831518D01*
X189362331Y-100826204D01*
X189227483Y-100775909D01*
X189219770Y-100775079D01*
X189219767Y-100775079D01*
X189171180Y-100769855D01*
X189171169Y-100769854D01*
X189167873Y-100769500D01*
X189164550Y-100769500D01*
X185575439Y-100769500D01*
X185575420Y-100769500D01*
X185572128Y-100769501D01*
X185568850Y-100769853D01*
X185568838Y-100769854D01*
X185520231Y-100775079D01*
X185520225Y-100775080D01*
X185512517Y-100775909D01*
X185505252Y-100778618D01*
X185505246Y-100778620D01*
X185385980Y-100823104D01*
X185385978Y-100823104D01*
X185377669Y-100826204D01*
X185370572Y-100831516D01*
X185370568Y-100831519D01*
X185269550Y-100907141D01*
X185269546Y-100907144D01*
X185262454Y-100912454D01*
X185257144Y-100919546D01*
X185257141Y-100919550D01*
X185181519Y-101020568D01*
X185181516Y-101020572D01*
X185176204Y-101027669D01*
X185173104Y-101035978D01*
X185173104Y-101035980D01*
X185128620Y-101155247D01*
X185128619Y-101155250D01*
X185125909Y-101162517D01*
X185125079Y-101170227D01*
X185125079Y-101170232D01*
X185119855Y-101218819D01*
X185119854Y-101218831D01*
X185119500Y-101222127D01*
X185119500Y-101225448D01*
X185119500Y-101225449D01*
X185119500Y-108314560D01*
X185119500Y-108314578D01*
X184540500Y-108314578D01*
X184540499Y-101222128D01*
X184534091Y-101162517D01*
X184483796Y-101027669D01*
X184397546Y-100912454D01*
X184326875Y-100859550D01*
X184289431Y-100831519D01*
X184289430Y-100831518D01*
X184282331Y-100826204D01*
X184147483Y-100775909D01*
X184139770Y-100775079D01*
X184139767Y-100775079D01*
X184091180Y-100769855D01*
X184091169Y-100769854D01*
X184087873Y-100769500D01*
X184084550Y-100769500D01*
X180495439Y-100769500D01*
X180495420Y-100769500D01*
X180492128Y-100769501D01*
X180488850Y-100769853D01*
X180488838Y-100769854D01*
X180440231Y-100775079D01*
X180440225Y-100775080D01*
X180432517Y-100775909D01*
X180425252Y-100778618D01*
X180425246Y-100778620D01*
X180305980Y-100823104D01*
X180305978Y-100823104D01*
X180297669Y-100826204D01*
X180290572Y-100831516D01*
X180290568Y-100831519D01*
X180189550Y-100907141D01*
X180189546Y-100907144D01*
X180182454Y-100912454D01*
X180177144Y-100919546D01*
X180177141Y-100919550D01*
X180101519Y-101020568D01*
X180101516Y-101020572D01*
X180096204Y-101027669D01*
X180093104Y-101035978D01*
X180093104Y-101035980D01*
X180048620Y-101155247D01*
X180048619Y-101155250D01*
X180045909Y-101162517D01*
X180045079Y-101170227D01*
X180045079Y-101170232D01*
X180039855Y-101218819D01*
X180039854Y-101218831D01*
X180039500Y-101222127D01*
X180039500Y-101225448D01*
X180039500Y-101225449D01*
X180039500Y-108314560D01*
X180039500Y-108314578D01*
X172250500Y-108314578D01*
X172250499Y-103419712D01*
X172250536Y-103416675D01*
X172260788Y-102998381D01*
X172260878Y-102994726D01*
X172251040Y-102889822D01*
X172250499Y-102878246D01*
X172250499Y-102775439D01*
X172250499Y-102772128D01*
X172244091Y-102712517D01*
X172197879Y-102588616D01*
X172191752Y-102565684D01*
X171617292Y-99118925D01*
X171621520Y-99060701D01*
X171651920Y-99010866D01*
X171985971Y-98676816D01*
X172026197Y-98649939D01*
X172073650Y-98640500D01*
X180247471Y-98640500D01*
X180297906Y-98651220D01*
X180314262Y-98658502D01*
X180314265Y-98658503D01*
X180320197Y-98661144D01*
X180505354Y-98700500D01*
X180688143Y-98700500D01*
X180694646Y-98700500D01*
X180879803Y-98661144D01*
X181052730Y-98584151D01*
X181205871Y-98472888D01*
X181332533Y-98332216D01*
X181427179Y-98168284D01*
X181485674Y-97988256D01*
X181505460Y-97800000D01*
X181485674Y-97611744D01*
X181427179Y-97431716D01*
X181332533Y-97267784D01*
X181324075Y-97258391D01*
X181262496Y-97190000D01*
X184659533Y-97190000D01*
X184659822Y-97194225D01*
X184664211Y-97258391D01*
X184664500Y-97266853D01*
X184664500Y-97335388D01*
X184665076Y-97339580D01*
X184665077Y-97339592D01*
X184673830Y-97403280D01*
X184674696Y-97411698D01*
X184677685Y-97455388D01*
X184679376Y-97480099D01*
X184680235Y-97484233D01*
X184680236Y-97484240D01*
X184693324Y-97547226D01*
X184694762Y-97555567D01*
X184702421Y-97611286D01*
X184704094Y-97623456D01*
X184705237Y-97627535D01*
X184705239Y-97627545D01*
X184722584Y-97689453D01*
X184724588Y-97697675D01*
X184738536Y-97764793D01*
X184744885Y-97782657D01*
X184761490Y-97829380D01*
X184764050Y-97837448D01*
X184781398Y-97899364D01*
X184781403Y-97899379D01*
X184782544Y-97903450D01*
X184784228Y-97907328D01*
X184784231Y-97907335D01*
X184785730Y-97910786D01*
X184809852Y-97966320D01*
X184809853Y-97966321D01*
X184812959Y-97974198D01*
X184834489Y-98034778D01*
X184834491Y-98034783D01*
X184835912Y-98038780D01*
X184866107Y-98097055D01*
X184867445Y-98099636D01*
X184871077Y-98107273D01*
X184898390Y-98170153D01*
X184934004Y-98228718D01*
X184934005Y-98228720D01*
X184938153Y-98236098D01*
X184969688Y-98296956D01*
X185009214Y-98352951D01*
X185013854Y-98360025D01*
X185049473Y-98418598D01*
X185089710Y-98468057D01*
X185092728Y-98471766D01*
X185097843Y-98478511D01*
X185134927Y-98531048D01*
X185134931Y-98531053D01*
X185137373Y-98534512D01*
X185183732Y-98584151D01*
X185184154Y-98584602D01*
X185189713Y-98590977D01*
X185232978Y-98644157D01*
X185236071Y-98647045D01*
X185236076Y-98647051D01*
X185283070Y-98690940D01*
X185289058Y-98696928D01*
X185332950Y-98743925D01*
X185335843Y-98747022D01*
X185339116Y-98749685D01*
X185339127Y-98749695D01*
X185389014Y-98790281D01*
X185395395Y-98795845D01*
X185442387Y-98839732D01*
X185442396Y-98839739D01*
X185445488Y-98842627D01*
X185501491Y-98882158D01*
X185508219Y-98887260D01*
X185558112Y-98927852D01*
X185558126Y-98927862D01*
X185561402Y-98930527D01*
X185609428Y-98959732D01*
X185619961Y-98966137D01*
X185627040Y-98970781D01*
X185679573Y-99007863D01*
X185679580Y-99007867D01*
X185683044Y-99010312D01*
X185743910Y-99041850D01*
X185751279Y-99045994D01*
X185809847Y-99081610D01*
X185872735Y-99108926D01*
X185880357Y-99112551D01*
X185892664Y-99118928D01*
X185937452Y-99142136D01*
X185937457Y-99142138D01*
X185941220Y-99144088D01*
X185945218Y-99145508D01*
X185945216Y-99145508D01*
X186005795Y-99167038D01*
X186013672Y-99170144D01*
X186076550Y-99197456D01*
X186142548Y-99215947D01*
X186150604Y-99218503D01*
X186215207Y-99241464D01*
X186282333Y-99255412D01*
X186290535Y-99257411D01*
X186356544Y-99275906D01*
X186424445Y-99285238D01*
X186432766Y-99286673D01*
X186499901Y-99300624D01*
X186568280Y-99305301D01*
X186568295Y-99305302D01*
X186576717Y-99306167D01*
X186644612Y-99315500D01*
X186717384Y-99315500D01*
X186931151Y-99315500D01*
X186935388Y-99315500D01*
X187003316Y-99306163D01*
X187011680Y-99305303D01*
X187080099Y-99300624D01*
X187147242Y-99286670D01*
X187155548Y-99285239D01*
X187223456Y-99275906D01*
X187289450Y-99257414D01*
X187297658Y-99255414D01*
X187364793Y-99241464D01*
X187429385Y-99218506D01*
X187437422Y-99215954D01*
X187503450Y-99197456D01*
X187566341Y-99170137D01*
X187574187Y-99167043D01*
X187638780Y-99144088D01*
X187699657Y-99112542D01*
X187707273Y-99108922D01*
X187707287Y-99108916D01*
X187770153Y-99081610D01*
X187828726Y-99045990D01*
X187836074Y-99041858D01*
X187896956Y-99010312D01*
X187952972Y-98970770D01*
X187960025Y-98966145D01*
X187961796Y-98965068D01*
X188018598Y-98930527D01*
X188071779Y-98887260D01*
X188078509Y-98882158D01*
X188104339Y-98863925D01*
X188134512Y-98842627D01*
X188184632Y-98795817D01*
X188190983Y-98790281D01*
X188244157Y-98747022D01*
X188290949Y-98696918D01*
X188296918Y-98690949D01*
X188347022Y-98644157D01*
X188390286Y-98590976D01*
X188395817Y-98584632D01*
X188442627Y-98534512D01*
X188481084Y-98480030D01*
X188482158Y-98478509D01*
X188487260Y-98471779D01*
X188530527Y-98418598D01*
X188566147Y-98360021D01*
X188570770Y-98352972D01*
X188610312Y-98296956D01*
X188641858Y-98236074D01*
X188645995Y-98228718D01*
X188646869Y-98227282D01*
X188681610Y-98170153D01*
X188708923Y-98107269D01*
X188712542Y-98099657D01*
X188744088Y-98038780D01*
X188767043Y-97974187D01*
X188770146Y-97966321D01*
X188797456Y-97903450D01*
X188815954Y-97837422D01*
X188818507Y-97829384D01*
X188826804Y-97806040D01*
X188841464Y-97764793D01*
X188855414Y-97697658D01*
X188857417Y-97689442D01*
X188861307Y-97675561D01*
X188875906Y-97623456D01*
X188885239Y-97555548D01*
X188886674Y-97547226D01*
X188900624Y-97480099D01*
X188905303Y-97411680D01*
X188906163Y-97403316D01*
X188915500Y-97335388D01*
X188915500Y-97266853D01*
X188915789Y-97258391D01*
X188920178Y-97194225D01*
X188920467Y-97190000D01*
X188915789Y-97121609D01*
X188915500Y-97113147D01*
X188915500Y-97048849D01*
X188915500Y-97044612D01*
X188906167Y-96976717D01*
X188905302Y-96968295D01*
X188904576Y-96957678D01*
X188900624Y-96899901D01*
X188886673Y-96832766D01*
X188885237Y-96824437D01*
X188883329Y-96810555D01*
X188875906Y-96756544D01*
X188857411Y-96690535D01*
X188855412Y-96682333D01*
X188841464Y-96615207D01*
X188818503Y-96550604D01*
X188815944Y-96542539D01*
X188812635Y-96530729D01*
X188797456Y-96476550D01*
X188770144Y-96413672D01*
X188767038Y-96405795D01*
X188748520Y-96353691D01*
X188744088Y-96341220D01*
X188740205Y-96333727D01*
X188712554Y-96280363D01*
X188708924Y-96272730D01*
X188681610Y-96209847D01*
X188645994Y-96151278D01*
X188641847Y-96143904D01*
X188610312Y-96083044D01*
X188607869Y-96079584D01*
X188607863Y-96079573D01*
X188570781Y-96027040D01*
X188566137Y-96019961D01*
X188566134Y-96019956D01*
X188530527Y-95961402D01*
X188527862Y-95958126D01*
X188527852Y-95958112D01*
X188487260Y-95908219D01*
X188482158Y-95901491D01*
X188442627Y-95845488D01*
X188439739Y-95842396D01*
X188439732Y-95842387D01*
X188395845Y-95795395D01*
X188390281Y-95789014D01*
X188349695Y-95739127D01*
X188349685Y-95739116D01*
X188347022Y-95735843D01*
X188343930Y-95732955D01*
X188343927Y-95732952D01*
X188296928Y-95689058D01*
X188290940Y-95683070D01*
X188247051Y-95636076D01*
X188247045Y-95636071D01*
X188244157Y-95632978D01*
X188190977Y-95589713D01*
X188184607Y-95584158D01*
X188134512Y-95537373D01*
X188131055Y-95534933D01*
X188131048Y-95534927D01*
X188078511Y-95497843D01*
X188071766Y-95492728D01*
X188021884Y-95452146D01*
X188021880Y-95452143D01*
X188018598Y-95449473D01*
X187960028Y-95413856D01*
X187952960Y-95409219D01*
X187896956Y-95369688D01*
X187893191Y-95367737D01*
X187836098Y-95338153D01*
X187828720Y-95334005D01*
X187770153Y-95298390D01*
X187707277Y-95271078D01*
X187699636Y-95267445D01*
X187699626Y-95267440D01*
X187655524Y-95244588D01*
X187642544Y-95237862D01*
X187642540Y-95237860D01*
X187638780Y-95235912D01*
X187634786Y-95234492D01*
X187634778Y-95234489D01*
X187574198Y-95212959D01*
X187566329Y-95209856D01*
X187512199Y-95186344D01*
X187507335Y-95184231D01*
X187507328Y-95184228D01*
X187503450Y-95182544D01*
X187499379Y-95181403D01*
X187499364Y-95181398D01*
X187437448Y-95164050D01*
X187429380Y-95161490D01*
X187391815Y-95148140D01*
X187364793Y-95138536D01*
X187360640Y-95137673D01*
X187297675Y-95124588D01*
X187289453Y-95122584D01*
X187227545Y-95105239D01*
X187227536Y-95105237D01*
X187223456Y-95104094D01*
X187219259Y-95103517D01*
X187219254Y-95103516D01*
X187155567Y-95094762D01*
X187147226Y-95093324D01*
X187084240Y-95080236D01*
X187084233Y-95080235D01*
X187080099Y-95079376D01*
X187075885Y-95079087D01*
X187075880Y-95079087D01*
X187011698Y-95074696D01*
X187003280Y-95073830D01*
X186939592Y-95065077D01*
X186939580Y-95065076D01*
X186935388Y-95064500D01*
X186644612Y-95064500D01*
X186640419Y-95065076D01*
X186640408Y-95065077D01*
X186576720Y-95073830D01*
X186568302Y-95074696D01*
X186504121Y-95079087D01*
X186504116Y-95079087D01*
X186499901Y-95079376D01*
X186495760Y-95080236D01*
X186495756Y-95080237D01*
X186432776Y-95093323D01*
X186424437Y-95094761D01*
X186360739Y-95103517D01*
X186360733Y-95103518D01*
X186356544Y-95104094D01*
X186352468Y-95105235D01*
X186352458Y-95105238D01*
X186290550Y-95122583D01*
X186282328Y-95124587D01*
X186219355Y-95137673D01*
X186219341Y-95137676D01*
X186215207Y-95138536D01*
X186211229Y-95139949D01*
X186211221Y-95139952D01*
X186167724Y-95155411D01*
X186150620Y-95161490D01*
X186142559Y-95164049D01*
X186080623Y-95181402D01*
X186080612Y-95181405D01*
X186076550Y-95182544D01*
X186072677Y-95184225D01*
X186072655Y-95184234D01*
X186013666Y-95209856D01*
X186005795Y-95212960D01*
X185945208Y-95234494D01*
X185945200Y-95234497D01*
X185941220Y-95235912D01*
X185937476Y-95237851D01*
X185937462Y-95237858D01*
X185880370Y-95267440D01*
X185872730Y-95271074D01*
X185813727Y-95296704D01*
X185813719Y-95296707D01*
X185809847Y-95298390D01*
X185806239Y-95300583D01*
X185806237Y-95300585D01*
X185751278Y-95334005D01*
X185743903Y-95338151D01*
X185686804Y-95367739D01*
X185686796Y-95367743D01*
X185683044Y-95369688D01*
X185679601Y-95372118D01*
X185679585Y-95372128D01*
X185627031Y-95409224D01*
X185619958Y-95413863D01*
X185561402Y-95449473D01*
X185558113Y-95452148D01*
X185558104Y-95452155D01*
X185508222Y-95492736D01*
X185501478Y-95497850D01*
X185448954Y-95534926D01*
X185448953Y-95534927D01*
X185445488Y-95537373D01*
X185442394Y-95540262D01*
X185442386Y-95540269D01*
X185395391Y-95584157D01*
X185389014Y-95589717D01*
X185339138Y-95630295D01*
X185339119Y-95630312D01*
X185335843Y-95632978D01*
X185332952Y-95636073D01*
X185332946Y-95636079D01*
X185289055Y-95683073D01*
X185283073Y-95689055D01*
X185236079Y-95732946D01*
X185236073Y-95732952D01*
X185232978Y-95735843D01*
X185230312Y-95739119D01*
X185230295Y-95739138D01*
X185189717Y-95789014D01*
X185184157Y-95795391D01*
X185140269Y-95842386D01*
X185140262Y-95842394D01*
X185137373Y-95845488D01*
X185134928Y-95848950D01*
X185134926Y-95848954D01*
X185097850Y-95901478D01*
X185092736Y-95908222D01*
X185052155Y-95958104D01*
X185052148Y-95958113D01*
X185049473Y-95961402D01*
X185028221Y-95996349D01*
X185013865Y-96019956D01*
X185009224Y-96027031D01*
X184972128Y-96079585D01*
X184972118Y-96079601D01*
X184969688Y-96083044D01*
X184967743Y-96086796D01*
X184967739Y-96086804D01*
X184938151Y-96143903D01*
X184934005Y-96151278D01*
X184900585Y-96206237D01*
X184898390Y-96209847D01*
X184896707Y-96213719D01*
X184896704Y-96213727D01*
X184871074Y-96272730D01*
X184867440Y-96280370D01*
X184837858Y-96337462D01*
X184837851Y-96337476D01*
X184835912Y-96341220D01*
X184834497Y-96345200D01*
X184834494Y-96345208D01*
X184812960Y-96405795D01*
X184809856Y-96413666D01*
X184784234Y-96472655D01*
X184784225Y-96472677D01*
X184782544Y-96476550D01*
X184781405Y-96480612D01*
X184781402Y-96480623D01*
X184764049Y-96542559D01*
X184761488Y-96550627D01*
X184739952Y-96611221D01*
X184739951Y-96611225D01*
X184738536Y-96615207D01*
X184737676Y-96619341D01*
X184737673Y-96619355D01*
X184724587Y-96682328D01*
X184722583Y-96690550D01*
X184705238Y-96752458D01*
X184705235Y-96752468D01*
X184704094Y-96756544D01*
X184703518Y-96760733D01*
X184703517Y-96760739D01*
X184694761Y-96824437D01*
X184693323Y-96832776D01*
X184680239Y-96895747D01*
X184679376Y-96899901D01*
X184679087Y-96904116D01*
X184679087Y-96904121D01*
X184674696Y-96968302D01*
X184673830Y-96976720D01*
X184665077Y-97040408D01*
X184665077Y-97040414D01*
X184664500Y-97044612D01*
X184664500Y-97048849D01*
X184664500Y-97048851D01*
X184664500Y-97113147D01*
X184664210Y-97121609D01*
X184659533Y-97190000D01*
X181262496Y-97190000D01*
X181210220Y-97131942D01*
X181210219Y-97131941D01*
X181205871Y-97127112D01*
X181200613Y-97123292D01*
X181200611Y-97123290D01*
X181057988Y-97019669D01*
X181057987Y-97019668D01*
X181052730Y-97015849D01*
X181046792Y-97013205D01*
X180885745Y-96941501D01*
X180885740Y-96941499D01*
X180879803Y-96938856D01*
X180873444Y-96937504D01*
X180873440Y-96937503D01*
X180701008Y-96900852D01*
X180701005Y-96900851D01*
X180694646Y-96899500D01*
X180505354Y-96899500D01*
X180498995Y-96900851D01*
X180498991Y-96900852D01*
X180329917Y-96936790D01*
X180304136Y-96939500D01*
X171709606Y-96939500D01*
X171699542Y-96939091D01*
X171653537Y-96935344D01*
X171653528Y-96935344D01*
X171646833Y-96934799D01*
X171640169Y-96935706D01*
X171640165Y-96935707D01*
X171568265Y-96945502D01*
X171564936Y-96945910D01*
X171492771Y-96953759D01*
X171492767Y-96953759D01*
X171486090Y-96954486D01*
X171479730Y-96956628D01*
X171474961Y-96957678D01*
X171470182Y-96958866D01*
X171463532Y-96959773D01*
X171457224Y-96962090D01*
X171457221Y-96962091D01*
X171389073Y-96987126D01*
X171385912Y-96988239D01*
X171324098Y-97009068D01*
X171310779Y-97013556D01*
X171305027Y-97017015D01*
X171300563Y-97019081D01*
X171296183Y-97021253D01*
X171289884Y-97023568D01*
X171284232Y-97027180D01*
X171284225Y-97027184D01*
X171223059Y-97066280D01*
X171220208Y-97068049D01*
X171158017Y-97105468D01*
X171158013Y-97105470D01*
X171152264Y-97108930D01*
X171147394Y-97113541D01*
X171143504Y-97116499D01*
X171139664Y-97119585D01*
X171134011Y-97123200D01*
X171129262Y-97127948D01*
X171129263Y-97127948D01*
X171077959Y-97179251D01*
X171075556Y-97181590D01*
X171022833Y-97231533D01*
X171022828Y-97231538D01*
X171017959Y-97236151D01*
X171014192Y-97241706D01*
X171010060Y-97246571D01*
X171003235Y-97253974D01*
X170822680Y-97434529D01*
X170767093Y-97466623D01*
X170702905Y-97466623D01*
X170647318Y-97434529D01*
X169969400Y-96756611D01*
X169962573Y-96749206D01*
X169928337Y-96708900D01*
X169929013Y-96708324D01*
X169898386Y-96658067D01*
X169897285Y-96593078D01*
X169929211Y-96536460D01*
X169985391Y-96503771D01*
X170033450Y-96490894D01*
X170233662Y-96397534D01*
X170414620Y-96270826D01*
X170570826Y-96114620D01*
X170697534Y-95933662D01*
X170790894Y-95733450D01*
X170848070Y-95520068D01*
X170867323Y-95300000D01*
X170848070Y-95079932D01*
X170790894Y-94866550D01*
X170697534Y-94666339D01*
X170570826Y-94485380D01*
X170414620Y-94329174D01*
X170342186Y-94278455D01*
X170238096Y-94205570D01*
X170238090Y-94205566D01*
X170233662Y-94202466D01*
X170228757Y-94200178D01*
X170228754Y-94200177D01*
X170065129Y-94123878D01*
X170033450Y-94109106D01*
X170028235Y-94107708D01*
X170028228Y-94107706D01*
X169825300Y-94053331D01*
X169825289Y-94053329D01*
X169820068Y-94051930D01*
X169814676Y-94051458D01*
X169814669Y-94051457D01*
X169605395Y-94033149D01*
X169600000Y-94032677D01*
X169594605Y-94033149D01*
X169385330Y-94051457D01*
X169385321Y-94051458D01*
X169379932Y-94051930D01*
X169374711Y-94053328D01*
X169374699Y-94053331D01*
X169171777Y-94107705D01*
X169171772Y-94107706D01*
X169166550Y-94109106D01*
X169161654Y-94111388D01*
X169161643Y-94111393D01*
X168971249Y-94200176D01*
X168971245Y-94200178D01*
X168966339Y-94202466D01*
X168961906Y-94205569D01*
X168961899Y-94205574D01*
X168789815Y-94326068D01*
X168789810Y-94326071D01*
X168785380Y-94329174D01*
X168781556Y-94332997D01*
X168781550Y-94333003D01*
X168633003Y-94481550D01*
X168632997Y-94481556D01*
X168629174Y-94485380D01*
X168626071Y-94489810D01*
X168626068Y-94489815D01*
X168505574Y-94661899D01*
X168505569Y-94661906D01*
X168502466Y-94666339D01*
X168500178Y-94671245D01*
X168500176Y-94671249D01*
X168411393Y-94861643D01*
X168411388Y-94861654D01*
X168409106Y-94866550D01*
X168407706Y-94871772D01*
X168407705Y-94871777D01*
X168389970Y-94937965D01*
X168351930Y-95079932D01*
X168351458Y-95085321D01*
X168351457Y-95085330D01*
X168335525Y-95267445D01*
X168332677Y-95300000D01*
X168333149Y-95305395D01*
X168351457Y-95514669D01*
X168351458Y-95514676D01*
X168351930Y-95520068D01*
X168353329Y-95525289D01*
X168353331Y-95525300D01*
X168407706Y-95728228D01*
X168407708Y-95728235D01*
X168409106Y-95733450D01*
X168417247Y-95750909D01*
X168490601Y-95908219D01*
X168502466Y-95933662D01*
X168505566Y-95938090D01*
X168505570Y-95938096D01*
X168587141Y-96054591D01*
X168629174Y-96114620D01*
X168633003Y-96118449D01*
X168782373Y-96267819D01*
X168812623Y-96317182D01*
X168817165Y-96374898D01*
X168795010Y-96428385D01*
X168750987Y-96465985D01*
X168694692Y-96479500D01*
X160083651Y-96479500D01*
X160036198Y-96470061D01*
X159995970Y-96443181D01*
X159636819Y-96084030D01*
X159609939Y-96043802D01*
X159600500Y-95996349D01*
X159600500Y-95391837D01*
X160915592Y-95391837D01*
X160924618Y-95398857D01*
X161039950Y-95450207D01*
X161052249Y-95454203D01*
X161214298Y-95488647D01*
X161227164Y-95490000D01*
X161392836Y-95490000D01*
X161405701Y-95488647D01*
X161567748Y-95454203D01*
X161580048Y-95450206D01*
X161609561Y-95437066D01*
X161660000Y-95426344D01*
X161710439Y-95437066D01*
X161739951Y-95450206D01*
X161752251Y-95454203D01*
X161914298Y-95488647D01*
X161927164Y-95490000D01*
X162092836Y-95490000D01*
X162105701Y-95488647D01*
X162267748Y-95454203D01*
X162280048Y-95450206D01*
X162309561Y-95437066D01*
X162360000Y-95426344D01*
X162410439Y-95437066D01*
X162439951Y-95450206D01*
X162452251Y-95454203D01*
X162614298Y-95488647D01*
X162627164Y-95490000D01*
X162792836Y-95490000D01*
X162805701Y-95488647D01*
X162967748Y-95454203D01*
X162980048Y-95450206D01*
X163009561Y-95437066D01*
X163060000Y-95426344D01*
X163110439Y-95437066D01*
X163139951Y-95450206D01*
X163152251Y-95454203D01*
X163314298Y-95488647D01*
X163327164Y-95490000D01*
X163492836Y-95490000D01*
X163505701Y-95488647D01*
X163667748Y-95454203D01*
X163680048Y-95450206D01*
X163709561Y-95437066D01*
X163760000Y-95426344D01*
X163810439Y-95437066D01*
X163839951Y-95450206D01*
X163852251Y-95454203D01*
X164014298Y-95488647D01*
X164027164Y-95490000D01*
X164192836Y-95490000D01*
X164205701Y-95488647D01*
X164367748Y-95454203D01*
X164380048Y-95450206D01*
X164409561Y-95437066D01*
X164460000Y-95426344D01*
X164510439Y-95437066D01*
X164539951Y-95450206D01*
X164552251Y-95454203D01*
X164714298Y-95488647D01*
X164727164Y-95490000D01*
X164892836Y-95490000D01*
X164905701Y-95488647D01*
X165067748Y-95454203D01*
X165080053Y-95450205D01*
X165195380Y-95398857D01*
X165204406Y-95391837D01*
X165198497Y-95382051D01*
X164810000Y-94993553D01*
X164562548Y-94746101D01*
X164562547Y-94746101D01*
X164471542Y-94655095D01*
X164460000Y-94648431D01*
X164448455Y-94655096D01*
X164357451Y-94746101D01*
X164357451Y-94746102D01*
X164197680Y-94905872D01*
X164142092Y-94937965D01*
X164077905Y-94937965D01*
X164022318Y-94905871D01*
X163862548Y-94746101D01*
X163862547Y-94746101D01*
X163771542Y-94655095D01*
X163760000Y-94648431D01*
X163748455Y-94655096D01*
X163657451Y-94746101D01*
X163657451Y-94746102D01*
X163497680Y-94905872D01*
X163442092Y-94937965D01*
X163377905Y-94937965D01*
X163322318Y-94905871D01*
X163162548Y-94746101D01*
X163162547Y-94746101D01*
X163071542Y-94655095D01*
X163060000Y-94648431D01*
X163048455Y-94655096D01*
X162957451Y-94746101D01*
X162957451Y-94746102D01*
X162797680Y-94905872D01*
X162742092Y-94937965D01*
X162677905Y-94937965D01*
X162622318Y-94905871D01*
X162462548Y-94746101D01*
X162462547Y-94746101D01*
X162371542Y-94655095D01*
X162360000Y-94648431D01*
X162348455Y-94655096D01*
X162257451Y-94746101D01*
X162257451Y-94746102D01*
X162097680Y-94905872D01*
X162042092Y-94937965D01*
X161977905Y-94937965D01*
X161922318Y-94905871D01*
X161762548Y-94746101D01*
X161762547Y-94746101D01*
X161671542Y-94655095D01*
X161660000Y-94648431D01*
X161648455Y-94655096D01*
X161557451Y-94746101D01*
X161310000Y-94993553D01*
X160921501Y-95382051D01*
X160915592Y-95391837D01*
X159600500Y-95391837D01*
X159600500Y-94646460D01*
X160455997Y-94646460D01*
X160473315Y-94811236D01*
X160476003Y-94823878D01*
X160527201Y-94981451D01*
X160532457Y-94993256D01*
X160551214Y-95025744D01*
X160558893Y-95033943D01*
X160568435Y-95028009D01*
X161203898Y-94392548D01*
X161294903Y-94301542D01*
X161301567Y-94290000D01*
X164818431Y-94290000D01*
X164825095Y-94301542D01*
X164916102Y-94392548D01*
X164916102Y-94392549D01*
X165551563Y-95028009D01*
X165561105Y-95033943D01*
X165568783Y-95025745D01*
X165587542Y-94993255D01*
X165592798Y-94981451D01*
X165643996Y-94823878D01*
X165646684Y-94811236D01*
X165664003Y-94646460D01*
X165664003Y-94633540D01*
X165646684Y-94468763D01*
X165643996Y-94456121D01*
X165602471Y-94328318D01*
X165596402Y-94290000D01*
X165602471Y-94251682D01*
X165643996Y-94123878D01*
X165646684Y-94111236D01*
X165664003Y-93946460D01*
X165664003Y-93933540D01*
X165646684Y-93768763D01*
X165643996Y-93756121D01*
X165602471Y-93628318D01*
X165596402Y-93590000D01*
X165602471Y-93551682D01*
X165643996Y-93423878D01*
X165646684Y-93411236D01*
X165664003Y-93246460D01*
X165664003Y-93233540D01*
X165646684Y-93068763D01*
X165643996Y-93056121D01*
X165602471Y-92928317D01*
X165596402Y-92889999D01*
X165602471Y-92851681D01*
X165643996Y-92723878D01*
X165646684Y-92711236D01*
X165664003Y-92546460D01*
X165664003Y-92533540D01*
X165646684Y-92368763D01*
X165643996Y-92356121D01*
X165642468Y-92351418D01*
X168905503Y-92351418D01*
X168912936Y-92359530D01*
X168962151Y-92393991D01*
X168971499Y-92399388D01*
X169161819Y-92488135D01*
X169171943Y-92491821D01*
X169374786Y-92546173D01*
X169385418Y-92548047D01*
X169594605Y-92566349D01*
X169605395Y-92566349D01*
X169814581Y-92548047D01*
X169825213Y-92546173D01*
X170028056Y-92491821D01*
X170038180Y-92488135D01*
X170228494Y-92399391D01*
X170237851Y-92393989D01*
X170287064Y-92359528D01*
X170294496Y-92351419D01*
X170288582Y-92342136D01*
X169611542Y-91665095D01*
X169600000Y-91658431D01*
X169588457Y-91665095D01*
X168911416Y-92342136D01*
X168905503Y-92351418D01*
X165642468Y-92351418D01*
X165592798Y-92198548D01*
X165587541Y-92186742D01*
X165568784Y-92154254D01*
X165561105Y-92146055D01*
X165551563Y-92151989D01*
X164916101Y-92787451D01*
X164825096Y-92878455D01*
X164818431Y-92890000D01*
X164825095Y-92901542D01*
X164916102Y-92992548D01*
X164916102Y-92992549D01*
X165075871Y-93152318D01*
X165107965Y-93207905D01*
X165107965Y-93272092D01*
X165075872Y-93327680D01*
X164916102Y-93487451D01*
X164916101Y-93487451D01*
X164825096Y-93578455D01*
X164818431Y-93590000D01*
X164825095Y-93601542D01*
X164916102Y-93692548D01*
X164916102Y-93692549D01*
X165075871Y-93852318D01*
X165107965Y-93907905D01*
X165107965Y-93972092D01*
X165075872Y-94027680D01*
X164916102Y-94187451D01*
X164916101Y-94187451D01*
X164825096Y-94278455D01*
X164818431Y-94290000D01*
X161301567Y-94290000D01*
X161294903Y-94278457D01*
X161203900Y-94187454D01*
X161203898Y-94187451D01*
X161044127Y-94027680D01*
X161012033Y-93972092D01*
X161012033Y-93907905D01*
X161044127Y-93852317D01*
X161203898Y-93692547D01*
X161203898Y-93692548D01*
X161294903Y-93601542D01*
X161301567Y-93589999D01*
X161294903Y-93578457D01*
X161203900Y-93487454D01*
X161203898Y-93487451D01*
X161044127Y-93327680D01*
X161012033Y-93272092D01*
X161012033Y-93207905D01*
X161044127Y-93152317D01*
X161203898Y-92992547D01*
X161203898Y-92992548D01*
X161294903Y-92901542D01*
X161301567Y-92890000D01*
X161294903Y-92878457D01*
X161203900Y-92787454D01*
X161203898Y-92787451D01*
X160568434Y-92151988D01*
X160558893Y-92146055D01*
X160551215Y-92154253D01*
X160532457Y-92186743D01*
X160527201Y-92198548D01*
X160476003Y-92356121D01*
X160473315Y-92368763D01*
X160455997Y-92533540D01*
X160455997Y-92546460D01*
X160473315Y-92711236D01*
X160476003Y-92723878D01*
X160517529Y-92851681D01*
X160523598Y-92889999D01*
X160517529Y-92928317D01*
X160476003Y-93056121D01*
X160473315Y-93068763D01*
X160455997Y-93233540D01*
X160455997Y-93246460D01*
X160473315Y-93411236D01*
X160476003Y-93423882D01*
X160517528Y-93551683D01*
X160523597Y-93590000D01*
X160517528Y-93628317D01*
X160476003Y-93756117D01*
X160473315Y-93768763D01*
X160455997Y-93933540D01*
X160455997Y-93946460D01*
X160473315Y-94111236D01*
X160476003Y-94123882D01*
X160517528Y-94251683D01*
X160523597Y-94290000D01*
X160517528Y-94328317D01*
X160476003Y-94456117D01*
X160473315Y-94468763D01*
X160455997Y-94633540D01*
X160455997Y-94646460D01*
X159600500Y-94646460D01*
X159600500Y-91788161D01*
X160915592Y-91788161D01*
X160921501Y-91797947D01*
X161310000Y-92186447D01*
X161557451Y-92433898D01*
X161648456Y-92524902D01*
X161660000Y-92531567D01*
X161671542Y-92524903D01*
X161762548Y-92433898D01*
X161762547Y-92433898D01*
X161922317Y-92274127D01*
X161977905Y-92242033D01*
X162042092Y-92242033D01*
X162097680Y-92274127D01*
X162257451Y-92433898D01*
X162348456Y-92524902D01*
X162360000Y-92531567D01*
X162371542Y-92524903D01*
X162462548Y-92433898D01*
X162462547Y-92433898D01*
X162622317Y-92274127D01*
X162677905Y-92242033D01*
X162742092Y-92242033D01*
X162797680Y-92274127D01*
X162957451Y-92433898D01*
X163048456Y-92524902D01*
X163060000Y-92531567D01*
X163071542Y-92524903D01*
X163162548Y-92433898D01*
X163162547Y-92433898D01*
X163322317Y-92274127D01*
X163377905Y-92242033D01*
X163442092Y-92242033D01*
X163497680Y-92274127D01*
X163657451Y-92433898D01*
X163748456Y-92524902D01*
X163760000Y-92531567D01*
X163771542Y-92524903D01*
X163862548Y-92433898D01*
X163862547Y-92433898D01*
X164022317Y-92274127D01*
X164077905Y-92242033D01*
X164142092Y-92242033D01*
X164197680Y-92274127D01*
X164357451Y-92433898D01*
X164448456Y-92524902D01*
X164460000Y-92531567D01*
X164471542Y-92524903D01*
X164562548Y-92433898D01*
X164810000Y-92186447D01*
X165198497Y-91797947D01*
X165204406Y-91788161D01*
X165195381Y-91781141D01*
X165080049Y-91729792D01*
X165067750Y-91725796D01*
X164905701Y-91691352D01*
X164892836Y-91690000D01*
X164727164Y-91690000D01*
X164714298Y-91691352D01*
X164552249Y-91725796D01*
X164539950Y-91729793D01*
X164510435Y-91742934D01*
X164460000Y-91753654D01*
X164409565Y-91742934D01*
X164380049Y-91729793D01*
X164367750Y-91725796D01*
X164205701Y-91691352D01*
X164192836Y-91690000D01*
X164027164Y-91690000D01*
X164014298Y-91691352D01*
X163852249Y-91725796D01*
X163839950Y-91729793D01*
X163810435Y-91742934D01*
X163760000Y-91753654D01*
X163709565Y-91742934D01*
X163680049Y-91729793D01*
X163667750Y-91725796D01*
X163505701Y-91691352D01*
X163492836Y-91690000D01*
X163327164Y-91690000D01*
X163314298Y-91691352D01*
X163152249Y-91725796D01*
X163139950Y-91729793D01*
X163110435Y-91742934D01*
X163060000Y-91753654D01*
X163009565Y-91742934D01*
X162980049Y-91729793D01*
X162967750Y-91725796D01*
X162805701Y-91691352D01*
X162792836Y-91690000D01*
X162627164Y-91690000D01*
X162614298Y-91691352D01*
X162452249Y-91725796D01*
X162439950Y-91729793D01*
X162410435Y-91742934D01*
X162360000Y-91753654D01*
X162309565Y-91742934D01*
X162280049Y-91729793D01*
X162267750Y-91725796D01*
X162105701Y-91691352D01*
X162092836Y-91690000D01*
X161927164Y-91690000D01*
X161914298Y-91691352D01*
X161752249Y-91725796D01*
X161739950Y-91729793D01*
X161710435Y-91742934D01*
X161660000Y-91753654D01*
X161609565Y-91742934D01*
X161580049Y-91729793D01*
X161567750Y-91725796D01*
X161405701Y-91691352D01*
X161392836Y-91690000D01*
X161227164Y-91690000D01*
X161214298Y-91691352D01*
X161052249Y-91725796D01*
X161039950Y-91729793D01*
X160924617Y-91781141D01*
X160915592Y-91788161D01*
X159600500Y-91788161D01*
X159600500Y-91738828D01*
X159612579Y-91685445D01*
X159646464Y-91642462D01*
X159695553Y-91618254D01*
X159750278Y-91617538D01*
X159905354Y-91650500D01*
X160088143Y-91650500D01*
X160094646Y-91650500D01*
X160279803Y-91611144D01*
X160452730Y-91534151D01*
X160605871Y-91422888D01*
X160711662Y-91305395D01*
X168333651Y-91305395D01*
X168351952Y-91514581D01*
X168353826Y-91525213D01*
X168408178Y-91728056D01*
X168411864Y-91738180D01*
X168500609Y-91928496D01*
X168506008Y-91937848D01*
X168540470Y-91987065D01*
X168548579Y-91994496D01*
X168557862Y-91988582D01*
X169234903Y-91311541D01*
X169241566Y-91300000D01*
X169958431Y-91300000D01*
X169965095Y-91311542D01*
X170642136Y-91988582D01*
X170651419Y-91994496D01*
X170659528Y-91987064D01*
X170693989Y-91937851D01*
X170699391Y-91928494D01*
X170788135Y-91738180D01*
X170791821Y-91728056D01*
X170846173Y-91525213D01*
X170848047Y-91514581D01*
X170866349Y-91305395D01*
X170866349Y-91294605D01*
X170848047Y-91085418D01*
X170846173Y-91074786D01*
X170791822Y-90871949D01*
X170788134Y-90861815D01*
X170699388Y-90671500D01*
X170693990Y-90662150D01*
X170659529Y-90612935D01*
X170651418Y-90605502D01*
X170642139Y-90611413D01*
X169965095Y-91288457D01*
X169958431Y-91300000D01*
X169241566Y-91300000D01*
X169241567Y-91299999D01*
X169234903Y-91288456D01*
X168557859Y-90611413D01*
X168548581Y-90605502D01*
X168540468Y-90612936D01*
X168506006Y-90662154D01*
X168500612Y-90671498D01*
X168411865Y-90861815D01*
X168408177Y-90871949D01*
X168353826Y-91074786D01*
X168351952Y-91085418D01*
X168333651Y-91294605D01*
X168333651Y-91305395D01*
X160711662Y-91305395D01*
X160732533Y-91282216D01*
X160827179Y-91118284D01*
X160885674Y-90938256D01*
X160905460Y-90750000D01*
X160887322Y-90577424D01*
X160886353Y-90568204D01*
X160886352Y-90568203D01*
X160885674Y-90561744D01*
X160856569Y-90472168D01*
X160850500Y-90433850D01*
X160850500Y-90248581D01*
X168905502Y-90248581D01*
X168911413Y-90257859D01*
X169588457Y-90934903D01*
X169600000Y-90941567D01*
X169611542Y-90934903D01*
X170288582Y-90257862D01*
X170294496Y-90248579D01*
X170287065Y-90240470D01*
X170237848Y-90206008D01*
X170228496Y-90200609D01*
X170038180Y-90111864D01*
X170028056Y-90108178D01*
X169825213Y-90053826D01*
X169814581Y-90051952D01*
X169605395Y-90033651D01*
X169594605Y-90033651D01*
X169385418Y-90051952D01*
X169374786Y-90053826D01*
X169171949Y-90108177D01*
X169161815Y-90111865D01*
X168971498Y-90200612D01*
X168962154Y-90206006D01*
X168912936Y-90240468D01*
X168905502Y-90248581D01*
X160850500Y-90248581D01*
X160850500Y-89039606D01*
X160850909Y-89029542D01*
X160854655Y-88983537D01*
X160855201Y-88976833D01*
X160844490Y-88898224D01*
X160844086Y-88894918D01*
X160835514Y-88816090D01*
X160833362Y-88809705D01*
X160832309Y-88804920D01*
X160831134Y-88800198D01*
X160830227Y-88793532D01*
X160802868Y-88719061D01*
X160801753Y-88715894D01*
X160776444Y-88640779D01*
X160772979Y-88635020D01*
X160770917Y-88630563D01*
X160768752Y-88626198D01*
X160766433Y-88619884D01*
X160723699Y-88553029D01*
X160721941Y-88550193D01*
X160684537Y-88488025D01*
X160684533Y-88488020D01*
X160681070Y-88482264D01*
X160676450Y-88477387D01*
X160673505Y-88473513D01*
X160670420Y-88469676D01*
X160666800Y-88464011D01*
X160610730Y-88407941D01*
X160608389Y-88405536D01*
X160558474Y-88352841D01*
X160558471Y-88352838D01*
X160553849Y-88347959D01*
X160548281Y-88344184D01*
X160543433Y-88340066D01*
X160536027Y-88333238D01*
X159629400Y-87426611D01*
X159622573Y-87419206D01*
X159592797Y-87384151D01*
X159588337Y-87378900D01*
X159525213Y-87330914D01*
X159522622Y-87328889D01*
X159460754Y-87279158D01*
X159454732Y-87276171D01*
X159450630Y-87273549D01*
X159446412Y-87271011D01*
X159441064Y-87266946D01*
X159369082Y-87233643D01*
X159366057Y-87232193D01*
X159301045Y-87199951D01*
X159301040Y-87199949D01*
X159295021Y-87196964D01*
X159288498Y-87195341D01*
X159283825Y-87193625D01*
X159279259Y-87192086D01*
X159273167Y-87189268D01*
X159266607Y-87187824D01*
X159266604Y-87187823D01*
X159195733Y-87172223D01*
X159192464Y-87171457D01*
X159122018Y-87153938D01*
X159122015Y-87153937D01*
X159115495Y-87152316D01*
X159108773Y-87152133D01*
X159103904Y-87151470D01*
X159099053Y-87150942D01*
X159092497Y-87149500D01*
X159085779Y-87149500D01*
X159013227Y-87149500D01*
X159009870Y-87149455D01*
X158937288Y-87147489D01*
X158930568Y-87147307D01*
X158923960Y-87148574D01*
X158917625Y-87149091D01*
X158907557Y-87149500D01*
X145263651Y-87149500D01*
X145216198Y-87140061D01*
X145175970Y-87113181D01*
X144886819Y-86824030D01*
X144859939Y-86783802D01*
X144850500Y-86736349D01*
X144850500Y-86600000D01*
X166094540Y-86600000D01*
X166096042Y-86614292D01*
X166113646Y-86781795D01*
X166113647Y-86781803D01*
X166114326Y-86788256D01*
X166116331Y-86794428D01*
X166116333Y-86794435D01*
X166165871Y-86946895D01*
X166172821Y-86968284D01*
X166176068Y-86973908D01*
X166176069Y-86973910D01*
X166249094Y-87100394D01*
X166267467Y-87132216D01*
X166271811Y-87137041D01*
X166271813Y-87137043D01*
X166369075Y-87245063D01*
X166394129Y-87272888D01*
X166399387Y-87276708D01*
X166399388Y-87276709D01*
X166464355Y-87323910D01*
X166547270Y-87384151D01*
X166720197Y-87461144D01*
X166905354Y-87500500D01*
X167088143Y-87500500D01*
X167094646Y-87500500D01*
X167279803Y-87461144D01*
X167452730Y-87384151D01*
X167605871Y-87272888D01*
X167732533Y-87132216D01*
X167827179Y-86968284D01*
X167885674Y-86788256D01*
X167905460Y-86600000D01*
X167885674Y-86411744D01*
X167827179Y-86231716D01*
X167817113Y-86214281D01*
X167800500Y-86152281D01*
X167800500Y-85788828D01*
X167812579Y-85735445D01*
X167846464Y-85692462D01*
X167895553Y-85668254D01*
X167950278Y-85667538D01*
X168105354Y-85700500D01*
X168288143Y-85700500D01*
X168294646Y-85700500D01*
X168479803Y-85661144D01*
X168652730Y-85584151D01*
X168805871Y-85472888D01*
X168932533Y-85332216D01*
X169027179Y-85168284D01*
X169085674Y-84988256D01*
X169105460Y-84800000D01*
X169085674Y-84611744D01*
X169027179Y-84431716D01*
X169017113Y-84414281D01*
X169000500Y-84352281D01*
X169000500Y-76182940D01*
X169009939Y-76135487D01*
X169036819Y-76095259D01*
X169295259Y-75836819D01*
X169335487Y-75809939D01*
X169382940Y-75800500D01*
X175791845Y-75800500D01*
X175830163Y-75806569D01*
X175864726Y-75824179D01*
X175947270Y-75884151D01*
X176120197Y-75961144D01*
X176305354Y-76000500D01*
X176488143Y-76000500D01*
X176494646Y-76000500D01*
X176679803Y-75961144D01*
X176793779Y-75910398D01*
X176825064Y-75896469D01*
X176885229Y-75886130D01*
X176943035Y-75905753D01*
X176984473Y-75950580D01*
X176999500Y-76009748D01*
X176999500Y-76509806D01*
X176999500Y-76690194D01*
X177001049Y-76696983D01*
X177001050Y-76696988D01*
X177008017Y-76727518D01*
X177010345Y-76741218D01*
X177013852Y-76772336D01*
X177014632Y-76779255D01*
X177016929Y-76785821D01*
X177016930Y-76785823D01*
X177027272Y-76815379D01*
X177031119Y-76828735D01*
X177038088Y-76859267D01*
X177038091Y-76859276D01*
X177039640Y-76866061D01*
X177042658Y-76872329D01*
X177042661Y-76872336D01*
X177056250Y-76900554D01*
X177061568Y-76913393D01*
X177074211Y-76949522D01*
X177077912Y-76955412D01*
X177077913Y-76955414D01*
X177094572Y-76981927D01*
X177101296Y-76994093D01*
X177114888Y-77022315D01*
X177117909Y-77028587D01*
X177141771Y-77058509D01*
X177149818Y-77069850D01*
X177170184Y-77102262D01*
X177202174Y-77134252D01*
X177970183Y-77902261D01*
X177970184Y-77902262D01*
X178097738Y-78029816D01*
X178130147Y-78050180D01*
X178141480Y-78058221D01*
X178165969Y-78077751D01*
X178165971Y-78077752D01*
X178171413Y-78082092D01*
X178177679Y-78085109D01*
X178177688Y-78085115D01*
X178205908Y-78098704D01*
X178218068Y-78105424D01*
X178250478Y-78125789D01*
X178286608Y-78138431D01*
X178299447Y-78143749D01*
X178327667Y-78157340D01*
X178327670Y-78157341D01*
X178333939Y-78160360D01*
X178371266Y-78168879D01*
X178384613Y-78172725D01*
X178414170Y-78183068D01*
X178414175Y-78183069D01*
X178420745Y-78185368D01*
X178458778Y-78189653D01*
X178472484Y-78191981D01*
X178509806Y-78200500D01*
X178555046Y-78200500D01*
X178690194Y-78200500D01*
X179300953Y-78200500D01*
X179366496Y-78219238D01*
X179412231Y-78269789D01*
X179424334Y-78336875D01*
X179399148Y-78400221D01*
X179344286Y-78440682D01*
X179310980Y-78453104D01*
X179310978Y-78453104D01*
X179302669Y-78456204D01*
X179295572Y-78461516D01*
X179295568Y-78461519D01*
X179194550Y-78537141D01*
X179194546Y-78537144D01*
X179187454Y-78542454D01*
X179182144Y-78549546D01*
X179182141Y-78549550D01*
X179106519Y-78650568D01*
X179106516Y-78650572D01*
X179101204Y-78657669D01*
X179098104Y-78665978D01*
X179098104Y-78665980D01*
X179053620Y-78785247D01*
X179053619Y-78785250D01*
X179050909Y-78792517D01*
X179050079Y-78800227D01*
X179050079Y-78800232D01*
X179044855Y-78848819D01*
X179044854Y-78848831D01*
X179044500Y-78852127D01*
X179044500Y-78855448D01*
X179044500Y-78855449D01*
X179044500Y-81144560D01*
X179044500Y-81144578D01*
X179044501Y-81147872D01*
X179044853Y-81151150D01*
X179044854Y-81151161D01*
X179050079Y-81199768D01*
X179050080Y-81199773D01*
X179050909Y-81207483D01*
X179053619Y-81214749D01*
X179053620Y-81214753D01*
X179087217Y-81304831D01*
X179101204Y-81342331D01*
X179106518Y-81349430D01*
X179106519Y-81349431D01*
X179146216Y-81402460D01*
X179187454Y-81457546D01*
X179302669Y-81543796D01*
X179437517Y-81594091D01*
X179497127Y-81600500D01*
X181342872Y-81600499D01*
X181402483Y-81594091D01*
X181537331Y-81543796D01*
X181652546Y-81457546D01*
X181738796Y-81342331D01*
X181778136Y-81236852D01*
X181813613Y-81186044D01*
X181869247Y-81158747D01*
X181931143Y-81161780D01*
X181983840Y-81194385D01*
X182047956Y-81261283D01*
X182052191Y-81264415D01*
X182231970Y-81397379D01*
X182231973Y-81397380D01*
X182236208Y-81400513D01*
X182445282Y-81505926D01*
X182669163Y-81574489D01*
X182901411Y-81604229D01*
X183135345Y-81594292D01*
X183364234Y-81544962D01*
X183581494Y-81457660D01*
X183780875Y-81334896D01*
X183956641Y-81180203D01*
X184103735Y-80998030D01*
X184122507Y-80964425D01*
X184165745Y-80919310D01*
X184225497Y-80901011D01*
X184286585Y-80914176D01*
X184333496Y-80955462D01*
X184367057Y-81005117D01*
X184425943Y-81092241D01*
X184429589Y-81096045D01*
X184586161Y-81259411D01*
X184616855Y-81314816D01*
X184616183Y-81378151D01*
X184584319Y-81432892D01*
X183904030Y-82113181D01*
X183863802Y-82140061D01*
X183816349Y-82149500D01*
X180829606Y-82149500D01*
X180819542Y-82149091D01*
X180773537Y-82145344D01*
X180773528Y-82145344D01*
X180766833Y-82144799D01*
X180760168Y-82145706D01*
X180760167Y-82145707D01*
X180688286Y-82155500D01*
X180684955Y-82155908D01*
X180612770Y-82163759D01*
X180612765Y-82163759D01*
X180606090Y-82164486D01*
X180599731Y-82166627D01*
X180594982Y-82167673D01*
X180590179Y-82168867D01*
X180583532Y-82169774D01*
X180577228Y-82172089D01*
X180577227Y-82172090D01*
X180509104Y-82197116D01*
X180505942Y-82198229D01*
X180437150Y-82221409D01*
X180437147Y-82221409D01*
X180430779Y-82223556D01*
X180425025Y-82227017D01*
X180420537Y-82229094D01*
X180416181Y-82231254D01*
X180409884Y-82233568D01*
X180404225Y-82237184D01*
X180404223Y-82237186D01*
X180343081Y-82276267D01*
X180340230Y-82278036D01*
X180278015Y-82315469D01*
X180278010Y-82315472D01*
X180272264Y-82318930D01*
X180267397Y-82323539D01*
X180263518Y-82326488D01*
X180259660Y-82329589D01*
X180254011Y-82333201D01*
X180211282Y-82375929D01*
X180197976Y-82389235D01*
X180195572Y-82391574D01*
X180142843Y-82441523D01*
X180142836Y-82441530D01*
X180137959Y-82446151D01*
X180134187Y-82451713D01*
X180130056Y-82456577D01*
X180123230Y-82463980D01*
X179816611Y-82770598D01*
X179809209Y-82777423D01*
X179768900Y-82811663D01*
X179764836Y-82817007D01*
X179764832Y-82817013D01*
X179720923Y-82874772D01*
X179718858Y-82877413D01*
X179673367Y-82934008D01*
X179673361Y-82934016D01*
X179669158Y-82939246D01*
X179666177Y-82945254D01*
X179663557Y-82949354D01*
X179661005Y-82953594D01*
X179656946Y-82958936D01*
X179654128Y-82965026D01*
X179654123Y-82965035D01*
X179623642Y-83030917D01*
X179622194Y-83033939D01*
X179589951Y-83098954D01*
X179589948Y-83098961D01*
X179586964Y-83104979D01*
X179585343Y-83111495D01*
X179583635Y-83116145D01*
X179582086Y-83120739D01*
X179579268Y-83126833D01*
X179577824Y-83133390D01*
X179577820Y-83133404D01*
X179562218Y-83204282D01*
X179561453Y-83207549D01*
X179543936Y-83277986D01*
X179543934Y-83277996D01*
X179542316Y-83284505D01*
X179542133Y-83291214D01*
X179541475Y-83296050D01*
X179540943Y-83300944D01*
X179539500Y-83307503D01*
X179539500Y-83314223D01*
X179539500Y-83386773D01*
X179539454Y-83390130D01*
X179537307Y-83469432D01*
X179538574Y-83476039D01*
X179539091Y-83482375D01*
X179539500Y-83492443D01*
X179539500Y-83680336D01*
X179525032Y-83738464D01*
X179485003Y-83783027D01*
X179428754Y-83803626D01*
X179415231Y-83805079D01*
X179415225Y-83805080D01*
X179407517Y-83805909D01*
X179400252Y-83808618D01*
X179400246Y-83808620D01*
X179280980Y-83853104D01*
X179280978Y-83853104D01*
X179272669Y-83856204D01*
X179265572Y-83861516D01*
X179265568Y-83861519D01*
X179164550Y-83937141D01*
X179164546Y-83937144D01*
X179157454Y-83942454D01*
X179152144Y-83949546D01*
X179152141Y-83949550D01*
X179076519Y-84050568D01*
X179076516Y-84050572D01*
X179071204Y-84057669D01*
X179068104Y-84065978D01*
X179068104Y-84065980D01*
X179023620Y-84185247D01*
X179023619Y-84185250D01*
X179020909Y-84192517D01*
X179020079Y-84200227D01*
X179020079Y-84200232D01*
X179014855Y-84248819D01*
X179014854Y-84248831D01*
X179014500Y-84252127D01*
X179014500Y-84255448D01*
X179014500Y-84255449D01*
X179014500Y-86544560D01*
X179014500Y-86544578D01*
X179014501Y-86547872D01*
X179014853Y-86551150D01*
X179014854Y-86551161D01*
X179020079Y-86599768D01*
X179020080Y-86599773D01*
X179020909Y-86607483D01*
X179023619Y-86614749D01*
X179023620Y-86614753D01*
X179039556Y-86657479D01*
X179071204Y-86742331D01*
X179076518Y-86749430D01*
X179076519Y-86749431D01*
X179116216Y-86802460D01*
X179157454Y-86857546D01*
X179272669Y-86943796D01*
X179407517Y-86994091D01*
X179423985Y-86995861D01*
X179428758Y-86996375D01*
X179485005Y-87016975D01*
X179525032Y-87061537D01*
X179539500Y-87119664D01*
X179539500Y-93980394D01*
X179539091Y-93990458D01*
X179535344Y-94036462D01*
X179535344Y-94036470D01*
X179534799Y-94043167D01*
X179535706Y-94049831D01*
X179535707Y-94049833D01*
X179545502Y-94121733D01*
X179545910Y-94125063D01*
X179553758Y-94197224D01*
X179553759Y-94197231D01*
X179554486Y-94203910D01*
X179556632Y-94210281D01*
X179557696Y-94215111D01*
X179558866Y-94219818D01*
X179559773Y-94226468D01*
X179562088Y-94232770D01*
X179562090Y-94232777D01*
X179587113Y-94300891D01*
X179588227Y-94304054D01*
X179611408Y-94372849D01*
X179611411Y-94372856D01*
X179613556Y-94379221D01*
X179617018Y-94384976D01*
X179619092Y-94389458D01*
X179621251Y-94393812D01*
X179623568Y-94400116D01*
X179627186Y-94405777D01*
X179627188Y-94405780D01*
X179666267Y-94466919D01*
X179668036Y-94469771D01*
X179705462Y-94531974D01*
X179705467Y-94531981D01*
X179708930Y-94537736D01*
X179713551Y-94542614D01*
X179716498Y-94546491D01*
X179719576Y-94550321D01*
X179723200Y-94555989D01*
X179727958Y-94560747D01*
X179779266Y-94612055D01*
X179781608Y-94614461D01*
X179830749Y-94666339D01*
X179836151Y-94672041D01*
X179841714Y-94675813D01*
X179846565Y-94679933D01*
X179853972Y-94686761D01*
X180640593Y-95473381D01*
X180647420Y-95480786D01*
X180681663Y-95521100D01*
X180687012Y-95525166D01*
X180687014Y-95525168D01*
X180698455Y-95533865D01*
X180742405Y-95567275D01*
X180744796Y-95569092D01*
X180747394Y-95571123D01*
X180809246Y-95620842D01*
X180815284Y-95623836D01*
X180819406Y-95626471D01*
X180823580Y-95628982D01*
X180828936Y-95633054D01*
X180835040Y-95635878D01*
X180900915Y-95666355D01*
X180903890Y-95667779D01*
X180974979Y-95703036D01*
X180981515Y-95704661D01*
X180986176Y-95706373D01*
X180990725Y-95707905D01*
X180996833Y-95710732D01*
X181074292Y-95727781D01*
X181077545Y-95728543D01*
X181154505Y-95747684D01*
X181161236Y-95747866D01*
X181166041Y-95748521D01*
X181170928Y-95749052D01*
X181177503Y-95750500D01*
X181256773Y-95750500D01*
X181260130Y-95750545D01*
X181339432Y-95752693D01*
X181346042Y-95751424D01*
X181352375Y-95750909D01*
X181362443Y-95750500D01*
X181813692Y-95750500D01*
X181861145Y-95759939D01*
X181901373Y-95786819D01*
X181985380Y-95870826D01*
X182049031Y-95915395D01*
X182161903Y-95994429D01*
X182161906Y-95994430D01*
X182166338Y-95997534D01*
X182366550Y-96090894D01*
X182371770Y-96092292D01*
X182371771Y-96092293D01*
X182574699Y-96146668D01*
X182574701Y-96146668D01*
X182579932Y-96148070D01*
X182800000Y-96167323D01*
X183020068Y-96148070D01*
X183233450Y-96090894D01*
X183433662Y-95997534D01*
X183614620Y-95870826D01*
X183770826Y-95714620D01*
X183897534Y-95533662D01*
X183990894Y-95333450D01*
X184048070Y-95120068D01*
X184067323Y-94900000D01*
X184048070Y-94679932D01*
X184045743Y-94671249D01*
X184027213Y-94602094D01*
X183990894Y-94466550D01*
X183897534Y-94266339D01*
X183770826Y-94085380D01*
X183614620Y-93929174D01*
X183519400Y-93862500D01*
X183438096Y-93805570D01*
X183438090Y-93805566D01*
X183433662Y-93802466D01*
X183428757Y-93800178D01*
X183428754Y-93800177D01*
X183267230Y-93724858D01*
X183233450Y-93709106D01*
X183228235Y-93707708D01*
X183228228Y-93707706D01*
X183025300Y-93653331D01*
X183025289Y-93653329D01*
X183020068Y-93651930D01*
X183014676Y-93651458D01*
X183014669Y-93651457D01*
X182805395Y-93633149D01*
X182800000Y-93632677D01*
X182794605Y-93633149D01*
X182585330Y-93651457D01*
X182585321Y-93651458D01*
X182579932Y-93651930D01*
X182574711Y-93653328D01*
X182574699Y-93653331D01*
X182371777Y-93707705D01*
X182371772Y-93707706D01*
X182366550Y-93709106D01*
X182361654Y-93711388D01*
X182361643Y-93711393D01*
X182171249Y-93800176D01*
X182171245Y-93800178D01*
X182166339Y-93802466D01*
X182161906Y-93805569D01*
X182161899Y-93805574D01*
X181989815Y-93926068D01*
X181989810Y-93926071D01*
X181985380Y-93929174D01*
X181981556Y-93932997D01*
X181981550Y-93933003D01*
X181901373Y-94013181D01*
X181861145Y-94040061D01*
X181813692Y-94049500D01*
X181673651Y-94049500D01*
X181626198Y-94040061D01*
X181585970Y-94013181D01*
X181276819Y-93704030D01*
X181249939Y-93663802D01*
X181240500Y-93616349D01*
X181240500Y-91951418D01*
X182105503Y-91951418D01*
X182112936Y-91959530D01*
X182162151Y-91993991D01*
X182171499Y-91999388D01*
X182361819Y-92088135D01*
X182371943Y-92091821D01*
X182574786Y-92146173D01*
X182585418Y-92148047D01*
X182794605Y-92166349D01*
X182805395Y-92166349D01*
X183014581Y-92148047D01*
X183025213Y-92146173D01*
X183228056Y-92091821D01*
X183238180Y-92088135D01*
X183428494Y-91999391D01*
X183437851Y-91993989D01*
X183487064Y-91959528D01*
X183494496Y-91951419D01*
X183488582Y-91942136D01*
X182811542Y-91265095D01*
X182800000Y-91258431D01*
X182788457Y-91265095D01*
X182111416Y-91942136D01*
X182105503Y-91951418D01*
X181240500Y-91951418D01*
X181240500Y-90905395D01*
X181533651Y-90905395D01*
X181551952Y-91114581D01*
X181553826Y-91125213D01*
X181608178Y-91328056D01*
X181611864Y-91338180D01*
X181700609Y-91528496D01*
X181706008Y-91537848D01*
X181740470Y-91587065D01*
X181748579Y-91594496D01*
X181757862Y-91588582D01*
X182434903Y-90911542D01*
X182441567Y-90900000D01*
X183158431Y-90900000D01*
X183165095Y-90911542D01*
X183842136Y-91588582D01*
X183851419Y-91594496D01*
X183859528Y-91587064D01*
X183893989Y-91537851D01*
X183899391Y-91528494D01*
X183988135Y-91338180D01*
X183991821Y-91328056D01*
X184046173Y-91125213D01*
X184048047Y-91114581D01*
X184066349Y-90905395D01*
X184066349Y-90894605D01*
X184048047Y-90685418D01*
X184046173Y-90674786D01*
X183991822Y-90471949D01*
X183988134Y-90461815D01*
X183899388Y-90271500D01*
X183893990Y-90262150D01*
X183859529Y-90212935D01*
X183851418Y-90205502D01*
X183842139Y-90211413D01*
X183165095Y-90888457D01*
X183158431Y-90900000D01*
X182441567Y-90900000D01*
X182434903Y-90888457D01*
X181757859Y-90211413D01*
X181748581Y-90205502D01*
X181740468Y-90212936D01*
X181706006Y-90262154D01*
X181700612Y-90271498D01*
X181611865Y-90461815D01*
X181608177Y-90471949D01*
X181553826Y-90674786D01*
X181551952Y-90685418D01*
X181533651Y-90894605D01*
X181533651Y-90905395D01*
X181240500Y-90905395D01*
X181240500Y-89848581D01*
X182105502Y-89848581D01*
X182111413Y-89857859D01*
X182788457Y-90534903D01*
X182800000Y-90541567D01*
X182811542Y-90534903D01*
X183488582Y-89857862D01*
X183494496Y-89848579D01*
X183487065Y-89840470D01*
X183437848Y-89806008D01*
X183428496Y-89800609D01*
X183238180Y-89711864D01*
X183228056Y-89708178D01*
X183025213Y-89653826D01*
X183014581Y-89651952D01*
X182805395Y-89633651D01*
X182794605Y-89633651D01*
X182585418Y-89651952D01*
X182574786Y-89653826D01*
X182371949Y-89708177D01*
X182361815Y-89711865D01*
X182171498Y-89800612D01*
X182162154Y-89806006D01*
X182112936Y-89840468D01*
X182105502Y-89848581D01*
X181240500Y-89848581D01*
X181240500Y-87119664D01*
X181254968Y-87061536D01*
X181294997Y-87016973D01*
X181351246Y-86996374D01*
X181354021Y-86996075D01*
X181372483Y-86994091D01*
X181507331Y-86943796D01*
X181622546Y-86857546D01*
X181708796Y-86742331D01*
X181748136Y-86636852D01*
X181783613Y-86586044D01*
X181839247Y-86558747D01*
X181901143Y-86561780D01*
X181953840Y-86594385D01*
X182017956Y-86661283D01*
X182022191Y-86664415D01*
X182201970Y-86797379D01*
X182201973Y-86797380D01*
X182206208Y-86800513D01*
X182415282Y-86905926D01*
X182639163Y-86974489D01*
X182871411Y-87004229D01*
X183105345Y-86994292D01*
X183334234Y-86944962D01*
X183551494Y-86857660D01*
X183750875Y-86734896D01*
X183926641Y-86580203D01*
X184073735Y-86398030D01*
X184092507Y-86364425D01*
X184135745Y-86319310D01*
X184195497Y-86301011D01*
X184256585Y-86314176D01*
X184303496Y-86355462D01*
X184345903Y-86418204D01*
X184395943Y-86492241D01*
X184557956Y-86661283D01*
X184562191Y-86664415D01*
X184741970Y-86797379D01*
X184741973Y-86797380D01*
X184746208Y-86800513D01*
X184955282Y-86905926D01*
X185179163Y-86974489D01*
X185411411Y-87004229D01*
X185645345Y-86994292D01*
X185874234Y-86944962D01*
X186091494Y-86857660D01*
X186290875Y-86734896D01*
X186466641Y-86580203D01*
X186613735Y-86398030D01*
X186632781Y-86363935D01*
X186676018Y-86318822D01*
X186735770Y-86300522D01*
X186796858Y-86313687D01*
X186843769Y-86354973D01*
X186933381Y-86487557D01*
X186939979Y-86495729D01*
X187094642Y-86657102D01*
X187102524Y-86664039D01*
X187282229Y-86796949D01*
X187291179Y-86802460D01*
X187490766Y-86903088D01*
X187500503Y-86907001D01*
X187714233Y-86972455D01*
X187724492Y-86974666D01*
X187742476Y-86976969D01*
X187756137Y-86974825D01*
X187759340Y-86963814D01*
X188260000Y-86963814D01*
X188262455Y-86974649D01*
X188273564Y-86974767D01*
X188408933Y-86945592D01*
X188418981Y-86942515D01*
X188626383Y-86859174D01*
X188635747Y-86854453D01*
X188826097Y-86737250D01*
X188834527Y-86731016D01*
X189002321Y-86583337D01*
X189009590Y-86575753D01*
X189150007Y-86401849D01*
X189155887Y-86393150D01*
X189264899Y-86198012D01*
X189269224Y-86188443D01*
X189343689Y-85977685D01*
X189346332Y-85967531D01*
X189384109Y-85747222D01*
X189385000Y-85736763D01*
X189385000Y-85666326D01*
X189381549Y-85653450D01*
X189368674Y-85650000D01*
X188276326Y-85650000D01*
X188263450Y-85653450D01*
X188260000Y-85666326D01*
X188260000Y-86963814D01*
X187759340Y-86963814D01*
X187760000Y-86961547D01*
X187760000Y-85133674D01*
X188260000Y-85133674D01*
X188263450Y-85146549D01*
X188276326Y-85150000D01*
X189368674Y-85150000D01*
X189381549Y-85146549D01*
X189385000Y-85133674D01*
X189385000Y-85119227D01*
X189384776Y-85113971D01*
X189370568Y-84947037D01*
X189368792Y-84936683D01*
X189312470Y-84720372D01*
X189308974Y-84710477D01*
X189216905Y-84506798D01*
X189211782Y-84497628D01*
X189086618Y-84312442D01*
X189080020Y-84304270D01*
X188925357Y-84142897D01*
X188917475Y-84135960D01*
X188737770Y-84003050D01*
X188728820Y-83997539D01*
X188529233Y-83896911D01*
X188519496Y-83892998D01*
X188305766Y-83827544D01*
X188295507Y-83825333D01*
X188277523Y-83823030D01*
X188263862Y-83825174D01*
X188260000Y-83838453D01*
X188260000Y-85133674D01*
X187760000Y-85133674D01*
X187760000Y-83836186D01*
X187757544Y-83825350D01*
X187746435Y-83825232D01*
X187611066Y-83854407D01*
X187601018Y-83857484D01*
X187393616Y-83940825D01*
X187384252Y-83945546D01*
X187193902Y-84062749D01*
X187185472Y-84068983D01*
X187017678Y-84216662D01*
X187010409Y-84224246D01*
X186869992Y-84398150D01*
X186864112Y-84406849D01*
X186847803Y-84436042D01*
X186804562Y-84481155D01*
X186744812Y-84499452D01*
X186683725Y-84486286D01*
X186636816Y-84445001D01*
X186636502Y-84444537D01*
X186544057Y-84307759D01*
X186382044Y-84138717D01*
X186294541Y-84074000D01*
X186198029Y-84002620D01*
X186198023Y-84002616D01*
X186193792Y-83999487D01*
X185984718Y-83894074D01*
X185979683Y-83892532D01*
X185765871Y-83827052D01*
X185765863Y-83827050D01*
X185760837Y-83825511D01*
X185755616Y-83824842D01*
X185755614Y-83824842D01*
X185533806Y-83796439D01*
X185533805Y-83796438D01*
X185528589Y-83795771D01*
X185523334Y-83795994D01*
X185523329Y-83795994D01*
X185299918Y-83805484D01*
X185299912Y-83805484D01*
X185294655Y-83805708D01*
X185289511Y-83806816D01*
X185289508Y-83806817D01*
X185070919Y-83853927D01*
X185070914Y-83853928D01*
X185065766Y-83855038D01*
X185060881Y-83857000D01*
X185060871Y-83857004D01*
X184853390Y-83940377D01*
X184853385Y-83940379D01*
X184848506Y-83942340D01*
X184844030Y-83945095D01*
X184844026Y-83945098D01*
X184653602Y-84062346D01*
X184653590Y-84062354D01*
X184649125Y-84065104D01*
X184645185Y-84068571D01*
X184645179Y-84068576D01*
X184477302Y-84216326D01*
X184477297Y-84216330D01*
X184473359Y-84219797D01*
X184470059Y-84223883D01*
X184470057Y-84223886D01*
X184329573Y-84397872D01*
X184329568Y-84397878D01*
X184326265Y-84401970D01*
X184323698Y-84406564D01*
X184323696Y-84406568D01*
X184307491Y-84435576D01*
X184264251Y-84480690D01*
X184204500Y-84498988D01*
X184143412Y-84485823D01*
X184096503Y-84444537D01*
X184070840Y-84406568D01*
X184004057Y-84307759D01*
X183842044Y-84138717D01*
X183754804Y-84074194D01*
X183715985Y-84026533D01*
X183704826Y-83966084D01*
X183724070Y-83907702D01*
X183768987Y-83865737D01*
X183828540Y-83850500D01*
X184180394Y-83850500D01*
X184190457Y-83850908D01*
X184243167Y-83855201D01*
X184321748Y-83844493D01*
X184325084Y-83844086D01*
X184403910Y-83835514D01*
X184410287Y-83833364D01*
X184415019Y-83832323D01*
X184419793Y-83831135D01*
X184426468Y-83830227D01*
X184485281Y-83808620D01*
X184500922Y-83802874D01*
X184504076Y-83801762D01*
X184579221Y-83776444D01*
X184584994Y-83772970D01*
X184589460Y-83770904D01*
X184593796Y-83768753D01*
X184600116Y-83766432D01*
X184666972Y-83723697D01*
X184669743Y-83721978D01*
X184737736Y-83681070D01*
X184742629Y-83676434D01*
X184746522Y-83673475D01*
X184750314Y-83670426D01*
X184755989Y-83666800D01*
X184812127Y-83610660D01*
X184814422Y-83608427D01*
X184872041Y-83553849D01*
X184875819Y-83548275D01*
X184879929Y-83543437D01*
X184886749Y-83536038D01*
X186073397Y-82349390D01*
X186080793Y-82342573D01*
X186086240Y-82337947D01*
X186099203Y-82326936D01*
X186115972Y-82312693D01*
X186115973Y-82312691D01*
X186121100Y-82308337D01*
X186169135Y-82245146D01*
X186171076Y-82242662D01*
X186220841Y-82180754D01*
X186223832Y-82174720D01*
X186226454Y-82170619D01*
X186228977Y-82166424D01*
X186233054Y-82161064D01*
X186266368Y-82089056D01*
X186267795Y-82086075D01*
X186303036Y-82015021D01*
X186304660Y-82008488D01*
X186306365Y-82003846D01*
X186307905Y-81999275D01*
X186310732Y-81993167D01*
X186327781Y-81915706D01*
X186328535Y-81912486D01*
X186347684Y-81835495D01*
X186347866Y-81828763D01*
X186348519Y-81823970D01*
X186349051Y-81819075D01*
X186350500Y-81812497D01*
X186350500Y-81733227D01*
X186350545Y-81729870D01*
X186350788Y-81720900D01*
X186352693Y-81650568D01*
X186351424Y-81643957D01*
X186350909Y-81637625D01*
X186350500Y-81627557D01*
X186350500Y-81364875D01*
X186361508Y-81313799D01*
X186392576Y-81271792D01*
X186457384Y-81214753D01*
X186496641Y-81180203D01*
X186643735Y-80998030D01*
X186662781Y-80963935D01*
X186706018Y-80918822D01*
X186765770Y-80900522D01*
X186826858Y-80913687D01*
X186873769Y-80954973D01*
X186963381Y-81087557D01*
X186969979Y-81095729D01*
X187124642Y-81257102D01*
X187132524Y-81264039D01*
X187312229Y-81396949D01*
X187321179Y-81402460D01*
X187520766Y-81503088D01*
X187530503Y-81507001D01*
X187744233Y-81572455D01*
X187754492Y-81574666D01*
X187772476Y-81576969D01*
X187786137Y-81574825D01*
X187789340Y-81563814D01*
X188290000Y-81563814D01*
X188292455Y-81574649D01*
X188303564Y-81574767D01*
X188438933Y-81545592D01*
X188448981Y-81542515D01*
X188656383Y-81459174D01*
X188665747Y-81454453D01*
X188856097Y-81337250D01*
X188864527Y-81331016D01*
X189032321Y-81183337D01*
X189039590Y-81175753D01*
X189180007Y-81001849D01*
X189185887Y-80993150D01*
X189294899Y-80798012D01*
X189299224Y-80788443D01*
X189373689Y-80577685D01*
X189376332Y-80567531D01*
X189414109Y-80347222D01*
X189415000Y-80336763D01*
X189415000Y-80266326D01*
X189411549Y-80253450D01*
X189398674Y-80250000D01*
X188306326Y-80250000D01*
X188293450Y-80253450D01*
X188290000Y-80266326D01*
X188290000Y-81563814D01*
X187789340Y-81563814D01*
X187790000Y-81561547D01*
X187790000Y-79733674D01*
X188290000Y-79733674D01*
X188293450Y-79746549D01*
X188306326Y-79750000D01*
X189398674Y-79750000D01*
X189411549Y-79746549D01*
X189415000Y-79733674D01*
X189415000Y-79719227D01*
X189414776Y-79713971D01*
X189400568Y-79547037D01*
X189398792Y-79536683D01*
X189342470Y-79320372D01*
X189338974Y-79310477D01*
X189246905Y-79106798D01*
X189241782Y-79097628D01*
X189116618Y-78912442D01*
X189110020Y-78904270D01*
X188955357Y-78742897D01*
X188947475Y-78735960D01*
X188767770Y-78603050D01*
X188758820Y-78597539D01*
X188559233Y-78496911D01*
X188549496Y-78492998D01*
X188335766Y-78427544D01*
X188325507Y-78425333D01*
X188307523Y-78423030D01*
X188293862Y-78425174D01*
X188290000Y-78438453D01*
X188290000Y-79733674D01*
X187790000Y-79733674D01*
X187790000Y-78436186D01*
X187787544Y-78425350D01*
X187776435Y-78425232D01*
X187641066Y-78454407D01*
X187631018Y-78457484D01*
X187423616Y-78540825D01*
X187414252Y-78545546D01*
X187223902Y-78662749D01*
X187215472Y-78668983D01*
X187047678Y-78816662D01*
X187040409Y-78824246D01*
X186899992Y-78998150D01*
X186894112Y-79006849D01*
X186877803Y-79036042D01*
X186834562Y-79081155D01*
X186774812Y-79099452D01*
X186713725Y-79086286D01*
X186666816Y-79045001D01*
X186666502Y-79044537D01*
X186595692Y-78939769D01*
X186577008Y-78912125D01*
X186577007Y-78912124D01*
X186574057Y-78907759D01*
X186412044Y-78738717D01*
X186407003Y-78734989D01*
X186400765Y-78730375D01*
X186363777Y-78686505D01*
X186350500Y-78630680D01*
X186350500Y-75882477D01*
X186361508Y-75831401D01*
X186392576Y-75789394D01*
X186429391Y-75756992D01*
X186516641Y-75680203D01*
X186663735Y-75498030D01*
X186682781Y-75463935D01*
X186726018Y-75418822D01*
X186785770Y-75400522D01*
X186846858Y-75413687D01*
X186893769Y-75454973D01*
X186983381Y-75587557D01*
X186989979Y-75595729D01*
X187144642Y-75757102D01*
X187152524Y-75764039D01*
X187332229Y-75896949D01*
X187341179Y-75902460D01*
X187540766Y-76003088D01*
X187550503Y-76007001D01*
X187764233Y-76072455D01*
X187774492Y-76074666D01*
X187792476Y-76076969D01*
X187806137Y-76074825D01*
X187809340Y-76063814D01*
X188310000Y-76063814D01*
X188312455Y-76074649D01*
X188323564Y-76074767D01*
X188458933Y-76045592D01*
X188468981Y-76042515D01*
X188676383Y-75959174D01*
X188685747Y-75954453D01*
X188876097Y-75837250D01*
X188884527Y-75831016D01*
X189052321Y-75683337D01*
X189059590Y-75675753D01*
X189200007Y-75501849D01*
X189205887Y-75493150D01*
X189314899Y-75298012D01*
X189319224Y-75288443D01*
X189393689Y-75077685D01*
X189396332Y-75067531D01*
X189434109Y-74847222D01*
X189435000Y-74836763D01*
X189435000Y-74766326D01*
X189431549Y-74753450D01*
X189418674Y-74750000D01*
X188326326Y-74750000D01*
X188313450Y-74753450D01*
X188310000Y-74766326D01*
X188310000Y-76063814D01*
X187809340Y-76063814D01*
X187810000Y-76061547D01*
X187810000Y-74233674D01*
X188310000Y-74233674D01*
X188313450Y-74246549D01*
X188326326Y-74250000D01*
X189418674Y-74250000D01*
X189431549Y-74246549D01*
X189435000Y-74233674D01*
X189435000Y-74219227D01*
X189434776Y-74213971D01*
X189420568Y-74047037D01*
X189418792Y-74036683D01*
X189362470Y-73820372D01*
X189358974Y-73810477D01*
X189266905Y-73606798D01*
X189261782Y-73597628D01*
X189136618Y-73412442D01*
X189130020Y-73404270D01*
X188975357Y-73242897D01*
X188967475Y-73235960D01*
X188787770Y-73103050D01*
X188778820Y-73097539D01*
X188579233Y-72996911D01*
X188569496Y-72992998D01*
X188355766Y-72927544D01*
X188345507Y-72925333D01*
X188327523Y-72923030D01*
X188313862Y-72925174D01*
X188310000Y-72938453D01*
X188310000Y-74233674D01*
X187810000Y-74233674D01*
X187810000Y-72936186D01*
X187807544Y-72925350D01*
X187796435Y-72925232D01*
X187661066Y-72954407D01*
X187651018Y-72957484D01*
X187443616Y-73040825D01*
X187434252Y-73045546D01*
X187243902Y-73162749D01*
X187235472Y-73168983D01*
X187067678Y-73316662D01*
X187060409Y-73324246D01*
X186919992Y-73498150D01*
X186914112Y-73506849D01*
X186897803Y-73536042D01*
X186854562Y-73581155D01*
X186794812Y-73599452D01*
X186733725Y-73586286D01*
X186686816Y-73545001D01*
X186686502Y-73544537D01*
X186594057Y-73407759D01*
X186536608Y-73347818D01*
X186505914Y-73292414D01*
X186506586Y-73229078D01*
X186538448Y-73174339D01*
X188613397Y-71099390D01*
X188620793Y-71092573D01*
X188655972Y-71062693D01*
X188655973Y-71062691D01*
X188661100Y-71058337D01*
X188709135Y-70995146D01*
X188711076Y-70992662D01*
X188760841Y-70930754D01*
X188763832Y-70924720D01*
X188766454Y-70920619D01*
X188768977Y-70916424D01*
X188773054Y-70911064D01*
X188806368Y-70839056D01*
X188807795Y-70836075D01*
X188843036Y-70765021D01*
X188844660Y-70758488D01*
X188846365Y-70753846D01*
X188847905Y-70749275D01*
X188850732Y-70743167D01*
X188867781Y-70665706D01*
X188868535Y-70662486D01*
X188885426Y-70594570D01*
X188909820Y-70545941D01*
X188952682Y-70512434D01*
X189005761Y-70500499D01*
X189084561Y-70500499D01*
X189087872Y-70500499D01*
X189147483Y-70494091D01*
X189282331Y-70443796D01*
X189397546Y-70357546D01*
X189483796Y-70242331D01*
X189534091Y-70107483D01*
X189540500Y-70047873D01*
X189540499Y-67952128D01*
X189534091Y-67892517D01*
X189483796Y-67757669D01*
X189397546Y-67642454D01*
X189378299Y-67628046D01*
X189289431Y-67561519D01*
X189289430Y-67561518D01*
X189282331Y-67556204D01*
X189147483Y-67505909D01*
X189139770Y-67505079D01*
X189139767Y-67505079D01*
X189104244Y-67501260D01*
X189047997Y-67480661D01*
X189007968Y-67436098D01*
X188993500Y-67377971D01*
X188993500Y-67372029D01*
X189007969Y-67313901D01*
X189047998Y-67269338D01*
X189104246Y-67248739D01*
X189115387Y-67247541D01*
X189147483Y-67244091D01*
X189282331Y-67193796D01*
X189397546Y-67107546D01*
X189483796Y-66992331D01*
X189534091Y-66857483D01*
X189540500Y-66797873D01*
X189540499Y-64702128D01*
X189534091Y-64642517D01*
X189483796Y-64507669D01*
X189397546Y-64392454D01*
X189365212Y-64368249D01*
X189289431Y-64311519D01*
X189289430Y-64311518D01*
X189282331Y-64306204D01*
X189147483Y-64255909D01*
X189139770Y-64255079D01*
X189139767Y-64255079D01*
X189091180Y-64249855D01*
X189091169Y-64249854D01*
X189087873Y-64249500D01*
X189084551Y-64249500D01*
X188971826Y-64249500D01*
X188922825Y-64239407D01*
X188881800Y-64210772D01*
X188855430Y-64168256D01*
X188854879Y-64166756D01*
X188848300Y-64108088D01*
X188869595Y-64053027D01*
X188913937Y-64014053D01*
X188971275Y-64000000D01*
X189159518Y-64000000D01*
X189166114Y-63999646D01*
X189214667Y-63994426D01*
X189229641Y-63990888D01*
X189348777Y-63946452D01*
X189364189Y-63938037D01*
X189465092Y-63862501D01*
X189477501Y-63850092D01*
X189553037Y-63749189D01*
X189561452Y-63733777D01*
X189605888Y-63614641D01*
X189609426Y-63599667D01*
X189614646Y-63551114D01*
X189615000Y-63544518D01*
X189615000Y-62766326D01*
X189611549Y-62753450D01*
X189598674Y-62750000D01*
X187989000Y-62750000D01*
X187927000Y-62733387D01*
X187881613Y-62688000D01*
X187865000Y-62626000D01*
X187865000Y-62233674D01*
X188365000Y-62233674D01*
X188368450Y-62246549D01*
X188381326Y-62250000D01*
X189598674Y-62250000D01*
X189611549Y-62246549D01*
X189615000Y-62233674D01*
X189615000Y-61455482D01*
X189614646Y-61448885D01*
X189609426Y-61400332D01*
X189605888Y-61385358D01*
X189561452Y-61266222D01*
X189553037Y-61250810D01*
X189477501Y-61149907D01*
X189465092Y-61137498D01*
X189364189Y-61061962D01*
X189348777Y-61053547D01*
X189229641Y-61009111D01*
X189214667Y-61005573D01*
X189166114Y-61000353D01*
X189159518Y-61000000D01*
X188381326Y-61000000D01*
X188368450Y-61003450D01*
X188365000Y-61016326D01*
X188365000Y-62233674D01*
X187865000Y-62233674D01*
X187865000Y-61016326D01*
X187861549Y-61003450D01*
X187848674Y-61000000D01*
X187070482Y-61000000D01*
X187063885Y-61000353D01*
X187015332Y-61005573D01*
X187000358Y-61009111D01*
X186881222Y-61053547D01*
X186865810Y-61061962D01*
X186764907Y-61137498D01*
X186752498Y-61149907D01*
X186676960Y-61250813D01*
X186668135Y-61266975D01*
X186633146Y-61307162D01*
X186584521Y-61328955D01*
X186531240Y-61328329D01*
X186483144Y-61305400D01*
X186398509Y-61239526D01*
X186393997Y-61237084D01*
X186184316Y-61123610D01*
X186184310Y-61123607D01*
X186179810Y-61121172D01*
X186174969Y-61119510D01*
X186174962Y-61119507D01*
X185949465Y-61042094D01*
X185949461Y-61042093D01*
X185944614Y-61040429D01*
X185935768Y-61038952D01*
X185704398Y-61000344D01*
X185704387Y-61000343D01*
X185699335Y-60999500D01*
X185450665Y-60999500D01*
X185445613Y-61000343D01*
X185445601Y-61000344D01*
X185210443Y-61039585D01*
X185210441Y-61039585D01*
X185205386Y-61040429D01*
X185200541Y-61042092D01*
X185200534Y-61042094D01*
X184975037Y-61119507D01*
X184975026Y-61119511D01*
X184970190Y-61121172D01*
X184965693Y-61123605D01*
X184965683Y-61123610D01*
X184756002Y-61237084D01*
X184755995Y-61237088D01*
X184751491Y-61239526D01*
X184747448Y-61242672D01*
X184747440Y-61242678D01*
X184571791Y-61379392D01*
X184555256Y-61392262D01*
X184551793Y-61396023D01*
X184551784Y-61396032D01*
X184396230Y-61565010D01*
X184338741Y-61600348D01*
X184271259Y-61600348D01*
X184213770Y-61565010D01*
X184058215Y-61396032D01*
X184058211Y-61396029D01*
X184054744Y-61392262D01*
X183925154Y-61291398D01*
X183862559Y-61242678D01*
X183862557Y-61242676D01*
X183858509Y-61239526D01*
X183853997Y-61237084D01*
X183644316Y-61123610D01*
X183644310Y-61123607D01*
X183639810Y-61121172D01*
X183634969Y-61119510D01*
X183634962Y-61119507D01*
X183409465Y-61042094D01*
X183409461Y-61042093D01*
X183404614Y-61040429D01*
X183395768Y-61038952D01*
X183164398Y-61000344D01*
X183164387Y-61000343D01*
X183159335Y-60999500D01*
X182910665Y-60999500D01*
X182905613Y-61000343D01*
X182905601Y-61000344D01*
X182670443Y-61039585D01*
X182670441Y-61039585D01*
X182665386Y-61040429D01*
X182660541Y-61042092D01*
X182660534Y-61042094D01*
X182435037Y-61119507D01*
X182435026Y-61119511D01*
X182430190Y-61121172D01*
X182425693Y-61123605D01*
X182425683Y-61123610D01*
X182216002Y-61237084D01*
X182215995Y-61237088D01*
X182211491Y-61239526D01*
X182207448Y-61242672D01*
X182207440Y-61242678D01*
X182031791Y-61379392D01*
X182015256Y-61392262D01*
X182011793Y-61396023D01*
X182011784Y-61396032D01*
X181850311Y-61571439D01*
X181850305Y-61571446D01*
X181846836Y-61575215D01*
X181844031Y-61579506D01*
X181844028Y-61579512D01*
X181713631Y-61779099D01*
X181713624Y-61779111D01*
X181710827Y-61783393D01*
X181708772Y-61788077D01*
X181708766Y-61788089D01*
X181612997Y-62006422D01*
X181610937Y-62011119D01*
X181609679Y-62016084D01*
X181609678Y-62016089D01*
X181551151Y-62247204D01*
X181551149Y-62247213D01*
X181549892Y-62252179D01*
X181549468Y-62257288D01*
X181549467Y-62257298D01*
X181533068Y-62455216D01*
X181529357Y-62500000D01*
X181529781Y-62505117D01*
X181549467Y-62742701D01*
X181549468Y-62742709D01*
X181549892Y-62747821D01*
X181551149Y-62752788D01*
X181551151Y-62752795D01*
X181609678Y-62983910D01*
X181610937Y-62988881D01*
X181612997Y-62993577D01*
X181708766Y-63211910D01*
X181708769Y-63211916D01*
X181710827Y-63216607D01*
X181713627Y-63220893D01*
X181713631Y-63220900D01*
X181830415Y-63399651D01*
X181846836Y-63424785D01*
X181850310Y-63428559D01*
X181850311Y-63428560D01*
X182011784Y-63603967D01*
X182011787Y-63603970D01*
X182015256Y-63607738D01*
X182211491Y-63760474D01*
X182430190Y-63878828D01*
X182665386Y-63959571D01*
X182910665Y-64000500D01*
X183154201Y-64000500D01*
X183159335Y-64000500D01*
X183404614Y-63959571D01*
X183639810Y-63878828D01*
X183858509Y-63760474D01*
X184054744Y-63607738D01*
X184213771Y-63434988D01*
X184271259Y-63399651D01*
X184338741Y-63399651D01*
X184396228Y-63434988D01*
X184413876Y-63454158D01*
X184551784Y-63603967D01*
X184551787Y-63603970D01*
X184555256Y-63607738D01*
X184672612Y-63699080D01*
X184707100Y-63740966D01*
X184720228Y-63792887D01*
X184719799Y-63798167D01*
X184720706Y-63804831D01*
X184720707Y-63804833D01*
X184730502Y-63876733D01*
X184730910Y-63880063D01*
X184738758Y-63952224D01*
X184738759Y-63952231D01*
X184739486Y-63958910D01*
X184741632Y-63965281D01*
X184742696Y-63970111D01*
X184743866Y-63974818D01*
X184744773Y-63981468D01*
X184747088Y-63987770D01*
X184747090Y-63987777D01*
X184772113Y-64055891D01*
X184773227Y-64059054D01*
X184796408Y-64127849D01*
X184796411Y-64127856D01*
X184798556Y-64134221D01*
X184802018Y-64139976D01*
X184804092Y-64144458D01*
X184806251Y-64148812D01*
X184808568Y-64155116D01*
X184812186Y-64160777D01*
X184812188Y-64160780D01*
X184851267Y-64221919D01*
X184853035Y-64224769D01*
X184863184Y-64241636D01*
X184880934Y-64305212D01*
X184863549Y-64368888D01*
X184815953Y-64414622D01*
X184681272Y-64487507D01*
X184672718Y-64493096D01*
X184484637Y-64639486D01*
X184477126Y-64646400D01*
X184321568Y-64815380D01*
X184264079Y-64850717D01*
X184196598Y-64850717D01*
X184139109Y-64815379D01*
X184131329Y-64806928D01*
X184075060Y-64745803D01*
X183983215Y-64646032D01*
X183983211Y-64646029D01*
X183979744Y-64642262D01*
X183852328Y-64543090D01*
X183787559Y-64492678D01*
X183787557Y-64492676D01*
X183783509Y-64489526D01*
X183747484Y-64470030D01*
X183569316Y-64373610D01*
X183569310Y-64373607D01*
X183564810Y-64371172D01*
X183559969Y-64369510D01*
X183559962Y-64369507D01*
X183334465Y-64292094D01*
X183334461Y-64292093D01*
X183329614Y-64290429D01*
X183320768Y-64288952D01*
X183089398Y-64250344D01*
X183089387Y-64250343D01*
X183084335Y-64249500D01*
X182835665Y-64249500D01*
X182830613Y-64250343D01*
X182830601Y-64250344D01*
X182595443Y-64289585D01*
X182595441Y-64289585D01*
X182590386Y-64290429D01*
X182585541Y-64292092D01*
X182585534Y-64292094D01*
X182360037Y-64369507D01*
X182360026Y-64369511D01*
X182355190Y-64371172D01*
X182350693Y-64373605D01*
X182350683Y-64373610D01*
X182141002Y-64487084D01*
X182140995Y-64487088D01*
X182136491Y-64489526D01*
X182132448Y-64492672D01*
X182132440Y-64492678D01*
X181949270Y-64635246D01*
X181940256Y-64642262D01*
X181936793Y-64646023D01*
X181936784Y-64646032D01*
X181775311Y-64821439D01*
X181775305Y-64821446D01*
X181771836Y-64825215D01*
X181769031Y-64829507D01*
X181769032Y-64829507D01*
X181727340Y-64893322D01*
X181682548Y-64934555D01*
X181623531Y-64949500D01*
X179020194Y-64949500D01*
X178839805Y-64949500D01*
X178802481Y-64958018D01*
X178788786Y-64960345D01*
X178757666Y-64963852D01*
X178757665Y-64963852D01*
X178750745Y-64964632D01*
X178744173Y-64966931D01*
X178744166Y-64966933D01*
X178714608Y-64977275D01*
X178701257Y-64981122D01*
X178670723Y-64988092D01*
X178670719Y-64988093D01*
X178663939Y-64989641D01*
X178657674Y-64992657D01*
X178657665Y-64992661D01*
X178629457Y-65006245D01*
X178616619Y-65011563D01*
X178587047Y-65021911D01*
X178587037Y-65021915D01*
X178580478Y-65024211D01*
X178574589Y-65027910D01*
X178574585Y-65027913D01*
X178548064Y-65044577D01*
X178535898Y-65051301D01*
X178507689Y-65064886D01*
X178507685Y-65064888D01*
X178501413Y-65067909D01*
X178495967Y-65072251D01*
X178495965Y-65072253D01*
X178471487Y-65091773D01*
X178460152Y-65099816D01*
X178427738Y-65120184D01*
X178422816Y-65125105D01*
X178422812Y-65125109D01*
X177412181Y-66135741D01*
X177362818Y-66165991D01*
X177305102Y-66170533D01*
X177251615Y-66148378D01*
X177214015Y-66104355D01*
X177200500Y-66048060D01*
X177200500Y-64147719D01*
X177217113Y-64085719D01*
X177218395Y-64083497D01*
X177227179Y-64068284D01*
X177285674Y-63888256D01*
X177305460Y-63700000D01*
X177285674Y-63511744D01*
X177227179Y-63331716D01*
X177132533Y-63167784D01*
X177059542Y-63086720D01*
X177010220Y-63031942D01*
X177010219Y-63031941D01*
X177005871Y-63027112D01*
X177000613Y-63023292D01*
X177000611Y-63023290D01*
X176857988Y-62919669D01*
X176857987Y-62919668D01*
X176852730Y-62915849D01*
X176846792Y-62913205D01*
X176685745Y-62841501D01*
X176685740Y-62841499D01*
X176679803Y-62838856D01*
X176673444Y-62837504D01*
X176673440Y-62837503D01*
X176501008Y-62800852D01*
X176501005Y-62800851D01*
X176494646Y-62799500D01*
X176305354Y-62799500D01*
X176298995Y-62800851D01*
X176298991Y-62800852D01*
X176126559Y-62837503D01*
X176126552Y-62837505D01*
X176120197Y-62838856D01*
X176114262Y-62841498D01*
X176114254Y-62841501D01*
X175953207Y-62913205D01*
X175953202Y-62913207D01*
X175947270Y-62915849D01*
X175942016Y-62919665D01*
X175942011Y-62919669D01*
X175799388Y-63023290D01*
X175799381Y-63023295D01*
X175794129Y-63027112D01*
X175789784Y-63031937D01*
X175789779Y-63031942D01*
X175671813Y-63162956D01*
X175671808Y-63162962D01*
X175667467Y-63167784D01*
X175664222Y-63173404D01*
X175664218Y-63173410D01*
X175576069Y-63326089D01*
X175576066Y-63326094D01*
X175572821Y-63331716D01*
X175570815Y-63337888D01*
X175570813Y-63337894D01*
X175516333Y-63505564D01*
X175516331Y-63505573D01*
X175514326Y-63511744D01*
X175513648Y-63518194D01*
X175513646Y-63518204D01*
X175498159Y-63665567D01*
X175494540Y-63700000D01*
X175495219Y-63706460D01*
X175513646Y-63881795D01*
X175513647Y-63881803D01*
X175514326Y-63888256D01*
X175516331Y-63894428D01*
X175516333Y-63894435D01*
X175568758Y-64055779D01*
X175572821Y-64068284D01*
X175576068Y-64073908D01*
X175576069Y-64073910D01*
X175582887Y-64085719D01*
X175599500Y-64147719D01*
X175599500Y-66117060D01*
X175590061Y-66164513D01*
X175563181Y-66204741D01*
X174547738Y-67220183D01*
X174547735Y-67220186D01*
X174547736Y-67220186D01*
X174420184Y-67347738D01*
X174416479Y-67353632D01*
X174416479Y-67353634D01*
X174399816Y-67380152D01*
X174391773Y-67391487D01*
X174372253Y-67415965D01*
X174372251Y-67415967D01*
X174367909Y-67421413D01*
X174364889Y-67427682D01*
X174364883Y-67427693D01*
X174351299Y-67455900D01*
X174344577Y-67468064D01*
X174324211Y-67500478D01*
X174321915Y-67507037D01*
X174321911Y-67507047D01*
X174311565Y-67536613D01*
X174306247Y-67549451D01*
X174292660Y-67577666D01*
X174292657Y-67577671D01*
X174289640Y-67583939D01*
X174288092Y-67590717D01*
X174288089Y-67590728D01*
X174281118Y-67621268D01*
X174277272Y-67634619D01*
X174264632Y-67670745D01*
X174263852Y-67677663D01*
X174263852Y-67677665D01*
X174260345Y-67708781D01*
X174258017Y-67722479D01*
X174251050Y-67753008D01*
X174251048Y-67753020D01*
X174249500Y-67759806D01*
X174249500Y-67805046D01*
X174249500Y-71189806D01*
X174249500Y-71370194D01*
X174251049Y-71376983D01*
X174251050Y-71376988D01*
X174258017Y-71407518D01*
X174260345Y-71421218D01*
X174263852Y-71452336D01*
X174264632Y-71459255D01*
X174266929Y-71465821D01*
X174266930Y-71465823D01*
X174277272Y-71495379D01*
X174281119Y-71508735D01*
X174288088Y-71539267D01*
X174288091Y-71539276D01*
X174289640Y-71546061D01*
X174292658Y-71552329D01*
X174292661Y-71552336D01*
X174306250Y-71580554D01*
X174311568Y-71593393D01*
X174324211Y-71629522D01*
X174327912Y-71635412D01*
X174327913Y-71635414D01*
X174344572Y-71661927D01*
X174351296Y-71674093D01*
X174364888Y-71702315D01*
X174367909Y-71708587D01*
X174376747Y-71719669D01*
X174391771Y-71738509D01*
X174399818Y-71749850D01*
X174401335Y-71752265D01*
X174420184Y-71782262D01*
X174425111Y-71787189D01*
X174425112Y-71787190D01*
X175565741Y-72927819D01*
X175595991Y-72977182D01*
X175600533Y-73034898D01*
X175578378Y-73088385D01*
X175534355Y-73125985D01*
X175478060Y-73139500D01*
X168281914Y-73139500D01*
X168268031Y-73138720D01*
X168236923Y-73135215D01*
X168230000Y-73134435D01*
X168223077Y-73135215D01*
X168057665Y-73153852D01*
X168057662Y-73153852D01*
X168050745Y-73154632D01*
X168044182Y-73156928D01*
X168044175Y-73156930D01*
X167887043Y-73211913D01*
X167887036Y-73211915D01*
X167880478Y-73214211D01*
X167874590Y-73217910D01*
X167874587Y-73217912D01*
X167733638Y-73306476D01*
X167733633Y-73306479D01*
X167727738Y-73310184D01*
X167722813Y-73315108D01*
X167722809Y-73315112D01*
X167605109Y-73432812D01*
X167605105Y-73432816D01*
X167600184Y-73437738D01*
X167596483Y-73443626D01*
X167596478Y-73443634D01*
X167556895Y-73506630D01*
X167539583Y-73528338D01*
X166497735Y-74570186D01*
X166497736Y-74570186D01*
X166370184Y-74697738D01*
X166366479Y-74703632D01*
X166366479Y-74703634D01*
X166349816Y-74730152D01*
X166341773Y-74741487D01*
X166322253Y-74765965D01*
X166322251Y-74765967D01*
X166317909Y-74771413D01*
X166314889Y-74777682D01*
X166314883Y-74777693D01*
X166301299Y-74805900D01*
X166294577Y-74818064D01*
X166279493Y-74842072D01*
X166274211Y-74850478D01*
X166271915Y-74857037D01*
X166271911Y-74857047D01*
X166261565Y-74886613D01*
X166256247Y-74899451D01*
X166242660Y-74927666D01*
X166242657Y-74927671D01*
X166239640Y-74933939D01*
X166238092Y-74940717D01*
X166238089Y-74940728D01*
X166231118Y-74971268D01*
X166227272Y-74984619D01*
X166214632Y-75020745D01*
X166213852Y-75027663D01*
X166213852Y-75027665D01*
X166210345Y-75058781D01*
X166208017Y-75072479D01*
X166201050Y-75103008D01*
X166201048Y-75103020D01*
X166199500Y-75109806D01*
X166199500Y-75116772D01*
X166199500Y-86152281D01*
X166182887Y-86214281D01*
X166176069Y-86226089D01*
X166176066Y-86226094D01*
X166172821Y-86231716D01*
X166170815Y-86237888D01*
X166170813Y-86237894D01*
X166116333Y-86405564D01*
X166116331Y-86405573D01*
X166114326Y-86411744D01*
X166113648Y-86418194D01*
X166113646Y-86418204D01*
X166096621Y-86580203D01*
X166094540Y-86600000D01*
X144850500Y-86600000D01*
X144850500Y-85824499D01*
X144867113Y-85762499D01*
X144912500Y-85717112D01*
X144974500Y-85700499D01*
X145104561Y-85700499D01*
X145107872Y-85700499D01*
X145167483Y-85694091D01*
X145302331Y-85643796D01*
X145417546Y-85557546D01*
X145503796Y-85442331D01*
X145506896Y-85434017D01*
X145507507Y-85432900D01*
X145542495Y-85392710D01*
X145591120Y-85370915D01*
X145644403Y-85371540D01*
X145692504Y-85394470D01*
X145772718Y-85456903D01*
X145781276Y-85462495D01*
X145990885Y-85575929D01*
X146000239Y-85580032D01*
X146225658Y-85657418D01*
X146235567Y-85659927D01*
X146336679Y-85676800D01*
X146347636Y-85676233D01*
X146350000Y-85665516D01*
X146350000Y-84074000D01*
X146366613Y-84012000D01*
X146412000Y-83966613D01*
X146474000Y-83950000D01*
X146726000Y-83950000D01*
X146788000Y-83966613D01*
X146833387Y-84012000D01*
X146850000Y-84074000D01*
X146850000Y-85665516D01*
X146852363Y-85676233D01*
X146863320Y-85676800D01*
X146964432Y-85659927D01*
X146974341Y-85657418D01*
X147199760Y-85580032D01*
X147209114Y-85575929D01*
X147418723Y-85462495D01*
X147427281Y-85456903D01*
X147615362Y-85310513D01*
X147622872Y-85303600D01*
X147778430Y-85134620D01*
X147835919Y-85099282D01*
X147903401Y-85099282D01*
X147960889Y-85134619D01*
X147991880Y-85168284D01*
X148116784Y-85303967D01*
X148116787Y-85303970D01*
X148120256Y-85307738D01*
X148316491Y-85460474D01*
X148535190Y-85578828D01*
X148770386Y-85659571D01*
X149015665Y-85700500D01*
X149259201Y-85700500D01*
X149264335Y-85700500D01*
X149509614Y-85659571D01*
X149744810Y-85578828D01*
X149963509Y-85460474D01*
X150159744Y-85307738D01*
X150328164Y-85124785D01*
X150372660Y-85056677D01*
X150417452Y-85015445D01*
X150476469Y-85000500D01*
X153783233Y-85000500D01*
X153790194Y-85000500D01*
X153827523Y-84991979D01*
X153841197Y-84989655D01*
X153879255Y-84985368D01*
X153915403Y-84972718D01*
X153928726Y-84968881D01*
X153966061Y-84960360D01*
X154000546Y-84943752D01*
X154013398Y-84938429D01*
X154018388Y-84936683D01*
X154049522Y-84925789D01*
X154081939Y-84905418D01*
X154094086Y-84898705D01*
X154128587Y-84882091D01*
X154158519Y-84858220D01*
X154169853Y-84850179D01*
X154202262Y-84829816D01*
X154329816Y-84702262D01*
X156197826Y-82834252D01*
X156229816Y-82802262D01*
X156250186Y-82769842D01*
X156258221Y-82758517D01*
X156282092Y-82728586D01*
X156298704Y-82694088D01*
X156305423Y-82681933D01*
X156325789Y-82649522D01*
X156338431Y-82613394D01*
X156343749Y-82600553D01*
X156360360Y-82566061D01*
X156368881Y-82528726D01*
X156372718Y-82515403D01*
X156385368Y-82479255D01*
X156389655Y-82441197D01*
X156391979Y-82427523D01*
X156400500Y-82390194D01*
X156400500Y-82209806D01*
X156400500Y-72947719D01*
X156417113Y-72885719D01*
X156418395Y-72883497D01*
X156427179Y-72868284D01*
X156485674Y-72688256D01*
X156505460Y-72500000D01*
X156485674Y-72311744D01*
X156427179Y-72131716D01*
X156332533Y-71967784D01*
X156205871Y-71827112D01*
X156200613Y-71823292D01*
X156200611Y-71823290D01*
X156057988Y-71719669D01*
X156057987Y-71719668D01*
X156052730Y-71715849D01*
X156046792Y-71713205D01*
X155885745Y-71641501D01*
X155885740Y-71641499D01*
X155879803Y-71638856D01*
X155873444Y-71637504D01*
X155873440Y-71637503D01*
X155701008Y-71600852D01*
X155701005Y-71600851D01*
X155694646Y-71599500D01*
X155505354Y-71599500D01*
X155498995Y-71600851D01*
X155498991Y-71600852D01*
X155326559Y-71637503D01*
X155326552Y-71637505D01*
X155320197Y-71638856D01*
X155314262Y-71641498D01*
X155314254Y-71641501D01*
X155153207Y-71713205D01*
X155153202Y-71713207D01*
X155147270Y-71715849D01*
X155142016Y-71719665D01*
X155142011Y-71719669D01*
X154999388Y-71823290D01*
X154999381Y-71823295D01*
X154994129Y-71827112D01*
X154989784Y-71831937D01*
X154989779Y-71831942D01*
X154871813Y-71962956D01*
X154871808Y-71962962D01*
X154867467Y-71967784D01*
X154864222Y-71973404D01*
X154864218Y-71973410D01*
X154776069Y-72126089D01*
X154776066Y-72126094D01*
X154772821Y-72131716D01*
X154770815Y-72137888D01*
X154770813Y-72137894D01*
X154716333Y-72305564D01*
X154716331Y-72305573D01*
X154714326Y-72311744D01*
X154713648Y-72318194D01*
X154713646Y-72318204D01*
X154698102Y-72466108D01*
X154694540Y-72500000D01*
X154695219Y-72506460D01*
X154713646Y-72681795D01*
X154713647Y-72681803D01*
X154714326Y-72688256D01*
X154716331Y-72694428D01*
X154716333Y-72694435D01*
X154769990Y-72859571D01*
X154772821Y-72868284D01*
X154776068Y-72873908D01*
X154776069Y-72873910D01*
X154782887Y-72885719D01*
X154799500Y-72947719D01*
X154799500Y-81917060D01*
X154790061Y-81964513D01*
X154763181Y-82004741D01*
X153404741Y-83363181D01*
X153364513Y-83390061D01*
X153317060Y-83399500D01*
X150476469Y-83399500D01*
X150417452Y-83384555D01*
X150372660Y-83343322D01*
X150328164Y-83275215D01*
X150214854Y-83152127D01*
X150163215Y-83096032D01*
X150163211Y-83096029D01*
X150159744Y-83092262D01*
X149986819Y-82957669D01*
X149967559Y-82942678D01*
X149967557Y-82942676D01*
X149963509Y-82939526D01*
X149953313Y-82934008D01*
X149749316Y-82823610D01*
X149749310Y-82823607D01*
X149744810Y-82821172D01*
X149739969Y-82819510D01*
X149739962Y-82819507D01*
X149514465Y-82742094D01*
X149514461Y-82742093D01*
X149509614Y-82740429D01*
X149401023Y-82722308D01*
X149338970Y-82692606D01*
X149302300Y-82634398D01*
X149302300Y-82565602D01*
X149338970Y-82507394D01*
X149401023Y-82477691D01*
X149509614Y-82459571D01*
X149744810Y-82378828D01*
X149963509Y-82260474D01*
X150159744Y-82107738D01*
X150328164Y-81924785D01*
X150464173Y-81716607D01*
X150564063Y-81488881D01*
X150625108Y-81247821D01*
X150645643Y-81000000D01*
X150625108Y-80752179D01*
X150564063Y-80511119D01*
X150464173Y-80283393D01*
X150453111Y-80266462D01*
X150330971Y-80079512D01*
X150328164Y-80075215D01*
X150309583Y-80055031D01*
X150163215Y-79896032D01*
X150163211Y-79896029D01*
X150159744Y-79892262D01*
X149986819Y-79757669D01*
X149967559Y-79742678D01*
X149967557Y-79742676D01*
X149963509Y-79739526D01*
X149958997Y-79737084D01*
X149749316Y-79623610D01*
X149749310Y-79623607D01*
X149744810Y-79621172D01*
X149739969Y-79619510D01*
X149739962Y-79619507D01*
X149514465Y-79542094D01*
X149514461Y-79542093D01*
X149509614Y-79540429D01*
X149401023Y-79522308D01*
X149338970Y-79492606D01*
X149302300Y-79434398D01*
X149302300Y-79365602D01*
X149338970Y-79307394D01*
X149401023Y-79277691D01*
X149509614Y-79259571D01*
X149744810Y-79178828D01*
X149963509Y-79060474D01*
X150159744Y-78907738D01*
X150328164Y-78724785D01*
X150464173Y-78516607D01*
X150564063Y-78288881D01*
X150625108Y-78047821D01*
X150645643Y-77800000D01*
X150625108Y-77552179D01*
X150564063Y-77311119D01*
X150464173Y-77083393D01*
X150401737Y-76987828D01*
X150348814Y-76906822D01*
X150328164Y-76875215D01*
X150239827Y-76779255D01*
X150163215Y-76696032D01*
X150163211Y-76696029D01*
X150159744Y-76692262D01*
X149963509Y-76539526D01*
X149955484Y-76535183D01*
X149749316Y-76423610D01*
X149749310Y-76423607D01*
X149744810Y-76421172D01*
X149739969Y-76419510D01*
X149739962Y-76419507D01*
X149514465Y-76342094D01*
X149514461Y-76342093D01*
X149509614Y-76340429D01*
X149401023Y-76322308D01*
X149338970Y-76292606D01*
X149302300Y-76234398D01*
X149302300Y-76165602D01*
X149338970Y-76107394D01*
X149401023Y-76077691D01*
X149509614Y-76059571D01*
X149744810Y-75978828D01*
X149963509Y-75860474D01*
X150159744Y-75707738D01*
X150328164Y-75524785D01*
X150372660Y-75456677D01*
X150417452Y-75415445D01*
X150476469Y-75400500D01*
X152323233Y-75400500D01*
X152330194Y-75400500D01*
X152367523Y-75391979D01*
X152381197Y-75389655D01*
X152419255Y-75385368D01*
X152455403Y-75372718D01*
X152468726Y-75368881D01*
X152506061Y-75360360D01*
X152540546Y-75343752D01*
X152553398Y-75338429D01*
X152589522Y-75325789D01*
X152621939Y-75305418D01*
X152634086Y-75298705D01*
X152668587Y-75282091D01*
X152698519Y-75258220D01*
X152709853Y-75250179D01*
X152742262Y-75229816D01*
X152869816Y-75102262D01*
X152869815Y-75102262D01*
X153737826Y-74234252D01*
X153737826Y-74234251D01*
X153769816Y-74202262D01*
X153790180Y-74169850D01*
X153798220Y-74158519D01*
X153822091Y-74128587D01*
X153838705Y-74094086D01*
X153845418Y-74081939D01*
X153865789Y-74049522D01*
X153878429Y-74013397D01*
X153883752Y-74000547D01*
X153891217Y-73985046D01*
X153900360Y-73966061D01*
X153908881Y-73928726D01*
X153912718Y-73915403D01*
X153925368Y-73879255D01*
X153929655Y-73841197D01*
X153931979Y-73827523D01*
X153940500Y-73790194D01*
X153940500Y-73609806D01*
X153940500Y-70542940D01*
X153949939Y-70495487D01*
X153976819Y-70455259D01*
X154795259Y-69636819D01*
X154835487Y-69609939D01*
X154882940Y-69600500D01*
X155157633Y-69600500D01*
X155208069Y-69611221D01*
X155263557Y-69635926D01*
X155320197Y-69661144D01*
X155505354Y-69700500D01*
X155688143Y-69700500D01*
X155694646Y-69700500D01*
X155879803Y-69661144D01*
X156052730Y-69584151D01*
X156205871Y-69472888D01*
X156332533Y-69332216D01*
X156427179Y-69168284D01*
X156485674Y-68988256D01*
X156505460Y-68800000D01*
X156485674Y-68611744D01*
X156427179Y-68431716D01*
X156332533Y-68267784D01*
X156309908Y-68242657D01*
X156210220Y-68131942D01*
X156210219Y-68131941D01*
X156205871Y-68127112D01*
X156200613Y-68123292D01*
X156200611Y-68123290D01*
X156057988Y-68019669D01*
X156057987Y-68019668D01*
X156052730Y-68015849D01*
X156040368Y-68010345D01*
X155885745Y-67941501D01*
X155885740Y-67941499D01*
X155879803Y-67938856D01*
X155873444Y-67937504D01*
X155873440Y-67937503D01*
X155701008Y-67900852D01*
X155701005Y-67900851D01*
X155694646Y-67899500D01*
X155505354Y-67899500D01*
X155498995Y-67900851D01*
X155498991Y-67900852D01*
X155326559Y-67937503D01*
X155326552Y-67937505D01*
X155320197Y-67938856D01*
X155314262Y-67941498D01*
X155314254Y-67941501D01*
X155208069Y-67988779D01*
X155157633Y-67999500D01*
X154590194Y-67999500D01*
X154409805Y-67999500D01*
X154372481Y-68008018D01*
X154358786Y-68010345D01*
X154327666Y-68013852D01*
X154327665Y-68013852D01*
X154320745Y-68014632D01*
X154314173Y-68016931D01*
X154314166Y-68016933D01*
X154284608Y-68027275D01*
X154271257Y-68031122D01*
X154240723Y-68038092D01*
X154240719Y-68038093D01*
X154233939Y-68039641D01*
X154227674Y-68042657D01*
X154227665Y-68042661D01*
X154199457Y-68056245D01*
X154186619Y-68061563D01*
X154157047Y-68071911D01*
X154157037Y-68071915D01*
X154150478Y-68074211D01*
X154144589Y-68077910D01*
X154144585Y-68077913D01*
X154118064Y-68094577D01*
X154105898Y-68101301D01*
X154077689Y-68114886D01*
X154077685Y-68114888D01*
X154071413Y-68117909D01*
X154065967Y-68122251D01*
X154065965Y-68122253D01*
X154041487Y-68141773D01*
X154030152Y-68149816D01*
X153997738Y-68170184D01*
X153992816Y-68175105D01*
X153992812Y-68175109D01*
X152515109Y-69652812D01*
X152515105Y-69652816D01*
X152510184Y-69657738D01*
X152506479Y-69663632D01*
X152506479Y-69663634D01*
X152489816Y-69690152D01*
X152481773Y-69701487D01*
X152462253Y-69725965D01*
X152462251Y-69725967D01*
X152457909Y-69731413D01*
X152454889Y-69737682D01*
X152454883Y-69737693D01*
X152441299Y-69765900D01*
X152434577Y-69778064D01*
X152414211Y-69810478D01*
X152411915Y-69817037D01*
X152411911Y-69817047D01*
X152401565Y-69846613D01*
X152396247Y-69859451D01*
X152382660Y-69887666D01*
X152382657Y-69887671D01*
X152379640Y-69893939D01*
X152378092Y-69900717D01*
X152378089Y-69900728D01*
X152371118Y-69931268D01*
X152367272Y-69944619D01*
X152354632Y-69980745D01*
X152353852Y-69987663D01*
X152353852Y-69987665D01*
X152350345Y-70018781D01*
X152348017Y-70032479D01*
X152341050Y-70063008D01*
X152341048Y-70063020D01*
X152339500Y-70069806D01*
X152339500Y-70076772D01*
X152339500Y-73317060D01*
X152330061Y-73364513D01*
X152303181Y-73404741D01*
X151944741Y-73763181D01*
X151904513Y-73790061D01*
X151857060Y-73799500D01*
X150476469Y-73799500D01*
X150417452Y-73784555D01*
X150372660Y-73743322D01*
X150328164Y-73675215D01*
X150260225Y-73601413D01*
X150163215Y-73496032D01*
X150163211Y-73496029D01*
X150159744Y-73492262D01*
X149979699Y-73352127D01*
X149967559Y-73342678D01*
X149967557Y-73342676D01*
X149963509Y-73339526D01*
X149958997Y-73337084D01*
X149749316Y-73223610D01*
X149749310Y-73223607D01*
X149744810Y-73221172D01*
X149739969Y-73219510D01*
X149739962Y-73219507D01*
X149514465Y-73142094D01*
X149514461Y-73142093D01*
X149509614Y-73140429D01*
X149401023Y-73122308D01*
X149338970Y-73092606D01*
X149302300Y-73034398D01*
X149302300Y-72965602D01*
X149338970Y-72907394D01*
X149401023Y-72877691D01*
X149509614Y-72859571D01*
X149744810Y-72778828D01*
X149963509Y-72660474D01*
X150159744Y-72507738D01*
X150328164Y-72324785D01*
X150464173Y-72116607D01*
X150564063Y-71888881D01*
X150625108Y-71647821D01*
X150645643Y-71400000D01*
X150625108Y-71152179D01*
X150564063Y-70911119D01*
X150464173Y-70683393D01*
X150328164Y-70475215D01*
X150324688Y-70471439D01*
X150163215Y-70296032D01*
X150163211Y-70296029D01*
X150159744Y-70292262D01*
X149982587Y-70154375D01*
X149967559Y-70142678D01*
X149967557Y-70142676D01*
X149963509Y-70139526D01*
X149897802Y-70103967D01*
X149749316Y-70023610D01*
X149749310Y-70023607D01*
X149744810Y-70021172D01*
X149739969Y-70019510D01*
X149739962Y-70019507D01*
X149514465Y-69942094D01*
X149514461Y-69942093D01*
X149509614Y-69940429D01*
X149474802Y-69934620D01*
X149269398Y-69900344D01*
X149269387Y-69900343D01*
X149264335Y-69899500D01*
X149015665Y-69899500D01*
X149010613Y-69900343D01*
X149010601Y-69900344D01*
X148775443Y-69939585D01*
X148775441Y-69939585D01*
X148770386Y-69940429D01*
X148765541Y-69942092D01*
X148765534Y-69942094D01*
X148540037Y-70019507D01*
X148540026Y-70019511D01*
X148535190Y-70021172D01*
X148530693Y-70023605D01*
X148530683Y-70023610D01*
X148321002Y-70137084D01*
X148320995Y-70137088D01*
X148316491Y-70139526D01*
X148312448Y-70142672D01*
X148312440Y-70142678D01*
X148124304Y-70289111D01*
X148120256Y-70292262D01*
X148116793Y-70296023D01*
X148116784Y-70296032D01*
X147961230Y-70465010D01*
X147903741Y-70500348D01*
X147836259Y-70500348D01*
X147778770Y-70465010D01*
X147623215Y-70296032D01*
X147623211Y-70296029D01*
X147619744Y-70292262D01*
X147498337Y-70197767D01*
X147463100Y-70154375D01*
X147450500Y-70099915D01*
X147450500Y-69599606D01*
X147450909Y-69589542D01*
X147454655Y-69543537D01*
X147455201Y-69536833D01*
X147444490Y-69458224D01*
X147444086Y-69454918D01*
X147437574Y-69395035D01*
X147435514Y-69376090D01*
X147433362Y-69369705D01*
X147432309Y-69364920D01*
X147431134Y-69360198D01*
X147430227Y-69353532D01*
X147402868Y-69279061D01*
X147401753Y-69275894D01*
X147390219Y-69241663D01*
X147376444Y-69200779D01*
X147372979Y-69195020D01*
X147370917Y-69190563D01*
X147368752Y-69186198D01*
X147366433Y-69179884D01*
X147323699Y-69113029D01*
X147321941Y-69110193D01*
X147284537Y-69048025D01*
X147284533Y-69048020D01*
X147281070Y-69042264D01*
X147276450Y-69037387D01*
X147273505Y-69033513D01*
X147270420Y-69029676D01*
X147266800Y-69024011D01*
X147210730Y-68967941D01*
X147208389Y-68965536D01*
X147158474Y-68912841D01*
X147158471Y-68912838D01*
X147153849Y-68907959D01*
X147148281Y-68904184D01*
X147143433Y-68900066D01*
X147136027Y-68893238D01*
X146819400Y-68576611D01*
X146812573Y-68569206D01*
X146778337Y-68528900D01*
X146715213Y-68480914D01*
X146712622Y-68478889D01*
X146650754Y-68429158D01*
X146644732Y-68426171D01*
X146640630Y-68423549D01*
X146636412Y-68421011D01*
X146631064Y-68416946D01*
X146559082Y-68383643D01*
X146556057Y-68382193D01*
X146491045Y-68349951D01*
X146491040Y-68349949D01*
X146485021Y-68346964D01*
X146478498Y-68345341D01*
X146473825Y-68343625D01*
X146469259Y-68342086D01*
X146463167Y-68339268D01*
X146456607Y-68337824D01*
X146456604Y-68337823D01*
X146385733Y-68322223D01*
X146382464Y-68321457D01*
X146312018Y-68303938D01*
X146312015Y-68303937D01*
X146305495Y-68302316D01*
X146298773Y-68302133D01*
X146293904Y-68301470D01*
X146289053Y-68300942D01*
X146282497Y-68299500D01*
X146275779Y-68299500D01*
X146203227Y-68299500D01*
X146199870Y-68299455D01*
X146127288Y-68297489D01*
X146120568Y-68297307D01*
X146113960Y-68298574D01*
X146107625Y-68299091D01*
X146097557Y-68299500D01*
X142059606Y-68299500D01*
X142049542Y-68299091D01*
X142003537Y-68295344D01*
X142003528Y-68295344D01*
X141996833Y-68294799D01*
X141990169Y-68295706D01*
X141990165Y-68295707D01*
X141918265Y-68305502D01*
X141914936Y-68305910D01*
X141842771Y-68313759D01*
X141842767Y-68313759D01*
X141836090Y-68314486D01*
X141829730Y-68316628D01*
X141824961Y-68317678D01*
X141820182Y-68318866D01*
X141813532Y-68319773D01*
X141807224Y-68322090D01*
X141807221Y-68322091D01*
X141739073Y-68347126D01*
X141735912Y-68348239D01*
X141674098Y-68369068D01*
X141660779Y-68373556D01*
X141655033Y-68377012D01*
X141650593Y-68379066D01*
X141646185Y-68381252D01*
X141639884Y-68383568D01*
X141634222Y-68387186D01*
X141634218Y-68387189D01*
X141573081Y-68426267D01*
X141570230Y-68428036D01*
X141508015Y-68465469D01*
X141508010Y-68465472D01*
X141502264Y-68468930D01*
X141497397Y-68473539D01*
X141493518Y-68476488D01*
X141489660Y-68479589D01*
X141484011Y-68483201D01*
X141479264Y-68487947D01*
X141479265Y-68487947D01*
X141427977Y-68539234D01*
X141425573Y-68541573D01*
X141372843Y-68591523D01*
X141372836Y-68591530D01*
X141367959Y-68596151D01*
X141364187Y-68601713D01*
X141360056Y-68606577D01*
X141353230Y-68613980D01*
X140766610Y-69200599D01*
X140759207Y-69207424D01*
X140724023Y-69237310D01*
X140724016Y-69237317D01*
X140718900Y-69241663D01*
X140714836Y-69247007D01*
X140714832Y-69247013D01*
X140670923Y-69304772D01*
X140668858Y-69307413D01*
X140623367Y-69364008D01*
X140623361Y-69364016D01*
X140619158Y-69369246D01*
X140616177Y-69375254D01*
X140613557Y-69379354D01*
X140611005Y-69383594D01*
X140606946Y-69388936D01*
X140604128Y-69395026D01*
X140604123Y-69395035D01*
X140573642Y-69460917D01*
X140572194Y-69463939D01*
X140539951Y-69528954D01*
X140539948Y-69528961D01*
X140536964Y-69534979D01*
X140535343Y-69541495D01*
X140533635Y-69546145D01*
X140532086Y-69550739D01*
X140529268Y-69556833D01*
X140527824Y-69563390D01*
X140527820Y-69563404D01*
X140512218Y-69634282D01*
X140511453Y-69637549D01*
X140493936Y-69707986D01*
X140493934Y-69707996D01*
X140492316Y-69714505D01*
X140492133Y-69721214D01*
X140491475Y-69726050D01*
X140490943Y-69730944D01*
X140489500Y-69737503D01*
X140489500Y-69744223D01*
X140489500Y-69816773D01*
X140489454Y-69820130D01*
X140487307Y-69899432D01*
X140488574Y-69906039D01*
X140489091Y-69912375D01*
X140489500Y-69922443D01*
X140489500Y-80210394D01*
X140489091Y-80220458D01*
X140485344Y-80266462D01*
X140485344Y-80266470D01*
X140484799Y-80273167D01*
X140000500Y-80273167D01*
X140000500Y-63300000D01*
X141269533Y-63300000D01*
X141269822Y-63304225D01*
X141274211Y-63368391D01*
X141274500Y-63376853D01*
X141274500Y-63445388D01*
X141275076Y-63449580D01*
X141275077Y-63449592D01*
X141283830Y-63513280D01*
X141284696Y-63521698D01*
X141289086Y-63585867D01*
X141289376Y-63590099D01*
X141290235Y-63594233D01*
X141290236Y-63594240D01*
X141303324Y-63657226D01*
X141304762Y-63665567D01*
X141314094Y-63733456D01*
X141315237Y-63737535D01*
X141315239Y-63737545D01*
X141332584Y-63799453D01*
X141334588Y-63807675D01*
X141348536Y-63874793D01*
X141351025Y-63881795D01*
X141371490Y-63939380D01*
X141374050Y-63947448D01*
X141391398Y-64009364D01*
X141391403Y-64009379D01*
X141392544Y-64013450D01*
X141394228Y-64017328D01*
X141394231Y-64017335D01*
X141401854Y-64034884D01*
X141419852Y-64076320D01*
X141419853Y-64076321D01*
X141422959Y-64084198D01*
X141444489Y-64144778D01*
X141444491Y-64144783D01*
X141445912Y-64148780D01*
X141447859Y-64152538D01*
X141447862Y-64152544D01*
X141477445Y-64209636D01*
X141481077Y-64217273D01*
X141508390Y-64280153D01*
X141524232Y-64306204D01*
X141544005Y-64338720D01*
X141548153Y-64346098D01*
X141575850Y-64399550D01*
X141579688Y-64406956D01*
X141619214Y-64462951D01*
X141623854Y-64470025D01*
X141659473Y-64528598D01*
X141662143Y-64531880D01*
X141662146Y-64531884D01*
X141702728Y-64581766D01*
X141707843Y-64588511D01*
X141744927Y-64641048D01*
X141744931Y-64641053D01*
X141747373Y-64644512D01*
X141750266Y-64647610D01*
X141750268Y-64647612D01*
X141794154Y-64694602D01*
X141799713Y-64700977D01*
X141842978Y-64754157D01*
X141846071Y-64757045D01*
X141846076Y-64757051D01*
X141893070Y-64800940D01*
X141899058Y-64806928D01*
X141942950Y-64853925D01*
X141945843Y-64857022D01*
X141949116Y-64859685D01*
X141949127Y-64859695D01*
X141999014Y-64900281D01*
X142005395Y-64905845D01*
X142052387Y-64949732D01*
X142052396Y-64949739D01*
X142055488Y-64952627D01*
X142111491Y-64992158D01*
X142118219Y-64997260D01*
X142168112Y-65037852D01*
X142168126Y-65037862D01*
X142171402Y-65040527D01*
X142223574Y-65072253D01*
X142229961Y-65076137D01*
X142237040Y-65080781D01*
X142289573Y-65117863D01*
X142289580Y-65117867D01*
X142293044Y-65120312D01*
X142353910Y-65151850D01*
X142361279Y-65155994D01*
X142419847Y-65191610D01*
X142482735Y-65218926D01*
X142490357Y-65222551D01*
X142511315Y-65233410D01*
X142547452Y-65252136D01*
X142547457Y-65252138D01*
X142551220Y-65254088D01*
X142585505Y-65266272D01*
X142615795Y-65277038D01*
X142623672Y-65280144D01*
X142686550Y-65307456D01*
X142752548Y-65325947D01*
X142760604Y-65328503D01*
X142825207Y-65351464D01*
X142892333Y-65365412D01*
X142900535Y-65367411D01*
X142966544Y-65385906D01*
X143034445Y-65395238D01*
X143042766Y-65396673D01*
X143109901Y-65410624D01*
X143178280Y-65415301D01*
X143178295Y-65415302D01*
X143186717Y-65416167D01*
X143254612Y-65425500D01*
X143327384Y-65425500D01*
X143541151Y-65425500D01*
X143545388Y-65425500D01*
X143613316Y-65416163D01*
X143621680Y-65415303D01*
X143690099Y-65410624D01*
X143757242Y-65396670D01*
X143765548Y-65395239D01*
X143833456Y-65385906D01*
X143899450Y-65367414D01*
X143907658Y-65365414D01*
X143974793Y-65351464D01*
X144039385Y-65328506D01*
X144047422Y-65325954D01*
X144113450Y-65307456D01*
X144176341Y-65280137D01*
X144184187Y-65277043D01*
X144248780Y-65254088D01*
X144309657Y-65222542D01*
X144317273Y-65218922D01*
X144317287Y-65218916D01*
X144380153Y-65191610D01*
X144438726Y-65155990D01*
X144446074Y-65151858D01*
X144506956Y-65120312D01*
X144562972Y-65080770D01*
X144570025Y-65076145D01*
X144570038Y-65076137D01*
X144628598Y-65040527D01*
X144681779Y-64997260D01*
X144688509Y-64992158D01*
X144711847Y-64975683D01*
X144744512Y-64952627D01*
X144794632Y-64905817D01*
X144800983Y-64900281D01*
X144854157Y-64857022D01*
X144900949Y-64806918D01*
X144906918Y-64800949D01*
X144957022Y-64754157D01*
X145000286Y-64700976D01*
X145005817Y-64694632D01*
X145052627Y-64644512D01*
X145075683Y-64611848D01*
X145092158Y-64588509D01*
X145097260Y-64581779D01*
X145140527Y-64528598D01*
X145176147Y-64470021D01*
X145180770Y-64462972D01*
X145220312Y-64406956D01*
X145251858Y-64346074D01*
X145255995Y-64338718D01*
X145272536Y-64311519D01*
X145291610Y-64280153D01*
X145318923Y-64217269D01*
X145322542Y-64209657D01*
X145354088Y-64148780D01*
X145377043Y-64084187D01*
X145380146Y-64076321D01*
X145407456Y-64013450D01*
X145425954Y-63947422D01*
X145428507Y-63939384D01*
X145450046Y-63878782D01*
X145450047Y-63878779D01*
X145451464Y-63874793D01*
X145465414Y-63807658D01*
X145467417Y-63799442D01*
X145467775Y-63798167D01*
X145485906Y-63733456D01*
X145495239Y-63665548D01*
X145496674Y-63657226D01*
X145510624Y-63590099D01*
X145515303Y-63521680D01*
X145516163Y-63513316D01*
X145525500Y-63445388D01*
X145525500Y-63376853D01*
X145525789Y-63368391D01*
X145530178Y-63304225D01*
X145530467Y-63300000D01*
X145525789Y-63231609D01*
X145525500Y-63223147D01*
X145525500Y-63158849D01*
X145525500Y-63154612D01*
X145516167Y-63086717D01*
X145515302Y-63078295D01*
X145510624Y-63009901D01*
X145496673Y-62942766D01*
X145495237Y-62934437D01*
X145485906Y-62866544D01*
X145467411Y-62800535D01*
X145465412Y-62792333D01*
X145451464Y-62725207D01*
X145428503Y-62660604D01*
X145425944Y-62652539D01*
X145408599Y-62590630D01*
X145408597Y-62590623D01*
X145407456Y-62586550D01*
X145380144Y-62523672D01*
X145377038Y-62515795D01*
X145355508Y-62455216D01*
X145355505Y-62455208D01*
X145354088Y-62451220D01*
X145322551Y-62390357D01*
X145318924Y-62382730D01*
X145291610Y-62319847D01*
X145255994Y-62261278D01*
X145251847Y-62253904D01*
X145220312Y-62193044D01*
X145217869Y-62189584D01*
X145217863Y-62189573D01*
X145180781Y-62137040D01*
X145176137Y-62129961D01*
X145142723Y-62075014D01*
X145140527Y-62071402D01*
X145137862Y-62068126D01*
X145137852Y-62068112D01*
X145097260Y-62018219D01*
X145092158Y-62011491D01*
X145052627Y-61955488D01*
X145049739Y-61952396D01*
X145049732Y-61952387D01*
X145005845Y-61905395D01*
X145000281Y-61899014D01*
X144959695Y-61849127D01*
X144959685Y-61849116D01*
X144957022Y-61845843D01*
X144953930Y-61842955D01*
X144953927Y-61842952D01*
X144906928Y-61799058D01*
X144900940Y-61793070D01*
X144857051Y-61746076D01*
X144857045Y-61746071D01*
X144854157Y-61742978D01*
X144800977Y-61699713D01*
X144794607Y-61694158D01*
X144744512Y-61647373D01*
X144741055Y-61644933D01*
X144741048Y-61644927D01*
X144688511Y-61607843D01*
X144681766Y-61602728D01*
X144631884Y-61562146D01*
X144631880Y-61562143D01*
X144628598Y-61559473D01*
X144570028Y-61523856D01*
X144562960Y-61519219D01*
X144506956Y-61479688D01*
X144503191Y-61477737D01*
X144446098Y-61448153D01*
X144438720Y-61444005D01*
X144380153Y-61408390D01*
X144317277Y-61381078D01*
X144309636Y-61377445D01*
X144309626Y-61377440D01*
X144286701Y-61365561D01*
X144252544Y-61347862D01*
X144252540Y-61347860D01*
X144248780Y-61345912D01*
X144244786Y-61344492D01*
X144244778Y-61344489D01*
X144184198Y-61322959D01*
X144176329Y-61319856D01*
X144147104Y-61307162D01*
X144117335Y-61294231D01*
X144117328Y-61294228D01*
X144113450Y-61292544D01*
X144109379Y-61291403D01*
X144109364Y-61291398D01*
X144047448Y-61274050D01*
X144039380Y-61271490D01*
X144001815Y-61258140D01*
X143974793Y-61248536D01*
X143946585Y-61242674D01*
X143907675Y-61234588D01*
X143899453Y-61232584D01*
X143837545Y-61215239D01*
X143837536Y-61215237D01*
X143833456Y-61214094D01*
X143829259Y-61213517D01*
X143829254Y-61213516D01*
X143765567Y-61204762D01*
X143757226Y-61203324D01*
X143694240Y-61190236D01*
X143694233Y-61190235D01*
X143690099Y-61189376D01*
X143685885Y-61189087D01*
X143685880Y-61189087D01*
X143621698Y-61184696D01*
X143613280Y-61183830D01*
X143549592Y-61175077D01*
X143549580Y-61175076D01*
X143545388Y-61174500D01*
X143254612Y-61174500D01*
X143250419Y-61175076D01*
X143250408Y-61175077D01*
X143186720Y-61183830D01*
X143178302Y-61184696D01*
X143114121Y-61189087D01*
X143114116Y-61189087D01*
X143109901Y-61189376D01*
X143105760Y-61190236D01*
X143105756Y-61190237D01*
X143042776Y-61203323D01*
X143034437Y-61204761D01*
X142970739Y-61213517D01*
X142970733Y-61213518D01*
X142966544Y-61214094D01*
X142962468Y-61215235D01*
X142962458Y-61215238D01*
X142900550Y-61232583D01*
X142892328Y-61234587D01*
X142829355Y-61247673D01*
X142829341Y-61247676D01*
X142825207Y-61248536D01*
X142821229Y-61249949D01*
X142821221Y-61249952D01*
X142777724Y-61265411D01*
X142760620Y-61271490D01*
X142752559Y-61274049D01*
X142690623Y-61291402D01*
X142690612Y-61291405D01*
X142686550Y-61292544D01*
X142682677Y-61294225D01*
X142682655Y-61294234D01*
X142623666Y-61319856D01*
X142615795Y-61322960D01*
X142555208Y-61344494D01*
X142555200Y-61344497D01*
X142551220Y-61345912D01*
X142547476Y-61347851D01*
X142547462Y-61347858D01*
X142490370Y-61377440D01*
X142482730Y-61381074D01*
X142423727Y-61406704D01*
X142423719Y-61406707D01*
X142419847Y-61408390D01*
X142416239Y-61410583D01*
X142416237Y-61410585D01*
X142361278Y-61444005D01*
X142353903Y-61448151D01*
X142296804Y-61477739D01*
X142296796Y-61477743D01*
X142293044Y-61479688D01*
X142289601Y-61482118D01*
X142289585Y-61482128D01*
X142237031Y-61519224D01*
X142229958Y-61523863D01*
X142171402Y-61559473D01*
X142168113Y-61562148D01*
X142168104Y-61562155D01*
X142118222Y-61602736D01*
X142111478Y-61607850D01*
X142058954Y-61644926D01*
X142058953Y-61644927D01*
X142055488Y-61647373D01*
X142052394Y-61650262D01*
X142052386Y-61650269D01*
X142005391Y-61694157D01*
X141999014Y-61699717D01*
X141949138Y-61740295D01*
X141949119Y-61740312D01*
X141945843Y-61742978D01*
X141942952Y-61746073D01*
X141942946Y-61746079D01*
X141899055Y-61793073D01*
X141893073Y-61799055D01*
X141846079Y-61842946D01*
X141846073Y-61842952D01*
X141842978Y-61845843D01*
X141840312Y-61849119D01*
X141840295Y-61849138D01*
X141799717Y-61899014D01*
X141794157Y-61905391D01*
X141750269Y-61952386D01*
X141750262Y-61952394D01*
X141747373Y-61955488D01*
X141744928Y-61958950D01*
X141744926Y-61958954D01*
X141707850Y-62011478D01*
X141702736Y-62018222D01*
X141662155Y-62068104D01*
X141662148Y-62068113D01*
X141659473Y-62071402D01*
X141657275Y-62075017D01*
X141623865Y-62129956D01*
X141619224Y-62137031D01*
X141582128Y-62189585D01*
X141582118Y-62189601D01*
X141579688Y-62193044D01*
X141577743Y-62196796D01*
X141577739Y-62196804D01*
X141548151Y-62253903D01*
X141544005Y-62261278D01*
X141510585Y-62316237D01*
X141508390Y-62319847D01*
X141506707Y-62323719D01*
X141506704Y-62323727D01*
X141481074Y-62382730D01*
X141477440Y-62390370D01*
X141447858Y-62447462D01*
X141447851Y-62447476D01*
X141445912Y-62451220D01*
X141444497Y-62455200D01*
X141444494Y-62455208D01*
X141422960Y-62515795D01*
X141419856Y-62523666D01*
X141394234Y-62582655D01*
X141394225Y-62582677D01*
X141392544Y-62586550D01*
X141391405Y-62590612D01*
X141391402Y-62590623D01*
X141374049Y-62652559D01*
X141371488Y-62660627D01*
X141349952Y-62721221D01*
X141349951Y-62721225D01*
X141348536Y-62725207D01*
X141347676Y-62729341D01*
X141347673Y-62729355D01*
X141334587Y-62792328D01*
X141332583Y-62800550D01*
X141315238Y-62862458D01*
X141315235Y-62862468D01*
X141314094Y-62866544D01*
X141313518Y-62870733D01*
X141313517Y-62870739D01*
X141304761Y-62934437D01*
X141303323Y-62942776D01*
X141292768Y-62993577D01*
X141289376Y-63009901D01*
X141289087Y-63014116D01*
X141289087Y-63014121D01*
X141284696Y-63078302D01*
X141283830Y-63086720D01*
X141275077Y-63150408D01*
X141275077Y-63150414D01*
X141274500Y-63154612D01*
X141274500Y-63158849D01*
X141274500Y-63158851D01*
X141274500Y-63223147D01*
X141274210Y-63231609D01*
X141269533Y-63300000D01*
X140000500Y-63300000D01*
X140000500Y-60124500D01*
X140017113Y-60062500D01*
X140062500Y-60017113D01*
X140124500Y-60000500D01*
X189875500Y-60000500D01*
X189937500Y-60017113D01*
G37*
%TD.AperFunction*%
%TD*%
%TA.AperFunction,Conductor*%
%TO.N,+5V*%
G36*
X170322591Y-97868422D02*
G01*
X170377310Y-97901087D01*
X170982861Y-98522165D01*
X171004691Y-98552688D01*
X171016390Y-98588344D01*
X171737102Y-102912616D01*
X171737103Y-102912618D01*
X171740000Y-102930000D01*
X171741322Y-102921406D01*
X171743356Y-102925644D01*
X171755530Y-102982340D01*
X171712944Y-104719853D01*
X171695484Y-104780321D01*
X171650587Y-104824429D01*
X171589819Y-104840812D01*
X168873643Y-104859164D01*
X168811635Y-104843029D01*
X168765959Y-104798095D01*
X168748811Y-104736359D01*
X168748652Y-104719853D01*
X168730179Y-102798698D01*
X168735342Y-102762083D01*
X170169697Y-97952213D01*
X170202990Y-97897876D01*
X170258875Y-97867248D01*
X170322591Y-97868422D01*
G37*
%TD.AperFunction*%
%TD*%
M02*
