%TF.GenerationSoftware,KiCad,Pcbnew,7.0.1*%
%TF.CreationDate,2023-08-29T20:30:58-03:00*%
%TF.ProjectId,Wakanda_MultiRobot,57616b61-6e64-4615-9f4d-756c7469526f,rev?*%
%TF.SameCoordinates,Original*%
%TF.FileFunction,Soldermask,Top*%
%TF.FilePolarity,Negative*%
%FSLAX46Y46*%
G04 Gerber Fmt 4.6, Leading zero omitted, Abs format (unit mm)*
G04 Created by KiCad (PCBNEW 7.0.1) date 2023-08-29 20:30:58*
%MOMM*%
%LPD*%
G01*
G04 APERTURE LIST*
%ADD10R,1.000760X1.000760*%
%ADD11R,1.498600X1.300480*%
%ADD12C,0.700000*%
%ADD13R,3.000000X5.500000*%
%ADD14R,3.100000X5.500000*%
%ADD15R,1.750000X2.200000*%
%ADD16O,1.750000X2.200000*%
%ADD17R,1.500000X2.000000*%
%ADD18R,3.800000X2.000000*%
%ADD19R,2.000000X2.000000*%
%ADD20O,2.000000X2.000000*%
%ADD21C,1.524000*%
%ADD22R,1.000000X2.700000*%
%ADD23R,0.711200X2.000000*%
%ADD24C,3.250000*%
%ADD25R,1.524000X1.524000*%
%ADD26R,0.889000X1.397000*%
%ADD27R,3.500000X7.000000*%
%ADD28R,1.500000X0.900000*%
%ADD29R,0.900000X1.500000*%
%ADD30R,0.900000X0.900000*%
G04 APERTURE END LIST*
D10*
%TO.C,EN1*%
X158750000Y-88849180D03*
X158750000Y-81650820D03*
%TD*%
D11*
%TO.C,C8*%
X154600000Y-63152500D03*
X154600000Y-61247500D03*
%TD*%
D12*
%TO.C,J1*%
X159260000Y-103170000D03*
X159260000Y-103790000D03*
X159260000Y-104390000D03*
X159260000Y-105010000D03*
X159860000Y-103170000D03*
X159860000Y-103790000D03*
X159860000Y-104390000D03*
X159860000Y-105010000D03*
D13*
X160180000Y-105520000D03*
D12*
X160460000Y-103150000D03*
X160460000Y-103770000D03*
X160460000Y-104370000D03*
X160460000Y-104990000D03*
X161060000Y-103170000D03*
X161060000Y-103790000D03*
X161060000Y-104390000D03*
X161060000Y-105010000D03*
X164360000Y-103250000D03*
X164360000Y-103870000D03*
X164360000Y-104470000D03*
X164360000Y-105090000D03*
X164960000Y-103250000D03*
X164960000Y-103870000D03*
X164960000Y-104470000D03*
X164960000Y-105090000D03*
D14*
X165310000Y-105570000D03*
D12*
X165560000Y-103250000D03*
X165560000Y-103870000D03*
X165560000Y-104470000D03*
X165560000Y-105090000D03*
X166160000Y-103250000D03*
X166160000Y-103870000D03*
X166160000Y-104470000D03*
X166160000Y-105070000D03*
X169470000Y-103870000D03*
X169470000Y-105140000D03*
X169490000Y-103270000D03*
X169490000Y-104540000D03*
X170040000Y-103870000D03*
X170040000Y-105140000D03*
X170060000Y-103270000D03*
X170060000Y-104540000D03*
D13*
X170250000Y-105570000D03*
D12*
X170670000Y-103870000D03*
X170670000Y-105140000D03*
X170690000Y-103270000D03*
X170690000Y-104540000D03*
X171270000Y-103870000D03*
X171270000Y-105140000D03*
X171290000Y-103270000D03*
X171290000Y-104540000D03*
%TD*%
D15*
%TO.C,J9*%
X180440000Y-74500000D03*
D16*
X182980000Y-74500000D03*
X185520000Y-74500000D03*
X188060000Y-74500000D03*
%TD*%
D11*
%TO.C,C1*%
X141220000Y-94512500D03*
X141220000Y-92607500D03*
%TD*%
D17*
%TO.C,U4*%
X173900000Y-97750000D03*
X176200000Y-97750000D03*
D18*
X176200000Y-91450000D03*
D17*
X178500000Y-97750000D03*
%TD*%
D19*
%TO.C,J4*%
X144060000Y-71400000D03*
D20*
X146600000Y-71400000D03*
X149140000Y-71400000D03*
%TD*%
D21*
%TO.C,C10*%
X182800000Y-94900000D03*
D22*
X182800000Y-94900000D03*
D21*
X182800000Y-90900000D03*
D22*
X182800000Y-90900000D03*
%TD*%
D19*
%TO.C,J2*%
X144060000Y-84200000D03*
D20*
X146600000Y-84200000D03*
X149140000Y-84200000D03*
%TD*%
D11*
%TO.C,C2*%
X159000000Y-96452500D03*
X159000000Y-94547500D03*
%TD*%
D21*
%TO.C,C9*%
X169600000Y-95300000D03*
D22*
X169600000Y-95300000D03*
D21*
X169600000Y-91300000D03*
D22*
X169600000Y-91300000D03*
%TD*%
D19*
%TO.C,J3*%
X144060000Y-81000000D03*
D20*
X146600000Y-81000000D03*
X149140000Y-81000000D03*
%TD*%
D23*
%TO.C,U3*%
X164915000Y-90640000D03*
D12*
X164810000Y-94640000D03*
X164810000Y-93940000D03*
X164810000Y-93240000D03*
X164810000Y-92540000D03*
X164110000Y-94640000D03*
X164110000Y-93940000D03*
X164110000Y-93240000D03*
X164110000Y-92540000D03*
X163410000Y-94640000D03*
X163410000Y-93940000D03*
X163410000Y-93240000D03*
X163410000Y-92540000D03*
X162710000Y-94640000D03*
X162710000Y-93940000D03*
X162710000Y-93240000D03*
X162710000Y-92540000D03*
X162010000Y-94640000D03*
X162010000Y-93940000D03*
X162010000Y-93240000D03*
X162010000Y-92540000D03*
X161310000Y-94640000D03*
X161310000Y-93940000D03*
X161310000Y-93240000D03*
X161310000Y-92540000D03*
D23*
X163645000Y-90640000D03*
X162375000Y-90640000D03*
X161105000Y-90640000D03*
X161105000Y-96640000D03*
X162375000Y-96640000D03*
X163645000Y-96640000D03*
X164915000Y-96640000D03*
%TD*%
D24*
%TO.C,P3*%
X186790000Y-97190000D03*
%TD*%
D25*
%TO.C,C3*%
X153100000Y-92600000D03*
D21*
X153100000Y-90600000D03*
%TD*%
D15*
%TO.C,J10*%
X180420000Y-80000000D03*
D16*
X182960000Y-80000000D03*
X185500000Y-80000000D03*
X188040000Y-80000000D03*
%TD*%
D26*
%TO.C,R3*%
X155552500Y-66000000D03*
X153647500Y-66000000D03*
%TD*%
D19*
%TO.C,J7*%
X188115000Y-62500000D03*
D20*
X185575000Y-62500000D03*
X183035000Y-62500000D03*
%TD*%
D11*
%TO.C,C7*%
X162100000Y-83700000D03*
X162100000Y-85605000D03*
%TD*%
D15*
%TO.C,J14*%
X180390000Y-85400000D03*
D16*
X182930000Y-85400000D03*
X185470000Y-85400000D03*
X188010000Y-85400000D03*
%TD*%
D19*
%TO.C,J6*%
X188040000Y-69000000D03*
D20*
X185500000Y-69000000D03*
X182960000Y-69000000D03*
%TD*%
D26*
%TO.C,R4*%
X171952500Y-83600000D03*
X170047500Y-83600000D03*
%TD*%
D23*
%TO.C,U2*%
X147080000Y-90400000D03*
D12*
X146975000Y-94400000D03*
X146975000Y-93700000D03*
X146975000Y-93000000D03*
X146975000Y-92300000D03*
X146275000Y-94400000D03*
X146275000Y-93700000D03*
X146275000Y-93000000D03*
X146275000Y-92300000D03*
X145575000Y-94400000D03*
X145575000Y-93700000D03*
X145575000Y-93000000D03*
X145575000Y-92300000D03*
X144875000Y-94400000D03*
X144875000Y-93700000D03*
X144875000Y-93000000D03*
X144875000Y-92300000D03*
X144175000Y-94400000D03*
X144175000Y-93700000D03*
X144175000Y-93000000D03*
X144175000Y-92300000D03*
X143475000Y-94400000D03*
X143475000Y-93700000D03*
X143475000Y-93000000D03*
X143475000Y-92300000D03*
D23*
X145810000Y-90400000D03*
X144540000Y-90400000D03*
X143270000Y-90400000D03*
X143270000Y-96400000D03*
X144540000Y-96400000D03*
X145810000Y-96400000D03*
X147080000Y-96400000D03*
%TD*%
D19*
%TO.C,J5*%
X188040000Y-65750000D03*
D20*
X185500000Y-65750000D03*
X182960000Y-65750000D03*
%TD*%
D12*
%TO.C,J12*%
X181430000Y-102690000D03*
X181430000Y-103310000D03*
X181430000Y-103910000D03*
X181430000Y-104530000D03*
X182030000Y-102690000D03*
X182030000Y-103310000D03*
X182030000Y-103910000D03*
X182030000Y-104530000D03*
D27*
X182290000Y-104770000D03*
D12*
X182630000Y-102670000D03*
X182630000Y-103290000D03*
X182630000Y-103890000D03*
X182630000Y-104510000D03*
X183230000Y-102690000D03*
X183230000Y-103310000D03*
X183230000Y-103910000D03*
X183230000Y-104530000D03*
X186530000Y-102690000D03*
X186530000Y-103310000D03*
X186530000Y-103910000D03*
X186530000Y-104530000D03*
X187130000Y-102690000D03*
X187130000Y-103310000D03*
X187130000Y-103910000D03*
X187130000Y-104530000D03*
D27*
X187370000Y-104770000D03*
D12*
X187730000Y-102690000D03*
X187730000Y-103310000D03*
X187730000Y-103910000D03*
X187730000Y-104530000D03*
X188330000Y-102690000D03*
X188330000Y-103310000D03*
X188330000Y-103910000D03*
X188330000Y-104530000D03*
%TD*%
D24*
%TO.C,P2*%
X152850000Y-97310000D03*
%TD*%
D19*
%TO.C,SW1*%
X144060000Y-74600000D03*
D20*
X146600000Y-74600000D03*
X149140000Y-74600000D03*
%TD*%
D12*
%TO.C,J11*%
X141850000Y-102630000D03*
X141850000Y-103250000D03*
X141850000Y-103850000D03*
X141850000Y-104470000D03*
X142450000Y-102630000D03*
X142450000Y-103250000D03*
X142450000Y-103850000D03*
X142450000Y-104470000D03*
D27*
X142710000Y-104710000D03*
D12*
X143050000Y-102610000D03*
X143050000Y-103230000D03*
X143050000Y-103830000D03*
X143050000Y-104450000D03*
X143650000Y-102630000D03*
X143650000Y-103250000D03*
X143650000Y-103850000D03*
X143650000Y-104470000D03*
X146950000Y-102630000D03*
X146950000Y-103250000D03*
X146950000Y-103850000D03*
X146950000Y-104470000D03*
X147550000Y-102630000D03*
X147550000Y-103250000D03*
X147550000Y-103850000D03*
X147550000Y-104470000D03*
D27*
X147790000Y-104710000D03*
D12*
X148150000Y-102630000D03*
X148150000Y-103250000D03*
X148150000Y-103850000D03*
X148150000Y-104470000D03*
X148750000Y-102630000D03*
X148750000Y-103250000D03*
X148750000Y-103850000D03*
X148750000Y-104470000D03*
%TD*%
D19*
%TO.C,J8*%
X144060000Y-77800000D03*
D20*
X146600000Y-77800000D03*
X149140000Y-77800000D03*
%TD*%
D28*
%TO.C,U1*%
X157350000Y-62380000D03*
X157350000Y-64920000D03*
X157350000Y-66190000D03*
X157350000Y-63650000D03*
X157350000Y-67460000D03*
X157350000Y-68730000D03*
X157350000Y-70000000D03*
X157350000Y-71270000D03*
X157350000Y-72540000D03*
X157350000Y-73810000D03*
X157350000Y-75080000D03*
X157350000Y-76350000D03*
X157350000Y-77620000D03*
D29*
X161655000Y-78870000D03*
X170545000Y-78870000D03*
X171815000Y-78870000D03*
D28*
X174850000Y-77620000D03*
X174850000Y-76350000D03*
X174850000Y-75080000D03*
X174850000Y-73810000D03*
D29*
X162925000Y-78870000D03*
X164195000Y-78870000D03*
X165465000Y-78870000D03*
X166735000Y-78870000D03*
X168005000Y-78870000D03*
X169275000Y-78870000D03*
D28*
X174850000Y-72540000D03*
X174850000Y-71270000D03*
X174850000Y-62380000D03*
X174850000Y-70000000D03*
X174850000Y-63650000D03*
X174850000Y-66190000D03*
X174850000Y-64920000D03*
X174850000Y-67460000D03*
X157350000Y-61110000D03*
D29*
X160385000Y-78870000D03*
D30*
X163200000Y-67430000D03*
X163200000Y-68830000D03*
X163200000Y-70230000D03*
X164600000Y-67430000D03*
X164600000Y-68830000D03*
X164600000Y-70230000D03*
X166000000Y-67430000D03*
X166000000Y-68830000D03*
X166000000Y-70230000D03*
D28*
X174850000Y-61110000D03*
X174850000Y-68730000D03*
%TD*%
D24*
%TO.C,P4*%
X143400000Y-63300000D03*
%TD*%
D10*
%TO.C,BOOT1*%
X175000000Y-88849180D03*
X175000000Y-81650820D03*
%TD*%
M02*
