%TF.GenerationSoftware,KiCad,Pcbnew,7.0.1*%
%TF.CreationDate,2023-08-30T15:08:01-03:00*%
%TF.ProjectId,Wakanda_MultiRobot,57616b61-6e64-4615-9f4d-756c7469526f,rev?*%
%TF.SameCoordinates,Original*%
%TF.FileFunction,Soldermask,Bot*%
%TF.FilePolarity,Negative*%
%FSLAX46Y46*%
G04 Gerber Fmt 4.6, Leading zero omitted, Abs format (unit mm)*
G04 Created by KiCad (PCBNEW 7.0.1) date 2023-08-30 15:08:01*
%MOMM*%
%LPD*%
G01*
G04 APERTURE LIST*
%ADD10R,2.000000X2.000000*%
%ADD11O,2.000000X2.000000*%
%ADD12R,1.750000X2.200000*%
%ADD13O,1.750000X2.200000*%
%ADD14C,0.700000*%
%ADD15R,3.500000X7.000000*%
%ADD16C,1.524000*%
%ADD17R,3.000000X5.500000*%
%ADD18R,3.100000X5.500000*%
%ADD19C,3.250000*%
%ADD20R,1.524000X1.524000*%
G04 APERTURE END LIST*
D10*
%TO.C,SW1*%
X149130000Y-70100000D03*
D11*
X146590000Y-70100000D03*
X144050000Y-70100000D03*
%TD*%
D12*
%TO.C,J9*%
X180440000Y-73600000D03*
D13*
X182980000Y-73600000D03*
X185520000Y-73600000D03*
X188060000Y-73600000D03*
%TD*%
D14*
%TO.C,J12*%
X181500000Y-102880000D03*
X181500000Y-103500000D03*
X181500000Y-104100000D03*
X181500000Y-104720000D03*
X182100000Y-102880000D03*
X182100000Y-103500000D03*
X182100000Y-104100000D03*
X182100000Y-104720000D03*
D15*
X182360000Y-104960000D03*
D14*
X182700000Y-102860000D03*
X182700000Y-103480000D03*
X182700000Y-104080000D03*
X182700000Y-104700000D03*
X183300000Y-102880000D03*
X183300000Y-103500000D03*
X183300000Y-104100000D03*
X183300000Y-104720000D03*
X186600000Y-102880000D03*
X186600000Y-103500000D03*
X186600000Y-104100000D03*
X186600000Y-104720000D03*
X187200000Y-102880000D03*
X187200000Y-103500000D03*
X187200000Y-104100000D03*
X187200000Y-104720000D03*
D15*
X187440000Y-104960000D03*
D14*
X187800000Y-102880000D03*
X187800000Y-103500000D03*
X187800000Y-104100000D03*
X187800000Y-104720000D03*
X188400000Y-102880000D03*
X188400000Y-103500000D03*
X188400000Y-104100000D03*
X188400000Y-104720000D03*
%TD*%
D10*
%TO.C,J4*%
X144060000Y-74600000D03*
D11*
X146600000Y-74600000D03*
X149140000Y-74600000D03*
%TD*%
D16*
%TO.C,C10*%
X182800000Y-94900000D03*
X182800000Y-90900000D03*
%TD*%
D10*
%TO.C,J2*%
X144060000Y-84200000D03*
D11*
X146600000Y-84200000D03*
X149140000Y-84200000D03*
%TD*%
D16*
%TO.C,C9*%
X169600000Y-95300000D03*
X169600000Y-91300000D03*
%TD*%
D10*
%TO.C,J3*%
X144060000Y-81000000D03*
D11*
X146600000Y-81000000D03*
X149140000Y-81000000D03*
%TD*%
D14*
%TO.C,J1*%
X159240000Y-102930000D03*
X159240000Y-103550000D03*
X159240000Y-104150000D03*
X159240000Y-104770000D03*
X159840000Y-102930000D03*
X159840000Y-103550000D03*
X159840000Y-104150000D03*
X159840000Y-104770000D03*
D17*
X160160000Y-105280000D03*
D14*
X160440000Y-102910000D03*
X160440000Y-103530000D03*
X160440000Y-104130000D03*
X160440000Y-104750000D03*
X161040000Y-102930000D03*
X161040000Y-103550000D03*
X161040000Y-104150000D03*
X161040000Y-104770000D03*
X164340000Y-103010000D03*
X164340000Y-103630000D03*
X164340000Y-104230000D03*
X164340000Y-104850000D03*
X164940000Y-103010000D03*
X164940000Y-103630000D03*
X164940000Y-104230000D03*
X164940000Y-104850000D03*
D18*
X165290000Y-105330000D03*
D14*
X165540000Y-103010000D03*
X165540000Y-103630000D03*
X165540000Y-104230000D03*
X165540000Y-104850000D03*
X166140000Y-103010000D03*
X166140000Y-103630000D03*
X166140000Y-104230000D03*
X166140000Y-104830000D03*
X169450000Y-103630000D03*
X169450000Y-104900000D03*
X169470000Y-103030000D03*
X169470000Y-104300000D03*
X170020000Y-103630000D03*
X170020000Y-104900000D03*
X170040000Y-103030000D03*
X170040000Y-104300000D03*
D17*
X170230000Y-105330000D03*
D14*
X170650000Y-103630000D03*
X170650000Y-104900000D03*
X170670000Y-103030000D03*
X170670000Y-104300000D03*
X171250000Y-103630000D03*
X171250000Y-104900000D03*
X171270000Y-103030000D03*
X171270000Y-104300000D03*
%TD*%
%TO.C,U3*%
X164810000Y-94640000D03*
X164810000Y-93940000D03*
X164810000Y-93240000D03*
X164810000Y-92540000D03*
X164110000Y-94640000D03*
X164110000Y-93940000D03*
X164110000Y-93240000D03*
X164110000Y-92540000D03*
X163410000Y-94640000D03*
X163410000Y-93940000D03*
X163410000Y-93240000D03*
X163410000Y-92540000D03*
X162710000Y-94640000D03*
X162710000Y-93940000D03*
X162710000Y-93240000D03*
X162710000Y-92540000D03*
X162010000Y-94640000D03*
X162010000Y-93940000D03*
X162010000Y-93240000D03*
X162010000Y-92540000D03*
X161310000Y-94640000D03*
X161310000Y-93940000D03*
X161310000Y-93240000D03*
X161310000Y-92540000D03*
%TD*%
D19*
%TO.C,P3*%
X186790000Y-97190000D03*
%TD*%
D20*
%TO.C,C3*%
X153100000Y-92600000D03*
D16*
X153100000Y-90600000D03*
%TD*%
D12*
%TO.C,J10*%
X180420000Y-80000000D03*
D13*
X182960000Y-80000000D03*
X185500000Y-80000000D03*
X188040000Y-80000000D03*
%TD*%
D10*
%TO.C,J7*%
X188115000Y-62500000D03*
D11*
X185575000Y-62500000D03*
X183035000Y-62500000D03*
%TD*%
D12*
%TO.C,J14*%
X180390000Y-85400000D03*
D13*
X182930000Y-85400000D03*
X185470000Y-85400000D03*
X188010000Y-85400000D03*
%TD*%
D10*
%TO.C,J6*%
X188040000Y-69000000D03*
D11*
X185500000Y-69000000D03*
X182960000Y-69000000D03*
%TD*%
D14*
%TO.C,U2*%
X146975000Y-94400000D03*
X146975000Y-93700000D03*
X146975000Y-93000000D03*
X146975000Y-92300000D03*
X146275000Y-94400000D03*
X146275000Y-93700000D03*
X146275000Y-93000000D03*
X146275000Y-92300000D03*
X145575000Y-94400000D03*
X145575000Y-93700000D03*
X145575000Y-93000000D03*
X145575000Y-92300000D03*
X144875000Y-94400000D03*
X144875000Y-93700000D03*
X144875000Y-93000000D03*
X144875000Y-92300000D03*
X144175000Y-94400000D03*
X144175000Y-93700000D03*
X144175000Y-93000000D03*
X144175000Y-92300000D03*
X143475000Y-94400000D03*
X143475000Y-93700000D03*
X143475000Y-93000000D03*
X143475000Y-92300000D03*
%TD*%
D19*
%TO.C,P2*%
X152850000Y-97310000D03*
%TD*%
D10*
%TO.C,J5*%
X188140000Y-65800000D03*
D11*
X185600000Y-65800000D03*
X183060000Y-65800000D03*
%TD*%
D10*
%TO.C,J8*%
X144060000Y-77800000D03*
D11*
X146600000Y-77800000D03*
X149140000Y-77800000D03*
%TD*%
D19*
%TO.C,P4*%
X143400000Y-63300000D03*
%TD*%
D14*
%TO.C,J11*%
X141750000Y-102630000D03*
X141750000Y-103250000D03*
X141750000Y-103850000D03*
X141750000Y-104470000D03*
X142350000Y-102630000D03*
X142350000Y-103250000D03*
X142350000Y-103850000D03*
X142350000Y-104470000D03*
D15*
X142610000Y-104710000D03*
D14*
X142950000Y-102610000D03*
X142950000Y-103230000D03*
X142950000Y-103830000D03*
X142950000Y-104450000D03*
X143550000Y-102630000D03*
X143550000Y-103250000D03*
X143550000Y-103850000D03*
X143550000Y-104470000D03*
X146850000Y-102630000D03*
X146850000Y-103250000D03*
X146850000Y-103850000D03*
X146850000Y-104470000D03*
X147450000Y-102630000D03*
X147450000Y-103250000D03*
X147450000Y-103850000D03*
X147450000Y-104470000D03*
D15*
X147690000Y-104710000D03*
D14*
X148050000Y-102630000D03*
X148050000Y-103250000D03*
X148050000Y-103850000D03*
X148050000Y-104470000D03*
X148650000Y-102630000D03*
X148650000Y-103250000D03*
X148650000Y-103850000D03*
X148650000Y-104470000D03*
%TD*%
M02*
