%TF.GenerationSoftware,KiCad,Pcbnew,7.0.1*%
%TF.CreationDate,2023-08-30T01:06:13-03:00*%
%TF.ProjectId,Wakanda_MultiRobot,57616b61-6e64-4615-9f4d-756c7469526f,rev?*%
%TF.SameCoordinates,Original*%
%TF.FileFunction,Paste,Top*%
%TF.FilePolarity,Positive*%
%FSLAX46Y46*%
G04 Gerber Fmt 4.6, Leading zero omitted, Abs format (unit mm)*
G04 Created by KiCad (PCBNEW 7.0.1) date 2023-08-30 01:06:13*
%MOMM*%
%LPD*%
G01*
G04 APERTURE LIST*
%ADD10C,0.150000*%
%ADD11R,1.000760X1.000760*%
%ADD12R,1.498600X1.300480*%
%ADD13R,1.500000X2.000000*%
%ADD14R,3.800000X2.000000*%
%ADD15R,1.000000X2.700000*%
%ADD16R,0.711200X2.000000*%
%ADD17R,0.889000X1.397000*%
%ADD18R,1.500000X0.900000*%
%ADD19R,0.900000X1.500000*%
%ADD20R,0.900000X0.900000*%
G04 APERTURE END LIST*
D10*
X161060000Y-92280000D02*
X165060000Y-92280000D01*
X165060000Y-94890000D01*
X161060000Y-94890000D01*
X161060000Y-92280000D01*
G36*
X161060000Y-92280000D02*
G01*
X165060000Y-92280000D01*
X165060000Y-94890000D01*
X161060000Y-94890000D01*
X161060000Y-92280000D01*
G37*
X143230000Y-92040000D02*
X147230000Y-92040000D01*
X147230000Y-94650000D01*
X143230000Y-94650000D01*
X143230000Y-92040000D01*
G36*
X143230000Y-92040000D02*
G01*
X147230000Y-92040000D01*
X147230000Y-94650000D01*
X143230000Y-94650000D01*
X143230000Y-92040000D01*
G37*
D11*
%TO.C,EN*%
X158750000Y-88849180D03*
X158750000Y-81650820D03*
%TD*%
D12*
%TO.C,C8*%
X154600000Y-63152500D03*
X154600000Y-61247500D03*
%TD*%
%TO.C,C1*%
X141220000Y-94512500D03*
X141220000Y-92607500D03*
%TD*%
D13*
%TO.C,U4*%
X173900000Y-97750000D03*
X176200000Y-97750000D03*
D14*
X176200000Y-91450000D03*
D13*
X178500000Y-97750000D03*
%TD*%
D15*
%TO.C,C10*%
X182800000Y-94900000D03*
X182800000Y-90900000D03*
%TD*%
D12*
%TO.C,C2*%
X159000000Y-96452500D03*
X159000000Y-94547500D03*
%TD*%
D15*
%TO.C,C9*%
X169600000Y-95300000D03*
X169600000Y-91300000D03*
%TD*%
D16*
%TO.C,U3*%
X164915000Y-90640000D03*
X163645000Y-90640000D03*
X162375000Y-90640000D03*
X161105000Y-90640000D03*
X161105000Y-96640000D03*
X162375000Y-96640000D03*
X163645000Y-96640000D03*
X164915000Y-96640000D03*
%TD*%
D17*
%TO.C,R3*%
X155552500Y-66000000D03*
X153647500Y-66000000D03*
%TD*%
D12*
%TO.C,C7*%
X162100000Y-83700000D03*
X162100000Y-85605000D03*
%TD*%
D17*
%TO.C,R4*%
X171952500Y-83600000D03*
X170047500Y-83600000D03*
%TD*%
D16*
%TO.C,U2*%
X147080000Y-90400000D03*
X145810000Y-90400000D03*
X144540000Y-90400000D03*
X143270000Y-90400000D03*
X143270000Y-96400000D03*
X144540000Y-96400000D03*
X145810000Y-96400000D03*
X147080000Y-96400000D03*
%TD*%
D18*
%TO.C,U1*%
X157350000Y-62380000D03*
X157350000Y-64920000D03*
X157350000Y-66190000D03*
X157350000Y-63650000D03*
X157350000Y-67460000D03*
X157350000Y-68730000D03*
X157350000Y-70000000D03*
X157350000Y-71270000D03*
X157350000Y-72540000D03*
X157350000Y-73810000D03*
X157350000Y-75080000D03*
X157350000Y-76350000D03*
X157350000Y-77620000D03*
D19*
X161655000Y-78870000D03*
X170545000Y-78870000D03*
X171815000Y-78870000D03*
D18*
X174850000Y-77620000D03*
X174850000Y-76350000D03*
X174850000Y-75080000D03*
X174850000Y-73810000D03*
D19*
X162925000Y-78870000D03*
X164195000Y-78870000D03*
X165465000Y-78870000D03*
X166735000Y-78870000D03*
X168005000Y-78870000D03*
X169275000Y-78870000D03*
D18*
X174850000Y-72540000D03*
X174850000Y-71270000D03*
X174850000Y-62380000D03*
X174850000Y-70000000D03*
X174850000Y-63650000D03*
X174850000Y-66190000D03*
X174850000Y-64920000D03*
X174850000Y-67460000D03*
X157350000Y-61110000D03*
D19*
X160385000Y-78870000D03*
D20*
X163200000Y-67430000D03*
X163200000Y-68830000D03*
X163200000Y-70230000D03*
X164600000Y-67430000D03*
X164600000Y-68830000D03*
X164600000Y-70230000D03*
X166000000Y-67430000D03*
X166000000Y-68830000D03*
X166000000Y-70230000D03*
D18*
X174850000Y-61110000D03*
X174850000Y-68730000D03*
%TD*%
D11*
%TO.C,BOOT*%
X175000000Y-88849180D03*
X175000000Y-81650820D03*
%TD*%
G36*
X162644863Y-97158448D02*
G01*
X162692414Y-97201069D01*
X162712452Y-97261701D01*
X162799999Y-98749998D01*
X164999999Y-100999999D01*
X165000002Y-101000000D01*
X172997519Y-101000000D01*
X173002475Y-101000099D01*
X180500002Y-101300000D01*
X183877759Y-101300000D01*
X183939247Y-101316319D01*
X183984551Y-101360980D01*
X184001746Y-101422229D01*
X184098203Y-108174229D01*
X184082189Y-108236975D01*
X184036727Y-108283091D01*
X183974216Y-108300000D01*
X180532692Y-108300000D01*
X180471558Y-108283883D01*
X177514642Y-106608297D01*
X177488095Y-106588095D01*
X172700000Y-101800000D01*
X164829272Y-101800000D01*
X164773818Y-101786909D01*
X164617998Y-101708999D01*
X164585771Y-101685771D01*
X162114229Y-99214229D01*
X162091001Y-99182002D01*
X162013091Y-99026182D01*
X162000000Y-98970728D01*
X162000000Y-97567698D01*
X162015164Y-97508279D01*
X162056946Y-97463392D01*
X162521612Y-97164677D01*
X162582407Y-97145141D01*
X162644863Y-97158448D01*
G37*
G36*
X147478428Y-96317810D02*
G01*
X147525283Y-96345173D01*
X147555969Y-96389923D01*
X149491131Y-101227828D01*
X149500000Y-101273880D01*
X149500000Y-108126000D01*
X149483387Y-108188000D01*
X149438000Y-108233387D01*
X149376000Y-108250000D01*
X146174000Y-108250000D01*
X146112000Y-108233387D01*
X146066613Y-108188000D01*
X146050000Y-108126000D01*
X146050000Y-101266607D01*
X146054369Y-101233980D01*
X146650000Y-99049999D01*
X146650000Y-96867460D01*
X146665076Y-96808202D01*
X146706637Y-96763353D01*
X147373475Y-96331868D01*
X147424375Y-96313073D01*
X147478428Y-96317810D01*
G37*
G36*
X165242927Y-97513743D02*
G01*
X165287090Y-97551926D01*
X166500000Y-99250000D01*
X187443732Y-99250000D01*
X187494971Y-99261082D01*
X187537052Y-99292345D01*
X189219320Y-101214937D01*
X189242077Y-101252978D01*
X189250000Y-101296592D01*
X189250000Y-108367458D01*
X189231985Y-108431825D01*
X189183175Y-108477490D01*
X189117752Y-108491183D01*
X185620478Y-108258031D01*
X185560636Y-108237939D01*
X185518440Y-108190989D01*
X185504825Y-108129350D01*
X185750000Y-101999999D01*
X185500000Y-100749999D01*
X166549444Y-100251301D01*
X166503750Y-100241271D01*
X166465025Y-100215025D01*
X164536319Y-98286319D01*
X164509439Y-98246091D01*
X164500000Y-98198638D01*
X164500000Y-97624000D01*
X164516613Y-97562000D01*
X164562000Y-97516613D01*
X164624000Y-97500000D01*
X165186187Y-97500000D01*
X165242927Y-97513743D01*
G37*
G36*
X144840613Y-97315992D02*
G01*
X144885814Y-97359844D01*
X144903644Y-97420244D01*
X144949538Y-98934780D01*
X144946765Y-98964877D01*
X144450000Y-101250000D01*
X144450000Y-108076000D01*
X144433387Y-108138000D01*
X144388000Y-108183387D01*
X144326000Y-108200000D01*
X141123118Y-108200000D01*
X141061374Y-108183534D01*
X141016027Y-108138511D01*
X140999121Y-108076886D01*
X140950320Y-101244859D01*
X140957415Y-101202622D01*
X140978456Y-101165318D01*
X144112794Y-97345345D01*
X144155633Y-97311908D01*
X144208655Y-97300000D01*
X144779701Y-97300000D01*
X144840613Y-97315992D01*
G37*
M02*
