%TF.GenerationSoftware,KiCad,Pcbnew,7.0.1*%
%TF.CreationDate,2023-08-29T20:30:58-03:00*%
%TF.ProjectId,Wakanda_MultiRobot,57616b61-6e64-4615-9f4d-756c7469526f,rev?*%
%TF.SameCoordinates,Original*%
%TF.FileFunction,Legend,Top*%
%TF.FilePolarity,Positive*%
%FSLAX46Y46*%
G04 Gerber Fmt 4.6, Leading zero omitted, Abs format (unit mm)*
G04 Created by KiCad (PCBNEW 7.0.1) date 2023-08-29 20:30:58*
%MOMM*%
%LPD*%
G01*
G04 APERTURE LIST*
%ADD10C,0.150000*%
%ADD11C,0.200000*%
%ADD12C,0.300000*%
%ADD13C,0.254000*%
%ADD14C,0.127000*%
%ADD15C,0.381000*%
%ADD16C,0.304800*%
%ADD17C,0.120000*%
%ADD18C,0.099060*%
%ADD19C,0.100000*%
%ADD20C,0.700000*%
%ADD21R,3.000000X5.500000*%
%ADD22R,3.100000X5.500000*%
%ADD23R,1.750000X2.200000*%
%ADD24O,1.750000X2.200000*%
%ADD25R,2.000000X2.000000*%
%ADD26O,2.000000X2.000000*%
%ADD27R,1.524000X1.524000*%
%ADD28C,1.524000*%
%ADD29R,3.500000X7.000000*%
G04 APERTURE END LIST*
D10*
X159771428Y-100353809D02*
X159914285Y-100401428D01*
X159914285Y-100401428D02*
X159961904Y-100449047D01*
X159961904Y-100449047D02*
X160009523Y-100544285D01*
X160009523Y-100544285D02*
X160009523Y-100687142D01*
X160009523Y-100687142D02*
X159961904Y-100782380D01*
X159961904Y-100782380D02*
X159914285Y-100830000D01*
X159914285Y-100830000D02*
X159819047Y-100877619D01*
X159819047Y-100877619D02*
X159438095Y-100877619D01*
X159438095Y-100877619D02*
X159438095Y-99877619D01*
X159438095Y-99877619D02*
X159771428Y-99877619D01*
X159771428Y-99877619D02*
X159866666Y-99925238D01*
X159866666Y-99925238D02*
X159914285Y-99972857D01*
X159914285Y-99972857D02*
X159961904Y-100068095D01*
X159961904Y-100068095D02*
X159961904Y-100163333D01*
X159961904Y-100163333D02*
X159914285Y-100258571D01*
X159914285Y-100258571D02*
X159866666Y-100306190D01*
X159866666Y-100306190D02*
X159771428Y-100353809D01*
X159771428Y-100353809D02*
X159438095Y-100353809D01*
X160390476Y-100591904D02*
X160866666Y-100591904D01*
X160295238Y-100877619D02*
X160628571Y-99877619D01*
X160628571Y-99877619D02*
X160961904Y-100877619D01*
X161152381Y-99877619D02*
X161723809Y-99877619D01*
X161438095Y-100877619D02*
X161438095Y-99877619D01*
X161914286Y-99877619D02*
X162485714Y-99877619D01*
X162200000Y-100877619D02*
X162200000Y-99877619D01*
X164866667Y-99925238D02*
X164771429Y-99877619D01*
X164771429Y-99877619D02*
X164628572Y-99877619D01*
X164628572Y-99877619D02*
X164485715Y-99925238D01*
X164485715Y-99925238D02*
X164390477Y-100020476D01*
X164390477Y-100020476D02*
X164342858Y-100115714D01*
X164342858Y-100115714D02*
X164295239Y-100306190D01*
X164295239Y-100306190D02*
X164295239Y-100449047D01*
X164295239Y-100449047D02*
X164342858Y-100639523D01*
X164342858Y-100639523D02*
X164390477Y-100734761D01*
X164390477Y-100734761D02*
X164485715Y-100830000D01*
X164485715Y-100830000D02*
X164628572Y-100877619D01*
X164628572Y-100877619D02*
X164723810Y-100877619D01*
X164723810Y-100877619D02*
X164866667Y-100830000D01*
X164866667Y-100830000D02*
X164914286Y-100782380D01*
X164914286Y-100782380D02*
X164914286Y-100449047D01*
X164914286Y-100449047D02*
X164723810Y-100449047D01*
X165342858Y-100877619D02*
X165342858Y-99877619D01*
X165342858Y-99877619D02*
X165914286Y-100877619D01*
X165914286Y-100877619D02*
X165914286Y-99877619D01*
X166390477Y-100877619D02*
X166390477Y-99877619D01*
X166390477Y-99877619D02*
X166628572Y-99877619D01*
X166628572Y-99877619D02*
X166771429Y-99925238D01*
X166771429Y-99925238D02*
X166866667Y-100020476D01*
X166866667Y-100020476D02*
X166914286Y-100115714D01*
X166914286Y-100115714D02*
X166961905Y-100306190D01*
X166961905Y-100306190D02*
X166961905Y-100449047D01*
X166961905Y-100449047D02*
X166914286Y-100639523D01*
X166914286Y-100639523D02*
X166866667Y-100734761D01*
X166866667Y-100734761D02*
X166771429Y-100830000D01*
X166771429Y-100830000D02*
X166628572Y-100877619D01*
X166628572Y-100877619D02*
X166390477Y-100877619D01*
X168914287Y-100496666D02*
X169676192Y-100496666D01*
X169295239Y-100877619D02*
X169295239Y-100115714D01*
X170628572Y-99877619D02*
X170152382Y-99877619D01*
X170152382Y-99877619D02*
X170104763Y-100353809D01*
X170104763Y-100353809D02*
X170152382Y-100306190D01*
X170152382Y-100306190D02*
X170247620Y-100258571D01*
X170247620Y-100258571D02*
X170485715Y-100258571D01*
X170485715Y-100258571D02*
X170580953Y-100306190D01*
X170580953Y-100306190D02*
X170628572Y-100353809D01*
X170628572Y-100353809D02*
X170676191Y-100449047D01*
X170676191Y-100449047D02*
X170676191Y-100687142D01*
X170676191Y-100687142D02*
X170628572Y-100782380D01*
X170628572Y-100782380D02*
X170580953Y-100830000D01*
X170580953Y-100830000D02*
X170485715Y-100877619D01*
X170485715Y-100877619D02*
X170247620Y-100877619D01*
X170247620Y-100877619D02*
X170152382Y-100830000D01*
X170152382Y-100830000D02*
X170104763Y-100782380D01*
X170961906Y-99877619D02*
X171295239Y-100877619D01*
X171295239Y-100877619D02*
X171628572Y-99877619D01*
D11*
%TO.C,EN1*%
X157585714Y-90338809D02*
X157919047Y-90338809D01*
X158061904Y-90862619D02*
X157585714Y-90862619D01*
X157585714Y-90862619D02*
X157585714Y-89862619D01*
X157585714Y-89862619D02*
X158061904Y-89862619D01*
X158490476Y-90862619D02*
X158490476Y-89862619D01*
X158490476Y-89862619D02*
X159061904Y-90862619D01*
X159061904Y-90862619D02*
X159061904Y-89862619D01*
X160061904Y-90862619D02*
X159490476Y-90862619D01*
X159776190Y-90862619D02*
X159776190Y-89862619D01*
X159776190Y-89862619D02*
X159680952Y-90005476D01*
X159680952Y-90005476D02*
X159585714Y-90100714D01*
X159585714Y-90100714D02*
X159490476Y-90148333D01*
%TO.C,C8*%
X152083333Y-61617380D02*
X152035714Y-61665000D01*
X152035714Y-61665000D02*
X151892857Y-61712619D01*
X151892857Y-61712619D02*
X151797619Y-61712619D01*
X151797619Y-61712619D02*
X151654762Y-61665000D01*
X151654762Y-61665000D02*
X151559524Y-61569761D01*
X151559524Y-61569761D02*
X151511905Y-61474523D01*
X151511905Y-61474523D02*
X151464286Y-61284047D01*
X151464286Y-61284047D02*
X151464286Y-61141190D01*
X151464286Y-61141190D02*
X151511905Y-60950714D01*
X151511905Y-60950714D02*
X151559524Y-60855476D01*
X151559524Y-60855476D02*
X151654762Y-60760238D01*
X151654762Y-60760238D02*
X151797619Y-60712619D01*
X151797619Y-60712619D02*
X151892857Y-60712619D01*
X151892857Y-60712619D02*
X152035714Y-60760238D01*
X152035714Y-60760238D02*
X152083333Y-60807857D01*
X152654762Y-61141190D02*
X152559524Y-61093571D01*
X152559524Y-61093571D02*
X152511905Y-61045952D01*
X152511905Y-61045952D02*
X152464286Y-60950714D01*
X152464286Y-60950714D02*
X152464286Y-60903095D01*
X152464286Y-60903095D02*
X152511905Y-60807857D01*
X152511905Y-60807857D02*
X152559524Y-60760238D01*
X152559524Y-60760238D02*
X152654762Y-60712619D01*
X152654762Y-60712619D02*
X152845238Y-60712619D01*
X152845238Y-60712619D02*
X152940476Y-60760238D01*
X152940476Y-60760238D02*
X152988095Y-60807857D01*
X152988095Y-60807857D02*
X153035714Y-60903095D01*
X153035714Y-60903095D02*
X153035714Y-60950714D01*
X153035714Y-60950714D02*
X152988095Y-61045952D01*
X152988095Y-61045952D02*
X152940476Y-61093571D01*
X152940476Y-61093571D02*
X152845238Y-61141190D01*
X152845238Y-61141190D02*
X152654762Y-61141190D01*
X152654762Y-61141190D02*
X152559524Y-61188809D01*
X152559524Y-61188809D02*
X152511905Y-61236428D01*
X152511905Y-61236428D02*
X152464286Y-61331666D01*
X152464286Y-61331666D02*
X152464286Y-61522142D01*
X152464286Y-61522142D02*
X152511905Y-61617380D01*
X152511905Y-61617380D02*
X152559524Y-61665000D01*
X152559524Y-61665000D02*
X152654762Y-61712619D01*
X152654762Y-61712619D02*
X152845238Y-61712619D01*
X152845238Y-61712619D02*
X152940476Y-61665000D01*
X152940476Y-61665000D02*
X152988095Y-61617380D01*
X152988095Y-61617380D02*
X153035714Y-61522142D01*
X153035714Y-61522142D02*
X153035714Y-61331666D01*
X153035714Y-61331666D02*
X152988095Y-61236428D01*
X152988095Y-61236428D02*
X152940476Y-61188809D01*
X152940476Y-61188809D02*
X152845238Y-61141190D01*
%TO.C,J1*%
X173916666Y-107962619D02*
X173916666Y-108676904D01*
X173916666Y-108676904D02*
X173869047Y-108819761D01*
X173869047Y-108819761D02*
X173773809Y-108915000D01*
X173773809Y-108915000D02*
X173630952Y-108962619D01*
X173630952Y-108962619D02*
X173535714Y-108962619D01*
X174916666Y-108962619D02*
X174345238Y-108962619D01*
X174630952Y-108962619D02*
X174630952Y-107962619D01*
X174630952Y-107962619D02*
X174535714Y-108105476D01*
X174535714Y-108105476D02*
X174440476Y-108200714D01*
X174440476Y-108200714D02*
X174345238Y-108248333D01*
%TO.C,J9*%
X177566666Y-73962619D02*
X177566666Y-74676904D01*
X177566666Y-74676904D02*
X177519047Y-74819761D01*
X177519047Y-74819761D02*
X177423809Y-74915000D01*
X177423809Y-74915000D02*
X177280952Y-74962619D01*
X177280952Y-74962619D02*
X177185714Y-74962619D01*
X178090476Y-74962619D02*
X178280952Y-74962619D01*
X178280952Y-74962619D02*
X178376190Y-74915000D01*
X178376190Y-74915000D02*
X178423809Y-74867380D01*
X178423809Y-74867380D02*
X178519047Y-74724523D01*
X178519047Y-74724523D02*
X178566666Y-74534047D01*
X178566666Y-74534047D02*
X178566666Y-74153095D01*
X178566666Y-74153095D02*
X178519047Y-74057857D01*
X178519047Y-74057857D02*
X178471428Y-74010238D01*
X178471428Y-74010238D02*
X178376190Y-73962619D01*
X178376190Y-73962619D02*
X178185714Y-73962619D01*
X178185714Y-73962619D02*
X178090476Y-74010238D01*
X178090476Y-74010238D02*
X178042857Y-74057857D01*
X178042857Y-74057857D02*
X177995238Y-74153095D01*
X177995238Y-74153095D02*
X177995238Y-74391190D01*
X177995238Y-74391190D02*
X178042857Y-74486428D01*
X178042857Y-74486428D02*
X178090476Y-74534047D01*
X178090476Y-74534047D02*
X178185714Y-74581666D01*
X178185714Y-74581666D02*
X178376190Y-74581666D01*
X178376190Y-74581666D02*
X178471428Y-74534047D01*
X178471428Y-74534047D02*
X178519047Y-74486428D01*
X178519047Y-74486428D02*
X178566666Y-74391190D01*
%TO.C,C1*%
X141083333Y-90867380D02*
X141035714Y-90915000D01*
X141035714Y-90915000D02*
X140892857Y-90962619D01*
X140892857Y-90962619D02*
X140797619Y-90962619D01*
X140797619Y-90962619D02*
X140654762Y-90915000D01*
X140654762Y-90915000D02*
X140559524Y-90819761D01*
X140559524Y-90819761D02*
X140511905Y-90724523D01*
X140511905Y-90724523D02*
X140464286Y-90534047D01*
X140464286Y-90534047D02*
X140464286Y-90391190D01*
X140464286Y-90391190D02*
X140511905Y-90200714D01*
X140511905Y-90200714D02*
X140559524Y-90105476D01*
X140559524Y-90105476D02*
X140654762Y-90010238D01*
X140654762Y-90010238D02*
X140797619Y-89962619D01*
X140797619Y-89962619D02*
X140892857Y-89962619D01*
X140892857Y-89962619D02*
X141035714Y-90010238D01*
X141035714Y-90010238D02*
X141083333Y-90057857D01*
X142035714Y-90962619D02*
X141464286Y-90962619D01*
X141750000Y-90962619D02*
X141750000Y-89962619D01*
X141750000Y-89962619D02*
X141654762Y-90105476D01*
X141654762Y-90105476D02*
X141559524Y-90200714D01*
X141559524Y-90200714D02*
X141464286Y-90248333D01*
%TO.C,U4*%
X175238095Y-99712619D02*
X175238095Y-100522142D01*
X175238095Y-100522142D02*
X175285714Y-100617380D01*
X175285714Y-100617380D02*
X175333333Y-100665000D01*
X175333333Y-100665000D02*
X175428571Y-100712619D01*
X175428571Y-100712619D02*
X175619047Y-100712619D01*
X175619047Y-100712619D02*
X175714285Y-100665000D01*
X175714285Y-100665000D02*
X175761904Y-100617380D01*
X175761904Y-100617380D02*
X175809523Y-100522142D01*
X175809523Y-100522142D02*
X175809523Y-99712619D01*
X176714285Y-100045952D02*
X176714285Y-100712619D01*
X176476190Y-99665000D02*
X176238095Y-100379285D01*
X176238095Y-100379285D02*
X176857142Y-100379285D01*
%TO.C,J4*%
X151666666Y-70962619D02*
X151666666Y-71676904D01*
X151666666Y-71676904D02*
X151619047Y-71819761D01*
X151619047Y-71819761D02*
X151523809Y-71915000D01*
X151523809Y-71915000D02*
X151380952Y-71962619D01*
X151380952Y-71962619D02*
X151285714Y-71962619D01*
X152571428Y-71295952D02*
X152571428Y-71962619D01*
X152333333Y-70915000D02*
X152095238Y-71629285D01*
X152095238Y-71629285D02*
X152714285Y-71629285D01*
%TO.C,C10*%
X181357142Y-97617380D02*
X181309523Y-97665000D01*
X181309523Y-97665000D02*
X181166666Y-97712619D01*
X181166666Y-97712619D02*
X181071428Y-97712619D01*
X181071428Y-97712619D02*
X180928571Y-97665000D01*
X180928571Y-97665000D02*
X180833333Y-97569761D01*
X180833333Y-97569761D02*
X180785714Y-97474523D01*
X180785714Y-97474523D02*
X180738095Y-97284047D01*
X180738095Y-97284047D02*
X180738095Y-97141190D01*
X180738095Y-97141190D02*
X180785714Y-96950714D01*
X180785714Y-96950714D02*
X180833333Y-96855476D01*
X180833333Y-96855476D02*
X180928571Y-96760238D01*
X180928571Y-96760238D02*
X181071428Y-96712619D01*
X181071428Y-96712619D02*
X181166666Y-96712619D01*
X181166666Y-96712619D02*
X181309523Y-96760238D01*
X181309523Y-96760238D02*
X181357142Y-96807857D01*
X182309523Y-97712619D02*
X181738095Y-97712619D01*
X182023809Y-97712619D02*
X182023809Y-96712619D01*
X182023809Y-96712619D02*
X181928571Y-96855476D01*
X181928571Y-96855476D02*
X181833333Y-96950714D01*
X181833333Y-96950714D02*
X181738095Y-96998333D01*
X182928571Y-96712619D02*
X183023809Y-96712619D01*
X183023809Y-96712619D02*
X183119047Y-96760238D01*
X183119047Y-96760238D02*
X183166666Y-96807857D01*
X183166666Y-96807857D02*
X183214285Y-96903095D01*
X183214285Y-96903095D02*
X183261904Y-97093571D01*
X183261904Y-97093571D02*
X183261904Y-97331666D01*
X183261904Y-97331666D02*
X183214285Y-97522142D01*
X183214285Y-97522142D02*
X183166666Y-97617380D01*
X183166666Y-97617380D02*
X183119047Y-97665000D01*
X183119047Y-97665000D02*
X183023809Y-97712619D01*
X183023809Y-97712619D02*
X182928571Y-97712619D01*
X182928571Y-97712619D02*
X182833333Y-97665000D01*
X182833333Y-97665000D02*
X182785714Y-97617380D01*
X182785714Y-97617380D02*
X182738095Y-97522142D01*
X182738095Y-97522142D02*
X182690476Y-97331666D01*
X182690476Y-97331666D02*
X182690476Y-97093571D01*
X182690476Y-97093571D02*
X182738095Y-96903095D01*
X182738095Y-96903095D02*
X182785714Y-96807857D01*
X182785714Y-96807857D02*
X182833333Y-96760238D01*
X182833333Y-96760238D02*
X182928571Y-96712619D01*
%TO.C,J2*%
X151666666Y-83712619D02*
X151666666Y-84426904D01*
X151666666Y-84426904D02*
X151619047Y-84569761D01*
X151619047Y-84569761D02*
X151523809Y-84665000D01*
X151523809Y-84665000D02*
X151380952Y-84712619D01*
X151380952Y-84712619D02*
X151285714Y-84712619D01*
X152095238Y-83807857D02*
X152142857Y-83760238D01*
X152142857Y-83760238D02*
X152238095Y-83712619D01*
X152238095Y-83712619D02*
X152476190Y-83712619D01*
X152476190Y-83712619D02*
X152571428Y-83760238D01*
X152571428Y-83760238D02*
X152619047Y-83807857D01*
X152619047Y-83807857D02*
X152666666Y-83903095D01*
X152666666Y-83903095D02*
X152666666Y-83998333D01*
X152666666Y-83998333D02*
X152619047Y-84141190D01*
X152619047Y-84141190D02*
X152047619Y-84712619D01*
X152047619Y-84712619D02*
X152666666Y-84712619D01*
%TO.C,C2*%
X159083333Y-92867380D02*
X159035714Y-92915000D01*
X159035714Y-92915000D02*
X158892857Y-92962619D01*
X158892857Y-92962619D02*
X158797619Y-92962619D01*
X158797619Y-92962619D02*
X158654762Y-92915000D01*
X158654762Y-92915000D02*
X158559524Y-92819761D01*
X158559524Y-92819761D02*
X158511905Y-92724523D01*
X158511905Y-92724523D02*
X158464286Y-92534047D01*
X158464286Y-92534047D02*
X158464286Y-92391190D01*
X158464286Y-92391190D02*
X158511905Y-92200714D01*
X158511905Y-92200714D02*
X158559524Y-92105476D01*
X158559524Y-92105476D02*
X158654762Y-92010238D01*
X158654762Y-92010238D02*
X158797619Y-91962619D01*
X158797619Y-91962619D02*
X158892857Y-91962619D01*
X158892857Y-91962619D02*
X159035714Y-92010238D01*
X159035714Y-92010238D02*
X159083333Y-92057857D01*
X159464286Y-92057857D02*
X159511905Y-92010238D01*
X159511905Y-92010238D02*
X159607143Y-91962619D01*
X159607143Y-91962619D02*
X159845238Y-91962619D01*
X159845238Y-91962619D02*
X159940476Y-92010238D01*
X159940476Y-92010238D02*
X159988095Y-92057857D01*
X159988095Y-92057857D02*
X160035714Y-92153095D01*
X160035714Y-92153095D02*
X160035714Y-92248333D01*
X160035714Y-92248333D02*
X159988095Y-92391190D01*
X159988095Y-92391190D02*
X159416667Y-92962619D01*
X159416667Y-92962619D02*
X160035714Y-92962619D01*
%TO.C,C9*%
X169333333Y-89867380D02*
X169285714Y-89915000D01*
X169285714Y-89915000D02*
X169142857Y-89962619D01*
X169142857Y-89962619D02*
X169047619Y-89962619D01*
X169047619Y-89962619D02*
X168904762Y-89915000D01*
X168904762Y-89915000D02*
X168809524Y-89819761D01*
X168809524Y-89819761D02*
X168761905Y-89724523D01*
X168761905Y-89724523D02*
X168714286Y-89534047D01*
X168714286Y-89534047D02*
X168714286Y-89391190D01*
X168714286Y-89391190D02*
X168761905Y-89200714D01*
X168761905Y-89200714D02*
X168809524Y-89105476D01*
X168809524Y-89105476D02*
X168904762Y-89010238D01*
X168904762Y-89010238D02*
X169047619Y-88962619D01*
X169047619Y-88962619D02*
X169142857Y-88962619D01*
X169142857Y-88962619D02*
X169285714Y-89010238D01*
X169285714Y-89010238D02*
X169333333Y-89057857D01*
X169809524Y-89962619D02*
X170000000Y-89962619D01*
X170000000Y-89962619D02*
X170095238Y-89915000D01*
X170095238Y-89915000D02*
X170142857Y-89867380D01*
X170142857Y-89867380D02*
X170238095Y-89724523D01*
X170238095Y-89724523D02*
X170285714Y-89534047D01*
X170285714Y-89534047D02*
X170285714Y-89153095D01*
X170285714Y-89153095D02*
X170238095Y-89057857D01*
X170238095Y-89057857D02*
X170190476Y-89010238D01*
X170190476Y-89010238D02*
X170095238Y-88962619D01*
X170095238Y-88962619D02*
X169904762Y-88962619D01*
X169904762Y-88962619D02*
X169809524Y-89010238D01*
X169809524Y-89010238D02*
X169761905Y-89057857D01*
X169761905Y-89057857D02*
X169714286Y-89153095D01*
X169714286Y-89153095D02*
X169714286Y-89391190D01*
X169714286Y-89391190D02*
X169761905Y-89486428D01*
X169761905Y-89486428D02*
X169809524Y-89534047D01*
X169809524Y-89534047D02*
X169904762Y-89581666D01*
X169904762Y-89581666D02*
X170095238Y-89581666D01*
X170095238Y-89581666D02*
X170190476Y-89534047D01*
X170190476Y-89534047D02*
X170238095Y-89486428D01*
X170238095Y-89486428D02*
X170285714Y-89391190D01*
%TO.C,J3*%
X151666666Y-80462619D02*
X151666666Y-81176904D01*
X151666666Y-81176904D02*
X151619047Y-81319761D01*
X151619047Y-81319761D02*
X151523809Y-81415000D01*
X151523809Y-81415000D02*
X151380952Y-81462619D01*
X151380952Y-81462619D02*
X151285714Y-81462619D01*
X152047619Y-80462619D02*
X152666666Y-80462619D01*
X152666666Y-80462619D02*
X152333333Y-80843571D01*
X152333333Y-80843571D02*
X152476190Y-80843571D01*
X152476190Y-80843571D02*
X152571428Y-80891190D01*
X152571428Y-80891190D02*
X152619047Y-80938809D01*
X152619047Y-80938809D02*
X152666666Y-81034047D01*
X152666666Y-81034047D02*
X152666666Y-81272142D01*
X152666666Y-81272142D02*
X152619047Y-81367380D01*
X152619047Y-81367380D02*
X152571428Y-81415000D01*
X152571428Y-81415000D02*
X152476190Y-81462619D01*
X152476190Y-81462619D02*
X152190476Y-81462619D01*
X152190476Y-81462619D02*
X152095238Y-81415000D01*
X152095238Y-81415000D02*
X152047619Y-81367380D01*
%TO.C,U3*%
X165848095Y-96002619D02*
X165848095Y-96812142D01*
X165848095Y-96812142D02*
X165895714Y-96907380D01*
X165895714Y-96907380D02*
X165943333Y-96955000D01*
X165943333Y-96955000D02*
X166038571Y-97002619D01*
X166038571Y-97002619D02*
X166229047Y-97002619D01*
X166229047Y-97002619D02*
X166324285Y-96955000D01*
X166324285Y-96955000D02*
X166371904Y-96907380D01*
X166371904Y-96907380D02*
X166419523Y-96812142D01*
X166419523Y-96812142D02*
X166419523Y-96002619D01*
X166800476Y-96002619D02*
X167419523Y-96002619D01*
X167419523Y-96002619D02*
X167086190Y-96383571D01*
X167086190Y-96383571D02*
X167229047Y-96383571D01*
X167229047Y-96383571D02*
X167324285Y-96431190D01*
X167324285Y-96431190D02*
X167371904Y-96478809D01*
X167371904Y-96478809D02*
X167419523Y-96574047D01*
X167419523Y-96574047D02*
X167419523Y-96812142D01*
X167419523Y-96812142D02*
X167371904Y-96907380D01*
X167371904Y-96907380D02*
X167324285Y-96955000D01*
X167324285Y-96955000D02*
X167229047Y-97002619D01*
X167229047Y-97002619D02*
X166943333Y-97002619D01*
X166943333Y-97002619D02*
X166848095Y-96955000D01*
X166848095Y-96955000D02*
X166800476Y-96907380D01*
%TO.C,C3*%
X149583333Y-89367380D02*
X149535714Y-89415000D01*
X149535714Y-89415000D02*
X149392857Y-89462619D01*
X149392857Y-89462619D02*
X149297619Y-89462619D01*
X149297619Y-89462619D02*
X149154762Y-89415000D01*
X149154762Y-89415000D02*
X149059524Y-89319761D01*
X149059524Y-89319761D02*
X149011905Y-89224523D01*
X149011905Y-89224523D02*
X148964286Y-89034047D01*
X148964286Y-89034047D02*
X148964286Y-88891190D01*
X148964286Y-88891190D02*
X149011905Y-88700714D01*
X149011905Y-88700714D02*
X149059524Y-88605476D01*
X149059524Y-88605476D02*
X149154762Y-88510238D01*
X149154762Y-88510238D02*
X149297619Y-88462619D01*
X149297619Y-88462619D02*
X149392857Y-88462619D01*
X149392857Y-88462619D02*
X149535714Y-88510238D01*
X149535714Y-88510238D02*
X149583333Y-88557857D01*
X149916667Y-88462619D02*
X150535714Y-88462619D01*
X150535714Y-88462619D02*
X150202381Y-88843571D01*
X150202381Y-88843571D02*
X150345238Y-88843571D01*
X150345238Y-88843571D02*
X150440476Y-88891190D01*
X150440476Y-88891190D02*
X150488095Y-88938809D01*
X150488095Y-88938809D02*
X150535714Y-89034047D01*
X150535714Y-89034047D02*
X150535714Y-89272142D01*
X150535714Y-89272142D02*
X150488095Y-89367380D01*
X150488095Y-89367380D02*
X150440476Y-89415000D01*
X150440476Y-89415000D02*
X150345238Y-89462619D01*
X150345238Y-89462619D02*
X150059524Y-89462619D01*
X150059524Y-89462619D02*
X149964286Y-89415000D01*
X149964286Y-89415000D02*
X149916667Y-89367380D01*
%TO.C,J10*%
X176690476Y-79562619D02*
X176690476Y-80276904D01*
X176690476Y-80276904D02*
X176642857Y-80419761D01*
X176642857Y-80419761D02*
X176547619Y-80515000D01*
X176547619Y-80515000D02*
X176404762Y-80562619D01*
X176404762Y-80562619D02*
X176309524Y-80562619D01*
X177690476Y-80562619D02*
X177119048Y-80562619D01*
X177404762Y-80562619D02*
X177404762Y-79562619D01*
X177404762Y-79562619D02*
X177309524Y-79705476D01*
X177309524Y-79705476D02*
X177214286Y-79800714D01*
X177214286Y-79800714D02*
X177119048Y-79848333D01*
X178309524Y-79562619D02*
X178404762Y-79562619D01*
X178404762Y-79562619D02*
X178500000Y-79610238D01*
X178500000Y-79610238D02*
X178547619Y-79657857D01*
X178547619Y-79657857D02*
X178595238Y-79753095D01*
X178595238Y-79753095D02*
X178642857Y-79943571D01*
X178642857Y-79943571D02*
X178642857Y-80181666D01*
X178642857Y-80181666D02*
X178595238Y-80372142D01*
X178595238Y-80372142D02*
X178547619Y-80467380D01*
X178547619Y-80467380D02*
X178500000Y-80515000D01*
X178500000Y-80515000D02*
X178404762Y-80562619D01*
X178404762Y-80562619D02*
X178309524Y-80562619D01*
X178309524Y-80562619D02*
X178214286Y-80515000D01*
X178214286Y-80515000D02*
X178166667Y-80467380D01*
X178166667Y-80467380D02*
X178119048Y-80372142D01*
X178119048Y-80372142D02*
X178071429Y-80181666D01*
X178071429Y-80181666D02*
X178071429Y-79943571D01*
X178071429Y-79943571D02*
X178119048Y-79753095D01*
X178119048Y-79753095D02*
X178166667Y-79657857D01*
X178166667Y-79657857D02*
X178214286Y-79610238D01*
X178214286Y-79610238D02*
X178309524Y-79562619D01*
%TO.C,R3*%
X154393333Y-68352619D02*
X154060000Y-67876428D01*
X153821905Y-68352619D02*
X153821905Y-67352619D01*
X153821905Y-67352619D02*
X154202857Y-67352619D01*
X154202857Y-67352619D02*
X154298095Y-67400238D01*
X154298095Y-67400238D02*
X154345714Y-67447857D01*
X154345714Y-67447857D02*
X154393333Y-67543095D01*
X154393333Y-67543095D02*
X154393333Y-67685952D01*
X154393333Y-67685952D02*
X154345714Y-67781190D01*
X154345714Y-67781190D02*
X154298095Y-67828809D01*
X154298095Y-67828809D02*
X154202857Y-67876428D01*
X154202857Y-67876428D02*
X153821905Y-67876428D01*
X154726667Y-67352619D02*
X155345714Y-67352619D01*
X155345714Y-67352619D02*
X155012381Y-67733571D01*
X155012381Y-67733571D02*
X155155238Y-67733571D01*
X155155238Y-67733571D02*
X155250476Y-67781190D01*
X155250476Y-67781190D02*
X155298095Y-67828809D01*
X155298095Y-67828809D02*
X155345714Y-67924047D01*
X155345714Y-67924047D02*
X155345714Y-68162142D01*
X155345714Y-68162142D02*
X155298095Y-68257380D01*
X155298095Y-68257380D02*
X155250476Y-68305000D01*
X155250476Y-68305000D02*
X155155238Y-68352619D01*
X155155238Y-68352619D02*
X154869524Y-68352619D01*
X154869524Y-68352619D02*
X154774286Y-68305000D01*
X154774286Y-68305000D02*
X154726667Y-68257380D01*
%TO.C,J7*%
X179916666Y-61962619D02*
X179916666Y-62676904D01*
X179916666Y-62676904D02*
X179869047Y-62819761D01*
X179869047Y-62819761D02*
X179773809Y-62915000D01*
X179773809Y-62915000D02*
X179630952Y-62962619D01*
X179630952Y-62962619D02*
X179535714Y-62962619D01*
X180297619Y-61962619D02*
X180964285Y-61962619D01*
X180964285Y-61962619D02*
X180535714Y-62962619D01*
%TO.C,C7*%
X162083333Y-88367380D02*
X162035714Y-88415000D01*
X162035714Y-88415000D02*
X161892857Y-88462619D01*
X161892857Y-88462619D02*
X161797619Y-88462619D01*
X161797619Y-88462619D02*
X161654762Y-88415000D01*
X161654762Y-88415000D02*
X161559524Y-88319761D01*
X161559524Y-88319761D02*
X161511905Y-88224523D01*
X161511905Y-88224523D02*
X161464286Y-88034047D01*
X161464286Y-88034047D02*
X161464286Y-87891190D01*
X161464286Y-87891190D02*
X161511905Y-87700714D01*
X161511905Y-87700714D02*
X161559524Y-87605476D01*
X161559524Y-87605476D02*
X161654762Y-87510238D01*
X161654762Y-87510238D02*
X161797619Y-87462619D01*
X161797619Y-87462619D02*
X161892857Y-87462619D01*
X161892857Y-87462619D02*
X162035714Y-87510238D01*
X162035714Y-87510238D02*
X162083333Y-87557857D01*
X162416667Y-87462619D02*
X163083333Y-87462619D01*
X163083333Y-87462619D02*
X162654762Y-88462619D01*
%TO.C,J14*%
X183187276Y-88088419D02*
X183187276Y-88802704D01*
X183187276Y-88802704D02*
X183139657Y-88945561D01*
X183139657Y-88945561D02*
X183044419Y-89040800D01*
X183044419Y-89040800D02*
X182901562Y-89088419D01*
X182901562Y-89088419D02*
X182806324Y-89088419D01*
X184187276Y-89088419D02*
X183615848Y-89088419D01*
X183901562Y-89088419D02*
X183901562Y-88088419D01*
X183901562Y-88088419D02*
X183806324Y-88231276D01*
X183806324Y-88231276D02*
X183711086Y-88326514D01*
X183711086Y-88326514D02*
X183615848Y-88374133D01*
X185044419Y-88421752D02*
X185044419Y-89088419D01*
X184806324Y-88040800D02*
X184568229Y-88755085D01*
X184568229Y-88755085D02*
X185187276Y-88755085D01*
%TO.C,J6*%
X179916666Y-68462619D02*
X179916666Y-69176904D01*
X179916666Y-69176904D02*
X179869047Y-69319761D01*
X179869047Y-69319761D02*
X179773809Y-69415000D01*
X179773809Y-69415000D02*
X179630952Y-69462619D01*
X179630952Y-69462619D02*
X179535714Y-69462619D01*
X180821428Y-68462619D02*
X180630952Y-68462619D01*
X180630952Y-68462619D02*
X180535714Y-68510238D01*
X180535714Y-68510238D02*
X180488095Y-68557857D01*
X180488095Y-68557857D02*
X180392857Y-68700714D01*
X180392857Y-68700714D02*
X180345238Y-68891190D01*
X180345238Y-68891190D02*
X180345238Y-69272142D01*
X180345238Y-69272142D02*
X180392857Y-69367380D01*
X180392857Y-69367380D02*
X180440476Y-69415000D01*
X180440476Y-69415000D02*
X180535714Y-69462619D01*
X180535714Y-69462619D02*
X180726190Y-69462619D01*
X180726190Y-69462619D02*
X180821428Y-69415000D01*
X180821428Y-69415000D02*
X180869047Y-69367380D01*
X180869047Y-69367380D02*
X180916666Y-69272142D01*
X180916666Y-69272142D02*
X180916666Y-69034047D01*
X180916666Y-69034047D02*
X180869047Y-68938809D01*
X180869047Y-68938809D02*
X180821428Y-68891190D01*
X180821428Y-68891190D02*
X180726190Y-68843571D01*
X180726190Y-68843571D02*
X180535714Y-68843571D01*
X180535714Y-68843571D02*
X180440476Y-68891190D01*
X180440476Y-68891190D02*
X180392857Y-68938809D01*
X180392857Y-68938809D02*
X180345238Y-69034047D01*
%TO.C,R4*%
X170833333Y-86062619D02*
X170500000Y-85586428D01*
X170261905Y-86062619D02*
X170261905Y-85062619D01*
X170261905Y-85062619D02*
X170642857Y-85062619D01*
X170642857Y-85062619D02*
X170738095Y-85110238D01*
X170738095Y-85110238D02*
X170785714Y-85157857D01*
X170785714Y-85157857D02*
X170833333Y-85253095D01*
X170833333Y-85253095D02*
X170833333Y-85395952D01*
X170833333Y-85395952D02*
X170785714Y-85491190D01*
X170785714Y-85491190D02*
X170738095Y-85538809D01*
X170738095Y-85538809D02*
X170642857Y-85586428D01*
X170642857Y-85586428D02*
X170261905Y-85586428D01*
X171690476Y-85395952D02*
X171690476Y-86062619D01*
X171452381Y-85015000D02*
X171214286Y-85729285D01*
X171214286Y-85729285D02*
X171833333Y-85729285D01*
%TO.C,U2*%
X148013095Y-95762619D02*
X148013095Y-96572142D01*
X148013095Y-96572142D02*
X148060714Y-96667380D01*
X148060714Y-96667380D02*
X148108333Y-96715000D01*
X148108333Y-96715000D02*
X148203571Y-96762619D01*
X148203571Y-96762619D02*
X148394047Y-96762619D01*
X148394047Y-96762619D02*
X148489285Y-96715000D01*
X148489285Y-96715000D02*
X148536904Y-96667380D01*
X148536904Y-96667380D02*
X148584523Y-96572142D01*
X148584523Y-96572142D02*
X148584523Y-95762619D01*
X149013095Y-95857857D02*
X149060714Y-95810238D01*
X149060714Y-95810238D02*
X149155952Y-95762619D01*
X149155952Y-95762619D02*
X149394047Y-95762619D01*
X149394047Y-95762619D02*
X149489285Y-95810238D01*
X149489285Y-95810238D02*
X149536904Y-95857857D01*
X149536904Y-95857857D02*
X149584523Y-95953095D01*
X149584523Y-95953095D02*
X149584523Y-96048333D01*
X149584523Y-96048333D02*
X149536904Y-96191190D01*
X149536904Y-96191190D02*
X148965476Y-96762619D01*
X148965476Y-96762619D02*
X149584523Y-96762619D01*
%TO.C,J5*%
X179916666Y-65212619D02*
X179916666Y-65926904D01*
X179916666Y-65926904D02*
X179869047Y-66069761D01*
X179869047Y-66069761D02*
X179773809Y-66165000D01*
X179773809Y-66165000D02*
X179630952Y-66212619D01*
X179630952Y-66212619D02*
X179535714Y-66212619D01*
X180869047Y-65212619D02*
X180392857Y-65212619D01*
X180392857Y-65212619D02*
X180345238Y-65688809D01*
X180345238Y-65688809D02*
X180392857Y-65641190D01*
X180392857Y-65641190D02*
X180488095Y-65593571D01*
X180488095Y-65593571D02*
X180726190Y-65593571D01*
X180726190Y-65593571D02*
X180821428Y-65641190D01*
X180821428Y-65641190D02*
X180869047Y-65688809D01*
X180869047Y-65688809D02*
X180916666Y-65784047D01*
X180916666Y-65784047D02*
X180916666Y-66022142D01*
X180916666Y-66022142D02*
X180869047Y-66117380D01*
X180869047Y-66117380D02*
X180821428Y-66165000D01*
X180821428Y-66165000D02*
X180726190Y-66212619D01*
X180726190Y-66212619D02*
X180488095Y-66212619D01*
X180488095Y-66212619D02*
X180392857Y-66165000D01*
X180392857Y-66165000D02*
X180345238Y-66117380D01*
%TO.C,J12*%
X184020476Y-99072619D02*
X184020476Y-99786904D01*
X184020476Y-99786904D02*
X183972857Y-99929761D01*
X183972857Y-99929761D02*
X183877619Y-100025000D01*
X183877619Y-100025000D02*
X183734762Y-100072619D01*
X183734762Y-100072619D02*
X183639524Y-100072619D01*
X185020476Y-100072619D02*
X184449048Y-100072619D01*
X184734762Y-100072619D02*
X184734762Y-99072619D01*
X184734762Y-99072619D02*
X184639524Y-99215476D01*
X184639524Y-99215476D02*
X184544286Y-99310714D01*
X184544286Y-99310714D02*
X184449048Y-99358333D01*
X185401429Y-99167857D02*
X185449048Y-99120238D01*
X185449048Y-99120238D02*
X185544286Y-99072619D01*
X185544286Y-99072619D02*
X185782381Y-99072619D01*
X185782381Y-99072619D02*
X185877619Y-99120238D01*
X185877619Y-99120238D02*
X185925238Y-99167857D01*
X185925238Y-99167857D02*
X185972857Y-99263095D01*
X185972857Y-99263095D02*
X185972857Y-99358333D01*
X185972857Y-99358333D02*
X185925238Y-99501190D01*
X185925238Y-99501190D02*
X185353810Y-100072619D01*
X185353810Y-100072619D02*
X185972857Y-100072619D01*
%TO.C,SW1*%
X151146667Y-75015000D02*
X151289524Y-75062619D01*
X151289524Y-75062619D02*
X151527619Y-75062619D01*
X151527619Y-75062619D02*
X151622857Y-75015000D01*
X151622857Y-75015000D02*
X151670476Y-74967380D01*
X151670476Y-74967380D02*
X151718095Y-74872142D01*
X151718095Y-74872142D02*
X151718095Y-74776904D01*
X151718095Y-74776904D02*
X151670476Y-74681666D01*
X151670476Y-74681666D02*
X151622857Y-74634047D01*
X151622857Y-74634047D02*
X151527619Y-74586428D01*
X151527619Y-74586428D02*
X151337143Y-74538809D01*
X151337143Y-74538809D02*
X151241905Y-74491190D01*
X151241905Y-74491190D02*
X151194286Y-74443571D01*
X151194286Y-74443571D02*
X151146667Y-74348333D01*
X151146667Y-74348333D02*
X151146667Y-74253095D01*
X151146667Y-74253095D02*
X151194286Y-74157857D01*
X151194286Y-74157857D02*
X151241905Y-74110238D01*
X151241905Y-74110238D02*
X151337143Y-74062619D01*
X151337143Y-74062619D02*
X151575238Y-74062619D01*
X151575238Y-74062619D02*
X151718095Y-74110238D01*
X152051429Y-74062619D02*
X152289524Y-75062619D01*
X152289524Y-75062619D02*
X152480000Y-74348333D01*
X152480000Y-74348333D02*
X152670476Y-75062619D01*
X152670476Y-75062619D02*
X152908572Y-74062619D01*
X153813333Y-75062619D02*
X153241905Y-75062619D01*
X153527619Y-75062619D02*
X153527619Y-74062619D01*
X153527619Y-74062619D02*
X153432381Y-74205476D01*
X153432381Y-74205476D02*
X153337143Y-74300714D01*
X153337143Y-74300714D02*
X153241905Y-74348333D01*
%TO.C,J11*%
X144440476Y-98462619D02*
X144440476Y-99176904D01*
X144440476Y-99176904D02*
X144392857Y-99319761D01*
X144392857Y-99319761D02*
X144297619Y-99415000D01*
X144297619Y-99415000D02*
X144154762Y-99462619D01*
X144154762Y-99462619D02*
X144059524Y-99462619D01*
X145440476Y-99462619D02*
X144869048Y-99462619D01*
X145154762Y-99462619D02*
X145154762Y-98462619D01*
X145154762Y-98462619D02*
X145059524Y-98605476D01*
X145059524Y-98605476D02*
X144964286Y-98700714D01*
X144964286Y-98700714D02*
X144869048Y-98748333D01*
X146392857Y-99462619D02*
X145821429Y-99462619D01*
X146107143Y-99462619D02*
X146107143Y-98462619D01*
X146107143Y-98462619D02*
X146011905Y-98605476D01*
X146011905Y-98605476D02*
X145916667Y-98700714D01*
X145916667Y-98700714D02*
X145821429Y-98748333D01*
%TO.C,J8*%
X151666666Y-77212619D02*
X151666666Y-77926904D01*
X151666666Y-77926904D02*
X151619047Y-78069761D01*
X151619047Y-78069761D02*
X151523809Y-78165000D01*
X151523809Y-78165000D02*
X151380952Y-78212619D01*
X151380952Y-78212619D02*
X151285714Y-78212619D01*
X152285714Y-77641190D02*
X152190476Y-77593571D01*
X152190476Y-77593571D02*
X152142857Y-77545952D01*
X152142857Y-77545952D02*
X152095238Y-77450714D01*
X152095238Y-77450714D02*
X152095238Y-77403095D01*
X152095238Y-77403095D02*
X152142857Y-77307857D01*
X152142857Y-77307857D02*
X152190476Y-77260238D01*
X152190476Y-77260238D02*
X152285714Y-77212619D01*
X152285714Y-77212619D02*
X152476190Y-77212619D01*
X152476190Y-77212619D02*
X152571428Y-77260238D01*
X152571428Y-77260238D02*
X152619047Y-77307857D01*
X152619047Y-77307857D02*
X152666666Y-77403095D01*
X152666666Y-77403095D02*
X152666666Y-77450714D01*
X152666666Y-77450714D02*
X152619047Y-77545952D01*
X152619047Y-77545952D02*
X152571428Y-77593571D01*
X152571428Y-77593571D02*
X152476190Y-77641190D01*
X152476190Y-77641190D02*
X152285714Y-77641190D01*
X152285714Y-77641190D02*
X152190476Y-77688809D01*
X152190476Y-77688809D02*
X152142857Y-77736428D01*
X152142857Y-77736428D02*
X152095238Y-77831666D01*
X152095238Y-77831666D02*
X152095238Y-78022142D01*
X152095238Y-78022142D02*
X152142857Y-78117380D01*
X152142857Y-78117380D02*
X152190476Y-78165000D01*
X152190476Y-78165000D02*
X152285714Y-78212619D01*
X152285714Y-78212619D02*
X152476190Y-78212619D01*
X152476190Y-78212619D02*
X152571428Y-78165000D01*
X152571428Y-78165000D02*
X152619047Y-78117380D01*
X152619047Y-78117380D02*
X152666666Y-78022142D01*
X152666666Y-78022142D02*
X152666666Y-77831666D01*
X152666666Y-77831666D02*
X152619047Y-77736428D01*
X152619047Y-77736428D02*
X152571428Y-77688809D01*
X152571428Y-77688809D02*
X152476190Y-77641190D01*
%TO.C,U1*%
X176038095Y-77262619D02*
X176038095Y-78072142D01*
X176038095Y-78072142D02*
X176085714Y-78167380D01*
X176085714Y-78167380D02*
X176133333Y-78215000D01*
X176133333Y-78215000D02*
X176228571Y-78262619D01*
X176228571Y-78262619D02*
X176419047Y-78262619D01*
X176419047Y-78262619D02*
X176514285Y-78215000D01*
X176514285Y-78215000D02*
X176561904Y-78167380D01*
X176561904Y-78167380D02*
X176609523Y-78072142D01*
X176609523Y-78072142D02*
X176609523Y-77262619D01*
X177609523Y-78262619D02*
X177038095Y-78262619D01*
X177323809Y-78262619D02*
X177323809Y-77262619D01*
X177323809Y-77262619D02*
X177228571Y-77405476D01*
X177228571Y-77405476D02*
X177133333Y-77500714D01*
X177133333Y-77500714D02*
X177038095Y-77548333D01*
D12*
X157328572Y-80826571D02*
X157728572Y-80826571D01*
X157900000Y-81455142D02*
X157328572Y-81455142D01*
X157328572Y-81455142D02*
X157328572Y-80255142D01*
X157328572Y-80255142D02*
X157900000Y-80255142D01*
X158357143Y-81398000D02*
X158528572Y-81455142D01*
X158528572Y-81455142D02*
X158814286Y-81455142D01*
X158814286Y-81455142D02*
X158928572Y-81398000D01*
X158928572Y-81398000D02*
X158985714Y-81340857D01*
X158985714Y-81340857D02*
X159042857Y-81226571D01*
X159042857Y-81226571D02*
X159042857Y-81112285D01*
X159042857Y-81112285D02*
X158985714Y-80998000D01*
X158985714Y-80998000D02*
X158928572Y-80940857D01*
X158928572Y-80940857D02*
X158814286Y-80883714D01*
X158814286Y-80883714D02*
X158585714Y-80826571D01*
X158585714Y-80826571D02*
X158471429Y-80769428D01*
X158471429Y-80769428D02*
X158414286Y-80712285D01*
X158414286Y-80712285D02*
X158357143Y-80598000D01*
X158357143Y-80598000D02*
X158357143Y-80483714D01*
X158357143Y-80483714D02*
X158414286Y-80369428D01*
X158414286Y-80369428D02*
X158471429Y-80312285D01*
X158471429Y-80312285D02*
X158585714Y-80255142D01*
X158585714Y-80255142D02*
X158871429Y-80255142D01*
X158871429Y-80255142D02*
X159042857Y-80312285D01*
X159557143Y-81455142D02*
X159557143Y-80255142D01*
X159557143Y-80255142D02*
X160014286Y-80255142D01*
X160014286Y-80255142D02*
X160128571Y-80312285D01*
X160128571Y-80312285D02*
X160185714Y-80369428D01*
X160185714Y-80369428D02*
X160242857Y-80483714D01*
X160242857Y-80483714D02*
X160242857Y-80655142D01*
X160242857Y-80655142D02*
X160185714Y-80769428D01*
X160185714Y-80769428D02*
X160128571Y-80826571D01*
X160128571Y-80826571D02*
X160014286Y-80883714D01*
X160014286Y-80883714D02*
X159557143Y-80883714D01*
X160642857Y-80255142D02*
X161385714Y-80255142D01*
X161385714Y-80255142D02*
X160985714Y-80712285D01*
X160985714Y-80712285D02*
X161157143Y-80712285D01*
X161157143Y-80712285D02*
X161271429Y-80769428D01*
X161271429Y-80769428D02*
X161328571Y-80826571D01*
X161328571Y-80826571D02*
X161385714Y-80940857D01*
X161385714Y-80940857D02*
X161385714Y-81226571D01*
X161385714Y-81226571D02*
X161328571Y-81340857D01*
X161328571Y-81340857D02*
X161271429Y-81398000D01*
X161271429Y-81398000D02*
X161157143Y-81455142D01*
X161157143Y-81455142D02*
X160814286Y-81455142D01*
X160814286Y-81455142D02*
X160700000Y-81398000D01*
X160700000Y-81398000D02*
X160642857Y-81340857D01*
X161842857Y-80369428D02*
X161900000Y-80312285D01*
X161900000Y-80312285D02*
X162014286Y-80255142D01*
X162014286Y-80255142D02*
X162300000Y-80255142D01*
X162300000Y-80255142D02*
X162414286Y-80312285D01*
X162414286Y-80312285D02*
X162471428Y-80369428D01*
X162471428Y-80369428D02*
X162528571Y-80483714D01*
X162528571Y-80483714D02*
X162528571Y-80598000D01*
X162528571Y-80598000D02*
X162471428Y-80769428D01*
X162471428Y-80769428D02*
X161785714Y-81455142D01*
X161785714Y-81455142D02*
X162528571Y-81455142D01*
X163042857Y-80998000D02*
X163957143Y-80998000D01*
X164414285Y-80255142D02*
X164699999Y-81455142D01*
X164699999Y-81455142D02*
X164928571Y-80598000D01*
X164928571Y-80598000D02*
X165157142Y-81455142D01*
X165157142Y-81455142D02*
X165442857Y-80255142D01*
X166585714Y-81455142D02*
X166185714Y-80883714D01*
X165900000Y-81455142D02*
X165900000Y-80255142D01*
X165900000Y-80255142D02*
X166357143Y-80255142D01*
X166357143Y-80255142D02*
X166471428Y-80312285D01*
X166471428Y-80312285D02*
X166528571Y-80369428D01*
X166528571Y-80369428D02*
X166585714Y-80483714D01*
X166585714Y-80483714D02*
X166585714Y-80655142D01*
X166585714Y-80655142D02*
X166528571Y-80769428D01*
X166528571Y-80769428D02*
X166471428Y-80826571D01*
X166471428Y-80826571D02*
X166357143Y-80883714D01*
X166357143Y-80883714D02*
X165900000Y-80883714D01*
X167328571Y-80255142D02*
X167557143Y-80255142D01*
X167557143Y-80255142D02*
X167671428Y-80312285D01*
X167671428Y-80312285D02*
X167785714Y-80426571D01*
X167785714Y-80426571D02*
X167842857Y-80655142D01*
X167842857Y-80655142D02*
X167842857Y-81055142D01*
X167842857Y-81055142D02*
X167785714Y-81283714D01*
X167785714Y-81283714D02*
X167671428Y-81398000D01*
X167671428Y-81398000D02*
X167557143Y-81455142D01*
X167557143Y-81455142D02*
X167328571Y-81455142D01*
X167328571Y-81455142D02*
X167214286Y-81398000D01*
X167214286Y-81398000D02*
X167100000Y-81283714D01*
X167100000Y-81283714D02*
X167042857Y-81055142D01*
X167042857Y-81055142D02*
X167042857Y-80655142D01*
X167042857Y-80655142D02*
X167100000Y-80426571D01*
X167100000Y-80426571D02*
X167214286Y-80312285D01*
X167214286Y-80312285D02*
X167328571Y-80255142D01*
X168585714Y-80255142D02*
X168814286Y-80255142D01*
X168814286Y-80255142D02*
X168928571Y-80312285D01*
X168928571Y-80312285D02*
X169042857Y-80426571D01*
X169042857Y-80426571D02*
X169100000Y-80655142D01*
X169100000Y-80655142D02*
X169100000Y-81055142D01*
X169100000Y-81055142D02*
X169042857Y-81283714D01*
X169042857Y-81283714D02*
X168928571Y-81398000D01*
X168928571Y-81398000D02*
X168814286Y-81455142D01*
X168814286Y-81455142D02*
X168585714Y-81455142D01*
X168585714Y-81455142D02*
X168471429Y-81398000D01*
X168471429Y-81398000D02*
X168357143Y-81283714D01*
X168357143Y-81283714D02*
X168300000Y-81055142D01*
X168300000Y-81055142D02*
X168300000Y-80655142D01*
X168300000Y-80655142D02*
X168357143Y-80426571D01*
X168357143Y-80426571D02*
X168471429Y-80312285D01*
X168471429Y-80312285D02*
X168585714Y-80255142D01*
X169614286Y-81455142D02*
X169614286Y-80255142D01*
X169614286Y-80255142D02*
X170014286Y-81112285D01*
X170014286Y-81112285D02*
X170414286Y-80255142D01*
X170414286Y-80255142D02*
X170414286Y-81455142D01*
X170985715Y-80998000D02*
X171900001Y-80998000D01*
X172357143Y-80255142D02*
X173100000Y-80255142D01*
X173100000Y-80255142D02*
X172700000Y-80712285D01*
X172700000Y-80712285D02*
X172871429Y-80712285D01*
X172871429Y-80712285D02*
X172985715Y-80769428D01*
X172985715Y-80769428D02*
X173042857Y-80826571D01*
X173042857Y-80826571D02*
X173100000Y-80940857D01*
X173100000Y-80940857D02*
X173100000Y-81226571D01*
X173100000Y-81226571D02*
X173042857Y-81340857D01*
X173042857Y-81340857D02*
X172985715Y-81398000D01*
X172985715Y-81398000D02*
X172871429Y-81455142D01*
X172871429Y-81455142D02*
X172528572Y-81455142D01*
X172528572Y-81455142D02*
X172414286Y-81398000D01*
X172414286Y-81398000D02*
X172357143Y-81340857D01*
X173557143Y-80369428D02*
X173614286Y-80312285D01*
X173614286Y-80312285D02*
X173728572Y-80255142D01*
X173728572Y-80255142D02*
X174014286Y-80255142D01*
X174014286Y-80255142D02*
X174128572Y-80312285D01*
X174128572Y-80312285D02*
X174185714Y-80369428D01*
X174185714Y-80369428D02*
X174242857Y-80483714D01*
X174242857Y-80483714D02*
X174242857Y-80598000D01*
X174242857Y-80598000D02*
X174185714Y-80769428D01*
X174185714Y-80769428D02*
X173500000Y-81455142D01*
X173500000Y-81455142D02*
X174242857Y-81455142D01*
X174757143Y-80826571D02*
X175157143Y-80826571D01*
X175328571Y-81455142D02*
X174757143Y-81455142D01*
X174757143Y-81455142D02*
X174757143Y-80255142D01*
X174757143Y-80255142D02*
X175328571Y-80255142D01*
D11*
%TO.C,BOOT1*%
X168966666Y-87738809D02*
X169109523Y-87786428D01*
X169109523Y-87786428D02*
X169157142Y-87834047D01*
X169157142Y-87834047D02*
X169204761Y-87929285D01*
X169204761Y-87929285D02*
X169204761Y-88072142D01*
X169204761Y-88072142D02*
X169157142Y-88167380D01*
X169157142Y-88167380D02*
X169109523Y-88215000D01*
X169109523Y-88215000D02*
X169014285Y-88262619D01*
X169014285Y-88262619D02*
X168633333Y-88262619D01*
X168633333Y-88262619D02*
X168633333Y-87262619D01*
X168633333Y-87262619D02*
X168966666Y-87262619D01*
X168966666Y-87262619D02*
X169061904Y-87310238D01*
X169061904Y-87310238D02*
X169109523Y-87357857D01*
X169109523Y-87357857D02*
X169157142Y-87453095D01*
X169157142Y-87453095D02*
X169157142Y-87548333D01*
X169157142Y-87548333D02*
X169109523Y-87643571D01*
X169109523Y-87643571D02*
X169061904Y-87691190D01*
X169061904Y-87691190D02*
X168966666Y-87738809D01*
X168966666Y-87738809D02*
X168633333Y-87738809D01*
X169823809Y-87262619D02*
X170014285Y-87262619D01*
X170014285Y-87262619D02*
X170109523Y-87310238D01*
X170109523Y-87310238D02*
X170204761Y-87405476D01*
X170204761Y-87405476D02*
X170252380Y-87595952D01*
X170252380Y-87595952D02*
X170252380Y-87929285D01*
X170252380Y-87929285D02*
X170204761Y-88119761D01*
X170204761Y-88119761D02*
X170109523Y-88215000D01*
X170109523Y-88215000D02*
X170014285Y-88262619D01*
X170014285Y-88262619D02*
X169823809Y-88262619D01*
X169823809Y-88262619D02*
X169728571Y-88215000D01*
X169728571Y-88215000D02*
X169633333Y-88119761D01*
X169633333Y-88119761D02*
X169585714Y-87929285D01*
X169585714Y-87929285D02*
X169585714Y-87595952D01*
X169585714Y-87595952D02*
X169633333Y-87405476D01*
X169633333Y-87405476D02*
X169728571Y-87310238D01*
X169728571Y-87310238D02*
X169823809Y-87262619D01*
X170871428Y-87262619D02*
X171061904Y-87262619D01*
X171061904Y-87262619D02*
X171157142Y-87310238D01*
X171157142Y-87310238D02*
X171252380Y-87405476D01*
X171252380Y-87405476D02*
X171299999Y-87595952D01*
X171299999Y-87595952D02*
X171299999Y-87929285D01*
X171299999Y-87929285D02*
X171252380Y-88119761D01*
X171252380Y-88119761D02*
X171157142Y-88215000D01*
X171157142Y-88215000D02*
X171061904Y-88262619D01*
X171061904Y-88262619D02*
X170871428Y-88262619D01*
X170871428Y-88262619D02*
X170776190Y-88215000D01*
X170776190Y-88215000D02*
X170680952Y-88119761D01*
X170680952Y-88119761D02*
X170633333Y-87929285D01*
X170633333Y-87929285D02*
X170633333Y-87595952D01*
X170633333Y-87595952D02*
X170680952Y-87405476D01*
X170680952Y-87405476D02*
X170776190Y-87310238D01*
X170776190Y-87310238D02*
X170871428Y-87262619D01*
X171585714Y-87262619D02*
X172157142Y-87262619D01*
X171871428Y-88262619D02*
X171871428Y-87262619D01*
X173014285Y-88262619D02*
X172442857Y-88262619D01*
X172728571Y-88262619D02*
X172728571Y-87262619D01*
X172728571Y-87262619D02*
X172633333Y-87405476D01*
X172633333Y-87405476D02*
X172538095Y-87500714D01*
X172538095Y-87500714D02*
X172442857Y-87548333D01*
D13*
%TO.C,EN1*%
X156949140Y-88249740D02*
X156949140Y-82250260D01*
X160550860Y-88249740D02*
X156949140Y-88249740D01*
X157350460Y-87850960D02*
X158048960Y-86550480D01*
X157350460Y-87850960D02*
X157350460Y-82649040D01*
X160149540Y-87850960D02*
X157350460Y-87850960D01*
X158048960Y-86550480D02*
X158048960Y-83949520D01*
X159451040Y-86550480D02*
X160149540Y-87850960D01*
X159451040Y-86550480D02*
X158048960Y-86550480D01*
X158048960Y-83949520D02*
X159451040Y-83949520D01*
X158048960Y-83949520D02*
X157350460Y-82649040D01*
X159451040Y-83949520D02*
X159451040Y-86550480D01*
X159451040Y-83949520D02*
X160149540Y-82649040D01*
X157350460Y-82649040D02*
X160149540Y-82649040D01*
X160149540Y-82649040D02*
X160149540Y-87850960D01*
X156949140Y-82250260D02*
X160550860Y-82250260D01*
X160550860Y-82250260D02*
X160550860Y-88249740D01*
D10*
%TO.C,C8*%
X155600000Y-60200000D02*
X153600000Y-60200000D01*
X153600000Y-60200000D02*
X153600000Y-61200000D01*
X155600000Y-61200000D02*
X155600000Y-60200000D01*
D14*
X155600000Y-63200000D02*
X155600000Y-64200000D01*
X155600000Y-64200000D02*
X153600000Y-64200000D01*
X153600000Y-64200000D02*
X153600000Y-63200000D01*
D15*
%TO.C,J1*%
X157703500Y-101761500D02*
X157703500Y-109826000D01*
X157703500Y-109826000D02*
X172689500Y-109826000D01*
X157710000Y-103870000D02*
X172710000Y-103870000D01*
X157710000Y-108770000D02*
X172710000Y-108770000D01*
X162720000Y-108746500D02*
X162710000Y-109809347D01*
X167736500Y-108746500D02*
X167736500Y-109762500D01*
X172689500Y-109826000D02*
X172689500Y-101761500D01*
X172710000Y-101761500D02*
X157710000Y-101761500D01*
X162210000Y-106270000D02*
G75*
G03*
X162210000Y-106270000I-2030000J0D01*
G01*
X167310000Y-106270000D02*
G75*
G03*
X167310000Y-106270000I-2050000J0D01*
G01*
X172470000Y-106270000D02*
G75*
G03*
X172470000Y-106270000I-2130000J0D01*
G01*
D16*
%TO.C,J9*%
X179170000Y-73230000D02*
X189330000Y-73230000D01*
X179170000Y-75770000D02*
X179170000Y-73230000D01*
X181710000Y-73230000D02*
X181710000Y-75770000D01*
X189330000Y-73230000D02*
X189330000Y-75770000D01*
X189330000Y-75770000D02*
X179170000Y-75770000D01*
D10*
%TO.C,C1*%
X142220000Y-91560000D02*
X140220000Y-91560000D01*
X140220000Y-91560000D02*
X140220000Y-92560000D01*
X142220000Y-92560000D02*
X142220000Y-91560000D01*
D14*
X142220000Y-94560000D02*
X142220000Y-95560000D01*
X142220000Y-95560000D02*
X140220000Y-95560000D01*
X140220000Y-95560000D02*
X140220000Y-94560000D01*
%TO.C,LOGO1*%
G36*
X148130977Y-64392837D02*
G01*
X148173911Y-64396675D01*
X148194817Y-64405160D01*
X148201621Y-64424643D01*
X148202241Y-64449920D01*
X148200771Y-64481650D01*
X148191076Y-64497676D01*
X148165227Y-64504349D01*
X148130977Y-64507003D01*
X148059713Y-64511576D01*
X148059713Y-64449920D01*
X148059713Y-64388264D01*
X148130977Y-64392837D01*
G37*
G36*
X148130977Y-64737905D02*
G01*
X148174008Y-64741797D01*
X148195543Y-64750804D01*
X148204039Y-64771812D01*
X148206959Y-64799786D01*
X148204087Y-64853860D01*
X148182487Y-64885807D01*
X148139061Y-64899111D01*
X148117887Y-64900009D01*
X148059713Y-64900009D01*
X148059713Y-64816670D01*
X148059713Y-64733332D01*
X148130977Y-64737905D01*
G37*
G36*
X151285273Y-63566258D02*
G01*
X151278904Y-63597817D01*
X151263397Y-63633249D01*
X151244797Y-63660954D01*
X151231370Y-63669766D01*
X151212675Y-63663326D01*
X151210872Y-63658514D01*
X151218717Y-63642653D01*
X151236913Y-63616987D01*
X151258625Y-63589993D01*
X151277016Y-63570147D01*
X151285251Y-63565925D01*
X151285273Y-63566258D01*
G37*
G36*
X151446629Y-64392837D02*
G01*
X151489564Y-64396675D01*
X151510469Y-64405160D01*
X151517274Y-64424643D01*
X151517893Y-64449920D01*
X151516424Y-64481650D01*
X151506729Y-64497676D01*
X151480880Y-64504349D01*
X151446629Y-64507003D01*
X151375365Y-64511576D01*
X151375365Y-64449920D01*
X151375365Y-64388264D01*
X151446629Y-64392837D01*
G37*
G36*
X148964402Y-64395552D02*
G01*
X148983605Y-64409957D01*
X148995527Y-64438406D01*
X149001897Y-64484930D01*
X149004445Y-64553561D01*
X149004899Y-64643795D01*
X149003781Y-64744799D01*
X149000355Y-64817319D01*
X148994512Y-64862797D01*
X148986895Y-64882005D01*
X148960735Y-64894025D01*
X148920602Y-64899443D01*
X148877949Y-64898360D01*
X148844231Y-64890879D01*
X148831486Y-64880625D01*
X148829170Y-64859509D01*
X148827694Y-64814088D01*
X148827132Y-64750053D01*
X148827559Y-64673095D01*
X148828206Y-64629325D01*
X148832365Y-64397410D01*
X148897236Y-64392742D01*
X148936188Y-64391157D01*
X148964402Y-64395552D01*
G37*
G36*
X151112444Y-61657499D02*
G01*
X151151775Y-61683918D01*
X151210844Y-61725318D01*
X151287538Y-61780165D01*
X151379739Y-61846926D01*
X151485333Y-61924065D01*
X151602203Y-62010050D01*
X151728234Y-62103347D01*
X151861310Y-62202420D01*
X151898929Y-62230526D01*
X152670042Y-62807079D01*
X152660528Y-63182161D01*
X152655662Y-63348597D01*
X152649814Y-63492289D01*
X152642399Y-63620496D01*
X152632834Y-63740478D01*
X152620532Y-63859493D01*
X152604908Y-63984801D01*
X152585377Y-64123661D01*
X152583733Y-64134858D01*
X152506287Y-64566813D01*
X152403406Y-64983134D01*
X152275167Y-65383668D01*
X152121648Y-65768264D01*
X151942926Y-66136771D01*
X151739078Y-66489038D01*
X151510181Y-66824914D01*
X151256314Y-67144247D01*
X150977553Y-67446885D01*
X150805253Y-67614002D01*
X150711570Y-67699097D01*
X150610740Y-67786889D01*
X150505581Y-67875247D01*
X150398912Y-67962040D01*
X150293551Y-68045137D01*
X150192317Y-68122408D01*
X150098030Y-68191721D01*
X150013506Y-68250945D01*
X149941565Y-68297950D01*
X149885027Y-68330604D01*
X149846708Y-68346776D01*
X149834524Y-68347894D01*
X149835195Y-68338304D01*
X149859011Y-68315656D01*
X149903322Y-68282220D01*
X149943300Y-68254816D01*
X150293120Y-68005198D01*
X150620446Y-67737016D01*
X150924707Y-67451047D01*
X151205331Y-67148065D01*
X151461746Y-66828846D01*
X151693383Y-66494167D01*
X151899668Y-66144803D01*
X152080032Y-65781529D01*
X152233903Y-65405122D01*
X152360709Y-65016357D01*
X152380646Y-64945017D01*
X152461294Y-64622242D01*
X152525066Y-64305448D01*
X152573035Y-63987024D01*
X152606274Y-63659358D01*
X152625854Y-63314837D01*
X152630011Y-63174669D01*
X152638011Y-62822099D01*
X151895933Y-62268592D01*
X151763568Y-62169942D01*
X151637601Y-62076215D01*
X151520214Y-61989025D01*
X151413591Y-61909985D01*
X151319913Y-61840710D01*
X151241363Y-61782812D01*
X151180124Y-61737907D01*
X151138378Y-61707607D01*
X151118308Y-61693527D01*
X151117699Y-61693146D01*
X151102833Y-61685633D01*
X151087351Y-61683939D01*
X151066999Y-61690256D01*
X151037528Y-61706776D01*
X150994684Y-61735691D01*
X150934216Y-61779192D01*
X150894638Y-61808127D01*
X150743996Y-61910525D01*
X150586998Y-62002659D01*
X150430294Y-62081146D01*
X150280535Y-62142603D01*
X150167628Y-62177905D01*
X149969980Y-62215949D01*
X149774016Y-62226550D01*
X149578522Y-62209400D01*
X149382281Y-62164189D01*
X149184079Y-62090609D01*
X148982701Y-61988351D01*
X148776931Y-61857107D01*
X148707337Y-61806999D01*
X148632684Y-61752676D01*
X148577824Y-61715191D01*
X148539237Y-61692491D01*
X148513400Y-61682528D01*
X148496792Y-61683249D01*
X148495688Y-61683739D01*
X148479122Y-61694839D01*
X148440673Y-61722361D01*
X148382468Y-61764734D01*
X148306637Y-61820387D01*
X148215309Y-61887749D01*
X148110612Y-61965250D01*
X147994677Y-62051318D01*
X147869631Y-62144383D01*
X147737604Y-62242875D01*
X147715363Y-62259489D01*
X146962333Y-62822099D01*
X146971304Y-63167167D01*
X146979680Y-63403696D01*
X146992396Y-63619161D01*
X147010329Y-63822304D01*
X147034355Y-64021867D01*
X147065351Y-64226592D01*
X147093905Y-64389908D01*
X147185009Y-64807086D01*
X147302758Y-65211189D01*
X147446890Y-65601661D01*
X147617144Y-65977946D01*
X147813258Y-66339485D01*
X148034971Y-66685722D01*
X148282020Y-67016101D01*
X148387247Y-67142950D01*
X148542674Y-67314897D01*
X148719462Y-67492975D01*
X148911313Y-67671682D01*
X149111928Y-67845515D01*
X149315010Y-68008973D01*
X149514260Y-68156552D01*
X149661099Y-68255899D01*
X149713683Y-68290525D01*
X149755197Y-68319203D01*
X149780211Y-68338103D01*
X149785052Y-68343275D01*
X149774658Y-68352406D01*
X149743191Y-68342770D01*
X149690226Y-68314139D01*
X149615338Y-68266292D01*
X149537504Y-68212723D01*
X149185308Y-67948678D01*
X148859778Y-67671081D01*
X148560608Y-67379533D01*
X148287494Y-67073633D01*
X148040130Y-66752980D01*
X147818211Y-66417174D01*
X147621433Y-66065814D01*
X147449490Y-65698501D01*
X147302077Y-65314833D01*
X147279742Y-65248879D01*
X147181120Y-64923862D01*
X147100221Y-64594198D01*
X147036317Y-64255451D01*
X146988685Y-63903186D01*
X146956597Y-63532968D01*
X146940210Y-63173702D01*
X146929958Y-62806900D01*
X147701126Y-62230334D01*
X147835899Y-62129912D01*
X147964337Y-62034872D01*
X148084311Y-61946746D01*
X148193690Y-61867067D01*
X148290344Y-61797371D01*
X148372143Y-61739189D01*
X148436956Y-61694057D01*
X148482653Y-61663508D01*
X148507104Y-61649075D01*
X148509801Y-61648137D01*
X148534466Y-61650749D01*
X148568816Y-61666531D01*
X148617019Y-61697858D01*
X148682335Y-61746405D01*
X148879611Y-61885631D01*
X149077198Y-62000454D01*
X149273039Y-62090037D01*
X149465076Y-62153544D01*
X149651250Y-62190138D01*
X149797004Y-62199477D01*
X149981071Y-62185107D01*
X150172503Y-62142235D01*
X150370446Y-62071217D01*
X150574044Y-61972410D01*
X150782444Y-61846169D01*
X150974944Y-61708208D01*
X151034916Y-61666816D01*
X151077732Y-61648250D01*
X151094968Y-61647595D01*
X151112444Y-61657499D01*
G37*
G36*
X148039896Y-62364509D02*
G01*
X148269754Y-62364509D01*
X148278451Y-62379537D01*
X148281006Y-62380052D01*
X148299098Y-62389094D01*
X148328817Y-62410580D01*
X148333875Y-62414658D01*
X148359066Y-62437170D01*
X148367762Y-62456648D01*
X148362365Y-62485089D01*
X148353294Y-62511637D01*
X148341550Y-62549227D01*
X148337456Y-62571717D01*
X148338711Y-62574551D01*
X148355217Y-62567723D01*
X148387765Y-62550542D01*
X148403180Y-62541829D01*
X148460035Y-62509108D01*
X148508286Y-62543466D01*
X148540152Y-62563747D01*
X148560365Y-62572133D01*
X148562769Y-62571593D01*
X148563071Y-62554638D01*
X148556240Y-62519877D01*
X148552784Y-62506632D01*
X148544462Y-62470823D01*
X148547446Y-62446905D01*
X148566017Y-62423807D01*
X148594448Y-62398927D01*
X148652329Y-62349953D01*
X148573564Y-62349730D01*
X148520065Y-62346077D01*
X148495743Y-62335503D01*
X148494122Y-62330753D01*
X148487930Y-62304623D01*
X148473943Y-62267714D01*
X148473625Y-62266990D01*
X148453806Y-62221981D01*
X148427664Y-62285744D01*
X148409719Y-62324871D01*
X148391137Y-62343460D01*
X148360918Y-62349131D01*
X148335638Y-62349506D01*
X148295944Y-62352555D01*
X148272475Y-62360250D01*
X148269754Y-62364509D01*
X148039896Y-62364509D01*
X148073215Y-62339666D01*
X148177544Y-62262068D01*
X148270592Y-62193057D01*
X148349915Y-62134444D01*
X148413064Y-62088041D01*
X148457593Y-62055658D01*
X148481055Y-62039106D01*
X148483007Y-62037853D01*
X148499874Y-62029306D01*
X148516963Y-62027594D01*
X148539503Y-62034938D01*
X148572723Y-62053559D01*
X148621851Y-62085677D01*
X148665642Y-62115424D01*
X148888445Y-62252365D01*
X149111732Y-62359307D01*
X149335440Y-62436250D01*
X149559506Y-62483193D01*
X149783868Y-62500135D01*
X150008462Y-62487075D01*
X150233224Y-62444013D01*
X150458092Y-62370948D01*
X150683003Y-62267878D01*
X150892652Y-62144771D01*
X150942374Y-62113810D01*
X150978743Y-62093789D01*
X150997566Y-62086838D01*
X150997672Y-62091446D01*
X150943253Y-62166814D01*
X150879617Y-62253769D01*
X150808840Y-62349575D01*
X150732999Y-62451494D01*
X150654173Y-62556789D01*
X150574438Y-62662721D01*
X150495870Y-62766554D01*
X150420549Y-62865550D01*
X150350549Y-62956972D01*
X150287950Y-63038082D01*
X150234827Y-63106143D01*
X150193258Y-63158417D01*
X150165320Y-63192167D01*
X150153090Y-63204656D01*
X150152959Y-63204675D01*
X150138146Y-63191532D01*
X150121993Y-63158163D01*
X150114887Y-63136341D01*
X150100926Y-63095353D01*
X150088247Y-63082390D01*
X150074591Y-63097914D01*
X150057699Y-63142386D01*
X150055754Y-63148414D01*
X150042865Y-63182696D01*
X150026373Y-63199277D01*
X149996082Y-63204760D01*
X149967675Y-63205464D01*
X149897574Y-63206254D01*
X149952020Y-63251627D01*
X150006465Y-63297001D01*
X149986494Y-63363360D01*
X149975705Y-63408403D01*
X149978785Y-63427642D01*
X149996265Y-63422151D01*
X150010019Y-63410965D01*
X150016749Y-63405932D01*
X150015749Y-63410359D01*
X150005418Y-63426484D01*
X149984158Y-63456543D01*
X149950369Y-63502773D01*
X149902453Y-63567410D01*
X149838810Y-63652692D01*
X149802614Y-63701072D01*
X149752336Y-63768796D01*
X149709034Y-63828189D01*
X149675660Y-63875114D01*
X149655169Y-63905435D01*
X149650026Y-63914864D01*
X149664532Y-63916905D01*
X149706063Y-63918805D01*
X149771640Y-63920521D01*
X149858281Y-63922009D01*
X149963007Y-63923225D01*
X150082837Y-63924127D01*
X150214790Y-63924670D01*
X150331463Y-63924817D01*
X151012901Y-63924817D01*
X151084505Y-63827297D01*
X151118375Y-63782044D01*
X151145116Y-63747952D01*
X151160173Y-63730774D01*
X151161702Y-63729778D01*
X151177796Y-63735960D01*
X151194915Y-63744559D01*
X151210931Y-63756206D01*
X151215129Y-63773583D01*
X151208324Y-63805981D01*
X151202148Y-63827075D01*
X151190670Y-63871726D01*
X151192703Y-63890737D01*
X151210408Y-63886243D01*
X151240339Y-63864805D01*
X151278697Y-63840833D01*
X151312069Y-63838806D01*
X151351731Y-63858875D01*
X151362661Y-63866441D01*
X151393172Y-63885597D01*
X151411777Y-63892503D01*
X151413249Y-63891934D01*
X151413153Y-63875140D01*
X151405393Y-63840766D01*
X151401713Y-63828156D01*
X151392044Y-63790352D01*
X151396006Y-63766298D01*
X151417789Y-63742548D01*
X151432207Y-63730308D01*
X151462125Y-63703120D01*
X151479003Y-63683494D01*
X151480386Y-63679926D01*
X151476731Y-63678236D01*
X151720433Y-63678236D01*
X151730831Y-63692314D01*
X151756772Y-63717082D01*
X151766819Y-63725738D01*
X151796564Y-63757727D01*
X151806560Y-63792292D01*
X151798101Y-63838428D01*
X151787392Y-63868555D01*
X151784612Y-63890519D01*
X151801050Y-63890493D01*
X151835593Y-63868557D01*
X151840457Y-63864805D01*
X151878815Y-63840833D01*
X151912187Y-63838806D01*
X151951849Y-63858875D01*
X151962779Y-63866441D01*
X151993454Y-63885443D01*
X152012448Y-63891954D01*
X152014015Y-63891286D01*
X152013725Y-63874299D01*
X152004821Y-63839925D01*
X152000043Y-63825620D01*
X151988108Y-63787576D01*
X151990239Y-63764689D01*
X152010438Y-63743889D01*
X152029475Y-63729511D01*
X152060817Y-63703867D01*
X152078602Y-63684681D01*
X152080091Y-63681019D01*
X152066947Y-63674285D01*
X152033240Y-63670265D01*
X152013593Y-63669766D01*
X151971731Y-63668132D01*
X151949353Y-63658273D01*
X151935944Y-63632759D01*
X151928702Y-63609755D01*
X151915381Y-63572661D01*
X151903529Y-63551575D01*
X151900469Y-63549743D01*
X151890260Y-63562664D01*
X151876951Y-63595058D01*
X151872235Y-63609755D01*
X151859295Y-63646861D01*
X151843084Y-63664283D01*
X151813088Y-63669453D01*
X151787344Y-63669766D01*
X151747276Y-63671464D01*
X151723379Y-63675756D01*
X151720433Y-63678236D01*
X151476731Y-63678236D01*
X151467008Y-63673740D01*
X151433338Y-63670139D01*
X151416109Y-63669766D01*
X151377137Y-63668169D01*
X151354608Y-63658442D01*
X151338906Y-63633187D01*
X151326179Y-63600551D01*
X151300526Y-63531335D01*
X151348341Y-63469275D01*
X151375906Y-63433383D01*
X151394740Y-63408643D01*
X151399479Y-63402248D01*
X151413373Y-63404550D01*
X151434958Y-63414492D01*
X151456201Y-63423754D01*
X151462714Y-63415558D01*
X151458664Y-63384089D01*
X151458285Y-63381951D01*
X151456751Y-63365466D01*
X151459393Y-63347516D01*
X151468146Y-63324999D01*
X151484940Y-63294813D01*
X151511709Y-63253856D01*
X151545540Y-63205894D01*
X151802949Y-63205894D01*
X151853772Y-63249357D01*
X151885713Y-63283210D01*
X151897716Y-63318311D01*
X151891164Y-63363677D01*
X151877410Y-63403464D01*
X151872949Y-63424722D01*
X151884915Y-63426332D01*
X151915418Y-63407861D01*
X151938117Y-63391087D01*
X151988767Y-63352454D01*
X152045035Y-63390689D01*
X152079233Y-63412768D01*
X152101119Y-63424708D01*
X152104788Y-63425439D01*
X152103412Y-63410278D01*
X152095867Y-63376128D01*
X152091274Y-63358266D01*
X152082103Y-63318078D01*
X152085120Y-63292726D01*
X152104523Y-63269202D01*
X152126149Y-63250236D01*
X152178023Y-63205894D01*
X152109134Y-63205285D01*
X152066535Y-63203389D01*
X152043653Y-63193906D01*
X152030200Y-63169657D01*
X152022265Y-63144663D01*
X152008557Y-63107545D01*
X151995756Y-63086468D01*
X151992286Y-63084651D01*
X151980647Y-63097499D01*
X151965787Y-63129730D01*
X151960480Y-63144663D01*
X151946521Y-63181429D01*
X151929800Y-63199028D01*
X151899782Y-63204660D01*
X151871812Y-63205285D01*
X151802949Y-63205894D01*
X151545540Y-63205894D01*
X151550385Y-63199025D01*
X151602901Y-63127219D01*
X151671187Y-63035334D01*
X151689357Y-63010995D01*
X151753787Y-62924915D01*
X151812809Y-62846413D01*
X151863909Y-62778807D01*
X151904568Y-62725415D01*
X151932273Y-62689555D01*
X151944391Y-62674657D01*
X151962314Y-62676941D01*
X152001662Y-62698557D01*
X152062743Y-62739699D01*
X152145868Y-62800566D01*
X152162542Y-62813138D01*
X152365560Y-62966753D01*
X152365560Y-63089721D01*
X152363895Y-63178036D01*
X152359235Y-63288656D01*
X152352086Y-63414083D01*
X152342952Y-63546820D01*
X152332339Y-63679369D01*
X152320751Y-63804235D01*
X152311842Y-63887309D01*
X152249135Y-64311322D01*
X152160389Y-64721113D01*
X152045791Y-65116318D01*
X151905532Y-65496570D01*
X151739800Y-65861505D01*
X151548784Y-66210758D01*
X151332672Y-66543963D01*
X151091653Y-66860756D01*
X150825917Y-67160771D01*
X150535651Y-67443643D01*
X150420520Y-67545222D01*
X150370654Y-67586972D01*
X150308225Y-67637593D01*
X150236990Y-67694211D01*
X150160704Y-67753949D01*
X150083124Y-67813932D01*
X150008007Y-67871284D01*
X149939110Y-67923129D01*
X149880187Y-67966592D01*
X149834996Y-67998798D01*
X149807294Y-68016870D01*
X149800672Y-68019738D01*
X149786465Y-68010983D01*
X149752370Y-67987337D01*
X149702592Y-67951793D01*
X149641336Y-67907345D01*
X149595136Y-67873459D01*
X149510724Y-67810248D01*
X149418371Y-67739375D01*
X149328104Y-67668634D01*
X149249950Y-67605819D01*
X149235065Y-67593579D01*
X149208596Y-67570981D01*
X149597515Y-67570981D01*
X149656172Y-67620606D01*
X149690309Y-67651100D01*
X149705189Y-67672874D01*
X149704975Y-67695967D01*
X149697430Y-67720141D01*
X149682968Y-67765129D01*
X149681521Y-67786845D01*
X149696242Y-67786824D01*
X149730285Y-67766600D01*
X149756362Y-67748822D01*
X149781863Y-67733184D01*
X149802050Y-67731470D01*
X149828641Y-67744992D01*
X149850131Y-67759324D01*
X149886123Y-67780062D01*
X149903563Y-67779205D01*
X149903665Y-67755253D01*
X149889273Y-67710958D01*
X149882004Y-67684192D01*
X149887879Y-67662847D01*
X149911207Y-67637475D01*
X149930531Y-67620527D01*
X149987592Y-67571661D01*
X149915857Y-67571098D01*
X149868016Y-67566919D01*
X149840823Y-67556382D01*
X149837537Y-67551781D01*
X149827698Y-67525064D01*
X149813608Y-67488018D01*
X149796265Y-67443009D01*
X149767587Y-67506772D01*
X149748331Y-67545516D01*
X149729029Y-67564209D01*
X149698266Y-67570199D01*
X149668212Y-67570757D01*
X149597515Y-67570981D01*
X149208596Y-67570981D01*
X149177885Y-67544761D01*
X149112205Y-67486164D01*
X149041433Y-67421106D01*
X148968979Y-67352903D01*
X148898252Y-67284870D01*
X148832661Y-67220326D01*
X148775615Y-67162584D01*
X148750874Y-67136455D01*
X149027403Y-67136455D01*
X149082129Y-67181184D01*
X149136854Y-67225913D01*
X149116603Y-67293203D01*
X149106238Y-67332561D01*
X149102710Y-67356790D01*
X149104137Y-67360493D01*
X149119764Y-67352206D01*
X149149828Y-67331374D01*
X149163580Y-67321091D01*
X149215239Y-67281689D01*
X149277285Y-67322748D01*
X149339330Y-67363808D01*
X149329284Y-67328394D01*
X149314785Y-67272585D01*
X149311246Y-67236639D01*
X149320214Y-67211930D01*
X149343237Y-67189830D01*
X149355806Y-67180457D01*
X149407435Y-67142950D01*
X149337786Y-67135449D01*
X149294488Y-67128850D01*
X149270009Y-67115461D01*
X149253359Y-67086680D01*
X149243828Y-67061913D01*
X149243227Y-67060434D01*
X149600018Y-67060434D01*
X149657483Y-67110109D01*
X149691057Y-67140812D01*
X149705491Y-67162794D01*
X149704896Y-67186304D01*
X149697490Y-67209867D01*
X149682993Y-67254948D01*
X149681516Y-67276723D01*
X149696211Y-67276738D01*
X149730229Y-67256537D01*
X149756362Y-67238721D01*
X149782006Y-67223008D01*
X149802250Y-67221373D01*
X149828974Y-67235089D01*
X149849335Y-67248683D01*
X149883722Y-67271099D01*
X149906427Y-67284135D01*
X149910199Y-67285478D01*
X149910321Y-67272730D01*
X149902874Y-67240498D01*
X149897436Y-67221716D01*
X149877959Y-67157953D01*
X149895023Y-67142950D01*
X150154541Y-67142950D01*
X150211048Y-67185890D01*
X150246893Y-67217442D01*
X150260331Y-67243056D01*
X150258967Y-67260905D01*
X150247786Y-67302167D01*
X150240396Y-67329082D01*
X150236094Y-67349881D01*
X150241509Y-67356272D01*
X150261168Y-67347277D01*
X150299596Y-67321920D01*
X150311472Y-67313736D01*
X150336973Y-67298098D01*
X150357159Y-67296384D01*
X150383750Y-67309907D01*
X150405240Y-67324238D01*
X150441184Y-67344966D01*
X150458626Y-67344163D01*
X150458774Y-67320306D01*
X150444114Y-67275203D01*
X150436577Y-67248079D01*
X150442184Y-67226897D01*
X150465273Y-67202097D01*
X150484950Y-67185166D01*
X150541857Y-67137365D01*
X150468525Y-67132656D01*
X150423662Y-67128012D01*
X150399048Y-67117696D01*
X150384931Y-67095910D01*
X150378930Y-67079412D01*
X150364044Y-67046733D01*
X150349188Y-67031104D01*
X150347663Y-67030878D01*
X150333298Y-67043608D01*
X150318046Y-67074725D01*
X150316406Y-67079412D01*
X150303462Y-67109207D01*
X150284104Y-67125022D01*
X150248523Y-67133028D01*
X150227347Y-67135449D01*
X150154541Y-67142950D01*
X149895023Y-67142950D01*
X149932776Y-67109757D01*
X149987592Y-67061560D01*
X149916930Y-67060997D01*
X149873701Y-67059259D01*
X149850391Y-67050350D01*
X149836917Y-67027380D01*
X149828289Y-67000422D01*
X149814575Y-66963304D01*
X149801760Y-66942227D01*
X149798283Y-66940410D01*
X149786967Y-66953351D01*
X149773025Y-66985788D01*
X149768277Y-67000422D01*
X149756247Y-67035937D01*
X149741601Y-67053646D01*
X149714724Y-67059747D01*
X149675157Y-67060434D01*
X149600018Y-67060434D01*
X149243227Y-67060434D01*
X149228393Y-67023912D01*
X149216696Y-67011301D01*
X149205065Y-67025172D01*
X149189827Y-67066619D01*
X149185741Y-67079188D01*
X149172771Y-67113458D01*
X149156278Y-67129992D01*
X149126049Y-67135360D01*
X149097504Y-67135952D01*
X149027403Y-67136455D01*
X148750874Y-67136455D01*
X148730524Y-67114963D01*
X148700796Y-67080779D01*
X148689841Y-67063347D01*
X148689837Y-67063196D01*
X148699669Y-67040100D01*
X148724889Y-67003931D01*
X148759087Y-66962232D01*
X148795849Y-66922547D01*
X148828764Y-66892420D01*
X148843630Y-66882263D01*
X148872200Y-66870631D01*
X148896646Y-66874495D01*
X148929534Y-66895152D01*
X148966133Y-66917415D01*
X148983952Y-66917030D01*
X148984623Y-66892640D01*
X148974769Y-66857518D01*
X148966157Y-66819658D01*
X148967484Y-66794494D01*
X148969523Y-66791567D01*
X148989515Y-66775602D01*
X149021300Y-66751247D01*
X149025415Y-66748145D01*
X149050376Y-66725886D01*
X149051046Y-66711733D01*
X149025294Y-66702475D01*
X148991707Y-66697348D01*
X148976709Y-66693978D01*
X148971517Y-66685751D01*
X148978074Y-66668230D01*
X148981556Y-66662856D01*
X149292499Y-66662856D01*
X149344127Y-66700363D01*
X149372817Y-66723708D01*
X149386874Y-66746428D01*
X149387843Y-66777150D01*
X149377271Y-66824502D01*
X149370649Y-66848299D01*
X149360603Y-66883714D01*
X149422649Y-66842654D01*
X149484694Y-66801594D01*
X149537354Y-66841760D01*
X149570360Y-66863984D01*
X149586634Y-66865114D01*
X149588022Y-66842905D01*
X149576369Y-66795115D01*
X149576202Y-66794532D01*
X149569903Y-66763358D01*
X149576478Y-66740539D01*
X149600655Y-66715400D01*
X149617460Y-66701366D01*
X149655640Y-66670163D01*
X149922970Y-66670163D01*
X149934661Y-66690715D01*
X149966250Y-66716194D01*
X149991786Y-66736812D01*
X150003733Y-66757711D01*
X150003297Y-66787377D01*
X149991687Y-66834299D01*
X149985869Y-66854143D01*
X149983300Y-66875270D01*
X149995812Y-66877263D01*
X150026473Y-66859779D01*
X150043916Y-66847677D01*
X150089869Y-66814956D01*
X150149723Y-66849403D01*
X150209576Y-66883850D01*
X150200905Y-66840866D01*
X150191309Y-66800696D01*
X150182998Y-66774029D01*
X150187469Y-66749283D01*
X150219403Y-66719238D01*
X150223320Y-66716493D01*
X150527698Y-66716493D01*
X150582308Y-66764689D01*
X150614602Y-66794790D01*
X150627870Y-66816377D01*
X150625913Y-66840412D01*
X150617206Y-66865395D01*
X150600397Y-66914040D01*
X150598113Y-66937130D01*
X150612697Y-66936531D01*
X150646491Y-66914111D01*
X150662866Y-66901778D01*
X150713516Y-66863145D01*
X150769784Y-66901380D01*
X150804055Y-66923392D01*
X150826118Y-66935154D01*
X150829889Y-66935778D01*
X150828878Y-66920350D01*
X150821850Y-66885914D01*
X150817427Y-66867726D01*
X150808691Y-66826806D01*
X150812256Y-66801088D01*
X150832424Y-66777147D01*
X150851950Y-66760048D01*
X150902772Y-66716585D01*
X150833883Y-66715976D01*
X150791284Y-66714080D01*
X150768402Y-66704597D01*
X150754949Y-66680348D01*
X150747014Y-66655354D01*
X150733306Y-66618237D01*
X150720505Y-66597159D01*
X150717034Y-66595342D01*
X150705396Y-66608190D01*
X150690536Y-66640421D01*
X150685229Y-66655354D01*
X150671274Y-66692118D01*
X150654564Y-66709709D01*
X150624565Y-66715322D01*
X150596561Y-66715929D01*
X150527698Y-66716493D01*
X150223320Y-66716493D01*
X150226854Y-66714017D01*
X150259494Y-66689586D01*
X150278271Y-66671272D01*
X150280047Y-66667428D01*
X150266665Y-66660423D01*
X150232566Y-66654442D01*
X150210146Y-66652425D01*
X150166305Y-66647508D01*
X150142367Y-66636144D01*
X150128233Y-66612215D01*
X150123879Y-66600170D01*
X150106986Y-66557882D01*
X150093401Y-66544709D01*
X150080502Y-66560351D01*
X150068773Y-66593882D01*
X150055409Y-66632261D01*
X150038887Y-66650021D01*
X150008424Y-66655095D01*
X149985217Y-66655354D01*
X149939681Y-66658829D01*
X149922970Y-66670163D01*
X149655640Y-66670163D01*
X149672530Y-66656360D01*
X149602430Y-66655857D01*
X149559248Y-66654005D01*
X149535852Y-66644877D01*
X149522028Y-66621906D01*
X149514193Y-66599093D01*
X149497672Y-66551554D01*
X149485432Y-66531813D01*
X149473685Y-66538766D01*
X149458641Y-66571310D01*
X149454540Y-66581726D01*
X149436571Y-66622355D01*
X149417044Y-66643025D01*
X149385051Y-66652290D01*
X149360639Y-66655354D01*
X149292499Y-66662856D01*
X148981556Y-66662856D01*
X148998324Y-66636980D01*
X149034211Y-66587564D01*
X149047906Y-66569087D01*
X149086963Y-66517587D01*
X149119630Y-66476571D01*
X149141759Y-66451130D01*
X149148799Y-66445313D01*
X149165870Y-66453209D01*
X149196042Y-66472592D01*
X149201372Y-66476340D01*
X149231730Y-66493360D01*
X149245067Y-66487975D01*
X149241977Y-66458971D01*
X149228874Y-66420034D01*
X149221359Y-66393007D01*
X149226880Y-66371809D01*
X149249748Y-66346955D01*
X149270132Y-66329263D01*
X149302200Y-66299422D01*
X149310287Y-66283907D01*
X149301207Y-66280503D01*
X149278898Y-66276632D01*
X149274952Y-66272519D01*
X149283483Y-66255612D01*
X149287186Y-66250080D01*
X149607908Y-66250080D01*
X149619599Y-66270633D01*
X149651188Y-66296111D01*
X149682782Y-66324761D01*
X149690499Y-66351802D01*
X149688813Y-66360895D01*
X149677427Y-66402851D01*
X149670898Y-66426559D01*
X149667074Y-66452313D01*
X149677607Y-66457932D01*
X149705663Y-66443474D01*
X149728854Y-66427594D01*
X149774807Y-66394873D01*
X149834660Y-66429320D01*
X149894514Y-66463768D01*
X149885843Y-66420784D01*
X149876247Y-66380614D01*
X149867936Y-66353946D01*
X149872407Y-66329200D01*
X149904341Y-66299156D01*
X149911791Y-66293935D01*
X149920012Y-66287782D01*
X150244559Y-66287782D01*
X150300481Y-66330275D01*
X150338830Y-66366315D01*
X150349629Y-66394820D01*
X150348994Y-66397789D01*
X150340063Y-66430723D01*
X150331080Y-66466720D01*
X150320573Y-66510633D01*
X150364124Y-66480433D01*
X150398144Y-66457372D01*
X150422574Y-66441721D01*
X150423922Y-66440935D01*
X150445155Y-66443017D01*
X150479562Y-66459179D01*
X150495186Y-66469022D01*
X150531165Y-66489777D01*
X150548632Y-66489001D01*
X150548799Y-66465171D01*
X150534131Y-66420034D01*
X150526594Y-66392911D01*
X150532202Y-66371728D01*
X150555290Y-66346929D01*
X150574967Y-66329998D01*
X150631875Y-66282196D01*
X150619588Y-66281407D01*
X150902772Y-66281407D01*
X150957382Y-66329603D01*
X150989676Y-66359705D01*
X151002944Y-66381291D01*
X151000987Y-66405327D01*
X150992280Y-66430310D01*
X150975460Y-66478971D01*
X150973196Y-66502040D01*
X150987883Y-66501355D01*
X151021913Y-66478756D01*
X151038800Y-66466036D01*
X151090309Y-66426748D01*
X151143805Y-66467552D01*
X151176892Y-66490885D01*
X151198735Y-66502733D01*
X151202698Y-66502957D01*
X151202523Y-66486553D01*
X151195656Y-66451793D01*
X151191663Y-66435994D01*
X151182994Y-66397051D01*
X151186416Y-66371622D01*
X151206062Y-66346889D01*
X151226538Y-66327794D01*
X151277846Y-66281160D01*
X151208983Y-66280720D01*
X151166295Y-66278867D01*
X151143076Y-66269234D01*
X151128795Y-66244644D01*
X151120315Y-66220268D01*
X151105933Y-66183296D01*
X151093490Y-66162167D01*
X151090309Y-66160257D01*
X151079792Y-66173083D01*
X151065579Y-66205266D01*
X151060303Y-66220268D01*
X151046348Y-66257032D01*
X151029638Y-66274623D01*
X150999638Y-66280237D01*
X150971635Y-66280844D01*
X150902772Y-66281407D01*
X150619588Y-66281407D01*
X150558543Y-66277487D01*
X150513679Y-66272844D01*
X150489066Y-66262528D01*
X150474949Y-66240742D01*
X150468947Y-66224244D01*
X150454062Y-66191564D01*
X150439206Y-66175936D01*
X150437681Y-66175709D01*
X150423315Y-66188439D01*
X150408063Y-66219557D01*
X150406424Y-66224244D01*
X150393479Y-66254039D01*
X150374122Y-66269853D01*
X150338541Y-66277860D01*
X150317365Y-66280280D01*
X150244559Y-66287782D01*
X149920012Y-66287782D01*
X149944432Y-66269504D01*
X149963209Y-66251190D01*
X149964985Y-66247346D01*
X149951603Y-66240340D01*
X149917504Y-66234360D01*
X149895084Y-66232343D01*
X149851243Y-66227425D01*
X149827305Y-66216061D01*
X149813171Y-66192132D01*
X149808817Y-66180087D01*
X149791924Y-66137799D01*
X149778339Y-66124626D01*
X149765440Y-66140268D01*
X149753711Y-66173799D01*
X149740347Y-66212179D01*
X149723825Y-66229939D01*
X149693362Y-66235013D01*
X149670155Y-66235271D01*
X149624619Y-66238747D01*
X149607908Y-66250080D01*
X149287186Y-66250080D01*
X149305988Y-66221992D01*
X149337831Y-66177761D01*
X149374376Y-66129020D01*
X149410990Y-66081871D01*
X149443037Y-66042415D01*
X149465882Y-66016752D01*
X149474209Y-66010227D01*
X149494531Y-66018246D01*
X149526679Y-66037942D01*
X149532301Y-66041870D01*
X149562976Y-66060871D01*
X149581970Y-66067383D01*
X149583536Y-66066714D01*
X149583171Y-66049770D01*
X149574221Y-66015179D01*
X149568755Y-65998755D01*
X149547176Y-65937593D01*
X149598498Y-65902646D01*
X149636107Y-65874164D01*
X149647905Y-65856091D01*
X149635933Y-65846321D01*
X149912577Y-65846321D01*
X149969638Y-65895187D01*
X150003197Y-65926044D01*
X150017170Y-65948201D01*
X150015866Y-65971104D01*
X150010897Y-65985618D01*
X149999356Y-66024081D01*
X149994895Y-66055675D01*
X149998877Y-66070130D01*
X149999680Y-66070239D01*
X150013415Y-66062211D01*
X150042253Y-66042118D01*
X150054090Y-66033481D01*
X150103912Y-65996723D01*
X150157421Y-66033084D01*
X150191174Y-66054029D01*
X150213123Y-66063936D01*
X150216628Y-66063747D01*
X150216544Y-66047156D01*
X150209349Y-66012775D01*
X150206011Y-66000382D01*
X150197631Y-65964872D01*
X150200830Y-65940997D01*
X150219858Y-65917517D01*
X150246175Y-65894177D01*
X150302654Y-65845641D01*
X150512695Y-65845641D01*
X150571352Y-65895267D01*
X150605489Y-65925760D01*
X150620369Y-65947534D01*
X150620155Y-65970628D01*
X150612610Y-65994801D01*
X150598148Y-66039789D01*
X150596701Y-66061505D01*
X150611422Y-66061484D01*
X150645465Y-66041260D01*
X150671542Y-66023482D01*
X150697186Y-66007769D01*
X150717430Y-66006134D01*
X150744154Y-66019850D01*
X150764515Y-66033444D01*
X150799133Y-66055884D01*
X150822317Y-66068913D01*
X150826296Y-66070239D01*
X150826414Y-66057685D01*
X150817936Y-66025916D01*
X150811581Y-66006901D01*
X150789234Y-65943563D01*
X150846003Y-65894942D01*
X150902628Y-65846444D01*
X151172825Y-65846444D01*
X151226392Y-65894579D01*
X151258218Y-65924760D01*
X151271451Y-65947324D01*
X151269915Y-65974600D01*
X151261101Y-66006476D01*
X151251283Y-66044650D01*
X151248267Y-66067425D01*
X151249589Y-66070239D01*
X151265357Y-66062557D01*
X151296433Y-66043211D01*
X151311524Y-66033144D01*
X151366113Y-65996049D01*
X151416734Y-66034659D01*
X151454536Y-66060305D01*
X151473151Y-66063790D01*
X151474166Y-66044601D01*
X151465803Y-66018833D01*
X151452101Y-65968206D01*
X151458860Y-65932449D01*
X151488261Y-65902638D01*
X151495389Y-65897705D01*
X151529737Y-65871358D01*
X151536482Y-65855079D01*
X151514910Y-65847003D01*
X151475286Y-65845195D01*
X151433947Y-65843328D01*
X151411582Y-65832541D01*
X151397178Y-65805051D01*
X151390368Y-65785183D01*
X151375980Y-65748210D01*
X151363523Y-65727081D01*
X151360336Y-65725171D01*
X151350143Y-65738092D01*
X151336845Y-65770486D01*
X151332129Y-65785183D01*
X151319586Y-65821557D01*
X151304014Y-65839220D01*
X151275326Y-65845070D01*
X151243487Y-65845819D01*
X151172825Y-65846444D01*
X150902628Y-65846444D01*
X150902772Y-65846321D01*
X150833137Y-65845758D01*
X150789942Y-65843747D01*
X150765514Y-65833598D01*
X150748621Y-65807766D01*
X150737361Y-65781432D01*
X150711219Y-65717669D01*
X150691400Y-65762678D01*
X150677312Y-65799637D01*
X150670917Y-65826135D01*
X150670903Y-65826441D01*
X150655741Y-65839190D01*
X150611409Y-65845016D01*
X150591461Y-65845418D01*
X150512695Y-65845641D01*
X150302654Y-65845641D01*
X150231958Y-65845418D01*
X150188260Y-65843628D01*
X150163139Y-65833717D01*
X150145172Y-65808335D01*
X150132540Y-65781432D01*
X150112629Y-65743738D01*
X150099355Y-65734338D01*
X150094910Y-65740174D01*
X150083220Y-65770767D01*
X150070925Y-65803936D01*
X150058364Y-65829212D01*
X150038557Y-65841491D01*
X150001768Y-65845467D01*
X149984213Y-65845758D01*
X149912577Y-65846321D01*
X149635933Y-65846321D01*
X149634986Y-65845548D01*
X149621360Y-65842487D01*
X149610042Y-65837236D01*
X149610144Y-65824002D01*
X149623685Y-65798363D01*
X149652685Y-65755895D01*
X149674925Y-65725171D01*
X149722143Y-65660749D01*
X149755521Y-65617432D01*
X149779166Y-65592278D01*
X149797186Y-65582345D01*
X149813688Y-65584692D01*
X149832779Y-65596377D01*
X149843783Y-65604235D01*
X149873747Y-65622477D01*
X149887968Y-65620775D01*
X149888036Y-65596440D01*
X149876261Y-65549287D01*
X149869962Y-65518113D01*
X149876537Y-65495294D01*
X149900714Y-65470155D01*
X149917519Y-65456121D01*
X149948621Y-65428030D01*
X149955568Y-65413655D01*
X149947860Y-65411115D01*
X150197633Y-65411115D01*
X150252704Y-65456121D01*
X150285814Y-65485490D01*
X150299308Y-65507992D01*
X150297916Y-65534302D01*
X150293962Y-65549287D01*
X150281953Y-65598146D01*
X150282929Y-65621381D01*
X150298695Y-65621218D01*
X150331056Y-65599878D01*
X150333524Y-65598004D01*
X150386898Y-65557294D01*
X150448229Y-65597881D01*
X150509561Y-65638469D01*
X150499515Y-65603054D01*
X150484850Y-65547444D01*
X150480888Y-65511964D01*
X150489371Y-65488108D01*
X150512042Y-65467368D01*
X150529828Y-65455118D01*
X150585945Y-65417610D01*
X150514582Y-65412998D01*
X150498037Y-65411236D01*
X150767746Y-65411236D01*
X150822356Y-65459432D01*
X150854649Y-65489533D01*
X150867917Y-65511120D01*
X150865960Y-65535155D01*
X150857254Y-65560138D01*
X150840445Y-65608783D01*
X150838161Y-65631873D01*
X150852744Y-65631275D01*
X150886538Y-65608854D01*
X150902914Y-65596521D01*
X150953563Y-65557888D01*
X151009831Y-65596123D01*
X151044103Y-65618135D01*
X151066165Y-65629897D01*
X151069937Y-65630521D01*
X151068925Y-65615093D01*
X151061897Y-65580657D01*
X151057475Y-65562469D01*
X151048739Y-65521549D01*
X151052303Y-65495831D01*
X151072471Y-65471890D01*
X151091997Y-65454791D01*
X151142820Y-65411328D01*
X151367864Y-65411328D01*
X151418686Y-65454791D01*
X151450290Y-65488062D01*
X151462510Y-65522437D01*
X151456636Y-65566809D01*
X151441380Y-65611359D01*
X151436767Y-65627893D01*
X151443272Y-65631128D01*
X151465070Y-65619656D01*
X151506332Y-65592067D01*
X151513797Y-65586909D01*
X151540172Y-65570308D01*
X151560211Y-65567604D01*
X151585663Y-65579959D01*
X151610464Y-65596473D01*
X151644489Y-65618425D01*
X151666175Y-65630206D01*
X151669702Y-65630873D01*
X151668326Y-65615712D01*
X151660781Y-65581562D01*
X151656188Y-65563700D01*
X151647018Y-65523512D01*
X151650034Y-65498160D01*
X151669437Y-65474636D01*
X151691063Y-65455670D01*
X151742938Y-65411328D01*
X151674048Y-65410719D01*
X151631450Y-65408823D01*
X151608567Y-65399340D01*
X151595115Y-65375091D01*
X151587179Y-65350097D01*
X151573471Y-65312980D01*
X151560670Y-65291902D01*
X151557200Y-65290085D01*
X151545562Y-65302933D01*
X151530702Y-65335164D01*
X151525395Y-65350097D01*
X151511436Y-65386864D01*
X151494715Y-65404462D01*
X151464697Y-65410094D01*
X151436727Y-65410719D01*
X151367864Y-65411328D01*
X151142820Y-65411328D01*
X151073930Y-65410719D01*
X151031331Y-65408823D01*
X151008449Y-65399340D01*
X150994997Y-65375091D01*
X150987061Y-65350097D01*
X150973347Y-65312979D01*
X150960532Y-65291902D01*
X150957055Y-65290085D01*
X150945740Y-65303026D01*
X150931798Y-65335463D01*
X150927049Y-65350097D01*
X150914511Y-65386469D01*
X150898951Y-65404122D01*
X150870285Y-65409950D01*
X150838407Y-65410672D01*
X150767746Y-65411236D01*
X150498037Y-65411236D01*
X150470394Y-65408292D01*
X150444949Y-65396442D01*
X150426990Y-65369737D01*
X150416036Y-65345484D01*
X150388852Y-65282584D01*
X150362878Y-65346346D01*
X150345215Y-65385281D01*
X150326763Y-65403979D01*
X150296316Y-65409975D01*
X150267268Y-65410612D01*
X150197633Y-65411115D01*
X149947860Y-65411115D01*
X149946334Y-65410612D01*
X149926351Y-65407705D01*
X149922962Y-65396488D01*
X149937174Y-65371612D01*
X149959367Y-65341595D01*
X149998655Y-65290085D01*
X149308779Y-65290085D01*
X148618903Y-65290085D01*
X148577315Y-65350097D01*
X148547547Y-65387822D01*
X148520181Y-65405662D01*
X148484205Y-65410572D01*
X148481506Y-65410608D01*
X148427285Y-65411107D01*
X148460585Y-65438898D01*
X148493885Y-65466689D01*
X148371917Y-65628690D01*
X148322924Y-65693305D01*
X148288622Y-65736644D01*
X148265892Y-65761581D01*
X148251618Y-65770989D01*
X148242681Y-65767743D01*
X148235962Y-65754715D01*
X148235753Y-65754180D01*
X148226455Y-65733662D01*
X148218100Y-65732595D01*
X148205920Y-65754072D01*
X148193760Y-65781432D01*
X148175267Y-65819903D01*
X148156591Y-65838640D01*
X148126606Y-65844786D01*
X148094084Y-65845418D01*
X148022205Y-65845641D01*
X148080923Y-65895318D01*
X148139641Y-65944995D01*
X148075370Y-66030121D01*
X148042430Y-66072027D01*
X148016059Y-66102420D01*
X148001601Y-66115173D01*
X148001126Y-66115248D01*
X147990385Y-66102337D01*
X147969347Y-66066541D01*
X147940182Y-66012268D01*
X147905066Y-65943923D01*
X147866170Y-65865915D01*
X147825669Y-65782649D01*
X147785735Y-65698531D01*
X147748542Y-65617970D01*
X147716262Y-65545371D01*
X147694073Y-65492625D01*
X147663913Y-65411328D01*
X147842170Y-65411328D01*
X147892992Y-65454791D01*
X147924596Y-65488062D01*
X147936816Y-65522437D01*
X147930942Y-65566809D01*
X147915686Y-65611359D01*
X147911073Y-65627893D01*
X147917578Y-65631128D01*
X147939376Y-65619656D01*
X147980638Y-65592067D01*
X147988103Y-65586909D01*
X148014478Y-65570308D01*
X148034517Y-65567604D01*
X148059969Y-65579959D01*
X148084769Y-65596473D01*
X148118795Y-65618425D01*
X148140481Y-65630206D01*
X148144008Y-65630873D01*
X148142632Y-65615712D01*
X148135087Y-65581562D01*
X148130494Y-65563700D01*
X148121324Y-65523512D01*
X148124340Y-65498160D01*
X148143743Y-65474636D01*
X148165369Y-65455670D01*
X148217244Y-65411328D01*
X148148381Y-65410719D01*
X148105684Y-65408750D01*
X148082454Y-65399034D01*
X148068155Y-65374367D01*
X148059713Y-65350097D01*
X148045330Y-65313124D01*
X148032887Y-65291996D01*
X148029707Y-65290085D01*
X148019189Y-65302912D01*
X148004977Y-65335095D01*
X147999701Y-65350097D01*
X147985742Y-65386864D01*
X147969021Y-65404462D01*
X147939003Y-65410094D01*
X147911032Y-65410719D01*
X147842170Y-65411328D01*
X147663913Y-65411328D01*
X147574382Y-65169995D01*
X147556110Y-65110050D01*
X147744651Y-65110050D01*
X148040444Y-65110050D01*
X148336237Y-65110050D01*
X148408016Y-65039350D01*
X148479795Y-64968650D01*
X148479795Y-64966491D01*
X148479795Y-64826525D01*
X148478926Y-64757376D01*
X148475509Y-64711209D01*
X148468331Y-64681029D01*
X148456179Y-64659840D01*
X148449557Y-64652212D01*
X148434682Y-64636378D01*
X148554810Y-64636378D01*
X148554810Y-64966491D01*
X148625510Y-65038271D01*
X148696210Y-65110050D01*
X148913802Y-65110050D01*
X149131393Y-65110050D01*
X149203172Y-65039350D01*
X149274952Y-64968650D01*
X149274952Y-64645994D01*
X149274952Y-64323338D01*
X149196699Y-64244101D01*
X149118446Y-64164864D01*
X149334964Y-64164864D01*
X149334964Y-64277386D01*
X149335530Y-64334692D01*
X149338499Y-64368292D01*
X149345775Y-64384485D01*
X149359262Y-64389566D01*
X149368992Y-64389908D01*
X149381996Y-64392278D01*
X149394117Y-64401942D01*
X149407137Y-64422733D01*
X149422842Y-64458483D01*
X149443016Y-64513026D01*
X149469441Y-64590193D01*
X149487716Y-64644958D01*
X149519205Y-64741735D01*
X149540790Y-64813016D01*
X149553115Y-64861395D01*
X149556826Y-64889466D01*
X149552570Y-64899822D01*
X149551207Y-64900009D01*
X149539509Y-64907395D01*
X149532835Y-64932894D01*
X149530173Y-64981513D01*
X149530002Y-65005029D01*
X149530002Y-65110050D01*
X149785052Y-65110050D01*
X150040102Y-65110050D01*
X150040102Y-65005029D01*
X150038611Y-64947093D01*
X150033463Y-64914037D01*
X150023646Y-64900854D01*
X150018898Y-64900009D01*
X150013438Y-64892222D01*
X150015844Y-64867131D01*
X150026761Y-64822144D01*
X150046835Y-64754665D01*
X150076711Y-64662102D01*
X150082389Y-64644958D01*
X150112738Y-64554081D01*
X150135673Y-64487831D01*
X150153118Y-64442321D01*
X150166997Y-64413662D01*
X150179234Y-64397967D01*
X150191755Y-64391348D01*
X150206482Y-64389916D01*
X150208614Y-64389908D01*
X150250144Y-64389908D01*
X150250144Y-64277386D01*
X150250144Y-64164864D01*
X150295153Y-64164864D01*
X150295153Y-64277386D01*
X150296332Y-64336738D01*
X150300592Y-64371578D01*
X150309018Y-64387330D01*
X150317657Y-64389908D01*
X150325996Y-64393790D01*
X150332036Y-64408063D01*
X150336124Y-64436672D01*
X150338609Y-64483559D01*
X150339839Y-64552668D01*
X150340162Y-64644958D01*
X150339819Y-64739465D01*
X150338560Y-64807915D01*
X150336035Y-64854251D01*
X150331898Y-64882416D01*
X150325800Y-64896353D01*
X150317657Y-64900009D01*
X150305430Y-64906185D01*
X150298432Y-64928392D01*
X150295481Y-64972150D01*
X150295153Y-65005029D01*
X150295153Y-65110050D01*
X150640221Y-65110050D01*
X150985289Y-65110050D01*
X150985289Y-64982525D01*
X150985289Y-64855000D01*
X150872766Y-64855000D01*
X150813414Y-64856179D01*
X150778575Y-64860439D01*
X150762822Y-64868865D01*
X150760244Y-64877504D01*
X150752214Y-64891656D01*
X150724410Y-64898568D01*
X150685229Y-64900009D01*
X150610215Y-64900009D01*
X150610215Y-64824994D01*
X150612913Y-64782202D01*
X150619813Y-64755041D01*
X150625218Y-64749979D01*
X150638528Y-64762131D01*
X150640221Y-64772483D01*
X150646115Y-64784354D01*
X150667415Y-64791322D01*
X150709548Y-64794472D01*
X150752743Y-64794988D01*
X150865265Y-64794988D01*
X150865265Y-64644958D01*
X150865265Y-64494929D01*
X150752743Y-64494929D01*
X150693390Y-64496108D01*
X150658551Y-64500368D01*
X150642799Y-64508794D01*
X150640221Y-64517433D01*
X150632119Y-64537399D01*
X150625218Y-64539938D01*
X150616659Y-64526444D01*
X150611227Y-64491944D01*
X150610215Y-64464923D01*
X150610215Y-64389908D01*
X150685229Y-64389908D01*
X150728021Y-64392607D01*
X150755182Y-64399507D01*
X150760244Y-64404911D01*
X150774206Y-64412471D01*
X150812001Y-64417740D01*
X150867490Y-64419900D01*
X150872766Y-64419914D01*
X150985289Y-64419914D01*
X150985289Y-64292389D01*
X150985289Y-64164864D01*
X151060303Y-64164864D01*
X151060303Y-64277386D01*
X151061482Y-64336738D01*
X151065742Y-64371578D01*
X151074169Y-64387330D01*
X151082808Y-64389908D01*
X151091147Y-64393790D01*
X151097186Y-64408063D01*
X151101275Y-64436672D01*
X151103760Y-64483559D01*
X151104990Y-64552668D01*
X151105312Y-64644958D01*
X151104970Y-64739465D01*
X151103710Y-64807915D01*
X151101186Y-64854251D01*
X151097049Y-64882416D01*
X151090951Y-64896353D01*
X151082808Y-64900009D01*
X151070581Y-64906185D01*
X151063583Y-64928392D01*
X151060631Y-64972150D01*
X151060303Y-65005029D01*
X151060303Y-65110050D01*
X151247840Y-65110050D01*
X151435377Y-65110050D01*
X151435377Y-65005029D01*
X151434568Y-64949838D01*
X151430917Y-64918219D01*
X151422592Y-64903758D01*
X151407760Y-64900038D01*
X151405371Y-64900009D01*
X151388098Y-64896463D01*
X151379061Y-64881103D01*
X151375709Y-64846846D01*
X151375365Y-64816670D01*
X151375365Y-64733332D01*
X151446629Y-64737905D01*
X151517893Y-64742478D01*
X151522106Y-64926264D01*
X151526318Y-65110050D01*
X151690889Y-65110050D01*
X151855460Y-65110050D01*
X151855460Y-65005029D01*
X151854650Y-64949838D01*
X151851000Y-64918219D01*
X151842675Y-64903758D01*
X151827842Y-64900038D01*
X151825454Y-64900009D01*
X151809848Y-64897244D01*
X151800825Y-64884721D01*
X151796620Y-64856102D01*
X151795467Y-64805043D01*
X151795448Y-64792204D01*
X151793743Y-64730774D01*
X151787404Y-64690732D01*
X151774599Y-64663588D01*
X151765209Y-64652212D01*
X151734971Y-64620024D01*
X151765209Y-64592659D01*
X151780762Y-64574018D01*
X151789963Y-64547899D01*
X151794346Y-64506772D01*
X151795448Y-64444316D01*
X151795448Y-64323338D01*
X151717195Y-64244101D01*
X151638942Y-64164864D01*
X151349623Y-64164864D01*
X151060303Y-64164864D01*
X150985289Y-64164864D01*
X150640221Y-64164864D01*
X150295153Y-64164864D01*
X150250144Y-64164864D01*
X150054194Y-64164864D01*
X149858244Y-64164864D01*
X149860962Y-64311143D01*
X149860942Y-64388710D01*
X149856440Y-64448012D01*
X149845844Y-64500652D01*
X149827543Y-64558232D01*
X149826041Y-64562442D01*
X149805344Y-64614603D01*
X149789420Y-64643299D01*
X149779765Y-64645885D01*
X149779337Y-64644958D01*
X149755454Y-64581437D01*
X149734610Y-64518343D01*
X149718556Y-64462019D01*
X149709041Y-64418813D01*
X149707817Y-64395069D01*
X149709694Y-64392523D01*
X149717275Y-64375980D01*
X149722706Y-64336808D01*
X149725018Y-64282361D01*
X149725040Y-64276136D01*
X149725040Y-64164864D01*
X149530002Y-64164864D01*
X149334964Y-64164864D01*
X149118446Y-64164864D01*
X148908407Y-64164864D01*
X148698369Y-64164864D01*
X148626589Y-64235564D01*
X148554810Y-64306264D01*
X148554810Y-64636378D01*
X148434682Y-64636378D01*
X148419318Y-64620024D01*
X148449557Y-64592659D01*
X148465109Y-64574018D01*
X148474310Y-64547899D01*
X148478693Y-64506772D01*
X148479795Y-64444316D01*
X148479795Y-64323338D01*
X148401542Y-64244101D01*
X148323289Y-64164864D01*
X148033970Y-64164864D01*
X147744651Y-64164864D01*
X147744651Y-64277386D01*
X147745829Y-64336738D01*
X147750090Y-64371578D01*
X147758516Y-64387330D01*
X147767155Y-64389908D01*
X147775494Y-64393790D01*
X147781534Y-64408063D01*
X147785622Y-64436672D01*
X147788107Y-64483559D01*
X147789337Y-64552668D01*
X147789659Y-64644958D01*
X147789317Y-64739465D01*
X147788058Y-64807915D01*
X147785533Y-64854251D01*
X147781396Y-64882416D01*
X147775298Y-64896353D01*
X147767155Y-64900009D01*
X147754928Y-64906185D01*
X147747930Y-64928392D01*
X147744979Y-64972150D01*
X147744651Y-65005029D01*
X147744651Y-65110050D01*
X147556110Y-65110050D01*
X147473790Y-64839975D01*
X147391471Y-64498742D01*
X147330679Y-64164864D01*
X147326601Y-64142468D01*
X147278357Y-63767329D01*
X147270791Y-63678236D01*
X147459594Y-63678236D01*
X147469992Y-63692314D01*
X147495933Y-63717082D01*
X147505980Y-63725738D01*
X147535725Y-63757727D01*
X147545721Y-63792292D01*
X147537262Y-63838428D01*
X147526553Y-63868555D01*
X147523773Y-63890519D01*
X147540211Y-63890493D01*
X147574754Y-63868557D01*
X147579618Y-63864805D01*
X147617976Y-63840833D01*
X147651349Y-63838806D01*
X147691010Y-63858875D01*
X147701940Y-63866441D01*
X147732616Y-63885443D01*
X147751609Y-63891954D01*
X147753176Y-63891286D01*
X147752886Y-63874299D01*
X147743983Y-63839925D01*
X147739204Y-63825620D01*
X147727269Y-63787576D01*
X147729400Y-63764689D01*
X147749599Y-63743889D01*
X147768637Y-63729511D01*
X147799978Y-63703867D01*
X147817763Y-63684681D01*
X147819252Y-63681019D01*
X147806108Y-63674285D01*
X147778690Y-63671015D01*
X148067214Y-63671015D01*
X148123549Y-63720805D01*
X148179885Y-63770594D01*
X148157972Y-63832702D01*
X148145628Y-63873845D01*
X148148006Y-63891165D01*
X148167617Y-63885913D01*
X148206975Y-63859342D01*
X148208769Y-63858021D01*
X148258635Y-63821231D01*
X148309612Y-63860113D01*
X148342143Y-63882457D01*
X148363704Y-63892691D01*
X148367275Y-63892308D01*
X148367860Y-63875053D01*
X148361179Y-63840103D01*
X148357745Y-63826892D01*
X148349423Y-63791083D01*
X148352407Y-63767165D01*
X148370979Y-63744067D01*
X148399410Y-63719187D01*
X148444520Y-63681019D01*
X148659933Y-63681019D01*
X148671270Y-63695747D01*
X148699458Y-63718832D01*
X148710744Y-63726797D01*
X148761452Y-63761322D01*
X148741365Y-63828067D01*
X148730051Y-63872306D01*
X148732348Y-63890894D01*
X148750453Y-63885928D01*
X148779854Y-63864805D01*
X148818212Y-63840833D01*
X148851585Y-63838806D01*
X148891246Y-63858875D01*
X148902177Y-63866441D01*
X148932687Y-63885597D01*
X148951293Y-63892503D01*
X148952765Y-63891934D01*
X148952669Y-63875140D01*
X148944908Y-63840766D01*
X148941229Y-63828156D01*
X148931560Y-63790352D01*
X148935522Y-63766298D01*
X148957305Y-63742548D01*
X148971722Y-63730308D01*
X149001640Y-63703120D01*
X149018519Y-63683494D01*
X149019902Y-63679926D01*
X149014118Y-63677268D01*
X149268843Y-63677268D01*
X149325387Y-63722474D01*
X149359023Y-63751458D01*
X149372674Y-63772678D01*
X149370812Y-63795754D01*
X149365949Y-63809718D01*
X149354247Y-63847569D01*
X149349967Y-63873811D01*
X149356943Y-63886444D01*
X149379580Y-63879965D01*
X149420433Y-63853474D01*
X149431917Y-63845023D01*
X149453495Y-63832873D01*
X149475012Y-63835399D01*
X149507501Y-63854427D01*
X149513580Y-63858529D01*
X149546992Y-63879053D01*
X149568657Y-63888302D01*
X149571903Y-63887917D01*
X149571532Y-63871238D01*
X149563102Y-63837203D01*
X149559385Y-63825409D01*
X149549554Y-63791257D01*
X149551355Y-63768402D01*
X149568797Y-63746174D01*
X149599147Y-63719606D01*
X149657527Y-63670213D01*
X149581136Y-63669990D01*
X149535912Y-63668825D01*
X149511165Y-63661540D01*
X149497364Y-63641932D01*
X149486328Y-63608294D01*
X149472064Y-63569560D01*
X149459237Y-63559402D01*
X149445226Y-63578118D01*
X149431232Y-63614582D01*
X149418182Y-63643869D01*
X149398511Y-63659471D01*
X149362430Y-63667436D01*
X149341910Y-63669766D01*
X149268843Y-63677268D01*
X149014118Y-63677268D01*
X149006513Y-63673773D01*
X148972770Y-63670163D01*
X148954790Y-63669766D01*
X148913451Y-63667900D01*
X148891086Y-63657113D01*
X148876682Y-63629623D01*
X148869872Y-63609755D01*
X148855484Y-63572781D01*
X148843026Y-63551653D01*
X148839840Y-63549743D01*
X148829647Y-63562664D01*
X148816348Y-63595057D01*
X148811633Y-63609755D01*
X148798693Y-63646861D01*
X148782481Y-63664283D01*
X148752485Y-63669453D01*
X148726742Y-63669766D01*
X148686705Y-63672021D01*
X148662857Y-63677719D01*
X148659933Y-63681019D01*
X148444520Y-63681019D01*
X148457291Y-63670213D01*
X148378525Y-63669990D01*
X148325027Y-63666337D01*
X148300705Y-63655763D01*
X148299083Y-63651013D01*
X148292891Y-63624883D01*
X148278905Y-63587974D01*
X148278587Y-63587250D01*
X148258767Y-63542241D01*
X148232626Y-63606004D01*
X148214841Y-63644949D01*
X148196287Y-63663666D01*
X148165731Y-63669708D01*
X148136849Y-63670391D01*
X148067214Y-63671015D01*
X147778690Y-63671015D01*
X147772401Y-63670265D01*
X147752754Y-63669766D01*
X147710893Y-63668132D01*
X147688514Y-63658273D01*
X147675105Y-63632759D01*
X147667863Y-63609755D01*
X147654542Y-63572661D01*
X147642690Y-63551575D01*
X147639630Y-63549743D01*
X147629421Y-63562664D01*
X147616113Y-63595058D01*
X147611397Y-63609755D01*
X147598457Y-63646861D01*
X147582245Y-63664283D01*
X147552249Y-63669453D01*
X147526506Y-63669766D01*
X147486437Y-63671464D01*
X147462540Y-63675756D01*
X147459594Y-63678236D01*
X147270791Y-63678236D01*
X147249904Y-63432276D01*
X147244315Y-63340439D01*
X147239636Y-63248075D01*
X147237941Y-63205894D01*
X147377078Y-63205894D01*
X147427734Y-63249218D01*
X147455035Y-63274752D01*
X147468582Y-63298004D01*
X147469606Y-63327697D01*
X147459339Y-63372552D01*
X147449773Y-63405343D01*
X147446773Y-63421496D01*
X147454009Y-63424568D01*
X147475955Y-63413080D01*
X147517087Y-63385553D01*
X147523872Y-63380862D01*
X147565645Y-63351928D01*
X147618626Y-63392339D01*
X147651790Y-63415293D01*
X147674039Y-63426350D01*
X147678182Y-63426174D01*
X147677696Y-63409353D01*
X147668567Y-63375135D01*
X147663725Y-63360896D01*
X147642692Y-63302194D01*
X147697422Y-63253998D01*
X147752152Y-63205801D01*
X147682052Y-63205238D01*
X147664709Y-63204480D01*
X148017595Y-63204480D01*
X148029286Y-63225033D01*
X148060875Y-63250511D01*
X148086411Y-63271130D01*
X148098358Y-63292029D01*
X148097922Y-63321695D01*
X148086312Y-63368617D01*
X148080494Y-63388461D01*
X148079612Y-63410637D01*
X148097205Y-63409694D01*
X148133572Y-63385612D01*
X148134727Y-63384710D01*
X148171424Y-63360864D01*
X148201048Y-63358762D01*
X148235821Y-63378592D01*
X148246016Y-63386421D01*
X148279313Y-63407530D01*
X148295787Y-63404460D01*
X148296093Y-63376548D01*
X148287758Y-63344202D01*
X148277681Y-63308582D01*
X148273684Y-63288619D01*
X148273992Y-63287201D01*
X148286502Y-63277741D01*
X148314080Y-63255760D01*
X148327190Y-63245160D01*
X148355488Y-63219224D01*
X148357676Y-63212176D01*
X148624043Y-63212176D01*
X148680183Y-63249684D01*
X148710711Y-63271982D01*
X148726322Y-63292985D01*
X148728715Y-63321124D01*
X148719589Y-63364832D01*
X148710224Y-63398749D01*
X148699883Y-63435292D01*
X148743619Y-63404960D01*
X148777692Y-63381857D01*
X148802184Y-63366158D01*
X148803603Y-63365329D01*
X148824836Y-63367412D01*
X148859243Y-63383573D01*
X148874867Y-63393416D01*
X148909366Y-63414138D01*
X148926370Y-63414810D01*
X148928047Y-63392827D01*
X148916566Y-63345580D01*
X148916072Y-63343853D01*
X148909773Y-63312679D01*
X148916348Y-63289860D01*
X148940525Y-63264721D01*
X148957330Y-63250687D01*
X149012253Y-63205801D01*
X149267450Y-63205801D01*
X149322060Y-63253998D01*
X149354354Y-63284099D01*
X149367622Y-63305686D01*
X149365665Y-63329721D01*
X149356958Y-63354704D01*
X149340149Y-63403349D01*
X149337865Y-63426439D01*
X149352449Y-63425840D01*
X149386243Y-63403420D01*
X149402618Y-63391087D01*
X149453268Y-63352454D01*
X149509536Y-63390689D01*
X149543807Y-63412701D01*
X149565870Y-63424463D01*
X149569641Y-63425087D01*
X149568630Y-63409659D01*
X149561602Y-63375223D01*
X149557179Y-63357035D01*
X149548443Y-63316115D01*
X149552008Y-63290396D01*
X149572176Y-63266456D01*
X149591702Y-63249357D01*
X149642524Y-63205894D01*
X149573210Y-63205285D01*
X149530745Y-63203592D01*
X149507921Y-63194285D01*
X149494591Y-63169556D01*
X149485069Y-63137434D01*
X149472051Y-63099303D01*
X149460198Y-63078234D01*
X149455763Y-63076670D01*
X149444955Y-63093783D01*
X149430433Y-63128909D01*
X149425230Y-63143911D01*
X149411162Y-63181125D01*
X149394492Y-63198934D01*
X149364663Y-63204620D01*
X149336313Y-63205238D01*
X149267450Y-63205801D01*
X149012253Y-63205801D01*
X149012400Y-63205681D01*
X148943913Y-63205178D01*
X148903128Y-63203463D01*
X148879090Y-63194323D01*
X148861998Y-63170612D01*
X148845507Y-63133411D01*
X148815589Y-63062147D01*
X148792807Y-63129660D01*
X148777432Y-63170283D01*
X148760274Y-63191214D01*
X148730956Y-63200582D01*
X148697035Y-63204675D01*
X148624043Y-63212176D01*
X148357676Y-63212176D01*
X148360536Y-63202962D01*
X148340154Y-63193268D01*
X148292158Y-63187032D01*
X148286000Y-63186499D01*
X148247844Y-63178089D01*
X148226728Y-63155003D01*
X148218487Y-63134488D01*
X148201607Y-63092198D01*
X148188026Y-63079026D01*
X148175126Y-63094673D01*
X148163398Y-63128199D01*
X148150034Y-63166579D01*
X148133512Y-63184339D01*
X148103049Y-63189413D01*
X148079842Y-63189672D01*
X148034306Y-63193147D01*
X148017595Y-63204480D01*
X147664709Y-63204480D01*
X147638877Y-63203351D01*
X147615508Y-63194214D01*
X147601752Y-63171251D01*
X147593972Y-63148414D01*
X147576634Y-63101035D01*
X147562758Y-63082651D01*
X147550083Y-63092799D01*
X147536350Y-63131019D01*
X147534839Y-63136341D01*
X147515707Y-63204675D01*
X147446392Y-63205285D01*
X147377078Y-63205894D01*
X147237941Y-63205894D01*
X147236276Y-63164441D01*
X147234642Y-63098798D01*
X147234550Y-63084513D01*
X147234550Y-62966738D01*
X147516768Y-62755592D01*
X147767155Y-62755592D01*
X147822485Y-62800807D01*
X147877816Y-62846021D01*
X147857710Y-62912826D01*
X147847519Y-62952009D01*
X147844353Y-62976044D01*
X147845973Y-62979631D01*
X147861989Y-62971333D01*
X147892259Y-62950497D01*
X147905624Y-62940515D01*
X147956907Y-62901399D01*
X148011256Y-62940069D01*
X148045182Y-62962033D01*
X148067773Y-62972616D01*
X148071895Y-62972449D01*
X148071730Y-62955566D01*
X148062984Y-62922661D01*
X148061447Y-62918146D01*
X148048138Y-62873145D01*
X148050378Y-62844227D01*
X148071932Y-62819876D01*
X148100213Y-62799595D01*
X148155512Y-62762088D01*
X148086099Y-62755033D01*
X148487297Y-62755033D01*
X148544626Y-62803569D01*
X148578319Y-62834134D01*
X148592403Y-62856067D01*
X148591188Y-62878854D01*
X148585885Y-62894340D01*
X148570566Y-62942437D01*
X148571209Y-62966047D01*
X148588349Y-62966424D01*
X148611071Y-62953106D01*
X148644437Y-62930558D01*
X148668096Y-62915518D01*
X148668577Y-62915241D01*
X148689666Y-62917425D01*
X148724273Y-62933669D01*
X148741965Y-62944771D01*
X148799106Y-62983600D01*
X148788768Y-62940357D01*
X148778586Y-62899773D01*
X148770996Y-62872013D01*
X148778004Y-62844266D01*
X148811599Y-62808842D01*
X148816949Y-62804500D01*
X148870337Y-62762088D01*
X148809435Y-62755592D01*
X149222442Y-62755592D01*
X149277167Y-62800321D01*
X149331893Y-62845051D01*
X149311641Y-62912341D01*
X149301277Y-62951698D01*
X149297748Y-62975928D01*
X149299175Y-62979631D01*
X149314794Y-62971342D01*
X149344883Y-62950493D01*
X149358887Y-62940024D01*
X149410813Y-62900418D01*
X149465852Y-62939578D01*
X149499857Y-62961863D01*
X149522354Y-62973038D01*
X149526487Y-62973144D01*
X149526012Y-62956747D01*
X149518210Y-62922114D01*
X149513497Y-62905519D01*
X149503174Y-62865298D01*
X149504551Y-62842474D01*
X149518955Y-62826288D01*
X149523709Y-62822761D01*
X149570491Y-62788710D01*
X149593742Y-62768658D01*
X149594000Y-62762088D01*
X149929381Y-62762088D01*
X149985481Y-62799595D01*
X150016044Y-62821956D01*
X150031629Y-62843035D01*
X150033953Y-62871294D01*
X150024729Y-62915194D01*
X150015596Y-62948220D01*
X150011290Y-62969048D01*
X150016969Y-62975161D01*
X150036886Y-62965465D01*
X150075294Y-62938861D01*
X150088169Y-62929524D01*
X150128734Y-62899997D01*
X150180937Y-62939814D01*
X150214349Y-62964063D01*
X150236927Y-62978172D01*
X150240924Y-62979631D01*
X150241626Y-62966834D01*
X150234639Y-62934305D01*
X150228457Y-62912341D01*
X150208206Y-62845051D01*
X150262932Y-62800321D01*
X150317657Y-62755592D01*
X150247557Y-62755089D01*
X150204385Y-62753243D01*
X150181020Y-62744135D01*
X150167269Y-62721198D01*
X150159477Y-62698325D01*
X150142134Y-62650935D01*
X150128257Y-62632514D01*
X150115605Y-62642577D01*
X150101934Y-62680637D01*
X150100547Y-62685529D01*
X150081617Y-62753139D01*
X150005499Y-62757613D01*
X149929381Y-62762088D01*
X149594000Y-62762088D01*
X149594127Y-62758858D01*
X149572308Y-62755560D01*
X149535703Y-62755063D01*
X149458887Y-62754586D01*
X149439754Y-62686252D01*
X149425793Y-62645264D01*
X149413114Y-62632301D01*
X149399459Y-62647825D01*
X149382566Y-62692298D01*
X149380621Y-62698325D01*
X149367756Y-62732592D01*
X149351333Y-62749127D01*
X149321161Y-62754496D01*
X149292542Y-62755089D01*
X149222442Y-62755592D01*
X148809435Y-62755592D01*
X148800004Y-62754586D01*
X148756742Y-62748240D01*
X148732641Y-62735524D01*
X148717121Y-62707888D01*
X148707189Y-62679571D01*
X148684706Y-62612058D01*
X148655392Y-62683322D01*
X148636874Y-62725157D01*
X148619652Y-62746266D01*
X148593880Y-62753780D01*
X148556688Y-62754809D01*
X148487297Y-62755033D01*
X148086099Y-62755033D01*
X148081701Y-62754586D01*
X148036983Y-62748453D01*
X148011690Y-62736578D01*
X147995316Y-62711089D01*
X147983580Y-62681050D01*
X147968145Y-62643049D01*
X147956448Y-62630438D01*
X147944817Y-62644310D01*
X147929579Y-62685756D01*
X147925493Y-62698325D01*
X147912523Y-62732595D01*
X147896030Y-62749130D01*
X147865801Y-62754498D01*
X147837256Y-62755089D01*
X147767155Y-62755592D01*
X147516768Y-62755592D01*
X147840507Y-62513382D01*
X147960054Y-62424041D01*
X148039896Y-62364509D01*
G37*
D17*
%TO.C,U4*%
X172790000Y-98700000D02*
X172790000Y-92690000D01*
X179610000Y-96450000D02*
X179610000Y-92690000D01*
X172790000Y-92690000D02*
X174050000Y-92690000D01*
X179610000Y-92690000D02*
X178350000Y-92690000D01*
D16*
%TO.C,J4*%
X142790000Y-70130000D02*
X142790000Y-72670000D01*
X142790000Y-70130000D02*
X150410000Y-70130000D01*
X145330000Y-70130000D02*
X145330000Y-72670000D01*
X150410000Y-70130000D02*
X150410000Y-72670000D01*
X150410000Y-72670000D02*
X142790000Y-72670000D01*
D14*
%TO.C,C10*%
X185086000Y-90614000D02*
X180514000Y-90614000D01*
X182673000Y-90868000D02*
X182927000Y-90868000D01*
X183435000Y-90995000D02*
X182165000Y-90995000D01*
X181911000Y-91122000D02*
X183689000Y-91122000D01*
X181657000Y-91249000D02*
X183943000Y-91249000D01*
X184070000Y-91376000D02*
X181530000Y-91376000D01*
X181403000Y-91503000D02*
X184197000Y-91503000D01*
X184324000Y-91630000D02*
X181276000Y-91630000D01*
X184451000Y-91757000D02*
X181149000Y-91757000D01*
X183181000Y-94170000D02*
X182419000Y-94170000D01*
X185086000Y-94424000D02*
X185086000Y-90614000D01*
X185086000Y-94424000D02*
X184324000Y-95186000D01*
X180514000Y-94424000D02*
X180514000Y-90614000D01*
X180514000Y-94424000D02*
X181276000Y-95186000D01*
X182800000Y-94551000D02*
X182800000Y-93789000D01*
X184324000Y-95186000D02*
X181276000Y-95186000D01*
X184832000Y-92900000D02*
G75*
G03*
X184832000Y-92900000I-2032000J0D01*
G01*
D16*
%TO.C,J2*%
X142790000Y-82930000D02*
X142790000Y-85470000D01*
X142790000Y-82930000D02*
X150410000Y-82930000D01*
X145330000Y-82930000D02*
X145330000Y-85470000D01*
X150410000Y-82930000D02*
X150410000Y-85470000D01*
X150410000Y-85470000D02*
X142790000Y-85470000D01*
D10*
%TO.C,C2*%
X160000000Y-93500000D02*
X158000000Y-93500000D01*
X158000000Y-93500000D02*
X158000000Y-94500000D01*
X160000000Y-94500000D02*
X160000000Y-93500000D01*
D14*
X160000000Y-96500000D02*
X160000000Y-97500000D01*
X160000000Y-97500000D02*
X158000000Y-97500000D01*
X158000000Y-97500000D02*
X158000000Y-96500000D01*
%TO.C,C9*%
X171886000Y-91014000D02*
X167314000Y-91014000D01*
X169473000Y-91268000D02*
X169727000Y-91268000D01*
X170235000Y-91395000D02*
X168965000Y-91395000D01*
X168711000Y-91522000D02*
X170489000Y-91522000D01*
X168457000Y-91649000D02*
X170743000Y-91649000D01*
X170870000Y-91776000D02*
X168330000Y-91776000D01*
X168203000Y-91903000D02*
X170997000Y-91903000D01*
X171124000Y-92030000D02*
X168076000Y-92030000D01*
X171251000Y-92157000D02*
X167949000Y-92157000D01*
X169981000Y-94570000D02*
X169219000Y-94570000D01*
X171886000Y-94824000D02*
X171886000Y-91014000D01*
X171886000Y-94824000D02*
X171124000Y-95586000D01*
X167314000Y-94824000D02*
X167314000Y-91014000D01*
X167314000Y-94824000D02*
X168076000Y-95586000D01*
X169600000Y-94951000D02*
X169600000Y-94189000D01*
X171124000Y-95586000D02*
X168076000Y-95586000D01*
X171632000Y-93300000D02*
G75*
G03*
X171632000Y-93300000I-2032000J0D01*
G01*
D16*
%TO.C,J3*%
X142790000Y-79730000D02*
X142790000Y-82270000D01*
X142790000Y-79730000D02*
X150410000Y-79730000D01*
X145330000Y-79730000D02*
X145330000Y-82270000D01*
X150410000Y-79730000D02*
X150410000Y-82270000D01*
X150410000Y-82270000D02*
X142790000Y-82270000D01*
D10*
%TO.C,U3*%
X165510000Y-95640000D02*
X165510000Y-91640000D01*
X165510000Y-91640000D02*
X160510000Y-91640000D01*
X160510000Y-95640000D02*
X165510000Y-95640000D01*
X160510000Y-95640000D02*
X160510000Y-91740000D01*
X166410000Y-91640000D02*
G75*
G03*
X166410000Y-91640000I-200000J0D01*
G01*
D13*
%TO.C,P3*%
X183790000Y-97190000D02*
X189790000Y-97190000D01*
X186790000Y-94190000D02*
X186790000Y-100190000D01*
X189790000Y-97190000D02*
G75*
G03*
X189790000Y-97190000I-3000000J0D01*
G01*
D16*
%TO.C,C3*%
X151400000Y-89400000D02*
X154800000Y-89400000D01*
X151800000Y-89200000D02*
X154400000Y-89200000D01*
X152300000Y-89000000D02*
X153900000Y-89000000D01*
D12*
X154100000Y-90500000D02*
X155100000Y-90500000D01*
D16*
X155900000Y-91600000D02*
G75*
G03*
X155900000Y-91600000I-2800000J0D01*
G01*
%TO.C,J10*%
X179150000Y-78730000D02*
X189310000Y-78730000D01*
X179150000Y-81270000D02*
X179150000Y-78730000D01*
X181690000Y-78730000D02*
X181690000Y-81270000D01*
X189310000Y-78730000D02*
X189310000Y-81270000D01*
X189310000Y-81270000D02*
X179150000Y-81270000D01*
D18*
%TO.C,R3*%
X156124000Y-66825500D02*
X155108000Y-66825500D01*
X156124000Y-65174500D02*
X156124000Y-66825500D01*
X155108000Y-65174500D02*
X156124000Y-65174500D01*
X154092000Y-66825500D02*
X153012500Y-66825500D01*
X153012500Y-66825500D02*
X153012500Y-65174500D01*
X153012500Y-65174500D02*
X154092000Y-65174500D01*
D16*
%TO.C,J7*%
X189385000Y-63770000D02*
X189385000Y-61230000D01*
X189385000Y-63770000D02*
X181765000Y-63770000D01*
X186845000Y-63770000D02*
X186845000Y-61230000D01*
X181765000Y-63770000D02*
X181765000Y-61230000D01*
X181765000Y-61230000D02*
X189385000Y-61230000D01*
D10*
%TO.C,C7*%
X161100000Y-86652500D02*
X163100000Y-86652500D01*
X163100000Y-86652500D02*
X163100000Y-85652500D01*
X161100000Y-85652500D02*
X161100000Y-86652500D01*
D14*
X161100000Y-83652500D02*
X161100000Y-82652500D01*
X161100000Y-82652500D02*
X163100000Y-82652500D01*
X163100000Y-82652500D02*
X163100000Y-83652500D01*
D16*
%TO.C,J14*%
X179120000Y-84130000D02*
X189280000Y-84130000D01*
X179120000Y-86670000D02*
X179120000Y-84130000D01*
X181660000Y-84130000D02*
X181660000Y-86670000D01*
X189280000Y-84130000D02*
X189280000Y-86670000D01*
X189280000Y-86670000D02*
X179120000Y-86670000D01*
%TO.C,J6*%
X189310000Y-70270000D02*
X189310000Y-67730000D01*
X189310000Y-70270000D02*
X181690000Y-70270000D01*
X186770000Y-70270000D02*
X186770000Y-67730000D01*
X181690000Y-70270000D02*
X181690000Y-67730000D01*
X181690000Y-67730000D02*
X189310000Y-67730000D01*
D18*
%TO.C,R4*%
X172524000Y-84425500D02*
X171508000Y-84425500D01*
X172524000Y-82774500D02*
X172524000Y-84425500D01*
X171508000Y-82774500D02*
X172524000Y-82774500D01*
X170492000Y-84425500D02*
X169412500Y-84425500D01*
X169412500Y-84425500D02*
X169412500Y-82774500D01*
X169412500Y-82774500D02*
X170492000Y-82774500D01*
D10*
%TO.C,U2*%
X147675000Y-95400000D02*
X147675000Y-91400000D01*
X147675000Y-91400000D02*
X142675000Y-91400000D01*
X142675000Y-95400000D02*
X147675000Y-95400000D01*
X142675000Y-95400000D02*
X142675000Y-91500000D01*
X148575000Y-91400000D02*
G75*
G03*
X148575000Y-91400000I-200000J0D01*
G01*
D16*
%TO.C,J5*%
X189310000Y-67020000D02*
X189310000Y-64480000D01*
X189310000Y-67020000D02*
X181690000Y-67020000D01*
X186770000Y-67020000D02*
X186770000Y-64480000D01*
X181690000Y-67020000D02*
X181690000Y-64480000D01*
X181690000Y-64480000D02*
X189310000Y-64480000D01*
D15*
%TO.C,J12*%
X179813500Y-101865000D02*
X179813500Y-109802500D01*
X179830000Y-103910000D02*
X189830000Y-103910000D01*
X179830000Y-108810000D02*
X189830000Y-108810000D01*
X179846500Y-109802500D02*
X189846500Y-109802500D01*
X184830000Y-108850000D02*
X184830000Y-109794500D01*
X189846500Y-101865000D02*
X179846500Y-101865000D01*
X189846500Y-109802500D02*
X189846500Y-101865000D01*
X184280000Y-106310000D02*
G75*
G03*
X184280000Y-106310000I-2000000J0D01*
G01*
X189380000Y-106310000D02*
G75*
G03*
X189380000Y-106310000I-2000000J0D01*
G01*
D13*
%TO.C,P2*%
X149850000Y-97310000D02*
X155850000Y-97310000D01*
X152850000Y-94310000D02*
X152850000Y-100310000D01*
X155850000Y-97310000D02*
G75*
G03*
X155850000Y-97310000I-3000000J0D01*
G01*
D16*
%TO.C,SW1*%
X142790000Y-73330000D02*
X142790000Y-75870000D01*
X142790000Y-73330000D02*
X150410000Y-73330000D01*
X145330000Y-73330000D02*
X145330000Y-75870000D01*
X150410000Y-73330000D02*
X150410000Y-75870000D01*
X150410000Y-75870000D02*
X142790000Y-75870000D01*
D15*
%TO.C,J11*%
X140233500Y-101805000D02*
X140233500Y-109742500D01*
X140250000Y-103850000D02*
X150250000Y-103850000D01*
X140250000Y-108750000D02*
X150250000Y-108750000D01*
X140266500Y-109742500D02*
X150266500Y-109742500D01*
X145250000Y-108790000D02*
X145250000Y-109734500D01*
X150266500Y-101805000D02*
X140266500Y-101805000D01*
X150266500Y-109742500D02*
X150266500Y-101805000D01*
X144700000Y-106250000D02*
G75*
G03*
X144700000Y-106250000I-2000000J0D01*
G01*
X149800000Y-106250000D02*
G75*
G03*
X149800000Y-106250000I-2000000J0D01*
G01*
D16*
%TO.C,J8*%
X142790000Y-76530000D02*
X142790000Y-79070000D01*
X142790000Y-76530000D02*
X150410000Y-76530000D01*
X145330000Y-76530000D02*
X145330000Y-79070000D01*
X150410000Y-76530000D02*
X150410000Y-79070000D01*
X150410000Y-79070000D02*
X142790000Y-79070000D01*
D14*
%TO.C,U1*%
X157100000Y-59810000D02*
X157100000Y-79120000D01*
X157100000Y-79120000D02*
X175100000Y-79120000D01*
X175100000Y-59810000D02*
X157100000Y-59810000D01*
X175100000Y-79120000D02*
X175100000Y-59810000D01*
D19*
X176120000Y-59785000D02*
X156090000Y-59785000D01*
X156090000Y-59785000D02*
X156090000Y-52335000D01*
X156090000Y-52335000D02*
X176120000Y-52335000D01*
X176120000Y-52335000D02*
X176120000Y-59785000D01*
D13*
%TO.C,P4*%
X140400000Y-63300000D02*
X146400000Y-63300000D01*
X143400000Y-60300000D02*
X143400000Y-66300000D01*
X146400000Y-63300000D02*
G75*
G03*
X146400000Y-63300000I-3000000J0D01*
G01*
%TO.C,BOOT1*%
X173199140Y-88249740D02*
X173199140Y-82250260D01*
X176800860Y-88249740D02*
X173199140Y-88249740D01*
X173600460Y-87850960D02*
X174298960Y-86550480D01*
X173600460Y-87850960D02*
X173600460Y-82649040D01*
X176399540Y-87850960D02*
X173600460Y-87850960D01*
X174298960Y-86550480D02*
X174298960Y-83949520D01*
X175701040Y-86550480D02*
X176399540Y-87850960D01*
X175701040Y-86550480D02*
X174298960Y-86550480D01*
X174298960Y-83949520D02*
X175701040Y-83949520D01*
X174298960Y-83949520D02*
X173600460Y-82649040D01*
X175701040Y-83949520D02*
X175701040Y-86550480D01*
X175701040Y-83949520D02*
X176399540Y-82649040D01*
X173600460Y-82649040D02*
X176399540Y-82649040D01*
X176399540Y-82649040D02*
X176399540Y-87850960D01*
X173199140Y-82250260D02*
X176800860Y-82250260D01*
X176800860Y-82250260D02*
X176800860Y-88249740D01*
%TD*%
D20*
%TO.C,J1*%
X159260000Y-103170000D03*
X159260000Y-103790000D03*
X159260000Y-104390000D03*
X159260000Y-105010000D03*
X159860000Y-103170000D03*
X159860000Y-103790000D03*
X159860000Y-104390000D03*
X159860000Y-105010000D03*
D21*
X160180000Y-105520000D03*
D20*
X160460000Y-103150000D03*
X160460000Y-103770000D03*
X160460000Y-104370000D03*
X160460000Y-104990000D03*
X161060000Y-103170000D03*
X161060000Y-103790000D03*
X161060000Y-104390000D03*
X161060000Y-105010000D03*
X164360000Y-103250000D03*
X164360000Y-103870000D03*
X164360000Y-104470000D03*
X164360000Y-105090000D03*
X164960000Y-103250000D03*
X164960000Y-103870000D03*
X164960000Y-104470000D03*
X164960000Y-105090000D03*
D22*
X165310000Y-105570000D03*
D20*
X165560000Y-103250000D03*
X165560000Y-103870000D03*
X165560000Y-104470000D03*
X165560000Y-105090000D03*
X166160000Y-103250000D03*
X166160000Y-103870000D03*
X166160000Y-104470000D03*
X166160000Y-105070000D03*
X169470000Y-103870000D03*
X169470000Y-105140000D03*
X169490000Y-103270000D03*
X169490000Y-104540000D03*
X170040000Y-103870000D03*
X170040000Y-105140000D03*
X170060000Y-103270000D03*
X170060000Y-104540000D03*
D21*
X170250000Y-105570000D03*
D20*
X170670000Y-103870000D03*
X170670000Y-105140000D03*
X170690000Y-103270000D03*
X170690000Y-104540000D03*
X171270000Y-103870000D03*
X171270000Y-105140000D03*
X171290000Y-103270000D03*
X171290000Y-104540000D03*
%TD*%
D23*
%TO.C,J9*%
X180440000Y-74500000D03*
D24*
X182980000Y-74500000D03*
X185520000Y-74500000D03*
X188060000Y-74500000D03*
%TD*%
D25*
%TO.C,J4*%
X144060000Y-71400000D03*
D26*
X146600000Y-71400000D03*
X149140000Y-71400000D03*
%TD*%
D25*
%TO.C,J2*%
X144060000Y-84200000D03*
D26*
X146600000Y-84200000D03*
X149140000Y-84200000D03*
%TD*%
D25*
%TO.C,J3*%
X144060000Y-81000000D03*
D26*
X146600000Y-81000000D03*
X149140000Y-81000000D03*
%TD*%
D27*
%TO.C,C3*%
X153100000Y-92600000D03*
D28*
X153100000Y-90600000D03*
%TD*%
D23*
%TO.C,J10*%
X180420000Y-80000000D03*
D24*
X182960000Y-80000000D03*
X185500000Y-80000000D03*
X188040000Y-80000000D03*
%TD*%
D25*
%TO.C,J7*%
X188115000Y-62500000D03*
D26*
X185575000Y-62500000D03*
X183035000Y-62500000D03*
%TD*%
D23*
%TO.C,J14*%
X180390000Y-85400000D03*
D24*
X182930000Y-85400000D03*
X185470000Y-85400000D03*
X188010000Y-85400000D03*
%TD*%
D25*
%TO.C,J6*%
X188040000Y-69000000D03*
D26*
X185500000Y-69000000D03*
X182960000Y-69000000D03*
%TD*%
D25*
%TO.C,J5*%
X188040000Y-65750000D03*
D26*
X185500000Y-65750000D03*
X182960000Y-65750000D03*
%TD*%
D20*
%TO.C,J12*%
X181430000Y-102690000D03*
X181430000Y-103310000D03*
X181430000Y-103910000D03*
X181430000Y-104530000D03*
X182030000Y-102690000D03*
X182030000Y-103310000D03*
X182030000Y-103910000D03*
X182030000Y-104530000D03*
D29*
X182290000Y-104770000D03*
D20*
X182630000Y-102670000D03*
X182630000Y-103290000D03*
X182630000Y-103890000D03*
X182630000Y-104510000D03*
X183230000Y-102690000D03*
X183230000Y-103310000D03*
X183230000Y-103910000D03*
X183230000Y-104530000D03*
X186530000Y-102690000D03*
X186530000Y-103310000D03*
X186530000Y-103910000D03*
X186530000Y-104530000D03*
X187130000Y-102690000D03*
X187130000Y-103310000D03*
X187130000Y-103910000D03*
X187130000Y-104530000D03*
X187730000Y-102690000D03*
X187730000Y-103310000D03*
X187730000Y-103910000D03*
X187730000Y-104530000D03*
X188330000Y-102690000D03*
X188330000Y-103310000D03*
X188330000Y-103910000D03*
X188330000Y-104530000D03*
%TD*%
D25*
%TO.C,SW1*%
X144060000Y-74600000D03*
D26*
X146600000Y-74600000D03*
X149140000Y-74600000D03*
%TD*%
D20*
%TO.C,J11*%
X141850000Y-102630000D03*
X141850000Y-103250000D03*
X141850000Y-103850000D03*
X141850000Y-104470000D03*
X142450000Y-102630000D03*
X142450000Y-103250000D03*
X142450000Y-103850000D03*
X142450000Y-104470000D03*
D29*
X142710000Y-104710000D03*
D20*
X143050000Y-102610000D03*
X143050000Y-103230000D03*
X143050000Y-103830000D03*
X143050000Y-104450000D03*
X143650000Y-102630000D03*
X143650000Y-103250000D03*
X143650000Y-103850000D03*
X143650000Y-104470000D03*
X146950000Y-102630000D03*
X146950000Y-103250000D03*
X146950000Y-103850000D03*
X146950000Y-104470000D03*
X147550000Y-102630000D03*
X147550000Y-103250000D03*
X147550000Y-103850000D03*
X147550000Y-104470000D03*
X148150000Y-102630000D03*
X148150000Y-103250000D03*
X148150000Y-103850000D03*
X148150000Y-104470000D03*
X148750000Y-102630000D03*
X148750000Y-103250000D03*
X148750000Y-103850000D03*
X148750000Y-104470000D03*
%TD*%
D25*
%TO.C,J8*%
X144060000Y-77800000D03*
D26*
X146600000Y-77800000D03*
X149140000Y-77800000D03*
%TD*%
M02*
