M48
; DRILL file {KiCad 7.0.1} date Wed Aug 30 00:52:40 2023
; FORMAT={-:-/ absolute / inch / decimal}
; #@! TF.CreationDate,2023-08-30T00:52:40-03:00
; #@! TF.GenerationSoftware,Kicad,Pcbnew,7.0.1
; #@! TF.FileFunction,Plated,1,2,PTH
FMAT,2
INCH
; #@! TA.AperFunction,Plated,PTH,ViaDrill
T1C0.0157
; #@! TA.AperFunction,Plated,PTH,ComponentDrill
T2C0.0394
; #@! TA.AperFunction,Plated,PTH,ComponentDrill
T3C0.1280
%
G90
G05
T1
X5.11Y-2.69
X5.28Y-2.56
X5.3681Y-2.4933
X5.68Y-2.52
X6.05Y-2.52
X6.38Y-2.52
X6.76Y-2.52
X7.11Y-2.52
X7.46Y-2.5197
T2
X5.849Y-2.8249
X5.949Y-2.8249
X6.049Y-2.8249
X6.149Y-2.8249
X6.249Y-2.8249
X6.349Y-2.8249
X6.449Y-2.8249
X6.549Y-2.8249
X6.649Y-2.8249
X6.749Y-2.8249
T3
X5.3933Y-2.7736
X7.2047Y-2.7736
T0
M30
