%TF.GenerationSoftware,KiCad,Pcbnew,7.0.1*%
%TF.CreationDate,2023-08-30T00:52:31-03:00*%
%TF.ProjectId,QRE1113_Line_Sensors_x8,51524531-3131-4335-9f4c-696e655f5365,rev?*%
%TF.SameCoordinates,Original*%
%TF.FileFunction,Legend,Bot*%
%TF.FilePolarity,Positive*%
%FSLAX46Y46*%
G04 Gerber Fmt 4.6, Leading zero omitted, Abs format (unit mm)*
G04 Created by KiCad (PCBNEW 7.0.1) date 2023-08-30 00:52:31*
%MOMM*%
%LPD*%
G01*
G04 APERTURE LIST*
%ADD10C,0.250000*%
%ADD11C,0.150000*%
%ADD12C,0.254000*%
%ADD13C,0.099060*%
%ADD14C,0.120000*%
%TA.AperFunction,Profile*%
%ADD15C,0.100000*%
%TD*%
G04 APERTURE END LIST*
D10*
%TO.C,R14*%
X149098790Y-66642619D02*
X149432123Y-66166428D01*
X149670218Y-66642619D02*
X149670218Y-65642619D01*
X149670218Y-65642619D02*
X149289266Y-65642619D01*
X149289266Y-65642619D02*
X149194028Y-65690238D01*
X149194028Y-65690238D02*
X149146409Y-65737857D01*
X149146409Y-65737857D02*
X149098790Y-65833095D01*
X149098790Y-65833095D02*
X149098790Y-65975952D01*
X149098790Y-65975952D02*
X149146409Y-66071190D01*
X149146409Y-66071190D02*
X149194028Y-66118809D01*
X149194028Y-66118809D02*
X149289266Y-66166428D01*
X149289266Y-66166428D02*
X149670218Y-66166428D01*
X148146409Y-66642619D02*
X148717837Y-66642619D01*
X148432123Y-66642619D02*
X148432123Y-65642619D01*
X148432123Y-65642619D02*
X148527361Y-65785476D01*
X148527361Y-65785476D02*
X148622599Y-65880714D01*
X148622599Y-65880714D02*
X148717837Y-65928333D01*
X147289266Y-65975952D02*
X147289266Y-66642619D01*
X147527361Y-65595000D02*
X147765456Y-66309285D01*
X147765456Y-66309285D02*
X147146409Y-66309285D01*
D11*
%TO.C,U8*%
X129161904Y-60462619D02*
X129161904Y-61272142D01*
X129161904Y-61272142D02*
X129114285Y-61367380D01*
X129114285Y-61367380D02*
X129066666Y-61415000D01*
X129066666Y-61415000D02*
X128971428Y-61462619D01*
X128971428Y-61462619D02*
X128780952Y-61462619D01*
X128780952Y-61462619D02*
X128685714Y-61415000D01*
X128685714Y-61415000D02*
X128638095Y-61367380D01*
X128638095Y-61367380D02*
X128590476Y-61272142D01*
X128590476Y-61272142D02*
X128590476Y-60462619D01*
X127971428Y-60891190D02*
X128066666Y-60843571D01*
X128066666Y-60843571D02*
X128114285Y-60795952D01*
X128114285Y-60795952D02*
X128161904Y-60700714D01*
X128161904Y-60700714D02*
X128161904Y-60653095D01*
X128161904Y-60653095D02*
X128114285Y-60557857D01*
X128114285Y-60557857D02*
X128066666Y-60510238D01*
X128066666Y-60510238D02*
X127971428Y-60462619D01*
X127971428Y-60462619D02*
X127780952Y-60462619D01*
X127780952Y-60462619D02*
X127685714Y-60510238D01*
X127685714Y-60510238D02*
X127638095Y-60557857D01*
X127638095Y-60557857D02*
X127590476Y-60653095D01*
X127590476Y-60653095D02*
X127590476Y-60700714D01*
X127590476Y-60700714D02*
X127638095Y-60795952D01*
X127638095Y-60795952D02*
X127685714Y-60843571D01*
X127685714Y-60843571D02*
X127780952Y-60891190D01*
X127780952Y-60891190D02*
X127971428Y-60891190D01*
X127971428Y-60891190D02*
X128066666Y-60938809D01*
X128066666Y-60938809D02*
X128114285Y-60986428D01*
X128114285Y-60986428D02*
X128161904Y-61081666D01*
X128161904Y-61081666D02*
X128161904Y-61272142D01*
X128161904Y-61272142D02*
X128114285Y-61367380D01*
X128114285Y-61367380D02*
X128066666Y-61415000D01*
X128066666Y-61415000D02*
X127971428Y-61462619D01*
X127971428Y-61462619D02*
X127780952Y-61462619D01*
X127780952Y-61462619D02*
X127685714Y-61415000D01*
X127685714Y-61415000D02*
X127638095Y-61367380D01*
X127638095Y-61367380D02*
X127590476Y-61272142D01*
X127590476Y-61272142D02*
X127590476Y-61081666D01*
X127590476Y-61081666D02*
X127638095Y-60986428D01*
X127638095Y-60986428D02*
X127685714Y-60938809D01*
X127685714Y-60938809D02*
X127780952Y-60891190D01*
D10*
%TO.C,R16*%
X130965656Y-66642619D02*
X131298989Y-66166428D01*
X131537084Y-66642619D02*
X131537084Y-65642619D01*
X131537084Y-65642619D02*
X131156132Y-65642619D01*
X131156132Y-65642619D02*
X131060894Y-65690238D01*
X131060894Y-65690238D02*
X131013275Y-65737857D01*
X131013275Y-65737857D02*
X130965656Y-65833095D01*
X130965656Y-65833095D02*
X130965656Y-65975952D01*
X130965656Y-65975952D02*
X131013275Y-66071190D01*
X131013275Y-66071190D02*
X131060894Y-66118809D01*
X131060894Y-66118809D02*
X131156132Y-66166428D01*
X131156132Y-66166428D02*
X131537084Y-66166428D01*
X130013275Y-66642619D02*
X130584703Y-66642619D01*
X130298989Y-66642619D02*
X130298989Y-65642619D01*
X130298989Y-65642619D02*
X130394227Y-65785476D01*
X130394227Y-65785476D02*
X130489465Y-65880714D01*
X130489465Y-65880714D02*
X130584703Y-65928333D01*
X129156132Y-65642619D02*
X129346608Y-65642619D01*
X129346608Y-65642619D02*
X129441846Y-65690238D01*
X129441846Y-65690238D02*
X129489465Y-65737857D01*
X129489465Y-65737857D02*
X129584703Y-65880714D01*
X129584703Y-65880714D02*
X129632322Y-66071190D01*
X129632322Y-66071190D02*
X129632322Y-66452142D01*
X129632322Y-66452142D02*
X129584703Y-66547380D01*
X129584703Y-66547380D02*
X129537084Y-66595000D01*
X129537084Y-66595000D02*
X129441846Y-66642619D01*
X129441846Y-66642619D02*
X129251370Y-66642619D01*
X129251370Y-66642619D02*
X129156132Y-66595000D01*
X129156132Y-66595000D02*
X129108513Y-66547380D01*
X129108513Y-66547380D02*
X129060894Y-66452142D01*
X129060894Y-66452142D02*
X129060894Y-66214047D01*
X129060894Y-66214047D02*
X129108513Y-66118809D01*
X129108513Y-66118809D02*
X129156132Y-66071190D01*
X129156132Y-66071190D02*
X129251370Y-66023571D01*
X129251370Y-66023571D02*
X129441846Y-66023571D01*
X129441846Y-66023571D02*
X129537084Y-66071190D01*
X129537084Y-66071190D02*
X129584703Y-66118809D01*
X129584703Y-66118809D02*
X129632322Y-66214047D01*
D11*
%TO.C,U1*%
X192627874Y-60462619D02*
X192627874Y-61272142D01*
X192627874Y-61272142D02*
X192580255Y-61367380D01*
X192580255Y-61367380D02*
X192532636Y-61415000D01*
X192532636Y-61415000D02*
X192437398Y-61462619D01*
X192437398Y-61462619D02*
X192246922Y-61462619D01*
X192246922Y-61462619D02*
X192151684Y-61415000D01*
X192151684Y-61415000D02*
X192104065Y-61367380D01*
X192104065Y-61367380D02*
X192056446Y-61272142D01*
X192056446Y-61272142D02*
X192056446Y-60462619D01*
X191056446Y-61462619D02*
X191627874Y-61462619D01*
X191342160Y-61462619D02*
X191342160Y-60462619D01*
X191342160Y-60462619D02*
X191437398Y-60605476D01*
X191437398Y-60605476D02*
X191532636Y-60700714D01*
X191532636Y-60700714D02*
X191627874Y-60748333D01*
D10*
%TO.C,R12*%
X127802619Y-68417142D02*
X127326428Y-68083809D01*
X127802619Y-67845714D02*
X126802619Y-67845714D01*
X126802619Y-67845714D02*
X126802619Y-68226666D01*
X126802619Y-68226666D02*
X126850238Y-68321904D01*
X126850238Y-68321904D02*
X126897857Y-68369523D01*
X126897857Y-68369523D02*
X126993095Y-68417142D01*
X126993095Y-68417142D02*
X127135952Y-68417142D01*
X127135952Y-68417142D02*
X127231190Y-68369523D01*
X127231190Y-68369523D02*
X127278809Y-68321904D01*
X127278809Y-68321904D02*
X127326428Y-68226666D01*
X127326428Y-68226666D02*
X127326428Y-67845714D01*
X127802619Y-69369523D02*
X127802619Y-68798095D01*
X127802619Y-69083809D02*
X126802619Y-69083809D01*
X126802619Y-69083809D02*
X126945476Y-68988571D01*
X126945476Y-68988571D02*
X127040714Y-68893333D01*
X127040714Y-68893333D02*
X127088333Y-68798095D01*
X126897857Y-69750476D02*
X126850238Y-69798095D01*
X126850238Y-69798095D02*
X126802619Y-69893333D01*
X126802619Y-69893333D02*
X126802619Y-70131428D01*
X126802619Y-70131428D02*
X126850238Y-70226666D01*
X126850238Y-70226666D02*
X126897857Y-70274285D01*
X126897857Y-70274285D02*
X126993095Y-70321904D01*
X126993095Y-70321904D02*
X127088333Y-70321904D01*
X127088333Y-70321904D02*
X127231190Y-70274285D01*
X127231190Y-70274285D02*
X127802619Y-69702857D01*
X127802619Y-69702857D02*
X127802619Y-70321904D01*
D11*
%TO.C,U6*%
X147295038Y-60462619D02*
X147295038Y-61272142D01*
X147295038Y-61272142D02*
X147247419Y-61367380D01*
X147247419Y-61367380D02*
X147199800Y-61415000D01*
X147199800Y-61415000D02*
X147104562Y-61462619D01*
X147104562Y-61462619D02*
X146914086Y-61462619D01*
X146914086Y-61462619D02*
X146818848Y-61415000D01*
X146818848Y-61415000D02*
X146771229Y-61367380D01*
X146771229Y-61367380D02*
X146723610Y-61272142D01*
X146723610Y-61272142D02*
X146723610Y-60462619D01*
X145818848Y-60462619D02*
X146009324Y-60462619D01*
X146009324Y-60462619D02*
X146104562Y-60510238D01*
X146104562Y-60510238D02*
X146152181Y-60557857D01*
X146152181Y-60557857D02*
X146247419Y-60700714D01*
X146247419Y-60700714D02*
X146295038Y-60891190D01*
X146295038Y-60891190D02*
X146295038Y-61272142D01*
X146295038Y-61272142D02*
X146247419Y-61367380D01*
X146247419Y-61367380D02*
X146199800Y-61415000D01*
X146199800Y-61415000D02*
X146104562Y-61462619D01*
X146104562Y-61462619D02*
X145914086Y-61462619D01*
X145914086Y-61462619D02*
X145818848Y-61415000D01*
X145818848Y-61415000D02*
X145771229Y-61367380D01*
X145771229Y-61367380D02*
X145723610Y-61272142D01*
X145723610Y-61272142D02*
X145723610Y-61034047D01*
X145723610Y-61034047D02*
X145771229Y-60938809D01*
X145771229Y-60938809D02*
X145818848Y-60891190D01*
X145818848Y-60891190D02*
X145914086Y-60843571D01*
X145914086Y-60843571D02*
X146104562Y-60843571D01*
X146104562Y-60843571D02*
X146199800Y-60891190D01*
X146199800Y-60891190D02*
X146247419Y-60938809D01*
X146247419Y-60938809D02*
X146295038Y-61034047D01*
D10*
%TO.C,R8*%
X167083532Y-66642619D02*
X167416865Y-66166428D01*
X167654960Y-66642619D02*
X167654960Y-65642619D01*
X167654960Y-65642619D02*
X167274008Y-65642619D01*
X167274008Y-65642619D02*
X167178770Y-65690238D01*
X167178770Y-65690238D02*
X167131151Y-65737857D01*
X167131151Y-65737857D02*
X167083532Y-65833095D01*
X167083532Y-65833095D02*
X167083532Y-65975952D01*
X167083532Y-65975952D02*
X167131151Y-66071190D01*
X167131151Y-66071190D02*
X167178770Y-66118809D01*
X167178770Y-66118809D02*
X167274008Y-66166428D01*
X167274008Y-66166428D02*
X167654960Y-66166428D01*
X166512103Y-66071190D02*
X166607341Y-66023571D01*
X166607341Y-66023571D02*
X166654960Y-65975952D01*
X166654960Y-65975952D02*
X166702579Y-65880714D01*
X166702579Y-65880714D02*
X166702579Y-65833095D01*
X166702579Y-65833095D02*
X166654960Y-65737857D01*
X166654960Y-65737857D02*
X166607341Y-65690238D01*
X166607341Y-65690238D02*
X166512103Y-65642619D01*
X166512103Y-65642619D02*
X166321627Y-65642619D01*
X166321627Y-65642619D02*
X166226389Y-65690238D01*
X166226389Y-65690238D02*
X166178770Y-65737857D01*
X166178770Y-65737857D02*
X166131151Y-65833095D01*
X166131151Y-65833095D02*
X166131151Y-65880714D01*
X166131151Y-65880714D02*
X166178770Y-65975952D01*
X166178770Y-65975952D02*
X166226389Y-66023571D01*
X166226389Y-66023571D02*
X166321627Y-66071190D01*
X166321627Y-66071190D02*
X166512103Y-66071190D01*
X166512103Y-66071190D02*
X166607341Y-66118809D01*
X166607341Y-66118809D02*
X166654960Y-66166428D01*
X166654960Y-66166428D02*
X166702579Y-66261666D01*
X166702579Y-66261666D02*
X166702579Y-66452142D01*
X166702579Y-66452142D02*
X166654960Y-66547380D01*
X166654960Y-66547380D02*
X166607341Y-66595000D01*
X166607341Y-66595000D02*
X166512103Y-66642619D01*
X166512103Y-66642619D02*
X166321627Y-66642619D01*
X166321627Y-66642619D02*
X166226389Y-66595000D01*
X166226389Y-66595000D02*
X166178770Y-66547380D01*
X166178770Y-66547380D02*
X166131151Y-66452142D01*
X166131151Y-66452142D02*
X166131151Y-66261666D01*
X166131151Y-66261666D02*
X166178770Y-66166428D01*
X166178770Y-66166428D02*
X166226389Y-66118809D01*
X166226389Y-66118809D02*
X166321627Y-66071190D01*
%TO.C,R2*%
X179362619Y-63833333D02*
X178886428Y-63500000D01*
X179362619Y-63261905D02*
X178362619Y-63261905D01*
X178362619Y-63261905D02*
X178362619Y-63642857D01*
X178362619Y-63642857D02*
X178410238Y-63738095D01*
X178410238Y-63738095D02*
X178457857Y-63785714D01*
X178457857Y-63785714D02*
X178553095Y-63833333D01*
X178553095Y-63833333D02*
X178695952Y-63833333D01*
X178695952Y-63833333D02*
X178791190Y-63785714D01*
X178791190Y-63785714D02*
X178838809Y-63738095D01*
X178838809Y-63738095D02*
X178886428Y-63642857D01*
X178886428Y-63642857D02*
X178886428Y-63261905D01*
X178457857Y-64214286D02*
X178410238Y-64261905D01*
X178410238Y-64261905D02*
X178362619Y-64357143D01*
X178362619Y-64357143D02*
X178362619Y-64595238D01*
X178362619Y-64595238D02*
X178410238Y-64690476D01*
X178410238Y-64690476D02*
X178457857Y-64738095D01*
X178457857Y-64738095D02*
X178553095Y-64785714D01*
X178553095Y-64785714D02*
X178648333Y-64785714D01*
X178648333Y-64785714D02*
X178791190Y-64738095D01*
X178791190Y-64738095D02*
X179362619Y-64166667D01*
X179362619Y-64166667D02*
X179362619Y-64785714D01*
%TO.C,R4*%
X161292619Y-63833333D02*
X160816428Y-63500000D01*
X161292619Y-63261905D02*
X160292619Y-63261905D01*
X160292619Y-63261905D02*
X160292619Y-63642857D01*
X160292619Y-63642857D02*
X160340238Y-63738095D01*
X160340238Y-63738095D02*
X160387857Y-63785714D01*
X160387857Y-63785714D02*
X160483095Y-63833333D01*
X160483095Y-63833333D02*
X160625952Y-63833333D01*
X160625952Y-63833333D02*
X160721190Y-63785714D01*
X160721190Y-63785714D02*
X160768809Y-63738095D01*
X160768809Y-63738095D02*
X160816428Y-63642857D01*
X160816428Y-63642857D02*
X160816428Y-63261905D01*
X160625952Y-64690476D02*
X161292619Y-64690476D01*
X160245000Y-64452381D02*
X160959285Y-64214286D01*
X160959285Y-64214286D02*
X160959285Y-64833333D01*
%TO.C,R6*%
X185216666Y-66642619D02*
X185549999Y-66166428D01*
X185788094Y-66642619D02*
X185788094Y-65642619D01*
X185788094Y-65642619D02*
X185407142Y-65642619D01*
X185407142Y-65642619D02*
X185311904Y-65690238D01*
X185311904Y-65690238D02*
X185264285Y-65737857D01*
X185264285Y-65737857D02*
X185216666Y-65833095D01*
X185216666Y-65833095D02*
X185216666Y-65975952D01*
X185216666Y-65975952D02*
X185264285Y-66071190D01*
X185264285Y-66071190D02*
X185311904Y-66118809D01*
X185311904Y-66118809D02*
X185407142Y-66166428D01*
X185407142Y-66166428D02*
X185788094Y-66166428D01*
X184359523Y-65642619D02*
X184549999Y-65642619D01*
X184549999Y-65642619D02*
X184645237Y-65690238D01*
X184645237Y-65690238D02*
X184692856Y-65737857D01*
X184692856Y-65737857D02*
X184788094Y-65880714D01*
X184788094Y-65880714D02*
X184835713Y-66071190D01*
X184835713Y-66071190D02*
X184835713Y-66452142D01*
X184835713Y-66452142D02*
X184788094Y-66547380D01*
X184788094Y-66547380D02*
X184740475Y-66595000D01*
X184740475Y-66595000D02*
X184645237Y-66642619D01*
X184645237Y-66642619D02*
X184454761Y-66642619D01*
X184454761Y-66642619D02*
X184359523Y-66595000D01*
X184359523Y-66595000D02*
X184311904Y-66547380D01*
X184311904Y-66547380D02*
X184264285Y-66452142D01*
X184264285Y-66452142D02*
X184264285Y-66214047D01*
X184264285Y-66214047D02*
X184311904Y-66118809D01*
X184311904Y-66118809D02*
X184359523Y-66071190D01*
X184359523Y-66071190D02*
X184454761Y-66023571D01*
X184454761Y-66023571D02*
X184645237Y-66023571D01*
X184645237Y-66023571D02*
X184740475Y-66071190D01*
X184740475Y-66071190D02*
X184788094Y-66118809D01*
X184788094Y-66118809D02*
X184835713Y-66214047D01*
D11*
%TO.C,U4*%
X165428172Y-60462619D02*
X165428172Y-61272142D01*
X165428172Y-61272142D02*
X165380553Y-61367380D01*
X165380553Y-61367380D02*
X165332934Y-61415000D01*
X165332934Y-61415000D02*
X165237696Y-61462619D01*
X165237696Y-61462619D02*
X165047220Y-61462619D01*
X165047220Y-61462619D02*
X164951982Y-61415000D01*
X164951982Y-61415000D02*
X164904363Y-61367380D01*
X164904363Y-61367380D02*
X164856744Y-61272142D01*
X164856744Y-61272142D02*
X164856744Y-60462619D01*
X163951982Y-60795952D02*
X163951982Y-61462619D01*
X164190077Y-60415000D02*
X164428172Y-61129285D01*
X164428172Y-61129285D02*
X163809125Y-61129285D01*
%TO.C,U7*%
X138228471Y-60462619D02*
X138228471Y-61272142D01*
X138228471Y-61272142D02*
X138180852Y-61367380D01*
X138180852Y-61367380D02*
X138133233Y-61415000D01*
X138133233Y-61415000D02*
X138037995Y-61462619D01*
X138037995Y-61462619D02*
X137847519Y-61462619D01*
X137847519Y-61462619D02*
X137752281Y-61415000D01*
X137752281Y-61415000D02*
X137704662Y-61367380D01*
X137704662Y-61367380D02*
X137657043Y-61272142D01*
X137657043Y-61272142D02*
X137657043Y-60462619D01*
X137276090Y-60462619D02*
X136609424Y-60462619D01*
X136609424Y-60462619D02*
X137037995Y-61462619D01*
D10*
%TO.C,R3*%
X170292619Y-63833333D02*
X169816428Y-63500000D01*
X170292619Y-63261905D02*
X169292619Y-63261905D01*
X169292619Y-63261905D02*
X169292619Y-63642857D01*
X169292619Y-63642857D02*
X169340238Y-63738095D01*
X169340238Y-63738095D02*
X169387857Y-63785714D01*
X169387857Y-63785714D02*
X169483095Y-63833333D01*
X169483095Y-63833333D02*
X169625952Y-63833333D01*
X169625952Y-63833333D02*
X169721190Y-63785714D01*
X169721190Y-63785714D02*
X169768809Y-63738095D01*
X169768809Y-63738095D02*
X169816428Y-63642857D01*
X169816428Y-63642857D02*
X169816428Y-63261905D01*
X169292619Y-64166667D02*
X169292619Y-64785714D01*
X169292619Y-64785714D02*
X169673571Y-64452381D01*
X169673571Y-64452381D02*
X169673571Y-64595238D01*
X169673571Y-64595238D02*
X169721190Y-64690476D01*
X169721190Y-64690476D02*
X169768809Y-64738095D01*
X169768809Y-64738095D02*
X169864047Y-64785714D01*
X169864047Y-64785714D02*
X170102142Y-64785714D01*
X170102142Y-64785714D02*
X170197380Y-64738095D01*
X170197380Y-64738095D02*
X170245000Y-64690476D01*
X170245000Y-64690476D02*
X170292619Y-64595238D01*
X170292619Y-64595238D02*
X170292619Y-64309524D01*
X170292619Y-64309524D02*
X170245000Y-64214286D01*
X170245000Y-64214286D02*
X170197380Y-64166667D01*
%TO.C,R15*%
X140032223Y-66642619D02*
X140365556Y-66166428D01*
X140603651Y-66642619D02*
X140603651Y-65642619D01*
X140603651Y-65642619D02*
X140222699Y-65642619D01*
X140222699Y-65642619D02*
X140127461Y-65690238D01*
X140127461Y-65690238D02*
X140079842Y-65737857D01*
X140079842Y-65737857D02*
X140032223Y-65833095D01*
X140032223Y-65833095D02*
X140032223Y-65975952D01*
X140032223Y-65975952D02*
X140079842Y-66071190D01*
X140079842Y-66071190D02*
X140127461Y-66118809D01*
X140127461Y-66118809D02*
X140222699Y-66166428D01*
X140222699Y-66166428D02*
X140603651Y-66166428D01*
X139079842Y-66642619D02*
X139651270Y-66642619D01*
X139365556Y-66642619D02*
X139365556Y-65642619D01*
X139365556Y-65642619D02*
X139460794Y-65785476D01*
X139460794Y-65785476D02*
X139556032Y-65880714D01*
X139556032Y-65880714D02*
X139651270Y-65928333D01*
X138175080Y-65642619D02*
X138651270Y-65642619D01*
X138651270Y-65642619D02*
X138698889Y-66118809D01*
X138698889Y-66118809D02*
X138651270Y-66071190D01*
X138651270Y-66071190D02*
X138556032Y-66023571D01*
X138556032Y-66023571D02*
X138317937Y-66023571D01*
X138317937Y-66023571D02*
X138222699Y-66071190D01*
X138222699Y-66071190D02*
X138175080Y-66118809D01*
X138175080Y-66118809D02*
X138127461Y-66214047D01*
X138127461Y-66214047D02*
X138127461Y-66452142D01*
X138127461Y-66452142D02*
X138175080Y-66547380D01*
X138175080Y-66547380D02*
X138222699Y-66595000D01*
X138222699Y-66595000D02*
X138317937Y-66642619D01*
X138317937Y-66642619D02*
X138556032Y-66642619D01*
X138556032Y-66642619D02*
X138651270Y-66595000D01*
X138651270Y-66595000D02*
X138698889Y-66547380D01*
D11*
%TO.C,U3*%
X174494739Y-60462619D02*
X174494739Y-61272142D01*
X174494739Y-61272142D02*
X174447120Y-61367380D01*
X174447120Y-61367380D02*
X174399501Y-61415000D01*
X174399501Y-61415000D02*
X174304263Y-61462619D01*
X174304263Y-61462619D02*
X174113787Y-61462619D01*
X174113787Y-61462619D02*
X174018549Y-61415000D01*
X174018549Y-61415000D02*
X173970930Y-61367380D01*
X173970930Y-61367380D02*
X173923311Y-61272142D01*
X173923311Y-61272142D02*
X173923311Y-60462619D01*
X173542358Y-60462619D02*
X172923311Y-60462619D01*
X172923311Y-60462619D02*
X173256644Y-60843571D01*
X173256644Y-60843571D02*
X173113787Y-60843571D01*
X173113787Y-60843571D02*
X173018549Y-60891190D01*
X173018549Y-60891190D02*
X172970930Y-60938809D01*
X172970930Y-60938809D02*
X172923311Y-61034047D01*
X172923311Y-61034047D02*
X172923311Y-61272142D01*
X172923311Y-61272142D02*
X172970930Y-61367380D01*
X172970930Y-61367380D02*
X173018549Y-61415000D01*
X173018549Y-61415000D02*
X173113787Y-61462619D01*
X173113787Y-61462619D02*
X173399501Y-61462619D01*
X173399501Y-61462619D02*
X173494739Y-61415000D01*
X173494739Y-61415000D02*
X173542358Y-61367380D01*
D10*
%TO.C,R13*%
X158165357Y-66642619D02*
X158498690Y-66166428D01*
X158736785Y-66642619D02*
X158736785Y-65642619D01*
X158736785Y-65642619D02*
X158355833Y-65642619D01*
X158355833Y-65642619D02*
X158260595Y-65690238D01*
X158260595Y-65690238D02*
X158212976Y-65737857D01*
X158212976Y-65737857D02*
X158165357Y-65833095D01*
X158165357Y-65833095D02*
X158165357Y-65975952D01*
X158165357Y-65975952D02*
X158212976Y-66071190D01*
X158212976Y-66071190D02*
X158260595Y-66118809D01*
X158260595Y-66118809D02*
X158355833Y-66166428D01*
X158355833Y-66166428D02*
X158736785Y-66166428D01*
X157212976Y-66642619D02*
X157784404Y-66642619D01*
X157498690Y-66642619D02*
X157498690Y-65642619D01*
X157498690Y-65642619D02*
X157593928Y-65785476D01*
X157593928Y-65785476D02*
X157689166Y-65880714D01*
X157689166Y-65880714D02*
X157784404Y-65928333D01*
X156879642Y-65642619D02*
X156260595Y-65642619D01*
X156260595Y-65642619D02*
X156593928Y-66023571D01*
X156593928Y-66023571D02*
X156451071Y-66023571D01*
X156451071Y-66023571D02*
X156355833Y-66071190D01*
X156355833Y-66071190D02*
X156308214Y-66118809D01*
X156308214Y-66118809D02*
X156260595Y-66214047D01*
X156260595Y-66214047D02*
X156260595Y-66452142D01*
X156260595Y-66452142D02*
X156308214Y-66547380D01*
X156308214Y-66547380D02*
X156355833Y-66595000D01*
X156355833Y-66595000D02*
X156451071Y-66642619D01*
X156451071Y-66642619D02*
X156736785Y-66642619D01*
X156736785Y-66642619D02*
X156832023Y-66595000D01*
X156832023Y-66595000D02*
X156879642Y-66547380D01*
%TO.C,R9*%
X152152619Y-63833333D02*
X151676428Y-63500000D01*
X152152619Y-63261905D02*
X151152619Y-63261905D01*
X151152619Y-63261905D02*
X151152619Y-63642857D01*
X151152619Y-63642857D02*
X151200238Y-63738095D01*
X151200238Y-63738095D02*
X151247857Y-63785714D01*
X151247857Y-63785714D02*
X151343095Y-63833333D01*
X151343095Y-63833333D02*
X151485952Y-63833333D01*
X151485952Y-63833333D02*
X151581190Y-63785714D01*
X151581190Y-63785714D02*
X151628809Y-63738095D01*
X151628809Y-63738095D02*
X151676428Y-63642857D01*
X151676428Y-63642857D02*
X151676428Y-63261905D01*
X152152619Y-64309524D02*
X152152619Y-64500000D01*
X152152619Y-64500000D02*
X152105000Y-64595238D01*
X152105000Y-64595238D02*
X152057380Y-64642857D01*
X152057380Y-64642857D02*
X151914523Y-64738095D01*
X151914523Y-64738095D02*
X151724047Y-64785714D01*
X151724047Y-64785714D02*
X151343095Y-64785714D01*
X151343095Y-64785714D02*
X151247857Y-64738095D01*
X151247857Y-64738095D02*
X151200238Y-64690476D01*
X151200238Y-64690476D02*
X151152619Y-64595238D01*
X151152619Y-64595238D02*
X151152619Y-64404762D01*
X151152619Y-64404762D02*
X151200238Y-64309524D01*
X151200238Y-64309524D02*
X151247857Y-64261905D01*
X151247857Y-64261905D02*
X151343095Y-64214286D01*
X151343095Y-64214286D02*
X151581190Y-64214286D01*
X151581190Y-64214286D02*
X151676428Y-64261905D01*
X151676428Y-64261905D02*
X151724047Y-64309524D01*
X151724047Y-64309524D02*
X151771666Y-64404762D01*
X151771666Y-64404762D02*
X151771666Y-64595238D01*
X151771666Y-64595238D02*
X151724047Y-64690476D01*
X151724047Y-64690476D02*
X151676428Y-64738095D01*
X151676428Y-64738095D02*
X151581190Y-64785714D01*
%TO.C,R10*%
X143172619Y-64057142D02*
X142696428Y-63723809D01*
X143172619Y-63485714D02*
X142172619Y-63485714D01*
X142172619Y-63485714D02*
X142172619Y-63866666D01*
X142172619Y-63866666D02*
X142220238Y-63961904D01*
X142220238Y-63961904D02*
X142267857Y-64009523D01*
X142267857Y-64009523D02*
X142363095Y-64057142D01*
X142363095Y-64057142D02*
X142505952Y-64057142D01*
X142505952Y-64057142D02*
X142601190Y-64009523D01*
X142601190Y-64009523D02*
X142648809Y-63961904D01*
X142648809Y-63961904D02*
X142696428Y-63866666D01*
X142696428Y-63866666D02*
X142696428Y-63485714D01*
X143172619Y-65009523D02*
X143172619Y-64438095D01*
X143172619Y-64723809D02*
X142172619Y-64723809D01*
X142172619Y-64723809D02*
X142315476Y-64628571D01*
X142315476Y-64628571D02*
X142410714Y-64533333D01*
X142410714Y-64533333D02*
X142458333Y-64438095D01*
X142172619Y-65628571D02*
X142172619Y-65723809D01*
X142172619Y-65723809D02*
X142220238Y-65819047D01*
X142220238Y-65819047D02*
X142267857Y-65866666D01*
X142267857Y-65866666D02*
X142363095Y-65914285D01*
X142363095Y-65914285D02*
X142553571Y-65961904D01*
X142553571Y-65961904D02*
X142791666Y-65961904D01*
X142791666Y-65961904D02*
X142982142Y-65914285D01*
X142982142Y-65914285D02*
X143077380Y-65866666D01*
X143077380Y-65866666D02*
X143125000Y-65819047D01*
X143125000Y-65819047D02*
X143172619Y-65723809D01*
X143172619Y-65723809D02*
X143172619Y-65628571D01*
X143172619Y-65628571D02*
X143125000Y-65533333D01*
X143125000Y-65533333D02*
X143077380Y-65485714D01*
X143077380Y-65485714D02*
X142982142Y-65438095D01*
X142982142Y-65438095D02*
X142791666Y-65390476D01*
X142791666Y-65390476D02*
X142553571Y-65390476D01*
X142553571Y-65390476D02*
X142363095Y-65438095D01*
X142363095Y-65438095D02*
X142267857Y-65485714D01*
X142267857Y-65485714D02*
X142220238Y-65533333D01*
X142220238Y-65533333D02*
X142172619Y-65628571D01*
%TO.C,R1*%
X188452619Y-63833333D02*
X187976428Y-63500000D01*
X188452619Y-63261905D02*
X187452619Y-63261905D01*
X187452619Y-63261905D02*
X187452619Y-63642857D01*
X187452619Y-63642857D02*
X187500238Y-63738095D01*
X187500238Y-63738095D02*
X187547857Y-63785714D01*
X187547857Y-63785714D02*
X187643095Y-63833333D01*
X187643095Y-63833333D02*
X187785952Y-63833333D01*
X187785952Y-63833333D02*
X187881190Y-63785714D01*
X187881190Y-63785714D02*
X187928809Y-63738095D01*
X187928809Y-63738095D02*
X187976428Y-63642857D01*
X187976428Y-63642857D02*
X187976428Y-63261905D01*
X188452619Y-64785714D02*
X188452619Y-64214286D01*
X188452619Y-64500000D02*
X187452619Y-64500000D01*
X187452619Y-64500000D02*
X187595476Y-64404762D01*
X187595476Y-64404762D02*
X187690714Y-64309524D01*
X187690714Y-64309524D02*
X187738333Y-64214286D01*
%TO.C,C1*%
X127557380Y-73983333D02*
X127605000Y-73935714D01*
X127605000Y-73935714D02*
X127652619Y-73792857D01*
X127652619Y-73792857D02*
X127652619Y-73697619D01*
X127652619Y-73697619D02*
X127605000Y-73554762D01*
X127605000Y-73554762D02*
X127509761Y-73459524D01*
X127509761Y-73459524D02*
X127414523Y-73411905D01*
X127414523Y-73411905D02*
X127224047Y-73364286D01*
X127224047Y-73364286D02*
X127081190Y-73364286D01*
X127081190Y-73364286D02*
X126890714Y-73411905D01*
X126890714Y-73411905D02*
X126795476Y-73459524D01*
X126795476Y-73459524D02*
X126700238Y-73554762D01*
X126700238Y-73554762D02*
X126652619Y-73697619D01*
X126652619Y-73697619D02*
X126652619Y-73792857D01*
X126652619Y-73792857D02*
X126700238Y-73935714D01*
X126700238Y-73935714D02*
X126747857Y-73983333D01*
X127652619Y-74935714D02*
X127652619Y-74364286D01*
X127652619Y-74650000D02*
X126652619Y-74650000D01*
X126652619Y-74650000D02*
X126795476Y-74554762D01*
X126795476Y-74554762D02*
X126890714Y-74459524D01*
X126890714Y-74459524D02*
X126938333Y-74364286D01*
%TO.C,R11*%
X134082619Y-64057142D02*
X133606428Y-63723809D01*
X134082619Y-63485714D02*
X133082619Y-63485714D01*
X133082619Y-63485714D02*
X133082619Y-63866666D01*
X133082619Y-63866666D02*
X133130238Y-63961904D01*
X133130238Y-63961904D02*
X133177857Y-64009523D01*
X133177857Y-64009523D02*
X133273095Y-64057142D01*
X133273095Y-64057142D02*
X133415952Y-64057142D01*
X133415952Y-64057142D02*
X133511190Y-64009523D01*
X133511190Y-64009523D02*
X133558809Y-63961904D01*
X133558809Y-63961904D02*
X133606428Y-63866666D01*
X133606428Y-63866666D02*
X133606428Y-63485714D01*
X134082619Y-65009523D02*
X134082619Y-64438095D01*
X134082619Y-64723809D02*
X133082619Y-64723809D01*
X133082619Y-64723809D02*
X133225476Y-64628571D01*
X133225476Y-64628571D02*
X133320714Y-64533333D01*
X133320714Y-64533333D02*
X133368333Y-64438095D01*
X134082619Y-65961904D02*
X134082619Y-65390476D01*
X134082619Y-65676190D02*
X133082619Y-65676190D01*
X133082619Y-65676190D02*
X133225476Y-65580952D01*
X133225476Y-65580952D02*
X133320714Y-65485714D01*
X133320714Y-65485714D02*
X133368333Y-65390476D01*
%TO.C,R5*%
X192936666Y-66642619D02*
X193269999Y-66166428D01*
X193508094Y-66642619D02*
X193508094Y-65642619D01*
X193508094Y-65642619D02*
X193127142Y-65642619D01*
X193127142Y-65642619D02*
X193031904Y-65690238D01*
X193031904Y-65690238D02*
X192984285Y-65737857D01*
X192984285Y-65737857D02*
X192936666Y-65833095D01*
X192936666Y-65833095D02*
X192936666Y-65975952D01*
X192936666Y-65975952D02*
X192984285Y-66071190D01*
X192984285Y-66071190D02*
X193031904Y-66118809D01*
X193031904Y-66118809D02*
X193127142Y-66166428D01*
X193127142Y-66166428D02*
X193508094Y-66166428D01*
X192031904Y-65642619D02*
X192508094Y-65642619D01*
X192508094Y-65642619D02*
X192555713Y-66118809D01*
X192555713Y-66118809D02*
X192508094Y-66071190D01*
X192508094Y-66071190D02*
X192412856Y-66023571D01*
X192412856Y-66023571D02*
X192174761Y-66023571D01*
X192174761Y-66023571D02*
X192079523Y-66071190D01*
X192079523Y-66071190D02*
X192031904Y-66118809D01*
X192031904Y-66118809D02*
X191984285Y-66214047D01*
X191984285Y-66214047D02*
X191984285Y-66452142D01*
X191984285Y-66452142D02*
X192031904Y-66547380D01*
X192031904Y-66547380D02*
X192079523Y-66595000D01*
X192079523Y-66595000D02*
X192174761Y-66642619D01*
X192174761Y-66642619D02*
X192412856Y-66642619D01*
X192412856Y-66642619D02*
X192508094Y-66595000D01*
X192508094Y-66595000D02*
X192555713Y-66547380D01*
%TO.C,C2*%
X133717380Y-73963333D02*
X133765000Y-73915714D01*
X133765000Y-73915714D02*
X133812619Y-73772857D01*
X133812619Y-73772857D02*
X133812619Y-73677619D01*
X133812619Y-73677619D02*
X133765000Y-73534762D01*
X133765000Y-73534762D02*
X133669761Y-73439524D01*
X133669761Y-73439524D02*
X133574523Y-73391905D01*
X133574523Y-73391905D02*
X133384047Y-73344286D01*
X133384047Y-73344286D02*
X133241190Y-73344286D01*
X133241190Y-73344286D02*
X133050714Y-73391905D01*
X133050714Y-73391905D02*
X132955476Y-73439524D01*
X132955476Y-73439524D02*
X132860238Y-73534762D01*
X132860238Y-73534762D02*
X132812619Y-73677619D01*
X132812619Y-73677619D02*
X132812619Y-73772857D01*
X132812619Y-73772857D02*
X132860238Y-73915714D01*
X132860238Y-73915714D02*
X132907857Y-73963333D01*
X132907857Y-74344286D02*
X132860238Y-74391905D01*
X132860238Y-74391905D02*
X132812619Y-74487143D01*
X132812619Y-74487143D02*
X132812619Y-74725238D01*
X132812619Y-74725238D02*
X132860238Y-74820476D01*
X132860238Y-74820476D02*
X132907857Y-74868095D01*
X132907857Y-74868095D02*
X133003095Y-74915714D01*
X133003095Y-74915714D02*
X133098333Y-74915714D01*
X133098333Y-74915714D02*
X133241190Y-74868095D01*
X133241190Y-74868095D02*
X133812619Y-74296667D01*
X133812619Y-74296667D02*
X133812619Y-74915714D01*
%TO.C,R7*%
X176150099Y-66642619D02*
X176483432Y-66166428D01*
X176721527Y-66642619D02*
X176721527Y-65642619D01*
X176721527Y-65642619D02*
X176340575Y-65642619D01*
X176340575Y-65642619D02*
X176245337Y-65690238D01*
X176245337Y-65690238D02*
X176197718Y-65737857D01*
X176197718Y-65737857D02*
X176150099Y-65833095D01*
X176150099Y-65833095D02*
X176150099Y-65975952D01*
X176150099Y-65975952D02*
X176197718Y-66071190D01*
X176197718Y-66071190D02*
X176245337Y-66118809D01*
X176245337Y-66118809D02*
X176340575Y-66166428D01*
X176340575Y-66166428D02*
X176721527Y-66166428D01*
X175816765Y-65642619D02*
X175150099Y-65642619D01*
X175150099Y-65642619D02*
X175578670Y-66642619D01*
D11*
%TO.C,U2*%
X183561306Y-60462619D02*
X183561306Y-61272142D01*
X183561306Y-61272142D02*
X183513687Y-61367380D01*
X183513687Y-61367380D02*
X183466068Y-61415000D01*
X183466068Y-61415000D02*
X183370830Y-61462619D01*
X183370830Y-61462619D02*
X183180354Y-61462619D01*
X183180354Y-61462619D02*
X183085116Y-61415000D01*
X183085116Y-61415000D02*
X183037497Y-61367380D01*
X183037497Y-61367380D02*
X182989878Y-61272142D01*
X182989878Y-61272142D02*
X182989878Y-60462619D01*
X182561306Y-60557857D02*
X182513687Y-60510238D01*
X182513687Y-60510238D02*
X182418449Y-60462619D01*
X182418449Y-60462619D02*
X182180354Y-60462619D01*
X182180354Y-60462619D02*
X182085116Y-60510238D01*
X182085116Y-60510238D02*
X182037497Y-60557857D01*
X182037497Y-60557857D02*
X181989878Y-60653095D01*
X181989878Y-60653095D02*
X181989878Y-60748333D01*
X181989878Y-60748333D02*
X182037497Y-60891190D01*
X182037497Y-60891190D02*
X182608925Y-61462619D01*
X182608925Y-61462619D02*
X181989878Y-61462619D01*
%TO.C,U5*%
X156361605Y-60462619D02*
X156361605Y-61272142D01*
X156361605Y-61272142D02*
X156313986Y-61367380D01*
X156313986Y-61367380D02*
X156266367Y-61415000D01*
X156266367Y-61415000D02*
X156171129Y-61462619D01*
X156171129Y-61462619D02*
X155980653Y-61462619D01*
X155980653Y-61462619D02*
X155885415Y-61415000D01*
X155885415Y-61415000D02*
X155837796Y-61367380D01*
X155837796Y-61367380D02*
X155790177Y-61272142D01*
X155790177Y-61272142D02*
X155790177Y-60462619D01*
X154837796Y-60462619D02*
X155313986Y-60462619D01*
X155313986Y-60462619D02*
X155361605Y-60938809D01*
X155361605Y-60938809D02*
X155313986Y-60891190D01*
X155313986Y-60891190D02*
X155218748Y-60843571D01*
X155218748Y-60843571D02*
X154980653Y-60843571D01*
X154980653Y-60843571D02*
X154885415Y-60891190D01*
X154885415Y-60891190D02*
X154837796Y-60938809D01*
X154837796Y-60938809D02*
X154790177Y-61034047D01*
X154790177Y-61034047D02*
X154790177Y-61272142D01*
X154790177Y-61272142D02*
X154837796Y-61367380D01*
X154837796Y-61367380D02*
X154885415Y-61415000D01*
X154885415Y-61415000D02*
X154980653Y-61462619D01*
X154980653Y-61462619D02*
X155218748Y-61462619D01*
X155218748Y-61462619D02*
X155313986Y-61415000D01*
X155313986Y-61415000D02*
X155361605Y-61367380D01*
D12*
%TO.C,H1*%
X133990000Y-70450000D02*
X139990000Y-70450000D01*
X136990000Y-67450000D02*
X136990000Y-73450000D01*
X139990000Y-70450000D02*
G75*
G03*
X139990000Y-70450000I-3000000J0D01*
G01*
%TO.C,H2*%
X180000000Y-70450000D02*
X186000000Y-70450000D01*
X183000000Y-67450000D02*
X183000000Y-73450000D01*
X186000000Y-70450000D02*
G75*
G03*
X186000000Y-70450000I-3000000J0D01*
G01*
D13*
%TO.C,R14*%
X147257232Y-63174500D02*
X147257232Y-64825500D01*
X147257232Y-64825500D02*
X148273232Y-64825500D01*
X148273232Y-63174500D02*
X147257232Y-63174500D01*
X149289232Y-64825500D02*
X150368732Y-64825500D01*
X150368732Y-63174500D02*
X149289232Y-63174500D01*
X150368732Y-64825500D02*
X150368732Y-63174500D01*
D14*
%TO.C,U8*%
X129650000Y-59250000D02*
X125450000Y-59250000D01*
X129650000Y-62650000D02*
X126850000Y-62650000D01*
D13*
%TO.C,R16*%
X129124098Y-63174500D02*
X129124098Y-64825500D01*
X129124098Y-64825500D02*
X130140098Y-64825500D01*
X130140098Y-63174500D02*
X129124098Y-63174500D01*
X131156098Y-64825500D02*
X132235598Y-64825500D01*
X132235598Y-63174500D02*
X131156098Y-63174500D01*
X132235598Y-64825500D02*
X132235598Y-63174500D01*
D14*
%TO.C,U1*%
X193115970Y-59250000D02*
X188915970Y-59250000D01*
X193115970Y-62650000D02*
X190315970Y-62650000D01*
D13*
%TO.C,R12*%
X126374500Y-66844000D02*
X128025500Y-66844000D01*
X128025500Y-66844000D02*
X128025500Y-65828000D01*
X126374500Y-65828000D02*
X126374500Y-66844000D01*
X128025500Y-64812000D02*
X128025500Y-63732500D01*
X126374500Y-63732500D02*
X126374500Y-64812000D01*
X128025500Y-63732500D02*
X126374500Y-63732500D01*
D14*
%TO.C,U6*%
X147783134Y-59250000D02*
X143583134Y-59250000D01*
X147783134Y-62650000D02*
X144983134Y-62650000D01*
D13*
%TO.C,R8*%
X165390366Y-63174500D02*
X165390366Y-64825500D01*
X165390366Y-64825500D02*
X166406366Y-64825500D01*
X166406366Y-63174500D02*
X165390366Y-63174500D01*
X167422366Y-64825500D02*
X168501866Y-64825500D01*
X168501866Y-63174500D02*
X167422366Y-63174500D01*
X168501866Y-64825500D02*
X168501866Y-63174500D01*
%TO.C,R2*%
X177684500Y-62526500D02*
X179335500Y-62526500D01*
X179335500Y-62526500D02*
X179335500Y-61510500D01*
X177684500Y-61510500D02*
X177684500Y-62526500D01*
X179335500Y-60494500D02*
X179335500Y-59415000D01*
X177684500Y-59415000D02*
X177684500Y-60494500D01*
X179335500Y-59415000D02*
X177684500Y-59415000D01*
%TO.C,R4*%
X159494500Y-62526500D02*
X161145500Y-62526500D01*
X161145500Y-62526500D02*
X161145500Y-61510500D01*
X159494500Y-61510500D02*
X159494500Y-62526500D01*
X161145500Y-60494500D02*
X161145500Y-59415000D01*
X159494500Y-59415000D02*
X159494500Y-60494500D01*
X161145500Y-59415000D02*
X159494500Y-59415000D01*
%TO.C,R6*%
X183523500Y-63174500D02*
X183523500Y-64825500D01*
X183523500Y-64825500D02*
X184539500Y-64825500D01*
X184539500Y-63174500D02*
X183523500Y-63174500D01*
X185555500Y-64825500D02*
X186635000Y-64825500D01*
X186635000Y-63174500D02*
X185555500Y-63174500D01*
X186635000Y-64825500D02*
X186635000Y-63174500D01*
D14*
%TO.C,U4*%
X165916268Y-59250000D02*
X161716268Y-59250000D01*
X165916268Y-62650000D02*
X163116268Y-62650000D01*
%TO.C,U7*%
X138716567Y-59250000D02*
X134516567Y-59250000D01*
X138716567Y-62650000D02*
X135916567Y-62650000D01*
D13*
%TO.C,R3*%
X168614500Y-62526500D02*
X170265500Y-62526500D01*
X170265500Y-62526500D02*
X170265500Y-61510500D01*
X168614500Y-61510500D02*
X168614500Y-62526500D01*
X170265500Y-60494500D02*
X170265500Y-59415000D01*
X168614500Y-59415000D02*
X168614500Y-60494500D01*
X170265500Y-59415000D02*
X168614500Y-59415000D01*
%TO.C,R15*%
X138190665Y-63174500D02*
X138190665Y-64825500D01*
X138190665Y-64825500D02*
X139206665Y-64825500D01*
X139206665Y-63174500D02*
X138190665Y-63174500D01*
X140222665Y-64825500D02*
X141302165Y-64825500D01*
X141302165Y-63174500D02*
X140222665Y-63174500D01*
X141302165Y-64825500D02*
X141302165Y-63174500D01*
D14*
%TO.C,U3*%
X174982835Y-59250000D02*
X170782835Y-59250000D01*
X174982835Y-62650000D02*
X172182835Y-62650000D01*
D13*
%TO.C,R13*%
X156323799Y-63174500D02*
X156323799Y-64825500D01*
X156323799Y-64825500D02*
X157339799Y-64825500D01*
X157339799Y-63174500D02*
X156323799Y-63174500D01*
X158355799Y-64825500D02*
X159435299Y-64825500D01*
X159435299Y-63174500D02*
X158355799Y-63174500D01*
X159435299Y-64825500D02*
X159435299Y-63174500D01*
%TO.C,R9*%
X150474500Y-62526500D02*
X152125500Y-62526500D01*
X152125500Y-62526500D02*
X152125500Y-61510500D01*
X150474500Y-61510500D02*
X150474500Y-62526500D01*
X152125500Y-60494500D02*
X152125500Y-59415000D01*
X150474500Y-59415000D02*
X150474500Y-60494500D01*
X152125500Y-59415000D02*
X150474500Y-59415000D01*
%TO.C,R10*%
X141384500Y-62526500D02*
X143035500Y-62526500D01*
X143035500Y-62526500D02*
X143035500Y-61510500D01*
X141384500Y-61510500D02*
X141384500Y-62526500D01*
X143035500Y-60494500D02*
X143035500Y-59415000D01*
X141384500Y-59415000D02*
X141384500Y-60494500D01*
X143035500Y-59415000D02*
X141384500Y-59415000D01*
%TO.C,R1*%
X186774500Y-62526500D02*
X188425500Y-62526500D01*
X188425500Y-62526500D02*
X188425500Y-61510500D01*
X186774500Y-61510500D02*
X186774500Y-62526500D01*
X188425500Y-60494500D02*
X188425500Y-59415000D01*
X186774500Y-59415000D02*
X186774500Y-60494500D01*
X188425500Y-59415000D02*
X186774500Y-59415000D01*
D14*
%TO.C,C1*%
X129635000Y-71478748D02*
X129635000Y-72001252D01*
X128165000Y-71478748D02*
X128165000Y-72001252D01*
D13*
%TO.C,R11*%
X132294500Y-62526500D02*
X133945500Y-62526500D01*
X133945500Y-62526500D02*
X133945500Y-61510500D01*
X132294500Y-61510500D02*
X132294500Y-62526500D01*
X133945500Y-60494500D02*
X133945500Y-59415000D01*
X132294500Y-59415000D02*
X132294500Y-60494500D01*
X133945500Y-59415000D02*
X132294500Y-59415000D01*
%TO.C,R5*%
X194287470Y-64825500D02*
X194287470Y-63174500D01*
X194287470Y-63174500D02*
X193271470Y-63174500D01*
X193271470Y-64825500D02*
X194287470Y-64825500D01*
X192255470Y-63174500D02*
X191175970Y-63174500D01*
X191175970Y-64825500D02*
X192255470Y-64825500D01*
X191175970Y-63174500D02*
X191175970Y-64825500D01*
D14*
%TO.C,C2*%
X132135000Y-71478748D02*
X132135000Y-72001252D01*
X130665000Y-71478748D02*
X130665000Y-72001252D01*
D13*
%TO.C,R7*%
X174456933Y-63174500D02*
X174456933Y-64825500D01*
X174456933Y-64825500D02*
X175472933Y-64825500D01*
X175472933Y-63174500D02*
X174456933Y-63174500D01*
X176488933Y-64825500D02*
X177568433Y-64825500D01*
X177568433Y-63174500D02*
X176488933Y-63174500D01*
X177568433Y-64825500D02*
X177568433Y-63174500D01*
D14*
%TO.C,U2*%
X184049402Y-59250000D02*
X179849402Y-59250000D01*
X184049402Y-62650000D02*
X181249402Y-62650000D01*
%TO.C,U5*%
X156849701Y-59250000D02*
X152649701Y-59250000D01*
X156849701Y-62650000D02*
X154049701Y-62650000D01*
%TD*%
D15*
X194250000Y-75250000D02*
X125750000Y-75250000D01*
X125750000Y-58250000D02*
X194250000Y-58250000D01*
X195000000Y-59000000D02*
X195000000Y-74500000D01*
X195000000Y-59000000D02*
G75*
G03*
X194250000Y-58250000I-750000J0D01*
G01*
X125000000Y-74500000D02*
X125000000Y-59000000D01*
X125000000Y-74500000D02*
G75*
G03*
X125750000Y-75250000I750000J0D01*
G01*
X194250000Y-75250000D02*
G75*
G03*
X195000000Y-74500000I0J750000D01*
G01*
X125750000Y-58250000D02*
G75*
G03*
X125000000Y-59000000I0J-750000D01*
G01*
M02*
