%TF.GenerationSoftware,KiCad,Pcbnew,7.0.1*%
%TF.CreationDate,2023-08-30T00:52:31-03:00*%
%TF.ProjectId,QRE1113_Line_Sensors_x8,51524531-3131-4335-9f4c-696e655f5365,rev?*%
%TF.SameCoordinates,Original*%
%TF.FileFunction,Legend,Top*%
%TF.FilePolarity,Positive*%
%FSLAX46Y46*%
G04 Gerber Fmt 4.6, Leading zero omitted, Abs format (unit mm)*
G04 Created by KiCad (PCBNEW 7.0.1) date 2023-08-30 00:52:31*
%MOMM*%
%LPD*%
G01*
G04 APERTURE LIST*
%ADD10C,0.150000*%
%ADD11C,0.250000*%
%ADD12C,0.254000*%
%ADD13C,0.120000*%
%TA.AperFunction,Profile*%
%ADD14C,0.100000*%
%TD*%
G04 APERTURE END LIST*
D10*
X146383134Y-58280000D02*
X146383134Y-63280000D01*
X164516268Y-60780000D02*
X166016268Y-60780000D01*
X182649402Y-60780000D02*
X184149402Y-60780000D01*
X173582835Y-60780000D02*
X175082835Y-60780000D01*
X173582835Y-60780000D02*
X172082835Y-60780000D01*
X191715969Y-60780000D02*
X190215969Y-60780000D01*
X173582835Y-58280000D02*
X173582835Y-63280000D01*
X155449701Y-60780000D02*
X156949701Y-60780000D01*
X182649402Y-60780000D02*
X181149402Y-60780000D01*
X137316567Y-60780000D02*
X138816567Y-60780000D01*
X128250000Y-60780000D02*
X129750000Y-60780000D01*
X128250000Y-60780000D02*
X126750000Y-60780000D01*
X164516268Y-58280000D02*
X164516268Y-63280000D01*
X182649402Y-58280000D02*
X182649402Y-63280000D01*
X146383134Y-60780000D02*
X144883134Y-60780000D01*
X146383134Y-60780000D02*
X147883134Y-60780000D01*
X191715969Y-58280000D02*
X191715969Y-63280000D01*
X155449701Y-60780000D02*
X153949701Y-60780000D01*
X137316567Y-60780000D02*
X135816567Y-60780000D01*
X191715969Y-60780000D02*
X193215969Y-60780000D01*
X137316567Y-58280000D02*
X137316567Y-63280000D01*
X155449701Y-58280000D02*
X155449701Y-63280000D01*
X128250000Y-58280000D02*
X128250000Y-63280000D01*
X164516268Y-60780000D02*
X163016268Y-60780000D01*
D11*
X148255119Y-69597142D02*
X148255119Y-68978095D01*
X148255119Y-68978095D02*
X148636071Y-69311428D01*
X148636071Y-69311428D02*
X148636071Y-69168571D01*
X148636071Y-69168571D02*
X148683690Y-69073333D01*
X148683690Y-69073333D02*
X148731309Y-69025714D01*
X148731309Y-69025714D02*
X148826547Y-68978095D01*
X148826547Y-68978095D02*
X149064642Y-68978095D01*
X149064642Y-68978095D02*
X149159880Y-69025714D01*
X149159880Y-69025714D02*
X149207500Y-69073333D01*
X149207500Y-69073333D02*
X149255119Y-69168571D01*
X149255119Y-69168571D02*
X149255119Y-69454285D01*
X149255119Y-69454285D02*
X149207500Y-69549523D01*
X149207500Y-69549523D02*
X149159880Y-69597142D01*
X149159880Y-68549523D02*
X149207500Y-68501904D01*
X149207500Y-68501904D02*
X149255119Y-68549523D01*
X149255119Y-68549523D02*
X149207500Y-68597142D01*
X149207500Y-68597142D02*
X149159880Y-68549523D01*
X149159880Y-68549523D02*
X149255119Y-68549523D01*
X148255119Y-68168571D02*
X148255119Y-67549524D01*
X148255119Y-67549524D02*
X148636071Y-67882857D01*
X148636071Y-67882857D02*
X148636071Y-67740000D01*
X148636071Y-67740000D02*
X148683690Y-67644762D01*
X148683690Y-67644762D02*
X148731309Y-67597143D01*
X148731309Y-67597143D02*
X148826547Y-67549524D01*
X148826547Y-67549524D02*
X149064642Y-67549524D01*
X149064642Y-67549524D02*
X149159880Y-67597143D01*
X149159880Y-67597143D02*
X149207500Y-67644762D01*
X149207500Y-67644762D02*
X149255119Y-67740000D01*
X149255119Y-67740000D02*
X149255119Y-68025714D01*
X149255119Y-68025714D02*
X149207500Y-68120952D01*
X149207500Y-68120952D02*
X149159880Y-68168571D01*
X148255119Y-67263809D02*
X149255119Y-66930476D01*
X149255119Y-66930476D02*
X148255119Y-66597143D01*
X155687619Y-69577142D02*
X155687619Y-68958095D01*
X155687619Y-68958095D02*
X156068571Y-69291428D01*
X156068571Y-69291428D02*
X156068571Y-69148571D01*
X156068571Y-69148571D02*
X156116190Y-69053333D01*
X156116190Y-69053333D02*
X156163809Y-69005714D01*
X156163809Y-69005714D02*
X156259047Y-68958095D01*
X156259047Y-68958095D02*
X156497142Y-68958095D01*
X156497142Y-68958095D02*
X156592380Y-69005714D01*
X156592380Y-69005714D02*
X156640000Y-69053333D01*
X156640000Y-69053333D02*
X156687619Y-69148571D01*
X156687619Y-69148571D02*
X156687619Y-69434285D01*
X156687619Y-69434285D02*
X156640000Y-69529523D01*
X156640000Y-69529523D02*
X156592380Y-69577142D01*
X153242857Y-69529523D02*
X153195238Y-69481904D01*
X153195238Y-69481904D02*
X153147619Y-69386666D01*
X153147619Y-69386666D02*
X153147619Y-69148571D01*
X153147619Y-69148571D02*
X153195238Y-69053333D01*
X153195238Y-69053333D02*
X153242857Y-69005714D01*
X153242857Y-69005714D02*
X153338095Y-68958095D01*
X153338095Y-68958095D02*
X153433333Y-68958095D01*
X153433333Y-68958095D02*
X153576190Y-69005714D01*
X153576190Y-69005714D02*
X154147619Y-69577142D01*
X154147619Y-69577142D02*
X154147619Y-68958095D01*
X163307619Y-69053333D02*
X163307619Y-69243809D01*
X163307619Y-69243809D02*
X163355238Y-69339047D01*
X163355238Y-69339047D02*
X163402857Y-69386666D01*
X163402857Y-69386666D02*
X163545714Y-69481904D01*
X163545714Y-69481904D02*
X163736190Y-69529523D01*
X163736190Y-69529523D02*
X164117142Y-69529523D01*
X164117142Y-69529523D02*
X164212380Y-69481904D01*
X164212380Y-69481904D02*
X164260000Y-69434285D01*
X164260000Y-69434285D02*
X164307619Y-69339047D01*
X164307619Y-69339047D02*
X164307619Y-69148571D01*
X164307619Y-69148571D02*
X164260000Y-69053333D01*
X164260000Y-69053333D02*
X164212380Y-69005714D01*
X164212380Y-69005714D02*
X164117142Y-68958095D01*
X164117142Y-68958095D02*
X163879047Y-68958095D01*
X163879047Y-68958095D02*
X163783809Y-69005714D01*
X163783809Y-69005714D02*
X163736190Y-69053333D01*
X163736190Y-69053333D02*
X163688571Y-69148571D01*
X163688571Y-69148571D02*
X163688571Y-69339047D01*
X163688571Y-69339047D02*
X163736190Y-69434285D01*
X163736190Y-69434285D02*
X163783809Y-69481904D01*
X163783809Y-69481904D02*
X163879047Y-69529523D01*
X151607619Y-68958095D02*
X151607619Y-69529523D01*
X151607619Y-69243809D02*
X150607619Y-69243809D01*
X150607619Y-69243809D02*
X150750476Y-69339047D01*
X150750476Y-69339047D02*
X150845714Y-69434285D01*
X150845714Y-69434285D02*
X150893333Y-69529523D01*
X182332259Y-63787619D02*
X182998925Y-63787619D01*
X182998925Y-63787619D02*
X182570354Y-64787619D01*
X137047043Y-63882857D02*
X137094662Y-63835238D01*
X137094662Y-63835238D02*
X137189900Y-63787619D01*
X137189900Y-63787619D02*
X137427995Y-63787619D01*
X137427995Y-63787619D02*
X137523233Y-63835238D01*
X137523233Y-63835238D02*
X137570852Y-63882857D01*
X137570852Y-63882857D02*
X137618471Y-63978095D01*
X137618471Y-63978095D02*
X137618471Y-64073333D01*
X137618471Y-64073333D02*
X137570852Y-64216190D01*
X137570852Y-64216190D02*
X136999424Y-64787619D01*
X136999424Y-64787619D02*
X137618471Y-64787619D01*
X165847619Y-69577142D02*
X165847619Y-68910476D01*
X165847619Y-68910476D02*
X166847619Y-69339047D01*
X160767619Y-69005714D02*
X160767619Y-69481904D01*
X160767619Y-69481904D02*
X161243809Y-69529523D01*
X161243809Y-69529523D02*
X161196190Y-69481904D01*
X161196190Y-69481904D02*
X161148571Y-69386666D01*
X161148571Y-69386666D02*
X161148571Y-69148571D01*
X161148571Y-69148571D02*
X161196190Y-69053333D01*
X161196190Y-69053333D02*
X161243809Y-69005714D01*
X161243809Y-69005714D02*
X161339047Y-68958095D01*
X161339047Y-68958095D02*
X161577142Y-68958095D01*
X161577142Y-68958095D02*
X161672380Y-69005714D01*
X161672380Y-69005714D02*
X161720000Y-69053333D01*
X161720000Y-69053333D02*
X161767619Y-69148571D01*
X161767619Y-69148571D02*
X161767619Y-69386666D01*
X161767619Y-69386666D02*
X161720000Y-69481904D01*
X161720000Y-69481904D02*
X161672380Y-69529523D01*
X158560952Y-69053333D02*
X159227619Y-69053333D01*
X158180000Y-69291428D02*
X158894285Y-69529523D01*
X158894285Y-69529523D02*
X158894285Y-68910476D01*
X155656367Y-64120952D02*
X155656367Y-64787619D01*
X155418272Y-63740000D02*
X155180177Y-64454285D01*
X155180177Y-64454285D02*
X155799224Y-64454285D01*
X171162738Y-68908095D02*
X171115119Y-69003333D01*
X171115119Y-69003333D02*
X171115119Y-69146190D01*
X171115119Y-69146190D02*
X171162738Y-69289047D01*
X171162738Y-69289047D02*
X171257976Y-69384285D01*
X171257976Y-69384285D02*
X171353214Y-69431904D01*
X171353214Y-69431904D02*
X171543690Y-69479523D01*
X171543690Y-69479523D02*
X171686547Y-69479523D01*
X171686547Y-69479523D02*
X171877023Y-69431904D01*
X171877023Y-69431904D02*
X171972261Y-69384285D01*
X171972261Y-69384285D02*
X172067500Y-69289047D01*
X172067500Y-69289047D02*
X172115119Y-69146190D01*
X172115119Y-69146190D02*
X172115119Y-69050952D01*
X172115119Y-69050952D02*
X172067500Y-68908095D01*
X172067500Y-68908095D02*
X172019880Y-68860476D01*
X172019880Y-68860476D02*
X171686547Y-68860476D01*
X171686547Y-68860476D02*
X171686547Y-69050952D01*
X172115119Y-68431904D02*
X171115119Y-68431904D01*
X171115119Y-68431904D02*
X172115119Y-67860476D01*
X172115119Y-67860476D02*
X171115119Y-67860476D01*
X172115119Y-67384285D02*
X171115119Y-67384285D01*
X171115119Y-67384285D02*
X171115119Y-67146190D01*
X171115119Y-67146190D02*
X171162738Y-67003333D01*
X171162738Y-67003333D02*
X171257976Y-66908095D01*
X171257976Y-66908095D02*
X171353214Y-66860476D01*
X171353214Y-66860476D02*
X171543690Y-66812857D01*
X171543690Y-66812857D02*
X171686547Y-66812857D01*
X171686547Y-66812857D02*
X171877023Y-66860476D01*
X171877023Y-66860476D02*
X171972261Y-66908095D01*
X171972261Y-66908095D02*
X172067500Y-67003333D01*
X172067500Y-67003333D02*
X172115119Y-67146190D01*
X172115119Y-67146190D02*
X172115119Y-67384285D01*
X128551904Y-64787619D02*
X127980476Y-64787619D01*
X128266190Y-64787619D02*
X128266190Y-63787619D01*
X128266190Y-63787619D02*
X128170952Y-63930476D01*
X128170952Y-63930476D02*
X128075714Y-64025714D01*
X128075714Y-64025714D02*
X127980476Y-64073333D01*
X173789501Y-63787619D02*
X173599025Y-63787619D01*
X173599025Y-63787619D02*
X173503787Y-63835238D01*
X173503787Y-63835238D02*
X173456168Y-63882857D01*
X173456168Y-63882857D02*
X173360930Y-64025714D01*
X173360930Y-64025714D02*
X173313311Y-64216190D01*
X173313311Y-64216190D02*
X173313311Y-64597142D01*
X173313311Y-64597142D02*
X173360930Y-64692380D01*
X173360930Y-64692380D02*
X173408549Y-64740000D01*
X173408549Y-64740000D02*
X173503787Y-64787619D01*
X173503787Y-64787619D02*
X173694263Y-64787619D01*
X173694263Y-64787619D02*
X173789501Y-64740000D01*
X173789501Y-64740000D02*
X173837120Y-64692380D01*
X173837120Y-64692380D02*
X173884739Y-64597142D01*
X173884739Y-64597142D02*
X173884739Y-64359047D01*
X173884739Y-64359047D02*
X173837120Y-64263809D01*
X173837120Y-64263809D02*
X173789501Y-64216190D01*
X173789501Y-64216190D02*
X173694263Y-64168571D01*
X173694263Y-64168571D02*
X173503787Y-64168571D01*
X173503787Y-64168571D02*
X173408549Y-64216190D01*
X173408549Y-64216190D02*
X173360930Y-64263809D01*
X173360930Y-64263809D02*
X173313311Y-64359047D01*
X164770553Y-63787619D02*
X164294363Y-63787619D01*
X164294363Y-63787619D02*
X164246744Y-64263809D01*
X164246744Y-64263809D02*
X164294363Y-64216190D01*
X164294363Y-64216190D02*
X164389601Y-64168571D01*
X164389601Y-64168571D02*
X164627696Y-64168571D01*
X164627696Y-64168571D02*
X164722934Y-64216190D01*
X164722934Y-64216190D02*
X164770553Y-64263809D01*
X164770553Y-64263809D02*
X164818172Y-64359047D01*
X164818172Y-64359047D02*
X164818172Y-64597142D01*
X164818172Y-64597142D02*
X164770553Y-64692380D01*
X164770553Y-64692380D02*
X164722934Y-64740000D01*
X164722934Y-64740000D02*
X164627696Y-64787619D01*
X164627696Y-64787619D02*
X164389601Y-64787619D01*
X164389601Y-64787619D02*
X164294363Y-64740000D01*
X164294363Y-64740000D02*
X164246744Y-64692380D01*
X146065991Y-63787619D02*
X146685038Y-63787619D01*
X146685038Y-63787619D02*
X146351705Y-64168571D01*
X146351705Y-64168571D02*
X146494562Y-64168571D01*
X146494562Y-64168571D02*
X146589800Y-64216190D01*
X146589800Y-64216190D02*
X146637419Y-64263809D01*
X146637419Y-64263809D02*
X146685038Y-64359047D01*
X146685038Y-64359047D02*
X146685038Y-64597142D01*
X146685038Y-64597142D02*
X146637419Y-64692380D01*
X146637419Y-64692380D02*
X146589800Y-64740000D01*
X146589800Y-64740000D02*
X146494562Y-64787619D01*
X146494562Y-64787619D02*
X146208848Y-64787619D01*
X146208848Y-64787619D02*
X146113610Y-64740000D01*
X146113610Y-64740000D02*
X146065991Y-64692380D01*
X168816190Y-69339047D02*
X168768571Y-69434285D01*
X168768571Y-69434285D02*
X168720952Y-69481904D01*
X168720952Y-69481904D02*
X168625714Y-69529523D01*
X168625714Y-69529523D02*
X168578095Y-69529523D01*
X168578095Y-69529523D02*
X168482857Y-69481904D01*
X168482857Y-69481904D02*
X168435238Y-69434285D01*
X168435238Y-69434285D02*
X168387619Y-69339047D01*
X168387619Y-69339047D02*
X168387619Y-69148571D01*
X168387619Y-69148571D02*
X168435238Y-69053333D01*
X168435238Y-69053333D02*
X168482857Y-69005714D01*
X168482857Y-69005714D02*
X168578095Y-68958095D01*
X168578095Y-68958095D02*
X168625714Y-68958095D01*
X168625714Y-68958095D02*
X168720952Y-69005714D01*
X168720952Y-69005714D02*
X168768571Y-69053333D01*
X168768571Y-69053333D02*
X168816190Y-69148571D01*
X168816190Y-69148571D02*
X168816190Y-69339047D01*
X168816190Y-69339047D02*
X168863809Y-69434285D01*
X168863809Y-69434285D02*
X168911428Y-69481904D01*
X168911428Y-69481904D02*
X169006666Y-69529523D01*
X169006666Y-69529523D02*
X169197142Y-69529523D01*
X169197142Y-69529523D02*
X169292380Y-69481904D01*
X169292380Y-69481904D02*
X169340000Y-69434285D01*
X169340000Y-69434285D02*
X169387619Y-69339047D01*
X169387619Y-69339047D02*
X169387619Y-69148571D01*
X169387619Y-69148571D02*
X169340000Y-69053333D01*
X169340000Y-69053333D02*
X169292380Y-69005714D01*
X169292380Y-69005714D02*
X169197142Y-68958095D01*
X169197142Y-68958095D02*
X169006666Y-68958095D01*
X169006666Y-68958095D02*
X168911428Y-69005714D01*
X168911428Y-69005714D02*
X168863809Y-69053333D01*
X168863809Y-69053333D02*
X168816190Y-69148571D01*
X191636921Y-64216190D02*
X191541683Y-64168571D01*
X191541683Y-64168571D02*
X191494064Y-64120952D01*
X191494064Y-64120952D02*
X191446445Y-64025714D01*
X191446445Y-64025714D02*
X191446445Y-63978095D01*
X191446445Y-63978095D02*
X191494064Y-63882857D01*
X191494064Y-63882857D02*
X191541683Y-63835238D01*
X191541683Y-63835238D02*
X191636921Y-63787619D01*
X191636921Y-63787619D02*
X191827397Y-63787619D01*
X191827397Y-63787619D02*
X191922635Y-63835238D01*
X191922635Y-63835238D02*
X191970254Y-63882857D01*
X191970254Y-63882857D02*
X192017873Y-63978095D01*
X192017873Y-63978095D02*
X192017873Y-64025714D01*
X192017873Y-64025714D02*
X191970254Y-64120952D01*
X191970254Y-64120952D02*
X191922635Y-64168571D01*
X191922635Y-64168571D02*
X191827397Y-64216190D01*
X191827397Y-64216190D02*
X191636921Y-64216190D01*
X191636921Y-64216190D02*
X191541683Y-64263809D01*
X191541683Y-64263809D02*
X191494064Y-64311428D01*
X191494064Y-64311428D02*
X191446445Y-64406666D01*
X191446445Y-64406666D02*
X191446445Y-64597142D01*
X191446445Y-64597142D02*
X191494064Y-64692380D01*
X191494064Y-64692380D02*
X191541683Y-64740000D01*
X191541683Y-64740000D02*
X191636921Y-64787619D01*
X191636921Y-64787619D02*
X191827397Y-64787619D01*
X191827397Y-64787619D02*
X191922635Y-64740000D01*
X191922635Y-64740000D02*
X191970254Y-64692380D01*
X191970254Y-64692380D02*
X192017873Y-64597142D01*
X192017873Y-64597142D02*
X192017873Y-64406666D01*
X192017873Y-64406666D02*
X191970254Y-64311428D01*
X191970254Y-64311428D02*
X191922635Y-64263809D01*
X191922635Y-64263809D02*
X191827397Y-64216190D01*
%TO.C,J1*%
X145697619Y-72085333D02*
X146411904Y-72085333D01*
X146411904Y-72085333D02*
X146554761Y-72132952D01*
X146554761Y-72132952D02*
X146650000Y-72228190D01*
X146650000Y-72228190D02*
X146697619Y-72371047D01*
X146697619Y-72371047D02*
X146697619Y-72466285D01*
X146697619Y-71085333D02*
X146697619Y-71656761D01*
X146697619Y-71371047D02*
X145697619Y-71371047D01*
X145697619Y-71371047D02*
X145840476Y-71466285D01*
X145840476Y-71466285D02*
X145935714Y-71561523D01*
X145935714Y-71561523D02*
X145983333Y-71656761D01*
D12*
%TO.C,H1*%
X133990000Y-70450000D02*
X139990000Y-70450000D01*
X136990000Y-67450000D02*
X136990000Y-73450000D01*
X139990000Y-70450000D02*
G75*
G03*
X139990000Y-70450000I-3000000J0D01*
G01*
%TO.C,H2*%
X180000000Y-70450000D02*
X186000000Y-70450000D01*
X183000000Y-67450000D02*
X183000000Y-73450000D01*
X186000000Y-70450000D02*
G75*
G03*
X186000000Y-70450000I-3000000J0D01*
G01*
D13*
%TO.C,J1*%
X147235000Y-73082000D02*
X147235000Y-71752000D01*
X148565000Y-73082000D02*
X147235000Y-73082000D01*
X149835000Y-73082000D02*
X172755000Y-73082000D01*
X149835000Y-73082000D02*
X149835000Y-70422000D01*
X172755000Y-73082000D02*
X172755000Y-70422000D01*
X149835000Y-70422000D02*
X172755000Y-70422000D01*
%TD*%
D14*
X194250000Y-75250000D02*
X125750000Y-75250000D01*
X125750000Y-58250000D02*
X194250000Y-58250000D01*
X195000000Y-59000000D02*
X195000000Y-74500000D01*
X195000000Y-59000000D02*
G75*
G03*
X194250000Y-58250000I-750000J0D01*
G01*
X125000000Y-74500000D02*
X125000000Y-59000000D01*
X125000000Y-74500000D02*
G75*
G03*
X125750000Y-75250000I750000J0D01*
G01*
X194250000Y-75250000D02*
G75*
G03*
X195000000Y-74500000I0J750000D01*
G01*
X125750000Y-58250000D02*
G75*
G03*
X125000000Y-59000000I0J-750000D01*
G01*
M02*
