%TF.GenerationSoftware,KiCad,Pcbnew,7.0.1*%
%TF.CreationDate,2023-08-15T21:04:50-03:00*%
%TF.ProjectId,BoverJr_PCBWAY,426f7665-724a-4725-9f50-43425741592e,rev?*%
%TF.SameCoordinates,Original*%
%TF.FileFunction,Soldermask,Bot*%
%TF.FilePolarity,Negative*%
%FSLAX46Y46*%
G04 Gerber Fmt 4.6, Leading zero omitted, Abs format (unit mm)*
G04 Created by KiCad (PCBNEW 7.0.1) date 2023-08-15 21:04:50*
%MOMM*%
%LPD*%
G01*
G04 APERTURE LIST*
G04 Aperture macros list*
%AMRoundRect*
0 Rectangle with rounded corners*
0 $1 Rounding radius*
0 $2 $3 $4 $5 $6 $7 $8 $9 X,Y pos of 4 corners*
0 Add a 4 corners polygon primitive as box body*
4,1,4,$2,$3,$4,$5,$6,$7,$8,$9,$2,$3,0*
0 Add four circle primitives for the rounded corners*
1,1,$1+$1,$2,$3*
1,1,$1+$1,$4,$5*
1,1,$1+$1,$6,$7*
1,1,$1+$1,$8,$9*
0 Add four rect primitives between the rounded corners*
20,1,$1+$1,$2,$3,$4,$5,0*
20,1,$1+$1,$4,$5,$6,$7,0*
20,1,$1+$1,$6,$7,$8,$9,0*
20,1,$1+$1,$8,$9,$2,$3,0*%
G04 Aperture macros list end*
%ADD10RoundRect,0.250000X-0.600000X-0.725000X0.600000X-0.725000X0.600000X0.725000X-0.600000X0.725000X0*%
%ADD11O,1.700000X1.950000*%
%ADD12C,3.000000*%
%ADD13RoundRect,0.250000X-0.600000X-0.750000X0.600000X-0.750000X0.600000X0.750000X-0.600000X0.750000X0*%
%ADD14O,1.700000X2.000000*%
%ADD15C,2.200000*%
%ADD16C,1.524000*%
%ADD17R,1.700000X1.700000*%
%ADD18O,1.700000X1.700000*%
%ADD19RoundRect,0.250000X0.600000X0.725000X-0.600000X0.725000X-0.600000X-0.725000X0.600000X-0.725000X0*%
%ADD20O,1.600000X2.000000*%
%ADD21R,1.408000X1.408000*%
%ADD22C,1.408000*%
%ADD23O,1.508000X3.016000*%
%TA.AperFunction,Profile*%
%ADD24C,0.100000*%
%TD*%
G04 APERTURE END LIST*
D10*
%TO.C,J1*%
X166500000Y-93750000D03*
D11*
X169000000Y-93750000D03*
X171500000Y-93750000D03*
X174000000Y-93750000D03*
X176500000Y-93750000D03*
X179000000Y-93750000D03*
%TD*%
D12*
%TO.C,*%
X111000000Y-52950000D03*
%TD*%
D13*
%TO.C,J10*%
X105000000Y-95400000D03*
D14*
X107500000Y-95400000D03*
%TD*%
D12*
%TO.C,*%
X189000000Y-52950000D03*
%TD*%
D15*
%TO.C,J11*%
X147500000Y-100100000D03*
D16*
X147500000Y-103600000D03*
%TD*%
D17*
%TO.C,J3*%
X187875000Y-71100000D03*
D18*
X187875000Y-68560000D03*
X187875000Y-66020000D03*
X187875000Y-63480000D03*
%TD*%
D15*
%TO.C,J7*%
X156900000Y-100100000D03*
D16*
X156900000Y-103600000D03*
%TD*%
D19*
%TO.C,J8*%
X169400000Y-42175000D03*
D11*
X166900000Y-42175000D03*
X164400000Y-42175000D03*
%TD*%
D12*
%TO.C,*%
X136000000Y-34400000D03*
%TD*%
D10*
%TO.C,J4*%
X169400000Y-50350000D03*
D11*
X171900000Y-50350000D03*
X174400000Y-50350000D03*
%TD*%
D20*
%TO.C,OLED1*%
X160670000Y-81625000D03*
X163210000Y-81625000D03*
X165750000Y-81625000D03*
X168290000Y-81625000D03*
%TD*%
D10*
%TO.C,J5*%
X130850000Y-50350000D03*
D11*
X133350000Y-50350000D03*
X135850000Y-50350000D03*
%TD*%
D15*
%TO.C,J6*%
X152400000Y-100100000D03*
D16*
X152400000Y-103600000D03*
%TD*%
D21*
%TO.C,SW1*%
X106200000Y-87250000D03*
D22*
X108700000Y-87250000D03*
X111200000Y-87250000D03*
%TD*%
D23*
%TO.C,U2*%
X160210000Y-76200000D03*
X162750000Y-76200000D03*
X165290000Y-76200000D03*
X167830000Y-76200000D03*
X170370000Y-76200000D03*
X172910000Y-76200000D03*
X175450000Y-76200000D03*
X177990000Y-76200000D03*
%TD*%
D12*
%TO.C,*%
X150000000Y-125850000D03*
%TD*%
D10*
%TO.C,J2*%
X119500000Y-93750000D03*
D11*
X122000000Y-93750000D03*
X124500000Y-93750000D03*
X127000000Y-93750000D03*
X129500000Y-93750000D03*
X132000000Y-93750000D03*
%TD*%
D12*
%TO.C,*%
X164000000Y-34450000D03*
%TD*%
D16*
%TO.C,J9*%
X143000000Y-103600000D03*
D15*
X143000000Y-100100000D03*
%TD*%
D24*
X199950000Y-79800000D02*
G75*
G03*
X100050000Y-79800000I-49950000J0D01*
G01*
X120000000Y-129750000D02*
X120000000Y-102900000D01*
X180000000Y-102900000D02*
X200000000Y-102900000D01*
X180000000Y-129850000D02*
X180000000Y-102900000D01*
X120000000Y-102900000D02*
X100000000Y-102900000D01*
X100000000Y-102900000D02*
X100000000Y-79800000D01*
X200000000Y-102900000D02*
X200000000Y-79800000D01*
X120000000Y-129750000D02*
X180000000Y-129800000D01*
M02*
