%TF.GenerationSoftware,KiCad,Pcbnew,7.0.1*%
%TF.CreationDate,2023-08-30T00:23:05-03:00*%
%TF.ProjectId,messi_v1,6d657373-695f-4763-912e-6b696361645f,rev?*%
%TF.SameCoordinates,Original*%
%TF.FileFunction,Legend,Bot*%
%TF.FilePolarity,Positive*%
%FSLAX46Y46*%
G04 Gerber Fmt 4.6, Leading zero omitted, Abs format (unit mm)*
G04 Created by KiCad (PCBNEW 7.0.1) date 2023-08-30 00:23:05*
%MOMM*%
%LPD*%
G01*
G04 APERTURE LIST*
G04 APERTURE END LIST*
%TO.C,H4*%
G36*
X143414143Y-96757202D02*
G01*
X143423554Y-96789627D01*
X143437351Y-96875351D01*
X143445605Y-96979461D01*
X143447142Y-97083773D01*
X143440789Y-97170105D01*
X143435208Y-97200672D01*
X143410627Y-97261539D01*
X143371657Y-97279769D01*
X143315291Y-97257451D01*
X143307063Y-97250693D01*
X143297682Y-97225431D01*
X143302234Y-97177910D01*
X143321116Y-97097151D01*
X143334855Y-97035333D01*
X143351228Y-96928995D01*
X143357614Y-96837325D01*
X143361303Y-96771832D01*
X143373692Y-96726754D01*
X143392208Y-96720597D01*
X143414143Y-96757202D01*
G37*
G36*
X134008783Y-97348138D02*
G01*
X134013211Y-97403125D01*
X133999158Y-97452214D01*
X133952068Y-97525672D01*
X133878957Y-97610239D01*
X133787209Y-97698856D01*
X133684213Y-97784465D01*
X133577355Y-97860006D01*
X133474020Y-97918420D01*
X133449383Y-97930188D01*
X133373739Y-97965774D01*
X133319099Y-97990644D01*
X133295933Y-98000000D01*
X133294251Y-97996297D01*
X133311440Y-97966845D01*
X133351756Y-97913746D01*
X133409178Y-97843931D01*
X133477684Y-97764327D01*
X133551251Y-97681866D01*
X133623856Y-97603477D01*
X133689477Y-97536089D01*
X133742092Y-97486632D01*
X133831180Y-97412644D01*
X133912266Y-97352816D01*
X133969505Y-97319982D01*
X133998364Y-97317141D01*
X134008783Y-97348138D01*
G37*
G36*
X139461386Y-101061791D02*
G01*
X139507164Y-101080043D01*
X139587282Y-101106498D01*
X139689997Y-101137396D01*
X139803945Y-101169174D01*
X139906010Y-101197323D01*
X140043324Y-101239189D01*
X140138470Y-101274695D01*
X140193820Y-101304777D01*
X140211743Y-101330371D01*
X140205134Y-101338681D01*
X140165180Y-101357059D01*
X140101055Y-101374948D01*
X140084794Y-101378307D01*
X139968078Y-101392747D01*
X139840458Y-101395417D01*
X139716120Y-101387160D01*
X139609252Y-101368819D01*
X139534040Y-101341238D01*
X139485627Y-101306728D01*
X139417164Y-101235166D01*
X139368232Y-101156005D01*
X139349541Y-101084169D01*
X139349958Y-101070961D01*
X139362279Y-101036888D01*
X139397030Y-101034310D01*
X139461386Y-101061791D01*
G37*
G36*
X146352568Y-99399476D02*
G01*
X146393109Y-99418082D01*
X146458371Y-99454111D01*
X146537456Y-99501658D01*
X146636528Y-99570545D01*
X146750967Y-99665166D01*
X146857088Y-99767210D01*
X146944255Y-99866355D01*
X147001833Y-99952283D01*
X147008124Y-99964799D01*
X147026782Y-100009336D01*
X147027710Y-100027340D01*
X147023711Y-100025788D01*
X146989000Y-100005500D01*
X146925549Y-99965383D01*
X146840664Y-99910113D01*
X146741652Y-99844362D01*
X146720274Y-99830087D01*
X146611845Y-99759009D01*
X146510197Y-99694360D01*
X146425893Y-99642769D01*
X146369495Y-99610861D01*
X146336925Y-99593815D01*
X146289218Y-99566703D01*
X146270458Y-99552637D01*
X146278931Y-99513881D01*
X146300529Y-99462011D01*
X146326115Y-99417231D01*
X146346516Y-99398165D01*
X146352568Y-99399476D01*
G37*
G36*
X147191323Y-102813837D02*
G01*
X147210857Y-102851549D01*
X147210963Y-102851952D01*
X147216296Y-102896255D01*
X147220444Y-102978356D01*
X147223452Y-103091221D01*
X147225368Y-103227816D01*
X147226237Y-103381110D01*
X147226105Y-103544069D01*
X147225017Y-103709659D01*
X147223019Y-103870847D01*
X147220158Y-104020600D01*
X147216478Y-104151885D01*
X147212027Y-104257668D01*
X147206850Y-104330917D01*
X147200992Y-104364598D01*
X147175997Y-104394658D01*
X147131177Y-104405674D01*
X147087756Y-104380290D01*
X147057965Y-104322136D01*
X147056155Y-104311713D01*
X147051838Y-104254417D01*
X147048358Y-104159350D01*
X147045823Y-104032935D01*
X147044337Y-103881595D01*
X147044006Y-103711757D01*
X147044936Y-103529843D01*
X147051101Y-102812018D01*
X147123790Y-102804943D01*
X147150849Y-102803352D01*
X147191323Y-102813837D01*
G37*
G36*
X135533071Y-97774387D02*
G01*
X135596624Y-97816598D01*
X135667091Y-97901624D01*
X135742891Y-98027843D01*
X135796043Y-98121084D01*
X135916013Y-98304453D01*
X136070104Y-98513857D01*
X136256862Y-98747360D01*
X136474835Y-99003027D01*
X136555467Y-99095223D01*
X136684395Y-99243514D01*
X136785268Y-99360964D01*
X136860143Y-99450039D01*
X136911078Y-99513204D01*
X136940131Y-99552924D01*
X136949358Y-99571666D01*
X136944948Y-99576689D01*
X136926228Y-99568876D01*
X136888880Y-99543353D01*
X136828689Y-99496994D01*
X136741443Y-99426670D01*
X136622931Y-99329252D01*
X136502834Y-99226684D01*
X136196615Y-98928869D01*
X135932284Y-98612869D01*
X135708336Y-98276756D01*
X135523267Y-97918599D01*
X135509011Y-97886236D01*
X135483857Y-97820515D01*
X135478985Y-97784858D01*
X135492757Y-97771356D01*
X135533071Y-97774387D01*
G37*
G36*
X145740172Y-103080064D02*
G01*
X145766478Y-103084288D01*
X145778473Y-103102857D01*
X145779167Y-103146424D01*
X145771567Y-103225642D01*
X145769327Y-103245412D01*
X145757920Y-103333753D01*
X145741407Y-103451063D01*
X145721645Y-103584401D01*
X145700491Y-103720826D01*
X145694126Y-103761280D01*
X145673136Y-103899926D01*
X145654138Y-104032808D01*
X145639008Y-104146521D01*
X145629620Y-104227661D01*
X145614272Y-104384954D01*
X145420145Y-104384954D01*
X145226018Y-104384954D01*
X145206449Y-104181055D01*
X145198810Y-104092281D01*
X145188891Y-103913294D01*
X145187125Y-103750843D01*
X145193294Y-103612303D01*
X145207177Y-103505048D01*
X145228557Y-103436453D01*
X145258212Y-103389485D01*
X145336586Y-103299845D01*
X145434492Y-103215912D01*
X145540432Y-103145849D01*
X145642910Y-103097823D01*
X145730429Y-103080000D01*
X145740172Y-103080064D01*
G37*
G36*
X146176661Y-103084584D02*
G01*
X146245981Y-103108942D01*
X146320731Y-103158452D01*
X146407534Y-103237775D01*
X146513015Y-103351576D01*
X146672756Y-103532565D01*
X146658169Y-103719906D01*
X146655521Y-103757850D01*
X146649390Y-103880374D01*
X146645097Y-104017515D01*
X146643442Y-104146101D01*
X146643302Y-104384954D01*
X146412930Y-104384954D01*
X146182558Y-104384954D01*
X146142507Y-104300554D01*
X146137702Y-104290346D01*
X146111055Y-104228575D01*
X146090069Y-104166191D01*
X146072867Y-104094023D01*
X146057576Y-104002905D01*
X146042319Y-103883666D01*
X146025221Y-103727138D01*
X146019646Y-103675539D01*
X146004922Y-103552557D01*
X145990215Y-103446045D01*
X145976970Y-103365978D01*
X145966632Y-103322336D01*
X145962235Y-103310173D01*
X145946646Y-103214879D01*
X145970545Y-103142349D01*
X146031543Y-103096188D01*
X146127251Y-103080000D01*
X146176661Y-103084584D01*
G37*
G36*
X144538251Y-92687135D02*
G01*
X144560856Y-92712513D01*
X144574951Y-92776686D01*
X144580809Y-92873223D01*
X144578706Y-92995696D01*
X144568917Y-93137676D01*
X144551718Y-93292734D01*
X144527382Y-93454440D01*
X144496186Y-93616366D01*
X144482768Y-93675808D01*
X144447264Y-93816575D01*
X144406161Y-93962516D01*
X144362227Y-94105219D01*
X144318228Y-94236276D01*
X144276932Y-94347274D01*
X144241105Y-94429805D01*
X144213516Y-94475459D01*
X144174216Y-94511806D01*
X144139684Y-94527494D01*
X144126605Y-94509038D01*
X144127132Y-94504845D01*
X144135810Y-94464646D01*
X144153503Y-94390761D01*
X144178079Y-94291950D01*
X144207406Y-94176974D01*
X144233163Y-94073391D01*
X144275982Y-93889154D01*
X144321699Y-93680777D01*
X144367598Y-93461345D01*
X144410963Y-93243943D01*
X144449078Y-93041656D01*
X144479226Y-92867569D01*
X144480920Y-92857350D01*
X144499299Y-92768380D01*
X144518534Y-92708745D01*
X144535945Y-92686973D01*
X144538251Y-92687135D01*
G37*
G36*
X134369008Y-97632194D02*
G01*
X134377750Y-97672173D01*
X134383796Y-97743372D01*
X134386055Y-97835357D01*
X134387322Y-97921991D01*
X134393162Y-98021546D01*
X134405223Y-98120608D01*
X134425101Y-98225423D01*
X134454393Y-98342239D01*
X134494695Y-98477302D01*
X134547605Y-98636860D01*
X134614719Y-98827160D01*
X134697633Y-99054450D01*
X134723209Y-99126576D01*
X134748737Y-99206731D01*
X134762526Y-99261422D01*
X134762027Y-99281652D01*
X134758310Y-99280450D01*
X134727298Y-99256889D01*
X134676029Y-99209404D01*
X134613444Y-99146150D01*
X134593708Y-99124911D01*
X134455251Y-98938976D01*
X134341061Y-98714215D01*
X134251629Y-98451777D01*
X134187448Y-98152810D01*
X134175375Y-98076802D01*
X134160929Y-97973720D01*
X134155532Y-97904664D01*
X134159369Y-97862124D01*
X134172625Y-97838588D01*
X134195484Y-97826546D01*
X134208686Y-97819588D01*
X134249480Y-97779590D01*
X134290186Y-97720113D01*
X134306578Y-97692683D01*
X134340764Y-97645727D01*
X134364243Y-97627156D01*
X134369008Y-97632194D01*
G37*
G36*
X143817734Y-95152014D02*
G01*
X143823669Y-95199108D01*
X143823651Y-95201051D01*
X143807461Y-95268473D01*
X143760238Y-95361408D01*
X143680834Y-95481802D01*
X143568096Y-95631601D01*
X143501273Y-95720101D01*
X143437449Y-95819411D01*
X143393094Y-95915727D01*
X143363940Y-96021432D01*
X143345721Y-96148912D01*
X143334169Y-96310551D01*
X143333360Y-96325527D01*
X143325713Y-96441910D01*
X143316825Y-96542832D01*
X143307734Y-96617924D01*
X143299480Y-96656817D01*
X143298775Y-96658438D01*
X143280761Y-96684735D01*
X143263332Y-96668468D01*
X143247500Y-96624453D01*
X143229703Y-96539397D01*
X143214545Y-96431215D01*
X143203460Y-96312709D01*
X143197880Y-96196679D01*
X143199238Y-96095926D01*
X143211332Y-95981465D01*
X143238454Y-95873716D01*
X143285515Y-95772303D01*
X143358068Y-95665494D01*
X143461667Y-95541560D01*
X143490129Y-95509072D01*
X143558035Y-95428515D01*
X143614453Y-95357535D01*
X143649393Y-95308532D01*
X143676745Y-95266742D01*
X143727732Y-95199839D01*
X143773387Y-95152025D01*
X143804429Y-95133762D01*
X143817734Y-95152014D01*
G37*
G36*
X142855499Y-110818173D02*
G01*
X142922689Y-110827582D01*
X142969543Y-110845971D01*
X142972203Y-110848008D01*
X142982378Y-110859395D01*
X142989308Y-110877981D01*
X142992689Y-110908647D01*
X142992217Y-110956276D01*
X142987591Y-111025751D01*
X142978505Y-111121954D01*
X142964658Y-111249769D01*
X142945744Y-111414077D01*
X142921462Y-111619762D01*
X142901772Y-111785342D01*
X142881047Y-111957165D01*
X142864145Y-112091324D01*
X142850137Y-112192635D01*
X142838097Y-112265911D01*
X142827097Y-112315967D01*
X142816208Y-112347617D01*
X142804505Y-112365675D01*
X142791059Y-112374957D01*
X142774942Y-112380275D01*
X142732039Y-112391105D01*
X142691138Y-112398778D01*
X142688223Y-112398964D01*
X142641318Y-112391746D01*
X142585319Y-112372310D01*
X142538395Y-112348219D01*
X142518715Y-112327031D01*
X142519048Y-112320176D01*
X142523446Y-112272500D01*
X142532318Y-112188668D01*
X142544853Y-112075552D01*
X142560241Y-111940025D01*
X142577672Y-111788958D01*
X142596336Y-111629224D01*
X142615421Y-111467694D01*
X142634117Y-111311241D01*
X142651615Y-111166736D01*
X142667104Y-111041051D01*
X142679772Y-110941060D01*
X142688811Y-110873633D01*
X142693409Y-110845642D01*
X142694111Y-110844013D01*
X142724990Y-110826369D01*
X142784193Y-110817762D01*
X142855499Y-110818173D01*
G37*
G36*
X147819691Y-102776525D02*
G01*
X147942221Y-102816589D01*
X147985736Y-102846062D01*
X148035218Y-102918811D01*
X148055782Y-103011936D01*
X148045690Y-103114105D01*
X148003204Y-103213991D01*
X147994209Y-103227118D01*
X147964650Y-103251965D01*
X147916974Y-103263675D01*
X147837031Y-103266740D01*
X147787358Y-103267176D01*
X147710224Y-103271747D01*
X147651886Y-103285701D01*
X147609855Y-103314354D01*
X147581639Y-103363019D01*
X147564750Y-103437011D01*
X147556696Y-103541645D01*
X147554987Y-103682236D01*
X147557133Y-103864097D01*
X147558087Y-103927865D01*
X147559328Y-104063910D01*
X147558361Y-104163596D01*
X147554641Y-104234298D01*
X147547622Y-104283394D01*
X147536760Y-104318260D01*
X147521510Y-104346274D01*
X147480366Y-104390481D01*
X147439951Y-104403649D01*
X147438581Y-104403371D01*
X147413268Y-104389232D01*
X147392774Y-104356286D01*
X147376672Y-104300567D01*
X147364534Y-104218109D01*
X147355933Y-104104946D01*
X147350443Y-103957111D01*
X147347635Y-103770639D01*
X147347083Y-103541564D01*
X147347443Y-103377329D01*
X147348225Y-103222245D01*
X147349775Y-103103625D01*
X147352496Y-103015982D01*
X147356788Y-102953829D01*
X147363055Y-102911681D01*
X147371698Y-102884049D01*
X147383119Y-102865448D01*
X147397720Y-102850390D01*
X147454505Y-102811432D01*
X147562606Y-102774768D01*
X147688743Y-102762858D01*
X147819691Y-102776525D01*
G37*
G36*
X142804816Y-93226211D02*
G01*
X142946636Y-93231754D01*
X143049540Y-93241373D01*
X143109771Y-93255066D01*
X143117536Y-93258407D01*
X143212256Y-93322082D01*
X143268889Y-93412530D01*
X143287706Y-93530171D01*
X143276488Y-93636364D01*
X143229252Y-93754735D01*
X143140710Y-93869587D01*
X143128432Y-93882019D01*
X143086840Y-93914885D01*
X143037741Y-93935665D01*
X142973497Y-93944938D01*
X142886473Y-93943281D01*
X142769032Y-93931273D01*
X142613538Y-93909492D01*
X142604482Y-93908157D01*
X142446353Y-93891693D01*
X142285845Y-93889251D01*
X142114879Y-93901727D01*
X141925376Y-93930017D01*
X141709256Y-93975017D01*
X141458440Y-94037625D01*
X141368568Y-94061154D01*
X141268391Y-94086734D01*
X141189539Y-94106145D01*
X141143853Y-94116421D01*
X141112971Y-94120636D01*
X141013224Y-94118996D01*
X140915855Y-94099433D01*
X140842357Y-94065573D01*
X140818908Y-94047641D01*
X140742411Y-93968159D01*
X140701546Y-93875387D01*
X140689449Y-93755400D01*
X140691201Y-93680097D01*
X140701502Y-93626185D01*
X140727539Y-93584104D01*
X140776492Y-93535732D01*
X140824133Y-93496079D01*
X140885941Y-93464451D01*
X140957022Y-93455963D01*
X141020037Y-93449574D01*
X141078757Y-93423345D01*
X141147121Y-93368679D01*
X141243734Y-93281395D01*
X141747234Y-93253879D01*
X141923470Y-93244872D01*
X142183405Y-93234075D01*
X142419445Y-93227368D01*
X142627833Y-93224748D01*
X142804816Y-93226211D01*
G37*
G36*
X146085908Y-98233138D02*
G01*
X146121892Y-98243652D01*
X146193090Y-98269351D01*
X146292599Y-98307454D01*
X146413518Y-98355184D01*
X146548946Y-98409762D01*
X146691980Y-98468410D01*
X146835720Y-98528348D01*
X146973262Y-98586799D01*
X147097706Y-98640983D01*
X147115564Y-98648917D01*
X147253660Y-98712000D01*
X147415488Y-98788301D01*
X147591604Y-98873158D01*
X147772568Y-98961907D01*
X147948937Y-99049884D01*
X148111269Y-99132424D01*
X148250123Y-99204865D01*
X148356055Y-99262542D01*
X148429296Y-99300888D01*
X148523342Y-99343617D01*
X148600734Y-99372096D01*
X148622608Y-99379170D01*
X148709527Y-99416901D01*
X148783314Y-99461393D01*
X148786497Y-99463832D01*
X148841948Y-99515660D01*
X148894846Y-99578998D01*
X148934492Y-99639619D01*
X148950188Y-99683297D01*
X148948223Y-99686592D01*
X148931503Y-99686616D01*
X148894993Y-99677012D01*
X148835407Y-99656513D01*
X148749463Y-99623851D01*
X148633877Y-99577761D01*
X148485363Y-99516975D01*
X148300640Y-99440226D01*
X148076422Y-99346249D01*
X147995218Y-99312161D01*
X147720988Y-99197725D01*
X147455728Y-99088050D01*
X147204271Y-98985086D01*
X146971454Y-98890784D01*
X146762111Y-98807092D01*
X146581077Y-98735962D01*
X146433188Y-98679343D01*
X146323278Y-98639185D01*
X146230877Y-98605927D01*
X146172083Y-98579886D01*
X146136871Y-98553417D01*
X146114962Y-98518789D01*
X146096077Y-98468268D01*
X146072529Y-98382548D01*
X146062069Y-98306676D01*
X146065845Y-98253239D01*
X146084394Y-98233028D01*
X146085908Y-98233138D01*
G37*
G36*
X142620529Y-92194192D02*
G01*
X142835726Y-92237483D01*
X143017522Y-92307150D01*
X143031646Y-92314924D01*
X143100534Y-92361785D01*
X143190308Y-92432327D01*
X143291745Y-92519053D01*
X143395622Y-92614468D01*
X143429936Y-92647082D01*
X143531247Y-92742346D01*
X143627562Y-92831555D01*
X143709366Y-92905942D01*
X143767141Y-92956739D01*
X143788350Y-92974754D01*
X143839522Y-93021036D01*
X143862630Y-93053450D01*
X143863614Y-93084386D01*
X143848417Y-93126236D01*
X143846938Y-93129734D01*
X143814481Y-93186810D01*
X143779834Y-93222780D01*
X143745535Y-93239163D01*
X143692513Y-93245545D01*
X143635215Y-93224428D01*
X143566008Y-93172358D01*
X143477258Y-93085881D01*
X143427391Y-93036238D01*
X143302224Y-92931399D01*
X143169563Y-92851254D01*
X143021903Y-92793269D01*
X142851736Y-92754910D01*
X142651555Y-92733644D01*
X142413853Y-92726935D01*
X142272171Y-92729570D01*
X141881160Y-92763328D01*
X141485953Y-92833733D01*
X141100256Y-92937953D01*
X140737777Y-93073157D01*
X140684706Y-93095480D01*
X140577238Y-93134069D01*
X140496692Y-93149740D01*
X140433987Y-93143599D01*
X140380047Y-93116752D01*
X140348541Y-93084473D01*
X140328544Y-93013627D01*
X140345918Y-92923572D01*
X140400332Y-92819177D01*
X140427774Y-92778369D01*
X140456294Y-92740314D01*
X140487762Y-92706929D01*
X140526759Y-92676042D01*
X140577864Y-92645480D01*
X140645657Y-92613071D01*
X140734717Y-92576644D01*
X140849625Y-92534026D01*
X140994960Y-92483044D01*
X141175302Y-92421528D01*
X141395231Y-92347304D01*
X141479407Y-92319606D01*
X141677220Y-92261737D01*
X141858274Y-92221640D01*
X142039945Y-92195894D01*
X142239607Y-92181078D01*
X142377568Y-92178189D01*
X142620529Y-92194192D01*
G37*
G36*
X134560623Y-109632003D02*
G01*
X134560168Y-109693411D01*
X134555961Y-109784956D01*
X134545813Y-109854287D01*
X134527393Y-109915503D01*
X134498373Y-109982696D01*
X134492520Y-109994803D01*
X134424332Y-110107405D01*
X134334523Y-110221975D01*
X134236072Y-110323433D01*
X134141961Y-110396703D01*
X134109139Y-110414419D01*
X134028349Y-110448865D01*
X133941406Y-110477757D01*
X133857838Y-110496049D01*
X133677110Y-110502642D01*
X133502551Y-110465381D01*
X133340534Y-110386073D01*
X133197435Y-110266531D01*
X133178871Y-110246669D01*
X133093379Y-110144632D01*
X133035074Y-110048083D01*
X132999252Y-109944189D01*
X132981208Y-109820115D01*
X132976238Y-109663028D01*
X132976270Y-109633413D01*
X132976560Y-109612985D01*
X133257366Y-109612985D01*
X133270105Y-109769780D01*
X133277248Y-109797122D01*
X133328687Y-109906742D01*
X133408297Y-110008681D01*
X133504424Y-110090129D01*
X133605413Y-110138277D01*
X133725630Y-110158731D01*
X133874992Y-110147628D01*
X134009302Y-110095740D01*
X134122688Y-110005583D01*
X134209279Y-109879669D01*
X134247481Y-109782638D01*
X134270400Y-109632003D01*
X134251825Y-109485347D01*
X134193168Y-109350674D01*
X134095840Y-109235992D01*
X134061446Y-109206969D01*
X133976484Y-109150866D01*
X133888880Y-109122967D01*
X133777918Y-109115413D01*
X133704894Y-109120191D01*
X133562707Y-109159976D01*
X133442215Y-109235133D01*
X133348065Y-109339676D01*
X133284900Y-109467622D01*
X133257366Y-109612985D01*
X132976560Y-109612985D01*
X132977800Y-109525512D01*
X132983437Y-109447237D01*
X132995656Y-109384725D01*
X133016936Y-109324111D01*
X133049752Y-109251533D01*
X133116041Y-109132842D01*
X133239410Y-108983821D01*
X133388743Y-108872762D01*
X133561934Y-108801100D01*
X133756880Y-108770265D01*
X133764532Y-108769907D01*
X133878388Y-108769599D01*
X133971151Y-108782656D01*
X134065911Y-108812213D01*
X134159568Y-108857302D01*
X134293567Y-108956102D01*
X134410240Y-109082635D01*
X134497820Y-109225637D01*
X134520694Y-109277103D01*
X134541774Y-109338634D01*
X134553924Y-109404334D01*
X134559492Y-109488335D01*
X134560825Y-109604771D01*
X134560623Y-109632003D01*
G37*
G36*
X142545484Y-90420342D02*
G01*
X142574099Y-90452878D01*
X142599105Y-90498269D01*
X142611926Y-90545451D01*
X142612448Y-90557469D01*
X142634589Y-90605550D01*
X142688774Y-90620377D01*
X142774206Y-90601672D01*
X142778728Y-90600097D01*
X142882591Y-90578921D01*
X142964909Y-90596395D01*
X143031744Y-90653743D01*
X143065929Y-90723476D01*
X143078308Y-90823723D01*
X143064140Y-90931644D01*
X143025572Y-91032551D01*
X142964754Y-91111759D01*
X142912027Y-91142601D01*
X142819940Y-91150405D01*
X142706471Y-91118124D01*
X142677306Y-91107140D01*
X142615580Y-91098457D01*
X142561076Y-91119324D01*
X142505667Y-91174333D01*
X142441226Y-91268080D01*
X142390609Y-91340669D01*
X142340572Y-91398454D01*
X142302451Y-91428162D01*
X142270545Y-91438114D01*
X142182816Y-91449237D01*
X142092115Y-91444972D01*
X142022000Y-91425540D01*
X142008752Y-91417308D01*
X141958688Y-91378547D01*
X141890872Y-91319987D01*
X141816073Y-91250770D01*
X141797273Y-91232873D01*
X141723659Y-91166374D01*
X141669412Y-91126642D01*
X141624507Y-91107404D01*
X141578916Y-91102385D01*
X141528834Y-91107476D01*
X141478893Y-91133162D01*
X141424757Y-91189771D01*
X141395189Y-91224199D01*
X141353490Y-91259479D01*
X141304656Y-91274201D01*
X141228999Y-91277156D01*
X141180324Y-91274193D01*
X141059367Y-91237099D01*
X140959424Y-91160194D01*
X140885498Y-91046834D01*
X140856961Y-90974995D01*
X140844298Y-90896734D01*
X140864435Y-90831998D01*
X140918906Y-90767991D01*
X140945429Y-90743345D01*
X141030170Y-90671810D01*
X141099887Y-90629338D01*
X141165921Y-90610311D01*
X141239613Y-90609111D01*
X141301541Y-90608638D01*
X141370483Y-90595859D01*
X141457063Y-90567562D01*
X141573067Y-90520620D01*
X141646482Y-90489638D01*
X141727380Y-90458248D01*
X141793934Y-90439345D01*
X141861378Y-90430056D01*
X141944947Y-90427510D01*
X142059876Y-90428835D01*
X142143300Y-90429366D01*
X142259565Y-90427433D01*
X142359691Y-90422823D01*
X142428457Y-90416065D01*
X142451456Y-90412561D01*
X142510269Y-90408335D01*
X142545484Y-90420342D01*
G37*
G36*
X135720641Y-100132897D02*
G01*
X135769659Y-100172781D01*
X135836326Y-100233681D01*
X135912932Y-100308837D01*
X136182238Y-100566338D01*
X136599025Y-100914531D01*
X137047178Y-101235366D01*
X137520774Y-101525303D01*
X138013885Y-101780800D01*
X138520587Y-101998317D01*
X139034954Y-102174315D01*
X139129277Y-102202788D01*
X139216026Y-102229673D01*
X139276751Y-102249302D01*
X139302110Y-102258724D01*
X139294357Y-102273407D01*
X139259082Y-102310143D01*
X139203926Y-102359816D01*
X139172271Y-102388218D01*
X139108621Y-102462466D01*
X139079818Y-102533470D01*
X139077771Y-102543767D01*
X139063762Y-102593648D01*
X139050611Y-102613945D01*
X139025324Y-102605960D01*
X138965655Y-102583790D01*
X138880681Y-102550859D01*
X138779397Y-102510597D01*
X138642948Y-102459157D01*
X138382781Y-102382126D01*
X138145310Y-102341456D01*
X137932368Y-102337397D01*
X137745790Y-102370196D01*
X137712272Y-102381400D01*
X137652366Y-102409633D01*
X137587927Y-102452946D01*
X137509967Y-102517760D01*
X137409496Y-102610500D01*
X137337116Y-102677789D01*
X137203672Y-102791426D01*
X137083426Y-102875799D01*
X136966591Y-102936430D01*
X136843384Y-102978838D01*
X136704020Y-103008544D01*
X136588243Y-103022368D01*
X136397171Y-103029090D01*
X136184274Y-103021193D01*
X135962586Y-102998848D01*
X135879319Y-102987333D01*
X135781268Y-102972584D01*
X135706093Y-102959890D01*
X135665476Y-102951127D01*
X135657752Y-102947827D01*
X135649591Y-102939957D01*
X135642740Y-102924535D01*
X135637084Y-102898010D01*
X135632509Y-102856833D01*
X135628901Y-102797452D01*
X135626145Y-102716317D01*
X135624127Y-102609879D01*
X135622733Y-102474586D01*
X135621847Y-102306889D01*
X135621356Y-102103238D01*
X135621145Y-101860082D01*
X135621101Y-101573870D01*
X135621156Y-101369175D01*
X135621526Y-101101697D01*
X135622399Y-100875180D01*
X135623955Y-100686250D01*
X135626372Y-100531532D01*
X135629829Y-100407653D01*
X135634506Y-100311238D01*
X135640582Y-100238914D01*
X135648235Y-100187305D01*
X135657644Y-100153039D01*
X135668989Y-100132740D01*
X135682448Y-100123036D01*
X135698201Y-100120551D01*
X135720641Y-100132897D01*
G37*
G36*
X136822368Y-109535498D02*
G01*
X137033499Y-109560525D01*
X137251846Y-109623237D01*
X137466244Y-109719645D01*
X137665529Y-109845760D01*
X137742673Y-109907564D01*
X137881069Y-110053278D01*
X137977254Y-110215345D01*
X138033546Y-110398328D01*
X138052264Y-110606789D01*
X138044752Y-110745996D01*
X138007109Y-110909964D01*
X137935776Y-111044134D01*
X137828487Y-111151318D01*
X137682975Y-111234332D01*
X137496972Y-111295989D01*
X137459140Y-111304723D01*
X137275074Y-111326764D01*
X137095291Y-111317060D01*
X136925651Y-111278577D01*
X136772011Y-111214280D01*
X136640229Y-111127134D01*
X136536165Y-111020105D01*
X136465676Y-110896157D01*
X136434620Y-110758257D01*
X136432307Y-110689489D01*
X136446595Y-110554842D01*
X136490939Y-110451113D01*
X136568476Y-110372674D01*
X136682345Y-110313896D01*
X136731117Y-110299448D01*
X136833660Y-110284878D01*
X136952444Y-110282023D01*
X137078500Y-110289548D01*
X137202858Y-110306119D01*
X137316549Y-110330400D01*
X137410603Y-110361057D01*
X137476050Y-110396755D01*
X137503922Y-110436159D01*
X137502321Y-110482220D01*
X137471343Y-110515397D01*
X137405853Y-110522081D01*
X137303395Y-110503092D01*
X137135505Y-110472600D01*
X136972387Y-110475186D01*
X136834741Y-110516092D01*
X136723249Y-110595209D01*
X136710709Y-110608365D01*
X136656634Y-110696103D01*
X136648773Y-110789590D01*
X136687018Y-110889699D01*
X136745064Y-110954138D01*
X136842442Y-111014904D01*
X136964797Y-111062768D01*
X137101103Y-111094410D01*
X137240333Y-111106511D01*
X137371462Y-111095752D01*
X137497831Y-111060651D01*
X137632319Y-110988574D01*
X137730794Y-110890239D01*
X137791527Y-110769439D01*
X137812786Y-110629962D01*
X137792843Y-110475600D01*
X137729968Y-110310144D01*
X137664487Y-110197629D01*
X137529513Y-110038154D01*
X137360771Y-109910790D01*
X137158280Y-109815550D01*
X136922060Y-109752448D01*
X136861646Y-109740723D01*
X136745660Y-109713373D01*
X136667889Y-109685518D01*
X136622464Y-109654688D01*
X136603514Y-109618413D01*
X136604147Y-109585287D01*
X136631483Y-109556122D01*
X136693755Y-109540215D01*
X136796401Y-109535219D01*
X136822368Y-109535498D01*
G37*
G36*
X139918466Y-110318975D02*
G01*
X140079072Y-110332811D01*
X140252293Y-110363483D01*
X140428267Y-110407821D01*
X140597134Y-110462655D01*
X140749031Y-110524815D01*
X140874097Y-110591131D01*
X140962471Y-110658435D01*
X140983160Y-110679514D01*
X141027511Y-110732486D01*
X141045129Y-110775874D01*
X141043280Y-110824623D01*
X141042873Y-110827127D01*
X141021252Y-110956106D01*
X140996422Y-111097844D01*
X140970212Y-111242555D01*
X140944449Y-111380453D01*
X140920961Y-111501752D01*
X140901575Y-111596667D01*
X140888119Y-111655413D01*
X140858442Y-111744369D01*
X140805962Y-111851824D01*
X140744841Y-111938620D01*
X140682835Y-111992039D01*
X140679865Y-111993647D01*
X140642672Y-112011884D01*
X140606864Y-112021984D01*
X140563090Y-112023444D01*
X140501997Y-112015763D01*
X140414235Y-111998438D01*
X140290452Y-111970967D01*
X140274900Y-111967445D01*
X140119364Y-111930364D01*
X139996280Y-111896223D01*
X139893197Y-111860784D01*
X139797666Y-111819810D01*
X139697235Y-111769062D01*
X139641729Y-111738271D01*
X139589833Y-111702441D01*
X139565387Y-111669839D01*
X139559266Y-111631357D01*
X139561784Y-111600357D01*
X139579006Y-111563029D01*
X139616441Y-111543376D01*
X139678624Y-111541510D01*
X139770090Y-111557544D01*
X139895375Y-111591590D01*
X140059013Y-111643762D01*
X140096828Y-111656206D01*
X140211798Y-111692492D01*
X140311581Y-111721759D01*
X140386555Y-111741274D01*
X140427101Y-111748306D01*
X140461773Y-111746864D01*
X140545104Y-111726624D01*
X140603875Y-111678021D01*
X140643116Y-111595297D01*
X140667854Y-111472697D01*
X140683786Y-111352601D01*
X140598266Y-111316868D01*
X140563154Y-111304098D01*
X140481751Y-111279164D01*
X140378353Y-111250829D01*
X140267061Y-111223084D01*
X140140027Y-111192041D01*
X140024870Y-111160224D01*
X139945186Y-111132001D01*
X139895299Y-111104856D01*
X139869530Y-111076274D01*
X139862202Y-111043740D01*
X139869806Y-110994100D01*
X139901659Y-110953821D01*
X139961466Y-110935894D01*
X140052574Y-110940111D01*
X140178328Y-110966269D01*
X140342073Y-111014159D01*
X140432290Y-111041749D01*
X140532754Y-111069576D01*
X140612904Y-111088582D01*
X140660820Y-111095718D01*
X140695789Y-111091271D01*
X140743974Y-111055931D01*
X140762402Y-110988500D01*
X140749417Y-110892776D01*
X140744882Y-110876989D01*
X140729060Y-110838455D01*
X140704015Y-110806368D01*
X140663739Y-110777808D01*
X140602224Y-110749855D01*
X140513462Y-110719590D01*
X140391446Y-110684093D01*
X140230166Y-110640444D01*
X140063203Y-110593522D01*
X139932491Y-110550470D01*
X139834821Y-110509418D01*
X139763653Y-110467612D01*
X139712449Y-110422296D01*
X139691790Y-110395382D01*
X139684243Y-110358255D01*
X139715899Y-110333867D01*
X139788914Y-110321059D01*
X139905446Y-110318672D01*
X139918466Y-110318975D01*
G37*
G36*
X131289140Y-99004695D02*
G01*
X131339245Y-99017779D01*
X131379763Y-99045893D01*
X131412242Y-99093543D01*
X131438230Y-99165241D01*
X131459276Y-99265492D01*
X131476927Y-99398807D01*
X131492732Y-99569694D01*
X131508238Y-99782661D01*
X131509970Y-99808439D01*
X131519188Y-99947696D01*
X131530760Y-100125032D01*
X131544247Y-100333583D01*
X131559208Y-100566482D01*
X131575203Y-100816864D01*
X131591792Y-101077863D01*
X131608535Y-101342615D01*
X131624993Y-101604252D01*
X131642176Y-101876142D01*
X131665416Y-102235726D01*
X131686817Y-102555735D01*
X131706695Y-102840299D01*
X131725369Y-103093551D01*
X131743156Y-103319622D01*
X131760373Y-103522646D01*
X131777337Y-103706754D01*
X131794368Y-103876079D01*
X131811781Y-104034751D01*
X131813027Y-104045751D01*
X131823993Y-104156217D01*
X131830488Y-104248651D01*
X131832015Y-104313656D01*
X131828074Y-104341835D01*
X131828053Y-104341856D01*
X131799373Y-104349483D01*
X131732233Y-104359037D01*
X131634677Y-104369811D01*
X131514748Y-104381096D01*
X131380492Y-104392183D01*
X131239953Y-104402365D01*
X131101174Y-104410934D01*
X130972202Y-104417182D01*
X130970361Y-104417253D01*
X130902679Y-104418680D01*
X130795184Y-104419526D01*
X130654391Y-104419802D01*
X130486821Y-104419517D01*
X130298991Y-104418684D01*
X130097419Y-104417312D01*
X129888624Y-104415413D01*
X129635942Y-104412205D01*
X129384717Y-104407317D01*
X129175194Y-104401018D01*
X129004748Y-104393154D01*
X128870757Y-104383570D01*
X128770595Y-104372111D01*
X128701641Y-104358623D01*
X128661270Y-104342949D01*
X128657508Y-104332353D01*
X128652850Y-104291465D01*
X128648635Y-104218544D01*
X128644837Y-104111972D01*
X128641428Y-103970128D01*
X128638383Y-103791395D01*
X128635675Y-103574152D01*
X128633278Y-103316781D01*
X128631164Y-103017663D01*
X128629309Y-102675178D01*
X128627684Y-102287707D01*
X128626948Y-102083715D01*
X128625856Y-101750723D01*
X128625105Y-101459770D01*
X128624736Y-101207922D01*
X128624791Y-100992242D01*
X128625312Y-100809794D01*
X128626343Y-100657642D01*
X128627924Y-100532851D01*
X128630098Y-100432486D01*
X128632907Y-100353609D01*
X128636393Y-100293285D01*
X128640598Y-100248579D01*
X128645565Y-100216555D01*
X128651335Y-100194276D01*
X128657951Y-100178807D01*
X128677154Y-100146297D01*
X128730147Y-100080034D01*
X128801861Y-100020368D01*
X128898980Y-99963078D01*
X129028185Y-99903940D01*
X129196162Y-99838731D01*
X129280211Y-99805107D01*
X129401214Y-99751535D01*
X129531755Y-99689584D01*
X129655131Y-99626960D01*
X129749206Y-99577635D01*
X129868851Y-99517721D01*
X129966796Y-99474680D01*
X130054516Y-99444836D01*
X130143490Y-99424515D01*
X130245194Y-99410044D01*
X130371105Y-99397747D01*
X130466921Y-99388410D01*
X130595460Y-99369990D01*
X130695475Y-99344154D01*
X130778253Y-99306526D01*
X130855082Y-99252736D01*
X130937247Y-99178409D01*
X130973516Y-99143674D01*
X131054078Y-99072831D01*
X131118606Y-99029549D01*
X131177257Y-99007916D01*
X131240183Y-99002018D01*
X131289140Y-99004695D01*
G37*
G36*
X141372009Y-88876866D02*
G01*
X141277909Y-89064685D01*
X141168381Y-89216890D01*
X141043734Y-89331586D01*
X140902348Y-89410728D01*
X140742604Y-89456271D01*
X140562880Y-89470170D01*
X140494990Y-89468042D01*
X140395399Y-89455301D01*
X140300338Y-89427134D01*
X140196143Y-89379010D01*
X140069147Y-89306394D01*
X139902692Y-89205821D01*
X139752459Y-89259700D01*
X139699293Y-89277551D01*
X139588464Y-89301498D01*
X139497500Y-89294541D01*
X139413760Y-89254275D01*
X139324599Y-89178294D01*
X139214918Y-89070262D01*
X139186939Y-89155039D01*
X139186733Y-89155660D01*
X139154172Y-89224154D01*
X139103776Y-89271850D01*
X139025980Y-89304784D01*
X138911221Y-89328988D01*
X138848025Y-89341926D01*
X138733017Y-89374920D01*
X138631588Y-89413996D01*
X138571298Y-89439520D01*
X138475118Y-89473145D01*
X138394128Y-89493885D01*
X138336433Y-89503331D01*
X138235603Y-89513503D01*
X138146655Y-89510049D01*
X138047321Y-89492905D01*
X137998455Y-89479627D01*
X137901498Y-89430824D01*
X137837653Y-89363990D01*
X137810065Y-89285925D01*
X137821881Y-89203425D01*
X137876246Y-89123288D01*
X137924898Y-89087503D01*
X138018870Y-89049580D01*
X138122203Y-89032289D01*
X138213837Y-89040776D01*
X138265963Y-89056058D01*
X138215474Y-89018986D01*
X138175124Y-88979245D01*
X138169742Y-88969031D01*
X138638432Y-88969031D01*
X138638807Y-88980924D01*
X138656052Y-88975800D01*
X138700303Y-88953867D01*
X138752270Y-88923540D01*
X138795510Y-88894609D01*
X138813578Y-88876866D01*
X138806015Y-88872096D01*
X138771392Y-88881174D01*
X138722265Y-88904594D01*
X138673761Y-88935961D01*
X138668432Y-88940141D01*
X138638432Y-88969031D01*
X138169742Y-88969031D01*
X138126873Y-88887668D01*
X138104297Y-88774695D01*
X138111090Y-88653273D01*
X138132626Y-88556199D01*
X138173929Y-88441456D01*
X138234485Y-88345298D01*
X138323013Y-88251183D01*
X138420265Y-88172636D01*
X138588877Y-88072832D01*
X138780003Y-87993556D01*
X138980060Y-87941216D01*
X138991514Y-87939103D01*
X139171078Y-87902458D01*
X139314439Y-87864674D01*
X139431377Y-87822236D01*
X139531671Y-87771629D01*
X139625099Y-87709336D01*
X139681081Y-87670059D01*
X139790867Y-87611825D01*
X139898570Y-87586678D01*
X140017556Y-87592575D01*
X140161191Y-87627478D01*
X140198053Y-87638479D01*
X140311028Y-87667114D01*
X140397550Y-87675493D01*
X140470671Y-87661743D01*
X140543443Y-87623992D01*
X140628917Y-87560367D01*
X140691427Y-87511994D01*
X140756595Y-87469917D01*
X140810781Y-87449314D01*
X140866921Y-87443853D01*
X140962086Y-87456765D01*
X141071046Y-87503465D01*
X141192271Y-87587944D01*
X141227938Y-87615229D01*
X141274277Y-87639779D01*
X141326469Y-87646334D01*
X141404525Y-87639781D01*
X141459028Y-87634147D01*
X141512561Y-87634376D01*
X141545102Y-87648228D01*
X141571657Y-87679245D01*
X141579410Y-87691845D01*
X141603902Y-87776797D01*
X141607370Y-87902512D01*
X141589805Y-88069263D01*
X141551197Y-88277323D01*
X141531978Y-88363461D01*
X141458088Y-88639925D01*
X141373938Y-88873015D01*
X141372009Y-88876866D01*
G37*
G36*
X146590001Y-111676461D02*
G01*
X146589318Y-111703795D01*
X146575468Y-111791043D01*
X146567210Y-111831467D01*
X146500466Y-112041786D01*
X146395573Y-112256031D01*
X146257579Y-112465138D01*
X146091531Y-112660042D01*
X146013856Y-112735897D01*
X145897536Y-112828024D01*
X145797718Y-112876926D01*
X145714026Y-112882682D01*
X145646082Y-112845372D01*
X145593508Y-112765075D01*
X145564753Y-112690350D01*
X145522221Y-112545829D01*
X145482500Y-112373543D01*
X145447407Y-112184838D01*
X145418760Y-111991058D01*
X145416471Y-111970000D01*
X145631312Y-111970000D01*
X145632299Y-112054047D01*
X145642994Y-112246249D01*
X145664892Y-112404825D01*
X145697306Y-112525750D01*
X145739551Y-112605000D01*
X145748700Y-112614589D01*
X145799953Y-112632976D01*
X145864054Y-112612376D01*
X145937211Y-112556249D01*
X146015632Y-112468058D01*
X146095525Y-112351262D01*
X146173098Y-112209321D01*
X146179718Y-112195758D01*
X146256054Y-112027559D01*
X146306216Y-111889322D01*
X146332214Y-111774479D01*
X146336055Y-111676461D01*
X146333279Y-111644504D01*
X146320860Y-111592684D01*
X146290106Y-111558170D01*
X146228669Y-111523358D01*
X146218979Y-111518641D01*
X146130335Y-111485120D01*
X146023747Y-111456641D01*
X145914562Y-111436163D01*
X145818127Y-111426643D01*
X145749788Y-111431041D01*
X145717544Y-111445771D01*
X145683680Y-111485894D01*
X145659147Y-111553729D01*
X145642922Y-111653926D01*
X145633985Y-111791133D01*
X145631312Y-111970000D01*
X145416471Y-111970000D01*
X145398375Y-111803548D01*
X145388072Y-111633653D01*
X145389667Y-111492719D01*
X145396605Y-111388281D01*
X145245716Y-111371217D01*
X145154478Y-111364447D01*
X144977317Y-111371857D01*
X144816108Y-111405496D01*
X144679649Y-111463113D01*
X144576735Y-111542457D01*
X144576689Y-111542507D01*
X144518322Y-111626100D01*
X144486063Y-111728534D01*
X144476147Y-111861759D01*
X144476176Y-111868661D01*
X144498380Y-112063909D01*
X144560394Y-112275200D01*
X144660011Y-112498728D01*
X144795022Y-112730683D01*
X144963221Y-112967257D01*
X145162400Y-113204642D01*
X145390353Y-113439030D01*
X145487190Y-113530056D01*
X145691311Y-113707738D01*
X145888410Y-113857231D01*
X146089909Y-113986831D01*
X146307235Y-114104834D01*
X146309759Y-114106100D01*
X146495320Y-114192879D01*
X146657529Y-114253354D01*
X146808995Y-114290638D01*
X146962322Y-114307845D01*
X147130119Y-114308090D01*
X147198344Y-114304902D01*
X147292788Y-114296850D01*
X147365884Y-114282629D01*
X147433824Y-114258551D01*
X147512799Y-114220927D01*
X147534519Y-114210099D01*
X147629401Y-114170043D01*
X147692530Y-114159449D01*
X147727657Y-114178419D01*
X147738532Y-114227054D01*
X147738170Y-114238398D01*
X147720039Y-114299338D01*
X147670856Y-114352551D01*
X147585512Y-114402151D01*
X147458899Y-114452250D01*
X147393024Y-114474323D01*
X147306051Y-114498596D01*
X147223219Y-114512819D01*
X147127633Y-114519548D01*
X147002397Y-114521340D01*
X146967742Y-114521173D01*
X146758470Y-114509023D01*
X146565668Y-114474958D01*
X146372993Y-114415164D01*
X146164105Y-114325832D01*
X146143259Y-114315846D01*
X145844559Y-114148753D01*
X145552114Y-113941943D01*
X145272797Y-113701844D01*
X145013479Y-113434884D01*
X144781030Y-113147491D01*
X144582322Y-112846093D01*
X144557627Y-112803250D01*
X144443119Y-112582174D01*
X144350809Y-112364397D01*
X144281977Y-112155327D01*
X144237904Y-111960377D01*
X144219873Y-111784958D01*
X144229162Y-111634481D01*
X144267055Y-111514356D01*
X144298998Y-111463439D01*
X144395807Y-111368408D01*
X144530462Y-111287619D01*
X144698174Y-111222397D01*
X144894155Y-111174072D01*
X145113615Y-111143970D01*
X145351766Y-111133420D01*
X145603818Y-111143749D01*
X145764831Y-111161109D01*
X146001541Y-111204899D01*
X146201452Y-111266941D01*
X146362743Y-111346454D01*
X146483594Y-111442659D01*
X146562185Y-111554773D01*
X146578951Y-111593713D01*
X146590813Y-111643950D01*
X146590001Y-111676461D01*
G37*
G36*
X143508971Y-97296813D02*
G01*
X143514317Y-97297284D01*
X143605490Y-97311586D01*
X143733362Y-97339780D01*
X143891383Y-97379870D01*
X144073002Y-97429863D01*
X144271670Y-97487762D01*
X144480836Y-97551573D01*
X144693948Y-97619300D01*
X144904458Y-97688950D01*
X145105813Y-97758525D01*
X145291465Y-97826032D01*
X145454862Y-97889475D01*
X145590516Y-97945705D01*
X145731150Y-98009698D01*
X145833937Y-98066831D01*
X145902596Y-98121221D01*
X145940845Y-98176983D01*
X145952401Y-98238234D01*
X145940984Y-98309089D01*
X145910311Y-98393664D01*
X145892267Y-98438225D01*
X145869057Y-98517983D01*
X145873885Y-98578869D01*
X145910197Y-98635925D01*
X145981439Y-98704198D01*
X146000853Y-98721818D01*
X146048464Y-98777544D01*
X146056940Y-98821322D01*
X146028360Y-98860060D01*
X146002217Y-98891083D01*
X145981097Y-98967409D01*
X145991144Y-99064419D01*
X146031079Y-99174403D01*
X146099622Y-99289651D01*
X146180293Y-99402513D01*
X146085559Y-99489970D01*
X146041031Y-99534677D01*
X146000653Y-99594637D01*
X145986871Y-99656742D01*
X145986288Y-99669742D01*
X145990333Y-99867140D01*
X146015763Y-100073945D01*
X146018829Y-100093675D01*
X146028424Y-100169176D01*
X146041341Y-100283444D01*
X146057069Y-100431177D01*
X146075100Y-100607071D01*
X146094922Y-100805822D01*
X146116027Y-101022128D01*
X146137904Y-101250684D01*
X146160044Y-101486189D01*
X146181938Y-101723338D01*
X146203075Y-101956829D01*
X146222946Y-102181357D01*
X146241040Y-102391620D01*
X146256850Y-102582314D01*
X146270319Y-102748757D01*
X146183003Y-102783644D01*
X146141205Y-102798829D01*
X146057356Y-102826433D01*
X145952421Y-102859047D01*
X145839834Y-102892414D01*
X145804042Y-102902859D01*
X145668689Y-102945739D01*
X145566338Y-102986336D01*
X145486584Y-103030144D01*
X145419026Y-103082657D01*
X145353261Y-103149367D01*
X145334261Y-103170582D01*
X145276334Y-103240024D01*
X145233047Y-103304990D01*
X145201989Y-103373992D01*
X145180749Y-103455545D01*
X145166915Y-103558161D01*
X145158077Y-103690356D01*
X145151824Y-103860642D01*
X145151165Y-103881934D01*
X145143823Y-104057358D01*
X145134362Y-104192281D01*
X145122965Y-104284678D01*
X145109810Y-104332523D01*
X145102607Y-104344418D01*
X145081326Y-104366164D01*
X145046653Y-104378386D01*
X144987525Y-104383758D01*
X144892880Y-104384954D01*
X144705382Y-104384954D01*
X144433470Y-104143806D01*
X144369166Y-104087072D01*
X144073046Y-103834475D01*
X143794490Y-103612559D01*
X143525497Y-103415404D01*
X143258063Y-103237092D01*
X142984187Y-103071703D01*
X142763394Y-102944718D01*
X142757114Y-102456323D01*
X142755815Y-102328643D01*
X142755753Y-102185027D01*
X142757962Y-102079720D01*
X142762662Y-102007889D01*
X142770074Y-101964704D01*
X142780417Y-101945331D01*
X142815149Y-101927101D01*
X142880457Y-101899766D01*
X142961468Y-101869692D01*
X143089627Y-101818855D01*
X143253999Y-101741887D01*
X143422965Y-101652709D01*
X143580162Y-101560014D01*
X143709227Y-101472493D01*
X143799259Y-101401226D01*
X144012942Y-101199739D01*
X144220966Y-100956464D01*
X144424617Y-100669808D01*
X144625184Y-100338176D01*
X144732079Y-100139200D01*
X144836495Y-99915839D01*
X144911556Y-99711985D01*
X144959437Y-99520370D01*
X144982311Y-99333728D01*
X144982355Y-99144792D01*
X144971700Y-99027908D01*
X144930270Y-98826656D01*
X144857668Y-98635022D01*
X144750683Y-98446776D01*
X144606103Y-98255688D01*
X144420713Y-98055527D01*
X144330018Y-97967931D01*
X144207002Y-97862537D01*
X144102404Y-97792436D01*
X144012269Y-97755136D01*
X143932643Y-97748147D01*
X143890476Y-97754887D01*
X143865415Y-97776100D01*
X143862868Y-97825229D01*
X143865749Y-97848493D01*
X143879861Y-97919154D01*
X143902586Y-98013127D01*
X143930688Y-98116514D01*
X143931958Y-98120940D01*
X143956023Y-98209523D01*
X143973102Y-98287520D01*
X143984436Y-98366368D01*
X143991262Y-98457504D01*
X143994821Y-98572364D01*
X143996352Y-98722385D01*
X143995027Y-98905591D01*
X143987335Y-99060210D01*
X143971398Y-99189063D01*
X143945377Y-99302642D01*
X143907439Y-99411441D01*
X143855745Y-99525953D01*
X143831441Y-99570798D01*
X143788439Y-99637102D01*
X143742905Y-99696759D01*
X143701782Y-99741635D01*
X143672016Y-99763600D01*
X143660550Y-99754521D01*
X143660553Y-99754239D01*
X143667298Y-99719829D01*
X143684529Y-99655091D01*
X143708582Y-99573804D01*
X143751065Y-99421684D01*
X143806014Y-99123796D01*
X143823669Y-98817274D01*
X143819139Y-98664814D01*
X143802979Y-98518769D01*
X143772374Y-98375561D01*
X143724517Y-98224758D01*
X143656604Y-98055925D01*
X143565827Y-97858628D01*
X143503844Y-97727807D01*
X143459472Y-97628871D01*
X143430602Y-97555107D01*
X143414399Y-97498292D01*
X143408030Y-97450205D01*
X143408660Y-97402622D01*
X143415871Y-97289266D01*
X143508971Y-97296813D01*
G37*
G36*
X140134971Y-94589645D02*
G01*
X140251709Y-94621922D01*
X140394618Y-94679196D01*
X140414873Y-94687922D01*
X140523410Y-94730015D01*
X140631392Y-94765571D01*
X140718144Y-94787658D01*
X140825108Y-94799916D01*
X140983018Y-94802195D01*
X141170073Y-94792248D01*
X141377932Y-94770548D01*
X141598257Y-94737569D01*
X141812667Y-94702993D01*
X142042368Y-94673511D01*
X142241076Y-94658917D01*
X142416209Y-94659666D01*
X142575185Y-94676211D01*
X142725421Y-94709007D01*
X142874334Y-94758508D01*
X143029341Y-94825167D01*
X143063449Y-94842218D01*
X143160003Y-94901005D01*
X143245378Y-94967068D01*
X143309116Y-95031648D01*
X143340757Y-95085984D01*
X143341626Y-95128840D01*
X143312740Y-95182222D01*
X143247436Y-95241555D01*
X143141821Y-95311245D01*
X143053882Y-95366258D01*
X142776461Y-95572963D01*
X142535026Y-95807838D01*
X142330889Y-96069270D01*
X142165363Y-96355646D01*
X142039760Y-96665355D01*
X142024498Y-96714153D01*
X141977002Y-96902688D01*
X141942313Y-97101687D01*
X141921300Y-97300390D01*
X141914834Y-97488038D01*
X141923785Y-97653873D01*
X141949024Y-97787134D01*
X141966632Y-97836211D01*
X142027209Y-97928110D01*
X142114540Y-97982161D01*
X142230675Y-97999913D01*
X142243935Y-97999752D01*
X142310763Y-97990325D01*
X142367858Y-97961157D01*
X142425533Y-97904992D01*
X142494096Y-97814577D01*
X142526459Y-97772081D01*
X142597417Y-97697516D01*
X142666280Y-97646409D01*
X142722614Y-97627310D01*
X142737130Y-97646818D01*
X142747066Y-97703350D01*
X142751643Y-97787308D01*
X142750942Y-97889033D01*
X142745038Y-97998869D01*
X142734012Y-98107160D01*
X142717941Y-98204248D01*
X142714241Y-98221563D01*
X142680419Y-98356858D01*
X142638155Y-98482662D01*
X142583507Y-98606190D01*
X142512537Y-98734660D01*
X142421305Y-98875286D01*
X142305869Y-99035284D01*
X142162290Y-99221871D01*
X142082342Y-99325917D01*
X141967918Y-99488705D01*
X141881614Y-99636821D01*
X141819249Y-99780711D01*
X141776638Y-99930820D01*
X141749599Y-100097593D01*
X141733949Y-100291476D01*
X141729437Y-100367656D01*
X141720508Y-100472386D01*
X141708879Y-100546023D01*
X141692734Y-100598502D01*
X141670254Y-100639758D01*
X141614875Y-100703308D01*
X141498915Y-100779670D01*
X141344431Y-100833388D01*
X141238666Y-100851868D01*
X141079209Y-100862823D01*
X140912047Y-100859228D01*
X140757812Y-100840821D01*
X140692832Y-100827378D01*
X140470431Y-100759485D01*
X140255015Y-100661884D01*
X140053187Y-100539556D01*
X139871552Y-100397480D01*
X139716712Y-100240638D01*
X139595270Y-100074009D01*
X139513830Y-99902575D01*
X139499997Y-99863230D01*
X139457929Y-99759350D01*
X139411043Y-99676245D01*
X139348758Y-99597358D01*
X139260494Y-99506128D01*
X139241189Y-99486792D01*
X139127302Y-99349617D01*
X139038161Y-99191541D01*
X139024947Y-99162335D01*
X138961396Y-98996646D01*
X138902759Y-98805335D01*
X138853262Y-98605102D01*
X138817130Y-98412649D01*
X138798589Y-98244679D01*
X138797373Y-98220981D01*
X138796978Y-98091289D01*
X138813365Y-97993709D01*
X138851930Y-97916739D01*
X138918065Y-97848878D01*
X139017166Y-97778624D01*
X139096277Y-97722409D01*
X139176192Y-97641281D01*
X139219710Y-97553000D01*
X139232515Y-97448864D01*
X139229585Y-97408912D01*
X139203009Y-97303851D01*
X139155953Y-97203605D01*
X139097237Y-97129026D01*
X139083639Y-97117496D01*
X139061197Y-97103850D01*
X139031432Y-97096386D01*
X138986568Y-97095085D01*
X138918827Y-97099927D01*
X138820433Y-97110890D01*
X138683610Y-97127956D01*
X138618338Y-97134699D01*
X138571987Y-97129307D01*
X138533767Y-97103192D01*
X138484704Y-97048805D01*
X138411049Y-96951405D01*
X138318791Y-96796705D01*
X138237886Y-96625079D01*
X138173484Y-96449242D01*
X138130736Y-96281904D01*
X138114792Y-96135780D01*
X138114559Y-96127146D01*
X138105887Y-96080713D01*
X138080854Y-96028130D01*
X138034177Y-95960218D01*
X137960576Y-95867798D01*
X137915585Y-95811808D01*
X137796919Y-95643129D01*
X137718213Y-95490295D01*
X137678206Y-95349382D01*
X137675632Y-95216467D01*
X137709227Y-95087628D01*
X137729682Y-95042721D01*
X137761656Y-95004327D01*
X137803771Y-94993945D01*
X137875022Y-94999996D01*
X137970829Y-95022167D01*
X138089459Y-95062497D01*
X138236610Y-95122947D01*
X138417984Y-95205482D01*
X138475905Y-95232319D01*
X138603773Y-95289019D01*
X138723747Y-95339064D01*
X138824513Y-95377824D01*
X138894761Y-95400666D01*
X138923454Y-95407671D01*
X139080287Y-95431987D01*
X139239233Y-95436304D01*
X139385394Y-95420971D01*
X139503872Y-95386338D01*
X139519122Y-95379856D01*
X139604725Y-95352982D01*
X139710909Y-95335654D01*
X139850550Y-95325616D01*
X139973642Y-95317091D01*
X140078435Y-95301394D01*
X140139600Y-95279875D01*
X140166789Y-95261412D01*
X140179650Y-95241424D01*
X140157256Y-95223025D01*
X140152979Y-95220922D01*
X140105723Y-95205778D01*
X140029325Y-95187465D01*
X139938115Y-95169483D01*
X139921378Y-95166478D01*
X139831593Y-95149168D01*
X139758988Y-95133299D01*
X139717957Y-95121978D01*
X139706507Y-95116575D01*
X139653143Y-95065779D01*
X139613922Y-94987534D01*
X139597374Y-94897703D01*
X139614170Y-94812403D01*
X139671398Y-94727474D01*
X139763069Y-94656465D01*
X139882878Y-94605823D01*
X139931964Y-94593198D01*
X140032394Y-94580645D01*
X140134971Y-94589645D01*
G37*
G36*
X147471505Y-110618440D02*
G01*
X147617883Y-110674863D01*
X147819819Y-110755130D01*
X147985388Y-110824065D01*
X148117015Y-110882861D01*
X148217125Y-110932711D01*
X148288142Y-110974809D01*
X148332493Y-111010348D01*
X148352602Y-111040521D01*
X148350894Y-111066520D01*
X148329794Y-111089540D01*
X148325784Y-111092282D01*
X148290566Y-111106776D01*
X148237874Y-111114943D01*
X148164904Y-111116397D01*
X148068858Y-111110753D01*
X147946934Y-111097627D01*
X147796332Y-111076634D01*
X147614252Y-111047388D01*
X147397893Y-111009506D01*
X147144455Y-110962601D01*
X146851136Y-110906291D01*
X146515137Y-110840188D01*
X146384837Y-110814395D01*
X146175074Y-110773073D01*
X145930442Y-110725062D01*
X145657176Y-110671579D01*
X145385070Y-110618440D01*
X146736513Y-110618440D01*
X146748165Y-110630092D01*
X146759816Y-110618440D01*
X146748165Y-110606789D01*
X146736513Y-110618440D01*
X145385070Y-110618440D01*
X145361510Y-110613839D01*
X145049680Y-110553059D01*
X144727921Y-110490455D01*
X144402467Y-110427242D01*
X144079552Y-110364638D01*
X143765413Y-110303858D01*
X143515238Y-110255490D01*
X142838510Y-110124464D01*
X142201009Y-110000719D01*
X141597879Y-109883293D01*
X141024261Y-109771223D01*
X140475297Y-109663546D01*
X139946129Y-109559298D01*
X139431899Y-109457516D01*
X138927748Y-109357238D01*
X138428820Y-109257501D01*
X137930255Y-109157341D01*
X137427197Y-109055795D01*
X136914786Y-108951900D01*
X136388166Y-108844694D01*
X135842477Y-108733213D01*
X135782307Y-108720864D01*
X135653812Y-108694368D01*
X135486961Y-108659860D01*
X135286179Y-108618259D01*
X135055892Y-108570485D01*
X134800529Y-108517456D01*
X134524514Y-108460091D01*
X134232275Y-108399312D01*
X133928238Y-108336035D01*
X133616830Y-108271182D01*
X133302477Y-108205672D01*
X133046595Y-108152517D01*
X132749103Y-108091201D01*
X132464160Y-108032981D01*
X132195439Y-107978583D01*
X131946612Y-107928733D01*
X131721350Y-107884156D01*
X131523327Y-107845580D01*
X131356214Y-107813729D01*
X131223685Y-107789330D01*
X131129411Y-107773108D01*
X131077064Y-107765790D01*
X131029111Y-107761245D01*
X130917109Y-107745348D01*
X130838291Y-107722612D01*
X130782698Y-107689375D01*
X130740369Y-107641974D01*
X130709375Y-107575610D01*
X130714892Y-107502760D01*
X130765619Y-107439306D01*
X130772182Y-107434409D01*
X130853386Y-107400799D01*
X130968103Y-107392124D01*
X131118263Y-107408420D01*
X131305796Y-107449725D01*
X131337910Y-107457838D01*
X131410603Y-107475141D01*
X131506675Y-107496927D01*
X131628155Y-107523622D01*
X131777073Y-107555649D01*
X131955456Y-107593432D01*
X132165335Y-107637396D01*
X132408738Y-107687965D01*
X132687694Y-107745562D01*
X133004233Y-107810614D01*
X133360383Y-107883542D01*
X133758173Y-107964773D01*
X134199633Y-108054729D01*
X134411689Y-108097976D01*
X134668639Y-108150520D01*
X134940090Y-108206152D01*
X135210999Y-108261783D01*
X135466320Y-108314329D01*
X135691009Y-108360701D01*
X135870878Y-108397817D01*
X136146299Y-108454433D01*
X136464267Y-108519587D01*
X136822995Y-108592915D01*
X137220697Y-108674055D01*
X137655586Y-108762641D01*
X138125874Y-108858311D01*
X138629776Y-108960701D01*
X139165504Y-109069447D01*
X139731272Y-109184185D01*
X140325293Y-109304552D01*
X140945780Y-109430184D01*
X141070970Y-109455538D01*
X141401960Y-109522695D01*
X141748374Y-109593145D01*
X142102575Y-109665326D01*
X142456921Y-109737674D01*
X142803775Y-109808629D01*
X143135498Y-109876628D01*
X143444450Y-109940109D01*
X143722992Y-109997509D01*
X143963486Y-110047268D01*
X144095365Y-110074622D01*
X144549367Y-110168719D01*
X144958340Y-110253358D01*
X145322742Y-110328635D01*
X145643029Y-110394641D01*
X145919659Y-110451472D01*
X146153090Y-110499220D01*
X146343778Y-110537979D01*
X146492180Y-110567843D01*
X146598755Y-110588905D01*
X146663960Y-110601259D01*
X146688251Y-110604998D01*
X146682122Y-110600586D01*
X146639358Y-110583671D01*
X146562107Y-110555927D01*
X146456093Y-110519269D01*
X146327037Y-110475614D01*
X146180663Y-110426877D01*
X146022692Y-110374973D01*
X145858846Y-110321818D01*
X145694849Y-110269327D01*
X145536422Y-110219417D01*
X145533604Y-110218537D01*
X145212166Y-110119421D01*
X144884349Y-110020781D01*
X144547537Y-109921939D01*
X144199117Y-109822220D01*
X143836474Y-109720947D01*
X143456994Y-109617444D01*
X143058064Y-109511033D01*
X142637070Y-109401040D01*
X142191397Y-109286788D01*
X141718431Y-109167599D01*
X141215558Y-109042797D01*
X140680164Y-108911707D01*
X140109636Y-108773652D01*
X139501358Y-108627955D01*
X138852718Y-108473939D01*
X138161101Y-108310929D01*
X137866638Y-108241701D01*
X137278057Y-108102960D01*
X136730580Y-107973344D01*
X136221251Y-107852098D01*
X135747110Y-107738469D01*
X135305198Y-107631705D01*
X134892557Y-107531052D01*
X134506227Y-107435758D01*
X134143251Y-107345070D01*
X133800668Y-107258234D01*
X133475521Y-107174497D01*
X133164851Y-107093107D01*
X132865699Y-107013310D01*
X132575106Y-106934354D01*
X132290114Y-106855485D01*
X132007763Y-106775951D01*
X131725095Y-106694998D01*
X131439151Y-106611873D01*
X131146972Y-106525824D01*
X131013014Y-106485735D01*
X130747281Y-106402965D01*
X130520275Y-106326762D01*
X130327254Y-106255038D01*
X130163478Y-106185701D01*
X130024209Y-106116662D01*
X129904706Y-106045830D01*
X129800229Y-105971116D01*
X129706039Y-105890429D01*
X129636388Y-105815449D01*
X129580166Y-105715519D01*
X129562385Y-105608349D01*
X129566918Y-105552084D01*
X129598733Y-105459876D01*
X129662967Y-105377826D01*
X129761971Y-105304669D01*
X129898099Y-105239140D01*
X130073703Y-105179973D01*
X130291136Y-105125903D01*
X130552752Y-105075664D01*
X130629188Y-105062787D01*
X130739141Y-105045208D01*
X130851232Y-105028643D01*
X130970996Y-105012442D01*
X131103966Y-104995952D01*
X131255678Y-104978522D01*
X131431667Y-104959500D01*
X131637467Y-104938235D01*
X131878614Y-104914075D01*
X132160642Y-104886368D01*
X132361838Y-104865812D01*
X132729241Y-104822380D01*
X133057827Y-104774480D01*
X133352729Y-104720880D01*
X133619079Y-104660346D01*
X133862009Y-104591647D01*
X134086653Y-104513551D01*
X134298141Y-104424824D01*
X134501608Y-104324235D01*
X134656836Y-104234817D01*
X134855843Y-104102559D01*
X135051427Y-103954898D01*
X135233594Y-103799937D01*
X135392353Y-103645774D01*
X135517710Y-103500512D01*
X135537377Y-103475225D01*
X135588587Y-103418268D01*
X135631582Y-103390348D01*
X135677986Y-103382936D01*
X135702750Y-103384533D01*
X135775596Y-103403393D01*
X135866690Y-103445281D01*
X135979948Y-103512433D01*
X136119287Y-103607083D01*
X136288622Y-103731467D01*
X136351903Y-103778829D01*
X136456793Y-103855771D01*
X136549365Y-103921804D01*
X136621402Y-103971104D01*
X136664684Y-103997852D01*
X136737876Y-104025580D01*
X136824779Y-104035483D01*
X136899906Y-104021615D01*
X136952714Y-103986244D01*
X136972660Y-103931637D01*
X136977091Y-103875339D01*
X137002324Y-103820197D01*
X137051257Y-103802385D01*
X137074372Y-103806722D01*
X137138987Y-103832605D01*
X137226590Y-103877243D01*
X137327705Y-103935353D01*
X137432861Y-104001649D01*
X137532581Y-104070848D01*
X137611127Y-104123970D01*
X137759566Y-104196089D01*
X137901180Y-104224130D01*
X138039955Y-104208582D01*
X138179877Y-104149931D01*
X138257821Y-104110194D01*
X138323597Y-104090278D01*
X138381425Y-104091935D01*
X138389405Y-104094020D01*
X138445780Y-104121842D01*
X138531611Y-104177557D01*
X138642759Y-104258333D01*
X138775088Y-104361341D01*
X138829713Y-104404821D01*
X138987104Y-104527094D01*
X139112754Y-104619114D01*
X139208588Y-104681917D01*
X139276530Y-104716542D01*
X139318503Y-104724025D01*
X139336432Y-104705404D01*
X139332239Y-104661715D01*
X139316640Y-104628390D01*
X139269587Y-104564741D01*
X139191389Y-104477558D01*
X139080967Y-104365760D01*
X138937246Y-104228265D01*
X138759148Y-104063993D01*
X138545596Y-103871862D01*
X138454815Y-103790687D01*
X138232963Y-103589288D01*
X138045687Y-103413983D01*
X137891424Y-103262863D01*
X137768611Y-103134017D01*
X137675686Y-103025537D01*
X137611087Y-102935511D01*
X137573251Y-102862029D01*
X137560616Y-102803183D01*
X137571618Y-102757062D01*
X137604696Y-102721756D01*
X137650073Y-102699634D01*
X137753800Y-102686732D01*
X137890542Y-102704326D01*
X138059147Y-102752136D01*
X138258464Y-102829880D01*
X138487339Y-102937278D01*
X138519387Y-102953450D01*
X138660841Y-103026890D01*
X138808463Y-103107093D01*
X138966893Y-103196814D01*
X139140771Y-103298806D01*
X139334738Y-103415824D01*
X139553434Y-103550622D01*
X139801501Y-103705953D01*
X140083578Y-103884572D01*
X140329278Y-104040626D01*
X140658064Y-104248660D01*
X140953517Y-104434465D01*
X141218979Y-104600031D01*
X141457794Y-104747346D01*
X141673302Y-104878401D01*
X141868845Y-104995185D01*
X142047766Y-105099687D01*
X142213406Y-105193897D01*
X142369108Y-105279805D01*
X142518213Y-105359399D01*
X142664063Y-105434669D01*
X142810000Y-105507604D01*
X142879995Y-105541967D01*
X142995727Y-105597826D01*
X143078326Y-105635536D01*
X143133425Y-105657147D01*
X143166654Y-105664707D01*
X143183648Y-105660266D01*
X143190038Y-105645873D01*
X143191119Y-105634300D01*
X143186287Y-105593854D01*
X143168308Y-105540717D01*
X143135456Y-105472219D01*
X143086003Y-105385691D01*
X143018220Y-105278463D01*
X142930380Y-105147863D01*
X142820754Y-104991222D01*
X142687614Y-104805869D01*
X142529233Y-104589135D01*
X142343882Y-104338349D01*
X142220740Y-104172150D01*
X142068151Y-103965070D01*
X141940327Y-103789790D01*
X141835220Y-103643219D01*
X141750778Y-103522264D01*
X141684952Y-103423836D01*
X141635691Y-103344842D01*
X141600946Y-103282192D01*
X141578666Y-103232795D01*
X141566802Y-103193560D01*
X141563302Y-103161394D01*
X141572676Y-103096436D01*
X141620500Y-103020684D01*
X141646458Y-102997472D01*
X141687318Y-102975894D01*
X141744554Y-102965914D01*
X141833214Y-102963486D01*
X141871808Y-102963910D01*
X141959756Y-102971642D01*
X142034306Y-102993913D01*
X142119732Y-103036948D01*
X142285079Y-103131104D01*
X142503102Y-103259716D01*
X142726855Y-103396951D01*
X142958840Y-103544581D01*
X143201561Y-103704375D01*
X143457522Y-103878107D01*
X143729225Y-104067546D01*
X144019173Y-104274464D01*
X144329871Y-104500633D01*
X144663821Y-104747824D01*
X145023526Y-105017808D01*
X145411490Y-105312355D01*
X145830216Y-105633239D01*
X146282207Y-105982228D01*
X146359733Y-106042256D01*
X146669950Y-106281906D01*
X146947216Y-106495032D01*
X147194370Y-106683675D01*
X147414250Y-106849874D01*
X147609695Y-106995670D01*
X147783543Y-107123100D01*
X147938634Y-107234207D01*
X148077805Y-107331027D01*
X148203895Y-107415603D01*
X148319744Y-107489972D01*
X148428188Y-107556176D01*
X148532068Y-107616253D01*
X148634221Y-107672242D01*
X148718352Y-107715942D01*
X148815271Y-107759662D01*
X148884571Y-107778197D01*
X148933024Y-107771789D01*
X148967408Y-107740680D01*
X148994494Y-107685113D01*
X149009293Y-107638789D01*
X149017133Y-107581950D01*
X149014395Y-107509774D01*
X149001458Y-107407151D01*
X148997578Y-107379666D01*
X148987497Y-107296173D01*
X148982779Y-107235513D01*
X148984421Y-107209279D01*
X149002425Y-107206829D01*
X149055536Y-107209994D01*
X149129484Y-107219259D01*
X149264244Y-107239541D01*
X149305184Y-107391009D01*
X149347797Y-107582465D01*
X149363842Y-107752367D01*
X149349548Y-107887030D01*
X149304906Y-107986535D01*
X149229908Y-108050962D01*
X149195814Y-108066551D01*
X149139423Y-108081234D01*
X149066359Y-108085539D01*
X148961926Y-108081121D01*
X148941696Y-108079715D01*
X148807452Y-108064974D01*
X148688984Y-108039232D01*
X148573249Y-107997962D01*
X148447202Y-107936640D01*
X148297798Y-107850740D01*
X148289490Y-107845723D01*
X148186508Y-107781854D01*
X148077120Y-107710736D01*
X147958629Y-107630347D01*
X147828337Y-107538664D01*
X147683547Y-107433664D01*
X147521559Y-107313324D01*
X147339678Y-107175622D01*
X147135204Y-107018534D01*
X146905440Y-106840037D01*
X146647688Y-106638110D01*
X146359251Y-106410729D01*
X146037431Y-106155871D01*
X145859463Y-106014879D01*
X145454640Y-105695729D01*
X145069792Y-105394546D01*
X144706882Y-105112829D01*
X144367878Y-104852078D01*
X144054745Y-104613793D01*
X143769447Y-104399472D01*
X143513951Y-104210614D01*
X143290222Y-104048720D01*
X143100226Y-103915289D01*
X142981847Y-103835711D01*
X142838793Y-103742739D01*
X142682669Y-103643727D01*
X142522116Y-103543988D01*
X142365777Y-103448837D01*
X142222295Y-103363586D01*
X142100313Y-103293551D01*
X142008472Y-103244043D01*
X141906028Y-103192089D01*
X141919909Y-103277629D01*
X141927914Y-103315204D01*
X141945801Y-103367299D01*
X141974939Y-103427161D01*
X142018395Y-103499486D01*
X142079240Y-103588971D01*
X142160542Y-103700312D01*
X142265372Y-103838206D01*
X142396797Y-104007349D01*
X142413969Y-104029307D01*
X142599143Y-104266693D01*
X142757955Y-104471732D01*
X142893003Y-104648101D01*
X143006888Y-104799473D01*
X143102209Y-104929524D01*
X143181565Y-105041929D01*
X143247556Y-105140364D01*
X143302782Y-105228503D01*
X143349840Y-105310021D01*
X143391333Y-105388594D01*
X143429857Y-105467897D01*
X143459227Y-105533170D01*
X143515967Y-105687578D01*
X143540666Y-105813198D01*
X143534029Y-105913033D01*
X143525386Y-105942057D01*
X143507774Y-105963032D01*
X143471048Y-105967347D01*
X143401738Y-105959760D01*
X143325939Y-105945658D01*
X143168376Y-105899514D01*
X142974838Y-105825693D01*
X142746023Y-105724539D01*
X142482630Y-105596399D01*
X142185357Y-105441617D01*
X141854904Y-105260539D01*
X141491968Y-105053509D01*
X141097247Y-104820873D01*
X140997021Y-104760722D01*
X140896383Y-104699778D01*
X140791061Y-104635370D01*
X140676727Y-104564798D01*
X140549057Y-104485361D01*
X140403725Y-104394360D01*
X140236405Y-104289093D01*
X140042773Y-104166859D01*
X139818501Y-104024960D01*
X139559266Y-103860693D01*
X139345294Y-103725342D01*
X139057237Y-103544336D01*
X138805836Y-103388013D01*
X138589843Y-103255637D01*
X138408011Y-103146474D01*
X138259091Y-103059790D01*
X138141837Y-102994848D01*
X138054999Y-102950914D01*
X137997331Y-102927253D01*
X137967584Y-102923129D01*
X137964711Y-102927610D01*
X137980400Y-102958916D01*
X138025293Y-103015899D01*
X138095613Y-103094561D01*
X138187589Y-103190906D01*
X138297445Y-103300935D01*
X138421407Y-103420650D01*
X138555701Y-103546055D01*
X138595805Y-103583001D01*
X138764145Y-103740533D01*
X138928858Y-103898364D01*
X139085516Y-104051997D01*
X139229690Y-104196931D01*
X139356951Y-104328668D01*
X139462870Y-104442710D01*
X139543018Y-104534558D01*
X139592967Y-104599712D01*
X139598851Y-104608695D01*
X139663233Y-104729374D01*
X139692970Y-104836216D01*
X139694643Y-104851796D01*
X139696279Y-104912477D01*
X139681010Y-104949208D01*
X139642422Y-104980271D01*
X139625959Y-104990514D01*
X139584130Y-105007378D01*
X139534125Y-105007972D01*
X139457749Y-104993611D01*
X139346293Y-104960207D01*
X139189773Y-104894216D01*
X139019888Y-104805992D01*
X138847223Y-104701567D01*
X138682362Y-104586972D01*
X138535889Y-104468241D01*
X138494211Y-104432508D01*
X138432277Y-104389495D01*
X138372814Y-104368882D01*
X138304530Y-104369744D01*
X138216136Y-104391153D01*
X138096341Y-104432184D01*
X138020968Y-104457882D01*
X137957090Y-104471880D01*
X137898263Y-104471013D01*
X137824269Y-104457136D01*
X137755530Y-104434604D01*
X137655209Y-104390088D01*
X137542436Y-104332076D01*
X137430515Y-104267845D01*
X137332749Y-104204672D01*
X137262443Y-104149834D01*
X137229835Y-104124306D01*
X137169105Y-104106428D01*
X137110199Y-104132780D01*
X137049221Y-104204358D01*
X137045293Y-104210189D01*
X136998781Y-104269693D01*
X136954233Y-104299366D01*
X136894977Y-104310701D01*
X136864758Y-104311640D01*
X136805241Y-104303759D01*
X136737614Y-104280776D01*
X136656353Y-104239729D01*
X136555930Y-104177656D01*
X136430822Y-104091593D01*
X136275501Y-103978579D01*
X136157763Y-103892298D01*
X136042482Y-103811063D01*
X135952001Y-103752826D01*
X135879936Y-103714249D01*
X135819907Y-103691996D01*
X135765531Y-103682729D01*
X135710426Y-103683111D01*
X135697383Y-103689072D01*
X135657414Y-103725534D01*
X135603976Y-103787581D01*
X135544962Y-103866468D01*
X135378541Y-104074851D01*
X135176890Y-104269549D01*
X134944017Y-104442803D01*
X134677771Y-104595695D01*
X134375998Y-104729305D01*
X134036545Y-104844714D01*
X133657259Y-104943003D01*
X133235986Y-105025252D01*
X133105574Y-105046451D01*
X132947829Y-105069947D01*
X132780926Y-105092313D01*
X132598642Y-105114255D01*
X132394751Y-105136479D01*
X132163030Y-105159693D01*
X131897255Y-105184601D01*
X131591202Y-105211911D01*
X131483617Y-105221534D01*
X131176225Y-105251789D01*
X130911279Y-105282693D01*
X130685628Y-105314864D01*
X130496121Y-105348918D01*
X130339604Y-105385473D01*
X130212927Y-105425145D01*
X130112938Y-105468551D01*
X130036483Y-105516310D01*
X129989672Y-105559323D01*
X129962769Y-105616930D01*
X129979825Y-105677699D01*
X130040952Y-105747465D01*
X130063852Y-105767541D01*
X130122315Y-105811845D01*
X130192675Y-105855631D01*
X130277970Y-105899941D01*
X130381237Y-105945814D01*
X130505512Y-105994293D01*
X130653833Y-106046418D01*
X130829237Y-106103231D01*
X131034760Y-106165773D01*
X131273440Y-106235084D01*
X131548314Y-106312206D01*
X131862419Y-106398180D01*
X132218791Y-106494047D01*
X132404267Y-106543468D01*
X132699639Y-106621511D01*
X132993871Y-106698370D01*
X133290551Y-106774922D01*
X133593261Y-106852048D01*
X133905588Y-106930627D01*
X134231116Y-107011538D01*
X134573430Y-107095659D01*
X134936115Y-107183871D01*
X135322756Y-107277053D01*
X135736938Y-107376083D01*
X136182246Y-107481841D01*
X136662265Y-107595206D01*
X137180580Y-107717057D01*
X137740775Y-107848273D01*
X138351411Y-107991468D01*
X138923470Y-108126479D01*
X139456622Y-108253328D01*
X139954195Y-108372892D01*
X140419513Y-108486045D01*
X140855905Y-108593664D01*
X141266695Y-108696624D01*
X141655211Y-108795803D01*
X142024779Y-108892074D01*
X142378724Y-108986316D01*
X142720374Y-109079402D01*
X143053055Y-109172211D01*
X143380094Y-109265616D01*
X143704815Y-109360495D01*
X144030547Y-109457723D01*
X144360614Y-109558176D01*
X144698345Y-109662730D01*
X145047064Y-109772261D01*
X145060537Y-109776519D01*
X145200471Y-109820657D01*
X145328620Y-109860931D01*
X145436824Y-109894787D01*
X145516921Y-109919671D01*
X145560751Y-109933030D01*
X145571679Y-109936365D01*
X145634555Y-109956998D01*
X145732306Y-109990253D01*
X145858011Y-110033688D01*
X146004749Y-110084862D01*
X146165598Y-110141334D01*
X146333637Y-110200661D01*
X146501946Y-110260402D01*
X146663603Y-110318115D01*
X146811686Y-110371360D01*
X146939276Y-110417693D01*
X147039449Y-110454674D01*
X147095210Y-110475562D01*
X147377155Y-110582072D01*
X147471505Y-110618440D01*
G37*
G36*
X139800930Y-81533203D02*
G01*
X139934380Y-81584183D01*
X140014699Y-81617148D01*
X140140063Y-81665649D01*
X140277183Y-81716288D01*
X140408034Y-81762287D01*
X140427096Y-81768760D01*
X140535560Y-81804398D01*
X140624582Y-81829832D01*
X140707369Y-81847406D01*
X140797122Y-81859469D01*
X140907048Y-81868367D01*
X141050350Y-81876446D01*
X141080048Y-81878020D01*
X141243470Y-81889052D01*
X141370251Y-81902732D01*
X141468979Y-81920200D01*
X141548244Y-81942599D01*
X141559612Y-81946833D01*
X141626922Y-81976051D01*
X141727237Y-82023455D01*
X141854269Y-82085799D01*
X142001733Y-82159836D01*
X142163342Y-82242318D01*
X142332808Y-82329998D01*
X142503846Y-82419630D01*
X142670169Y-82507965D01*
X142825490Y-82591758D01*
X142963523Y-82667760D01*
X143077981Y-82732725D01*
X143094233Y-82742242D01*
X143203248Y-82808900D01*
X143332559Y-82891554D01*
X143467351Y-82980601D01*
X143592815Y-83066441D01*
X143622520Y-83087136D01*
X143791544Y-83200720D01*
X143933942Y-83287332D01*
X144056908Y-83350295D01*
X144167636Y-83392931D01*
X144273319Y-83418562D01*
X144381151Y-83430512D01*
X144390881Y-83431025D01*
X144542366Y-83429041D01*
X144656998Y-83405759D01*
X144671827Y-83400757D01*
X144739771Y-83385380D01*
X144771394Y-83395586D01*
X144773432Y-83399817D01*
X144764376Y-83432741D01*
X144725100Y-83467436D01*
X144668521Y-83495119D01*
X144607556Y-83507003D01*
X144605894Y-83507040D01*
X144530786Y-83516398D01*
X144452844Y-83536392D01*
X144436924Y-83541994D01*
X144393007Y-83563807D01*
X144377142Y-83596377D01*
X144378440Y-83657417D01*
X144380106Y-83676040D01*
X144408422Y-83818365D01*
X144459848Y-83942251D01*
X144529100Y-84034474D01*
X144544478Y-84048241D01*
X144609218Y-84100177D01*
X144693989Y-84162788D01*
X144784553Y-84225432D01*
X144841714Y-84264879D01*
X144935636Y-84341210D01*
X144995147Y-84413102D01*
X145026366Y-84489156D01*
X145035413Y-84577970D01*
X145037688Y-84622595D01*
X145051780Y-84670555D01*
X145085796Y-84719249D01*
X145147690Y-84783213D01*
X145189509Y-84827291D01*
X145302025Y-84987649D01*
X145390934Y-85184605D01*
X145454445Y-85414476D01*
X145455824Y-85421317D01*
X145472133Y-85516787D01*
X145488523Y-85636093D01*
X145504227Y-85770480D01*
X145518477Y-85911191D01*
X145530506Y-86049471D01*
X145539548Y-86176564D01*
X145544834Y-86283714D01*
X145545599Y-86362165D01*
X145541073Y-86403162D01*
X145537521Y-86409401D01*
X145499347Y-86436080D01*
X145438610Y-86454816D01*
X145344881Y-86479576D01*
X145274554Y-86523528D01*
X145246627Y-86584516D01*
X145260173Y-86663627D01*
X145263156Y-86669113D01*
X145297052Y-86704054D01*
X145357618Y-86752139D01*
X145434124Y-86804672D01*
X145516771Y-86862236D01*
X145582363Y-86921946D01*
X145632502Y-86990241D01*
X145670595Y-87074721D01*
X145700054Y-87182983D01*
X145724289Y-87322627D01*
X145746707Y-87501250D01*
X145754935Y-87556504D01*
X145778465Y-87662739D01*
X145807134Y-87753717D01*
X145833042Y-87834678D01*
X145858563Y-87939938D01*
X145877871Y-88045861D01*
X145894654Y-88146579D01*
X145919877Y-88241863D01*
X145955498Y-88311710D01*
X146007988Y-88367955D01*
X146083818Y-88422429D01*
X146112473Y-88440539D01*
X146159664Y-88471835D01*
X146181144Y-88497875D01*
X146177616Y-88530122D01*
X146149786Y-88580037D01*
X146098357Y-88659084D01*
X146076816Y-88710440D01*
X146055324Y-88814453D01*
X146038942Y-88964409D01*
X146033449Y-89029768D01*
X146021728Y-89135304D01*
X146006307Y-89210594D01*
X145983364Y-89266625D01*
X145949076Y-89314386D01*
X145899620Y-89364864D01*
X145841903Y-89446593D01*
X145829344Y-89537537D01*
X145862660Y-89634312D01*
X145872409Y-89652322D01*
X145896907Y-89729849D01*
X145880134Y-89787707D01*
X145821516Y-89828602D01*
X145793681Y-89841993D01*
X145695269Y-89920786D01*
X145606637Y-90044005D01*
X145528604Y-90210581D01*
X145503595Y-90271808D01*
X145459587Y-90373855D01*
X145402278Y-90503158D01*
X145335200Y-90651830D01*
X145261885Y-90811986D01*
X145185865Y-90975740D01*
X145118692Y-91121100D01*
X145046028Y-91282204D01*
X144979850Y-91432864D01*
X144923570Y-91565184D01*
X144880598Y-91671265D01*
X144854348Y-91743211D01*
X144831165Y-91812898D01*
X144795312Y-91904706D01*
X144763444Y-91959415D01*
X144731934Y-91982471D01*
X144697157Y-91979323D01*
X144686315Y-91972364D01*
X144672219Y-91941383D01*
X144669951Y-91884307D01*
X144679915Y-91796503D01*
X144702516Y-91673339D01*
X144738159Y-91510184D01*
X144756092Y-91416568D01*
X144778288Y-91217787D01*
X144786984Y-90992592D01*
X144782236Y-90752715D01*
X144764094Y-90509886D01*
X144732611Y-90275837D01*
X144721833Y-90214774D01*
X144696858Y-90086036D01*
X144667185Y-89945266D01*
X144634278Y-89798219D01*
X144599600Y-89650653D01*
X144564617Y-89508324D01*
X144530790Y-89376988D01*
X144499585Y-89262403D01*
X144472464Y-89170325D01*
X144450892Y-89106510D01*
X144436332Y-89076715D01*
X144430248Y-89086697D01*
X144429495Y-89100331D01*
X144420744Y-89172765D01*
X144407271Y-89226514D01*
X144400321Y-89242972D01*
X144392077Y-89254531D01*
X144383978Y-89245752D01*
X144373726Y-89210291D01*
X144359026Y-89141802D01*
X144337581Y-89033938D01*
X144320547Y-88957245D01*
X144282586Y-88842216D01*
X144232510Y-88757220D01*
X144164904Y-88691522D01*
X144129892Y-88667823D01*
X144052129Y-88631313D01*
X143977430Y-88613615D01*
X143917864Y-88616823D01*
X143885501Y-88643033D01*
X143879572Y-88671794D01*
X143894735Y-88722868D01*
X143945087Y-88781205D01*
X144034502Y-88852241D01*
X144107566Y-88912329D01*
X144173978Y-88998387D01*
X144209370Y-89101925D01*
X144219816Y-89235511D01*
X144219810Y-89241652D01*
X144216316Y-89343206D01*
X144204637Y-89406398D01*
X144182155Y-89438775D01*
X144146258Y-89447890D01*
X144119445Y-89445433D01*
X144044832Y-89416711D01*
X143956064Y-89353387D01*
X143848667Y-89252522D01*
X143802083Y-89205356D01*
X143755746Y-89161888D01*
X143728115Y-89145084D01*
X143711113Y-89150826D01*
X143696667Y-89174993D01*
X143694086Y-89179404D01*
X143656072Y-89216524D01*
X143590035Y-89262379D01*
X143508550Y-89308074D01*
X143439966Y-89342949D01*
X143386303Y-89374390D01*
X143359501Y-89401243D01*
X143351342Y-89432466D01*
X143353611Y-89477018D01*
X143355383Y-89498357D01*
X143354095Y-89544231D01*
X143332821Y-89561656D01*
X143279953Y-89564404D01*
X143227892Y-89559483D01*
X143141881Y-89542691D01*
X143050929Y-89518099D01*
X143013916Y-89506821D01*
X142897720Y-89478405D01*
X142816145Y-89474021D01*
X142764059Y-89495313D01*
X142736326Y-89543924D01*
X142727813Y-89621496D01*
X142727186Y-89715872D01*
X142659194Y-89634312D01*
X142652316Y-89625927D01*
X142576358Y-89519287D01*
X142490896Y-89377936D01*
X142400293Y-89210646D01*
X142308913Y-89026188D01*
X142221119Y-88833334D01*
X142141276Y-88640855D01*
X142073748Y-88457523D01*
X142063238Y-88424478D01*
X142032468Y-88286204D01*
X142017552Y-88140199D01*
X142017677Y-87995301D01*
X142032028Y-87860346D01*
X142059794Y-87744173D01*
X142100161Y-87655620D01*
X142152316Y-87603524D01*
X142199180Y-87587402D01*
X142276010Y-87570035D01*
X142365838Y-87555325D01*
X142454983Y-87543330D01*
X142547255Y-87530752D01*
X142614286Y-87521437D01*
X142623483Y-87520331D01*
X142688434Y-87522936D01*
X142771003Y-87544376D01*
X142882268Y-87587378D01*
X143001617Y-87632741D01*
X143103481Y-87657823D01*
X143201485Y-87665229D01*
X143248378Y-87664867D01*
X143304028Y-87659521D01*
X143346716Y-87641853D01*
X143391226Y-87604488D01*
X143452339Y-87540047D01*
X143458632Y-87533252D01*
X143519306Y-87470804D01*
X143562138Y-87437005D01*
X143598186Y-87425256D01*
X143638508Y-87428959D01*
X143660918Y-87434182D01*
X143718588Y-87457098D01*
X143776666Y-87497857D01*
X143843772Y-87563344D01*
X143928532Y-87660441D01*
X143929516Y-87661616D01*
X144014492Y-87757033D01*
X144082557Y-87822304D01*
X144130978Y-87857018D01*
X144157022Y-87860767D01*
X144157958Y-87833142D01*
X144131053Y-87773735D01*
X144073574Y-87682136D01*
X144017693Y-87605887D01*
X143931273Y-87501266D01*
X143834966Y-87395691D01*
X143735286Y-87295377D01*
X143638746Y-87206538D01*
X143551857Y-87135387D01*
X143481133Y-87088139D01*
X143433087Y-87071009D01*
X143410195Y-87086917D01*
X143380917Y-87129266D01*
X143346768Y-87171920D01*
X143293616Y-87184559D01*
X143226021Y-87153375D01*
X143173357Y-87098186D01*
X143128820Y-87007492D01*
X143093012Y-86878669D01*
X143064465Y-86707658D01*
X143042445Y-86561377D01*
X143017851Y-86450675D01*
X142987111Y-86366382D01*
X142946531Y-86298380D01*
X142892415Y-86236551D01*
X142857637Y-86203483D01*
X142784647Y-86148416D01*
X142703236Y-86110683D01*
X142600694Y-86085256D01*
X142464311Y-86067101D01*
X142426717Y-86063139D01*
X142287170Y-86044955D01*
X142177712Y-86020941D01*
X142086118Y-85985312D01*
X142000162Y-85932279D01*
X141907618Y-85856056D01*
X141796261Y-85750854D01*
X141621422Y-85580521D01*
X141553727Y-85709816D01*
X141517599Y-85771708D01*
X141450289Y-85869834D01*
X141380984Y-85955950D01*
X141263482Y-86068505D01*
X141116896Y-86179646D01*
X140954743Y-86280575D01*
X140788381Y-86364901D01*
X140629168Y-86426231D01*
X140488462Y-86458175D01*
X140370417Y-86472156D01*
X140376027Y-86392913D01*
X140379181Y-86310455D01*
X140370382Y-86255795D01*
X140343804Y-86221954D01*
X140294051Y-86195967D01*
X140281111Y-86191136D01*
X140190229Y-86172859D01*
X140058324Y-86164306D01*
X139889189Y-86165473D01*
X139686617Y-86176356D01*
X139454403Y-86196950D01*
X139434775Y-86198959D01*
X139301803Y-86211437D01*
X139174182Y-86221681D01*
X139065565Y-86228680D01*
X138989603Y-86231420D01*
X138851041Y-86232110D01*
X138925520Y-86308954D01*
X138980146Y-86374611D01*
X138997305Y-86425192D01*
X138973010Y-86461624D01*
X138906789Y-86488440D01*
X138834656Y-86501222D01*
X138730934Y-86490665D01*
X138629568Y-86440925D01*
X138522876Y-86349215D01*
X138463485Y-86294312D01*
X138382180Y-86243232D01*
X138313340Y-86235499D01*
X138254821Y-86271888D01*
X138204478Y-86353172D01*
X138160167Y-86480125D01*
X138151453Y-86517205D01*
X138148761Y-86640195D01*
X138188111Y-86746338D01*
X138266930Y-86830903D01*
X138382647Y-86889162D01*
X138428848Y-86906877D01*
X138468317Y-86937306D01*
X138482998Y-86982964D01*
X138483879Y-87007754D01*
X138471787Y-87042629D01*
X138435466Y-87078723D01*
X138366484Y-87126421D01*
X138250641Y-87210685D01*
X138125307Y-87329817D01*
X138010426Y-87474717D01*
X137900694Y-87652223D01*
X137790813Y-87869175D01*
X137776242Y-87899939D01*
X137708118Y-88030675D01*
X137645219Y-88126351D01*
X137582172Y-88195367D01*
X137529539Y-88240048D01*
X137479618Y-88269353D01*
X137426101Y-88278752D01*
X137355322Y-88270364D01*
X137253616Y-88246308D01*
X137187091Y-88230428D01*
X137121372Y-88221623D01*
X137061654Y-88226917D01*
X136985991Y-88246308D01*
X136984077Y-88246863D01*
X136887080Y-88272205D01*
X136821551Y-88280556D01*
X136775754Y-88271914D01*
X136737951Y-88246277D01*
X136737364Y-88245746D01*
X136709376Y-88225950D01*
X136691468Y-88237426D01*
X136672611Y-88287056D01*
X136665228Y-88310322D01*
X136595654Y-88610772D01*
X136566985Y-88931190D01*
X136579290Y-89269259D01*
X136632639Y-89622661D01*
X136664467Y-89788907D01*
X136697026Y-90010637D01*
X136710033Y-90199833D01*
X136703088Y-90362573D01*
X136675793Y-90504936D01*
X136627751Y-90633001D01*
X136558561Y-90752844D01*
X136538692Y-90780478D01*
X136417609Y-90906244D01*
X136260913Y-91016112D01*
X136076620Y-91106018D01*
X135872748Y-91171898D01*
X135657315Y-91209688D01*
X135581294Y-91218949D01*
X135525783Y-91228603D01*
X135504587Y-91236360D01*
X135514289Y-91253008D01*
X135546844Y-91296567D01*
X135594390Y-91355482D01*
X135622303Y-91389527D01*
X135681916Y-91469354D01*
X135716932Y-91534597D01*
X135733462Y-91598928D01*
X135737614Y-91676019D01*
X135737450Y-91699141D01*
X135733675Y-91744478D01*
X135720225Y-91783151D01*
X135691012Y-91824790D01*
X135639951Y-91879022D01*
X135560954Y-91955477D01*
X135384293Y-92124293D01*
X135400205Y-92251645D01*
X135407946Y-92350797D01*
X135399151Y-92423307D01*
X135369784Y-92466813D01*
X135317109Y-92489131D01*
X135282345Y-92494880D01*
X135188089Y-92488991D01*
X135089917Y-92448471D01*
X134978733Y-92370123D01*
X134975438Y-92367442D01*
X134911773Y-92317002D01*
X134863481Y-92281160D01*
X134840788Y-92267523D01*
X134834225Y-92274596D01*
X134828807Y-92310517D01*
X134826223Y-92334115D01*
X134792704Y-92389069D01*
X134727431Y-92420756D01*
X134639293Y-92423862D01*
X134541943Y-92410805D01*
X134749458Y-92621416D01*
X134931263Y-92798205D01*
X135127239Y-92968422D01*
X135304017Y-93098129D01*
X135461051Y-93186930D01*
X135597798Y-93234434D01*
X135679358Y-93251675D01*
X135626926Y-93195024D01*
X135625167Y-93193104D01*
X135589396Y-93144189D01*
X135574746Y-93104920D01*
X135574968Y-93102474D01*
X135590683Y-93064297D01*
X135626282Y-93002253D01*
X135674861Y-92928507D01*
X135713365Y-92871773D01*
X135786285Y-92748037D01*
X135840989Y-92622569D01*
X135887955Y-92472972D01*
X135918430Y-92381778D01*
X135976229Y-92278466D01*
X136048755Y-92217578D01*
X136137365Y-92197615D01*
X136179317Y-92199036D01*
X136253536Y-92214004D01*
X136309805Y-92250394D01*
X136353174Y-92314489D01*
X136388695Y-92412571D01*
X136421418Y-92550923D01*
X136426216Y-92573874D01*
X136456307Y-92701318D01*
X136493272Y-92828889D01*
X136540624Y-92966965D01*
X136601879Y-93125925D01*
X136680552Y-93316147D01*
X136685424Y-93327670D01*
X136752740Y-93489243D01*
X136803014Y-93616850D01*
X136838426Y-93718417D01*
X136861159Y-93801871D01*
X136873396Y-93875138D01*
X136877318Y-93946145D01*
X136875109Y-94022817D01*
X136862228Y-94137574D01*
X136821067Y-94275710D01*
X136753744Y-94375737D01*
X136660496Y-94437343D01*
X136541559Y-94460217D01*
X136467048Y-94465277D01*
X136379408Y-94487155D01*
X136323057Y-94530725D01*
X136294823Y-94601248D01*
X136291535Y-94703984D01*
X136310022Y-94844192D01*
X136323750Y-94926637D01*
X136338122Y-95044140D01*
X136339865Y-95137935D01*
X136328827Y-95221555D01*
X136304857Y-95308532D01*
X136297908Y-95332627D01*
X136286632Y-95389247D01*
X136277172Y-95465755D01*
X136269146Y-95567492D01*
X136262172Y-95699803D01*
X136255868Y-95868032D01*
X136249852Y-96077523D01*
X136245596Y-96234434D01*
X136240269Y-96400710D01*
X136234652Y-96531754D01*
X136228219Y-96633974D01*
X136220444Y-96713781D01*
X136210802Y-96777583D01*
X136198768Y-96831790D01*
X136183815Y-96882810D01*
X136174350Y-96910964D01*
X136121332Y-97027879D01*
X136055405Y-97107741D01*
X135970630Y-97158224D01*
X135945236Y-97166519D01*
X135850098Y-97180939D01*
X135739186Y-97181452D01*
X135632788Y-97168766D01*
X135551192Y-97143588D01*
X135523793Y-97128600D01*
X135479149Y-97087489D01*
X135462545Y-97029987D01*
X135439020Y-96948146D01*
X135384070Y-96890560D01*
X135293682Y-96854857D01*
X135163821Y-96838449D01*
X135099461Y-96834891D01*
X135033665Y-96827750D01*
X134992498Y-96813597D01*
X134962824Y-96787009D01*
X134931508Y-96742565D01*
X134888259Y-96684757D01*
X134840034Y-96643044D01*
X134777633Y-96615079D01*
X134690247Y-96596078D01*
X134567068Y-96581256D01*
X134485886Y-96571384D01*
X134348660Y-96542082D01*
X134231648Y-96496555D01*
X134213054Y-96487048D01*
X134083517Y-96400970D01*
X133957163Y-96286850D01*
X133847782Y-96158598D01*
X133769164Y-96030120D01*
X133746121Y-95977055D01*
X133721578Y-95891571D01*
X133716540Y-95803178D01*
X133730872Y-95698675D01*
X133764440Y-95564863D01*
X133778789Y-95502713D01*
X133780975Y-95417721D01*
X133752364Y-95353716D01*
X133689096Y-95306911D01*
X133587310Y-95273520D01*
X133443147Y-95249758D01*
X133400754Y-95244153D01*
X133309068Y-95228705D01*
X133238571Y-95212255D01*
X133201866Y-95197529D01*
X133171224Y-95161612D01*
X133141287Y-95084134D01*
X133141846Y-95003979D01*
X133143139Y-94999026D01*
X133159394Y-94965689D01*
X133193298Y-94950772D01*
X133259217Y-94947340D01*
X133287544Y-94947158D01*
X133335075Y-94943215D01*
X133348865Y-94930026D01*
X133338251Y-94902266D01*
X133336582Y-94899083D01*
X133315260Y-94813824D01*
X133334709Y-94716853D01*
X133395688Y-94604232D01*
X133433310Y-94545701D01*
X133465050Y-94490066D01*
X133477247Y-94459636D01*
X133477158Y-94458708D01*
X133457292Y-94432862D01*
X133409412Y-94390009D01*
X133343257Y-94338922D01*
X133302528Y-94308924D01*
X133167349Y-94199650D01*
X133070173Y-94100825D01*
X133006903Y-94006706D01*
X132973444Y-93911551D01*
X132965699Y-93809617D01*
X132967839Y-93749869D01*
X132972002Y-93629869D01*
X132973171Y-93545409D01*
X132969721Y-93488592D01*
X132960025Y-93451520D01*
X132942458Y-93426293D01*
X132915392Y-93405013D01*
X132877202Y-93379782D01*
X132861496Y-93368971D01*
X132799273Y-93316951D01*
X132781121Y-93279015D01*
X132807040Y-93254252D01*
X132877028Y-93241753D01*
X132893793Y-93240198D01*
X132950891Y-93225753D01*
X132991547Y-93193067D01*
X133019573Y-93135055D01*
X133038784Y-93044627D01*
X133052994Y-92914697D01*
X133058779Y-92827155D01*
X133061228Y-92635641D01*
X133051447Y-92442796D01*
X133030670Y-92258128D01*
X133000130Y-92091146D01*
X132961060Y-91951356D01*
X132914693Y-91848267D01*
X132906315Y-91834580D01*
X132880377Y-91798814D01*
X132850892Y-91781676D01*
X132803569Y-91778345D01*
X132724119Y-91784005D01*
X132656230Y-91788343D01*
X132588439Y-91789233D01*
X132550963Y-91785282D01*
X132546005Y-91783196D01*
X132522427Y-91755580D01*
X132535243Y-91722715D01*
X132579737Y-91698777D01*
X132626214Y-91675722D01*
X132654797Y-91621380D01*
X132647340Y-91542195D01*
X132603566Y-91441158D01*
X132531490Y-91308778D01*
X132456256Y-91155327D01*
X132407818Y-91027951D01*
X132385809Y-90919943D01*
X132389863Y-90824598D01*
X132419615Y-90735209D01*
X132474696Y-90645069D01*
X132554742Y-90547472D01*
X132567447Y-90532971D01*
X132626966Y-90457660D01*
X132671720Y-90389177D01*
X132692835Y-90340804D01*
X132693512Y-90337170D01*
X132706178Y-90266018D01*
X132719407Y-90187680D01*
X132731960Y-90137189D01*
X132763578Y-90092197D01*
X132825840Y-90053216D01*
X132893132Y-90007886D01*
X132916423Y-89960673D01*
X132893639Y-89910611D01*
X132824770Y-89855688D01*
X132795329Y-89836111D01*
X132749586Y-89800306D01*
X132731559Y-89777559D01*
X132739258Y-89754794D01*
X132764434Y-89701545D01*
X132801045Y-89632209D01*
X132809029Y-89617343D01*
X132849006Y-89521579D01*
X132868233Y-89420897D01*
X132866714Y-89306091D01*
X132844457Y-89167955D01*
X132801468Y-88997282D01*
X132797019Y-88981260D01*
X132756059Y-88807736D01*
X132735220Y-88661094D01*
X132734921Y-88546178D01*
X132755582Y-88467830D01*
X132761661Y-88458566D01*
X132805218Y-88417188D01*
X132866270Y-88377919D01*
X132952936Y-88332894D01*
X132859724Y-88293739D01*
X132795185Y-88265524D01*
X132743363Y-88234143D01*
X132732065Y-88202168D01*
X132759500Y-88159779D01*
X132823878Y-88097155D01*
X132941284Y-87988653D01*
X132941284Y-87816821D01*
X132949178Y-87688322D01*
X132982661Y-87559076D01*
X133044709Y-87459883D01*
X133137817Y-87385267D01*
X133170432Y-87367326D01*
X133233899Y-87338652D01*
X133277188Y-87327340D01*
X133277961Y-87327335D01*
X133337431Y-87305651D01*
X133394367Y-87249567D01*
X133439922Y-87170689D01*
X133465249Y-87080623D01*
X133503912Y-86826070D01*
X133557433Y-86561529D01*
X133622374Y-86324694D01*
X133701532Y-86105585D01*
X133797704Y-85894220D01*
X133834381Y-85822062D01*
X133895172Y-85709793D01*
X133955175Y-85612034D01*
X134022614Y-85516712D01*
X134105715Y-85411755D01*
X134212702Y-85285092D01*
X134279153Y-85206664D01*
X134348991Y-85118475D01*
X134404166Y-85037482D01*
X134450200Y-84953293D01*
X134492618Y-84855514D01*
X134536943Y-84733752D01*
X134588698Y-84577615D01*
X134626706Y-84466589D01*
X134679153Y-84330221D01*
X134729840Y-84215771D01*
X134773902Y-84134863D01*
X134811255Y-84085847D01*
X134880554Y-84006375D01*
X134974701Y-83904766D01*
X135088750Y-83785943D01*
X135217755Y-83654831D01*
X135356771Y-83516350D01*
X135500850Y-83375424D01*
X135645049Y-83236975D01*
X135784420Y-83105927D01*
X135914019Y-82987201D01*
X136028899Y-82885721D01*
X136141926Y-82786509D01*
X136242438Y-82692290D01*
X136313325Y-82616266D01*
X136358804Y-82553308D01*
X136383093Y-82498286D01*
X136390410Y-82446071D01*
X136390416Y-82444744D01*
X136395625Y-82357071D01*
X136415843Y-82304453D01*
X136459671Y-82275899D01*
X136535711Y-82260421D01*
X136631143Y-82241967D01*
X136770610Y-82204860D01*
X136944508Y-82151084D01*
X137148673Y-82081932D01*
X137378942Y-81998694D01*
X137431876Y-81979258D01*
X137681039Y-81895187D01*
X137912668Y-81831503D01*
X138144597Y-81783797D01*
X138394663Y-81747663D01*
X138434282Y-81742878D01*
X138665361Y-81713423D01*
X138857259Y-81685733D01*
X139016315Y-81658634D01*
X139148868Y-81630956D01*
X139261259Y-81601524D01*
X139359827Y-81569167D01*
X139464745Y-81534064D01*
X139582496Y-81508572D01*
X139689097Y-81508142D01*
X139800930Y-81533203D01*
G37*
%TO.C,H5*%
G36*
X127602337Y-93352969D02*
G01*
X127622187Y-93396875D01*
X127654015Y-93485887D01*
X127694000Y-93607416D01*
X127738320Y-93748873D01*
X127783152Y-93897669D01*
X127824675Y-94041213D01*
X127859066Y-94166916D01*
X127882504Y-94262189D01*
X127891165Y-94314443D01*
X127888554Y-94317597D01*
X127842800Y-94327357D01*
X127751814Y-94334180D01*
X127630986Y-94336748D01*
X127493077Y-94332808D01*
X127402267Y-94320778D01*
X127370807Y-94301376D01*
X127376092Y-94261123D01*
X127394056Y-94169624D01*
X127421536Y-94043797D01*
X127455182Y-93897622D01*
X127491643Y-93745079D01*
X127527568Y-93600149D01*
X127559607Y-93476812D01*
X127584409Y-93389048D01*
X127598623Y-93350838D01*
X127602337Y-93352969D01*
G37*
G36*
X124743112Y-93334005D02*
G01*
X124762657Y-93385491D01*
X124794121Y-93481402D01*
X124833708Y-93608842D01*
X124877620Y-93754912D01*
X124922062Y-93906714D01*
X124963237Y-94051349D01*
X124997349Y-94175921D01*
X125020600Y-94267531D01*
X125029194Y-94313280D01*
X125003508Y-94324160D01*
X124930483Y-94331976D01*
X124828667Y-94335835D01*
X124716759Y-94335769D01*
X124613456Y-94331812D01*
X124537457Y-94323997D01*
X124507460Y-94312356D01*
X124507963Y-94302517D01*
X124518475Y-94238740D01*
X124540037Y-94133112D01*
X124569542Y-93998809D01*
X124603883Y-93849009D01*
X124639953Y-93696889D01*
X124674646Y-93555624D01*
X124704854Y-93438391D01*
X124727470Y-93358368D01*
X124739387Y-93328732D01*
X124743112Y-93334005D01*
G37*
G36*
X126216262Y-84551467D02*
G01*
X126251166Y-84613808D01*
X126298538Y-84716192D01*
X126352891Y-84847515D01*
X126484627Y-85181690D01*
X126868147Y-85197952D01*
X127251666Y-85214213D01*
X126980190Y-85425608D01*
X126894654Y-85492039D01*
X126791040Y-85571986D01*
X126714082Y-85630735D01*
X126676073Y-85658856D01*
X126670259Y-85671507D01*
X126675185Y-85739874D01*
X126702093Y-85860361D01*
X126749839Y-86027255D01*
X126786111Y-86149847D01*
X126818444Y-86269925D01*
X126837439Y-86354446D01*
X126839825Y-86390222D01*
X126816604Y-86383951D01*
X126749149Y-86347976D01*
X126649484Y-86287343D01*
X126529211Y-86208827D01*
X126429473Y-86142769D01*
X126322623Y-86074577D01*
X126245109Y-86028155D01*
X126209082Y-86011012D01*
X126178714Y-86025118D01*
X126104547Y-86069186D01*
X125999199Y-86136064D01*
X125874480Y-86218432D01*
X125760241Y-86293936D01*
X125656476Y-86359840D01*
X125584127Y-86402685D01*
X125554317Y-86415621D01*
X125556345Y-86398785D01*
X125573810Y-86332155D01*
X125604362Y-86228399D01*
X125643512Y-86101935D01*
X125686771Y-85967180D01*
X125729650Y-85838551D01*
X125767659Y-85730465D01*
X125749276Y-85697677D01*
X125688576Y-85634512D01*
X125595067Y-85550249D01*
X125478312Y-85454025D01*
X125175544Y-85214213D01*
X125552140Y-85205098D01*
X125928735Y-85195983D01*
X126054003Y-84879874D01*
X126093225Y-84782223D01*
X126142487Y-84663602D01*
X126180140Y-84577732D01*
X126200213Y-84538553D01*
X126216262Y-84551467D01*
G37*
G36*
X128291821Y-86517172D02*
G01*
X128325114Y-86585166D01*
X128371229Y-86691621D01*
X128424557Y-86824072D01*
X128551301Y-87149296D01*
X128923175Y-87149296D01*
X129060146Y-87151357D01*
X129179545Y-87157551D01*
X129258297Y-87166905D01*
X129284209Y-87178437D01*
X129275989Y-87188075D01*
X129228074Y-87232100D01*
X129148426Y-87300943D01*
X129049571Y-87384199D01*
X128944035Y-87471464D01*
X128844344Y-87552332D01*
X128763024Y-87616399D01*
X128712601Y-87653258D01*
X128716826Y-87675581D01*
X128738058Y-87748318D01*
X128773188Y-87859222D01*
X128818298Y-87995604D01*
X128856274Y-88109992D01*
X128895407Y-88232072D01*
X128922046Y-88320338D01*
X128931883Y-88360935D01*
X128931855Y-88363276D01*
X128928315Y-88374615D01*
X128912933Y-88373562D01*
X128877337Y-88355256D01*
X128813153Y-88314836D01*
X128712012Y-88247440D01*
X128565539Y-88148205D01*
X128280502Y-87954609D01*
X127965854Y-88169148D01*
X127845065Y-88249810D01*
X127740982Y-88315978D01*
X127668258Y-88358411D01*
X127637885Y-88370364D01*
X127638809Y-88349776D01*
X127654944Y-88277902D01*
X127684954Y-88167693D01*
X127725342Y-88032657D01*
X127755940Y-87932516D01*
X127792175Y-87808717D01*
X127816946Y-87717449D01*
X127826121Y-87673437D01*
X127803911Y-87642805D01*
X127739761Y-87580945D01*
X127643786Y-87497638D01*
X127526154Y-87402080D01*
X127226187Y-87165557D01*
X127616015Y-87156488D01*
X128005843Y-87147418D01*
X128132221Y-86823133D01*
X128174826Y-86716614D01*
X128222826Y-86603956D01*
X128259159Y-86527206D01*
X128278206Y-86498848D01*
X128291821Y-86517172D01*
G37*
G36*
X124164491Y-86539914D02*
G01*
X124198146Y-86610373D01*
X124244871Y-86718038D01*
X124298253Y-86848464D01*
X124418094Y-87149296D01*
X124791399Y-87149296D01*
X124930392Y-87151375D01*
X125049325Y-87157448D01*
X125127933Y-87166553D01*
X125153863Y-87177719D01*
X125139540Y-87194706D01*
X125082557Y-87246632D01*
X124993157Y-87321642D01*
X124882843Y-87409881D01*
X124807127Y-87469267D01*
X124706672Y-87548391D01*
X124633243Y-87606645D01*
X124598958Y-87634446D01*
X124598179Y-87667281D01*
X124614397Y-87750138D01*
X124645317Y-87869438D01*
X124687857Y-88012080D01*
X124729434Y-88144413D01*
X124766431Y-88263426D01*
X124791592Y-88345833D01*
X124800999Y-88378936D01*
X124799730Y-88381737D01*
X124785880Y-88377873D01*
X124750274Y-88357663D01*
X124684878Y-88316088D01*
X124581658Y-88248128D01*
X124432580Y-88148766D01*
X124144929Y-87956537D01*
X123823055Y-88170842D01*
X123697581Y-88253722D01*
X123592264Y-88322028D01*
X123518890Y-88368191D01*
X123488487Y-88385148D01*
X123491408Y-88361502D01*
X123510709Y-88287424D01*
X123543552Y-88174943D01*
X123586471Y-88036387D01*
X123624360Y-87912198D01*
X123658877Y-87787472D01*
X123679951Y-87696569D01*
X123684029Y-87653433D01*
X123664902Y-87631175D01*
X123602275Y-87575371D01*
X123507502Y-87498005D01*
X123392018Y-87408660D01*
X123300508Y-87338324D01*
X123203247Y-87260226D01*
X123136725Y-87202685D01*
X123111750Y-87174720D01*
X123140105Y-87165117D01*
X123221119Y-87155645D01*
X123342156Y-87147643D01*
X123490543Y-87142198D01*
X123870714Y-87133035D01*
X123999113Y-86813910D01*
X124042921Y-86710079D01*
X124092750Y-86604980D01*
X124131397Y-86538281D01*
X124152962Y-86521208D01*
X124164491Y-86539914D01*
G37*
G36*
X129647375Y-89555954D02*
G01*
X129647375Y-89751607D01*
X129647563Y-89891840D01*
X129645614Y-90024799D01*
X129636303Y-90111718D01*
X129614346Y-90163325D01*
X129574454Y-90190349D01*
X129511340Y-90203518D01*
X129419719Y-90213559D01*
X129414299Y-90214215D01*
X129354500Y-90239159D01*
X129338413Y-90303970D01*
X129339291Y-90328784D01*
X129353907Y-90367026D01*
X129399789Y-90385867D01*
X129493825Y-90395226D01*
X129649238Y-90405177D01*
X129640176Y-90834279D01*
X129638381Y-90919261D01*
X129631114Y-91263381D01*
X129298544Y-91272640D01*
X128965974Y-91281900D01*
X128965876Y-91491382D01*
X128964810Y-93760613D01*
X128964475Y-94103450D01*
X128963199Y-94610446D01*
X128961018Y-95052899D01*
X128958365Y-95377465D01*
X128957926Y-95431116D01*
X128953920Y-95745404D01*
X128948994Y-95996070D01*
X128943146Y-96183421D01*
X128936371Y-96307764D01*
X128928664Y-96369407D01*
X128848002Y-96572256D01*
X128708621Y-96778159D01*
X128528708Y-96951037D01*
X128321030Y-97076045D01*
X128257503Y-97099733D01*
X128163200Y-97122620D01*
X128038205Y-97141071D01*
X127871069Y-97156708D01*
X127650339Y-97171157D01*
X127605367Y-97173832D01*
X127311865Y-97197364D01*
X127079548Y-97227846D01*
X126910182Y-97265053D01*
X126786515Y-97310242D01*
X126591031Y-97416715D01*
X126422188Y-97551258D01*
X126299187Y-97700196D01*
X126275928Y-97735473D01*
X126221837Y-97798491D01*
X126182607Y-97817925D01*
X126167478Y-97787641D01*
X126167478Y-97787585D01*
X126147043Y-97750272D01*
X126093717Y-97680561D01*
X126019007Y-97593501D01*
X125906925Y-97484096D01*
X125733235Y-97363739D01*
X125528293Y-97274151D01*
X125284552Y-97212976D01*
X124994464Y-97177859D01*
X124650481Y-97166444D01*
X124644652Y-97166431D01*
X124340891Y-97140552D01*
X124079345Y-97065235D01*
X123859862Y-96940392D01*
X123682288Y-96765937D01*
X123546472Y-96541783D01*
X123451857Y-96336876D01*
X123448421Y-95361204D01*
X123842126Y-95361204D01*
X124216133Y-95361204D01*
X124590141Y-95361204D01*
X124599971Y-95190461D01*
X124609802Y-95019719D01*
X124473592Y-95019719D01*
X124337382Y-95019719D01*
X124357811Y-94870671D01*
X124364412Y-94826884D01*
X124381437Y-94739969D01*
X124396674Y-94691797D01*
X124427656Y-94681148D01*
X124511869Y-94671205D01*
X124635033Y-94664458D01*
X124783334Y-94661972D01*
X125151561Y-94661972D01*
X125187945Y-94806463D01*
X125200567Y-94857350D01*
X125218384Y-94949218D01*
X125210670Y-94997643D01*
X125171322Y-95016514D01*
X125094238Y-95019719D01*
X124964149Y-95019719D01*
X124964149Y-95198592D01*
X124964149Y-95377465D01*
X125338157Y-95377465D01*
X125712164Y-95377465D01*
X125712164Y-95198592D01*
X125712164Y-95194885D01*
X125710409Y-95094233D01*
X125699299Y-95042162D01*
X125670029Y-95022661D01*
X125613792Y-95019719D01*
X125598558Y-95020207D01*
X125573397Y-95021697D01*
X125552051Y-95019032D01*
X125532262Y-95006397D01*
X125511775Y-94977980D01*
X125488333Y-94927969D01*
X125459679Y-94850551D01*
X125423556Y-94739914D01*
X125377707Y-94590244D01*
X125319877Y-94395728D01*
X125247808Y-94150555D01*
X125159243Y-93848912D01*
X125112776Y-93692271D01*
X125040879Y-93455422D01*
X124974345Y-93242749D01*
X124915681Y-93061924D01*
X124867398Y-92920617D01*
X124832003Y-92826500D01*
X124812006Y-92787243D01*
X124794773Y-92777983D01*
X124733868Y-92766773D01*
X124670560Y-92770000D01*
X124637778Y-92787596D01*
X124631385Y-92812241D01*
X124610384Y-92893226D01*
X124576551Y-93023713D01*
X124531738Y-93196552D01*
X124477799Y-93404595D01*
X124416588Y-93640692D01*
X124349958Y-93897696D01*
X124063283Y-95003457D01*
X123952704Y-95019719D01*
X123896846Y-95029762D01*
X123858817Y-95051848D01*
X123844392Y-95101954D01*
X123842126Y-95198592D01*
X123842126Y-95361204D01*
X123448421Y-95361204D01*
X123442956Y-93809388D01*
X123437900Y-92373700D01*
X124387463Y-92373700D01*
X124413381Y-92480827D01*
X124467854Y-92553664D01*
X124551677Y-92580538D01*
X124608393Y-92567865D01*
X124724488Y-92512758D01*
X124886815Y-92414446D01*
X125094474Y-92273438D01*
X125108484Y-92263816D01*
X125268013Y-92187163D01*
X125450460Y-92158290D01*
X125663189Y-92176920D01*
X125913568Y-92242777D01*
X126198791Y-92336620D01*
X126199395Y-92930154D01*
X126200000Y-93523688D01*
X125988605Y-93523688D01*
X125777209Y-93523688D01*
X125777209Y-93328553D01*
X125777209Y-93133419D01*
X125647119Y-93133419D01*
X125517030Y-93133419D01*
X125517030Y-93746334D01*
X125517030Y-94359250D01*
X125638989Y-94352002D01*
X125760948Y-94344755D01*
X125777209Y-94137487D01*
X125793470Y-93930218D01*
X125996735Y-93920535D01*
X126200000Y-93910853D01*
X126200000Y-94710360D01*
X126200000Y-95377465D01*
X126200000Y-95509866D01*
X126061780Y-95570392D01*
X125981639Y-95611426D01*
X125861528Y-95684568D01*
X125745217Y-95765658D01*
X125707603Y-95793681D01*
X125586918Y-95873815D01*
X125489054Y-95915286D01*
X125395467Y-95923732D01*
X125287615Y-95904792D01*
X125224850Y-95891164D01*
X125156411Y-95890908D01*
X125109594Y-95919636D01*
X125082239Y-95951651D01*
X125061716Y-95993328D01*
X125061717Y-95993545D01*
X125086640Y-96051568D01*
X125148600Y-96124869D01*
X125229202Y-96194934D01*
X125310050Y-96243250D01*
X125481566Y-96286741D01*
X125665455Y-96270947D01*
X125851023Y-96190672D01*
X126039144Y-96045679D01*
X126091028Y-96000327D01*
X126266353Y-95891779D01*
X126445378Y-95847443D01*
X126625975Y-95867580D01*
X126806014Y-95952448D01*
X126882420Y-95983448D01*
X126931236Y-95958177D01*
X126948016Y-95876430D01*
X126928613Y-95805012D01*
X126857296Y-95711653D01*
X126745349Y-95624107D01*
X126605274Y-95554130D01*
X126459560Y-95498481D01*
X126460301Y-95361204D01*
X126704098Y-95361204D01*
X127078105Y-95361204D01*
X127452113Y-95361204D01*
X127461943Y-95190461D01*
X127471773Y-95019719D01*
X127345405Y-95019719D01*
X127321921Y-95019437D01*
X127242735Y-95013780D01*
X127202461Y-95003144D01*
X127199172Y-94988449D01*
X127205395Y-94924935D01*
X127224977Y-94832401D01*
X127264068Y-94678233D01*
X127640149Y-94669092D01*
X127716420Y-94667105D01*
X127856784Y-94664510D01*
X127948921Y-94669971D01*
X128004667Y-94689759D01*
X128035859Y-94730141D01*
X128054333Y-94797385D01*
X128071924Y-94897760D01*
X128093539Y-95019719D01*
X127959830Y-95019719D01*
X127826121Y-95019719D01*
X127826121Y-95198592D01*
X127826121Y-95377465D01*
X128200128Y-95377465D01*
X128574136Y-95377465D01*
X128574136Y-95200652D01*
X128574136Y-95199209D01*
X128572347Y-95098141D01*
X128560575Y-95044887D01*
X128529204Y-95022404D01*
X128468617Y-95013649D01*
X128363097Y-95003457D01*
X128037695Y-93912957D01*
X127972811Y-93696505D01*
X127900004Y-93456068D01*
X127834061Y-93240910D01*
X127777293Y-93058452D01*
X127732013Y-92916114D01*
X127700533Y-92821317D01*
X127685163Y-92781481D01*
X127684987Y-92781217D01*
X127638272Y-92760574D01*
X127567339Y-92765220D01*
X127506639Y-92792942D01*
X127498631Y-92817498D01*
X127475863Y-92898527D01*
X127440451Y-93029114D01*
X127394318Y-93202047D01*
X127339385Y-93410112D01*
X127277576Y-93646099D01*
X127210813Y-93902794D01*
X126925505Y-95003457D01*
X126814802Y-95019719D01*
X126758826Y-95029770D01*
X126720785Y-95051852D01*
X126706360Y-95101956D01*
X126704098Y-95198592D01*
X126704098Y-95361204D01*
X126460301Y-95361204D01*
X126468001Y-93933812D01*
X126476441Y-92369142D01*
X126674721Y-92329898D01*
X126758872Y-92311959D01*
X127018543Y-92234846D01*
X127232277Y-92131352D01*
X127412731Y-91995745D01*
X127417337Y-91991496D01*
X127496558Y-91908508D01*
X127578861Y-91807460D01*
X127655101Y-91701787D01*
X127716133Y-91604926D01*
X127752815Y-91530313D01*
X127756000Y-91491382D01*
X127753159Y-91490780D01*
X127709396Y-91504105D01*
X127625702Y-91538879D01*
X127516988Y-91589011D01*
X127431180Y-91627379D01*
X127108930Y-91730651D01*
X126758294Y-91787564D01*
X126393294Y-91797474D01*
X126027948Y-91759736D01*
X125676278Y-91673704D01*
X125478817Y-91618426D01*
X125208197Y-91578135D01*
X124973328Y-91591072D01*
X124773068Y-91657348D01*
X124606273Y-91777072D01*
X124553482Y-91835809D01*
X124473110Y-91963339D01*
X124418121Y-92103281D01*
X124389307Y-92243960D01*
X124387463Y-92373700D01*
X123437900Y-92373700D01*
X123434055Y-91281900D01*
X123101471Y-91272640D01*
X122768886Y-91263381D01*
X122763279Y-91051358D01*
X122980282Y-91051358D01*
X126204144Y-91059802D01*
X126554015Y-91060639D01*
X127090220Y-91061544D01*
X127564963Y-91061805D01*
X127980486Y-91061406D01*
X128339033Y-91060325D01*
X128642845Y-91058544D01*
X128894165Y-91056044D01*
X129095236Y-91052805D01*
X129248300Y-91048809D01*
X129355601Y-91044036D01*
X129419380Y-91038467D01*
X129441880Y-91032082D01*
X129446640Y-91001650D01*
X129449004Y-90919261D01*
X129445867Y-90811806D01*
X129435980Y-90627694D01*
X126297568Y-90627858D01*
X126126649Y-90627868D01*
X125684604Y-90627901D01*
X125261581Y-90627944D01*
X124862181Y-90627996D01*
X124491007Y-90628057D01*
X124152662Y-90628123D01*
X123851748Y-90628196D01*
X123592866Y-90628273D01*
X123380620Y-90628354D01*
X123219612Y-90628437D01*
X123114444Y-90628522D01*
X123069719Y-90628607D01*
X123049711Y-90628904D01*
X123009969Y-90635906D01*
X122989313Y-90663616D01*
X122981499Y-90726813D01*
X122980282Y-90840276D01*
X122980282Y-91051358D01*
X122763279Y-91051358D01*
X122759426Y-90905634D01*
X122756781Y-90797672D01*
X122755439Y-90638492D01*
X122761535Y-90529265D01*
X122778231Y-90460160D01*
X122808686Y-90421346D01*
X122856062Y-90402992D01*
X122923520Y-90395269D01*
X122938413Y-90394136D01*
X123019593Y-90381807D01*
X123057585Y-90353901D01*
X123071699Y-90297702D01*
X123074522Y-90261739D01*
X123063397Y-90225729D01*
X123018955Y-90208716D01*
X122925348Y-90200135D01*
X122768886Y-90190141D01*
X122768886Y-89995007D01*
X122980282Y-89995007D01*
X126202711Y-89995007D01*
X126458001Y-89994964D01*
X126900239Y-89994685D01*
X127321421Y-89994161D01*
X127717146Y-89993410D01*
X128083017Y-89992451D01*
X128414635Y-89991302D01*
X128707601Y-89989982D01*
X128957515Y-89988509D01*
X129159981Y-89986901D01*
X129310597Y-89985178D01*
X129404967Y-89983356D01*
X129438690Y-89981456D01*
X129445108Y-89950312D01*
X129450264Y-89870708D01*
X129452241Y-89761929D01*
X129452241Y-89555954D01*
X126216262Y-89555954D01*
X122980282Y-89555954D01*
X122980282Y-89775480D01*
X122980282Y-89995007D01*
X122768886Y-89995007D01*
X122768886Y-89767350D01*
X122768886Y-89344559D01*
X123094110Y-89328297D01*
X123419334Y-89312036D01*
X123429088Y-89125032D01*
X123438842Y-88938028D01*
X126200000Y-88938028D01*
X128961159Y-88938028D01*
X128970913Y-89125032D01*
X128980666Y-89312036D01*
X129314021Y-89321304D01*
X129647375Y-89330573D01*
X129647375Y-89555954D01*
G37*
G36*
X129791316Y-91976776D02*
G01*
X129822922Y-92040015D01*
X129860993Y-92139577D01*
X129900089Y-92259602D01*
X129934770Y-92384227D01*
X129959597Y-92497590D01*
X129982273Y-92626037D01*
X130053454Y-92465067D01*
X130082618Y-92404016D01*
X130133420Y-92315190D01*
X130174735Y-92262759D01*
X130188213Y-92252270D01*
X130222383Y-92244279D01*
X130243536Y-92292936D01*
X130251791Y-92363822D01*
X130245971Y-92501099D01*
X130223793Y-92675226D01*
X130188166Y-92872232D01*
X130141999Y-93078148D01*
X130088201Y-93279002D01*
X130029682Y-93460824D01*
X129969350Y-93609644D01*
X129943667Y-93665196D01*
X129902502Y-93769180D01*
X129882745Y-93861355D01*
X129883689Y-93960258D01*
X129904630Y-94084422D01*
X129944861Y-94252385D01*
X130014689Y-94528155D01*
X130106092Y-94334884D01*
X130139675Y-94266607D01*
X130194074Y-94174764D01*
X130231900Y-94144123D01*
X130254273Y-94175361D01*
X130262314Y-94269156D01*
X130257144Y-94426185D01*
X130242730Y-94584438D01*
X130185710Y-94916593D01*
X130097122Y-95244468D01*
X129984136Y-95538842D01*
X129939888Y-95642131D01*
X129896308Y-95776838D01*
X129890050Y-95864066D01*
X129890222Y-95864911D01*
X129895120Y-95939161D01*
X129891842Y-96053091D01*
X129881074Y-96182395D01*
X129879195Y-96199448D01*
X129867580Y-96310292D01*
X129860409Y-96388541D01*
X129859169Y-96418182D01*
X129859267Y-96418159D01*
X129884199Y-96396245D01*
X129943140Y-96341119D01*
X130023695Y-96264368D01*
X130047368Y-96241719D01*
X130122580Y-96172629D01*
X130165059Y-96143410D01*
X130185498Y-96149071D01*
X130194592Y-96184622D01*
X130188772Y-96239028D01*
X130153493Y-96345757D01*
X130092890Y-96484506D01*
X130013120Y-96643160D01*
X129920342Y-96809605D01*
X129820715Y-96971728D01*
X129720396Y-97117414D01*
X129592653Y-97277609D01*
X129420139Y-97468681D01*
X129235296Y-97652270D01*
X129054035Y-97812682D01*
X128892268Y-97934223D01*
X128871150Y-97948345D01*
X128789201Y-98010857D01*
X128766047Y-98050309D01*
X128801819Y-98071010D01*
X128896650Y-98077269D01*
X128938663Y-98078295D01*
X129050769Y-98090545D01*
X129129696Y-98113456D01*
X129159539Y-98143049D01*
X129149274Y-98155776D01*
X129093112Y-98186503D01*
X129004361Y-98220707D01*
X128741834Y-98291556D01*
X128353547Y-98349999D01*
X127915555Y-98369527D01*
X127765824Y-98370977D01*
X127576855Y-98379577D01*
X127431472Y-98396936D01*
X127316811Y-98424231D01*
X127143270Y-98478934D01*
X127330214Y-98597488D01*
X127411574Y-98651058D01*
X127527825Y-98740014D01*
X127585590Y-98806648D01*
X127583925Y-98850018D01*
X127556429Y-98862562D01*
X127471926Y-98871146D01*
X127352410Y-98867230D01*
X127215221Y-98852319D01*
X127077695Y-98827922D01*
X126957172Y-98795544D01*
X126856045Y-98762192D01*
X126774679Y-98736934D01*
X126736782Y-98727273D01*
X126742423Y-98748697D01*
X126777030Y-98810142D01*
X126833323Y-98897582D01*
X126886240Y-98980823D01*
X126930866Y-99061965D01*
X126948016Y-99108977D01*
X126947797Y-99112034D01*
X126912732Y-99140070D01*
X126823911Y-99150064D01*
X126752920Y-99146454D01*
X126707142Y-99125873D01*
X126670787Y-99073746D01*
X126627452Y-98975498D01*
X126598097Y-98912291D01*
X126521478Y-98778922D01*
X126440060Y-98666535D01*
X126365039Y-98587879D01*
X126295188Y-98543967D01*
X126218113Y-98532139D01*
X126212857Y-98532178D01*
X126106841Y-98553551D01*
X126011113Y-98618765D01*
X125918554Y-98734571D01*
X125822045Y-98907722D01*
X125767180Y-99016823D01*
X125722786Y-99092716D01*
X125684327Y-99132399D01*
X125639983Y-99147604D01*
X125577934Y-99150064D01*
X125544680Y-99149931D01*
X125483703Y-99143884D01*
X125469274Y-99118725D01*
X125487544Y-99060772D01*
X125489149Y-99056645D01*
X125534645Y-98966211D01*
X125594741Y-98873768D01*
X125634897Y-98819445D01*
X125677963Y-98751964D01*
X125674591Y-98725455D01*
X125620205Y-98734496D01*
X125510227Y-98773666D01*
X125451762Y-98794396D01*
X125279855Y-98842642D01*
X125114599Y-98872571D01*
X124973638Y-98881591D01*
X124874614Y-98867106D01*
X124837052Y-98850955D01*
X124820083Y-98822731D01*
X124850510Y-98769394D01*
X124893787Y-98725356D01*
X124980181Y-98659466D01*
X125085078Y-98593121D01*
X125270477Y-98487046D01*
X125157966Y-98438336D01*
X125139604Y-98431443D01*
X125047159Y-98410746D01*
X124903426Y-98393319D01*
X124703829Y-98378701D01*
X124443790Y-98366433D01*
X124249863Y-98356842D01*
X123959188Y-98333178D01*
X123710967Y-98300657D01*
X123510801Y-98260270D01*
X123364292Y-98213009D01*
X123277041Y-98159866D01*
X123255850Y-98132224D01*
X123271302Y-98111242D01*
X123341532Y-98094710D01*
X123454369Y-98078933D01*
X123572080Y-98067976D01*
X123595415Y-98066139D01*
X123656406Y-98055451D01*
X123669647Y-98041817D01*
X123636599Y-98016922D01*
X123565227Y-97964859D01*
X123472514Y-97898085D01*
X123236505Y-97707260D01*
X122969441Y-97440887D01*
X122719794Y-97139793D01*
X122500685Y-96819996D01*
X122325235Y-96497514D01*
X122265147Y-96363855D01*
X122218560Y-96240442D01*
X122206661Y-96170036D01*
X122229778Y-96151303D01*
X122288236Y-96182908D01*
X122382362Y-96263514D01*
X122547575Y-96417808D01*
X122534160Y-96084641D01*
X122532065Y-96036450D01*
X122521148Y-95879479D01*
X122502590Y-95758866D01*
X122471815Y-95651738D01*
X122424247Y-95535221D01*
X122369941Y-95398793D01*
X122314275Y-95229233D01*
X122262850Y-95044723D01*
X122217436Y-94854932D01*
X122179802Y-94669526D01*
X122151714Y-94498173D01*
X122134943Y-94350542D01*
X122131257Y-94236298D01*
X122142425Y-94165110D01*
X122170215Y-94146646D01*
X122196434Y-94167466D01*
X122245336Y-94234337D01*
X122297311Y-94328465D01*
X122333671Y-94400434D01*
X122373126Y-94470171D01*
X122394879Y-94497609D01*
X122403241Y-94483289D01*
X122424862Y-94417930D01*
X122454365Y-94311696D01*
X122487886Y-94177863D01*
X122564633Y-93856915D01*
X122466551Y-93649648D01*
X122413346Y-93528006D01*
X122314118Y-93243609D01*
X122236265Y-92939454D01*
X122185421Y-92639657D01*
X122167222Y-92368333D01*
X122169425Y-92308281D01*
X122185769Y-92242436D01*
X122218502Y-92238616D01*
X122268165Y-92296979D01*
X122335298Y-92417685D01*
X122422068Y-92591033D01*
X122459051Y-92447565D01*
X122463024Y-92432241D01*
X122511351Y-92259301D01*
X122557020Y-92118856D01*
X122596361Y-92021273D01*
X122625704Y-91976915D01*
X122639678Y-91975063D01*
X122674960Y-92013923D01*
X122713360Y-92105485D01*
X122751836Y-92241524D01*
X122787344Y-92413814D01*
X122829523Y-92653620D01*
X122902998Y-92495120D01*
X122912732Y-92474386D01*
X122984541Y-92338858D01*
X123046533Y-92252870D01*
X123094235Y-92222792D01*
X123094646Y-92222820D01*
X123104291Y-92254013D01*
X123105726Y-92332704D01*
X123098620Y-92442318D01*
X123088182Y-92538306D01*
X123026272Y-92905692D01*
X122933950Y-93252798D01*
X122816478Y-93558798D01*
X122780617Y-93637068D01*
X122734552Y-93745604D01*
X122707241Y-93835374D01*
X122697544Y-93922876D01*
X122704322Y-94024608D01*
X122726434Y-94157066D01*
X122762742Y-94336748D01*
X122806304Y-94548144D01*
X122902297Y-94355428D01*
X122934802Y-94292091D01*
X122996748Y-94188036D01*
X123039769Y-94146102D01*
X123064937Y-94166551D01*
X123073328Y-94249649D01*
X123066015Y-94395658D01*
X123061467Y-94444172D01*
X123019505Y-94721385D01*
X122952784Y-95008254D01*
X122867861Y-95279945D01*
X122771295Y-95511624D01*
X122755914Y-95543111D01*
X122704553Y-95652621D01*
X122668599Y-95736202D01*
X122655058Y-95777812D01*
X122656997Y-95786300D01*
X122681805Y-95842755D01*
X122729182Y-95934976D01*
X122791494Y-96047855D01*
X122855624Y-96154269D01*
X122913407Y-96229108D01*
X122951617Y-96245031D01*
X122972870Y-96202807D01*
X122979784Y-96103206D01*
X122980434Y-96080263D01*
X122993282Y-95985117D01*
X123017693Y-95904129D01*
X123047261Y-95854111D01*
X123075577Y-95851875D01*
X123078348Y-95855576D01*
X123100826Y-95909116D01*
X123130737Y-96005058D01*
X123162396Y-96125480D01*
X123179043Y-96202465D01*
X123199353Y-96336338D01*
X123213228Y-96496638D01*
X123221658Y-96696205D01*
X123225629Y-96947883D01*
X123226256Y-97014142D01*
X123231011Y-97236598D01*
X123239309Y-97404371D01*
X123250928Y-97514028D01*
X123265644Y-97562136D01*
X123266484Y-97562906D01*
X123310516Y-97580796D01*
X123395501Y-97602330D01*
X123504043Y-97624495D01*
X123618746Y-97644278D01*
X123722215Y-97658663D01*
X123797053Y-97664638D01*
X123825865Y-97659189D01*
X123812460Y-97638413D01*
X123765260Y-97581499D01*
X123695775Y-97503916D01*
X123644123Y-97445990D01*
X123578717Y-97359494D01*
X123564422Y-97311874D01*
X123601817Y-97302686D01*
X123691481Y-97331484D01*
X123833995Y-97397825D01*
X123960258Y-97462625D01*
X124170266Y-97580045D01*
X124347624Y-97696194D01*
X124511451Y-97824149D01*
X124680863Y-97976983D01*
X124719448Y-98013563D01*
X124816848Y-98103566D01*
X124883401Y-98157222D01*
X124931161Y-98181367D01*
X124972182Y-98182836D01*
X125018519Y-98168466D01*
X125115898Y-98131710D01*
X125007501Y-97951699D01*
X124979771Y-97904529D01*
X124918322Y-97783551D01*
X124899976Y-97710834D01*
X124924789Y-97686556D01*
X124941895Y-97689039D01*
X125014865Y-97707833D01*
X125125582Y-97740765D01*
X125258219Y-97782672D01*
X125396948Y-97828386D01*
X125525940Y-97872743D01*
X125629368Y-97910579D01*
X125691402Y-97936726D01*
X125753151Y-97977930D01*
X125844950Y-98054195D01*
X125939400Y-98144582D01*
X125976023Y-98181360D01*
X126083013Y-98270163D01*
X126178049Y-98308346D01*
X126273413Y-98295222D01*
X126381383Y-98230098D01*
X126514243Y-98112286D01*
X126569943Y-98059197D01*
X126648461Y-97990857D01*
X126723686Y-97939708D01*
X126812059Y-97896927D01*
X126930022Y-97853693D01*
X127094019Y-97801181D01*
X127102901Y-97798415D01*
X127249142Y-97754651D01*
X127371047Y-97721382D01*
X127456108Y-97701816D01*
X127491819Y-97699160D01*
X127499912Y-97718557D01*
X127489896Y-97787770D01*
X127450568Y-97884242D01*
X127387892Y-97991210D01*
X127364177Y-98026654D01*
X127322330Y-98092470D01*
X127305762Y-98123871D01*
X127306166Y-98125046D01*
X127338979Y-98144005D01*
X127408304Y-98171253D01*
X127461435Y-98187017D01*
X127509018Y-98184030D01*
X127557561Y-98148504D01*
X127626953Y-98071354D01*
X127744973Y-97952276D01*
X127915609Y-97810699D01*
X128116539Y-97665842D01*
X128332292Y-97528810D01*
X128547396Y-97410707D01*
X128636786Y-97367059D01*
X128747254Y-97316668D01*
X128825872Y-97285254D01*
X128859697Y-97278306D01*
X128861116Y-97303327D01*
X128825851Y-97368233D01*
X128753840Y-97459988D01*
X128651879Y-97569089D01*
X128598207Y-97625850D01*
X128568920Y-97669087D01*
X128589996Y-97672841D01*
X128643225Y-97660230D01*
X128744744Y-97644234D01*
X128865124Y-97630487D01*
X128869435Y-97630078D01*
X129037947Y-97599458D01*
X129147660Y-97544668D01*
X129200842Y-97463841D01*
X129199761Y-97355111D01*
X129190823Y-97305893D01*
X129176891Y-97138419D01*
X129176108Y-96930921D01*
X129187085Y-96700291D01*
X129208431Y-96463422D01*
X129238756Y-96237207D01*
X129276671Y-96038539D01*
X129320786Y-95884309D01*
X129336257Y-95846899D01*
X129354365Y-95842611D01*
X129384983Y-95893689D01*
X129400724Y-95932976D01*
X129425792Y-96032308D01*
X129443529Y-96148031D01*
X129462063Y-96327612D01*
X129566672Y-96143044D01*
X129620066Y-96052148D01*
X129673528Y-95968004D01*
X129708112Y-95921645D01*
X129718789Y-95908974D01*
X129743274Y-95823415D01*
X129725074Y-95705731D01*
X129665706Y-95568565D01*
X129617013Y-95468112D01*
X129546107Y-95281903D01*
X129477765Y-95061866D01*
X129416593Y-94826239D01*
X129367196Y-94593261D01*
X129334180Y-94381168D01*
X129322151Y-94208198D01*
X129322674Y-94192119D01*
X129339472Y-94149180D01*
X129377702Y-94163391D01*
X129434349Y-94232369D01*
X129506396Y-94353730D01*
X129609334Y-94545588D01*
X129631329Y-94416776D01*
X129632851Y-94407989D01*
X129656622Y-94287030D01*
X129682690Y-94174136D01*
X129688753Y-94149158D01*
X129711320Y-93968914D01*
X129697665Y-93803317D01*
X129649162Y-93672929D01*
X129622791Y-93625635D01*
X129557435Y-93475214D01*
X129491451Y-93283166D01*
X129429613Y-93065634D01*
X129376693Y-92838763D01*
X129337465Y-92618694D01*
X129319485Y-92483397D01*
X129306449Y-92357050D01*
X129301545Y-92267488D01*
X129305882Y-92228425D01*
X129327362Y-92228275D01*
X129373991Y-92267279D01*
X129429641Y-92337738D01*
X129482565Y-92424211D01*
X129521016Y-92511254D01*
X129534589Y-92548662D01*
X129561020Y-92590538D01*
X129585639Y-92576299D01*
X129601181Y-92540416D01*
X129614355Y-92462005D01*
X129614557Y-92455291D01*
X129626269Y-92379478D01*
X129651814Y-92277232D01*
X129685380Y-92166488D01*
X129721160Y-92065180D01*
X129753343Y-91991243D01*
X129776120Y-91962612D01*
X129791316Y-91976776D01*
G37*
%TO.C,H6*%
G36*
X154903419Y-90537500D02*
G01*
X154918074Y-90568733D01*
X154949504Y-90615805D01*
X154993002Y-90638558D01*
X155067544Y-90650000D01*
X155186590Y-90662500D01*
X155092949Y-90725000D01*
X155063256Y-90745423D01*
X155025433Y-90779978D01*
X155011281Y-90819728D01*
X155017890Y-90878847D01*
X155042350Y-90971512D01*
X155059107Y-91030524D01*
X154956807Y-90962892D01*
X154854507Y-90895260D01*
X154765480Y-90963097D01*
X154708759Y-91000039D01*
X154679161Y-91001089D01*
X154677781Y-90962619D01*
X154703261Y-90882877D01*
X154712107Y-90857071D01*
X154714133Y-90819101D01*
X154690641Y-90782553D01*
X154634443Y-90731621D01*
X154538818Y-90650743D01*
X154654968Y-90650371D01*
X154703664Y-90649499D01*
X154754339Y-90639690D01*
X154785122Y-90608605D01*
X154814729Y-90543750D01*
X154858341Y-90437500D01*
X154903419Y-90537500D01*
G37*
G36*
X152286248Y-94218750D02*
G01*
X152305133Y-94263137D01*
X152333094Y-94305837D01*
X152373730Y-94322419D01*
X152445722Y-94325371D01*
X152561872Y-94325743D01*
X152466248Y-94406621D01*
X152432247Y-94436102D01*
X152394103Y-94477517D01*
X152384894Y-94512841D01*
X152397430Y-94557877D01*
X152415674Y-94615765D01*
X152424237Y-94665399D01*
X152419900Y-94678854D01*
X152392950Y-94674007D01*
X152336401Y-94635615D01*
X152248566Y-94568685D01*
X152145075Y-94637105D01*
X152041584Y-94705524D01*
X152058340Y-94646512D01*
X152069954Y-94604872D01*
X152087820Y-94526945D01*
X152087591Y-94477856D01*
X152067369Y-94444182D01*
X152025259Y-94412500D01*
X151976923Y-94377655D01*
X151953542Y-94346462D01*
X151977592Y-94329880D01*
X152049894Y-94325000D01*
X152083426Y-94324462D01*
X152133193Y-94315074D01*
X152165204Y-94284052D01*
X152196971Y-94218750D01*
X152242923Y-94112500D01*
X152286248Y-94218750D01*
G37*
G36*
X153772982Y-96214141D02*
G01*
X153798727Y-96277464D01*
X153815556Y-96321006D01*
X153843191Y-96367562D01*
X153884391Y-96389209D01*
X153957347Y-96400000D01*
X154075421Y-96412500D01*
X153985872Y-96473467D01*
X153954172Y-96495835D01*
X153920269Y-96528927D01*
X153908475Y-96568353D01*
X153916302Y-96627940D01*
X153941266Y-96721512D01*
X153958023Y-96780524D01*
X153855463Y-96712720D01*
X153752903Y-96644916D01*
X153675208Y-96700185D01*
X153629321Y-96730001D01*
X153591289Y-96740659D01*
X153581608Y-96711609D01*
X153596517Y-96639973D01*
X153605198Y-96605931D01*
X153607336Y-96560955D01*
X153584840Y-96523667D01*
X153530078Y-96475129D01*
X153438843Y-96400000D01*
X153555215Y-96400000D01*
X153602487Y-96399369D01*
X153652787Y-96390814D01*
X153680211Y-96363415D01*
X153701838Y-96306250D01*
X153708654Y-96285305D01*
X153734071Y-96216242D01*
X153753472Y-96193127D01*
X153772982Y-96214141D01*
G37*
G36*
X151337258Y-94218750D02*
G01*
X151355428Y-94261352D01*
X151383671Y-94305221D01*
X151424190Y-94322468D01*
X151495865Y-94325838D01*
X151610936Y-94326676D01*
X151519655Y-94401210D01*
X151428374Y-94475744D01*
X151462425Y-94588776D01*
X151470764Y-94616692D01*
X151482977Y-94667930D01*
X151474336Y-94684034D01*
X151438098Y-94667197D01*
X151367522Y-94619608D01*
X151336909Y-94599205D01*
X151301979Y-94586265D01*
X151264970Y-94597733D01*
X151206285Y-94635545D01*
X151178556Y-94653932D01*
X151129521Y-94683733D01*
X151107476Y-94692868D01*
X151106982Y-94687044D01*
X151114061Y-94646305D01*
X151130017Y-94580934D01*
X151141363Y-94536022D01*
X151145118Y-94486688D01*
X151124280Y-94448879D01*
X151071846Y-94400919D01*
X150985321Y-94327032D01*
X151099016Y-94326016D01*
X151144180Y-94324993D01*
X151195118Y-94315195D01*
X151225252Y-94284100D01*
X151253216Y-94218750D01*
X151293721Y-94112500D01*
X151337258Y-94218750D01*
G37*
G36*
X155110640Y-89725000D02*
G01*
X155126871Y-89767453D01*
X155150560Y-89831250D01*
X155157321Y-89848469D01*
X155180416Y-89882276D01*
X155220962Y-89896991D01*
X155295194Y-89900371D01*
X155414680Y-89900743D01*
X155319055Y-89981621D01*
X155285055Y-90011102D01*
X155246911Y-90052517D01*
X155237702Y-90087841D01*
X155250238Y-90132877D01*
X155268441Y-90191060D01*
X155277045Y-90242094D01*
X155271354Y-90258365D01*
X155244178Y-90251853D01*
X155188018Y-90213097D01*
X155098991Y-90145260D01*
X154996692Y-90212892D01*
X154894392Y-90280524D01*
X154911148Y-90221512D01*
X154925806Y-90168683D01*
X154941428Y-90095080D01*
X154937699Y-90047714D01*
X154911709Y-90012413D01*
X154860549Y-89975000D01*
X154766908Y-89912500D01*
X154885954Y-89900000D01*
X154923009Y-89895631D01*
X154981955Y-89880880D01*
X155018086Y-89849175D01*
X155050435Y-89787500D01*
X155067232Y-89752999D01*
X155093899Y-89716056D01*
X155110640Y-89725000D01*
G37*
G36*
X154221033Y-97027301D02*
G01*
X154249953Y-97106250D01*
X154262950Y-97144363D01*
X154285886Y-97182584D01*
X154324858Y-97197761D01*
X154396867Y-97200838D01*
X154513793Y-97201676D01*
X154421937Y-97276671D01*
X154393907Y-97300057D01*
X154353581Y-97341947D01*
X154342614Y-97379971D01*
X154353119Y-97431918D01*
X154353733Y-97434065D01*
X154369592Y-97499188D01*
X154376158Y-97544857D01*
X154373783Y-97552006D01*
X154345231Y-97547736D01*
X154288322Y-97510615D01*
X154200487Y-97443685D01*
X154100638Y-97509697D01*
X154089918Y-97516777D01*
X154032619Y-97552231D01*
X154007438Y-97555742D01*
X154008529Y-97522014D01*
X154030044Y-97445749D01*
X154040936Y-97407482D01*
X154045841Y-97359991D01*
X154025746Y-97322852D01*
X153973739Y-97275115D01*
X153888178Y-97202032D01*
X154003792Y-97201016D01*
X154119407Y-97200000D01*
X154151320Y-97086132D01*
X154153840Y-97077263D01*
X154176746Y-97013577D01*
X154197887Y-96996666D01*
X154221033Y-97027301D01*
G37*
G36*
X152353271Y-97093750D02*
G01*
X152373464Y-97136887D01*
X152403515Y-97180234D01*
X152444959Y-97197129D01*
X152516939Y-97200000D01*
X152632773Y-97200000D01*
X152536921Y-97282775D01*
X152493166Y-97321735D01*
X152460793Y-97360730D01*
X152455419Y-97397461D01*
X152470190Y-97449006D01*
X152473017Y-97457213D01*
X152491677Y-97517825D01*
X152499311Y-97554610D01*
X152487703Y-97562880D01*
X152441926Y-97542282D01*
X152360629Y-97487699D01*
X152349628Y-97480067D01*
X152315388Y-97466064D01*
X152276995Y-97476240D01*
X152216738Y-97513807D01*
X152158292Y-97547953D01*
X152127428Y-97548739D01*
X152125602Y-97511225D01*
X152150748Y-97432877D01*
X152159595Y-97407071D01*
X152161620Y-97369101D01*
X152138129Y-97332553D01*
X152081931Y-97281621D01*
X151986306Y-97200743D01*
X152105958Y-97200371D01*
X152134756Y-97199603D01*
X152205001Y-97189212D01*
X152236595Y-97168750D01*
X152252694Y-97125063D01*
X152276507Y-97062500D01*
X152305435Y-96987500D01*
X152353271Y-97093750D01*
G37*
G36*
X156323376Y-89739763D02*
G01*
X156353219Y-89812848D01*
X156364579Y-89845038D01*
X156387539Y-89882396D01*
X156426686Y-89897591D01*
X156498936Y-89900838D01*
X156615862Y-89901676D01*
X156524006Y-89976671D01*
X156495976Y-90000057D01*
X156455650Y-90041947D01*
X156444683Y-90079971D01*
X156455188Y-90131918D01*
X156455802Y-90134065D01*
X156471661Y-90199188D01*
X156478227Y-90244857D01*
X156475852Y-90252006D01*
X156447300Y-90247736D01*
X156390391Y-90210615D01*
X156302556Y-90143685D01*
X156202707Y-90209697D01*
X156196511Y-90213791D01*
X156136663Y-90251189D01*
X156109899Y-90256339D01*
X156110085Y-90224058D01*
X156131090Y-90149161D01*
X156140978Y-90114232D01*
X156145762Y-90066771D01*
X156125967Y-90028330D01*
X156074785Y-89978243D01*
X155990247Y-89901465D01*
X156105153Y-89900732D01*
X156153710Y-89899763D01*
X156202469Y-89890390D01*
X156228929Y-89860897D01*
X156250265Y-89799278D01*
X156271814Y-89741410D01*
X156296997Y-89716050D01*
X156323376Y-89739763D01*
G37*
G36*
X152164021Y-95601126D02*
G01*
X152188795Y-95627168D01*
X152213614Y-95681624D01*
X152220137Y-95700053D01*
X152244027Y-95742130D01*
X152284344Y-95763486D01*
X152357893Y-95775000D01*
X152475061Y-95787500D01*
X152386012Y-95858173D01*
X152377088Y-95865408D01*
X152321051Y-95924437D01*
X152309362Y-95970673D01*
X152322247Y-96017797D01*
X152339286Y-96085672D01*
X152356811Y-96158845D01*
X152284169Y-96108521D01*
X152278615Y-96104683D01*
X152222425Y-96066795D01*
X152184427Y-96042704D01*
X152172074Y-96041033D01*
X152124339Y-96056357D01*
X152062016Y-96091912D01*
X151966706Y-96156613D01*
X151983951Y-96084556D01*
X151998593Y-96025912D01*
X152013551Y-95970808D01*
X152014610Y-95965862D01*
X151996596Y-95918363D01*
X151932631Y-95858308D01*
X151839355Y-95787500D01*
X151960793Y-95775000D01*
X151996115Y-95770966D01*
X152055464Y-95757625D01*
X152087751Y-95731273D01*
X152109342Y-95681624D01*
X152112077Y-95673813D01*
X152137517Y-95621961D01*
X152161478Y-95600749D01*
X152164021Y-95601126D01*
G37*
G36*
X152683239Y-89703026D02*
G01*
X152704614Y-89738149D01*
X152727489Y-89800000D01*
X152740777Y-89841809D01*
X152763192Y-89882098D01*
X152801343Y-89897764D01*
X152872385Y-89900732D01*
X152987291Y-89901465D01*
X152903673Y-89977422D01*
X152881826Y-89997712D01*
X152846191Y-90039251D01*
X152833173Y-90082355D01*
X152840535Y-90142304D01*
X152866037Y-90234380D01*
X152866484Y-90235888D01*
X152870547Y-90262202D01*
X152856258Y-90265232D01*
X152816575Y-90242494D01*
X152744457Y-90191505D01*
X152676795Y-90142304D01*
X152589722Y-90208652D01*
X152565863Y-90226502D01*
X152516152Y-90261211D01*
X152490917Y-90275000D01*
X152488934Y-90269053D01*
X152495287Y-90229008D01*
X152512720Y-90163680D01*
X152546255Y-90052361D01*
X152453965Y-89977018D01*
X152361675Y-89901676D01*
X152479538Y-89900838D01*
X152532772Y-89899678D01*
X152580551Y-89890005D01*
X152606484Y-89860603D01*
X152627390Y-89800000D01*
X152635311Y-89775614D01*
X152658566Y-89721563D01*
X152677440Y-89700000D01*
X152683239Y-89703026D01*
G37*
G36*
X153276839Y-97818750D02*
G01*
X153298628Y-97866529D01*
X153327602Y-97906955D01*
X153369534Y-97922603D01*
X153442964Y-97925371D01*
X153562858Y-97925743D01*
X153465020Y-98008436D01*
X153419098Y-98048500D01*
X153386858Y-98086861D01*
X153381539Y-98123216D01*
X153396202Y-98174295D01*
X153398906Y-98182143D01*
X153417579Y-98242959D01*
X153425222Y-98280206D01*
X153423808Y-98287976D01*
X153408241Y-98290176D01*
X153368957Y-98269438D01*
X153297904Y-98222087D01*
X153272343Y-98205076D01*
X153237083Y-98191451D01*
X153199984Y-98202226D01*
X153141500Y-98239587D01*
X153084027Y-98273134D01*
X153053286Y-98273840D01*
X153051503Y-98236267D01*
X153076660Y-98157877D01*
X153085506Y-98132071D01*
X153087532Y-98094101D01*
X153064040Y-98057553D01*
X153007842Y-98006621D01*
X152912217Y-97925743D01*
X153031870Y-97925371D01*
X153060668Y-97924603D01*
X153130912Y-97914212D01*
X153162506Y-97893750D01*
X153178479Y-97850116D01*
X153202048Y-97787500D01*
X153230606Y-97712500D01*
X153276839Y-97818750D01*
G37*
G36*
X153812049Y-91262577D02*
G01*
X153840215Y-91333044D01*
X153848393Y-91355333D01*
X153872507Y-91394088D01*
X153914001Y-91413951D01*
X153989202Y-91425000D01*
X154111077Y-91437500D01*
X154016762Y-91512829D01*
X153986207Y-91537785D01*
X153946441Y-91578109D01*
X153936560Y-91612907D01*
X153949105Y-91658206D01*
X153967237Y-91715482D01*
X153975764Y-91764127D01*
X153974757Y-91787035D01*
X153965004Y-91796249D01*
X153936031Y-91781055D01*
X153877360Y-91738748D01*
X153794257Y-91677497D01*
X153705004Y-91738086D01*
X153680696Y-91754152D01*
X153631547Y-91783352D01*
X153608751Y-91791682D01*
X153607871Y-91787558D01*
X153613431Y-91749576D01*
X153628799Y-91686824D01*
X153641074Y-91637514D01*
X153640686Y-91595001D01*
X153615810Y-91557762D01*
X153559303Y-91507351D01*
X153462759Y-91425743D01*
X153590177Y-91425371D01*
X153660281Y-91423882D01*
X153704065Y-91413126D01*
X153728111Y-91382799D01*
X153748316Y-91322566D01*
X153767878Y-91266696D01*
X153789394Y-91240627D01*
X153812049Y-91262577D01*
G37*
G36*
X153878508Y-89703026D02*
G01*
X153899883Y-89738149D01*
X153922758Y-89800000D01*
X153937167Y-89844973D01*
X153959634Y-89883210D01*
X153998509Y-89898007D01*
X154070611Y-89900838D01*
X154188473Y-89901676D01*
X154096184Y-89977018D01*
X154003894Y-90052361D01*
X154037429Y-90163680D01*
X154047592Y-90199498D01*
X154059692Y-90253672D01*
X154059231Y-90275000D01*
X154052993Y-90272621D01*
X154016158Y-90249251D01*
X153960886Y-90209002D01*
X153874273Y-90143004D01*
X153782469Y-90208259D01*
X153754876Y-90227155D01*
X153705224Y-90256744D01*
X153681332Y-90264191D01*
X153679966Y-90258947D01*
X153685430Y-90218824D01*
X153701967Y-90154945D01*
X153713615Y-90113923D01*
X153718397Y-90066120D01*
X153698509Y-90027968D01*
X153647396Y-89978243D01*
X153562858Y-89901465D01*
X153677763Y-89900732D01*
X153725996Y-89899773D01*
X153774916Y-89890469D01*
X153801419Y-89861186D01*
X153822660Y-89800000D01*
X153830580Y-89775614D01*
X153853835Y-89721563D01*
X153872709Y-89700000D01*
X153878508Y-89703026D01*
G37*
G36*
X155928529Y-90457773D02*
G01*
X155955450Y-90524278D01*
X155975967Y-90580953D01*
X156005329Y-90616731D01*
X156050513Y-90626757D01*
X156099948Y-90631722D01*
X156163138Y-90647227D01*
X156169370Y-90649742D01*
X156190830Y-90664667D01*
X156179185Y-90685810D01*
X156129918Y-90723551D01*
X156111408Y-90737019D01*
X156075198Y-90770795D01*
X156061603Y-90809047D01*
X156068362Y-90866092D01*
X156093220Y-90956250D01*
X156097542Y-90973658D01*
X156092675Y-90996559D01*
X156060667Y-90987355D01*
X155996398Y-90945475D01*
X155919750Y-90890950D01*
X155819915Y-90948351D01*
X155720080Y-91005752D01*
X155734544Y-90934126D01*
X155747980Y-90876702D01*
X155764171Y-90823381D01*
X155765759Y-90817938D01*
X155750175Y-90774249D01*
X155687395Y-90718911D01*
X155595456Y-90653560D01*
X155692753Y-90637332D01*
X155708575Y-90634678D01*
X155786534Y-90619482D01*
X155829909Y-90602005D01*
X155851646Y-90573940D01*
X155864689Y-90526975D01*
X155879504Y-90474622D01*
X155903023Y-90441227D01*
X155928529Y-90457773D01*
G37*
G36*
X151738280Y-94912500D02*
G01*
X151738810Y-94913705D01*
X151762140Y-94975209D01*
X151772468Y-95018750D01*
X151774906Y-95026307D01*
X151814627Y-95044074D01*
X151902889Y-95050000D01*
X152032181Y-95050000D01*
X151936329Y-95132775D01*
X151892575Y-95171735D01*
X151860202Y-95210730D01*
X151854828Y-95247461D01*
X151869599Y-95299006D01*
X151872393Y-95307119D01*
X151891076Y-95367980D01*
X151898720Y-95405206D01*
X151897306Y-95412976D01*
X151881739Y-95415176D01*
X151842454Y-95394438D01*
X151771401Y-95347087D01*
X151745841Y-95330076D01*
X151710580Y-95316451D01*
X151673481Y-95327226D01*
X151614997Y-95364587D01*
X151558153Y-95397860D01*
X151526951Y-95399046D01*
X151524812Y-95361924D01*
X151549709Y-95283993D01*
X151557998Y-95259808D01*
X151560173Y-95221643D01*
X151536867Y-95184723D01*
X151480892Y-95133304D01*
X151385715Y-95051877D01*
X151501865Y-95050938D01*
X151550119Y-95049840D01*
X151601041Y-95039813D01*
X151631962Y-95008639D01*
X151661618Y-94943750D01*
X151705221Y-94837500D01*
X151738280Y-94912500D01*
G37*
G36*
X156183203Y-94128183D02*
G01*
X156203982Y-94163390D01*
X156227981Y-94225000D01*
X156242063Y-94265442D01*
X156265912Y-94306545D01*
X156304660Y-94322735D01*
X156375878Y-94326016D01*
X156490739Y-94327032D01*
X156405969Y-94399456D01*
X156363731Y-94440942D01*
X156335171Y-94496322D01*
X156337350Y-94564518D01*
X156368116Y-94660351D01*
X156370026Y-94665390D01*
X156375573Y-94690019D01*
X156361612Y-94692164D01*
X156321183Y-94669476D01*
X156247325Y-94619608D01*
X156216712Y-94599205D01*
X156181782Y-94586265D01*
X156144773Y-94597733D01*
X156086088Y-94635545D01*
X156058325Y-94653809D01*
X156008552Y-94682934D01*
X155985314Y-94690905D01*
X155984477Y-94686113D01*
X155992574Y-94647575D01*
X156012618Y-94585317D01*
X156047701Y-94487500D01*
X155956412Y-94407188D01*
X155865124Y-94326877D01*
X155982986Y-94325938D01*
X156036157Y-94324735D01*
X156083971Y-94315024D01*
X156109925Y-94285607D01*
X156130839Y-94225000D01*
X156138704Y-94200509D01*
X156160886Y-94146531D01*
X156177887Y-94125000D01*
X156183203Y-94128183D01*
G37*
G36*
X156962451Y-90453026D02*
G01*
X156983826Y-90488149D01*
X157006701Y-90550000D01*
X157019937Y-90591648D01*
X157042376Y-90632055D01*
X157080543Y-90647857D01*
X157151597Y-90651016D01*
X157266503Y-90652032D01*
X157182010Y-90724224D01*
X157154965Y-90748068D01*
X157121806Y-90786796D01*
X157110502Y-90829402D01*
X157119001Y-90890419D01*
X157145249Y-90984380D01*
X157146406Y-90988338D01*
X157149878Y-91013007D01*
X157135369Y-91015504D01*
X157095405Y-90993383D01*
X157022513Y-90944198D01*
X157015879Y-90939618D01*
X156969218Y-90912013D01*
X156934285Y-90913540D01*
X156884877Y-90944198D01*
X156853747Y-90965661D01*
X156796695Y-91002106D01*
X156771447Y-91007038D01*
X156771262Y-90978311D01*
X156789398Y-90913776D01*
X156823449Y-90800744D01*
X156732168Y-90726210D01*
X156640887Y-90651676D01*
X156758750Y-90650838D01*
X156811984Y-90649678D01*
X156859763Y-90640005D01*
X156885696Y-90610603D01*
X156906602Y-90550000D01*
X156914523Y-90525614D01*
X156937778Y-90471563D01*
X156956652Y-90450000D01*
X156962451Y-90453026D01*
G37*
G36*
X150627601Y-94853053D02*
G01*
X150647346Y-94888190D01*
X150669556Y-94950000D01*
X150683931Y-94994867D01*
X150706414Y-95033184D01*
X150745299Y-95048076D01*
X150817409Y-95051040D01*
X150935271Y-95052081D01*
X150845923Y-95132290D01*
X150802152Y-95172802D01*
X150773457Y-95211515D01*
X150770875Y-95253317D01*
X150788029Y-95318750D01*
X150796624Y-95350006D01*
X150807238Y-95403743D01*
X150804665Y-95425000D01*
X150798313Y-95422966D01*
X150760512Y-95400228D01*
X150705043Y-95360380D01*
X150620239Y-95295760D01*
X150532121Y-95362904D01*
X150481809Y-95398633D01*
X150440924Y-95416246D01*
X150430126Y-95396740D01*
X150446591Y-95339339D01*
X150452523Y-95323191D01*
X150470032Y-95243910D01*
X150452817Y-95186970D01*
X150397242Y-95137500D01*
X150346683Y-95099978D01*
X150327293Y-95070141D01*
X150354926Y-95054517D01*
X150430773Y-95050000D01*
X150466858Y-95049611D01*
X150519312Y-95041424D01*
X150548375Y-95012542D01*
X150572414Y-94950000D01*
X150581215Y-94925003D01*
X150604937Y-94871373D01*
X150622508Y-94850000D01*
X150627601Y-94853053D01*
G37*
G36*
X151701365Y-96303026D02*
G01*
X151722740Y-96338149D01*
X151745615Y-96400000D01*
X151760024Y-96444973D01*
X151782491Y-96483210D01*
X151821366Y-96498007D01*
X151893468Y-96500838D01*
X152011330Y-96501676D01*
X151919021Y-96577034D01*
X151826711Y-96652393D01*
X151862715Y-96754339D01*
X151872080Y-96781229D01*
X151891137Y-96839019D01*
X151898720Y-96867118D01*
X151887016Y-96868919D01*
X151844929Y-96845956D01*
X151767917Y-96794608D01*
X151737303Y-96774205D01*
X151702373Y-96761265D01*
X151665364Y-96772733D01*
X151606679Y-96810545D01*
X151578950Y-96828932D01*
X151529915Y-96858733D01*
X151507870Y-96867868D01*
X151507376Y-96862044D01*
X151514455Y-96821305D01*
X151530411Y-96755934D01*
X151541758Y-96711022D01*
X151545512Y-96661688D01*
X151524674Y-96623879D01*
X151472240Y-96575919D01*
X151385715Y-96502032D01*
X151500621Y-96501016D01*
X151548664Y-96499942D01*
X151597690Y-96490527D01*
X151624255Y-96461200D01*
X151645517Y-96400000D01*
X151653437Y-96375614D01*
X151676692Y-96321563D01*
X151695566Y-96300000D01*
X151701365Y-96303026D01*
G37*
G36*
X152753018Y-96233024D02*
G01*
X152776808Y-96297566D01*
X152788174Y-96333937D01*
X152810791Y-96379452D01*
X152847464Y-96397066D01*
X152916178Y-96400000D01*
X152983388Y-96404069D01*
X153018778Y-96420744D01*
X153006685Y-96452425D01*
X152947815Y-96501379D01*
X152931737Y-96513078D01*
X152896547Y-96546053D01*
X152883385Y-96583977D01*
X152890238Y-96640995D01*
X152915092Y-96731250D01*
X152919414Y-96748658D01*
X152914546Y-96771559D01*
X152882539Y-96762355D01*
X152818270Y-96720475D01*
X152741621Y-96665950D01*
X152641787Y-96723351D01*
X152541952Y-96780752D01*
X152556416Y-96709126D01*
X152569893Y-96651619D01*
X152586284Y-96597752D01*
X152588028Y-96591848D01*
X152573663Y-96549457D01*
X152513134Y-96497752D01*
X152490611Y-96481859D01*
X152443322Y-96443595D01*
X152424408Y-96420119D01*
X152430534Y-96414148D01*
X152472441Y-96402933D01*
X152541001Y-96395119D01*
X152570554Y-96392913D01*
X152630540Y-96382219D01*
X152663037Y-96357328D01*
X152684893Y-96308044D01*
X152708248Y-96247277D01*
X152731623Y-96216095D01*
X152753018Y-96233024D01*
G37*
G36*
X153251906Y-96908542D02*
G01*
X153277814Y-96974278D01*
X153288777Y-97009336D01*
X153311272Y-97054488D01*
X153347926Y-97072040D01*
X153416671Y-97075000D01*
X153483355Y-97078090D01*
X153518888Y-97091635D01*
X153507074Y-97118764D01*
X153449030Y-97162500D01*
X153405573Y-97195175D01*
X153383532Y-97235230D01*
X153388008Y-97295525D01*
X153388178Y-97296460D01*
X153403296Y-97366315D01*
X153418430Y-97418376D01*
X153423625Y-97440123D01*
X153410418Y-97442841D01*
X153370808Y-97421045D01*
X153297904Y-97372087D01*
X153273355Y-97355698D01*
X153237731Y-97341427D01*
X153200827Y-97351716D01*
X153142828Y-97388686D01*
X153118278Y-97405074D01*
X153066950Y-97437224D01*
X153041308Y-97450000D01*
X153039456Y-97445267D01*
X153045403Y-97407302D01*
X153062596Y-97343750D01*
X153095083Y-97237500D01*
X153003650Y-97157188D01*
X152912217Y-97076877D01*
X153029143Y-97075938D01*
X153072417Y-97075051D01*
X153125105Y-97066718D01*
X153153613Y-97041059D01*
X153174861Y-96987848D01*
X153199864Y-96923844D01*
X153226678Y-96891630D01*
X153251906Y-96908542D01*
G37*
G36*
X153278536Y-95533024D02*
G01*
X153302326Y-95597566D01*
X153313691Y-95633937D01*
X153336309Y-95679452D01*
X153372981Y-95697066D01*
X153441695Y-95700000D01*
X153508905Y-95704069D01*
X153544296Y-95720744D01*
X153532202Y-95752425D01*
X153473333Y-95801379D01*
X153457255Y-95813078D01*
X153422064Y-95846053D01*
X153408902Y-95883977D01*
X153415755Y-95940995D01*
X153440609Y-96031250D01*
X153444931Y-96048658D01*
X153440064Y-96071559D01*
X153408056Y-96062355D01*
X153343787Y-96020475D01*
X153267139Y-95965950D01*
X153167618Y-96023170D01*
X153068097Y-96080391D01*
X153085188Y-96008945D01*
X153099567Y-95951241D01*
X153114147Y-95897345D01*
X153114922Y-95894041D01*
X153098428Y-95849926D01*
X153038055Y-95797345D01*
X153016075Y-95781841D01*
X152968834Y-95743622D01*
X152949925Y-95720119D01*
X152956051Y-95714148D01*
X152997958Y-95702933D01*
X153066518Y-95695119D01*
X153096071Y-95692913D01*
X153156057Y-95682219D01*
X153188554Y-95657328D01*
X153210410Y-95608044D01*
X153233765Y-95547277D01*
X153257141Y-95516095D01*
X153278536Y-95533024D01*
G37*
G36*
X153803434Y-90453026D02*
G01*
X153824809Y-90488149D01*
X153847684Y-90550000D01*
X153862093Y-90594973D01*
X153884560Y-90633210D01*
X153923435Y-90648007D01*
X153995537Y-90650838D01*
X154113399Y-90651676D01*
X154021090Y-90727034D01*
X153928780Y-90802393D01*
X153964784Y-90904339D01*
X153974149Y-90931229D01*
X153993206Y-90989019D01*
X154000789Y-91017118D01*
X153989085Y-91018919D01*
X153946998Y-90995956D01*
X153869985Y-90944608D01*
X153839372Y-90924205D01*
X153804442Y-90911265D01*
X153767433Y-90922733D01*
X153708748Y-90960545D01*
X153681019Y-90978932D01*
X153631984Y-91008733D01*
X153609939Y-91017868D01*
X153609445Y-91012044D01*
X153616524Y-90971305D01*
X153632480Y-90905934D01*
X153643827Y-90861022D01*
X153647581Y-90811688D01*
X153626743Y-90773879D01*
X153574309Y-90725919D01*
X153487784Y-90652032D01*
X153602690Y-90651016D01*
X153650733Y-90649942D01*
X153699759Y-90640527D01*
X153726324Y-90611200D01*
X153747586Y-90550000D01*
X153755506Y-90525614D01*
X153778761Y-90471563D01*
X153797635Y-90450000D01*
X153803434Y-90453026D01*
G37*
G36*
X155488699Y-89062577D02*
G01*
X155516865Y-89133044D01*
X155525301Y-89155977D01*
X155549431Y-89194343D01*
X155591054Y-89214017D01*
X155666440Y-89225000D01*
X155788904Y-89237500D01*
X155695210Y-89314404D01*
X155601516Y-89391308D01*
X155638367Y-89495654D01*
X155648615Y-89526260D01*
X155662739Y-89579097D01*
X155662518Y-89600000D01*
X155655701Y-89598025D01*
X155615446Y-89578713D01*
X155554985Y-89545475D01*
X155460153Y-89490950D01*
X155379670Y-89548202D01*
X155362448Y-89560052D01*
X155313535Y-89588693D01*
X155288795Y-89595071D01*
X155287157Y-89590254D01*
X155290830Y-89550365D01*
X155305491Y-89486674D01*
X155311703Y-89463602D01*
X155320241Y-89407793D01*
X155303705Y-89369028D01*
X155254763Y-89323759D01*
X155237974Y-89309357D01*
X155194410Y-89267150D01*
X155176946Y-89241929D01*
X155181194Y-89237250D01*
X155219805Y-89228479D01*
X155285596Y-89225000D01*
X155324304Y-89224568D01*
X155375116Y-89216113D01*
X155402674Y-89186519D01*
X155424966Y-89122566D01*
X155444528Y-89066696D01*
X155466044Y-89040627D01*
X155488699Y-89062577D01*
G37*
G36*
X155814020Y-91262577D02*
G01*
X155842186Y-91333044D01*
X155850363Y-91355333D01*
X155874478Y-91394088D01*
X155915972Y-91413951D01*
X155991172Y-91425000D01*
X156113047Y-91437500D01*
X156019231Y-91512500D01*
X155925414Y-91587500D01*
X155962976Y-91693750D01*
X155973800Y-91726081D01*
X155987974Y-91779074D01*
X155987809Y-91800000D01*
X155980946Y-91797681D01*
X155942002Y-91775754D01*
X155884024Y-91738187D01*
X155792969Y-91676375D01*
X155708536Y-91740712D01*
X155686293Y-91757045D01*
X155637954Y-91787538D01*
X155613912Y-91794868D01*
X155612319Y-91790090D01*
X155616107Y-91750312D01*
X155630811Y-91686674D01*
X155637023Y-91663602D01*
X155645561Y-91607793D01*
X155629025Y-91569028D01*
X155580084Y-91523759D01*
X155563294Y-91509357D01*
X155519730Y-91467150D01*
X155502266Y-91441929D01*
X155506514Y-91437250D01*
X155545125Y-91428479D01*
X155610916Y-91425000D01*
X155649624Y-91424568D01*
X155700436Y-91416113D01*
X155727995Y-91386519D01*
X155750286Y-91322566D01*
X155769849Y-91266696D01*
X155791364Y-91240627D01*
X155814020Y-91262577D01*
G37*
G36*
X151078044Y-95578053D02*
G01*
X151097790Y-95613190D01*
X151119999Y-95675000D01*
X151134391Y-95719921D01*
X151156867Y-95758197D01*
X151195746Y-95773041D01*
X151267852Y-95775938D01*
X151385715Y-95776877D01*
X151294626Y-95857188D01*
X151252366Y-95895526D01*
X151221992Y-95933626D01*
X151218788Y-95970694D01*
X151236417Y-96025000D01*
X151241141Y-96037727D01*
X151261816Y-96097797D01*
X151271200Y-96132725D01*
X151270582Y-96139192D01*
X151255437Y-96140331D01*
X151215115Y-96118331D01*
X151142301Y-96069608D01*
X151111687Y-96049205D01*
X151076757Y-96036265D01*
X151039748Y-96047733D01*
X150981063Y-96085545D01*
X150953300Y-96103809D01*
X150903527Y-96132934D01*
X150880289Y-96140905D01*
X150879452Y-96136113D01*
X150887549Y-96097575D01*
X150907593Y-96035317D01*
X150942676Y-95937500D01*
X150851387Y-95857188D01*
X150760099Y-95776877D01*
X150874960Y-95775938D01*
X150921670Y-95774927D01*
X150971708Y-95765573D01*
X150999581Y-95736261D01*
X151022858Y-95675000D01*
X151031658Y-95650003D01*
X151055381Y-95596373D01*
X151072951Y-95575000D01*
X151078044Y-95578053D01*
G37*
G36*
X149726681Y-91228053D02*
G01*
X149746450Y-91263189D01*
X149768669Y-91325000D01*
X149780749Y-91363333D01*
X149803114Y-91405848D01*
X149840442Y-91422276D01*
X149910266Y-91425000D01*
X149942990Y-91425827D01*
X149999445Y-91432525D01*
X150021701Y-91443750D01*
X150019539Y-91449367D01*
X149990007Y-91479800D01*
X149936950Y-91520031D01*
X149852370Y-91577563D01*
X149885875Y-91688781D01*
X149903256Y-91754169D01*
X149903099Y-91791391D01*
X149877128Y-91788834D01*
X149821675Y-91750000D01*
X149766877Y-91715674D01*
X149721577Y-91701111D01*
X149677100Y-91715272D01*
X149621478Y-91750000D01*
X149572438Y-91785198D01*
X149542238Y-91793473D01*
X149538408Y-91762500D01*
X149557278Y-91688781D01*
X149590783Y-91577563D01*
X149506203Y-91520031D01*
X149487379Y-91506759D01*
X149440362Y-91468292D01*
X149421452Y-91443750D01*
X149426329Y-91438251D01*
X149466107Y-91428756D01*
X149532887Y-91425000D01*
X149575827Y-91424477D01*
X149625860Y-91415862D01*
X149652901Y-91386831D01*
X149674484Y-91325000D01*
X149682350Y-91300511D01*
X149704548Y-91246531D01*
X149721577Y-91225000D01*
X149726681Y-91228053D01*
G37*
G36*
X155302069Y-93159714D02*
G01*
X155302069Y-93585782D01*
X155184143Y-93705391D01*
X155066217Y-93825000D01*
X154703279Y-93825000D01*
X154340340Y-93825000D01*
X154220614Y-93707189D01*
X154100887Y-93589379D01*
X154100887Y-93051725D01*
X154100887Y-93048061D01*
X154551330Y-93048061D01*
X154552911Y-93204880D01*
X154558316Y-93329370D01*
X154567738Y-93408609D01*
X154581360Y-93445000D01*
X154612871Y-93461618D01*
X154676372Y-93473022D01*
X154748228Y-93473558D01*
X154809332Y-93463394D01*
X154840579Y-93442700D01*
X154842779Y-93429811D01*
X154845921Y-93372127D01*
X154847595Y-93278934D01*
X154847680Y-93159714D01*
X154846050Y-93023950D01*
X154839114Y-92637500D01*
X154730910Y-92629722D01*
X154668275Y-92627038D01*
X154620524Y-92633810D01*
X154587924Y-92656983D01*
X154567588Y-92703276D01*
X154556633Y-92779407D01*
X154552175Y-92892096D01*
X154551330Y-93048061D01*
X154100887Y-93048061D01*
X154100887Y-92514072D01*
X154231412Y-92382036D01*
X154361936Y-92250000D01*
X154712276Y-92250000D01*
X155062616Y-92250000D01*
X155182343Y-92367810D01*
X155302069Y-92485620D01*
X155302069Y-93035701D01*
X155302069Y-93159714D01*
G37*
G36*
X156833676Y-91228053D02*
G01*
X156853445Y-91263189D01*
X156875665Y-91325000D01*
X156887744Y-91363333D01*
X156910109Y-91405848D01*
X156947437Y-91422276D01*
X157017261Y-91425000D01*
X157049985Y-91425827D01*
X157106440Y-91432525D01*
X157128696Y-91443750D01*
X157126534Y-91449367D01*
X157097002Y-91479800D01*
X157043945Y-91520031D01*
X156959365Y-91577563D01*
X156992870Y-91688781D01*
X157010251Y-91754169D01*
X157010094Y-91791391D01*
X156984123Y-91788834D01*
X156928670Y-91750000D01*
X156873872Y-91715674D01*
X156828572Y-91701111D01*
X156784095Y-91715272D01*
X156728473Y-91750000D01*
X156679433Y-91785198D01*
X156649233Y-91793473D01*
X156645403Y-91762500D01*
X156664273Y-91688781D01*
X156697778Y-91577563D01*
X156613198Y-91520031D01*
X156594374Y-91506759D01*
X156547357Y-91468292D01*
X156528447Y-91443750D01*
X156533324Y-91438251D01*
X156573102Y-91428756D01*
X156639883Y-91425000D01*
X156682822Y-91424477D01*
X156732855Y-91415862D01*
X156759896Y-91386831D01*
X156781479Y-91325000D01*
X156789346Y-91300511D01*
X156811543Y-91246531D01*
X156828572Y-91225000D01*
X156833676Y-91228053D01*
G37*
G36*
X149574272Y-90453026D02*
G01*
X149595647Y-90488149D01*
X149618522Y-90550000D01*
X149632913Y-90594921D01*
X149655389Y-90633197D01*
X149694269Y-90648041D01*
X149766374Y-90650938D01*
X149884237Y-90651877D01*
X149793149Y-90732188D01*
X149750888Y-90770526D01*
X149720514Y-90808626D01*
X149717311Y-90845694D01*
X149734939Y-90900000D01*
X149739663Y-90912727D01*
X149760338Y-90972797D01*
X149769722Y-91007725D01*
X149769104Y-91014192D01*
X149753959Y-91015331D01*
X149713638Y-90993331D01*
X149640823Y-90944608D01*
X149610209Y-90924205D01*
X149575279Y-90911265D01*
X149538270Y-90922733D01*
X149479585Y-90960545D01*
X149451856Y-90978932D01*
X149402822Y-91008733D01*
X149380776Y-91017868D01*
X149380282Y-91012044D01*
X149387361Y-90971305D01*
X149403318Y-90905934D01*
X149414664Y-90861022D01*
X149418418Y-90811688D01*
X149397581Y-90773879D01*
X149345147Y-90725919D01*
X149258621Y-90652032D01*
X149373527Y-90651016D01*
X149421571Y-90649942D01*
X149470597Y-90640527D01*
X149497161Y-90611200D01*
X149518423Y-90550000D01*
X149526344Y-90525614D01*
X149549599Y-90471563D01*
X149568472Y-90450000D01*
X149574272Y-90453026D01*
G37*
G36*
X150302281Y-94128053D02*
G01*
X150322026Y-94163190D01*
X150344236Y-94225000D01*
X150358628Y-94269921D01*
X150381103Y-94308197D01*
X150419983Y-94323041D01*
X150492089Y-94325938D01*
X150609951Y-94326877D01*
X150518863Y-94407188D01*
X150476602Y-94445526D01*
X150446229Y-94483626D01*
X150443025Y-94520694D01*
X150460654Y-94575000D01*
X150465378Y-94587727D01*
X150486052Y-94647797D01*
X150495436Y-94682725D01*
X150494819Y-94689192D01*
X150479674Y-94690331D01*
X150439352Y-94668331D01*
X150366537Y-94619608D01*
X150335924Y-94599205D01*
X150300993Y-94586265D01*
X150263985Y-94597733D01*
X150205300Y-94635545D01*
X150177571Y-94653932D01*
X150128536Y-94683733D01*
X150106490Y-94692868D01*
X150105997Y-94687044D01*
X150113075Y-94646305D01*
X150129032Y-94580934D01*
X150140378Y-94536022D01*
X150144133Y-94486688D01*
X150123295Y-94448879D01*
X150070861Y-94400919D01*
X149984335Y-94327032D01*
X150099197Y-94326016D01*
X150145850Y-94324974D01*
X150195920Y-94315589D01*
X150223811Y-94286265D01*
X150247094Y-94225000D01*
X150255895Y-94200003D01*
X150279617Y-94146373D01*
X150297188Y-94125000D01*
X150302281Y-94128053D01*
G37*
G36*
X152733213Y-94875000D02*
G01*
X152749500Y-94917450D01*
X152773220Y-94981250D01*
X152779981Y-94998469D01*
X152803076Y-95032276D01*
X152843622Y-95046991D01*
X152917854Y-95050371D01*
X153037340Y-95050743D01*
X152942899Y-95131621D01*
X152903444Y-95166405D01*
X152868860Y-95206789D01*
X152861510Y-95245308D01*
X152874081Y-95299834D01*
X152877216Y-95310673D01*
X152893196Y-95371909D01*
X152899705Y-95407787D01*
X152899211Y-95409913D01*
X152876660Y-95407209D01*
X152830887Y-95380801D01*
X152828993Y-95379492D01*
X152773324Y-95341978D01*
X152734523Y-95317429D01*
X152726041Y-95315454D01*
X152681799Y-95328174D01*
X152623705Y-95363037D01*
X152603221Y-95377588D01*
X152554417Y-95407136D01*
X152529889Y-95413881D01*
X152528383Y-95409680D01*
X152533139Y-95371250D01*
X152550400Y-95309352D01*
X152565465Y-95259101D01*
X152565687Y-95219392D01*
X152540787Y-95183303D01*
X152484076Y-95133049D01*
X152386700Y-95050743D01*
X152504620Y-95050371D01*
X152554720Y-95049441D01*
X152606055Y-95039461D01*
X152638281Y-95008313D01*
X152670447Y-94943750D01*
X152688828Y-94905770D01*
X152716247Y-94867149D01*
X152733213Y-94875000D01*
G37*
G36*
X154831705Y-91228053D02*
G01*
X154851475Y-91263189D01*
X154873694Y-91325000D01*
X154885774Y-91363333D01*
X154908139Y-91405848D01*
X154945466Y-91422276D01*
X155015291Y-91425000D01*
X155048014Y-91425827D01*
X155104470Y-91432525D01*
X155126726Y-91443750D01*
X155124563Y-91449367D01*
X155095031Y-91479800D01*
X155041975Y-91520031D01*
X154957395Y-91577563D01*
X154990900Y-91688781D01*
X155000998Y-91724543D01*
X155012761Y-91778684D01*
X155011761Y-91800000D01*
X155005279Y-91797852D01*
X154966817Y-91776271D01*
X154909240Y-91738986D01*
X154819361Y-91677972D01*
X154734714Y-91742472D01*
X154712259Y-91758909D01*
X154663598Y-91789129D01*
X154639048Y-91795964D01*
X154637381Y-91791455D01*
X154641348Y-91752179D01*
X154657378Y-91689427D01*
X154666326Y-91659167D01*
X154673678Y-91608611D01*
X154655985Y-91570363D01*
X154606516Y-91522301D01*
X154585781Y-91503355D01*
X154543237Y-91460840D01*
X154526306Y-91437852D01*
X154531218Y-91434088D01*
X154571077Y-91427576D01*
X154637912Y-91425000D01*
X154680852Y-91424477D01*
X154730885Y-91415862D01*
X154757925Y-91386831D01*
X154779509Y-91325000D01*
X154787375Y-91300511D01*
X154809573Y-91246531D01*
X154826601Y-91225000D01*
X154831705Y-91228053D01*
G37*
G36*
X152399212Y-92437500D02*
G01*
X152398352Y-92509476D01*
X152393097Y-92579684D01*
X152381475Y-92615178D01*
X152361675Y-92625000D01*
X152348092Y-92631091D01*
X152337921Y-92654315D01*
X152331021Y-92701248D01*
X152326810Y-92778458D01*
X152324710Y-92892519D01*
X152324138Y-93050000D01*
X152324676Y-93203787D01*
X152326728Y-93318945D01*
X152330873Y-93397075D01*
X152337692Y-93444747D01*
X152347766Y-93468532D01*
X152361675Y-93475000D01*
X152373427Y-93477551D01*
X152389067Y-93500502D01*
X152397005Y-93554919D01*
X152399212Y-93650000D01*
X152399212Y-93825000D01*
X151823646Y-93825000D01*
X151248079Y-93825000D01*
X151248079Y-93612500D01*
X151248079Y-93400000D01*
X151435764Y-93400000D01*
X151507812Y-93400859D01*
X151578088Y-93406108D01*
X151613617Y-93417719D01*
X151623449Y-93437500D01*
X151631455Y-93457086D01*
X151669887Y-93470985D01*
X151748572Y-93475000D01*
X151873695Y-93475000D01*
X151873695Y-93350000D01*
X151872006Y-93304973D01*
X151862945Y-93247484D01*
X151848670Y-93225000D01*
X151837158Y-93229230D01*
X151823646Y-93262500D01*
X151819345Y-93276895D01*
X151793071Y-93290936D01*
X151734960Y-93298035D01*
X151635961Y-93300000D01*
X151448276Y-93300000D01*
X151448276Y-93050000D01*
X151448276Y-92800000D01*
X151635961Y-92800000D01*
X151708009Y-92800859D01*
X151778285Y-92806108D01*
X151813814Y-92817719D01*
X151823646Y-92837500D01*
X151826469Y-92854751D01*
X151848670Y-92875000D01*
X151857685Y-92866564D01*
X151869194Y-92821305D01*
X151873695Y-92750000D01*
X151873695Y-92625000D01*
X151748572Y-92625000D01*
X151703501Y-92626687D01*
X151645955Y-92635738D01*
X151623449Y-92650000D01*
X151623273Y-92651172D01*
X151596249Y-92663500D01*
X151530333Y-92671897D01*
X151435764Y-92675000D01*
X151248079Y-92675000D01*
X151248079Y-92462500D01*
X151248079Y-92250000D01*
X151823646Y-92250000D01*
X152399212Y-92250000D01*
X152399212Y-92437500D01*
G37*
G36*
X153123434Y-92493750D02*
G01*
X153123261Y-92503500D01*
X153123701Y-92630176D01*
X153131791Y-92727678D01*
X153150222Y-92815341D01*
X153181681Y-92912500D01*
X153184474Y-92920229D01*
X153218488Y-93004385D01*
X153244356Y-93049111D01*
X153259582Y-93050000D01*
X153274048Y-93013196D01*
X153312428Y-92906392D01*
X153344707Y-92804032D01*
X153367967Y-92716691D01*
X153379286Y-92654941D01*
X153375745Y-92629357D01*
X153374315Y-92628610D01*
X153361967Y-92596564D01*
X153353372Y-92528082D01*
X153350148Y-92435416D01*
X153350148Y-92250000D01*
X153675468Y-92250000D01*
X154000789Y-92250000D01*
X154000789Y-92437500D01*
X154000616Y-92491111D01*
X153998053Y-92565426D01*
X153989885Y-92605518D01*
X153972936Y-92621878D01*
X153944030Y-92625000D01*
X153931477Y-92626101D01*
X153910981Y-92636098D01*
X153890286Y-92661842D01*
X153866416Y-92709717D01*
X153836396Y-92786111D01*
X153797250Y-92897410D01*
X153746001Y-93050000D01*
X153736531Y-93078567D01*
X153686697Y-93232809D01*
X153653214Y-93345251D01*
X153635005Y-93420215D01*
X153630992Y-93462024D01*
X153640100Y-93475000D01*
X153648019Y-93476409D01*
X153664393Y-93498376D01*
X153672981Y-93553458D01*
X153675468Y-93650000D01*
X153675468Y-93825000D01*
X153250050Y-93825000D01*
X152824631Y-93825000D01*
X152824631Y-93650000D01*
X152824916Y-93610814D01*
X152829356Y-93529798D01*
X152840488Y-93487308D01*
X152860000Y-93475000D01*
X152862274Y-93474689D01*
X152869374Y-93457432D01*
X152863183Y-93410656D01*
X152842625Y-93330041D01*
X152806622Y-93211263D01*
X152754098Y-93050000D01*
X152746851Y-93028203D01*
X152697983Y-92882358D01*
X152661073Y-92776726D01*
X152632911Y-92704827D01*
X152610288Y-92660185D01*
X152589995Y-92636318D01*
X152568821Y-92626749D01*
X152543557Y-92625000D01*
X152474286Y-92625000D01*
X152474286Y-92437500D01*
X152474286Y-92250000D01*
X152801127Y-92250000D01*
X153127967Y-92250000D01*
X153123434Y-92493750D01*
G37*
G36*
X156621386Y-92622260D02*
G01*
X156615862Y-92625000D01*
X156602280Y-92631091D01*
X156592109Y-92654315D01*
X156585208Y-92701248D01*
X156580997Y-92778458D01*
X156578897Y-92892519D01*
X156578326Y-93050000D01*
X156578841Y-93197260D01*
X156578864Y-93203787D01*
X156580915Y-93318945D01*
X156585060Y-93397075D01*
X156591879Y-93444747D01*
X156601953Y-93468532D01*
X156615862Y-93475000D01*
X156627614Y-93477551D01*
X156643254Y-93500502D01*
X156651192Y-93554919D01*
X156653399Y-93650000D01*
X156653399Y-93825000D01*
X156160023Y-93825000D01*
X155666646Y-93825000D01*
X155546919Y-93707189D01*
X155427193Y-93589379D01*
X155427193Y-93352551D01*
X155427314Y-93321715D01*
X155881468Y-93321715D01*
X155886526Y-93392007D01*
X155904110Y-93439244D01*
X155909626Y-93444590D01*
X155959966Y-93466252D01*
X156030848Y-93475000D01*
X156127882Y-93475000D01*
X156127882Y-93336130D01*
X156127882Y-93197260D01*
X156009015Y-93204880D01*
X155951007Y-93209425D01*
X155907587Y-93221276D01*
X155889379Y-93250307D01*
X155882277Y-93307994D01*
X155881468Y-93321715D01*
X155427314Y-93321715D01*
X155427398Y-93300469D01*
X155430327Y-93202176D01*
X155438326Y-93137452D01*
X155453419Y-93094641D01*
X155477630Y-93062087D01*
X155528068Y-93008451D01*
X155477630Y-92962851D01*
X155452007Y-92932339D01*
X155436514Y-92889109D01*
X155429096Y-92821067D01*
X155427362Y-92725000D01*
X155890148Y-92725000D01*
X155891181Y-92767120D01*
X155902531Y-92799585D01*
X155937401Y-92813724D01*
X156009015Y-92820119D01*
X156127882Y-92827739D01*
X156127882Y-92725000D01*
X156127882Y-92622260D01*
X156009015Y-92629880D01*
X155951886Y-92634302D01*
X155908771Y-92645421D01*
X155892600Y-92672126D01*
X155890148Y-92725000D01*
X155427362Y-92725000D01*
X155427193Y-92715661D01*
X155427193Y-92514072D01*
X155557717Y-92382036D01*
X155688241Y-92250000D01*
X156170820Y-92250000D01*
X156653399Y-92250000D01*
X156653399Y-92437500D01*
X156652539Y-92509476D01*
X156647284Y-92579684D01*
X156635662Y-92615178D01*
X156621386Y-92622260D01*
G37*
G36*
X151090943Y-92622260D02*
G01*
X151085419Y-92625000D01*
X151071836Y-92631091D01*
X151061665Y-92654315D01*
X151054765Y-92701248D01*
X151050554Y-92778458D01*
X151048453Y-92892519D01*
X151047882Y-93050000D01*
X151048420Y-93203787D01*
X151050471Y-93318945D01*
X151054617Y-93397075D01*
X151061436Y-93444747D01*
X151071510Y-93468532D01*
X151085419Y-93475000D01*
X151097171Y-93477551D01*
X151112811Y-93500502D01*
X151120749Y-93554919D01*
X151122956Y-93650000D01*
X151122956Y-93825000D01*
X150810148Y-93825000D01*
X150497340Y-93825000D01*
X150497340Y-93650000D01*
X150497354Y-93636070D01*
X150499127Y-93549565D01*
X150506019Y-93501012D01*
X150521087Y-93479721D01*
X150547390Y-93475000D01*
X150565512Y-93473408D01*
X150586085Y-93457897D01*
X150595309Y-93416072D01*
X150597439Y-93336130D01*
X150597439Y-93197260D01*
X150478572Y-93204880D01*
X150359705Y-93212500D01*
X150352678Y-93518750D01*
X150345652Y-93825000D01*
X150071151Y-93825000D01*
X149796651Y-93825000D01*
X149796651Y-93650000D01*
X149796665Y-93636070D01*
X149798437Y-93549565D01*
X149805329Y-93501012D01*
X149820397Y-93479721D01*
X149846700Y-93475000D01*
X149852661Y-93474883D01*
X149876365Y-93467985D01*
X149889652Y-93442809D01*
X149895465Y-93388790D01*
X149896749Y-93295361D01*
X149897395Y-93238890D01*
X149903718Y-93156097D01*
X149919295Y-93101877D01*
X149947187Y-93062087D01*
X149997624Y-93008451D01*
X149947187Y-92962851D01*
X149921563Y-92932339D01*
X149906070Y-92889109D01*
X149898653Y-92821067D01*
X149896918Y-92725000D01*
X150359705Y-92725000D01*
X150360738Y-92767120D01*
X150372088Y-92799585D01*
X150406958Y-92813724D01*
X150478572Y-92820119D01*
X150597439Y-92827739D01*
X150597439Y-92725000D01*
X150597439Y-92622260D01*
X150478572Y-92629880D01*
X150421443Y-92634302D01*
X150378328Y-92645421D01*
X150362156Y-92672126D01*
X150359705Y-92725000D01*
X149896918Y-92725000D01*
X149896749Y-92715661D01*
X149896749Y-92514072D01*
X150027274Y-92382036D01*
X150157798Y-92250000D01*
X150640377Y-92250000D01*
X151122956Y-92250000D01*
X151122956Y-92437500D01*
X151122096Y-92509476D01*
X151116841Y-92579684D01*
X151105219Y-92615178D01*
X151090943Y-92622260D01*
G37*
G36*
X157946542Y-90463949D02*
G01*
X157943327Y-90587500D01*
X157934635Y-90844037D01*
X157889624Y-91532641D01*
X157813174Y-92188388D01*
X157704278Y-92816514D01*
X157561928Y-93422251D01*
X157385116Y-94010835D01*
X157172832Y-94587500D01*
X157037205Y-94908143D01*
X156741774Y-95514733D01*
X156406370Y-96093492D01*
X156030246Y-96645324D01*
X155612661Y-97171132D01*
X155152868Y-97671819D01*
X154650125Y-98148290D01*
X154103686Y-98601449D01*
X153512808Y-99032198D01*
X153488079Y-99049114D01*
X153389155Y-99116550D01*
X153308005Y-99171497D01*
X153252452Y-99208678D01*
X153230321Y-99222813D01*
X153230216Y-99222836D01*
X153205522Y-99210141D01*
X153147852Y-99173750D01*
X153064839Y-99118872D01*
X152964119Y-99050719D01*
X152853325Y-98974500D01*
X152740093Y-98895426D01*
X152632055Y-98818706D01*
X152536848Y-98749550D01*
X152055401Y-98372225D01*
X151531779Y-97905290D01*
X151046379Y-97408029D01*
X150600617Y-96882014D01*
X150195906Y-96328814D01*
X149833663Y-95750000D01*
X149663686Y-95440766D01*
X149376767Y-94840796D01*
X149129547Y-94212191D01*
X148922710Y-93556994D01*
X148756944Y-92877249D01*
X148632936Y-92175000D01*
X148617734Y-92068153D01*
X148584041Y-91814206D01*
X148557880Y-91583479D01*
X148538058Y-91361335D01*
X148523385Y-91133133D01*
X148512667Y-90884234D01*
X148504715Y-90600000D01*
X148501795Y-90471451D01*
X148945813Y-90471451D01*
X148945876Y-90492950D01*
X148950236Y-90680756D01*
X148960793Y-90903220D01*
X148976612Y-91147254D01*
X148996758Y-91399771D01*
X149020297Y-91647684D01*
X149046293Y-91877904D01*
X149109343Y-92311934D01*
X149223884Y-92899773D01*
X149368931Y-93473408D01*
X149541840Y-94022696D01*
X149739967Y-94537500D01*
X149947098Y-94992236D01*
X150253839Y-95568177D01*
X150598612Y-96115246D01*
X150982835Y-96635184D01*
X151407924Y-97129734D01*
X151875294Y-97600641D01*
X152386363Y-98049646D01*
X152942546Y-98478492D01*
X152966329Y-98495671D01*
X153064070Y-98565404D01*
X153145000Y-98621777D01*
X153201269Y-98659389D01*
X153225025Y-98672839D01*
X153225348Y-98672792D01*
X153253584Y-98656511D01*
X153314806Y-98614466D01*
X153402672Y-98551354D01*
X153510841Y-98471873D01*
X153632970Y-98380721D01*
X153762718Y-98282594D01*
X153893743Y-98182190D01*
X154019705Y-98084207D01*
X154086774Y-98030247D01*
X154202462Y-97932681D01*
X154328749Y-97821863D01*
X154460271Y-97702922D01*
X154591663Y-97580987D01*
X154717560Y-97461186D01*
X154832597Y-97348647D01*
X154931409Y-97248498D01*
X155008632Y-97165868D01*
X155058900Y-97105886D01*
X155076848Y-97073679D01*
X155063900Y-97040078D01*
X155023450Y-96980790D01*
X154966056Y-96911099D01*
X154902589Y-96843274D01*
X154843918Y-96789581D01*
X154800915Y-96762290D01*
X154748943Y-96763829D01*
X154674996Y-96801037D01*
X154627788Y-96831228D01*
X154590802Y-96839959D01*
X154582923Y-96809294D01*
X154601554Y-96736971D01*
X154611858Y-96704321D01*
X154618195Y-96657801D01*
X154599098Y-96621314D01*
X154547743Y-96574225D01*
X154463744Y-96502857D01*
X154546052Y-96485608D01*
X154554839Y-96483656D01*
X154604664Y-96467011D01*
X154621126Y-96450768D01*
X154619403Y-96446994D01*
X154593917Y-96405378D01*
X154549175Y-96341116D01*
X154493200Y-96264789D01*
X154434017Y-96186976D01*
X154379650Y-96118255D01*
X154338123Y-96069206D01*
X154317460Y-96050408D01*
X154313388Y-96050970D01*
X154274992Y-96068942D01*
X154219793Y-96104422D01*
X154143288Y-96158845D01*
X154160813Y-96085672D01*
X154175804Y-96025668D01*
X154190737Y-95970673D01*
X154191718Y-95966266D01*
X154174966Y-95918381D01*
X154114301Y-95858173D01*
X154102299Y-95848552D01*
X154057552Y-95808639D01*
X154048752Y-95786997D01*
X154071458Y-95775000D01*
X154087212Y-95764784D01*
X154086211Y-95741668D01*
X154064346Y-95699227D01*
X154018191Y-95630857D01*
X153944317Y-95529952D01*
X153771184Y-95297405D01*
X153684146Y-95363727D01*
X153659477Y-95381746D01*
X153610543Y-95412060D01*
X153585971Y-95418924D01*
X153584308Y-95412947D01*
X153590741Y-95371872D01*
X153610050Y-95308087D01*
X153645265Y-95208376D01*
X153554912Y-95136352D01*
X153520100Y-95108189D01*
X153487881Y-95077089D01*
X153489316Y-95061217D01*
X153520516Y-95050914D01*
X153530507Y-95048257D01*
X153548174Y-95038063D01*
X153549190Y-95017653D01*
X153530272Y-94979534D01*
X153488142Y-94916213D01*
X153419518Y-94820195D01*
X153367222Y-94749802D01*
X153306507Y-94673488D01*
X153259916Y-94621193D01*
X153234656Y-94601445D01*
X153233042Y-94601442D01*
X153193878Y-94616565D01*
X153140814Y-94651814D01*
X153105896Y-94675347D01*
X153077505Y-94676963D01*
X153076252Y-94638168D01*
X153101684Y-94557877D01*
X153110531Y-94532071D01*
X153112556Y-94494101D01*
X153089065Y-94457553D01*
X153032867Y-94406621D01*
X152995646Y-94374618D01*
X152963507Y-94342218D01*
X152964706Y-94328417D01*
X152995650Y-94325371D01*
X153025668Y-94323891D01*
X153036473Y-94313320D01*
X153020203Y-94283691D01*
X152974779Y-94225000D01*
X152895499Y-94125000D01*
X154045410Y-94125000D01*
X155195320Y-94125000D01*
X155261562Y-94225000D01*
X155268726Y-94235706D01*
X155314233Y-94293181D01*
X155358841Y-94319198D01*
X155421291Y-94325555D01*
X155514779Y-94326111D01*
X155455278Y-94371821D01*
X155395776Y-94417531D01*
X155592913Y-94682702D01*
X155658724Y-94770482D01*
X155729444Y-94861392D01*
X155777967Y-94917527D01*
X155808016Y-94942556D01*
X155823315Y-94940149D01*
X155827587Y-94913975D01*
X155832583Y-94878438D01*
X155852311Y-94864680D01*
X155879360Y-94889553D01*
X155905401Y-94949278D01*
X155922733Y-95002280D01*
X155945508Y-95035721D01*
X155986225Y-95048163D01*
X156060939Y-95050000D01*
X156186270Y-95050000D01*
X156089277Y-95133761D01*
X155992283Y-95217523D01*
X156107539Y-95372469D01*
X156222795Y-95527415D01*
X156362457Y-95267299D01*
X156525858Y-94945588D01*
X156773252Y-94378510D01*
X156986174Y-93780440D01*
X157163017Y-93156096D01*
X157302172Y-92510196D01*
X157305182Y-92493629D01*
X157350717Y-92216939D01*
X157392574Y-91915363D01*
X157429539Y-91601179D01*
X157460401Y-91286666D01*
X157483946Y-90984104D01*
X157498962Y-90705772D01*
X157504237Y-90463949D01*
X157504237Y-90249767D01*
X156489240Y-89493633D01*
X156445179Y-89460817D01*
X156247431Y-89313716D01*
X156061390Y-89175612D01*
X155891110Y-89049495D01*
X155740647Y-88938356D01*
X155614053Y-88845187D01*
X155515385Y-88772978D01*
X155448697Y-88724721D01*
X155418043Y-88703407D01*
X155400970Y-88694405D01*
X155373708Y-88689237D01*
X155338257Y-88697989D01*
X155286389Y-88724311D01*
X155209872Y-88771855D01*
X155100479Y-88844270D01*
X154967395Y-88930537D01*
X154615231Y-89130195D01*
X154269248Y-89283106D01*
X153925408Y-89390632D01*
X153579672Y-89454131D01*
X153228003Y-89474965D01*
X152856548Y-89450393D01*
X152482327Y-89376465D01*
X152109871Y-89253792D01*
X151741031Y-89082985D01*
X151377661Y-88864656D01*
X151323093Y-88828300D01*
X151250949Y-88782403D01*
X151212593Y-88762653D01*
X151203588Y-88767055D01*
X151219500Y-88793619D01*
X151326201Y-88939734D01*
X151463518Y-89126274D01*
X151606224Y-89318709D01*
X151751129Y-89512847D01*
X151895041Y-89704494D01*
X152034769Y-89889454D01*
X152167124Y-90063534D01*
X152288915Y-90222540D01*
X152396950Y-90362278D01*
X152488039Y-90478554D01*
X152558991Y-90567174D01*
X152606616Y-90623944D01*
X152627723Y-90644669D01*
X152631680Y-90645149D01*
X152665744Y-90622630D01*
X152696248Y-90551012D01*
X152704476Y-90525714D01*
X152727776Y-90471575D01*
X152746600Y-90450000D01*
X152752400Y-90453026D01*
X152773775Y-90488149D01*
X152796650Y-90550000D01*
X152811058Y-90594973D01*
X152833526Y-90633210D01*
X152872401Y-90648007D01*
X152944502Y-90650838D01*
X153062365Y-90651676D01*
X152971084Y-90726210D01*
X152879803Y-90800744D01*
X152913581Y-90912872D01*
X152930448Y-90974969D01*
X152933203Y-91015876D01*
X152912574Y-91016799D01*
X152866126Y-90981249D01*
X152852992Y-90972585D01*
X152858173Y-90987483D01*
X152885918Y-91030566D01*
X152937837Y-91104108D01*
X153015540Y-91210383D01*
X153120637Y-91351666D01*
X153169589Y-91416849D01*
X153254738Y-91530230D01*
X153289604Y-91576680D01*
X153362861Y-91675498D01*
X153421768Y-91756657D01*
X153461010Y-91812778D01*
X153475271Y-91836480D01*
X153458871Y-91838771D01*
X153397315Y-91841394D01*
X153294773Y-91843776D01*
X153156222Y-91845858D01*
X152986640Y-91847581D01*
X152791003Y-91848885D01*
X152574290Y-91849711D01*
X152341477Y-91850000D01*
X151207683Y-91850000D01*
X151088249Y-91687500D01*
X151071251Y-91664538D01*
X151016847Y-91593426D01*
X150976053Y-91543708D01*
X150956655Y-91525000D01*
X150941111Y-91529554D01*
X150898427Y-91549629D01*
X150884317Y-91557877D01*
X150866329Y-91579529D01*
X150867464Y-91617452D01*
X150886363Y-91687129D01*
X150896876Y-91724391D01*
X150908670Y-91778663D01*
X150907722Y-91799999D01*
X150901239Y-91797852D01*
X150862778Y-91776271D01*
X150805201Y-91738986D01*
X150715322Y-91677972D01*
X150630675Y-91742472D01*
X150608220Y-91758909D01*
X150559559Y-91789129D01*
X150535009Y-91795964D01*
X150533341Y-91791455D01*
X150537309Y-91752179D01*
X150553338Y-91689427D01*
X150562286Y-91659167D01*
X150569638Y-91608611D01*
X150551946Y-91570363D01*
X150502476Y-91522301D01*
X150481741Y-91503355D01*
X150439197Y-91460840D01*
X150422266Y-91437852D01*
X150427178Y-91434088D01*
X150467038Y-91427576D01*
X150533873Y-91425000D01*
X150576812Y-91424477D01*
X150626845Y-91415862D01*
X150653886Y-91386831D01*
X150675469Y-91325000D01*
X150683417Y-91300665D01*
X150691658Y-91281928D01*
X150756462Y-91281928D01*
X150774946Y-91345946D01*
X150804066Y-91400892D01*
X150851407Y-91425000D01*
X150865038Y-91424622D01*
X150882351Y-91416849D01*
X150872379Y-91391034D01*
X150832957Y-91336819D01*
X150790117Y-91284428D01*
X150761314Y-91261455D01*
X150756462Y-91281928D01*
X150691658Y-91281928D01*
X150707204Y-91246579D01*
X150727008Y-91225000D01*
X150725749Y-91209413D01*
X150700105Y-91164298D01*
X150655144Y-91100000D01*
X150594804Y-91024626D01*
X150549571Y-90985182D01*
X150513250Y-90980065D01*
X150477511Y-91004809D01*
X150463270Y-91014725D01*
X150453089Y-90998517D01*
X150453738Y-90939609D01*
X150454036Y-90934111D01*
X150452864Y-90902761D01*
X150444412Y-90868209D01*
X150425441Y-90825190D01*
X150392711Y-90768438D01*
X150342983Y-90692691D01*
X150273016Y-90592683D01*
X150179571Y-90463150D01*
X150059409Y-90298828D01*
X150056103Y-90294321D01*
X149949887Y-90150656D01*
X149852757Y-90021281D01*
X149768766Y-89911440D01*
X149701966Y-89826373D01*
X149656413Y-89771322D01*
X149636158Y-89751528D01*
X149620434Y-89758760D01*
X149569408Y-89791418D01*
X149490848Y-89845872D01*
X149391861Y-89917163D01*
X149279557Y-90000331D01*
X148945813Y-90250662D01*
X148945813Y-90471451D01*
X148501795Y-90471451D01*
X148491371Y-90012500D01*
X149729142Y-89090169D01*
X149747293Y-89076644D01*
X149967348Y-88912823D01*
X150176438Y-88757423D01*
X150370921Y-88613132D01*
X150547157Y-88482640D01*
X150701506Y-88368636D01*
X150830327Y-88273808D01*
X150929980Y-88200848D01*
X150996825Y-88152442D01*
X151027221Y-88131281D01*
X151040352Y-88123822D01*
X151064794Y-88115860D01*
X151093933Y-88119484D01*
X151134859Y-88138346D01*
X151194665Y-88176098D01*
X151280442Y-88236391D01*
X151399282Y-88322878D01*
X151402058Y-88324908D01*
X151752413Y-88558312D01*
X152100254Y-88744921D01*
X152444061Y-88884120D01*
X152782315Y-88975292D01*
X153113498Y-89017821D01*
X153375855Y-89016767D01*
X153699850Y-88973016D01*
X154027689Y-88882047D01*
X154360711Y-88743375D01*
X154700254Y-88556520D01*
X155047657Y-88320998D01*
X155059727Y-88312086D01*
X155181198Y-88224096D01*
X155270156Y-88163870D01*
X155332473Y-88127991D01*
X155374024Y-88113043D01*
X155400683Y-88115606D01*
X155402571Y-88116658D01*
X155436452Y-88139836D01*
X155506250Y-88189948D01*
X155608415Y-88264375D01*
X155739396Y-88360502D01*
X155895642Y-88475709D01*
X156073601Y-88607380D01*
X156269723Y-88752897D01*
X156480457Y-88909643D01*
X156702250Y-89075000D01*
X157958290Y-90012500D01*
X157946542Y-90463949D01*
G37*
%TD*%
M02*
