M48
; DRILL file {KiCad 7.0.1} date Wed Aug 30 02:17:03 2023
; FORMAT={-:-/ absolute / inch / decimal}
; #@! TF.CreationDate,2023-08-30T02:17:03-03:00
; #@! TF.GenerationSoftware,Kicad,Pcbnew,7.0.1
; #@! TF.FileFunction,Plated,1,2,PTH
FMAT,2
INCH
; #@! TA.AperFunction,Plated,PTH,ViaDrill
T1C0.0157
; #@! TA.AperFunction,Plated,PTH,ViaDrill
T2C0.0197
; #@! TA.AperFunction,Plated,PTH,ComponentDrill
T3C0.0217
; #@! TA.AperFunction,Plated,PTH,ComponentDrill
T4C0.0236
; #@! TA.AperFunction,Plated,PTH,ComponentDrill
T5C0.0300
; #@! TA.AperFunction,Plated,PTH,ComponentDrill
T6C0.0394
; #@! TA.AperFunction,Plated,PTH,ComponentDrill
T7C0.0787
%
G90
G05
T1
X5.2992Y-3.6378
X5.3339Y-3.348
X5.3906Y-3.3882
X5.6803Y-3.3366
X5.811Y-2.9322
X5.8189Y-2.8268
X5.8629Y-3.2316
X5.8681Y-3.3398
X5.9862Y-3.2149
T2
X4.7854Y-2.837
X4.9508Y-3.0709
X4.9508Y-3.6992
X5.0079Y-2.8819
X5.2783Y-3.935
X5.3285Y-4.0472
X5.6191Y-3.4478
X5.6693Y-3.7763
X5.7098Y-3.9527
X5.811Y-2.9787
X5.811Y-3.0295
X5.811Y-3.1819
X5.811Y-3.3768
X5.811Y-3.5276
X5.9169Y-2.8807
T5
X5.9862Y-3.3472
X5.9862Y-3.4472
X5.9862Y-3.5472
X5.9862Y-3.6472
X6.0862Y-3.3472
X6.0862Y-3.4472
X6.0862Y-3.5472
X6.0862Y-3.6472
T6
X4.6752Y-3.3173
X4.6752Y-3.4173
X4.6752Y-3.5173
X4.6752Y-3.6173
X4.7752Y-3.3173
X4.7752Y-3.4173
X4.7752Y-3.5173
X4.7752Y-3.6173
X4.7752Y-3.7173
X4.7752Y-3.8173
T7
X4.8031Y-2.9669
X4.8031Y-4.1677
X6.0039Y-2.9669
X6.0039Y-4.1677
T3
G00X5.2746Y-4.2533
M15
G01X5.2746Y-4.2789
M16
G05
G00X5.5522Y-4.2533
M15
G01X5.5522Y-4.2789
M16
G05
T4
G00X5.3091Y-4.1598
M15
G01X5.3209Y-4.1598
M16
G05
G00X5.5059Y-4.1598
M15
G01X5.5177Y-4.1598
M16
G05
T0
M30
