%TF.GenerationSoftware,KiCad,Pcbnew,7.0.1*%
%TF.CreationDate,2023-08-30T02:16:58-03:00*%
%TF.ProjectId,PCB_FC_V2,5043425f-4643-45f5-9632-2e6b69636164,rev?*%
%TF.SameCoordinates,Original*%
%TF.FileFunction,Copper,L1,Top*%
%TF.FilePolarity,Positive*%
%FSLAX46Y46*%
G04 Gerber Fmt 4.6, Leading zero omitted, Abs format (unit mm)*
G04 Created by KiCad (PCBNEW 7.0.1) date 2023-08-30 02:16:58*
%MOMM*%
%LPD*%
G01*
G04 APERTURE LIST*
G04 Aperture macros list*
%AMRoundRect*
0 Rectangle with rounded corners*
0 $1 Rounding radius*
0 $2 $3 $4 $5 $6 $7 $8 $9 X,Y pos of 4 corners*
0 Add a 4 corners polygon primitive as box body*
4,1,4,$2,$3,$4,$5,$6,$7,$8,$9,$2,$3,0*
0 Add four circle primitives for the rounded corners*
1,1,$1+$1,$2,$3*
1,1,$1+$1,$4,$5*
1,1,$1+$1,$6,$7*
1,1,$1+$1,$8,$9*
0 Add four rect primitives between the rounded corners*
20,1,$1+$1,$2,$3,$4,$5,0*
20,1,$1+$1,$4,$5,$6,$7,0*
20,1,$1+$1,$6,$7,$8,$9,0*
20,1,$1+$1,$8,$9,$2,$3,0*%
G04 Aperture macros list end*
%TA.AperFunction,SMDPad,CuDef*%
%ADD10R,0.400000X1.350000*%
%TD*%
%TA.AperFunction,ComponentPad*%
%ADD11O,1.100000X0.800000*%
%TD*%
%TA.AperFunction,ComponentPad*%
%ADD12O,1.200000X0.800000*%
%TD*%
%TA.AperFunction,ComponentPad*%
%ADD13O,0.750000X1.500000*%
%TD*%
%TA.AperFunction,SMDPad,CuDef*%
%ADD14R,1.500000X1.550000*%
%TD*%
%TA.AperFunction,SMDPad,CuDef*%
%ADD15R,0.650000X0.900000*%
%TD*%
%TA.AperFunction,SMDPad,CuDef*%
%ADD16R,1.198880X1.198880*%
%TD*%
%TA.AperFunction,SMDPad,CuDef*%
%ADD17R,1.000000X1.100000*%
%TD*%
%TA.AperFunction,SMDPad,CuDef*%
%ADD18R,1.100000X1.000000*%
%TD*%
%TA.AperFunction,SMDPad,CuDef*%
%ADD19R,0.900000X0.650000*%
%TD*%
%TA.AperFunction,ComponentPad*%
%ADD20C,1.750000*%
%TD*%
%TA.AperFunction,ComponentPad*%
%ADD21R,1.524000X1.524000*%
%TD*%
%TA.AperFunction,ComponentPad*%
%ADD22C,1.524000*%
%TD*%
%TA.AperFunction,SMDPad,CuDef*%
%ADD23RoundRect,0.225000X-0.250000X0.225000X-0.250000X-0.225000X0.250000X-0.225000X0.250000X0.225000X0*%
%TD*%
%TA.AperFunction,SMDPad,CuDef*%
%ADD24R,0.599440X1.000760*%
%TD*%
%TA.AperFunction,SMDPad,CuDef*%
%ADD25R,1.000760X1.000760*%
%TD*%
%TA.AperFunction,SMDPad,CuDef*%
%ADD26RoundRect,0.049600X0.260400X-0.605400X0.260400X0.605400X-0.260400X0.605400X-0.260400X-0.605400X0*%
%TD*%
%TA.AperFunction,ComponentPad*%
%ADD27C,2.999740*%
%TD*%
%TA.AperFunction,SMDPad,CuDef*%
%ADD28R,1.500000X0.900000*%
%TD*%
%TA.AperFunction,SMDPad,CuDef*%
%ADD29R,0.900000X1.500000*%
%TD*%
%TA.AperFunction,SMDPad,CuDef*%
%ADD30R,0.900000X0.900000*%
%TD*%
%TA.AperFunction,SMDPad,CuDef*%
%ADD31R,0.730000X1.210000*%
%TD*%
%TA.AperFunction,ViaPad*%
%ADD32C,0.800000*%
%TD*%
%TA.AperFunction,ViaPad*%
%ADD33C,1.000000*%
%TD*%
%TA.AperFunction,ViaPad*%
%ADD34C,0.900000*%
%TD*%
%TA.AperFunction,Conductor*%
%ADD35C,0.500000*%
%TD*%
%TA.AperFunction,Conductor*%
%ADD36C,0.700000*%
%TD*%
%TA.AperFunction,Conductor*%
%ADD37C,0.300000*%
%TD*%
%TA.AperFunction,Conductor*%
%ADD38C,0.400000*%
%TD*%
%TA.AperFunction,Conductor*%
%ADD39C,0.600000*%
%TD*%
%TA.AperFunction,Conductor*%
%ADD40C,0.350000*%
%TD*%
%TA.AperFunction,Profile*%
%ADD41C,0.100000*%
%TD*%
G04 APERTURE END LIST*
D10*
%TO.P,J6,1,VDD*%
%TO.N,Net-(D2-A)*%
X136200000Y-105683757D03*
%TO.P,J6,2,D-*%
%TO.N,/D-*%
X136850000Y-105683757D03*
%TO.P,J6,3,D+*%
%TO.N,/D+*%
X137500000Y-105683757D03*
%TO.P,J6,4,ID*%
%TO.N,unconnected-(J6-ID-Pad4)*%
X138150000Y-105683757D03*
%TO.P,J6,5,GND*%
%TO.N,GND*%
X138800000Y-105683757D03*
D11*
%TO.P,J6,S1,SHIELD*%
X135000000Y-105658757D03*
D12*
%TO.P,J6,S2,SHIELD*%
X140000000Y-105658757D03*
D13*
%TO.P,J6,S3,SHIELD*%
X133975000Y-108358757D03*
D14*
%TO.P,J6,S4,SHIELD*%
X136500000Y-108358757D03*
%TO.P,J6,S5,SHIELD*%
X138500000Y-108358757D03*
D13*
%TO.P,J6,S6,SHIELD*%
X141025000Y-108358757D03*
%TD*%
D15*
%TO.P,R13,1*%
%TO.N,/EN*%
X124475000Y-76600000D03*
%TO.P,R13,2*%
%TO.N,+3V3*%
X125925000Y-76600000D03*
%TD*%
D16*
%TO.P,LED1,1,A*%
%TO.N,Net-(LED1-A)*%
X122750980Y-71800000D03*
%TO.P,LED1,2,K*%
%TO.N,GND*%
X124849020Y-71800000D03*
%TD*%
D17*
%TO.P,C11,1*%
%TO.N,GND*%
X130950000Y-101258757D03*
%TO.P,C11,2*%
%TO.N,+5V*%
X130950000Y-99558757D03*
%TD*%
D18*
%TO.P,C12,1*%
%TO.N,Net-(U4-V3)*%
X131800000Y-105658757D03*
%TO.P,C12,2*%
%TO.N,GND*%
X130100000Y-105658757D03*
%TD*%
D19*
%TO.P,R8,1*%
%TO.N,Net-(Q1-B)*%
X131350000Y-91875000D03*
%TO.P,R8,2*%
%TO.N,Net-(Q2-E)*%
X131350000Y-93325000D03*
%TD*%
D20*
%TO.P,J5,1,Pin_1*%
%TO.N,/S1_MOTOR*%
X121290000Y-84258757D03*
%TO.P,J5,2,Pin_2*%
%TO.N,/S2_MOTOR*%
X121290000Y-86798757D03*
%TO.P,J5,3,Pin_3*%
%TO.N,/S3_MOTOR*%
X121290000Y-89338757D03*
%TO.P,J5,4,Pin_4*%
%TO.N,/S4_MOTOR*%
X121290000Y-91878757D03*
%TO.P,J5,5,Pin_5*%
%TO.N,GND*%
X121290000Y-94418757D03*
%TO.P,J5,6,Pin_6*%
%TO.N,+5V*%
X121290000Y-96958757D03*
%TO.P,J5,GND*%
%TO.N,N/C*%
X118750000Y-84258757D03*
X118750000Y-86798757D03*
X118750000Y-89338757D03*
X118750000Y-91878757D03*
%TD*%
D21*
%TO.P,U5,1,GND*%
%TO.N,GND*%
X152050000Y-85018757D03*
D22*
%TO.P,U5,2,VCC*%
%TO.N,+3V3*%
X154590000Y-85018757D03*
%TO.P,U5,3,CE*%
%TO.N,/CE_NRF24L01*%
X152050000Y-87558757D03*
%TO.P,U5,4,CSK*%
%TO.N,/CSN_NRF24L01*%
X154590000Y-87558757D03*
%TO.P,U5,5,SCK*%
%TO.N,/SCK_NRF24L01*%
X152050000Y-90098757D03*
%TO.P,U5,6,MOSI*%
%TO.N,/MOSI_NRF24L01*%
X154590000Y-90098757D03*
%TO.P,U5,7,MISO*%
%TO.N,/MISO_NRF24L01*%
X152050000Y-92638757D03*
%TO.P,U5,8,IRQ*%
%TO.N,unconnected-(U5-IRQ-Pad8)*%
X154590000Y-92638757D03*
%TD*%
D18*
%TO.P,C14,1*%
%TO.N,/IO0*%
X149200000Y-103258757D03*
%TO.P,C14,2*%
%TO.N,GND*%
X150900000Y-103258757D03*
%TD*%
D23*
%TO.P,C2,1*%
%TO.N,GND*%
X126400000Y-71825000D03*
%TO.P,C2,2*%
%TO.N,+3V3*%
X126400000Y-73375000D03*
%TD*%
D24*
%TO.P,Q2,1,B*%
%TO.N,Net-(Q2-B)*%
X144955000Y-92645477D03*
%TO.P,Q2,2,E*%
%TO.N,Net-(Q2-E)*%
X143050000Y-92645477D03*
%TO.P,Q2,3,C*%
%TO.N,/IO0*%
X144002500Y-94758757D03*
%TD*%
D25*
%TO.P,SW1,1,1*%
%TO.N,/EN*%
X125949180Y-79408757D03*
%TO.P,SW1,2,2*%
%TO.N,GND*%
X118750820Y-79408757D03*
%TD*%
D26*
%TO.P,U4,1,GND*%
%TO.N,GND*%
X132805000Y-101750000D03*
%TO.P,U4,2,TXD*%
%TO.N,Net-(U4-TXD)*%
X134075000Y-101750000D03*
%TO.P,U4,3,RXD*%
%TO.N,Net-(U4-RXD)*%
X135345000Y-101750000D03*
%TO.P,U4,4,V3*%
%TO.N,Net-(U4-V3)*%
X136615000Y-101750000D03*
%TO.P,U4,5,UD+*%
%TO.N,/D+*%
X137885000Y-101750000D03*
%TO.P,U4,6,UD-*%
%TO.N,/D-*%
X139155000Y-101750000D03*
%TO.P,U4,7,XI*%
%TO.N,unconnected-(U4-XI-Pad7)*%
X140425000Y-101750000D03*
%TO.P,U4,8,XO*%
%TO.N,unconnected-(U4-XO-Pad8)*%
X141695000Y-101750000D03*
%TO.P,U4,9,~{CTS}*%
%TO.N,unconnected-(U4-~{CTS}-Pad9)*%
X141695000Y-96250000D03*
%TO.P,U4,10,~{DSR}*%
%TO.N,unconnected-(U4-~{DSR}-Pad10)*%
X140425000Y-96250000D03*
%TO.P,U4,11,~{RI}*%
%TO.N,unconnected-(U4-~{RI}-Pad11)*%
X139155000Y-96250000D03*
%TO.P,U4,12,~{DCD}*%
%TO.N,unconnected-(U4-~{DCD}-Pad12)*%
X137885000Y-96250000D03*
%TO.P,U4,13,~{DTR}*%
%TO.N,Net-(Q2-E)*%
X136615000Y-96250000D03*
%TO.P,U4,14,~{RTS}*%
%TO.N,Net-(Q1-E)*%
X135345000Y-96250000D03*
%TO.P,U4,15,R232*%
%TO.N,unconnected-(U4-R232-Pad15)*%
X134075000Y-96250000D03*
%TO.P,U4,16,VCC*%
%TO.N,+5V*%
X132805000Y-96250000D03*
%TD*%
D24*
%TO.P,Q1,1,B*%
%TO.N,Net-(Q1-B)*%
X129502500Y-92645477D03*
%TO.P,Q1,2,E*%
%TO.N,Net-(Q1-E)*%
X127597500Y-92645477D03*
%TO.P,Q1,3,C*%
%TO.N,/EN*%
X128550000Y-94758757D03*
%TD*%
D19*
%TO.P,R9,1*%
%TO.N,Net-(Q2-B)*%
X146802500Y-92647117D03*
%TO.P,R9,2*%
%TO.N,Net-(Q1-E)*%
X146802500Y-94097117D03*
%TD*%
D27*
%TO.P,H4,1*%
%TO.N,N/C*%
X122000000Y-105858757D03*
%TD*%
D17*
%TO.P,C13,1*%
%TO.N,GND*%
X118670000Y-74508757D03*
%TO.P,C13,2*%
%TO.N,/EN*%
X118670000Y-76208757D03*
%TD*%
D27*
%TO.P,H3,1*%
%TO.N,N/C*%
X152500000Y-105858757D03*
%TD*%
D25*
%TO.P,SW2,1,1*%
%TO.N,/IO0*%
X146450820Y-100408757D03*
%TO.P,SW2,2,2*%
%TO.N,GND*%
X153649180Y-100408757D03*
%TD*%
D28*
%TO.P,U1,3V3,3V3*%
%TO.N,+3V3*%
X128432000Y-73192757D03*
%TO.P,U1,5,SENSOR_VP*%
%TO.N,unconnected-(U1-SENSOR_VP-Pad5)*%
X128432000Y-75732757D03*
%TO.P,U1,8,SENSOR_VN*%
%TO.N,unconnected-(U1-SENSOR_VN-Pad8)*%
X128432000Y-77002757D03*
%TO.P,U1,9,EN*%
%TO.N,/EN*%
X128432000Y-74462757D03*
%TO.P,U1,10,IO34*%
%TO.N,unconnected-(U1-IO34-Pad10)*%
X128432000Y-78272757D03*
%TO.P,U1,11,IO35*%
%TO.N,unconnected-(U1-IO35-Pad11)*%
X128432000Y-79542757D03*
%TO.P,U1,12,IO32*%
%TO.N,/S1_MOTOR*%
X128432000Y-80812757D03*
%TO.P,U1,13,IO33*%
%TO.N,/S2_MOTOR*%
X128432000Y-82082757D03*
%TO.P,U1,14,IO25*%
%TO.N,/S3_MOTOR*%
X128432000Y-83352757D03*
%TO.P,U1,15,IO26*%
%TO.N,/S4_MOTOR*%
X128432000Y-84622757D03*
%TO.P,U1,16,IO27*%
%TO.N,/CE_NRF24L01*%
X128432000Y-85892757D03*
%TO.P,U1,17,IO14*%
%TO.N,unconnected-(U1-IO14-Pad17)*%
X128432000Y-87162757D03*
%TO.P,U1,18,IO12*%
%TO.N,unconnected-(U1-IO12-Pad18)*%
X128432000Y-88432757D03*
D29*
%TO.P,U1,20,IO13*%
%TO.N,unconnected-(U1-IO13-Pad20)*%
X132737000Y-89682757D03*
%TO.P,U1,21,IO15*%
%TO.N,unconnected-(U1-IO15-Pad21)*%
X141627000Y-89682757D03*
%TO.P,U1,22,IO2*%
%TO.N,unconnected-(U1-IO2-Pad22)*%
X142897000Y-89682757D03*
D28*
%TO.P,U1,23,IO0*%
%TO.N,/IO0*%
X145932000Y-88432757D03*
%TO.P,U1,24,IO4*%
%TO.N,unconnected-(U1-IO4-Pad24)*%
X145932000Y-87162757D03*
%TO.P,U1,25,IO16*%
%TO.N,/INT*%
X145932000Y-85892757D03*
%TO.P,U1,27,IO17*%
%TO.N,/CSN_NRF24L01*%
X145932000Y-84622757D03*
D29*
%TO.P,U1,28,SD2*%
%TO.N,unconnected-(U1-SD2-Pad28)*%
X134007000Y-89682757D03*
%TO.P,U1,29,SD3*%
%TO.N,unconnected-(U1-SD3-Pad29)*%
X135277000Y-89682757D03*
%TO.P,U1,30,CMD*%
%TO.N,unconnected-(U1-CMD-Pad30)*%
X136547000Y-89682757D03*
%TO.P,U1,31,CLK*%
%TO.N,unconnected-(U1-CLK-Pad31)*%
X137817000Y-89682757D03*
%TO.P,U1,32,SD0*%
%TO.N,unconnected-(U1-SD0-Pad32)*%
X139087000Y-89682757D03*
%TO.P,U1,33,SD1*%
%TO.N,unconnected-(U1-SD1-Pad33)*%
X140357000Y-89682757D03*
D28*
%TO.P,U1,34,IO5*%
%TO.N,unconnected-(U1-IO5-Pad34)*%
X145932000Y-83352757D03*
%TO.P,U1,35,IO18*%
%TO.N,/SCK_NRF24L01*%
X145932000Y-82082757D03*
%TO.P,U1,36,IO23*%
%TO.N,/MOSI_NRF24L01*%
X145932000Y-73192757D03*
%TO.P,U1,38,IO19*%
%TO.N,/MISO_NRF24L01*%
X145932000Y-80812757D03*
%TO.P,U1,39,IO22*%
%TO.N,/SCL*%
X145932000Y-74462757D03*
%TO.P,U1,40,RXD0*%
%TO.N,/RXD0*%
X145932000Y-77002757D03*
%TO.P,U1,41,TXD0*%
%TO.N,/TXD0*%
X145932000Y-75732757D03*
%TO.P,U1,42,IO21*%
%TO.N,/SDA*%
X145932000Y-78272757D03*
%TO.P,U1,GND,GND*%
%TO.N,GND*%
X128432000Y-71922757D03*
D29*
X131467000Y-89682757D03*
D30*
X134282000Y-78242757D03*
X134282000Y-79642757D03*
X134282000Y-81042757D03*
X135682000Y-78242757D03*
X135682000Y-79642757D03*
X135682000Y-81042757D03*
X137082000Y-78242757D03*
X137082000Y-79642757D03*
X137082000Y-81042757D03*
D28*
X145932000Y-71922757D03*
%TO.P,U1,NC,NC*%
%TO.N,unconnected-(U1-PadNC)*%
X145932000Y-79542757D03*
%TD*%
D31*
%TO.P,D2,1,K*%
%TO.N,+5V*%
X128150000Y-98408757D03*
%TO.P,D2,2,A*%
%TO.N,Net-(D2-A)*%
X128150000Y-101768757D03*
%TD*%
D27*
%TO.P,H2,1*%
%TO.N,N/C*%
X152500000Y-75358757D03*
%TD*%
D15*
%TO.P,R1,1*%
%TO.N,+3V3*%
X125925000Y-75200000D03*
%TO.P,R1,2*%
%TO.N,Net-(LED1-A)*%
X124475000Y-75200000D03*
%TD*%
D27*
%TO.P,H1,1*%
%TO.N,N/C*%
X122000000Y-75358757D03*
%TD*%
D32*
%TO.N,GND*%
X152050000Y-81658757D03*
D33*
X121550000Y-72058757D03*
D32*
X147800000Y-71800000D03*
X134600000Y-92400000D03*
D33*
%TO.N,+3V3*%
X127200000Y-73200000D03*
D32*
X136920000Y-86060000D03*
D33*
%TO.N,/EN*%
X125750000Y-93958757D03*
X125750000Y-78000000D03*
%TO.N,/IO0*%
X144000000Y-95918757D03*
X145030000Y-100398757D03*
D32*
%TO.N,/SDA*%
X135480000Y-85040000D03*
%TO.N,/SCL*%
X147600000Y-74478257D03*
D33*
%TO.N,Net-(U4-TXD)*%
X134070000Y-99948757D03*
%TO.N,Net-(U4-RXD)*%
X135345000Y-102800000D03*
D32*
%TO.N,/CE_NRF24L01*%
X144280000Y-84750000D03*
D34*
%TO.N,/INT*%
X142725000Y-87575000D03*
D32*
%TO.N,/SCK_NRF24L01*%
X148917243Y-82082757D03*
X149050000Y-84830000D03*
D33*
%TO.N,/MISO_NRF24L01*%
X147600000Y-85770000D03*
X147600000Y-89600000D03*
X147600000Y-80820000D03*
%TO.N,/RXD0*%
X147600000Y-76950000D03*
%TO.N,/TXD0*%
X147600000Y-75659625D03*
%TO.N,/MOSI_NRF24L01*%
X150290000Y-73170000D03*
%TD*%
D35*
%TO.N,GND*%
X134282000Y-78242757D02*
X134282000Y-81042757D01*
X141025000Y-108358757D02*
X148590000Y-108358757D01*
X130950000Y-103058757D02*
X130950000Y-101258757D01*
X124874020Y-71825000D02*
X124849020Y-71800000D01*
X148590000Y-108358757D02*
X149280000Y-107668757D01*
X130100000Y-103908757D02*
X130950000Y-103058757D01*
X126497757Y-71922757D02*
X126400000Y-71825000D01*
X149280000Y-107668757D02*
X149280000Y-105878757D01*
X121550000Y-72058757D02*
X120050000Y-72058757D01*
X120550000Y-108358757D02*
X118750000Y-106558757D01*
X150900000Y-103258757D02*
X152850000Y-103258757D01*
X134282000Y-79642757D02*
X137082000Y-79642757D01*
X152850000Y-103258757D02*
X153649180Y-102459577D01*
X135682000Y-78242757D02*
X135682000Y-81042757D01*
X118750000Y-106558757D02*
X118750000Y-94358757D01*
X118750000Y-84258757D02*
X118750000Y-91878757D01*
X128432000Y-71922757D02*
X145932000Y-71922757D01*
X130950000Y-103058757D02*
X130850000Y-103158757D01*
X121290000Y-94418757D02*
X118810000Y-94418757D01*
X130150000Y-108358757D02*
X120550000Y-108358757D01*
X149280000Y-105878757D02*
X150900000Y-104258757D01*
X130150000Y-108358757D02*
X130100000Y-108308757D01*
X130100000Y-105658757D02*
X130100000Y-103908757D01*
X118810000Y-94418757D02*
X118750000Y-94358757D01*
X150900000Y-104258757D02*
X150900000Y-103258757D01*
X120050000Y-72058757D02*
X118670000Y-73438757D01*
X133975000Y-108358757D02*
X130150000Y-108358757D01*
X134282000Y-81042757D02*
X137082000Y-81042757D01*
X118670000Y-73438757D02*
X118670000Y-74508757D01*
X126400000Y-71825000D02*
X124874020Y-71825000D01*
X133975000Y-108358757D02*
X141025000Y-108358757D01*
X128309243Y-71800000D02*
X128432000Y-71922757D01*
X128432000Y-71922757D02*
X126497757Y-71922757D01*
X137082000Y-81042757D02*
X137082000Y-78242757D01*
X118750000Y-94358757D02*
X118750000Y-91878757D01*
X137082000Y-78242757D02*
X134282000Y-78242757D01*
X153649180Y-102459577D02*
X153649180Y-100408757D01*
D36*
%TO.N,+5V*%
X130941243Y-98408757D02*
X130950000Y-98400000D01*
X131950000Y-96250000D02*
X130950000Y-97250000D01*
X130950000Y-97250000D02*
X130950000Y-98400000D01*
X128150000Y-98408757D02*
X130941243Y-98408757D01*
X125400000Y-98408757D02*
X128150000Y-98408757D01*
X131950000Y-96250000D02*
X132805000Y-96250000D01*
X123950000Y-96958757D02*
X125400000Y-98408757D01*
X130950000Y-98400000D02*
X130950000Y-99558757D01*
X121290000Y-96958757D02*
X123950000Y-96958757D01*
D35*
%TO.N,+3V3*%
X125925000Y-74275000D02*
X126400000Y-73800000D01*
X132100000Y-86050000D02*
X136910000Y-86050000D01*
X125925000Y-76600000D02*
X125925000Y-75200000D01*
X125925000Y-75200000D02*
X125925000Y-74275000D01*
X130000000Y-83950000D02*
X132100000Y-86050000D01*
X128456000Y-73168757D02*
X128432000Y-73192757D01*
X136985500Y-86060000D02*
X136920000Y-86060000D01*
X126400000Y-73375000D02*
X127025000Y-73375000D01*
X127200000Y-73200000D02*
X128424757Y-73200000D01*
X127025000Y-73375000D02*
X127200000Y-73200000D01*
X127200000Y-73200000D02*
X127544757Y-73200000D01*
X137000000Y-86074500D02*
X136985500Y-86060000D01*
X126400000Y-73800000D02*
X126400000Y-73375000D01*
X130000000Y-73600000D02*
X130000000Y-83950000D01*
X129592757Y-73192757D02*
X130000000Y-73600000D01*
X128432000Y-73192757D02*
X129592757Y-73192757D01*
X128418000Y-73178757D02*
X128432000Y-73192757D01*
X136910000Y-86050000D02*
X136920000Y-86060000D01*
X128424757Y-73200000D02*
X128432000Y-73192757D01*
X127544757Y-73200000D02*
X127576000Y-73168757D01*
D37*
%TO.N,Net-(U4-V3)*%
X131800000Y-105658757D02*
X131800000Y-104000000D01*
X131800000Y-104000000D02*
X132000000Y-103800000D01*
X136615000Y-103323682D02*
X136615000Y-101750000D01*
X136138682Y-103800000D02*
X136615000Y-103323682D01*
X132000000Y-103800000D02*
X136138682Y-103800000D01*
D35*
%TO.N,/EN*%
X127000000Y-79058757D02*
X126650000Y-79408757D01*
X127000000Y-74716757D02*
X127000000Y-79058757D01*
X128432000Y-74462757D02*
X127254000Y-74462757D01*
X126558757Y-94758757D02*
X125758757Y-93958757D01*
X124475000Y-77675000D02*
X124800000Y-78000000D01*
X125758757Y-93958757D02*
X125750000Y-93958757D01*
X127254000Y-74462757D02*
X127000000Y-74716757D01*
X124800000Y-78000000D02*
X125750000Y-78000000D01*
X125949180Y-78749180D02*
X125750000Y-78550000D01*
X119250000Y-78058757D02*
X123700000Y-78058757D01*
X124475000Y-76600000D02*
X124475000Y-77675000D01*
X124150000Y-79008757D02*
X124550000Y-79408757D01*
X125949180Y-79408757D02*
X125949180Y-78749180D01*
X124695423Y-76379577D02*
X124475000Y-76600000D01*
X123700000Y-78058757D02*
X124150000Y-78508757D01*
X124550000Y-79408757D02*
X125949180Y-79408757D01*
X125750000Y-78550000D02*
X125750000Y-78000000D01*
X118670000Y-76208757D02*
X118670000Y-77478757D01*
X118670000Y-77478757D02*
X119250000Y-78058757D01*
X124150000Y-78508757D02*
X124150000Y-79008757D01*
X126650000Y-79408757D02*
X125949180Y-79408757D01*
X124720820Y-76379577D02*
X124695423Y-76379577D01*
X128550000Y-94758757D02*
X126558757Y-94758757D01*
%TO.N,/IO0*%
X145932000Y-89968000D02*
X145932000Y-88432757D01*
X144002500Y-91897500D02*
X145932000Y-89968000D01*
X146440820Y-100398757D02*
X146450820Y-100408757D01*
X149200000Y-103258757D02*
X147250000Y-103258757D01*
X147250000Y-103258757D02*
X146450820Y-102459577D01*
X144000000Y-94761257D02*
X144002500Y-94758757D01*
X145030000Y-100398757D02*
X146440820Y-100398757D01*
X145030000Y-100348757D02*
X145090000Y-100408757D01*
X144000000Y-95918757D02*
X144000000Y-94761257D01*
X146450820Y-102459577D02*
X146450820Y-100408757D01*
X144002500Y-94758757D02*
X144002500Y-91897500D01*
D38*
%TO.N,Net-(D2-A)*%
X136150000Y-104550000D02*
X133399500Y-104550000D01*
D39*
X128150000Y-106204379D02*
X128150000Y-101768757D01*
X132800000Y-107000000D02*
X128945621Y-107000000D01*
X133200000Y-106600000D02*
X132800000Y-107000000D01*
X133200000Y-104749500D02*
X133200000Y-106600000D01*
X128945621Y-107000000D02*
X128150000Y-106204379D01*
D38*
X136200000Y-104600000D02*
X136150000Y-104550000D01*
X133200000Y-104749500D02*
X133399500Y-104550000D01*
X136200000Y-105683757D02*
X136200000Y-104600000D01*
D35*
%TO.N,/S1_MOTOR*%
X121290000Y-84258757D02*
X121290000Y-81968757D01*
X121290000Y-81968757D02*
X122446000Y-80812757D01*
X122446000Y-80812757D02*
X128432000Y-80812757D01*
%TO.N,/S2_MOTOR*%
X122860000Y-86798757D02*
X123350000Y-86308757D01*
X121290000Y-86798757D02*
X122860000Y-86798757D01*
X123350000Y-86308757D02*
X123350000Y-83008757D01*
X123350000Y-83008757D02*
X124276000Y-82082757D01*
X124276000Y-82082757D02*
X128432000Y-82082757D01*
%TO.N,/S3_MOTOR*%
X124400000Y-88358757D02*
X124400000Y-84508757D01*
X124400000Y-84508757D02*
X125556000Y-83352757D01*
X121290000Y-89338757D02*
X123420000Y-89338757D01*
X123420000Y-89338757D02*
X124400000Y-88358757D01*
X125556000Y-83352757D02*
X128432000Y-83352757D01*
%TO.N,/S4_MOTOR*%
X128432000Y-84622757D02*
X126386000Y-84622757D01*
X124330000Y-91878757D02*
X121290000Y-91878757D01*
X125800000Y-85208757D02*
X125800000Y-90408757D01*
X125800000Y-90408757D02*
X124330000Y-91878757D01*
X126386000Y-84622757D02*
X125800000Y-85208757D01*
D38*
%TO.N,/D-*%
X137600000Y-103400000D02*
X139200000Y-103400000D01*
X139200000Y-101795000D02*
X139155000Y-101750000D01*
X136850000Y-105683757D02*
X136850000Y-104150000D01*
X136850000Y-104150000D02*
X137600000Y-103400000D01*
X139200000Y-103400000D02*
X139200000Y-101795000D01*
%TO.N,/D+*%
X137908757Y-104200000D02*
X141000000Y-104200000D01*
X141000000Y-104200000D02*
X142800000Y-102400000D01*
X142800000Y-102400000D02*
X142800000Y-100600000D01*
X142800000Y-100600000D02*
X142600000Y-100400000D01*
X137500000Y-104608757D02*
X137908757Y-104200000D01*
X137500000Y-105683757D02*
X137500000Y-104608757D01*
X142600000Y-100400000D02*
X138200000Y-100400000D01*
X137885000Y-100715000D02*
X137885000Y-101750000D01*
X138200000Y-100400000D02*
X137885000Y-100715000D01*
D35*
%TO.N,Net-(LED1-A)*%
X124475000Y-74475000D02*
X122750980Y-72750980D01*
X124475000Y-75200000D02*
X124475000Y-74475000D01*
X122750980Y-72750980D02*
X122750980Y-71800000D01*
%TO.N,Net-(Q1-B)*%
X130347977Y-91800000D02*
X129502500Y-92645477D01*
X131275000Y-91800000D02*
X130347977Y-91800000D01*
X131350000Y-91875000D02*
X131275000Y-91800000D01*
D38*
%TO.N,Net-(Q1-E)*%
X135800000Y-98000000D02*
X144400000Y-98000000D01*
X130191343Y-94400000D02*
X129591343Y-93800000D01*
X135345000Y-96250000D02*
X135345000Y-94945000D01*
X129591343Y-93800000D02*
X128800000Y-93800000D01*
X128400000Y-93000000D02*
X128045477Y-92645477D01*
X135345000Y-96250000D02*
X135345000Y-97545000D01*
X128045477Y-92645477D02*
X127597500Y-92645477D01*
X135345000Y-97545000D02*
X135800000Y-98000000D01*
X146802500Y-95597500D02*
X146802500Y-94097117D01*
X144400000Y-98000000D02*
X146802500Y-95597500D01*
X128800000Y-93800000D02*
X128400000Y-93400000D01*
X134800000Y-94400000D02*
X130191343Y-94400000D01*
X128400000Y-93400000D02*
X128400000Y-93000000D01*
X135345000Y-94945000D02*
X134800000Y-94400000D01*
D35*
%TO.N,Net-(Q2-B)*%
X144955000Y-92645477D02*
X146800860Y-92645477D01*
X146800860Y-92645477D02*
X146802500Y-92647117D01*
%TO.N,Net-(Q2-E)*%
X136600000Y-96235000D02*
X136615000Y-96250000D01*
X131350000Y-93325000D02*
X131425000Y-93400000D01*
X136600000Y-93400000D02*
X136600000Y-96235000D01*
X136954523Y-92645477D02*
X143050000Y-92645477D01*
X136600000Y-93400000D02*
X136600000Y-93000000D01*
X136600000Y-93000000D02*
X136954523Y-92645477D01*
X131425000Y-93400000D02*
X136600000Y-93400000D01*
D40*
%TO.N,/SDA*%
X144677243Y-78272757D02*
X145932000Y-78272757D01*
X144000000Y-78950000D02*
X144677243Y-78272757D01*
X144000000Y-82600000D02*
X144000000Y-78950000D01*
X141557500Y-85042500D02*
X144000000Y-82600000D01*
X135537500Y-85042500D02*
X141557500Y-85042500D01*
D38*
%TO.N,/SCL*%
X145947500Y-74478257D02*
X145932000Y-74462757D01*
X147600000Y-74478257D02*
X145947500Y-74478257D01*
D35*
%TO.N,Net-(U4-TXD)*%
X134075000Y-101750000D02*
X134075000Y-99953757D01*
X134075000Y-99953757D02*
X134070000Y-99948757D01*
%TO.N,Net-(U4-RXD)*%
X135345000Y-102800000D02*
X135345000Y-101750000D01*
%TO.N,/CE_NRF24L01*%
X130442757Y-85892757D02*
X128432000Y-85892757D01*
X143250000Y-84750000D02*
X140650000Y-87350000D01*
X144280000Y-84750000D02*
X143250000Y-84750000D01*
X140650000Y-87350000D02*
X131900000Y-87350000D01*
X131900000Y-87350000D02*
X130442757Y-85892757D01*
D40*
%TO.N,/INT*%
X143657243Y-85892757D02*
X145932000Y-85892757D01*
X142725000Y-86825000D02*
X143657243Y-85892757D01*
X142725000Y-87575000D02*
X142725000Y-86825000D01*
D35*
%TO.N,/CSN_NRF24L01*%
X156580000Y-86830000D02*
X155851243Y-87558757D01*
X155710000Y-83390000D02*
X156580000Y-84260000D01*
X145932000Y-84622757D02*
X147617243Y-84622757D01*
X155851243Y-87558757D02*
X154590000Y-87558757D01*
X148850000Y-83390000D02*
X155710000Y-83390000D01*
X156580000Y-84260000D02*
X156580000Y-86830000D01*
X147617243Y-84622757D02*
X148850000Y-83390000D01*
%TO.N,/SCK_NRF24L01*%
X149050000Y-84830000D02*
X149050000Y-88658757D01*
X149050000Y-88658757D02*
X150490000Y-90098757D01*
X148917243Y-82082757D02*
X145932000Y-82082757D01*
X150490000Y-90098757D02*
X152050000Y-90098757D01*
%TO.N,/MISO_NRF24L01*%
X147600000Y-89600000D02*
X147600000Y-85770000D01*
X147600000Y-85770000D02*
X147600000Y-85790000D01*
X145939243Y-80820000D02*
X145932000Y-80812757D01*
X147780000Y-86090000D02*
X147600000Y-85910000D01*
X147600000Y-85910000D02*
X147600000Y-85770000D01*
X147600000Y-85790000D02*
X147840000Y-86030000D01*
X147600000Y-80820000D02*
X145939243Y-80820000D01*
X147750000Y-89600000D02*
X147600000Y-89600000D01*
X147840000Y-89510000D02*
X147750000Y-89600000D01*
%TO.N,/RXD0*%
X145984757Y-76950000D02*
X145932000Y-77002757D01*
X147600000Y-76950000D02*
X145984757Y-76950000D01*
%TO.N,/TXD0*%
X147526868Y-75732757D02*
X145932000Y-75732757D01*
X145856000Y-75808757D02*
X145932000Y-75732757D01*
X147600000Y-75659625D02*
X147526868Y-75732757D01*
%TO.N,/MOSI_NRF24L01*%
X145932000Y-73192757D02*
X150267243Y-73192757D01*
X150267243Y-73192757D02*
X150290000Y-73170000D01*
%TD*%
%TA.AperFunction,Conductor*%
%TO.N,GND*%
G36*
X127119500Y-85389870D02*
G01*
X127164887Y-85435257D01*
X127181500Y-85497257D01*
X127181500Y-86390626D01*
X127187909Y-86450242D01*
X127200658Y-86484424D01*
X127208476Y-86527756D01*
X127200659Y-86571087D01*
X127187909Y-86605272D01*
X127187908Y-86605274D01*
X127187909Y-86605274D01*
X127182811Y-86652696D01*
X127181500Y-86664887D01*
X127181500Y-87660626D01*
X127187909Y-87720242D01*
X127200658Y-87754424D01*
X127208476Y-87797756D01*
X127200659Y-87841087D01*
X127187909Y-87875272D01*
X127187908Y-87875274D01*
X127187909Y-87875274D01*
X127181693Y-87933096D01*
X127181500Y-87934887D01*
X127181500Y-88930626D01*
X127187909Y-88990241D01*
X127213056Y-89057664D01*
X127238204Y-89125088D01*
X127324454Y-89240303D01*
X127439669Y-89326553D01*
X127574517Y-89376848D01*
X127634127Y-89383257D01*
X129229872Y-89383256D01*
X129289483Y-89376848D01*
X129424331Y-89326553D01*
X129539546Y-89240303D01*
X129625796Y-89125088D01*
X129676091Y-88990240D01*
X129682500Y-88930630D01*
X129682499Y-87934885D01*
X129676091Y-87875274D01*
X129663340Y-87841087D01*
X129655523Y-87797757D01*
X129663342Y-87754422D01*
X129676090Y-87720242D01*
X129676089Y-87720242D01*
X129676091Y-87720240D01*
X129682500Y-87660630D01*
X129682499Y-86767256D01*
X129699112Y-86705257D01*
X129744499Y-86659870D01*
X129806499Y-86643257D01*
X130080527Y-86643257D01*
X130127980Y-86652696D01*
X130168208Y-86679576D01*
X131324269Y-87835637D01*
X131336051Y-87849270D01*
X131350390Y-87868530D01*
X131357253Y-87874289D01*
X131388337Y-87900372D01*
X131396311Y-87907680D01*
X131400221Y-87911590D01*
X131424537Y-87930816D01*
X131427336Y-87933096D01*
X131485752Y-87982113D01*
X131502179Y-87992578D01*
X131571320Y-88024819D01*
X131574567Y-88026391D01*
X131642699Y-88060609D01*
X131661087Y-88067000D01*
X131662323Y-88067255D01*
X131662327Y-88067257D01*
X131735895Y-88082447D01*
X131739242Y-88083189D01*
X131812279Y-88100500D01*
X131812281Y-88100500D01*
X131813509Y-88100791D01*
X131832878Y-88102770D01*
X131834140Y-88102733D01*
X131834144Y-88102734D01*
X131906533Y-88100627D01*
X131909131Y-88100552D01*
X131912737Y-88100500D01*
X140586294Y-88100500D01*
X140604264Y-88101809D01*
X140608320Y-88102402D01*
X140628023Y-88105289D01*
X140677368Y-88100972D01*
X140688176Y-88100500D01*
X140693706Y-88100500D01*
X140693709Y-88100500D01*
X140724550Y-88096894D01*
X140728031Y-88096539D01*
X140802797Y-88089999D01*
X140802797Y-88089998D01*
X140804052Y-88089889D01*
X140823062Y-88085674D01*
X140824250Y-88085241D01*
X140824255Y-88085241D01*
X140894820Y-88059557D01*
X140898095Y-88058419D01*
X140969334Y-88034814D01*
X140969336Y-88034812D01*
X140970536Y-88034415D01*
X140988063Y-88025929D01*
X140989112Y-88025238D01*
X140989117Y-88025237D01*
X141051806Y-87984005D01*
X141054798Y-87982099D01*
X141118656Y-87942712D01*
X141118656Y-87942711D01*
X141119729Y-87942050D01*
X141134824Y-87929753D01*
X141135692Y-87928832D01*
X141135696Y-87928830D01*
X141187185Y-87874253D01*
X141189631Y-87871735D01*
X141559095Y-87502271D01*
X141619604Y-87468967D01*
X141688547Y-87473202D01*
X141744528Y-87513665D01*
X141770176Y-87577799D01*
X141788253Y-87761333D01*
X141842603Y-87940500D01*
X141930683Y-88105288D01*
X141930864Y-88105625D01*
X142002094Y-88192419D01*
X142032602Y-88229592D01*
X142059816Y-88293078D01*
X142048844Y-88361274D01*
X142003089Y-88413019D01*
X141936749Y-88432257D01*
X141129130Y-88432257D01*
X141069516Y-88438666D01*
X141035331Y-88451416D01*
X140992000Y-88459233D01*
X140948668Y-88451415D01*
X140914486Y-88438666D01*
X140888935Y-88435919D01*
X140854873Y-88432257D01*
X140854869Y-88432257D01*
X139859130Y-88432257D01*
X139799516Y-88438666D01*
X139765331Y-88451416D01*
X139722000Y-88459233D01*
X139678668Y-88451415D01*
X139644486Y-88438666D01*
X139618935Y-88435919D01*
X139584873Y-88432257D01*
X139584869Y-88432257D01*
X138589130Y-88432257D01*
X138529516Y-88438666D01*
X138495331Y-88451416D01*
X138452000Y-88459233D01*
X138408668Y-88451415D01*
X138374486Y-88438666D01*
X138348935Y-88435919D01*
X138314873Y-88432257D01*
X138314869Y-88432257D01*
X137319130Y-88432257D01*
X137259516Y-88438666D01*
X137225331Y-88451416D01*
X137182000Y-88459233D01*
X137138668Y-88451415D01*
X137104486Y-88438666D01*
X137078935Y-88435919D01*
X137044873Y-88432257D01*
X137044869Y-88432257D01*
X136049130Y-88432257D01*
X135989516Y-88438666D01*
X135955331Y-88451416D01*
X135912000Y-88459233D01*
X135868668Y-88451415D01*
X135834486Y-88438666D01*
X135808935Y-88435919D01*
X135774873Y-88432257D01*
X135774869Y-88432257D01*
X134779130Y-88432257D01*
X134719516Y-88438666D01*
X134685331Y-88451416D01*
X134642000Y-88459233D01*
X134598668Y-88451415D01*
X134564486Y-88438666D01*
X134538935Y-88435919D01*
X134504873Y-88432257D01*
X134504869Y-88432257D01*
X133509130Y-88432257D01*
X133449516Y-88438666D01*
X133415331Y-88451416D01*
X133372000Y-88459233D01*
X133328668Y-88451415D01*
X133294486Y-88438666D01*
X133268935Y-88435919D01*
X133234873Y-88432257D01*
X133234869Y-88432257D01*
X132239130Y-88432257D01*
X132179514Y-88438666D01*
X132144617Y-88451682D01*
X132101284Y-88459500D01*
X132057952Y-88451682D01*
X132024377Y-88439159D01*
X131964824Y-88432757D01*
X131717000Y-88432757D01*
X131717000Y-89808757D01*
X131700387Y-89870757D01*
X131655000Y-89916144D01*
X131593000Y-89932757D01*
X130517000Y-89932757D01*
X130517000Y-90480581D01*
X130523402Y-90540132D01*
X130573647Y-90674846D01*
X130659812Y-90789947D01*
X130708284Y-90826233D01*
X130746768Y-90873988D01*
X130757658Y-90934346D01*
X130738289Y-90992539D01*
X130693401Y-91034332D01*
X130633974Y-91049500D01*
X130411683Y-91049500D01*
X130393713Y-91048191D01*
X130379830Y-91046157D01*
X130369954Y-91044711D01*
X130369953Y-91044711D01*
X130320608Y-91049028D01*
X130309801Y-91049500D01*
X130304268Y-91049500D01*
X130273478Y-91053098D01*
X130269894Y-91053464D01*
X130193938Y-91060109D01*
X130174898Y-91064330D01*
X130103209Y-91090421D01*
X130099808Y-91091603D01*
X130027456Y-91115579D01*
X130009902Y-91124077D01*
X129946205Y-91165970D01*
X129943167Y-91167905D01*
X129878258Y-91207943D01*
X129863141Y-91220256D01*
X129810825Y-91275708D01*
X129808313Y-91278294D01*
X129478329Y-91608278D01*
X129438101Y-91635158D01*
X129390649Y-91644597D01*
X129154910Y-91644597D01*
X129095295Y-91651006D01*
X128960449Y-91701301D01*
X128845234Y-91787551D01*
X128758984Y-91902765D01*
X128703246Y-92052207D01*
X128701316Y-92051487D01*
X128686830Y-92089330D01*
X128637869Y-92129595D01*
X128575405Y-92140400D01*
X128515763Y-92118921D01*
X128463913Y-92083131D01*
X128457882Y-92078692D01*
X128412976Y-92043511D01*
X128373266Y-91989233D01*
X128365926Y-91969553D01*
X128341016Y-91902766D01*
X128254766Y-91787551D01*
X128139551Y-91701301D01*
X128004703Y-91651006D01*
X127945093Y-91644597D01*
X127945089Y-91644597D01*
X127249910Y-91644597D01*
X127190295Y-91651006D01*
X127055449Y-91701301D01*
X126940234Y-91787551D01*
X126853984Y-91902765D01*
X126803689Y-92037613D01*
X126803055Y-92043511D01*
X126799025Y-92081000D01*
X126797280Y-92097227D01*
X126797280Y-93193726D01*
X126803689Y-93253341D01*
X126841421Y-93354505D01*
X126845268Y-93390552D01*
X126871758Y-93411931D01*
X126940234Y-93503403D01*
X127055449Y-93589653D01*
X127190297Y-93639948D01*
X127249907Y-93646357D01*
X127658654Y-93646356D01*
X127707256Y-93656278D01*
X127748081Y-93684456D01*
X127774593Y-93726379D01*
X127775182Y-93727930D01*
X127780941Y-93736273D01*
X127791961Y-93755813D01*
X127796120Y-93765054D01*
X127796121Y-93765055D01*
X127796122Y-93765057D01*
X127827415Y-93805000D01*
X127829597Y-93807785D01*
X127855293Y-93871172D01*
X127843472Y-93938541D01*
X127797730Y-93989393D01*
X127731985Y-94008257D01*
X126920987Y-94008257D01*
X126873534Y-93998818D01*
X126833305Y-93971937D01*
X126779635Y-93918266D01*
X126755222Y-93883602D01*
X126743914Y-93842739D01*
X126742625Y-93829650D01*
X126736024Y-93762625D01*
X126678814Y-93574030D01*
X126663132Y-93544692D01*
X126650714Y-93494325D01*
X126615881Y-93456291D01*
X126614323Y-93453377D01*
X126585910Y-93400219D01*
X126460883Y-93247874D01*
X126308538Y-93122847D01*
X126238792Y-93085567D01*
X126134726Y-93029942D01*
X125946133Y-92972733D01*
X125750000Y-92953416D01*
X125553866Y-92972733D01*
X125365273Y-93029942D01*
X125191463Y-93122846D01*
X125039117Y-93247874D01*
X124914089Y-93400220D01*
X124821185Y-93574030D01*
X124763976Y-93762623D01*
X124744659Y-93958757D01*
X124763976Y-94154890D01*
X124821185Y-94343483D01*
X124821186Y-94343484D01*
X124914090Y-94517295D01*
X125039117Y-94669640D01*
X125191462Y-94794667D01*
X125365273Y-94887571D01*
X125553868Y-94944781D01*
X125653412Y-94954584D01*
X125694273Y-94965892D01*
X125728938Y-94990306D01*
X125983026Y-95244394D01*
X125994808Y-95258027D01*
X126009146Y-95277286D01*
X126047094Y-95309129D01*
X126055068Y-95316437D01*
X126058978Y-95320347D01*
X126083294Y-95339573D01*
X126086093Y-95341853D01*
X126144509Y-95390870D01*
X126160936Y-95401335D01*
X126230077Y-95433576D01*
X126233324Y-95435148D01*
X126301456Y-95469366D01*
X126319844Y-95475757D01*
X126321080Y-95476012D01*
X126321084Y-95476014D01*
X126394652Y-95491204D01*
X126397999Y-95491946D01*
X126471036Y-95509257D01*
X126471038Y-95509257D01*
X126472266Y-95509548D01*
X126491635Y-95511527D01*
X126492897Y-95511490D01*
X126492901Y-95511491D01*
X126565290Y-95509384D01*
X126567888Y-95509309D01*
X126571494Y-95509257D01*
X127750245Y-95509257D01*
X127805749Y-95522373D01*
X127849512Y-95558946D01*
X127867668Y-95583200D01*
X127892734Y-95616683D01*
X128007949Y-95702933D01*
X128142797Y-95753228D01*
X128202407Y-95759637D01*
X128897592Y-95759636D01*
X128957203Y-95753228D01*
X129092051Y-95702933D01*
X129207266Y-95616683D01*
X129293516Y-95501468D01*
X129343811Y-95366620D01*
X129350220Y-95307010D01*
X129350219Y-94848893D01*
X129363734Y-94792600D01*
X129401333Y-94748577D01*
X129454821Y-94726422D01*
X129512537Y-94730964D01*
X129561900Y-94761214D01*
X129678401Y-94877715D01*
X129683521Y-94883153D01*
X129723414Y-94928183D01*
X129772920Y-94962354D01*
X129778939Y-94966785D01*
X129822521Y-95000928D01*
X129826286Y-95003878D01*
X129835533Y-95008039D01*
X129855069Y-95019058D01*
X129863413Y-95024818D01*
X129919677Y-95046155D01*
X129926538Y-95048997D01*
X129981411Y-95073694D01*
X129991379Y-95075520D01*
X130012995Y-95081546D01*
X130022471Y-95085140D01*
X130082199Y-95092392D01*
X130089544Y-95093509D01*
X130148737Y-95104357D01*
X130208765Y-95100726D01*
X130216253Y-95100500D01*
X132017167Y-95100500D01*
X132082498Y-95119106D01*
X132128223Y-95169340D01*
X132140621Y-95236128D01*
X132115971Y-95299426D01*
X132077943Y-95349573D01*
X132029744Y-95387851D01*
X131969078Y-95398238D01*
X131926833Y-95394798D01*
X131848264Y-95405502D01*
X131844936Y-95405910D01*
X131780508Y-95412917D01*
X131766090Y-95414486D01*
X131766089Y-95414486D01*
X131765972Y-95414499D01*
X131743636Y-95419734D01*
X131669105Y-95447114D01*
X131665942Y-95448228D01*
X131590667Y-95473592D01*
X131569978Y-95483507D01*
X131503026Y-95526300D01*
X131500176Y-95528067D01*
X131432169Y-95568986D01*
X131414096Y-95583115D01*
X131357959Y-95639251D01*
X131355556Y-95641589D01*
X131297875Y-95696229D01*
X131283094Y-95714115D01*
X130376610Y-96620599D01*
X130369208Y-96627424D01*
X130328898Y-96661664D01*
X130280922Y-96724773D01*
X130278859Y-96727412D01*
X130229086Y-96789335D01*
X130216998Y-96808824D01*
X130183644Y-96880916D01*
X130182194Y-96883941D01*
X130146908Y-96955090D01*
X130139293Y-96976719D01*
X130122219Y-97054283D01*
X130121453Y-97057549D01*
X130102289Y-97134610D01*
X130099500Y-97157390D01*
X130099500Y-97236773D01*
X130099455Y-97240130D01*
X130097303Y-97319551D01*
X130099500Y-97342650D01*
X130099500Y-97434257D01*
X130082887Y-97496257D01*
X130037500Y-97541644D01*
X129975500Y-97558257D01*
X129018494Y-97558257D01*
X128962990Y-97545141D01*
X128919228Y-97508568D01*
X128872548Y-97446213D01*
X128872546Y-97446212D01*
X128872546Y-97446211D01*
X128757331Y-97359961D01*
X128622483Y-97309666D01*
X128562873Y-97303257D01*
X128562869Y-97303257D01*
X127737130Y-97303257D01*
X127677515Y-97309666D01*
X127542669Y-97359961D01*
X127427451Y-97446213D01*
X127380772Y-97508568D01*
X127337010Y-97545141D01*
X127281506Y-97558257D01*
X125803651Y-97558257D01*
X125756198Y-97548818D01*
X125715970Y-97521938D01*
X124579400Y-96385368D01*
X124572573Y-96377962D01*
X124538341Y-96337661D01*
X124538339Y-96337659D01*
X124538337Y-96337657D01*
X124475167Y-96289636D01*
X124472622Y-96287646D01*
X124410754Y-96237915D01*
X124410751Y-96237913D01*
X124410666Y-96237845D01*
X124391174Y-96225754D01*
X124319082Y-96192400D01*
X124316057Y-96190950D01*
X124244907Y-96155664D01*
X124223280Y-96148049D01*
X124145733Y-96130980D01*
X124142464Y-96130214D01*
X124065386Y-96111046D01*
X124042616Y-96108257D01*
X124042497Y-96108257D01*
X123963227Y-96108257D01*
X123959870Y-96108212D01*
X123880448Y-96106060D01*
X123857350Y-96108257D01*
X122431039Y-96108257D01*
X122381229Y-96097813D01*
X122339810Y-96068240D01*
X122224794Y-95943300D01*
X122044911Y-95803292D01*
X122044906Y-95803288D01*
X122034259Y-95797526D01*
X121986756Y-95751947D01*
X121969278Y-95688472D01*
X121986756Y-95624998D01*
X122034263Y-95579417D01*
X122044630Y-95573806D01*
X122070982Y-95553294D01*
X122070982Y-95553293D01*
X121290001Y-94772310D01*
X121290000Y-94772310D01*
X120509015Y-95553293D01*
X120509016Y-95553294D01*
X120535367Y-95573805D01*
X120545736Y-95579416D01*
X120593242Y-95624995D01*
X120610721Y-95688468D01*
X120593246Y-95751941D01*
X120545744Y-95797524D01*
X120535092Y-95803289D01*
X120355209Y-95943298D01*
X120355206Y-95943300D01*
X120355206Y-95943301D01*
X120200817Y-96111012D01*
X120171607Y-96155721D01*
X120076136Y-96301850D01*
X119984571Y-96510598D01*
X119984569Y-96510602D01*
X119984570Y-96510602D01*
X119954426Y-96629639D01*
X119928609Y-96731586D01*
X119909785Y-96958756D01*
X119928609Y-97185927D01*
X119928609Y-97185929D01*
X119928610Y-97185933D01*
X119984570Y-97406912D01*
X119984571Y-97406915D01*
X120076136Y-97615663D01*
X120076138Y-97615666D01*
X120200817Y-97806502D01*
X120355206Y-97974213D01*
X120535094Y-98114226D01*
X120735574Y-98222720D01*
X120789474Y-98241224D01*
X120951174Y-98296737D01*
X121176023Y-98334257D01*
X121403977Y-98334257D01*
X121628825Y-98296737D01*
X121736624Y-98259728D01*
X121844426Y-98222720D01*
X122044906Y-98114226D01*
X122224794Y-97974213D01*
X122240267Y-97957405D01*
X122339810Y-97849274D01*
X122381229Y-97819701D01*
X122431039Y-97809257D01*
X123546349Y-97809257D01*
X123593802Y-97818696D01*
X123634030Y-97845576D01*
X124770593Y-98982138D01*
X124777419Y-98989542D01*
X124811663Y-99029857D01*
X124855586Y-99063246D01*
X124874782Y-99077839D01*
X124877427Y-99079907D01*
X124939334Y-99129669D01*
X124958826Y-99141760D01*
X124958935Y-99141810D01*
X124958936Y-99141811D01*
X125030943Y-99175124D01*
X125033900Y-99176541D01*
X125080732Y-99199768D01*
X125105089Y-99211849D01*
X125126713Y-99219462D01*
X125126830Y-99219487D01*
X125126833Y-99219489D01*
X125204266Y-99236532D01*
X125207514Y-99237293D01*
X125284506Y-99256441D01*
X125284508Y-99256441D01*
X125284621Y-99256469D01*
X125307385Y-99259257D01*
X125307503Y-99259257D01*
X125386773Y-99259257D01*
X125390130Y-99259302D01*
X125469432Y-99261450D01*
X125469433Y-99261449D01*
X125469551Y-99261453D01*
X125492650Y-99259257D01*
X127281506Y-99259257D01*
X127337010Y-99272373D01*
X127380772Y-99308946D01*
X127427451Y-99371300D01*
X127427452Y-99371301D01*
X127427454Y-99371303D01*
X127542669Y-99457553D01*
X127677517Y-99507848D01*
X127737127Y-99514257D01*
X128562872Y-99514256D01*
X128622483Y-99507848D01*
X128757331Y-99457553D01*
X128872546Y-99371303D01*
X128879751Y-99361677D01*
X128919228Y-99308946D01*
X128962990Y-99272373D01*
X129018494Y-99259257D01*
X129825500Y-99259257D01*
X129887500Y-99275870D01*
X129932887Y-99321257D01*
X129949500Y-99383257D01*
X129949500Y-100156626D01*
X129952831Y-100187606D01*
X129955909Y-100216240D01*
X130006204Y-100351088D01*
X130006206Y-100351090D01*
X130011818Y-100366137D01*
X130019636Y-100409471D01*
X130011818Y-100452804D01*
X129956402Y-100601379D01*
X129950000Y-100660933D01*
X129950000Y-101008757D01*
X131076000Y-101008757D01*
X131138000Y-101025370D01*
X131183387Y-101070757D01*
X131200000Y-101132757D01*
X131200000Y-102308757D01*
X131497824Y-102308757D01*
X131557375Y-102302354D01*
X131692091Y-102252108D01*
X131796689Y-102173806D01*
X131859947Y-102149566D01*
X131926504Y-102162188D01*
X131976495Y-102207904D01*
X131995000Y-102273071D01*
X131995000Y-102398419D01*
X132005607Y-102486748D01*
X132061033Y-102627298D01*
X132152319Y-102747680D01*
X132272704Y-102838969D01*
X132413250Y-102894393D01*
X132479796Y-102902385D01*
X132537382Y-102924810D01*
X132576992Y-102972244D01*
X132588790Y-103032906D01*
X132569844Y-103091728D01*
X132524860Y-103134101D01*
X132465011Y-103149500D01*
X132085505Y-103149500D01*
X132064294Y-103147158D01*
X131991724Y-103149439D01*
X131987829Y-103149500D01*
X131959074Y-103149500D01*
X131954701Y-103150052D01*
X131943069Y-103150967D01*
X131897428Y-103152401D01*
X131877041Y-103158324D01*
X131857998Y-103162268D01*
X131836942Y-103164928D01*
X131794496Y-103181733D01*
X131783450Y-103185514D01*
X131739602Y-103198254D01*
X131721324Y-103209063D01*
X131703861Y-103217618D01*
X131684130Y-103225431D01*
X131647187Y-103252270D01*
X131637428Y-103258680D01*
X131598135Y-103281918D01*
X131583125Y-103296928D01*
X131568336Y-103309558D01*
X131551164Y-103322034D01*
X131522057Y-103357218D01*
X131514196Y-103365856D01*
X131400484Y-103479568D01*
X131383831Y-103492910D01*
X131334133Y-103545833D01*
X131331427Y-103548626D01*
X131311083Y-103568971D01*
X131308376Y-103572460D01*
X131300807Y-103581321D01*
X131269551Y-103614607D01*
X131259322Y-103633212D01*
X131248645Y-103649467D01*
X131235636Y-103666238D01*
X131217506Y-103708132D01*
X131212370Y-103718616D01*
X131190372Y-103758632D01*
X131185091Y-103779199D01*
X131178791Y-103797600D01*
X131170364Y-103817074D01*
X131163223Y-103862161D01*
X131160855Y-103873593D01*
X131153597Y-103901868D01*
X131149500Y-103917824D01*
X131149500Y-103939045D01*
X131147973Y-103958444D01*
X131144653Y-103979405D01*
X131146703Y-104001088D01*
X131148950Y-104024861D01*
X131149500Y-104036530D01*
X131149500Y-104575967D01*
X131139488Y-104624780D01*
X131111069Y-104665710D01*
X131068835Y-104692147D01*
X131007669Y-104714961D01*
X131007667Y-104714961D01*
X130992618Y-104720575D01*
X130949284Y-104728393D01*
X130905951Y-104720575D01*
X130757375Y-104665159D01*
X130697824Y-104658757D01*
X130350000Y-104658757D01*
X130350000Y-105784757D01*
X130333387Y-105846757D01*
X130288000Y-105892144D01*
X130226000Y-105908757D01*
X129974000Y-105908757D01*
X129912000Y-105892144D01*
X129866613Y-105846757D01*
X129850000Y-105784757D01*
X129850000Y-104658757D01*
X129502176Y-104658757D01*
X129442624Y-104665159D01*
X129307910Y-104715404D01*
X129192809Y-104801569D01*
X129173767Y-104827007D01*
X129126012Y-104865491D01*
X129065654Y-104876381D01*
X129007461Y-104857012D01*
X128965668Y-104812124D01*
X128950500Y-104752697D01*
X128950500Y-102660702D01*
X128958318Y-102617368D01*
X128958794Y-102616089D01*
X128958796Y-102616088D01*
X129009091Y-102481240D01*
X129015500Y-102421630D01*
X129015499Y-101508757D01*
X129950000Y-101508757D01*
X129950000Y-101856581D01*
X129956402Y-101916132D01*
X130006647Y-102050846D01*
X130092811Y-102165945D01*
X130207910Y-102252109D01*
X130342624Y-102302354D01*
X130402176Y-102308757D01*
X130700000Y-102308757D01*
X130700000Y-101508757D01*
X129950000Y-101508757D01*
X129015499Y-101508757D01*
X129015499Y-101115885D01*
X129009091Y-101056274D01*
X128958796Y-100921426D01*
X128872546Y-100806211D01*
X128757331Y-100719961D01*
X128622483Y-100669666D01*
X128562873Y-100663257D01*
X128562869Y-100663257D01*
X127737130Y-100663257D01*
X127677515Y-100669666D01*
X127542669Y-100719961D01*
X127427454Y-100806211D01*
X127341204Y-100921425D01*
X127290909Y-101056272D01*
X127290909Y-101056274D01*
X127285172Y-101109640D01*
X127284500Y-101115887D01*
X127284500Y-102421626D01*
X127290909Y-102481241D01*
X127322931Y-102567097D01*
X127331056Y-102588881D01*
X127341682Y-102617369D01*
X127349500Y-102660702D01*
X127349500Y-106294575D01*
X127358017Y-106331897D01*
X127360345Y-106345598D01*
X127364631Y-106383631D01*
X127377272Y-106419759D01*
X127381119Y-106433115D01*
X127389638Y-106470437D01*
X127406250Y-106504932D01*
X127411570Y-106517777D01*
X127424209Y-106553899D01*
X127427074Y-106558458D01*
X127444576Y-106586312D01*
X127451298Y-106598474D01*
X127467908Y-106632965D01*
X127491772Y-106662889D01*
X127499818Y-106674229D01*
X127520184Y-106706641D01*
X127552173Y-106738630D01*
X127552174Y-106738631D01*
X128315804Y-107502261D01*
X128315805Y-107502262D01*
X128427730Y-107614187D01*
X128443359Y-107629816D01*
X128475764Y-107650177D01*
X128487107Y-107658225D01*
X128517035Y-107682092D01*
X128551516Y-107698697D01*
X128563685Y-107705422D01*
X128592731Y-107723673D01*
X128596101Y-107725790D01*
X128632229Y-107738432D01*
X128645071Y-107743750D01*
X128679559Y-107760359D01*
X128679560Y-107760360D01*
X128716871Y-107768876D01*
X128730232Y-107772725D01*
X128766366Y-107785368D01*
X128804397Y-107789653D01*
X128818102Y-107791981D01*
X128855427Y-107800500D01*
X128900667Y-107800500D01*
X129035815Y-107800500D01*
X132709806Y-107800500D01*
X132844954Y-107800500D01*
X132890194Y-107800500D01*
X132890195Y-107800500D01*
X132901009Y-107798031D01*
X132927520Y-107791980D01*
X132941205Y-107789654D01*
X132962123Y-107787298D01*
X133029806Y-107798801D01*
X133080995Y-107844549D01*
X133100000Y-107910519D01*
X133100000Y-108108757D01*
X133725000Y-108108757D01*
X133725000Y-107258440D01*
X133734439Y-107210987D01*
X133761319Y-107170759D01*
X133790609Y-107141469D01*
X134225000Y-107141469D01*
X134225000Y-108108757D01*
X134850000Y-108108757D01*
X134850000Y-107936312D01*
X134834582Y-107794549D01*
X134773812Y-107614187D01*
X134675691Y-107451109D01*
X134544799Y-107312929D01*
X134387275Y-107206124D01*
X134225000Y-107141469D01*
X133790609Y-107141469D01*
X133791674Y-107140404D01*
X133797826Y-107134252D01*
X133829816Y-107102262D01*
X133850190Y-107069834D01*
X133858222Y-107058515D01*
X133882091Y-107028587D01*
X133898704Y-106994088D01*
X133905413Y-106981948D01*
X133925789Y-106949522D01*
X133938432Y-106913388D01*
X133943752Y-106900545D01*
X133960359Y-106866060D01*
X133968876Y-106828745D01*
X133972720Y-106815398D01*
X133985368Y-106779255D01*
X133989655Y-106741201D01*
X133991982Y-106727512D01*
X134000500Y-106690196D01*
X134000500Y-106383441D01*
X134013432Y-106328306D01*
X134049530Y-106284671D01*
X134101265Y-106261637D01*
X134157846Y-106264009D01*
X134207472Y-106291291D01*
X134318079Y-106390883D01*
X134481920Y-106485476D01*
X134661847Y-106543938D01*
X134750000Y-106553203D01*
X134750000Y-105532757D01*
X134766613Y-105470757D01*
X134812000Y-105425370D01*
X134874000Y-105408757D01*
X135126000Y-105408757D01*
X135188000Y-105425370D01*
X135233387Y-105470757D01*
X135250000Y-105532757D01*
X135250000Y-106553203D01*
X135338153Y-106543938D01*
X135400637Y-106523635D01*
X135463002Y-106519919D01*
X135519263Y-106547083D01*
X135555137Y-106598229D01*
X135556204Y-106601088D01*
X135642454Y-106716303D01*
X135757669Y-106802553D01*
X135867655Y-106843575D01*
X135922517Y-106884037D01*
X135947702Y-106947383D01*
X135935598Y-107014468D01*
X135889864Y-107065019D01*
X135824321Y-107083757D01*
X135702176Y-107083757D01*
X135642624Y-107090159D01*
X135507910Y-107140404D01*
X135392811Y-107226568D01*
X135306647Y-107341667D01*
X135256402Y-107476381D01*
X135250000Y-107535933D01*
X135250000Y-108108757D01*
X139750000Y-108108757D01*
X140150000Y-108108757D01*
X140775000Y-108108757D01*
X140775000Y-107145069D01*
X140774999Y-107145068D01*
X140699219Y-107166108D01*
X140531067Y-107255256D01*
X140386008Y-107378470D01*
X140270827Y-107529989D01*
X140190914Y-107702719D01*
X140150000Y-107888595D01*
X140150000Y-108108757D01*
X139750000Y-108108757D01*
X139750000Y-107535933D01*
X139743597Y-107476381D01*
X139693352Y-107341667D01*
X139607188Y-107226568D01*
X139493512Y-107141469D01*
X141275000Y-107141469D01*
X141275000Y-108108757D01*
X141900000Y-108108757D01*
X141900000Y-107936312D01*
X141884582Y-107794549D01*
X141823812Y-107614187D01*
X141725691Y-107451109D01*
X141594799Y-107312929D01*
X141437275Y-107206124D01*
X141275000Y-107141469D01*
X139493512Y-107141469D01*
X139492089Y-107140404D01*
X139357375Y-107090159D01*
X139297824Y-107083757D01*
X139174249Y-107083757D01*
X139108706Y-107065019D01*
X139062972Y-107014468D01*
X139050868Y-106947383D01*
X139076053Y-106884037D01*
X139130915Y-106843575D01*
X139242089Y-106802109D01*
X139357189Y-106715945D01*
X139454038Y-106586573D01*
X139456120Y-106588132D01*
X139474850Y-106561424D01*
X139531114Y-106534255D01*
X139593483Y-106537971D01*
X139611847Y-106543938D01*
X139750000Y-106558458D01*
X139750000Y-105908757D01*
X140250000Y-105908757D01*
X140250000Y-106558458D01*
X140388152Y-106543938D01*
X140568079Y-106485476D01*
X140731920Y-106390883D01*
X140872515Y-106264289D01*
X140983714Y-106111239D01*
X141060664Y-105938403D01*
X141066967Y-105908757D01*
X140250000Y-105908757D01*
X139750000Y-105908757D01*
X138974500Y-105908757D01*
X138912500Y-105892144D01*
X138879112Y-105858756D01*
X150494519Y-105858756D01*
X150514933Y-106144167D01*
X150575754Y-106423761D01*
X150575756Y-106423766D01*
X150675751Y-106691864D01*
X150735950Y-106802109D01*
X150812883Y-106943002D01*
X150984359Y-107172067D01*
X151186689Y-107374397D01*
X151415754Y-107545873D01*
X151415756Y-107545874D01*
X151666893Y-107683006D01*
X151934991Y-107783001D01*
X151934994Y-107783001D01*
X151934995Y-107783002D01*
X151965570Y-107789653D01*
X152214590Y-107843824D01*
X152500000Y-107864237D01*
X152785410Y-107843824D01*
X153065009Y-107783001D01*
X153333107Y-107683006D01*
X153584244Y-107545874D01*
X153813310Y-107374398D01*
X154015641Y-107172067D01*
X154187117Y-106943001D01*
X154324249Y-106691864D01*
X154424244Y-106423766D01*
X154485067Y-106144167D01*
X154505480Y-105858757D01*
X154505286Y-105856051D01*
X154500187Y-105784757D01*
X154485067Y-105573347D01*
X154424244Y-105293748D01*
X154324249Y-105025650D01*
X154187117Y-104774513D01*
X154181334Y-104766788D01*
X154015640Y-104545446D01*
X153813310Y-104343116D01*
X153584245Y-104171640D01*
X153482897Y-104116300D01*
X153333107Y-104034508D01*
X153065009Y-103934513D01*
X153065004Y-103934511D01*
X152785410Y-103873690D01*
X152500000Y-103853276D01*
X152214587Y-103873690D01*
X152100357Y-103898539D01*
X152045483Y-103898049D01*
X151996194Y-103873924D01*
X151962143Y-103830889D01*
X151950000Y-103777373D01*
X151950000Y-103508757D01*
X151150000Y-103508757D01*
X151150000Y-104278636D01*
X151154937Y-104287187D01*
X151154937Y-104351374D01*
X151122844Y-104406962D01*
X150984356Y-104545450D01*
X150812883Y-104774511D01*
X150735392Y-104916426D01*
X150675751Y-105025650D01*
X150612328Y-105195692D01*
X150575754Y-105293752D01*
X150514933Y-105573346D01*
X150494519Y-105858756D01*
X138879112Y-105858756D01*
X138867113Y-105846757D01*
X138850500Y-105784758D01*
X138850499Y-105544620D01*
X138859939Y-105497163D01*
X138875962Y-105473183D01*
X138876613Y-105470757D01*
X138879540Y-105467829D01*
X138886822Y-105456933D01*
X138896323Y-105447433D01*
X138898129Y-105449240D01*
X138922000Y-105425370D01*
X138984000Y-105408757D01*
X141066967Y-105408757D01*
X141060664Y-105379110D01*
X140983715Y-105206276D01*
X140905972Y-105099272D01*
X140882539Y-105034247D01*
X140897557Y-104966780D01*
X140946358Y-104917832D01*
X141013775Y-104902613D01*
X141042606Y-104904358D01*
X141101782Y-104893513D01*
X141109181Y-104892387D01*
X141168872Y-104885140D01*
X141178335Y-104881550D01*
X141199958Y-104875522D01*
X141209932Y-104873695D01*
X141264808Y-104848996D01*
X141271673Y-104846152D01*
X141327930Y-104824818D01*
X141336270Y-104819060D01*
X141355819Y-104808035D01*
X141365057Y-104803878D01*
X141412413Y-104766775D01*
X141418420Y-104762355D01*
X141467929Y-104728183D01*
X141507823Y-104683150D01*
X141512924Y-104677731D01*
X143277731Y-102912924D01*
X143283151Y-102907822D01*
X143328183Y-102867929D01*
X143362358Y-102818416D01*
X143366779Y-102812407D01*
X143403877Y-102765057D01*
X143408033Y-102755820D01*
X143419058Y-102736273D01*
X143424818Y-102727930D01*
X143446154Y-102671668D01*
X143449014Y-102664766D01*
X143455039Y-102651381D01*
X143473694Y-102609932D01*
X143475519Y-102599970D01*
X143481545Y-102578348D01*
X143485140Y-102568872D01*
X143492389Y-102509165D01*
X143493516Y-102501762D01*
X143504357Y-102442606D01*
X143500726Y-102382578D01*
X143500500Y-102375091D01*
X143500500Y-100624921D01*
X143500726Y-100617434D01*
X143501441Y-100605607D01*
X143504358Y-100557394D01*
X143493507Y-100498185D01*
X143492390Y-100490841D01*
X143485140Y-100431128D01*
X143481547Y-100421656D01*
X143475522Y-100400044D01*
X143475286Y-100398757D01*
X144024659Y-100398757D01*
X144029982Y-100452804D01*
X144043976Y-100594890D01*
X144101185Y-100783483D01*
X144174917Y-100921425D01*
X144194090Y-100957295D01*
X144319117Y-101109640D01*
X144471462Y-101234667D01*
X144645273Y-101327571D01*
X144833868Y-101384781D01*
X145030000Y-101404098D01*
X145226132Y-101384781D01*
X145414727Y-101327571D01*
X145496533Y-101283843D01*
X145564385Y-101269559D01*
X145629298Y-101293936D01*
X145650631Y-101309906D01*
X145687204Y-101353668D01*
X145700320Y-101409172D01*
X145700320Y-102395871D01*
X145699011Y-102413841D01*
X145695531Y-102437600D01*
X145699848Y-102486946D01*
X145700320Y-102497753D01*
X145700320Y-102503286D01*
X145701856Y-102516426D01*
X145703918Y-102534073D01*
X145704284Y-102537658D01*
X145710930Y-102613618D01*
X145715149Y-102632648D01*
X145715578Y-102633828D01*
X145715579Y-102633832D01*
X145741233Y-102704319D01*
X145742402Y-102707684D01*
X145766400Y-102780101D01*
X145774895Y-102797649D01*
X145816799Y-102861361D01*
X145818709Y-102864359D01*
X145848676Y-102912941D01*
X145858772Y-102929309D01*
X145871073Y-102944408D01*
X145926530Y-102996729D01*
X145929117Y-102999242D01*
X146674268Y-103744392D01*
X146686044Y-103758017D01*
X146700390Y-103777287D01*
X146738355Y-103809143D01*
X146746317Y-103816441D01*
X146750224Y-103820348D01*
X146774542Y-103839576D01*
X146777298Y-103841820D01*
X146834786Y-103890059D01*
X146834788Y-103890060D01*
X146835757Y-103890873D01*
X146852177Y-103901333D01*
X146853321Y-103901866D01*
X146853323Y-103901868D01*
X146921357Y-103933592D01*
X146924456Y-103935092D01*
X146991567Y-103968797D01*
X146992704Y-103969368D01*
X147011084Y-103975755D01*
X147012321Y-103976010D01*
X147012327Y-103976013D01*
X147085862Y-103991196D01*
X147089209Y-103991938D01*
X147162279Y-104009257D01*
X147162281Y-104009257D01*
X147163505Y-104009547D01*
X147182876Y-104011526D01*
X147184140Y-104011489D01*
X147184144Y-104011490D01*
X147259110Y-104009309D01*
X147262716Y-104009257D01*
X148150249Y-104009257D01*
X148205753Y-104022373D01*
X148249515Y-104058946D01*
X148292451Y-104116300D01*
X148292452Y-104116301D01*
X148292454Y-104116303D01*
X148407669Y-104202553D01*
X148542517Y-104252848D01*
X148602127Y-104259257D01*
X149797872Y-104259256D01*
X149857483Y-104252848D01*
X149992331Y-104202553D01*
X149992331Y-104202552D01*
X150007382Y-104196939D01*
X150050715Y-104189121D01*
X150094049Y-104196939D01*
X150242624Y-104252354D01*
X150302176Y-104258757D01*
X150650000Y-104258757D01*
X150650000Y-102258757D01*
X151150000Y-102258757D01*
X151150000Y-103008757D01*
X151950000Y-103008757D01*
X151950000Y-102710933D01*
X151943597Y-102651381D01*
X151893352Y-102516667D01*
X151807188Y-102401568D01*
X151692089Y-102315404D01*
X151557375Y-102265159D01*
X151497824Y-102258757D01*
X151150000Y-102258757D01*
X150650000Y-102258757D01*
X150302176Y-102258757D01*
X150242622Y-102265159D01*
X150094047Y-102320575D01*
X150050714Y-102328393D01*
X150007380Y-102320575D01*
X149992333Y-102314962D01*
X149992331Y-102314961D01*
X149857483Y-102264666D01*
X149797873Y-102258257D01*
X149797869Y-102258257D01*
X148602130Y-102258257D01*
X148542515Y-102264666D01*
X148407669Y-102314961D01*
X148292451Y-102401213D01*
X148249515Y-102458568D01*
X148205753Y-102495141D01*
X148150249Y-102508257D01*
X147612230Y-102508257D01*
X147564777Y-102498818D01*
X147524549Y-102471938D01*
X147237639Y-102185028D01*
X147210759Y-102144800D01*
X147201320Y-102097347D01*
X147201320Y-101409172D01*
X147214436Y-101353668D01*
X147251009Y-101309905D01*
X147259967Y-101303198D01*
X147308746Y-101266683D01*
X147394996Y-101151468D01*
X147445291Y-101016620D01*
X147451700Y-100957010D01*
X147451700Y-100658757D01*
X152648800Y-100658757D01*
X152648800Y-100956961D01*
X152655202Y-101016512D01*
X152705447Y-101151226D01*
X152791611Y-101266325D01*
X152906710Y-101352489D01*
X153041424Y-101402734D01*
X153100976Y-101409137D01*
X153399180Y-101409137D01*
X153399180Y-100658757D01*
X153899180Y-100658757D01*
X153899180Y-101409137D01*
X154197384Y-101409137D01*
X154256935Y-101402734D01*
X154391649Y-101352489D01*
X154506748Y-101266325D01*
X154592912Y-101151226D01*
X154643157Y-101016512D01*
X154649560Y-100956961D01*
X154649560Y-100658757D01*
X153899180Y-100658757D01*
X153399180Y-100658757D01*
X152648800Y-100658757D01*
X147451700Y-100658757D01*
X147451699Y-100158757D01*
X152648800Y-100158757D01*
X153399180Y-100158757D01*
X153399180Y-99408377D01*
X153899180Y-99408377D01*
X153899180Y-100158757D01*
X154649560Y-100158757D01*
X154649560Y-99860549D01*
X154643157Y-99801001D01*
X154592912Y-99666287D01*
X154506748Y-99551188D01*
X154391649Y-99465024D01*
X154256935Y-99414779D01*
X154197384Y-99408377D01*
X153899180Y-99408377D01*
X153399180Y-99408377D01*
X153100976Y-99408377D01*
X153041424Y-99414779D01*
X152906710Y-99465024D01*
X152791611Y-99551188D01*
X152705447Y-99666287D01*
X152655202Y-99801001D01*
X152648800Y-99860549D01*
X152648800Y-100158757D01*
X147451699Y-100158757D01*
X147451699Y-99860505D01*
X147445291Y-99800894D01*
X147394996Y-99666046D01*
X147308746Y-99550831D01*
X147193531Y-99464581D01*
X147058683Y-99414286D01*
X146999073Y-99407877D01*
X146999069Y-99407877D01*
X145902570Y-99407877D01*
X145842955Y-99414286D01*
X145708107Y-99464581D01*
X145644884Y-99511910D01*
X145579972Y-99536286D01*
X145512121Y-99522001D01*
X145414726Y-99469942D01*
X145226133Y-99412733D01*
X145128065Y-99403074D01*
X145030000Y-99393416D01*
X145029999Y-99393416D01*
X144833866Y-99412733D01*
X144645273Y-99469942D01*
X144471463Y-99562846D01*
X144319117Y-99687874D01*
X144194089Y-99840220D01*
X144101185Y-100014030D01*
X144043976Y-100202623D01*
X144034420Y-100299650D01*
X144024659Y-100398757D01*
X143475286Y-100398757D01*
X143473695Y-100390069D01*
X143449009Y-100335220D01*
X143446152Y-100328326D01*
X143424818Y-100272070D01*
X143424816Y-100272068D01*
X143424816Y-100272066D01*
X143419062Y-100263731D01*
X143408033Y-100244177D01*
X143403878Y-100234944D01*
X143366780Y-100187591D01*
X143362352Y-100181573D01*
X143328184Y-100132072D01*
X143328183Y-100132071D01*
X143283153Y-100092178D01*
X143277715Y-100087058D01*
X143112940Y-99922283D01*
X143107822Y-99916847D01*
X143067929Y-99871817D01*
X143018432Y-99837651D01*
X143012405Y-99833216D01*
X142983709Y-99810735D01*
X142965057Y-99796122D01*
X142965055Y-99796121D01*
X142965054Y-99796120D01*
X142955813Y-99791961D01*
X142936273Y-99780941D01*
X142927930Y-99775182D01*
X142927927Y-99775181D01*
X142927926Y-99775180D01*
X142871701Y-99753856D01*
X142864783Y-99750991D01*
X142809929Y-99726303D01*
X142799952Y-99724475D01*
X142778339Y-99718450D01*
X142768873Y-99714860D01*
X142709172Y-99707610D01*
X142701771Y-99706483D01*
X142642607Y-99695641D01*
X142582566Y-99699274D01*
X142575079Y-99699500D01*
X138224910Y-99699500D01*
X138217423Y-99699274D01*
X138157391Y-99695642D01*
X138098242Y-99706481D01*
X138090843Y-99707608D01*
X138031122Y-99714860D01*
X138021641Y-99718456D01*
X138000036Y-99724479D01*
X137990069Y-99726305D01*
X137935234Y-99750984D01*
X137928318Y-99753848D01*
X137872069Y-99775181D01*
X137863725Y-99780941D01*
X137844183Y-99791963D01*
X137834944Y-99796121D01*
X137787594Y-99833216D01*
X137781566Y-99837652D01*
X137732067Y-99871819D01*
X137692183Y-99916838D01*
X137687051Y-99922290D01*
X137407290Y-100202051D01*
X137401838Y-100207183D01*
X137356816Y-100247070D01*
X137322649Y-100296568D01*
X137318213Y-100302597D01*
X137281121Y-100349942D01*
X137276961Y-100359186D01*
X137265941Y-100378725D01*
X137260182Y-100387069D01*
X137238853Y-100443305D01*
X137235989Y-100450219D01*
X137211303Y-100505070D01*
X137209475Y-100515047D01*
X137203453Y-100536649D01*
X137199846Y-100546162D01*
X137161908Y-100598590D01*
X137102722Y-100624763D01*
X137038411Y-100617554D01*
X137006869Y-100605115D01*
X136918472Y-100594500D01*
X136918468Y-100594500D01*
X136311532Y-100594500D01*
X136311528Y-100594500D01*
X136223130Y-100605115D01*
X136082456Y-100660590D01*
X136054925Y-100681468D01*
X136006609Y-100703775D01*
X135953391Y-100703775D01*
X135905075Y-100681468D01*
X135877543Y-100660590D01*
X135736869Y-100605115D01*
X135648472Y-100594500D01*
X135648468Y-100594500D01*
X135066179Y-100594500D01*
X135005060Y-100578391D01*
X134959821Y-100534249D01*
X134942216Y-100473543D01*
X134956821Y-100412047D01*
X134957315Y-100411123D01*
X134998814Y-100333484D01*
X135056024Y-100144889D01*
X135075341Y-99948757D01*
X135056024Y-99752625D01*
X134998814Y-99564030D01*
X134905910Y-99390219D01*
X134780883Y-99237874D01*
X134628538Y-99112847D01*
X134563043Y-99077839D01*
X134454726Y-99019942D01*
X134266133Y-98962733D01*
X134070000Y-98943416D01*
X133873866Y-98962733D01*
X133685273Y-99019942D01*
X133511463Y-99112846D01*
X133359117Y-99237874D01*
X133234089Y-99390220D01*
X133141185Y-99564030D01*
X133083976Y-99752623D01*
X133064659Y-99948756D01*
X133083976Y-100144890D01*
X133141185Y-100333483D01*
X133183446Y-100412547D01*
X133198051Y-100474043D01*
X133180446Y-100534749D01*
X133135207Y-100578891D01*
X133074088Y-100595000D01*
X133055000Y-100595000D01*
X133055000Y-101876000D01*
X133038387Y-101938000D01*
X132993000Y-101983387D01*
X132931000Y-102000000D01*
X132679000Y-102000000D01*
X132617000Y-101983387D01*
X132571613Y-101938000D01*
X132555000Y-101876000D01*
X132555000Y-100595001D01*
X132501580Y-100595001D01*
X132413251Y-100605607D01*
X132272698Y-100661034D01*
X132148924Y-100754894D01*
X132085626Y-100779544D01*
X132018839Y-100767145D01*
X131968606Y-100721420D01*
X131953184Y-100667271D01*
X131950710Y-100667537D01*
X131943597Y-100601381D01*
X131888182Y-100452806D01*
X131880364Y-100409472D01*
X131888182Y-100366138D01*
X131893794Y-100351089D01*
X131893796Y-100351088D01*
X131944091Y-100216240D01*
X131950500Y-100156630D01*
X131950499Y-98960885D01*
X131944091Y-98901274D01*
X131893796Y-98766426D01*
X131825232Y-98674837D01*
X131806846Y-98639686D01*
X131800500Y-98600527D01*
X131800500Y-98413227D01*
X131800545Y-98409870D01*
X131802696Y-98330448D01*
X131800500Y-98307350D01*
X131800500Y-97653651D01*
X131809939Y-97606199D01*
X131836816Y-97565972D01*
X132077099Y-97325688D01*
X132127263Y-97295183D01*
X132185844Y-97291176D01*
X132239696Y-97314567D01*
X132272456Y-97339409D01*
X132272459Y-97339410D01*
X132413130Y-97394884D01*
X132501528Y-97405500D01*
X132501532Y-97405500D01*
X133108468Y-97405500D01*
X133108472Y-97405500D01*
X133196869Y-97394884D01*
X133224999Y-97383791D01*
X133337544Y-97339409D01*
X133365075Y-97318531D01*
X133413391Y-97296224D01*
X133466609Y-97296224D01*
X133514924Y-97318531D01*
X133542456Y-97339409D01*
X133612793Y-97367146D01*
X133683130Y-97394884D01*
X133771528Y-97405500D01*
X133771532Y-97405500D01*
X134378468Y-97405500D01*
X134378472Y-97405500D01*
X134437402Y-97398422D01*
X134466869Y-97394884D01*
X134475009Y-97391673D01*
X134534232Y-97383791D01*
X134590268Y-97404517D01*
X134630107Y-97449042D01*
X134644500Y-97507028D01*
X134644500Y-97520079D01*
X134644274Y-97527566D01*
X134640641Y-97587607D01*
X134651483Y-97646771D01*
X134652610Y-97654172D01*
X134659860Y-97713873D01*
X134663450Y-97723339D01*
X134669475Y-97744952D01*
X134671303Y-97754929D01*
X134695991Y-97809783D01*
X134698856Y-97816701D01*
X134711210Y-97849274D01*
X134720182Y-97872930D01*
X134725941Y-97881273D01*
X134736961Y-97900813D01*
X134741120Y-97910054D01*
X134778216Y-97957405D01*
X134782651Y-97963432D01*
X134816817Y-98012929D01*
X134861847Y-98052822D01*
X134867283Y-98057940D01*
X135287058Y-98477715D01*
X135292178Y-98483153D01*
X135332071Y-98528183D01*
X135381577Y-98562354D01*
X135387596Y-98566785D01*
X135430666Y-98600527D01*
X135434943Y-98603878D01*
X135444190Y-98608039D01*
X135463726Y-98619058D01*
X135472070Y-98624818D01*
X135528334Y-98646155D01*
X135535195Y-98648997D01*
X135590068Y-98673694D01*
X135600036Y-98675520D01*
X135621652Y-98681546D01*
X135631128Y-98685140D01*
X135690856Y-98692392D01*
X135698201Y-98693509D01*
X135757394Y-98704357D01*
X135817422Y-98700726D01*
X135824910Y-98700500D01*
X144375079Y-98700500D01*
X144382566Y-98700726D01*
X144385706Y-98700915D01*
X144442606Y-98704358D01*
X144501782Y-98693513D01*
X144509181Y-98692387D01*
X144568872Y-98685140D01*
X144578335Y-98681550D01*
X144599958Y-98675522D01*
X144609932Y-98673695D01*
X144664808Y-98648996D01*
X144671673Y-98646152D01*
X144727930Y-98624818D01*
X144736270Y-98619060D01*
X144755819Y-98608035D01*
X144765057Y-98603878D01*
X144812413Y-98566775D01*
X144818420Y-98562355D01*
X144867929Y-98528183D01*
X144907823Y-98483150D01*
X144912924Y-98477731D01*
X147280231Y-96110424D01*
X147285650Y-96105323D01*
X147330683Y-96065429D01*
X147364855Y-96015920D01*
X147369275Y-96009913D01*
X147406378Y-95962557D01*
X147410535Y-95953319D01*
X147421560Y-95933770D01*
X147427318Y-95925430D01*
X147448652Y-95869173D01*
X147451496Y-95862308D01*
X147476195Y-95807432D01*
X147478022Y-95797458D01*
X147484052Y-95775831D01*
X147487640Y-95766371D01*
X147492951Y-95722625D01*
X147494890Y-95706657D01*
X147496009Y-95699299D01*
X147506857Y-95640106D01*
X147503226Y-95580077D01*
X147503000Y-95572590D01*
X147503000Y-94921868D01*
X147516116Y-94866364D01*
X147552689Y-94822602D01*
X147610043Y-94779665D01*
X147610042Y-94779665D01*
X147610046Y-94779663D01*
X147696296Y-94664448D01*
X147746591Y-94529600D01*
X147753000Y-94469990D01*
X147752999Y-93724245D01*
X147746591Y-93664634D01*
X147696296Y-93529786D01*
X147633893Y-93446427D01*
X147611994Y-93398475D01*
X147611994Y-93345759D01*
X147633894Y-93297806D01*
X147663621Y-93258096D01*
X147696296Y-93214448D01*
X147746591Y-93079600D01*
X147753000Y-93019990D01*
X147752999Y-92274245D01*
X147746591Y-92214634D01*
X147696296Y-92079786D01*
X147610046Y-91964571D01*
X147494831Y-91878321D01*
X147359983Y-91828026D01*
X147300373Y-91821617D01*
X147300369Y-91821617D01*
X146304630Y-91821617D01*
X146245015Y-91828026D01*
X146093961Y-91884365D01*
X146085805Y-91888632D01*
X146046647Y-91894977D01*
X145754755Y-91894977D01*
X145699251Y-91881861D01*
X145655488Y-91845288D01*
X145612266Y-91787551D01*
X145497051Y-91701301D01*
X145497049Y-91701300D01*
X145482778Y-91690617D01*
X145483690Y-91689398D01*
X145454842Y-91669365D01*
X145427393Y-91614521D01*
X145429584Y-91553231D01*
X145460877Y-91500489D01*
X146417642Y-90543724D01*
X146431260Y-90531954D01*
X146450530Y-90517610D01*
X146482376Y-90479656D01*
X146489662Y-90471704D01*
X146493591Y-90467777D01*
X146512833Y-90443439D01*
X146515090Y-90440670D01*
X146549530Y-90399626D01*
X146563302Y-90383214D01*
X146563303Y-90383211D01*
X146564115Y-90382244D01*
X146574573Y-90365827D01*
X146575106Y-90364682D01*
X146575111Y-90364677D01*
X146606833Y-90296646D01*
X146608361Y-90293490D01*
X146623902Y-90262547D01*
X146663864Y-90216433D01*
X146720987Y-90194963D01*
X146781433Y-90203340D01*
X146830563Y-90239535D01*
X146889117Y-90310883D01*
X147041462Y-90435910D01*
X147215273Y-90528814D01*
X147403868Y-90586024D01*
X147600000Y-90605341D01*
X147796132Y-90586024D01*
X147984727Y-90528814D01*
X148158538Y-90435910D01*
X148310883Y-90310883D01*
X148435910Y-90158538D01*
X148528814Y-89984727D01*
X148586024Y-89796132D01*
X148605341Y-89600000D01*
X148603853Y-89584896D01*
X148612694Y-89525292D01*
X148648590Y-89476890D01*
X148703064Y-89451126D01*
X148763251Y-89454082D01*
X148814937Y-89485062D01*
X149914267Y-90584391D01*
X149926048Y-90598023D01*
X149940389Y-90617286D01*
X149978339Y-90649130D01*
X149986313Y-90656437D01*
X149990224Y-90660348D01*
X149997437Y-90666051D01*
X150014543Y-90679577D01*
X150017330Y-90681847D01*
X150074786Y-90730059D01*
X150074788Y-90730060D01*
X150075750Y-90730867D01*
X150092180Y-90741335D01*
X150093322Y-90741867D01*
X150093323Y-90741868D01*
X150161350Y-90773589D01*
X150164527Y-90775128D01*
X150194743Y-90790303D01*
X150232702Y-90809367D01*
X150251085Y-90815756D01*
X150252322Y-90816011D01*
X150252328Y-90816014D01*
X150325852Y-90831194D01*
X150329286Y-90831956D01*
X150375566Y-90842925D01*
X150403506Y-90849548D01*
X150422879Y-90851527D01*
X150424141Y-90851490D01*
X150424145Y-90851491D01*
X150496534Y-90849384D01*
X150499132Y-90849309D01*
X150502738Y-90849257D01*
X150969727Y-90849257D01*
X151026984Y-90863268D01*
X151071301Y-90902133D01*
X151079174Y-90913377D01*
X151235380Y-91069583D01*
X151416338Y-91196291D01*
X151471150Y-91221850D01*
X151545189Y-91256375D01*
X151597365Y-91302132D01*
X151616784Y-91368757D01*
X151597365Y-91435382D01*
X151545189Y-91481139D01*
X151416338Y-91541223D01*
X151235379Y-91667931D01*
X151079174Y-91824136D01*
X150952466Y-92005095D01*
X150859106Y-92205305D01*
X150801929Y-92418691D01*
X150782676Y-92638757D01*
X150801929Y-92858822D01*
X150859106Y-93072208D01*
X150943569Y-93253340D01*
X150952466Y-93272419D01*
X151079174Y-93453377D01*
X151235380Y-93609583D01*
X151416338Y-93736291D01*
X151616550Y-93829651D01*
X151829932Y-93886827D01*
X152050000Y-93906080D01*
X152270068Y-93886827D01*
X152483450Y-93829651D01*
X152683662Y-93736291D01*
X152864620Y-93609583D01*
X153020826Y-93453377D01*
X153147534Y-93272419D01*
X153207617Y-93143568D01*
X153253375Y-93091392D01*
X153320000Y-93071973D01*
X153386625Y-93091392D01*
X153432382Y-93143568D01*
X153492466Y-93272419D01*
X153619174Y-93453377D01*
X153775380Y-93609583D01*
X153956338Y-93736291D01*
X154156550Y-93829651D01*
X154369932Y-93886827D01*
X154590000Y-93906080D01*
X154810068Y-93886827D01*
X155023450Y-93829651D01*
X155223662Y-93736291D01*
X155404620Y-93609583D01*
X155560826Y-93453377D01*
X155687534Y-93272419D01*
X155780894Y-93072207D01*
X155838070Y-92858825D01*
X155857323Y-92638757D01*
X155838070Y-92418689D01*
X155780894Y-92205307D01*
X155687534Y-92005096D01*
X155560826Y-91824137D01*
X155404620Y-91667931D01*
X155223662Y-91541223D01*
X155223661Y-91541222D01*
X155094811Y-91481139D01*
X155042635Y-91435382D01*
X155023216Y-91368757D01*
X155042635Y-91302132D01*
X155094811Y-91256375D01*
X155100027Y-91253942D01*
X155223662Y-91196291D01*
X155404620Y-91069583D01*
X155560826Y-90913377D01*
X155687534Y-90732419D01*
X155780894Y-90532207D01*
X155838070Y-90318825D01*
X155857323Y-90098757D01*
X155854687Y-90068632D01*
X155842800Y-89932757D01*
X155838070Y-89878689D01*
X155780894Y-89665307D01*
X155687534Y-89465096D01*
X155560826Y-89284137D01*
X155404620Y-89127931D01*
X155223662Y-89001223D01*
X155155992Y-88969668D01*
X155094811Y-88941139D01*
X155042635Y-88895382D01*
X155023216Y-88828757D01*
X155042635Y-88762132D01*
X155094811Y-88716375D01*
X155100027Y-88713942D01*
X155223662Y-88656291D01*
X155404620Y-88529583D01*
X155560826Y-88373377D01*
X155568698Y-88362133D01*
X155613016Y-88323268D01*
X155670273Y-88309257D01*
X155787537Y-88309257D01*
X155805507Y-88310566D01*
X155809563Y-88311159D01*
X155829266Y-88314046D01*
X155878611Y-88309729D01*
X155889419Y-88309257D01*
X155894949Y-88309257D01*
X155894952Y-88309257D01*
X155925793Y-88305651D01*
X155929274Y-88305296D01*
X156004040Y-88298756D01*
X156004040Y-88298755D01*
X156005295Y-88298646D01*
X156024305Y-88294431D01*
X156025493Y-88293998D01*
X156025498Y-88293998D01*
X156096063Y-88268314D01*
X156099338Y-88267176D01*
X156170577Y-88243571D01*
X156170579Y-88243569D01*
X156171779Y-88243172D01*
X156189306Y-88234686D01*
X156190355Y-88233995D01*
X156190360Y-88233994D01*
X156253049Y-88192762D01*
X156256041Y-88190856D01*
X156319899Y-88151469D01*
X156319899Y-88151468D01*
X156320972Y-88150807D01*
X156336067Y-88138510D01*
X156336935Y-88137589D01*
X156336939Y-88137587D01*
X156388427Y-88083011D01*
X156390873Y-88080493D01*
X157036776Y-87434590D01*
X157086125Y-87404346D01*
X157143828Y-87399796D01*
X157197310Y-87421933D01*
X157234917Y-87465934D01*
X157248455Y-87522211D01*
X157249500Y-89610003D01*
X157249500Y-105856051D01*
X157249382Y-105861460D01*
X157241336Y-106045754D01*
X157241321Y-106046083D01*
X157230736Y-106274568D01*
X157229808Y-106285014D01*
X157203629Y-106483879D01*
X157203501Y-106484825D01*
X157173822Y-106697606D01*
X157172072Y-106707314D01*
X157127634Y-106907766D01*
X157127279Y-106909317D01*
X157079188Y-107113793D01*
X157076743Y-107122690D01*
X157014436Y-107320309D01*
X157013747Y-107322428D01*
X156947599Y-107519791D01*
X156944588Y-107527838D01*
X156864912Y-107720196D01*
X156863786Y-107722830D01*
X156780123Y-107912311D01*
X156776678Y-107919481D01*
X156680227Y-108104767D01*
X156678566Y-108107850D01*
X156578110Y-108288204D01*
X156574362Y-108294489D01*
X156461945Y-108470952D01*
X156459664Y-108474405D01*
X156343175Y-108644459D01*
X156339251Y-108649868D01*
X156211758Y-108816022D01*
X156208780Y-108819752D01*
X156077225Y-108978181D01*
X156073250Y-108982738D01*
X155931681Y-109137234D01*
X155927940Y-109141142D01*
X155782371Y-109286712D01*
X155778463Y-109290453D01*
X155623982Y-109432011D01*
X155619425Y-109435986D01*
X155460974Y-109567563D01*
X155457244Y-109570542D01*
X155291098Y-109698031D01*
X155285688Y-109701955D01*
X155115661Y-109818426D01*
X155112210Y-109820706D01*
X154935728Y-109933139D01*
X154929441Y-109936888D01*
X154749048Y-110037367D01*
X154745966Y-110039027D01*
X154560733Y-110135454D01*
X154553563Y-110138899D01*
X154364083Y-110222564D01*
X154361449Y-110223691D01*
X154169079Y-110303374D01*
X154161032Y-110306385D01*
X153963671Y-110372533D01*
X153961553Y-110373222D01*
X153763932Y-110435532D01*
X153755034Y-110437977D01*
X153550520Y-110486079D01*
X153548969Y-110486434D01*
X153348564Y-110530863D01*
X153338856Y-110532613D01*
X153125983Y-110562307D01*
X153125037Y-110562435D01*
X152926296Y-110588600D01*
X152915838Y-110589529D01*
X152677672Y-110600541D01*
X152677354Y-110600555D01*
X152503687Y-110608138D01*
X152498278Y-110608256D01*
X152448142Y-110608256D01*
X152448137Y-110608257D01*
X150286512Y-110608257D01*
X121839807Y-110601145D01*
X121834432Y-110601027D01*
X121798341Y-110599452D01*
X121798032Y-110599438D01*
X121585178Y-110589618D01*
X121574707Y-110588689D01*
X121363716Y-110560911D01*
X121362771Y-110560783D01*
X121162224Y-110532808D01*
X121152516Y-110531058D01*
X120944357Y-110484909D01*
X120942806Y-110484554D01*
X120746102Y-110438290D01*
X120737204Y-110435845D01*
X120533801Y-110371712D01*
X120531683Y-110371023D01*
X120392716Y-110324446D01*
X120340138Y-110306823D01*
X120332111Y-110303820D01*
X120206589Y-110251827D01*
X120135055Y-110222196D01*
X120132422Y-110221069D01*
X119947675Y-110139495D01*
X119940504Y-110136050D01*
X119751307Y-110037559D01*
X119748225Y-110035899D01*
X119571819Y-109937641D01*
X119565533Y-109933892D01*
X119385642Y-109819288D01*
X119382190Y-109817008D01*
X119313157Y-109769719D01*
X119215585Y-109702880D01*
X119210210Y-109698981D01*
X119040973Y-109569120D01*
X119037266Y-109566161D01*
X118881925Y-109437166D01*
X118877373Y-109433195D01*
X118720095Y-109289075D01*
X118716187Y-109285334D01*
X118573437Y-109142582D01*
X118569697Y-109138674D01*
X118425573Y-108981390D01*
X118421607Y-108976845D01*
X118292634Y-108821526D01*
X118289656Y-108817796D01*
X118240286Y-108753456D01*
X118159784Y-108648542D01*
X118155882Y-108643163D01*
X118132314Y-108608757D01*
X133100000Y-108608757D01*
X133100000Y-108781202D01*
X133115417Y-108922964D01*
X133176187Y-109103326D01*
X133274308Y-109266404D01*
X133405200Y-109404584D01*
X133562724Y-109511389D01*
X133724999Y-109576044D01*
X133725000Y-109576045D01*
X133725000Y-108608757D01*
X134225000Y-108608757D01*
X134225000Y-109572445D01*
X134300780Y-109551405D01*
X134468932Y-109462257D01*
X134613991Y-109339043D01*
X134729172Y-109187524D01*
X134809085Y-109014794D01*
X134850000Y-108828919D01*
X134850000Y-108608757D01*
X135250000Y-108608757D01*
X135250000Y-109181581D01*
X135256402Y-109241132D01*
X135306647Y-109375846D01*
X135392811Y-109490945D01*
X135507910Y-109577109D01*
X135642624Y-109627354D01*
X135702176Y-109633757D01*
X136250000Y-109633757D01*
X136250000Y-108608757D01*
X136750000Y-108608757D01*
X136750000Y-109633757D01*
X137297824Y-109633757D01*
X137357378Y-109627354D01*
X137456665Y-109590322D01*
X137499999Y-109582503D01*
X137543333Y-109590321D01*
X137642624Y-109627354D01*
X137702176Y-109633757D01*
X138250000Y-109633757D01*
X138250000Y-108608757D01*
X138750000Y-108608757D01*
X138750000Y-109633757D01*
X139297824Y-109633757D01*
X139357375Y-109627354D01*
X139492089Y-109577109D01*
X139607188Y-109490945D01*
X139693352Y-109375846D01*
X139743597Y-109241132D01*
X139750000Y-109181581D01*
X139750000Y-108608757D01*
X140150000Y-108608757D01*
X140150000Y-108781202D01*
X140165417Y-108922964D01*
X140226187Y-109103326D01*
X140324308Y-109266404D01*
X140455200Y-109404584D01*
X140612724Y-109511389D01*
X140774999Y-109576044D01*
X140775000Y-109576045D01*
X140775000Y-108608757D01*
X141275000Y-108608757D01*
X141275000Y-109572445D01*
X141350780Y-109551405D01*
X141518932Y-109462257D01*
X141663991Y-109339043D01*
X141779172Y-109187524D01*
X141859085Y-109014794D01*
X141900000Y-108828919D01*
X141900000Y-108608757D01*
X141275000Y-108608757D01*
X140775000Y-108608757D01*
X140150000Y-108608757D01*
X139750000Y-108608757D01*
X138750000Y-108608757D01*
X138250000Y-108608757D01*
X136750000Y-108608757D01*
X136250000Y-108608757D01*
X135250000Y-108608757D01*
X134850000Y-108608757D01*
X134225000Y-108608757D01*
X133725000Y-108608757D01*
X133100000Y-108608757D01*
X118132314Y-108608757D01*
X118041758Y-108476560D01*
X118039525Y-108473182D01*
X117924869Y-108293207D01*
X117921156Y-108286979D01*
X117822860Y-108110501D01*
X117821210Y-108107438D01*
X117793601Y-108054400D01*
X117722721Y-107918240D01*
X117719301Y-107911120D01*
X117637654Y-107726204D01*
X117636604Y-107723749D01*
X117554957Y-107526632D01*
X117551967Y-107518641D01*
X117487724Y-107326960D01*
X117487083Y-107324989D01*
X117422946Y-107121565D01*
X117420504Y-107112679D01*
X117374210Y-106915845D01*
X117373888Y-106914439D01*
X117327729Y-106706225D01*
X117325986Y-106696556D01*
X117297985Y-106495811D01*
X117297919Y-106495325D01*
X117270100Y-106283998D01*
X117269174Y-106273583D01*
X117259769Y-106070122D01*
X117251297Y-105876044D01*
X117251182Y-105870731D01*
X117251185Y-105858757D01*
X119994519Y-105858757D01*
X120014933Y-106144167D01*
X120075754Y-106423761D01*
X120075756Y-106423766D01*
X120175751Y-106691864D01*
X120235950Y-106802109D01*
X120312883Y-106943002D01*
X120484359Y-107172067D01*
X120686689Y-107374397D01*
X120915754Y-107545873D01*
X120915756Y-107545874D01*
X121166893Y-107683006D01*
X121434991Y-107783001D01*
X121434994Y-107783001D01*
X121434995Y-107783002D01*
X121465570Y-107789653D01*
X121714590Y-107843824D01*
X122000000Y-107864237D01*
X122285410Y-107843824D01*
X122565009Y-107783001D01*
X122833107Y-107683006D01*
X123084244Y-107545874D01*
X123313310Y-107374398D01*
X123515641Y-107172067D01*
X123687117Y-106943001D01*
X123824249Y-106691864D01*
X123924244Y-106423766D01*
X123985067Y-106144167D01*
X124005480Y-105858757D01*
X123985067Y-105573347D01*
X123924244Y-105293748D01*
X123824249Y-105025650D01*
X123687117Y-104774513D01*
X123681334Y-104766788D01*
X123515640Y-104545446D01*
X123313310Y-104343116D01*
X123084245Y-104171640D01*
X122982897Y-104116300D01*
X122833107Y-104034508D01*
X122565009Y-103934513D01*
X122565004Y-103934511D01*
X122285410Y-103873690D01*
X122000000Y-103853276D01*
X121714589Y-103873690D01*
X121434995Y-103934511D01*
X121370829Y-103958444D01*
X121166893Y-104034508D01*
X121104386Y-104068639D01*
X120915754Y-104171640D01*
X120686689Y-104343116D01*
X120484359Y-104545446D01*
X120312883Y-104774511D01*
X120235392Y-104916426D01*
X120175751Y-105025650D01*
X120112328Y-105195692D01*
X120075754Y-105293752D01*
X120014933Y-105573346D01*
X119994519Y-105858757D01*
X117251185Y-105858757D01*
X117254047Y-94418757D01*
X119910287Y-94418757D01*
X119929104Y-94645844D01*
X119985046Y-94866752D01*
X120076579Y-95075426D01*
X120156874Y-95198327D01*
X120936446Y-94418758D01*
X120936446Y-94418757D01*
X120936445Y-94418756D01*
X121643553Y-94418756D01*
X122423124Y-95198328D01*
X122503419Y-95075427D01*
X122594953Y-94866751D01*
X122650895Y-94645844D01*
X122669712Y-94418757D01*
X122650895Y-94191669D01*
X122594953Y-93970761D01*
X122503420Y-93762086D01*
X122423124Y-93639185D01*
X121643553Y-94418755D01*
X121643553Y-94418756D01*
X120936445Y-94418756D01*
X120156873Y-93639184D01*
X120076581Y-93762083D01*
X119985046Y-93970761D01*
X119929104Y-94191669D01*
X119910287Y-94418757D01*
X117254047Y-94418757D01*
X117254531Y-92485013D01*
X117272549Y-92420676D01*
X117321340Y-92375025D01*
X117386738Y-92361321D01*
X117449752Y-92383543D01*
X117492086Y-92435239D01*
X117536136Y-92535663D01*
X117536138Y-92535666D01*
X117660817Y-92726502D01*
X117815206Y-92894213D01*
X117995094Y-93034226D01*
X118195574Y-93142720D01*
X118249474Y-93161224D01*
X118411174Y-93216737D01*
X118636023Y-93254257D01*
X118863977Y-93254257D01*
X119088825Y-93216737D01*
X119196624Y-93179728D01*
X119304426Y-93142720D01*
X119504906Y-93034226D01*
X119684794Y-92894213D01*
X119839183Y-92726502D01*
X119916191Y-92608631D01*
X119960982Y-92567398D01*
X120020000Y-92552453D01*
X120079018Y-92567398D01*
X120123808Y-92608631D01*
X120200817Y-92726502D01*
X120355206Y-92894213D01*
X120535094Y-93034226D01*
X120542156Y-93038048D01*
X120545739Y-93039987D01*
X120593244Y-93085567D01*
X120610721Y-93149040D01*
X120593245Y-93212513D01*
X120545741Y-93258094D01*
X120535369Y-93263706D01*
X120509016Y-93284217D01*
X120509016Y-93284219D01*
X121289998Y-94065203D01*
X121289999Y-94065203D01*
X122070983Y-93284219D01*
X122070982Y-93284218D01*
X122044634Y-93263710D01*
X122034260Y-93258096D01*
X121986754Y-93212514D01*
X121969277Y-93149039D01*
X121986756Y-93085564D01*
X122034258Y-93039987D01*
X122044906Y-93034226D01*
X122224794Y-92894213D01*
X122379183Y-92726502D01*
X122391444Y-92707734D01*
X122406014Y-92685435D01*
X122450805Y-92644202D01*
X122509822Y-92629257D01*
X124266294Y-92629257D01*
X124284264Y-92630566D01*
X124288320Y-92631159D01*
X124308023Y-92634046D01*
X124357368Y-92629729D01*
X124368176Y-92629257D01*
X124373706Y-92629257D01*
X124373709Y-92629257D01*
X124404550Y-92625651D01*
X124408031Y-92625296D01*
X124482797Y-92618756D01*
X124482797Y-92618755D01*
X124484052Y-92618646D01*
X124503062Y-92614431D01*
X124504250Y-92613998D01*
X124504255Y-92613998D01*
X124574820Y-92588314D01*
X124578095Y-92587176D01*
X124649334Y-92563571D01*
X124649336Y-92563569D01*
X124650536Y-92563172D01*
X124668063Y-92554686D01*
X124669112Y-92553995D01*
X124669117Y-92553994D01*
X124731806Y-92512762D01*
X124734798Y-92510856D01*
X124798656Y-92471469D01*
X124798656Y-92471468D01*
X124799729Y-92470807D01*
X124814824Y-92458510D01*
X124815692Y-92457589D01*
X124815696Y-92457587D01*
X124867184Y-92403011D01*
X124869630Y-92400493D01*
X126285642Y-90984481D01*
X126299260Y-90972711D01*
X126318530Y-90958367D01*
X126350376Y-90920413D01*
X126357662Y-90912461D01*
X126361591Y-90908534D01*
X126380833Y-90884196D01*
X126383090Y-90881427D01*
X126424597Y-90831961D01*
X126431302Y-90823971D01*
X126431303Y-90823968D01*
X126432115Y-90823001D01*
X126442573Y-90806584D01*
X126443106Y-90805439D01*
X126443111Y-90805434D01*
X126474833Y-90737403D01*
X126476362Y-90734245D01*
X126510040Y-90667190D01*
X126510040Y-90667189D01*
X126510612Y-90666051D01*
X126517000Y-90647671D01*
X126517255Y-90646432D01*
X126517257Y-90646430D01*
X126532447Y-90572860D01*
X126533186Y-90569527D01*
X126550500Y-90496478D01*
X126550500Y-90496474D01*
X126550791Y-90495246D01*
X126552770Y-90475878D01*
X126552733Y-90474616D01*
X126552734Y-90474613D01*
X126550552Y-90399626D01*
X126550500Y-90396020D01*
X126550500Y-89432757D01*
X130517000Y-89432757D01*
X131217000Y-89432757D01*
X131217000Y-88432757D01*
X130969176Y-88432757D01*
X130909624Y-88439159D01*
X130774910Y-88489404D01*
X130659811Y-88575568D01*
X130573647Y-88690667D01*
X130523402Y-88825381D01*
X130517000Y-88884933D01*
X130517000Y-89432757D01*
X126550500Y-89432757D01*
X126550500Y-85570988D01*
X126559939Y-85523536D01*
X126586818Y-85483307D01*
X126660548Y-85409576D01*
X126700777Y-85382696D01*
X126748230Y-85373257D01*
X127057500Y-85373257D01*
X127119500Y-85389870D01*
G37*
%TD.AperFunction*%
%TA.AperFunction,Conductor*%
G36*
X144619500Y-86584870D02*
G01*
X144664887Y-86630257D01*
X144681500Y-86692257D01*
X144681500Y-87660626D01*
X144687909Y-87720242D01*
X144700658Y-87754424D01*
X144708476Y-87797756D01*
X144700659Y-87841087D01*
X144687909Y-87875272D01*
X144687908Y-87875274D01*
X144687909Y-87875274D01*
X144681693Y-87933096D01*
X144681500Y-87934887D01*
X144681500Y-88930626D01*
X144687909Y-88990241D01*
X144713056Y-89057664D01*
X144738204Y-89125088D01*
X144824454Y-89240303D01*
X144939669Y-89326553D01*
X145057448Y-89370482D01*
X145089110Y-89382291D01*
X145088822Y-89383061D01*
X145127000Y-89397041D01*
X145167031Y-89441604D01*
X145181500Y-89499733D01*
X145181500Y-89605770D01*
X145172061Y-89653223D01*
X145145181Y-89693451D01*
X143906851Y-90931779D01*
X143868673Y-90954430D01*
X143846022Y-90992608D01*
X143516858Y-91321772D01*
X143503227Y-91333553D01*
X143483967Y-91347892D01*
X143452133Y-91385829D01*
X143444841Y-91393789D01*
X143440908Y-91397722D01*
X143421676Y-91422045D01*
X143419402Y-91424837D01*
X143370394Y-91483244D01*
X143359918Y-91499687D01*
X143327692Y-91568794D01*
X143326125Y-91572031D01*
X143324011Y-91576241D01*
X143278298Y-91626133D01*
X143213197Y-91644597D01*
X142702410Y-91644597D01*
X142642795Y-91651006D01*
X142507949Y-91701301D01*
X142392733Y-91787551D01*
X142349512Y-91845288D01*
X142305749Y-91881861D01*
X142250245Y-91894977D01*
X137018229Y-91894977D01*
X137000259Y-91893668D01*
X136986376Y-91891634D01*
X136976500Y-91890188D01*
X136976499Y-91890188D01*
X136927157Y-91894505D01*
X136916350Y-91894977D01*
X136910812Y-91894977D01*
X136880010Y-91898576D01*
X136876429Y-91898942D01*
X136800475Y-91905588D01*
X136781449Y-91909806D01*
X136709768Y-91935894D01*
X136706365Y-91937077D01*
X136633997Y-91961057D01*
X136616450Y-91969553D01*
X136552759Y-92011442D01*
X136549719Y-92013379D01*
X136484803Y-92053420D01*
X136469688Y-92065732D01*
X136417371Y-92121185D01*
X136414859Y-92123771D01*
X136114358Y-92424272D01*
X136100727Y-92436053D01*
X136081467Y-92450392D01*
X136049633Y-92488329D01*
X136042341Y-92496289D01*
X136038408Y-92500222D01*
X136019176Y-92524545D01*
X136016902Y-92527337D01*
X135991364Y-92557773D01*
X135971872Y-92581004D01*
X135959387Y-92595883D01*
X135958053Y-92594764D01*
X135924802Y-92631044D01*
X135859713Y-92649500D01*
X132336431Y-92649500D01*
X132271264Y-92630995D01*
X132225547Y-92581004D01*
X132212925Y-92514447D01*
X132237165Y-92451189D01*
X132238289Y-92449686D01*
X132243796Y-92442331D01*
X132294091Y-92307483D01*
X132300500Y-92247873D01*
X132300499Y-91502128D01*
X132294091Y-91442517D01*
X132243796Y-91307669D01*
X132157546Y-91192454D01*
X132157544Y-91192453D01*
X132157544Y-91192452D01*
X132101396Y-91150420D01*
X132061834Y-91100237D01*
X132052514Y-91037018D01*
X132075911Y-90977553D01*
X132125811Y-90937634D01*
X132188961Y-90927864D01*
X132220925Y-90931300D01*
X132239127Y-90933257D01*
X133234872Y-90933256D01*
X133294483Y-90926848D01*
X133328664Y-90914098D01*
X133371998Y-90906280D01*
X133415332Y-90914098D01*
X133449517Y-90926848D01*
X133509127Y-90933257D01*
X134504872Y-90933256D01*
X134564483Y-90926848D01*
X134598664Y-90914098D01*
X134641998Y-90906280D01*
X134685332Y-90914098D01*
X134719517Y-90926848D01*
X134779127Y-90933257D01*
X135774872Y-90933256D01*
X135834483Y-90926848D01*
X135868664Y-90914098D01*
X135911998Y-90906280D01*
X135955332Y-90914098D01*
X135989517Y-90926848D01*
X136049127Y-90933257D01*
X137044872Y-90933256D01*
X137104483Y-90926848D01*
X137138664Y-90914098D01*
X137181998Y-90906280D01*
X137225332Y-90914098D01*
X137259517Y-90926848D01*
X137319127Y-90933257D01*
X138314872Y-90933256D01*
X138374483Y-90926848D01*
X138408664Y-90914098D01*
X138451998Y-90906280D01*
X138495332Y-90914098D01*
X138529517Y-90926848D01*
X138589127Y-90933257D01*
X139584872Y-90933256D01*
X139644483Y-90926848D01*
X139678664Y-90914098D01*
X139721998Y-90906280D01*
X139765332Y-90914098D01*
X139799517Y-90926848D01*
X139859127Y-90933257D01*
X140854872Y-90933256D01*
X140914483Y-90926848D01*
X140948664Y-90914098D01*
X140991998Y-90906280D01*
X141035332Y-90914098D01*
X141069517Y-90926848D01*
X141129127Y-90933257D01*
X142124872Y-90933256D01*
X142184483Y-90926848D01*
X142218664Y-90914098D01*
X142261998Y-90906280D01*
X142305332Y-90914098D01*
X142339517Y-90926848D01*
X142399127Y-90933257D01*
X143394872Y-90933256D01*
X143454483Y-90926848D01*
X143589331Y-90876553D01*
X143684030Y-90805660D01*
X143709396Y-90795153D01*
X143719904Y-90769787D01*
X143747878Y-90732419D01*
X143790796Y-90675088D01*
X143841091Y-90540240D01*
X143847500Y-90480630D01*
X143847499Y-88884885D01*
X143841091Y-88825274D01*
X143790796Y-88690426D01*
X143704546Y-88575211D01*
X143589331Y-88488961D01*
X143589330Y-88488960D01*
X143457360Y-88439739D01*
X143409002Y-88407035D01*
X143380967Y-88355828D01*
X143379469Y-88297469D01*
X143404839Y-88244895D01*
X143519136Y-88105625D01*
X143607396Y-87940501D01*
X143661747Y-87761331D01*
X143680099Y-87575000D01*
X143661747Y-87388669D01*
X143607396Y-87209499D01*
X143542209Y-87087542D01*
X143527834Y-87037201D01*
X143535517Y-86985413D01*
X143563884Y-86941416D01*
X143900727Y-86604573D01*
X143940953Y-86577696D01*
X143988406Y-86568257D01*
X144557500Y-86568257D01*
X144619500Y-86584870D01*
G37*
%TD.AperFunction*%
%TA.AperFunction,Conductor*%
G36*
X150726000Y-84157113D02*
G01*
X150771387Y-84202500D01*
X150788000Y-84264500D01*
X150788000Y-84768757D01*
X152176000Y-84768757D01*
X152238000Y-84785370D01*
X152283387Y-84830757D01*
X152300000Y-84892757D01*
X152300000Y-85144757D01*
X152283387Y-85206757D01*
X152238000Y-85252144D01*
X152176000Y-85268757D01*
X150788000Y-85268757D01*
X150788000Y-85828581D01*
X150794402Y-85888132D01*
X150844647Y-86022846D01*
X150930811Y-86137945D01*
X151045910Y-86224109D01*
X151180624Y-86274354D01*
X151240176Y-86280757D01*
X151280793Y-86280757D01*
X151340909Y-86296304D01*
X151385951Y-86339047D01*
X151404623Y-86398267D01*
X151392243Y-86459115D01*
X151351916Y-86506332D01*
X151235379Y-86587931D01*
X151079174Y-86744136D01*
X150952466Y-86925095D01*
X150859106Y-87125305D01*
X150801929Y-87338691D01*
X150782676Y-87558756D01*
X150801929Y-87778822D01*
X150859106Y-87992208D01*
X150927328Y-88138510D01*
X150952466Y-88192419D01*
X151079174Y-88373377D01*
X151235380Y-88529583D01*
X151416338Y-88656291D01*
X151489541Y-88690426D01*
X151545189Y-88716375D01*
X151597365Y-88762132D01*
X151616784Y-88828757D01*
X151597365Y-88895382D01*
X151545189Y-88941139D01*
X151416338Y-89001223D01*
X151235379Y-89127931D01*
X151079175Y-89284135D01*
X151071302Y-89295380D01*
X151026984Y-89334246D01*
X150969727Y-89348257D01*
X150852229Y-89348257D01*
X150804776Y-89338818D01*
X150764548Y-89311938D01*
X149836819Y-88384208D01*
X149809939Y-88343980D01*
X149800500Y-88296527D01*
X149800500Y-85364322D01*
X149817113Y-85302322D01*
X149877179Y-85198284D01*
X149907001Y-85106502D01*
X149935674Y-85018256D01*
X149955460Y-84830000D01*
X149935674Y-84641744D01*
X149905332Y-84548363D01*
X149877179Y-84461715D01*
X149799113Y-84326500D01*
X149782500Y-84264500D01*
X149799113Y-84202500D01*
X149844500Y-84157113D01*
X149906500Y-84140500D01*
X150664000Y-84140500D01*
X150726000Y-84157113D01*
G37*
%TD.AperFunction*%
%TA.AperFunction,Conductor*%
G36*
X152546594Y-70611291D02*
G01*
X152687675Y-70617450D01*
X152915812Y-70628021D01*
X152926227Y-70628946D01*
X153125595Y-70655193D01*
X153125925Y-70655238D01*
X153338875Y-70684943D01*
X153348515Y-70686681D01*
X153549265Y-70731187D01*
X153550434Y-70731454D01*
X153755043Y-70779577D01*
X153763885Y-70782007D01*
X153961722Y-70844384D01*
X153963637Y-70845007D01*
X154161035Y-70911168D01*
X154169029Y-70914159D01*
X154361564Y-70993909D01*
X154364044Y-70994970D01*
X154553574Y-71078655D01*
X154560688Y-71082073D01*
X154746034Y-71178558D01*
X154749072Y-71180195D01*
X154929437Y-71280657D01*
X154935682Y-71284380D01*
X155062829Y-71365381D01*
X155112229Y-71396852D01*
X155115640Y-71399106D01*
X155285698Y-71515597D01*
X155291079Y-71519501D01*
X155457287Y-71647036D01*
X155460970Y-71649976D01*
X155619409Y-71781540D01*
X155623965Y-71785515D01*
X155778477Y-71927098D01*
X155782380Y-71930834D01*
X155927949Y-72076402D01*
X155931673Y-72080293D01*
X156073255Y-72234802D01*
X156077230Y-72239357D01*
X156208772Y-72397765D01*
X156211750Y-72401496D01*
X156255965Y-72459117D01*
X156339278Y-72567691D01*
X156343180Y-72573070D01*
X156361884Y-72600374D01*
X156459655Y-72743102D01*
X156461935Y-72746553D01*
X156574375Y-72923046D01*
X156578124Y-72929332D01*
X156678568Y-73109660D01*
X156680228Y-73112742D01*
X156776697Y-73298054D01*
X156780142Y-73305224D01*
X156795705Y-73340470D01*
X156863795Y-73494676D01*
X156864892Y-73497241D01*
X156880329Y-73534508D01*
X156944611Y-73689698D01*
X156947622Y-73697744D01*
X157013750Y-73895038D01*
X157014439Y-73897157D01*
X157076769Y-74094839D01*
X157079214Y-74103736D01*
X157127309Y-74308213D01*
X157127663Y-74309765D01*
X157172100Y-74510200D01*
X157173851Y-74519906D01*
X157203515Y-74732541D01*
X157203643Y-74733488D01*
X157229843Y-74932486D01*
X157230772Y-74942944D01*
X157241769Y-75180773D01*
X157241783Y-75181094D01*
X157242174Y-75190053D01*
X157242292Y-75195398D01*
X157246476Y-83565685D01*
X157232983Y-83621998D01*
X157195391Y-83666043D01*
X157141898Y-83688216D01*
X157084170Y-83683682D01*
X157034795Y-83653428D01*
X156664673Y-83283306D01*
X156285728Y-82904360D01*
X156273946Y-82890727D01*
X156259609Y-82871469D01*
X156221666Y-82839631D01*
X156213691Y-82832323D01*
X156209782Y-82828414D01*
X156209777Y-82828409D01*
X156185423Y-82809152D01*
X156182647Y-82806890D01*
X156124251Y-82757890D01*
X156107821Y-82747422D01*
X156038691Y-82715186D01*
X156035447Y-82713615D01*
X155967306Y-82679394D01*
X155948903Y-82672997D01*
X155874211Y-82657574D01*
X155870692Y-82656794D01*
X155796490Y-82639208D01*
X155777121Y-82637229D01*
X155700869Y-82639448D01*
X155697263Y-82639500D01*
X149850390Y-82639500D01*
X149788390Y-82622887D01*
X149743003Y-82577501D01*
X149726390Y-82515501D01*
X149743002Y-82453502D01*
X149744421Y-82451042D01*
X149744422Y-82451041D01*
X149802917Y-82271013D01*
X149822703Y-82082757D01*
X149802917Y-81894501D01*
X149751042Y-81734846D01*
X149744422Y-81714472D01*
X149649776Y-81550540D01*
X149523113Y-81409867D01*
X149369973Y-81298605D01*
X149197045Y-81221612D01*
X149011891Y-81182257D01*
X149011889Y-81182257D01*
X148822597Y-81182257D01*
X148822594Y-81182257D01*
X148721248Y-81203798D01*
X148657728Y-81200625D01*
X148604136Y-81166380D01*
X148574570Y-81110071D01*
X148576807Y-81046513D01*
X148586024Y-81016132D01*
X148605341Y-80820000D01*
X148586024Y-80623868D01*
X148528814Y-80435273D01*
X148435910Y-80261462D01*
X148310883Y-80109117D01*
X148158538Y-79984090D01*
X148074248Y-79939036D01*
X147984726Y-79891185D01*
X147796133Y-79833976D01*
X147600000Y-79814659D01*
X147403870Y-79833975D01*
X147379467Y-79841377D01*
X147342492Y-79852594D01*
X147285300Y-79856107D01*
X147232632Y-79833531D01*
X147195739Y-79789685D01*
X147182499Y-79733933D01*
X147182499Y-79044887D01*
X147181557Y-79036126D01*
X147176091Y-78985274D01*
X147163340Y-78951088D01*
X147155523Y-78907757D01*
X147163342Y-78864422D01*
X147169347Y-78848322D01*
X147176091Y-78830240D01*
X147182500Y-78770630D01*
X147182499Y-78036066D01*
X147195739Y-77980315D01*
X147232632Y-77936469D01*
X147285300Y-77913893D01*
X147342492Y-77917405D01*
X147403868Y-77936024D01*
X147600000Y-77955341D01*
X147796132Y-77936024D01*
X147984727Y-77878814D01*
X148158538Y-77785910D01*
X148310883Y-77660883D01*
X148435910Y-77508538D01*
X148528814Y-77334727D01*
X148586024Y-77146132D01*
X148605341Y-76950000D01*
X148586024Y-76753868D01*
X148528814Y-76565273D01*
X148435910Y-76391462D01*
X148429355Y-76383475D01*
X148404449Y-76332968D01*
X148404450Y-76276652D01*
X148429359Y-76226145D01*
X148435910Y-76218163D01*
X148528814Y-76044352D01*
X148586024Y-75855757D01*
X148605341Y-75659625D01*
X148586024Y-75463493D01*
X148528814Y-75274898D01*
X148435910Y-75101087D01*
X148398955Y-75056058D01*
X148375765Y-75012096D01*
X148371703Y-74962553D01*
X148387422Y-74915400D01*
X148427179Y-74846541D01*
X148485674Y-74666513D01*
X148505460Y-74478257D01*
X148485674Y-74290001D01*
X148427179Y-74109973D01*
X148427178Y-74109972D01*
X148425750Y-74105575D01*
X148421208Y-74047859D01*
X148443363Y-73994372D01*
X148487386Y-73956772D01*
X148543681Y-73943257D01*
X149610752Y-73943257D01*
X149652527Y-73950506D01*
X149689416Y-73971403D01*
X149731462Y-74005910D01*
X149905273Y-74098814D01*
X150093868Y-74156024D01*
X150290000Y-74175341D01*
X150486132Y-74156024D01*
X150665171Y-74101712D01*
X150723179Y-74098343D01*
X150776356Y-74121773D01*
X150813020Y-74166856D01*
X150825119Y-74223692D01*
X150809995Y-74279800D01*
X150678887Y-74519906D01*
X150675751Y-74525650D01*
X150625753Y-74659699D01*
X150575754Y-74793752D01*
X150514933Y-75073346D01*
X150494519Y-75358757D01*
X150514933Y-75644167D01*
X150575754Y-75923761D01*
X150575756Y-75923766D01*
X150675751Y-76191864D01*
X150722049Y-76276652D01*
X150812883Y-76443002D01*
X150984359Y-76672067D01*
X151186689Y-76874397D01*
X151415754Y-77045873D01*
X151415756Y-77045874D01*
X151666893Y-77183006D01*
X151934991Y-77283001D01*
X151934994Y-77283001D01*
X151934995Y-77283002D01*
X151964237Y-77289363D01*
X152214590Y-77343824D01*
X152500000Y-77364237D01*
X152785410Y-77343824D01*
X153065009Y-77283001D01*
X153333107Y-77183006D01*
X153584244Y-77045874D01*
X153813310Y-76874398D01*
X154015641Y-76672067D01*
X154187117Y-76443001D01*
X154324249Y-76191864D01*
X154424244Y-75923766D01*
X154485067Y-75644167D01*
X154505480Y-75358757D01*
X154485067Y-75073347D01*
X154424244Y-74793748D01*
X154324249Y-74525650D01*
X154187117Y-74274513D01*
X154175322Y-74258757D01*
X154020025Y-74051304D01*
X154015641Y-74045447D01*
X153813310Y-73843116D01*
X153792791Y-73827756D01*
X153584245Y-73671640D01*
X153421310Y-73582671D01*
X153333107Y-73534508D01*
X153091078Y-73444236D01*
X153065004Y-73434511D01*
X152785410Y-73373690D01*
X152499999Y-73353276D01*
X152214589Y-73373690D01*
X151934995Y-73434511D01*
X151836935Y-73471085D01*
X151666893Y-73534508D01*
X151578690Y-73582671D01*
X151407972Y-73675890D01*
X151407203Y-73674483D01*
X151360925Y-73693598D01*
X151299753Y-73686850D01*
X151249359Y-73651522D01*
X151222157Y-73596316D01*
X151224849Y-73534831D01*
X151276024Y-73366132D01*
X151295341Y-73170000D01*
X151276024Y-72973868D01*
X151218814Y-72785273D01*
X151125910Y-72611462D01*
X151000883Y-72459117D01*
X150848538Y-72334090D01*
X150795675Y-72305834D01*
X150674726Y-72241185D01*
X150486133Y-72183976D01*
X150290000Y-72164659D01*
X150093866Y-72183976D01*
X149905273Y-72241185D01*
X149731462Y-72334089D01*
X149633958Y-72414110D01*
X149597068Y-72435008D01*
X149555293Y-72442257D01*
X147306000Y-72442257D01*
X147244000Y-72425644D01*
X147198613Y-72380257D01*
X147182000Y-72318257D01*
X147182000Y-72172757D01*
X144682000Y-72172757D01*
X144682000Y-72420581D01*
X144688402Y-72480134D01*
X144700925Y-72513709D01*
X144708743Y-72557042D01*
X144700925Y-72600374D01*
X144687909Y-72635270D01*
X144681500Y-72694887D01*
X144681500Y-73690626D01*
X144687909Y-73750242D01*
X144700658Y-73784424D01*
X144708476Y-73827756D01*
X144700659Y-73871087D01*
X144687909Y-73905272D01*
X144685370Y-73928890D01*
X144682847Y-73952361D01*
X144681500Y-73964887D01*
X144681500Y-74960626D01*
X144687909Y-75020242D01*
X144700658Y-75054424D01*
X144708476Y-75097756D01*
X144700659Y-75141087D01*
X144687909Y-75175272D01*
X144681500Y-75234887D01*
X144681500Y-76230626D01*
X144687909Y-76290242D01*
X144700658Y-76324424D01*
X144708476Y-76367756D01*
X144700659Y-76411087D01*
X144687909Y-76445272D01*
X144681500Y-76504888D01*
X144681500Y-77481886D01*
X144668434Y-77537291D01*
X144631988Y-77581020D01*
X144579844Y-77603856D01*
X144579249Y-77603965D01*
X144571855Y-77605090D01*
X144514400Y-77612067D01*
X144505626Y-77615395D01*
X144484019Y-77621418D01*
X144474805Y-77623106D01*
X144422025Y-77646859D01*
X144415111Y-77649722D01*
X144361016Y-77670238D01*
X144353297Y-77675566D01*
X144333770Y-77686579D01*
X144325216Y-77690429D01*
X144279648Y-77726128D01*
X144273620Y-77730564D01*
X144226013Y-77763425D01*
X144187656Y-77806721D01*
X144182523Y-77812173D01*
X143539423Y-78455274D01*
X143533970Y-78460407D01*
X143490669Y-78498768D01*
X143457800Y-78546387D01*
X143453363Y-78552417D01*
X143417673Y-78597973D01*
X143413824Y-78606524D01*
X143402807Y-78626058D01*
X143397481Y-78633775D01*
X143376965Y-78687868D01*
X143374102Y-78694782D01*
X143350349Y-78747562D01*
X143348661Y-78756776D01*
X143342638Y-78778383D01*
X143339310Y-78787157D01*
X143332333Y-78844612D01*
X143331207Y-78852011D01*
X143320780Y-78908912D01*
X143324274Y-78966664D01*
X143324500Y-78974151D01*
X143324500Y-82268837D01*
X143315061Y-82316290D01*
X143288181Y-82356518D01*
X141314018Y-84330681D01*
X141273790Y-84357561D01*
X141226337Y-84367000D01*
X136126007Y-84367000D01*
X136087689Y-84360931D01*
X136053122Y-84343318D01*
X135932730Y-84255848D01*
X135759802Y-84178855D01*
X135574648Y-84139500D01*
X135574646Y-84139500D01*
X135385354Y-84139500D01*
X135385352Y-84139500D01*
X135200197Y-84178855D01*
X135027269Y-84255848D01*
X134874129Y-84367110D01*
X134747466Y-84507783D01*
X134652820Y-84671715D01*
X134594326Y-84851742D01*
X134579939Y-84988632D01*
X134574540Y-85040000D01*
X134587419Y-85162541D01*
X134575550Y-85229858D01*
X134529809Y-85280658D01*
X134464099Y-85299500D01*
X132462229Y-85299500D01*
X132414776Y-85290061D01*
X132374548Y-85263181D01*
X130786819Y-83675451D01*
X130759939Y-83635223D01*
X130750500Y-83587770D01*
X130750500Y-81292757D01*
X133332000Y-81292757D01*
X133332000Y-81540581D01*
X133338402Y-81600132D01*
X133388647Y-81734846D01*
X133474811Y-81849945D01*
X133589910Y-81936109D01*
X133724624Y-81986354D01*
X133784176Y-81992757D01*
X134032000Y-81992757D01*
X134032000Y-81292757D01*
X134532000Y-81292757D01*
X134532000Y-81992757D01*
X134779824Y-81992757D01*
X134839378Y-81986354D01*
X134938665Y-81949322D01*
X134981999Y-81941503D01*
X135025333Y-81949321D01*
X135124624Y-81986354D01*
X135184176Y-81992757D01*
X135432000Y-81992757D01*
X135432000Y-81292757D01*
X135932000Y-81292757D01*
X135932000Y-81992757D01*
X136179824Y-81992757D01*
X136239378Y-81986354D01*
X136338665Y-81949322D01*
X136381999Y-81941503D01*
X136425333Y-81949321D01*
X136524624Y-81986354D01*
X136584176Y-81992757D01*
X136832000Y-81992757D01*
X136832000Y-81292757D01*
X137332000Y-81292757D01*
X137332000Y-81992757D01*
X137579824Y-81992757D01*
X137639375Y-81986354D01*
X137774089Y-81936109D01*
X137889188Y-81849945D01*
X137975352Y-81734846D01*
X138025597Y-81600132D01*
X138032000Y-81540581D01*
X138032000Y-81292757D01*
X137332000Y-81292757D01*
X136832000Y-81292757D01*
X135932000Y-81292757D01*
X135432000Y-81292757D01*
X134532000Y-81292757D01*
X134032000Y-81292757D01*
X133332000Y-81292757D01*
X130750500Y-81292757D01*
X130750500Y-79892757D01*
X133332000Y-79892757D01*
X133332000Y-80140581D01*
X133338402Y-80200134D01*
X133375435Y-80299423D01*
X133383253Y-80342756D01*
X133375435Y-80386089D01*
X133338402Y-80485379D01*
X133332000Y-80544933D01*
X133332000Y-80792757D01*
X134032000Y-80792757D01*
X134032000Y-79892757D01*
X134532000Y-79892757D01*
X134532000Y-80792757D01*
X135432000Y-80792757D01*
X135432000Y-79892757D01*
X135932000Y-79892757D01*
X135932000Y-80792757D01*
X136832000Y-80792757D01*
X136832000Y-79892757D01*
X137332000Y-79892757D01*
X137332000Y-80792757D01*
X138032000Y-80792757D01*
X138032000Y-80544933D01*
X138025597Y-80485381D01*
X137988564Y-80386090D01*
X137980746Y-80342756D01*
X137988565Y-80299422D01*
X138025597Y-80200135D01*
X138032000Y-80140581D01*
X138032000Y-79892757D01*
X137332000Y-79892757D01*
X136832000Y-79892757D01*
X135932000Y-79892757D01*
X135432000Y-79892757D01*
X134532000Y-79892757D01*
X134032000Y-79892757D01*
X133332000Y-79892757D01*
X130750500Y-79892757D01*
X130750500Y-78492757D01*
X133332000Y-78492757D01*
X133332000Y-78740581D01*
X133338402Y-78800134D01*
X133375435Y-78899423D01*
X133383253Y-78942756D01*
X133375435Y-78986089D01*
X133338402Y-79085379D01*
X133332000Y-79144933D01*
X133332000Y-79392757D01*
X134032000Y-79392757D01*
X134032000Y-78492757D01*
X134532000Y-78492757D01*
X134532000Y-79392757D01*
X135432000Y-79392757D01*
X135432000Y-78492757D01*
X135932000Y-78492757D01*
X135932000Y-79392757D01*
X136832000Y-79392757D01*
X136832000Y-78492757D01*
X137332000Y-78492757D01*
X137332000Y-79392757D01*
X138032000Y-79392757D01*
X138032000Y-79144933D01*
X138025597Y-79085381D01*
X137988564Y-78986091D01*
X137980746Y-78942757D01*
X137988564Y-78899423D01*
X138025597Y-78800132D01*
X138032000Y-78740581D01*
X138032000Y-78492757D01*
X137332000Y-78492757D01*
X136832000Y-78492757D01*
X135932000Y-78492757D01*
X135432000Y-78492757D01*
X134532000Y-78492757D01*
X134032000Y-78492757D01*
X133332000Y-78492757D01*
X130750500Y-78492757D01*
X130750500Y-77992757D01*
X133332000Y-77992757D01*
X134032000Y-77992757D01*
X134032000Y-77292757D01*
X134532000Y-77292757D01*
X134532000Y-77992757D01*
X135432000Y-77992757D01*
X135432000Y-77292757D01*
X135932000Y-77292757D01*
X135932000Y-77992757D01*
X136832000Y-77992757D01*
X136832000Y-77292757D01*
X137332000Y-77292757D01*
X137332000Y-77992757D01*
X138032000Y-77992757D01*
X138032000Y-77744933D01*
X138025597Y-77685381D01*
X137975352Y-77550667D01*
X137889188Y-77435568D01*
X137774089Y-77349404D01*
X137639375Y-77299159D01*
X137579824Y-77292757D01*
X137332000Y-77292757D01*
X136832000Y-77292757D01*
X136584176Y-77292757D01*
X136524622Y-77299159D01*
X136425332Y-77336192D01*
X136381999Y-77344010D01*
X136338666Y-77336192D01*
X136239377Y-77299159D01*
X136179824Y-77292757D01*
X135932000Y-77292757D01*
X135432000Y-77292757D01*
X135184176Y-77292757D01*
X135124622Y-77299159D01*
X135025332Y-77336192D01*
X134981999Y-77344010D01*
X134938666Y-77336192D01*
X134839377Y-77299159D01*
X134779824Y-77292757D01*
X134532000Y-77292757D01*
X134032000Y-77292757D01*
X133784176Y-77292757D01*
X133724624Y-77299159D01*
X133589910Y-77349404D01*
X133474811Y-77435568D01*
X133388647Y-77550667D01*
X133338402Y-77685381D01*
X133332000Y-77744933D01*
X133332000Y-77992757D01*
X130750500Y-77992757D01*
X130750500Y-73663706D01*
X130751809Y-73645736D01*
X130752338Y-73642118D01*
X130755289Y-73621977D01*
X130750972Y-73572631D01*
X130750500Y-73561824D01*
X130750500Y-73556289D01*
X130746903Y-73525521D01*
X130746536Y-73521929D01*
X130744152Y-73494676D01*
X130739999Y-73447203D01*
X130739998Y-73447201D01*
X130739889Y-73445949D01*
X130735672Y-73426930D01*
X130709592Y-73355274D01*
X130708408Y-73351868D01*
X130693153Y-73305832D01*
X130684814Y-73280666D01*
X130684812Y-73280663D01*
X130684415Y-73279464D01*
X130675929Y-73261936D01*
X130675237Y-73260884D01*
X130675237Y-73260883D01*
X130634001Y-73198188D01*
X130632086Y-73195181D01*
X130613614Y-73165233D01*
X130592712Y-73131345D01*
X130592711Y-73131344D01*
X130592048Y-73130269D01*
X130579748Y-73115170D01*
X130524274Y-73062833D01*
X130521687Y-73060320D01*
X130168485Y-72707117D01*
X130156703Y-72693484D01*
X130142366Y-72674226D01*
X130104423Y-72642388D01*
X130096448Y-72635080D01*
X130092539Y-72631171D01*
X130092534Y-72631166D01*
X130068180Y-72611909D01*
X130065404Y-72609647D01*
X130007008Y-72560647D01*
X129990578Y-72550179D01*
X129921448Y-72517943D01*
X129918204Y-72516372D01*
X129850063Y-72482151D01*
X129831659Y-72475753D01*
X129792184Y-72467602D01*
X129780924Y-72465277D01*
X129730037Y-72441849D01*
X129694655Y-72398414D01*
X129682000Y-72343840D01*
X129682000Y-72172757D01*
X127266000Y-72172757D01*
X127204000Y-72156144D01*
X127158613Y-72110757D01*
X127151605Y-72084605D01*
X127142000Y-72075000D01*
X125461362Y-72075000D01*
X125413909Y-72065561D01*
X125390621Y-72050000D01*
X125099020Y-72050000D01*
X125099020Y-72899440D01*
X125307845Y-72899440D01*
X125373453Y-72918218D01*
X125419190Y-72968866D01*
X125431203Y-73036042D01*
X125424500Y-73101655D01*
X125424501Y-73654660D01*
X125423354Y-73654660D01*
X125419403Y-73694754D01*
X125395863Y-73738030D01*
X125374634Y-73763329D01*
X125367337Y-73771294D01*
X125363406Y-73775225D01*
X125344176Y-73799545D01*
X125341902Y-73802337D01*
X125292894Y-73860744D01*
X125282418Y-73877187D01*
X125250192Y-73946294D01*
X125248626Y-73949529D01*
X125247204Y-73952361D01*
X125210442Y-73996178D01*
X125157926Y-74018834D01*
X125100827Y-74015510D01*
X125051298Y-73986915D01*
X124999239Y-73937800D01*
X124996686Y-73935319D01*
X124172489Y-73111121D01*
X124142239Y-73061758D01*
X124137697Y-73004042D01*
X124159852Y-72950555D01*
X124203875Y-72912955D01*
X124260170Y-72899440D01*
X124599020Y-72899440D01*
X124599020Y-71674000D01*
X124615633Y-71612000D01*
X124661020Y-71566613D01*
X124723020Y-71550000D01*
X125912098Y-71550000D01*
X125959551Y-71559439D01*
X125982839Y-71575000D01*
X126150000Y-71575000D01*
X126150000Y-70875001D01*
X126101685Y-70875001D01*
X126002395Y-70885143D01*
X125954566Y-70900992D01*
X125903667Y-70906713D01*
X125854797Y-70891375D01*
X125836134Y-70875000D01*
X126650000Y-70875000D01*
X126650000Y-71575000D01*
X127291000Y-71575000D01*
X127353000Y-71591613D01*
X127398387Y-71637000D01*
X127405394Y-71663151D01*
X127415000Y-71672757D01*
X128182000Y-71672757D01*
X128182000Y-70972757D01*
X128682000Y-70972757D01*
X128682000Y-71672757D01*
X129682000Y-71672757D01*
X144682000Y-71672757D01*
X145682000Y-71672757D01*
X145682000Y-70972757D01*
X146182000Y-70972757D01*
X146182000Y-71672757D01*
X147182000Y-71672757D01*
X147182000Y-71424933D01*
X147175597Y-71365381D01*
X147125352Y-71230667D01*
X147039188Y-71115568D01*
X146924089Y-71029404D01*
X146789375Y-70979159D01*
X146729824Y-70972757D01*
X146182000Y-70972757D01*
X145682000Y-70972757D01*
X145134176Y-70972757D01*
X145074624Y-70979159D01*
X144939910Y-71029404D01*
X144824811Y-71115568D01*
X144738647Y-71230667D01*
X144688402Y-71365381D01*
X144682000Y-71424933D01*
X144682000Y-71672757D01*
X129682000Y-71672757D01*
X129682000Y-71424933D01*
X129675597Y-71365381D01*
X129625352Y-71230667D01*
X129539188Y-71115568D01*
X129424089Y-71029404D01*
X129289375Y-70979159D01*
X129229824Y-70972757D01*
X128682000Y-70972757D01*
X128182000Y-70972757D01*
X127634176Y-70972757D01*
X127574624Y-70979159D01*
X127439911Y-71029404D01*
X127334229Y-71108518D01*
X127280481Y-71131534D01*
X127222161Y-71127363D01*
X127172236Y-71096932D01*
X127102729Y-71027424D01*
X126958486Y-70938453D01*
X126797606Y-70885143D01*
X126698315Y-70875000D01*
X126650000Y-70875000D01*
X125836134Y-70875000D01*
X125816296Y-70857594D01*
X125805649Y-70843371D01*
X125802630Y-70841111D01*
X125764149Y-70793361D01*
X125753256Y-70733010D01*
X125772616Y-70674820D01*
X125817492Y-70633024D01*
X125876907Y-70617844D01*
X128125132Y-70617282D01*
X128152683Y-70622757D01*
X128182000Y-70622757D01*
X146182000Y-70622757D01*
X146195058Y-70622757D01*
X146195899Y-70622195D01*
X146243332Y-70612750D01*
X152541220Y-70611174D01*
X152546594Y-70611291D01*
G37*
%TD.AperFunction*%
%TA.AperFunction,Conductor*%
G36*
X121772052Y-70635032D02*
G01*
X121819104Y-70676079D01*
X121840188Y-70734851D01*
X121829958Y-70796447D01*
X121804367Y-70828509D01*
X121804678Y-70828742D01*
X121707744Y-70958228D01*
X121657449Y-71093076D01*
X121651040Y-71152690D01*
X121651040Y-72447309D01*
X121657449Y-72506924D01*
X121676142Y-72557042D01*
X121707744Y-72641771D01*
X121793994Y-72756986D01*
X121909209Y-72843236D01*
X121944321Y-72856331D01*
X121989017Y-72885181D01*
X122017511Y-72930105D01*
X122041379Y-72995684D01*
X122042562Y-72999087D01*
X122066560Y-73071504D01*
X122075055Y-73089052D01*
X122116959Y-73152764D01*
X122118880Y-73155779D01*
X122124712Y-73165234D01*
X122143173Y-73229838D01*
X122125226Y-73294587D01*
X122076141Y-73340470D01*
X122010330Y-73354015D01*
X122000002Y-73353276D01*
X121714589Y-73373690D01*
X121434995Y-73434511D01*
X121336935Y-73471085D01*
X121166893Y-73534508D01*
X121127001Y-73556291D01*
X120915754Y-73671640D01*
X120686689Y-73843116D01*
X120484359Y-74045446D01*
X120312883Y-74274511D01*
X120282813Y-74329581D01*
X120175751Y-74525650D01*
X120123212Y-74666513D01*
X120075754Y-74793752D01*
X120014933Y-75073346D01*
X119994519Y-75358756D01*
X120014933Y-75644167D01*
X120075754Y-75923761D01*
X120075756Y-75923766D01*
X120175751Y-76191864D01*
X120222049Y-76276652D01*
X120312883Y-76443002D01*
X120484359Y-76672067D01*
X120686689Y-76874397D01*
X120915754Y-77045873D01*
X120969874Y-77075425D01*
X121016634Y-77120224D01*
X121034434Y-77182486D01*
X121018420Y-77245232D01*
X120972957Y-77291348D01*
X120910447Y-77308257D01*
X119631572Y-77308257D01*
X119566405Y-77289752D01*
X119520688Y-77239761D01*
X119508066Y-77173205D01*
X119532305Y-77109946D01*
X119580269Y-77045874D01*
X119613796Y-77001088D01*
X119664091Y-76866240D01*
X119670500Y-76806630D01*
X119670499Y-75610885D01*
X119664091Y-75551274D01*
X119613796Y-75416426D01*
X119613795Y-75416425D01*
X119608182Y-75401375D01*
X119600364Y-75358042D01*
X119608182Y-75314708D01*
X119663597Y-75166132D01*
X119670000Y-75106581D01*
X119670000Y-74758757D01*
X117670000Y-74758757D01*
X117670000Y-75106581D01*
X117676402Y-75166132D01*
X117731818Y-75314708D01*
X117739636Y-75358042D01*
X117731818Y-75401376D01*
X117726205Y-75416424D01*
X117726204Y-75416426D01*
X117708650Y-75463491D01*
X117675909Y-75551273D01*
X117669500Y-75610887D01*
X117669500Y-76806626D01*
X117675909Y-76866241D01*
X117678953Y-76874401D01*
X117726204Y-77001088D01*
X117812454Y-77116303D01*
X117812455Y-77116303D01*
X117812456Y-77116305D01*
X117869811Y-77159242D01*
X117906384Y-77203004D01*
X117919500Y-77258508D01*
X117919500Y-77415051D01*
X117918191Y-77433021D01*
X117914711Y-77456780D01*
X117919028Y-77506126D01*
X117919500Y-77516933D01*
X117919500Y-77522465D01*
X117923098Y-77553253D01*
X117923464Y-77556838D01*
X117928936Y-77619387D01*
X117930110Y-77632798D01*
X117934329Y-77651828D01*
X117934758Y-77653008D01*
X117934759Y-77653012D01*
X117960413Y-77723499D01*
X117961582Y-77726864D01*
X117985580Y-77799281D01*
X117994075Y-77816829D01*
X118035979Y-77880541D01*
X118037889Y-77883539D01*
X118070538Y-77936469D01*
X118077952Y-77948489D01*
X118090253Y-77963587D01*
X118091168Y-77964450D01*
X118091170Y-77964453D01*
X118145708Y-78015907D01*
X118148295Y-78018420D01*
X118326571Y-78196696D01*
X118356821Y-78246059D01*
X118361363Y-78303775D01*
X118339208Y-78357262D01*
X118295185Y-78394862D01*
X118238890Y-78408377D01*
X118202616Y-78408377D01*
X118143064Y-78414779D01*
X118008350Y-78465024D01*
X117893251Y-78551188D01*
X117807087Y-78666287D01*
X117756842Y-78801001D01*
X117750440Y-78860553D01*
X117750440Y-79158757D01*
X119751200Y-79158757D01*
X119751200Y-78933257D01*
X119767813Y-78871257D01*
X119813200Y-78825870D01*
X119875200Y-78809257D01*
X123275500Y-78809257D01*
X123337500Y-78825870D01*
X123382887Y-78871257D01*
X123399500Y-78933257D01*
X123399500Y-78945051D01*
X123398191Y-78963021D01*
X123394711Y-78986780D01*
X123399028Y-79036126D01*
X123399500Y-79046933D01*
X123399500Y-79052465D01*
X123403098Y-79083253D01*
X123403464Y-79086838D01*
X123410110Y-79162798D01*
X123414329Y-79181828D01*
X123414758Y-79183008D01*
X123414759Y-79183012D01*
X123440413Y-79253499D01*
X123441582Y-79256864D01*
X123465580Y-79329281D01*
X123474075Y-79346829D01*
X123515979Y-79410541D01*
X123517889Y-79413539D01*
X123557288Y-79477413D01*
X123557952Y-79478489D01*
X123570253Y-79493588D01*
X123625711Y-79545910D01*
X123628298Y-79548423D01*
X123930452Y-79850576D01*
X123960702Y-79899939D01*
X123965244Y-79957655D01*
X123943089Y-80011142D01*
X123899066Y-80048742D01*
X123842771Y-80062257D01*
X122509706Y-80062257D01*
X122491736Y-80060948D01*
X122477853Y-80058914D01*
X122467977Y-80057468D01*
X122467976Y-80057468D01*
X122418631Y-80061785D01*
X122407824Y-80062257D01*
X122402291Y-80062257D01*
X122371501Y-80065855D01*
X122367917Y-80066221D01*
X122291961Y-80072866D01*
X122272921Y-80077087D01*
X122201232Y-80103178D01*
X122197831Y-80104360D01*
X122125474Y-80128337D01*
X122107927Y-80136832D01*
X122044221Y-80178732D01*
X122041181Y-80180669D01*
X121976280Y-80220701D01*
X121961165Y-80233013D01*
X121908832Y-80288482D01*
X121906320Y-80291068D01*
X120804359Y-81393029D01*
X120790726Y-81404811D01*
X120771467Y-81419148D01*
X120739633Y-81457086D01*
X120732341Y-81465046D01*
X120728408Y-81468979D01*
X120709176Y-81493302D01*
X120706902Y-81496094D01*
X120657894Y-81554501D01*
X120647418Y-81570944D01*
X120615192Y-81640051D01*
X120613622Y-81643293D01*
X120579393Y-81711449D01*
X120572996Y-81729855D01*
X120557573Y-81804545D01*
X120556793Y-81808062D01*
X120539208Y-81882262D01*
X120537229Y-81901635D01*
X120539448Y-81977888D01*
X120539500Y-81981494D01*
X120539500Y-83039239D01*
X120526901Y-83093699D01*
X120491663Y-83137092D01*
X120355206Y-83243300D01*
X120200816Y-83411013D01*
X120123809Y-83528882D01*
X120079018Y-83570116D01*
X120020000Y-83585061D01*
X119960982Y-83570116D01*
X119916191Y-83528882D01*
X119839183Y-83411012D01*
X119684794Y-83243301D01*
X119504906Y-83103288D01*
X119304426Y-82994794D01*
X119304425Y-82994793D01*
X119304424Y-82994793D01*
X119088825Y-82920776D01*
X118863977Y-82883257D01*
X118636023Y-82883257D01*
X118411174Y-82920776D01*
X118195575Y-82994793D01*
X118102916Y-83044938D01*
X117995094Y-83103288D01*
X117995092Y-83103289D01*
X117995091Y-83103290D01*
X117815209Y-83243298D01*
X117815206Y-83243300D01*
X117815206Y-83243301D01*
X117660817Y-83411012D01*
X117636961Y-83447527D01*
X117536136Y-83601850D01*
X117494297Y-83697234D01*
X117451953Y-83748937D01*
X117388924Y-83771154D01*
X117323518Y-83757431D01*
X117274734Y-83711755D01*
X117256742Y-83647397D01*
X117257740Y-79658757D01*
X117750440Y-79658757D01*
X117750440Y-79956961D01*
X117756842Y-80016512D01*
X117807087Y-80151226D01*
X117893251Y-80266325D01*
X118008350Y-80352489D01*
X118143064Y-80402734D01*
X118202616Y-80409137D01*
X118500820Y-80409137D01*
X118500820Y-79658757D01*
X119000820Y-79658757D01*
X119000820Y-80409137D01*
X119299024Y-80409137D01*
X119358575Y-80402734D01*
X119493289Y-80352489D01*
X119608388Y-80266325D01*
X119694552Y-80151226D01*
X119744797Y-80016512D01*
X119751200Y-79956961D01*
X119751200Y-79658757D01*
X119000820Y-79658757D01*
X118500820Y-79658757D01*
X117750440Y-79658757D01*
X117257740Y-79658757D01*
X117258863Y-75169837D01*
X117258983Y-75164465D01*
X117259036Y-75163256D01*
X117266024Y-75012096D01*
X117269197Y-74943469D01*
X117270123Y-74933042D01*
X117297237Y-74727089D01*
X117297263Y-74726899D01*
X117326061Y-74520454D01*
X117327797Y-74510822D01*
X117373211Y-74305975D01*
X117373476Y-74304819D01*
X117420636Y-74104306D01*
X117423062Y-74095477D01*
X117427742Y-74080635D01*
X117466295Y-74022939D01*
X117529815Y-73994990D01*
X117598405Y-74005547D01*
X117650581Y-74051304D01*
X117670000Y-74117929D01*
X117670000Y-74258757D01*
X118420000Y-74258757D01*
X118420000Y-73458757D01*
X118920000Y-73458757D01*
X118920000Y-74258757D01*
X119670000Y-74258757D01*
X119670000Y-73910933D01*
X119663597Y-73851381D01*
X119613352Y-73716667D01*
X119527188Y-73601568D01*
X119412089Y-73515404D01*
X119277375Y-73465159D01*
X119217824Y-73458757D01*
X118920000Y-73458757D01*
X118420000Y-73458757D01*
X118122176Y-73458757D01*
X118062624Y-73465159D01*
X117927908Y-73515405D01*
X117857423Y-73568170D01*
X117797558Y-73592059D01*
X117733790Y-73582671D01*
X117683349Y-73542545D01*
X117659863Y-73482520D01*
X117669678Y-73418819D01*
X117719567Y-73305832D01*
X117722979Y-73298730D01*
X117820556Y-73111285D01*
X117822190Y-73108254D01*
X117825866Y-73101655D01*
X117921499Y-72929960D01*
X117925204Y-72923746D01*
X118038837Y-72745378D01*
X118041076Y-72741988D01*
X118156338Y-72573727D01*
X118160216Y-72568381D01*
X118289064Y-72400464D01*
X118291929Y-72396875D01*
X118422162Y-72240041D01*
X118426071Y-72235560D01*
X118569110Y-72079460D01*
X118572752Y-72075656D01*
X118716904Y-71931504D01*
X118720732Y-71927841D01*
X118876774Y-71784854D01*
X118881269Y-71780933D01*
X119038112Y-71650692D01*
X119041721Y-71647811D01*
X119209644Y-71518959D01*
X119214965Y-71515099D01*
X119383225Y-71399838D01*
X119386583Y-71397619D01*
X119565005Y-71283952D01*
X119571199Y-71280258D01*
X119749569Y-71180907D01*
X119752413Y-71179375D01*
X119939977Y-71081735D01*
X119947105Y-71078311D01*
X120134090Y-70995750D01*
X120136544Y-70994699D01*
X120331622Y-70913896D01*
X120339554Y-70910927D01*
X120533989Y-70845759D01*
X120535772Y-70845179D01*
X120736702Y-70781826D01*
X120745549Y-70779395D01*
X120945983Y-70732254D01*
X120947312Y-70731949D01*
X121152059Y-70686559D01*
X121161701Y-70684820D01*
X121368195Y-70656016D01*
X121368476Y-70655977D01*
X121574287Y-70628882D01*
X121584688Y-70627958D01*
X121710966Y-70622119D01*
X121772052Y-70635032D01*
G37*
%TD.AperFunction*%
%TD*%
D41*
X117250043Y-105858757D02*
G75*
G03*
X122000000Y-110608757I4749957J-43D01*
G01*
X157250043Y-75358757D02*
G75*
G03*
X152500000Y-70608757I-4750043J-43D01*
G01*
X122000000Y-70608760D02*
G75*
G03*
X117250000Y-75358757I0J-4750000D01*
G01*
X152500000Y-110608757D02*
X122000000Y-110608757D01*
X117250000Y-105858757D02*
X117250000Y-75358757D01*
X152500000Y-110608800D02*
G75*
G03*
X157250000Y-105858756I0J4750000D01*
G01*
X122000000Y-70608757D02*
X152500000Y-70608757D01*
X157250000Y-75358757D02*
X157250000Y-105858757D01*
M02*
