%TF.GenerationSoftware,KiCad,Pcbnew,7.0.1*%
%TF.CreationDate,2023-08-30T02:16:58-03:00*%
%TF.ProjectId,PCB_FC_V2,5043425f-4643-45f5-9632-2e6b69636164,rev?*%
%TF.SameCoordinates,Original*%
%TF.FileFunction,Paste,Bot*%
%TF.FilePolarity,Positive*%
%FSLAX46Y46*%
G04 Gerber Fmt 4.6, Leading zero omitted, Abs format (unit mm)*
G04 Created by KiCad (PCBNEW 7.0.1) date 2023-08-30 02:16:58*
%MOMM*%
%LPD*%
G01*
G04 APERTURE LIST*
G04 Aperture macros list*
%AMRoundRect*
0 Rectangle with rounded corners*
0 $1 Rounding radius*
0 $2 $3 $4 $5 $6 $7 $8 $9 X,Y pos of 4 corners*
0 Add a 4 corners polygon primitive as box body*
4,1,4,$2,$3,$4,$5,$6,$7,$8,$9,$2,$3,0*
0 Add four circle primitives for the rounded corners*
1,1,$1+$1,$2,$3*
1,1,$1+$1,$4,$5*
1,1,$1+$1,$6,$7*
1,1,$1+$1,$8,$9*
0 Add four rect primitives between the rounded corners*
20,1,$1+$1,$2,$3,$4,$5,0*
20,1,$1+$1,$4,$5,$6,$7,0*
20,1,$1+$1,$6,$7,$8,$9,0*
20,1,$1+$1,$8,$9,$2,$3,0*%
G04 Aperture macros list end*
%ADD10R,0.900000X0.650000*%
%ADD11R,0.650000X0.900000*%
%ADD12R,1.100000X1.000000*%
%ADD13R,1.000000X1.100000*%
%ADD14RoundRect,0.060000X-0.615000X0.240000X-0.615000X-0.240000X0.615000X-0.240000X0.615000X0.240000X0*%
%ADD15R,0.350000X0.400000*%
%ADD16R,0.400000X0.350000*%
%TA.AperFunction,Profile*%
%ADD17C,0.100000*%
%TD*%
G04 APERTURE END LIST*
D10*
%TO.C,R5*%
X140400000Y-82325000D03*
X140400000Y-80875000D03*
%TD*%
D11*
%TO.C,R10*%
X141475000Y-95908757D03*
X140025000Y-95908757D03*
%TD*%
D12*
%TO.C,C10*%
X138100000Y-95908757D03*
X136400000Y-95908757D03*
%TD*%
D11*
%TO.C,R7*%
X141025000Y-77518757D03*
X139575000Y-77518757D03*
%TD*%
D12*
%TO.C,C9*%
X138100000Y-93968757D03*
X136400000Y-93968757D03*
%TD*%
D13*
%TO.C,C7*%
X133340000Y-93068757D03*
X133340000Y-91368757D03*
%TD*%
D11*
%TO.C,R4*%
X136925000Y-87200000D03*
X135475000Y-87200000D03*
%TD*%
D13*
%TO.C,C1*%
X140650000Y-74858757D03*
X140650000Y-73158757D03*
%TD*%
%TO.C,C3*%
X134250000Y-74858757D03*
X134250000Y-73158757D03*
%TD*%
D14*
%TO.C,U2*%
X138635000Y-73058757D03*
X138635000Y-74008757D03*
X138635000Y-74958757D03*
X136265000Y-74958757D03*
X136265000Y-73058757D03*
%TD*%
D13*
%TO.C,C8*%
X140850000Y-89158757D03*
X140850000Y-90858757D03*
%TD*%
D15*
%TO.C,U3*%
X136000000Y-88873757D03*
X136500000Y-88873757D03*
X137000000Y-88873757D03*
X137500000Y-88873757D03*
X138000000Y-88873757D03*
X138500000Y-88873757D03*
D16*
X138985000Y-89358757D03*
X138985000Y-89858757D03*
X138985000Y-90358757D03*
X138985000Y-90858757D03*
X138985000Y-91358757D03*
X138985000Y-91858757D03*
D15*
X138500000Y-92343757D03*
X138000000Y-92343757D03*
X137500000Y-92343757D03*
X137000000Y-92343757D03*
X136500000Y-92343757D03*
X136000000Y-92343757D03*
D16*
X135515000Y-91858757D03*
X135515000Y-91358757D03*
X135515000Y-90858757D03*
X135515000Y-90358757D03*
X135515000Y-89858757D03*
X135515000Y-89358757D03*
%TD*%
D11*
%TO.C,R6*%
X141025000Y-79168757D03*
X139575000Y-79168757D03*
%TD*%
D17*
X117250043Y-105858757D02*
G75*
G03*
X122000000Y-110608757I4749957J-43D01*
G01*
X157250043Y-75358757D02*
G75*
G03*
X152500000Y-70608757I-4750043J-43D01*
G01*
X122000000Y-70608760D02*
G75*
G03*
X117250000Y-75358757I0J-4750000D01*
G01*
X152500000Y-110608757D02*
X122000000Y-110608757D01*
X117250000Y-105858757D02*
X117250000Y-75358757D01*
X152500000Y-110608800D02*
G75*
G03*
X157250000Y-105858756I0J4750000D01*
G01*
X122000000Y-70608757D02*
X152500000Y-70608757D01*
X157250000Y-75358757D02*
X157250000Y-105858757D01*
M02*
