%TF.GenerationSoftware,KiCad,Pcbnew,7.0.1*%
%TF.CreationDate,2023-08-30T02:16:58-03:00*%
%TF.ProjectId,PCB_FC_V2,5043425f-4643-45f5-9632-2e6b69636164,rev?*%
%TF.SameCoordinates,Original*%
%TF.FileFunction,Legend,Top*%
%TF.FilePolarity,Positive*%
%FSLAX46Y46*%
G04 Gerber Fmt 4.6, Leading zero omitted, Abs format (unit mm)*
G04 Created by KiCad (PCBNEW 7.0.1) date 2023-08-30 02:16:58*
%MOMM*%
%LPD*%
G01*
G04 APERTURE LIST*
%ADD10C,0.160000*%
%ADD11C,0.150000*%
%ADD12C,0.175000*%
%ADD13C,0.149860*%
%ADD14C,0.200000*%
%ADD15C,0.127000*%
%ADD16C,1.750000*%
%ADD17C,2.999740*%
%TA.AperFunction,Profile*%
%ADD18C,0.100000*%
%TD*%
G04 APERTURE END LIST*
D10*
X136762380Y-94656075D02*
X136762380Y-95174170D01*
X136762380Y-95174170D02*
X136792857Y-95235122D01*
X136792857Y-95235122D02*
X136823333Y-95265599D01*
X136823333Y-95265599D02*
X136884285Y-95296075D01*
X136884285Y-95296075D02*
X137006190Y-95296075D01*
X137006190Y-95296075D02*
X137067142Y-95265599D01*
X137067142Y-95265599D02*
X137097619Y-95235122D01*
X137097619Y-95235122D02*
X137128095Y-95174170D01*
X137128095Y-95174170D02*
X137128095Y-94656075D01*
X137707142Y-94869408D02*
X137707142Y-95296075D01*
X137554761Y-94625599D02*
X137402380Y-95082741D01*
X137402380Y-95082741D02*
X137798571Y-95082741D01*
D11*
X125093333Y-74446076D02*
X124879999Y-74141314D01*
X124727618Y-74446076D02*
X124727618Y-73806076D01*
X124727618Y-73806076D02*
X124971428Y-73806076D01*
X124971428Y-73806076D02*
X125032380Y-73836552D01*
X125032380Y-73836552D02*
X125062857Y-73867028D01*
X125062857Y-73867028D02*
X125093333Y-73927980D01*
X125093333Y-73927980D02*
X125093333Y-74019409D01*
X125093333Y-74019409D02*
X125062857Y-74080361D01*
X125062857Y-74080361D02*
X125032380Y-74110838D01*
X125032380Y-74110838D02*
X124971428Y-74141314D01*
X124971428Y-74141314D02*
X124727618Y-74141314D01*
X125702857Y-74446076D02*
X125337142Y-74446076D01*
X125519999Y-74446076D02*
X125519999Y-73806076D01*
X125519999Y-73806076D02*
X125459047Y-73897504D01*
X125459047Y-73897504D02*
X125398095Y-73958457D01*
X125398095Y-73958457D02*
X125337142Y-73988933D01*
D12*
X123333333Y-87080999D02*
X123433333Y-87114332D01*
X123433333Y-87114332D02*
X123600000Y-87114332D01*
X123600000Y-87114332D02*
X123666666Y-87080999D01*
X123666666Y-87080999D02*
X123700000Y-87047665D01*
X123700000Y-87047665D02*
X123733333Y-86980999D01*
X123733333Y-86980999D02*
X123733333Y-86914332D01*
X123733333Y-86914332D02*
X123700000Y-86847665D01*
X123700000Y-86847665D02*
X123666666Y-86814332D01*
X123666666Y-86814332D02*
X123600000Y-86780999D01*
X123600000Y-86780999D02*
X123466666Y-86747665D01*
X123466666Y-86747665D02*
X123400000Y-86714332D01*
X123400000Y-86714332D02*
X123366666Y-86680999D01*
X123366666Y-86680999D02*
X123333333Y-86614332D01*
X123333333Y-86614332D02*
X123333333Y-86547665D01*
X123333333Y-86547665D02*
X123366666Y-86480999D01*
X123366666Y-86480999D02*
X123400000Y-86447665D01*
X123400000Y-86447665D02*
X123466666Y-86414332D01*
X123466666Y-86414332D02*
X123633333Y-86414332D01*
X123633333Y-86414332D02*
X123733333Y-86447665D01*
X124000000Y-86480999D02*
X124033333Y-86447665D01*
X124033333Y-86447665D02*
X124100000Y-86414332D01*
X124100000Y-86414332D02*
X124266667Y-86414332D01*
X124266667Y-86414332D02*
X124333333Y-86447665D01*
X124333333Y-86447665D02*
X124366667Y-86480999D01*
X124366667Y-86480999D02*
X124400000Y-86547665D01*
X124400000Y-86547665D02*
X124400000Y-86614332D01*
X124400000Y-86614332D02*
X124366667Y-86714332D01*
X124366667Y-86714332D02*
X123966667Y-87114332D01*
X123966667Y-87114332D02*
X124400000Y-87114332D01*
X123733333Y-94047665D02*
X123666666Y-94014332D01*
X123666666Y-94014332D02*
X123566666Y-94014332D01*
X123566666Y-94014332D02*
X123466666Y-94047665D01*
X123466666Y-94047665D02*
X123400000Y-94114332D01*
X123400000Y-94114332D02*
X123366666Y-94180999D01*
X123366666Y-94180999D02*
X123333333Y-94314332D01*
X123333333Y-94314332D02*
X123333333Y-94414332D01*
X123333333Y-94414332D02*
X123366666Y-94547665D01*
X123366666Y-94547665D02*
X123400000Y-94614332D01*
X123400000Y-94614332D02*
X123466666Y-94680999D01*
X123466666Y-94680999D02*
X123566666Y-94714332D01*
X123566666Y-94714332D02*
X123633333Y-94714332D01*
X123633333Y-94714332D02*
X123733333Y-94680999D01*
X123733333Y-94680999D02*
X123766666Y-94647665D01*
X123766666Y-94647665D02*
X123766666Y-94414332D01*
X123766666Y-94414332D02*
X123633333Y-94414332D01*
X124066666Y-94714332D02*
X124066666Y-94014332D01*
X124066666Y-94014332D02*
X124466666Y-94714332D01*
X124466666Y-94714332D02*
X124466666Y-94014332D01*
X124799999Y-94714332D02*
X124799999Y-94014332D01*
X124799999Y-94014332D02*
X124966666Y-94014332D01*
X124966666Y-94014332D02*
X125066666Y-94047665D01*
X125066666Y-94047665D02*
X125133333Y-94114332D01*
X125133333Y-94114332D02*
X125166666Y-94180999D01*
X125166666Y-94180999D02*
X125199999Y-94314332D01*
X125199999Y-94314332D02*
X125199999Y-94414332D01*
X125199999Y-94414332D02*
X125166666Y-94547665D01*
X125166666Y-94547665D02*
X125133333Y-94614332D01*
X125133333Y-94614332D02*
X125066666Y-94680999D01*
X125066666Y-94680999D02*
X124966666Y-94714332D01*
X124966666Y-94714332D02*
X124799999Y-94714332D01*
D11*
X135888571Y-96335122D02*
X135858095Y-96365599D01*
X135858095Y-96365599D02*
X135766666Y-96396075D01*
X135766666Y-96396075D02*
X135705714Y-96396075D01*
X135705714Y-96396075D02*
X135614285Y-96365599D01*
X135614285Y-96365599D02*
X135553333Y-96304646D01*
X135553333Y-96304646D02*
X135522856Y-96243694D01*
X135522856Y-96243694D02*
X135492380Y-96121789D01*
X135492380Y-96121789D02*
X135492380Y-96030360D01*
X135492380Y-96030360D02*
X135522856Y-95908456D01*
X135522856Y-95908456D02*
X135553333Y-95847503D01*
X135553333Y-95847503D02*
X135614285Y-95786551D01*
X135614285Y-95786551D02*
X135705714Y-95756075D01*
X135705714Y-95756075D02*
X135766666Y-95756075D01*
X135766666Y-95756075D02*
X135858095Y-95786551D01*
X135858095Y-95786551D02*
X135888571Y-95817027D01*
X136162856Y-96396075D02*
X136162856Y-95756075D01*
X136162856Y-96060837D02*
X136528571Y-96060837D01*
X136528571Y-96396075D02*
X136528571Y-95756075D01*
X136772380Y-95756075D02*
X137168571Y-95756075D01*
X137168571Y-95756075D02*
X136955237Y-95999884D01*
X136955237Y-95999884D02*
X137046666Y-95999884D01*
X137046666Y-95999884D02*
X137107618Y-96030360D01*
X137107618Y-96030360D02*
X137138094Y-96060837D01*
X137138094Y-96060837D02*
X137168571Y-96121789D01*
X137168571Y-96121789D02*
X137168571Y-96274170D01*
X137168571Y-96274170D02*
X137138094Y-96335122D01*
X137138094Y-96335122D02*
X137107618Y-96365599D01*
X137107618Y-96365599D02*
X137046666Y-96396075D01*
X137046666Y-96396075D02*
X136863809Y-96396075D01*
X136863809Y-96396075D02*
X136802856Y-96365599D01*
X136802856Y-96365599D02*
X136772380Y-96335122D01*
X137717142Y-95969408D02*
X137717142Y-96396075D01*
X137564761Y-95725599D02*
X137412380Y-96182741D01*
X137412380Y-96182741D02*
X137808571Y-96182741D01*
X138174285Y-95756075D02*
X138235238Y-95756075D01*
X138235238Y-95756075D02*
X138296190Y-95786551D01*
X138296190Y-95786551D02*
X138326666Y-95817027D01*
X138326666Y-95817027D02*
X138357142Y-95877979D01*
X138357142Y-95877979D02*
X138387619Y-95999884D01*
X138387619Y-95999884D02*
X138387619Y-96152265D01*
X138387619Y-96152265D02*
X138357142Y-96274170D01*
X138357142Y-96274170D02*
X138326666Y-96335122D01*
X138326666Y-96335122D02*
X138296190Y-96365599D01*
X138296190Y-96365599D02*
X138235238Y-96396075D01*
X138235238Y-96396075D02*
X138174285Y-96396075D01*
X138174285Y-96396075D02*
X138113333Y-96365599D01*
X138113333Y-96365599D02*
X138082857Y-96335122D01*
X138082857Y-96335122D02*
X138052380Y-96274170D01*
X138052380Y-96274170D02*
X138021904Y-96152265D01*
X138021904Y-96152265D02*
X138021904Y-95999884D01*
X138021904Y-95999884D02*
X138052380Y-95877979D01*
X138052380Y-95877979D02*
X138082857Y-95817027D01*
X138082857Y-95817027D02*
X138113333Y-95786551D01*
X138113333Y-95786551D02*
X138174285Y-95756075D01*
X139027619Y-96335122D02*
X138997143Y-96365599D01*
X138997143Y-96365599D02*
X138905714Y-96396075D01*
X138905714Y-96396075D02*
X138844762Y-96396075D01*
X138844762Y-96396075D02*
X138753333Y-96365599D01*
X138753333Y-96365599D02*
X138692381Y-96304646D01*
X138692381Y-96304646D02*
X138661904Y-96243694D01*
X138661904Y-96243694D02*
X138631428Y-96121789D01*
X138631428Y-96121789D02*
X138631428Y-96030360D01*
X138631428Y-96030360D02*
X138661904Y-95908456D01*
X138661904Y-95908456D02*
X138692381Y-95847503D01*
X138692381Y-95847503D02*
X138753333Y-95786551D01*
X138753333Y-95786551D02*
X138844762Y-95756075D01*
X138844762Y-95756075D02*
X138905714Y-95756075D01*
X138905714Y-95756075D02*
X138997143Y-95786551D01*
X138997143Y-95786551D02*
X139027619Y-95817027D01*
X121852380Y-81986437D02*
X122065714Y-81986437D01*
X122157142Y-82321675D02*
X121852380Y-82321675D01*
X121852380Y-82321675D02*
X121852380Y-81681675D01*
X121852380Y-81681675D02*
X122157142Y-81681675D01*
X122431428Y-82321675D02*
X122431428Y-81681675D01*
X122431428Y-81681675D02*
X122797143Y-82321675D01*
X122797143Y-82321675D02*
X122797143Y-81681675D01*
D12*
X123700000Y-96614332D02*
X123366666Y-96614332D01*
X123366666Y-96614332D02*
X123333333Y-96947665D01*
X123333333Y-96947665D02*
X123366666Y-96914332D01*
X123366666Y-96914332D02*
X123433333Y-96880999D01*
X123433333Y-96880999D02*
X123600000Y-96880999D01*
X123600000Y-96880999D02*
X123666666Y-96914332D01*
X123666666Y-96914332D02*
X123700000Y-96947665D01*
X123700000Y-96947665D02*
X123733333Y-97014332D01*
X123733333Y-97014332D02*
X123733333Y-97180999D01*
X123733333Y-97180999D02*
X123700000Y-97247665D01*
X123700000Y-97247665D02*
X123666666Y-97280999D01*
X123666666Y-97280999D02*
X123600000Y-97314332D01*
X123600000Y-97314332D02*
X123433333Y-97314332D01*
X123433333Y-97314332D02*
X123366666Y-97280999D01*
X123366666Y-97280999D02*
X123333333Y-97247665D01*
X123933333Y-96614332D02*
X124166667Y-97314332D01*
X124166667Y-97314332D02*
X124400000Y-96614332D01*
D13*
X123070142Y-73004606D02*
X122270042Y-73004606D01*
X122270042Y-73004606D02*
X122270042Y-72699806D01*
X122270042Y-72699806D02*
X122308142Y-72623606D01*
X122308142Y-72623606D02*
X122346242Y-72585506D01*
X122346242Y-72585506D02*
X122422442Y-72547406D01*
X122422442Y-72547406D02*
X122536742Y-72547406D01*
X122536742Y-72547406D02*
X122612942Y-72585506D01*
X122612942Y-72585506D02*
X122651042Y-72623606D01*
X122651042Y-72623606D02*
X122689142Y-72699806D01*
X122689142Y-72699806D02*
X122689142Y-73004606D01*
X122270042Y-72052106D02*
X122270042Y-71899706D01*
X122270042Y-71899706D02*
X122308142Y-71823506D01*
X122308142Y-71823506D02*
X122384342Y-71747306D01*
X122384342Y-71747306D02*
X122536742Y-71709206D01*
X122536742Y-71709206D02*
X122803442Y-71709206D01*
X122803442Y-71709206D02*
X122955842Y-71747306D01*
X122955842Y-71747306D02*
X123032042Y-71823506D01*
X123032042Y-71823506D02*
X123070142Y-71899706D01*
X123070142Y-71899706D02*
X123070142Y-72052106D01*
X123070142Y-72052106D02*
X123032042Y-72128306D01*
X123032042Y-72128306D02*
X122955842Y-72204506D01*
X122955842Y-72204506D02*
X122803442Y-72242606D01*
X122803442Y-72242606D02*
X122536742Y-72242606D01*
X122536742Y-72242606D02*
X122384342Y-72204506D01*
X122384342Y-72204506D02*
X122308142Y-72128306D01*
X122308142Y-72128306D02*
X122270042Y-72052106D01*
X122270042Y-71442506D02*
X123070142Y-71252006D01*
X123070142Y-71252006D02*
X122498642Y-71099606D01*
X122498642Y-71099606D02*
X123070142Y-70947206D01*
X123070142Y-70947206D02*
X122270042Y-70756706D01*
D11*
X143940147Y-92557027D02*
X143879195Y-92526551D01*
X143879195Y-92526551D02*
X143818242Y-92465599D01*
X143818242Y-92465599D02*
X143726814Y-92374170D01*
X143726814Y-92374170D02*
X143665861Y-92343694D01*
X143665861Y-92343694D02*
X143604909Y-92343694D01*
X143635385Y-92496075D02*
X143574433Y-92465599D01*
X143574433Y-92465599D02*
X143513480Y-92404646D01*
X143513480Y-92404646D02*
X143483004Y-92282741D01*
X143483004Y-92282741D02*
X143483004Y-92069408D01*
X143483004Y-92069408D02*
X143513480Y-91947503D01*
X143513480Y-91947503D02*
X143574433Y-91886551D01*
X143574433Y-91886551D02*
X143635385Y-91856075D01*
X143635385Y-91856075D02*
X143757290Y-91856075D01*
X143757290Y-91856075D02*
X143818242Y-91886551D01*
X143818242Y-91886551D02*
X143879195Y-91947503D01*
X143879195Y-91947503D02*
X143909671Y-92069408D01*
X143909671Y-92069408D02*
X143909671Y-92282741D01*
X143909671Y-92282741D02*
X143879195Y-92404646D01*
X143879195Y-92404646D02*
X143818242Y-92465599D01*
X143818242Y-92465599D02*
X143757290Y-92496075D01*
X143757290Y-92496075D02*
X143635385Y-92496075D01*
X144153480Y-91917027D02*
X144183956Y-91886551D01*
X144183956Y-91886551D02*
X144244909Y-91856075D01*
X144244909Y-91856075D02*
X144397290Y-91856075D01*
X144397290Y-91856075D02*
X144458242Y-91886551D01*
X144458242Y-91886551D02*
X144488718Y-91917027D01*
X144488718Y-91917027D02*
X144519195Y-91977979D01*
X144519195Y-91977979D02*
X144519195Y-92038932D01*
X144519195Y-92038932D02*
X144488718Y-92130360D01*
X144488718Y-92130360D02*
X144123004Y-92496075D01*
X144123004Y-92496075D02*
X144519195Y-92496075D01*
X118238571Y-73735123D02*
X118208095Y-73765600D01*
X118208095Y-73765600D02*
X118116666Y-73796076D01*
X118116666Y-73796076D02*
X118055714Y-73796076D01*
X118055714Y-73796076D02*
X117964285Y-73765600D01*
X117964285Y-73765600D02*
X117903333Y-73704647D01*
X117903333Y-73704647D02*
X117872856Y-73643695D01*
X117872856Y-73643695D02*
X117842380Y-73521790D01*
X117842380Y-73521790D02*
X117842380Y-73430361D01*
X117842380Y-73430361D02*
X117872856Y-73308457D01*
X117872856Y-73308457D02*
X117903333Y-73247504D01*
X117903333Y-73247504D02*
X117964285Y-73186552D01*
X117964285Y-73186552D02*
X118055714Y-73156076D01*
X118055714Y-73156076D02*
X118116666Y-73156076D01*
X118116666Y-73156076D02*
X118208095Y-73186552D01*
X118208095Y-73186552D02*
X118238571Y-73217028D01*
X118848095Y-73796076D02*
X118482380Y-73796076D01*
X118665237Y-73796076D02*
X118665237Y-73156076D01*
X118665237Y-73156076D02*
X118604285Y-73247504D01*
X118604285Y-73247504D02*
X118543333Y-73308457D01*
X118543333Y-73308457D02*
X118482380Y-73338933D01*
X119061428Y-73156076D02*
X119457619Y-73156076D01*
X119457619Y-73156076D02*
X119244285Y-73399885D01*
X119244285Y-73399885D02*
X119335714Y-73399885D01*
X119335714Y-73399885D02*
X119396666Y-73430361D01*
X119396666Y-73430361D02*
X119427142Y-73460838D01*
X119427142Y-73460838D02*
X119457619Y-73521790D01*
X119457619Y-73521790D02*
X119457619Y-73674171D01*
X119457619Y-73674171D02*
X119427142Y-73735123D01*
X119427142Y-73735123D02*
X119396666Y-73765600D01*
X119396666Y-73765600D02*
X119335714Y-73796076D01*
X119335714Y-73796076D02*
X119152857Y-73796076D01*
X119152857Y-73796076D02*
X119091904Y-73765600D01*
X119091904Y-73765600D02*
X119061428Y-73735123D01*
D12*
X123333333Y-92180999D02*
X123433333Y-92214332D01*
X123433333Y-92214332D02*
X123600000Y-92214332D01*
X123600000Y-92214332D02*
X123666666Y-92180999D01*
X123666666Y-92180999D02*
X123700000Y-92147665D01*
X123700000Y-92147665D02*
X123733333Y-92080999D01*
X123733333Y-92080999D02*
X123733333Y-92014332D01*
X123733333Y-92014332D02*
X123700000Y-91947665D01*
X123700000Y-91947665D02*
X123666666Y-91914332D01*
X123666666Y-91914332D02*
X123600000Y-91880999D01*
X123600000Y-91880999D02*
X123466666Y-91847665D01*
X123466666Y-91847665D02*
X123400000Y-91814332D01*
X123400000Y-91814332D02*
X123366666Y-91780999D01*
X123366666Y-91780999D02*
X123333333Y-91714332D01*
X123333333Y-91714332D02*
X123333333Y-91647665D01*
X123333333Y-91647665D02*
X123366666Y-91580999D01*
X123366666Y-91580999D02*
X123400000Y-91547665D01*
X123400000Y-91547665D02*
X123466666Y-91514332D01*
X123466666Y-91514332D02*
X123633333Y-91514332D01*
X123633333Y-91514332D02*
X123733333Y-91547665D01*
X124333333Y-91747665D02*
X124333333Y-92214332D01*
X124166667Y-91480999D02*
X124000000Y-91980999D01*
X124000000Y-91980999D02*
X124433333Y-91980999D01*
D11*
X128487647Y-92457027D02*
X128426695Y-92426551D01*
X128426695Y-92426551D02*
X128365742Y-92365599D01*
X128365742Y-92365599D02*
X128274314Y-92274170D01*
X128274314Y-92274170D02*
X128213361Y-92243694D01*
X128213361Y-92243694D02*
X128152409Y-92243694D01*
X128182885Y-92396075D02*
X128121933Y-92365599D01*
X128121933Y-92365599D02*
X128060980Y-92304646D01*
X128060980Y-92304646D02*
X128030504Y-92182741D01*
X128030504Y-92182741D02*
X128030504Y-91969408D01*
X128030504Y-91969408D02*
X128060980Y-91847503D01*
X128060980Y-91847503D02*
X128121933Y-91786551D01*
X128121933Y-91786551D02*
X128182885Y-91756075D01*
X128182885Y-91756075D02*
X128304790Y-91756075D01*
X128304790Y-91756075D02*
X128365742Y-91786551D01*
X128365742Y-91786551D02*
X128426695Y-91847503D01*
X128426695Y-91847503D02*
X128457171Y-91969408D01*
X128457171Y-91969408D02*
X128457171Y-92182741D01*
X128457171Y-92182741D02*
X128426695Y-92304646D01*
X128426695Y-92304646D02*
X128365742Y-92365599D01*
X128365742Y-92365599D02*
X128304790Y-92396075D01*
X128304790Y-92396075D02*
X128182885Y-92396075D01*
X129066695Y-92396075D02*
X128700980Y-92396075D01*
X128883837Y-92396075D02*
X128883837Y-91756075D01*
X128883837Y-91756075D02*
X128822885Y-91847503D01*
X128822885Y-91847503D02*
X128761933Y-91908456D01*
X128761933Y-91908456D02*
X128700980Y-91938932D01*
D12*
X118347666Y-95166665D02*
X118314333Y-95233332D01*
X118314333Y-95233332D02*
X118314333Y-95333332D01*
X118314333Y-95333332D02*
X118347666Y-95433332D01*
X118347666Y-95433332D02*
X118414333Y-95499999D01*
X118414333Y-95499999D02*
X118481000Y-95533332D01*
X118481000Y-95533332D02*
X118614333Y-95566665D01*
X118614333Y-95566665D02*
X118714333Y-95566665D01*
X118714333Y-95566665D02*
X118847666Y-95533332D01*
X118847666Y-95533332D02*
X118914333Y-95499999D01*
X118914333Y-95499999D02*
X118981000Y-95433332D01*
X118981000Y-95433332D02*
X119014333Y-95333332D01*
X119014333Y-95333332D02*
X119014333Y-95266665D01*
X119014333Y-95266665D02*
X118981000Y-95166665D01*
X118981000Y-95166665D02*
X118947666Y-95133332D01*
X118947666Y-95133332D02*
X118714333Y-95133332D01*
X118714333Y-95133332D02*
X118714333Y-95266665D01*
X119014333Y-94833332D02*
X118314333Y-94833332D01*
X118314333Y-94833332D02*
X119014333Y-94433332D01*
X119014333Y-94433332D02*
X118314333Y-94433332D01*
X119014333Y-94099999D02*
X118314333Y-94099999D01*
X118314333Y-94099999D02*
X118314333Y-93933332D01*
X118314333Y-93933332D02*
X118347666Y-93833332D01*
X118347666Y-93833332D02*
X118414333Y-93766666D01*
X118414333Y-93766666D02*
X118481000Y-93733332D01*
X118481000Y-93733332D02*
X118614333Y-93699999D01*
X118614333Y-93699999D02*
X118714333Y-93699999D01*
X118714333Y-93699999D02*
X118847666Y-93733332D01*
X118847666Y-93733332D02*
X118914333Y-93766666D01*
X118914333Y-93766666D02*
X118981000Y-93833332D01*
X118981000Y-93833332D02*
X119014333Y-93933332D01*
X119014333Y-93933332D02*
X119014333Y-94099999D01*
D14*
X131562952Y-91151047D02*
X131829618Y-91151047D01*
X131943904Y-91570095D02*
X131562952Y-91570095D01*
X131562952Y-91570095D02*
X131562952Y-90770095D01*
X131562952Y-90770095D02*
X131943904Y-90770095D01*
X132248666Y-91532000D02*
X132362952Y-91570095D01*
X132362952Y-91570095D02*
X132553428Y-91570095D01*
X132553428Y-91570095D02*
X132629619Y-91532000D01*
X132629619Y-91532000D02*
X132667714Y-91493904D01*
X132667714Y-91493904D02*
X132705809Y-91417714D01*
X132705809Y-91417714D02*
X132705809Y-91341523D01*
X132705809Y-91341523D02*
X132667714Y-91265333D01*
X132667714Y-91265333D02*
X132629619Y-91227238D01*
X132629619Y-91227238D02*
X132553428Y-91189142D01*
X132553428Y-91189142D02*
X132401047Y-91151047D01*
X132401047Y-91151047D02*
X132324857Y-91112952D01*
X132324857Y-91112952D02*
X132286762Y-91074857D01*
X132286762Y-91074857D02*
X132248666Y-90998666D01*
X132248666Y-90998666D02*
X132248666Y-90922476D01*
X132248666Y-90922476D02*
X132286762Y-90846285D01*
X132286762Y-90846285D02*
X132324857Y-90808190D01*
X132324857Y-90808190D02*
X132401047Y-90770095D01*
X132401047Y-90770095D02*
X132591524Y-90770095D01*
X132591524Y-90770095D02*
X132705809Y-90808190D01*
X133048667Y-91570095D02*
X133048667Y-90770095D01*
X133048667Y-90770095D02*
X133353429Y-90770095D01*
X133353429Y-90770095D02*
X133429619Y-90808190D01*
X133429619Y-90808190D02*
X133467714Y-90846285D01*
X133467714Y-90846285D02*
X133505810Y-90922476D01*
X133505810Y-90922476D02*
X133505810Y-91036761D01*
X133505810Y-91036761D02*
X133467714Y-91112952D01*
X133467714Y-91112952D02*
X133429619Y-91151047D01*
X133429619Y-91151047D02*
X133353429Y-91189142D01*
X133353429Y-91189142D02*
X133048667Y-91189142D01*
X133772476Y-90770095D02*
X134267714Y-90770095D01*
X134267714Y-90770095D02*
X134001048Y-91074857D01*
X134001048Y-91074857D02*
X134115333Y-91074857D01*
X134115333Y-91074857D02*
X134191524Y-91112952D01*
X134191524Y-91112952D02*
X134229619Y-91151047D01*
X134229619Y-91151047D02*
X134267714Y-91227238D01*
X134267714Y-91227238D02*
X134267714Y-91417714D01*
X134267714Y-91417714D02*
X134229619Y-91493904D01*
X134229619Y-91493904D02*
X134191524Y-91532000D01*
X134191524Y-91532000D02*
X134115333Y-91570095D01*
X134115333Y-91570095D02*
X133886762Y-91570095D01*
X133886762Y-91570095D02*
X133810571Y-91532000D01*
X133810571Y-91532000D02*
X133772476Y-91493904D01*
X134572476Y-90846285D02*
X134610572Y-90808190D01*
X134610572Y-90808190D02*
X134686762Y-90770095D01*
X134686762Y-90770095D02*
X134877238Y-90770095D01*
X134877238Y-90770095D02*
X134953429Y-90808190D01*
X134953429Y-90808190D02*
X134991524Y-90846285D01*
X134991524Y-90846285D02*
X135029619Y-90922476D01*
X135029619Y-90922476D02*
X135029619Y-90998666D01*
X135029619Y-90998666D02*
X134991524Y-91112952D01*
X134991524Y-91112952D02*
X134534381Y-91570095D01*
X134534381Y-91570095D02*
X135029619Y-91570095D01*
X135372477Y-91265333D02*
X135982001Y-91265333D01*
X136286762Y-90770095D02*
X136477238Y-91570095D01*
X136477238Y-91570095D02*
X136629619Y-90998666D01*
X136629619Y-90998666D02*
X136782000Y-91570095D01*
X136782000Y-91570095D02*
X136972477Y-90770095D01*
X137734382Y-91570095D02*
X137467715Y-91189142D01*
X137277239Y-91570095D02*
X137277239Y-90770095D01*
X137277239Y-90770095D02*
X137582001Y-90770095D01*
X137582001Y-90770095D02*
X137658191Y-90808190D01*
X137658191Y-90808190D02*
X137696286Y-90846285D01*
X137696286Y-90846285D02*
X137734382Y-90922476D01*
X137734382Y-90922476D02*
X137734382Y-91036761D01*
X137734382Y-91036761D02*
X137696286Y-91112952D01*
X137696286Y-91112952D02*
X137658191Y-91151047D01*
X137658191Y-91151047D02*
X137582001Y-91189142D01*
X137582001Y-91189142D02*
X137277239Y-91189142D01*
X138229620Y-90770095D02*
X138382001Y-90770095D01*
X138382001Y-90770095D02*
X138458191Y-90808190D01*
X138458191Y-90808190D02*
X138534382Y-90884380D01*
X138534382Y-90884380D02*
X138572477Y-91036761D01*
X138572477Y-91036761D02*
X138572477Y-91303428D01*
X138572477Y-91303428D02*
X138534382Y-91455809D01*
X138534382Y-91455809D02*
X138458191Y-91532000D01*
X138458191Y-91532000D02*
X138382001Y-91570095D01*
X138382001Y-91570095D02*
X138229620Y-91570095D01*
X138229620Y-91570095D02*
X138153429Y-91532000D01*
X138153429Y-91532000D02*
X138077239Y-91455809D01*
X138077239Y-91455809D02*
X138039143Y-91303428D01*
X138039143Y-91303428D02*
X138039143Y-91036761D01*
X138039143Y-91036761D02*
X138077239Y-90884380D01*
X138077239Y-90884380D02*
X138153429Y-90808190D01*
X138153429Y-90808190D02*
X138229620Y-90770095D01*
X139067715Y-90770095D02*
X139220096Y-90770095D01*
X139220096Y-90770095D02*
X139296286Y-90808190D01*
X139296286Y-90808190D02*
X139372477Y-90884380D01*
X139372477Y-90884380D02*
X139410572Y-91036761D01*
X139410572Y-91036761D02*
X139410572Y-91303428D01*
X139410572Y-91303428D02*
X139372477Y-91455809D01*
X139372477Y-91455809D02*
X139296286Y-91532000D01*
X139296286Y-91532000D02*
X139220096Y-91570095D01*
X139220096Y-91570095D02*
X139067715Y-91570095D01*
X139067715Y-91570095D02*
X138991524Y-91532000D01*
X138991524Y-91532000D02*
X138915334Y-91455809D01*
X138915334Y-91455809D02*
X138877238Y-91303428D01*
X138877238Y-91303428D02*
X138877238Y-91036761D01*
X138877238Y-91036761D02*
X138915334Y-90884380D01*
X138915334Y-90884380D02*
X138991524Y-90808190D01*
X138991524Y-90808190D02*
X139067715Y-90770095D01*
X139753429Y-91570095D02*
X139753429Y-90770095D01*
X139753429Y-90770095D02*
X140020095Y-91341523D01*
X140020095Y-91341523D02*
X140286762Y-90770095D01*
X140286762Y-90770095D02*
X140286762Y-91570095D01*
X140667715Y-91265333D02*
X141277239Y-91265333D01*
X141582000Y-90770095D02*
X142077238Y-90770095D01*
X142077238Y-90770095D02*
X141810572Y-91074857D01*
X141810572Y-91074857D02*
X141924857Y-91074857D01*
X141924857Y-91074857D02*
X142001048Y-91112952D01*
X142001048Y-91112952D02*
X142039143Y-91151047D01*
X142039143Y-91151047D02*
X142077238Y-91227238D01*
X142077238Y-91227238D02*
X142077238Y-91417714D01*
X142077238Y-91417714D02*
X142039143Y-91493904D01*
X142039143Y-91493904D02*
X142001048Y-91532000D01*
X142001048Y-91532000D02*
X141924857Y-91570095D01*
X141924857Y-91570095D02*
X141696286Y-91570095D01*
X141696286Y-91570095D02*
X141620095Y-91532000D01*
X141620095Y-91532000D02*
X141582000Y-91493904D01*
X142382000Y-90846285D02*
X142420096Y-90808190D01*
X142420096Y-90808190D02*
X142496286Y-90770095D01*
X142496286Y-90770095D02*
X142686762Y-90770095D01*
X142686762Y-90770095D02*
X142762953Y-90808190D01*
X142762953Y-90808190D02*
X142801048Y-90846285D01*
X142801048Y-90846285D02*
X142839143Y-90922476D01*
X142839143Y-90922476D02*
X142839143Y-90998666D01*
X142839143Y-90998666D02*
X142801048Y-91112952D01*
X142801048Y-91112952D02*
X142343905Y-91570095D01*
X142343905Y-91570095D02*
X142839143Y-91570095D01*
D11*
X127196076Y-77011428D02*
X126891314Y-77224762D01*
X127196076Y-77377143D02*
X126556076Y-77377143D01*
X126556076Y-77377143D02*
X126556076Y-77133333D01*
X126556076Y-77133333D02*
X126586552Y-77072381D01*
X126586552Y-77072381D02*
X126617028Y-77041904D01*
X126617028Y-77041904D02*
X126677980Y-77011428D01*
X126677980Y-77011428D02*
X126769409Y-77011428D01*
X126769409Y-77011428D02*
X126830361Y-77041904D01*
X126830361Y-77041904D02*
X126860838Y-77072381D01*
X126860838Y-77072381D02*
X126891314Y-77133333D01*
X126891314Y-77133333D02*
X126891314Y-77377143D01*
X127196076Y-76401904D02*
X127196076Y-76767619D01*
X127196076Y-76584762D02*
X126556076Y-76584762D01*
X126556076Y-76584762D02*
X126647504Y-76645714D01*
X126647504Y-76645714D02*
X126708457Y-76706666D01*
X126708457Y-76706666D02*
X126738933Y-76767619D01*
X126556076Y-76188571D02*
X126556076Y-75792380D01*
X126556076Y-75792380D02*
X126799885Y-76005714D01*
X126799885Y-76005714D02*
X126799885Y-75914285D01*
X126799885Y-75914285D02*
X126830361Y-75853333D01*
X126830361Y-75853333D02*
X126860838Y-75822857D01*
X126860838Y-75822857D02*
X126921790Y-75792380D01*
X126921790Y-75792380D02*
X127074171Y-75792380D01*
X127074171Y-75792380D02*
X127135123Y-75822857D01*
X127135123Y-75822857D02*
X127165600Y-75853333D01*
X127165600Y-75853333D02*
X127196076Y-75914285D01*
X127196076Y-75914285D02*
X127196076Y-76097142D01*
X127196076Y-76097142D02*
X127165600Y-76158095D01*
X127165600Y-76158095D02*
X127135123Y-76188571D01*
D10*
X135168571Y-104746075D02*
X135168571Y-104106075D01*
X135168571Y-104106075D02*
X135381905Y-104563218D01*
X135381905Y-104563218D02*
X135595238Y-104106075D01*
X135595238Y-104106075D02*
X135595238Y-104746075D01*
X135900000Y-104746075D02*
X135900000Y-104319408D01*
X135900000Y-104106075D02*
X135869524Y-104136551D01*
X135869524Y-104136551D02*
X135900000Y-104167027D01*
X135900000Y-104167027D02*
X135930477Y-104136551D01*
X135930477Y-104136551D02*
X135900000Y-104106075D01*
X135900000Y-104106075D02*
X135900000Y-104167027D01*
X136479048Y-104715599D02*
X136418096Y-104746075D01*
X136418096Y-104746075D02*
X136296191Y-104746075D01*
X136296191Y-104746075D02*
X136235239Y-104715599D01*
X136235239Y-104715599D02*
X136204762Y-104685122D01*
X136204762Y-104685122D02*
X136174286Y-104624170D01*
X136174286Y-104624170D02*
X136174286Y-104441313D01*
X136174286Y-104441313D02*
X136204762Y-104380360D01*
X136204762Y-104380360D02*
X136235239Y-104349884D01*
X136235239Y-104349884D02*
X136296191Y-104319408D01*
X136296191Y-104319408D02*
X136418096Y-104319408D01*
X136418096Y-104319408D02*
X136479048Y-104349884D01*
X136753333Y-104746075D02*
X136753333Y-104319408D01*
X136753333Y-104441313D02*
X136783810Y-104380360D01*
X136783810Y-104380360D02*
X136814286Y-104349884D01*
X136814286Y-104349884D02*
X136875238Y-104319408D01*
X136875238Y-104319408D02*
X136936191Y-104319408D01*
X137240952Y-104746075D02*
X137180000Y-104715599D01*
X137180000Y-104715599D02*
X137149523Y-104685122D01*
X137149523Y-104685122D02*
X137119047Y-104624170D01*
X137119047Y-104624170D02*
X137119047Y-104441313D01*
X137119047Y-104441313D02*
X137149523Y-104380360D01*
X137149523Y-104380360D02*
X137180000Y-104349884D01*
X137180000Y-104349884D02*
X137240952Y-104319408D01*
X137240952Y-104319408D02*
X137332381Y-104319408D01*
X137332381Y-104319408D02*
X137393333Y-104349884D01*
X137393333Y-104349884D02*
X137423809Y-104380360D01*
X137423809Y-104380360D02*
X137454285Y-104441313D01*
X137454285Y-104441313D02*
X137454285Y-104624170D01*
X137454285Y-104624170D02*
X137423809Y-104685122D01*
X137423809Y-104685122D02*
X137393333Y-104715599D01*
X137393333Y-104715599D02*
X137332381Y-104746075D01*
X137332381Y-104746075D02*
X137240952Y-104746075D01*
X138216190Y-104106075D02*
X138216190Y-104624170D01*
X138216190Y-104624170D02*
X138246667Y-104685122D01*
X138246667Y-104685122D02*
X138277143Y-104715599D01*
X138277143Y-104715599D02*
X138338095Y-104746075D01*
X138338095Y-104746075D02*
X138460000Y-104746075D01*
X138460000Y-104746075D02*
X138520952Y-104715599D01*
X138520952Y-104715599D02*
X138551429Y-104685122D01*
X138551429Y-104685122D02*
X138581905Y-104624170D01*
X138581905Y-104624170D02*
X138581905Y-104106075D01*
X138856190Y-104715599D02*
X138947619Y-104746075D01*
X138947619Y-104746075D02*
X139100000Y-104746075D01*
X139100000Y-104746075D02*
X139160952Y-104715599D01*
X139160952Y-104715599D02*
X139191428Y-104685122D01*
X139191428Y-104685122D02*
X139221905Y-104624170D01*
X139221905Y-104624170D02*
X139221905Y-104563218D01*
X139221905Y-104563218D02*
X139191428Y-104502265D01*
X139191428Y-104502265D02*
X139160952Y-104471789D01*
X139160952Y-104471789D02*
X139100000Y-104441313D01*
X139100000Y-104441313D02*
X138978095Y-104410837D01*
X138978095Y-104410837D02*
X138917143Y-104380360D01*
X138917143Y-104380360D02*
X138886666Y-104349884D01*
X138886666Y-104349884D02*
X138856190Y-104288932D01*
X138856190Y-104288932D02*
X138856190Y-104227979D01*
X138856190Y-104227979D02*
X138886666Y-104167027D01*
X138886666Y-104167027D02*
X138917143Y-104136551D01*
X138917143Y-104136551D02*
X138978095Y-104106075D01*
X138978095Y-104106075D02*
X139130476Y-104106075D01*
X139130476Y-104106075D02*
X139221905Y-104136551D01*
X139709524Y-104410837D02*
X139800952Y-104441313D01*
X139800952Y-104441313D02*
X139831429Y-104471789D01*
X139831429Y-104471789D02*
X139861905Y-104532741D01*
X139861905Y-104532741D02*
X139861905Y-104624170D01*
X139861905Y-104624170D02*
X139831429Y-104685122D01*
X139831429Y-104685122D02*
X139800952Y-104715599D01*
X139800952Y-104715599D02*
X139740000Y-104746075D01*
X139740000Y-104746075D02*
X139496190Y-104746075D01*
X139496190Y-104746075D02*
X139496190Y-104106075D01*
X139496190Y-104106075D02*
X139709524Y-104106075D01*
X139709524Y-104106075D02*
X139770476Y-104136551D01*
X139770476Y-104136551D02*
X139800952Y-104167027D01*
X139800952Y-104167027D02*
X139831429Y-104227979D01*
X139831429Y-104227979D02*
X139831429Y-104288932D01*
X139831429Y-104288932D02*
X139800952Y-104349884D01*
X139800952Y-104349884D02*
X139770476Y-104380360D01*
X139770476Y-104380360D02*
X139709524Y-104410837D01*
X139709524Y-104410837D02*
X139496190Y-104410837D01*
D11*
X149265714Y-97686437D02*
X149357142Y-97716913D01*
X149357142Y-97716913D02*
X149387619Y-97747389D01*
X149387619Y-97747389D02*
X149418095Y-97808341D01*
X149418095Y-97808341D02*
X149418095Y-97899770D01*
X149418095Y-97899770D02*
X149387619Y-97960722D01*
X149387619Y-97960722D02*
X149357142Y-97991199D01*
X149357142Y-97991199D02*
X149296190Y-98021675D01*
X149296190Y-98021675D02*
X149052380Y-98021675D01*
X149052380Y-98021675D02*
X149052380Y-97381675D01*
X149052380Y-97381675D02*
X149265714Y-97381675D01*
X149265714Y-97381675D02*
X149326666Y-97412151D01*
X149326666Y-97412151D02*
X149357142Y-97442627D01*
X149357142Y-97442627D02*
X149387619Y-97503579D01*
X149387619Y-97503579D02*
X149387619Y-97564532D01*
X149387619Y-97564532D02*
X149357142Y-97625484D01*
X149357142Y-97625484D02*
X149326666Y-97655960D01*
X149326666Y-97655960D02*
X149265714Y-97686437D01*
X149265714Y-97686437D02*
X149052380Y-97686437D01*
X149814285Y-97381675D02*
X149936190Y-97381675D01*
X149936190Y-97381675D02*
X149997142Y-97412151D01*
X149997142Y-97412151D02*
X150058095Y-97473103D01*
X150058095Y-97473103D02*
X150088571Y-97595008D01*
X150088571Y-97595008D02*
X150088571Y-97808341D01*
X150088571Y-97808341D02*
X150058095Y-97930246D01*
X150058095Y-97930246D02*
X149997142Y-97991199D01*
X149997142Y-97991199D02*
X149936190Y-98021675D01*
X149936190Y-98021675D02*
X149814285Y-98021675D01*
X149814285Y-98021675D02*
X149753333Y-97991199D01*
X149753333Y-97991199D02*
X149692380Y-97930246D01*
X149692380Y-97930246D02*
X149661904Y-97808341D01*
X149661904Y-97808341D02*
X149661904Y-97595008D01*
X149661904Y-97595008D02*
X149692380Y-97473103D01*
X149692380Y-97473103D02*
X149753333Y-97412151D01*
X149753333Y-97412151D02*
X149814285Y-97381675D01*
X150484761Y-97381675D02*
X150606666Y-97381675D01*
X150606666Y-97381675D02*
X150667618Y-97412151D01*
X150667618Y-97412151D02*
X150728571Y-97473103D01*
X150728571Y-97473103D02*
X150759047Y-97595008D01*
X150759047Y-97595008D02*
X150759047Y-97808341D01*
X150759047Y-97808341D02*
X150728571Y-97930246D01*
X150728571Y-97930246D02*
X150667618Y-97991199D01*
X150667618Y-97991199D02*
X150606666Y-98021675D01*
X150606666Y-98021675D02*
X150484761Y-98021675D01*
X150484761Y-98021675D02*
X150423809Y-97991199D01*
X150423809Y-97991199D02*
X150362856Y-97930246D01*
X150362856Y-97930246D02*
X150332380Y-97808341D01*
X150332380Y-97808341D02*
X150332380Y-97595008D01*
X150332380Y-97595008D02*
X150362856Y-97473103D01*
X150362856Y-97473103D02*
X150423809Y-97412151D01*
X150423809Y-97412151D02*
X150484761Y-97381675D01*
X150941904Y-97381675D02*
X151307618Y-97381675D01*
X151124761Y-98021675D02*
X151124761Y-97381675D01*
X132053923Y-92573333D02*
X132358685Y-92359999D01*
X132053923Y-92207618D02*
X132693923Y-92207618D01*
X132693923Y-92207618D02*
X132693923Y-92451428D01*
X132693923Y-92451428D02*
X132663447Y-92512380D01*
X132663447Y-92512380D02*
X132632971Y-92542857D01*
X132632971Y-92542857D02*
X132572019Y-92573333D01*
X132572019Y-92573333D02*
X132480590Y-92573333D01*
X132480590Y-92573333D02*
X132419638Y-92542857D01*
X132419638Y-92542857D02*
X132389161Y-92512380D01*
X132389161Y-92512380D02*
X132358685Y-92451428D01*
X132358685Y-92451428D02*
X132358685Y-92207618D01*
X132419638Y-92939047D02*
X132450114Y-92878095D01*
X132450114Y-92878095D02*
X132480590Y-92847618D01*
X132480590Y-92847618D02*
X132541542Y-92817142D01*
X132541542Y-92817142D02*
X132572019Y-92817142D01*
X132572019Y-92817142D02*
X132632971Y-92847618D01*
X132632971Y-92847618D02*
X132663447Y-92878095D01*
X132663447Y-92878095D02*
X132693923Y-92939047D01*
X132693923Y-92939047D02*
X132693923Y-93060952D01*
X132693923Y-93060952D02*
X132663447Y-93121904D01*
X132663447Y-93121904D02*
X132632971Y-93152380D01*
X132632971Y-93152380D02*
X132572019Y-93182857D01*
X132572019Y-93182857D02*
X132541542Y-93182857D01*
X132541542Y-93182857D02*
X132480590Y-93152380D01*
X132480590Y-93152380D02*
X132450114Y-93121904D01*
X132450114Y-93121904D02*
X132419638Y-93060952D01*
X132419638Y-93060952D02*
X132419638Y-92939047D01*
X132419638Y-92939047D02*
X132389161Y-92878095D01*
X132389161Y-92878095D02*
X132358685Y-92847618D01*
X132358685Y-92847618D02*
X132297733Y-92817142D01*
X132297733Y-92817142D02*
X132175828Y-92817142D01*
X132175828Y-92817142D02*
X132114876Y-92847618D01*
X132114876Y-92847618D02*
X132084400Y-92878095D01*
X132084400Y-92878095D02*
X132053923Y-92939047D01*
X132053923Y-92939047D02*
X132053923Y-93060952D01*
X132053923Y-93060952D02*
X132084400Y-93121904D01*
X132084400Y-93121904D02*
X132114876Y-93152380D01*
X132114876Y-93152380D02*
X132175828Y-93182857D01*
X132175828Y-93182857D02*
X132297733Y-93182857D01*
X132297733Y-93182857D02*
X132358685Y-93152380D01*
X132358685Y-93152380D02*
X132389161Y-93121904D01*
X132389161Y-93121904D02*
X132419638Y-93060952D01*
D12*
X149970095Y-91266851D02*
X149170095Y-91266851D01*
X149170095Y-91266851D02*
X149970095Y-90809708D01*
X149970095Y-90809708D02*
X149170095Y-90809708D01*
X149970095Y-90428756D02*
X149436761Y-90428756D01*
X149589142Y-90428756D02*
X149512952Y-90390661D01*
X149512952Y-90390661D02*
X149474857Y-90352566D01*
X149474857Y-90352566D02*
X149436761Y-90276375D01*
X149436761Y-90276375D02*
X149436761Y-90200185D01*
X149436761Y-90047804D02*
X149436761Y-89743042D01*
X149970095Y-89933518D02*
X149284380Y-89933518D01*
X149284380Y-89933518D02*
X149208190Y-89895423D01*
X149208190Y-89895423D02*
X149170095Y-89819233D01*
X149170095Y-89819233D02*
X149170095Y-89743042D01*
X149246285Y-89514471D02*
X149208190Y-89476375D01*
X149208190Y-89476375D02*
X149170095Y-89400185D01*
X149170095Y-89400185D02*
X149170095Y-89209709D01*
X149170095Y-89209709D02*
X149208190Y-89133518D01*
X149208190Y-89133518D02*
X149246285Y-89095423D01*
X149246285Y-89095423D02*
X149322476Y-89057328D01*
X149322476Y-89057328D02*
X149398666Y-89057328D01*
X149398666Y-89057328D02*
X149512952Y-89095423D01*
X149512952Y-89095423D02*
X149970095Y-89552566D01*
X149970095Y-89552566D02*
X149970095Y-89057328D01*
X149436761Y-88371613D02*
X149970095Y-88371613D01*
X149132000Y-88562089D02*
X149703428Y-88752566D01*
X149703428Y-88752566D02*
X149703428Y-88257327D01*
X149970095Y-87838280D02*
X149932000Y-87914470D01*
X149932000Y-87914470D02*
X149855809Y-87952565D01*
X149855809Y-87952565D02*
X149170095Y-87952565D01*
X149170095Y-87381136D02*
X149170095Y-87304946D01*
X149170095Y-87304946D02*
X149208190Y-87228755D01*
X149208190Y-87228755D02*
X149246285Y-87190660D01*
X149246285Y-87190660D02*
X149322476Y-87152565D01*
X149322476Y-87152565D02*
X149474857Y-87114470D01*
X149474857Y-87114470D02*
X149665333Y-87114470D01*
X149665333Y-87114470D02*
X149817714Y-87152565D01*
X149817714Y-87152565D02*
X149893904Y-87190660D01*
X149893904Y-87190660D02*
X149932000Y-87228755D01*
X149932000Y-87228755D02*
X149970095Y-87304946D01*
X149970095Y-87304946D02*
X149970095Y-87381136D01*
X149970095Y-87381136D02*
X149932000Y-87457327D01*
X149932000Y-87457327D02*
X149893904Y-87495422D01*
X149893904Y-87495422D02*
X149817714Y-87533517D01*
X149817714Y-87533517D02*
X149665333Y-87571613D01*
X149665333Y-87571613D02*
X149474857Y-87571613D01*
X149474857Y-87571613D02*
X149322476Y-87533517D01*
X149322476Y-87533517D02*
X149246285Y-87495422D01*
X149246285Y-87495422D02*
X149208190Y-87457327D01*
X149208190Y-87457327D02*
X149170095Y-87381136D01*
X149970095Y-86352565D02*
X149970095Y-86809708D01*
X149970095Y-86581136D02*
X149170095Y-86581136D01*
X149170095Y-86581136D02*
X149284380Y-86657327D01*
X149284380Y-86657327D02*
X149360571Y-86733517D01*
X149360571Y-86733517D02*
X149398666Y-86809708D01*
D11*
X149638571Y-104735122D02*
X149608095Y-104765599D01*
X149608095Y-104765599D02*
X149516666Y-104796075D01*
X149516666Y-104796075D02*
X149455714Y-104796075D01*
X149455714Y-104796075D02*
X149364285Y-104765599D01*
X149364285Y-104765599D02*
X149303333Y-104704646D01*
X149303333Y-104704646D02*
X149272856Y-104643694D01*
X149272856Y-104643694D02*
X149242380Y-104521789D01*
X149242380Y-104521789D02*
X149242380Y-104430360D01*
X149242380Y-104430360D02*
X149272856Y-104308456D01*
X149272856Y-104308456D02*
X149303333Y-104247503D01*
X149303333Y-104247503D02*
X149364285Y-104186551D01*
X149364285Y-104186551D02*
X149455714Y-104156075D01*
X149455714Y-104156075D02*
X149516666Y-104156075D01*
X149516666Y-104156075D02*
X149608095Y-104186551D01*
X149608095Y-104186551D02*
X149638571Y-104217027D01*
X150248095Y-104796075D02*
X149882380Y-104796075D01*
X150065237Y-104796075D02*
X150065237Y-104156075D01*
X150065237Y-104156075D02*
X150004285Y-104247503D01*
X150004285Y-104247503D02*
X149943333Y-104308456D01*
X149943333Y-104308456D02*
X149882380Y-104338932D01*
X150796666Y-104369408D02*
X150796666Y-104796075D01*
X150644285Y-104125599D02*
X150491904Y-104582741D01*
X150491904Y-104582741D02*
X150888095Y-104582741D01*
X130538571Y-107135122D02*
X130508095Y-107165599D01*
X130508095Y-107165599D02*
X130416666Y-107196075D01*
X130416666Y-107196075D02*
X130355714Y-107196075D01*
X130355714Y-107196075D02*
X130264285Y-107165599D01*
X130264285Y-107165599D02*
X130203333Y-107104646D01*
X130203333Y-107104646D02*
X130172856Y-107043694D01*
X130172856Y-107043694D02*
X130142380Y-106921789D01*
X130142380Y-106921789D02*
X130142380Y-106830360D01*
X130142380Y-106830360D02*
X130172856Y-106708456D01*
X130172856Y-106708456D02*
X130203333Y-106647503D01*
X130203333Y-106647503D02*
X130264285Y-106586551D01*
X130264285Y-106586551D02*
X130355714Y-106556075D01*
X130355714Y-106556075D02*
X130416666Y-106556075D01*
X130416666Y-106556075D02*
X130508095Y-106586551D01*
X130508095Y-106586551D02*
X130538571Y-106617027D01*
X131148095Y-107196075D02*
X130782380Y-107196075D01*
X130965237Y-107196075D02*
X130965237Y-106556075D01*
X130965237Y-106556075D02*
X130904285Y-106647503D01*
X130904285Y-106647503D02*
X130843333Y-106708456D01*
X130843333Y-106708456D02*
X130782380Y-106738932D01*
X131391904Y-106617027D02*
X131422380Y-106586551D01*
X131422380Y-106586551D02*
X131483333Y-106556075D01*
X131483333Y-106556075D02*
X131635714Y-106556075D01*
X131635714Y-106556075D02*
X131696666Y-106586551D01*
X131696666Y-106586551D02*
X131727142Y-106617027D01*
X131727142Y-106617027D02*
X131757619Y-106677979D01*
X131757619Y-106677979D02*
X131757619Y-106738932D01*
X131757619Y-106738932D02*
X131727142Y-106830360D01*
X131727142Y-106830360D02*
X131361428Y-107196075D01*
X131361428Y-107196075D02*
X131757619Y-107196075D01*
D12*
X123333333Y-89680999D02*
X123433333Y-89714332D01*
X123433333Y-89714332D02*
X123600000Y-89714332D01*
X123600000Y-89714332D02*
X123666666Y-89680999D01*
X123666666Y-89680999D02*
X123700000Y-89647665D01*
X123700000Y-89647665D02*
X123733333Y-89580999D01*
X123733333Y-89580999D02*
X123733333Y-89514332D01*
X123733333Y-89514332D02*
X123700000Y-89447665D01*
X123700000Y-89447665D02*
X123666666Y-89414332D01*
X123666666Y-89414332D02*
X123600000Y-89380999D01*
X123600000Y-89380999D02*
X123466666Y-89347665D01*
X123466666Y-89347665D02*
X123400000Y-89314332D01*
X123400000Y-89314332D02*
X123366666Y-89280999D01*
X123366666Y-89280999D02*
X123333333Y-89214332D01*
X123333333Y-89214332D02*
X123333333Y-89147665D01*
X123333333Y-89147665D02*
X123366666Y-89080999D01*
X123366666Y-89080999D02*
X123400000Y-89047665D01*
X123400000Y-89047665D02*
X123466666Y-89014332D01*
X123466666Y-89014332D02*
X123633333Y-89014332D01*
X123633333Y-89014332D02*
X123733333Y-89047665D01*
X123966667Y-89014332D02*
X124400000Y-89014332D01*
X124400000Y-89014332D02*
X124166667Y-89280999D01*
X124166667Y-89280999D02*
X124266667Y-89280999D01*
X124266667Y-89280999D02*
X124333333Y-89314332D01*
X124333333Y-89314332D02*
X124366667Y-89347665D01*
X124366667Y-89347665D02*
X124400000Y-89414332D01*
X124400000Y-89414332D02*
X124400000Y-89580999D01*
X124400000Y-89580999D02*
X124366667Y-89647665D01*
X124366667Y-89647665D02*
X124333333Y-89680999D01*
X124333333Y-89680999D02*
X124266667Y-89714332D01*
X124266667Y-89714332D02*
X124066667Y-89714332D01*
X124066667Y-89714332D02*
X124000000Y-89680999D01*
X124000000Y-89680999D02*
X123966667Y-89647665D01*
D11*
X130085123Y-100820185D02*
X130115600Y-100850661D01*
X130115600Y-100850661D02*
X130146076Y-100942090D01*
X130146076Y-100942090D02*
X130146076Y-101003042D01*
X130146076Y-101003042D02*
X130115600Y-101094471D01*
X130115600Y-101094471D02*
X130054647Y-101155423D01*
X130054647Y-101155423D02*
X129993695Y-101185900D01*
X129993695Y-101185900D02*
X129871790Y-101216376D01*
X129871790Y-101216376D02*
X129780361Y-101216376D01*
X129780361Y-101216376D02*
X129658457Y-101185900D01*
X129658457Y-101185900D02*
X129597504Y-101155423D01*
X129597504Y-101155423D02*
X129536552Y-101094471D01*
X129536552Y-101094471D02*
X129506076Y-101003042D01*
X129506076Y-101003042D02*
X129506076Y-100942090D01*
X129506076Y-100942090D02*
X129536552Y-100850661D01*
X129536552Y-100850661D02*
X129567028Y-100820185D01*
X130146076Y-100210661D02*
X130146076Y-100576376D01*
X130146076Y-100393519D02*
X129506076Y-100393519D01*
X129506076Y-100393519D02*
X129597504Y-100454471D01*
X129597504Y-100454471D02*
X129658457Y-100515423D01*
X129658457Y-100515423D02*
X129688933Y-100576376D01*
X130146076Y-99601137D02*
X130146076Y-99966852D01*
X130146076Y-99783995D02*
X129506076Y-99783995D01*
X129506076Y-99783995D02*
X129597504Y-99844947D01*
X129597504Y-99844947D02*
X129658457Y-99905899D01*
X129658457Y-99905899D02*
X129688933Y-99966852D01*
X147903923Y-93265449D02*
X148208685Y-93052115D01*
X147903923Y-92899734D02*
X148543923Y-92899734D01*
X148543923Y-92899734D02*
X148543923Y-93143544D01*
X148543923Y-93143544D02*
X148513447Y-93204496D01*
X148513447Y-93204496D02*
X148482971Y-93234973D01*
X148482971Y-93234973D02*
X148422019Y-93265449D01*
X148422019Y-93265449D02*
X148330590Y-93265449D01*
X148330590Y-93265449D02*
X148269638Y-93234973D01*
X148269638Y-93234973D02*
X148239161Y-93204496D01*
X148239161Y-93204496D02*
X148208685Y-93143544D01*
X148208685Y-93143544D02*
X148208685Y-92899734D01*
X147903923Y-93570211D02*
X147903923Y-93692115D01*
X147903923Y-93692115D02*
X147934400Y-93753068D01*
X147934400Y-93753068D02*
X147964876Y-93783544D01*
X147964876Y-93783544D02*
X148056304Y-93844496D01*
X148056304Y-93844496D02*
X148178209Y-93874973D01*
X148178209Y-93874973D02*
X148422019Y-93874973D01*
X148422019Y-93874973D02*
X148482971Y-93844496D01*
X148482971Y-93844496D02*
X148513447Y-93814020D01*
X148513447Y-93814020D02*
X148543923Y-93753068D01*
X148543923Y-93753068D02*
X148543923Y-93631163D01*
X148543923Y-93631163D02*
X148513447Y-93570211D01*
X148513447Y-93570211D02*
X148482971Y-93539734D01*
X148482971Y-93539734D02*
X148422019Y-93509258D01*
X148422019Y-93509258D02*
X148269638Y-93509258D01*
X148269638Y-93509258D02*
X148208685Y-93539734D01*
X148208685Y-93539734D02*
X148178209Y-93570211D01*
X148178209Y-93570211D02*
X148147733Y-93631163D01*
X148147733Y-93631163D02*
X148147733Y-93753068D01*
X148147733Y-93753068D02*
X148178209Y-93814020D01*
X148178209Y-93814020D02*
X148208685Y-93844496D01*
X148208685Y-93844496D02*
X148269638Y-93874973D01*
D12*
X123333333Y-84580999D02*
X123433333Y-84614332D01*
X123433333Y-84614332D02*
X123600000Y-84614332D01*
X123600000Y-84614332D02*
X123666666Y-84580999D01*
X123666666Y-84580999D02*
X123700000Y-84547665D01*
X123700000Y-84547665D02*
X123733333Y-84480999D01*
X123733333Y-84480999D02*
X123733333Y-84414332D01*
X123733333Y-84414332D02*
X123700000Y-84347665D01*
X123700000Y-84347665D02*
X123666666Y-84314332D01*
X123666666Y-84314332D02*
X123600000Y-84280999D01*
X123600000Y-84280999D02*
X123466666Y-84247665D01*
X123466666Y-84247665D02*
X123400000Y-84214332D01*
X123400000Y-84214332D02*
X123366666Y-84180999D01*
X123366666Y-84180999D02*
X123333333Y-84114332D01*
X123333333Y-84114332D02*
X123333333Y-84047665D01*
X123333333Y-84047665D02*
X123366666Y-83980999D01*
X123366666Y-83980999D02*
X123400000Y-83947665D01*
X123400000Y-83947665D02*
X123466666Y-83914332D01*
X123466666Y-83914332D02*
X123633333Y-83914332D01*
X123633333Y-83914332D02*
X123733333Y-83947665D01*
X124400000Y-84614332D02*
X124000000Y-84614332D01*
X124200000Y-84614332D02*
X124200000Y-83914332D01*
X124200000Y-83914332D02*
X124133333Y-84014332D01*
X124133333Y-84014332D02*
X124066667Y-84080999D01*
X124066667Y-84080999D02*
X124000000Y-84114332D01*
D11*
%TO.C,C2*%
X125485123Y-72706666D02*
X125515600Y-72737142D01*
X125515600Y-72737142D02*
X125546076Y-72828571D01*
X125546076Y-72828571D02*
X125546076Y-72889523D01*
X125546076Y-72889523D02*
X125515600Y-72980952D01*
X125515600Y-72980952D02*
X125454647Y-73041904D01*
X125454647Y-73041904D02*
X125393695Y-73072381D01*
X125393695Y-73072381D02*
X125271790Y-73102857D01*
X125271790Y-73102857D02*
X125180361Y-73102857D01*
X125180361Y-73102857D02*
X125058457Y-73072381D01*
X125058457Y-73072381D02*
X124997504Y-73041904D01*
X124997504Y-73041904D02*
X124936552Y-72980952D01*
X124936552Y-72980952D02*
X124906076Y-72889523D01*
X124906076Y-72889523D02*
X124906076Y-72828571D01*
X124906076Y-72828571D02*
X124936552Y-72737142D01*
X124936552Y-72737142D02*
X124967028Y-72706666D01*
X124967028Y-72462857D02*
X124936552Y-72432381D01*
X124936552Y-72432381D02*
X124906076Y-72371428D01*
X124906076Y-72371428D02*
X124906076Y-72219047D01*
X124906076Y-72219047D02*
X124936552Y-72158095D01*
X124936552Y-72158095D02*
X124967028Y-72127619D01*
X124967028Y-72127619D02*
X125027980Y-72097142D01*
X125027980Y-72097142D02*
X125088933Y-72097142D01*
X125088933Y-72097142D02*
X125180361Y-72127619D01*
X125180361Y-72127619D02*
X125546076Y-72493333D01*
X125546076Y-72493333D02*
X125546076Y-72097142D01*
%TO.C,D2*%
X126996076Y-100561138D02*
X126356076Y-100561138D01*
X126356076Y-100561138D02*
X126356076Y-100408757D01*
X126356076Y-100408757D02*
X126386552Y-100317328D01*
X126386552Y-100317328D02*
X126447504Y-100256376D01*
X126447504Y-100256376D02*
X126508457Y-100225899D01*
X126508457Y-100225899D02*
X126630361Y-100195423D01*
X126630361Y-100195423D02*
X126721790Y-100195423D01*
X126721790Y-100195423D02*
X126843695Y-100225899D01*
X126843695Y-100225899D02*
X126904647Y-100256376D01*
X126904647Y-100256376D02*
X126965600Y-100317328D01*
X126965600Y-100317328D02*
X126996076Y-100408757D01*
X126996076Y-100408757D02*
X126996076Y-100561138D01*
X126417028Y-99951614D02*
X126386552Y-99921138D01*
X126386552Y-99921138D02*
X126356076Y-99860185D01*
X126356076Y-99860185D02*
X126356076Y-99707804D01*
X126356076Y-99707804D02*
X126386552Y-99646852D01*
X126386552Y-99646852D02*
X126417028Y-99616376D01*
X126417028Y-99616376D02*
X126477980Y-99585899D01*
X126477980Y-99585899D02*
X126538933Y-99585899D01*
X126538933Y-99585899D02*
X126630361Y-99616376D01*
X126630361Y-99616376D02*
X126996076Y-99982090D01*
X126996076Y-99982090D02*
X126996076Y-99585899D01*
%TO.C,LOGO1*%
G36*
X142650970Y-104609238D02*
G01*
X142919492Y-104609238D01*
X142919608Y-104740709D01*
X142921297Y-104820227D01*
X142925899Y-104922611D01*
X142932891Y-105040918D01*
X142941752Y-105168205D01*
X142951957Y-105297530D01*
X142962984Y-105421949D01*
X142974311Y-105534520D01*
X142985414Y-105628301D01*
X142987732Y-105645409D01*
X143058108Y-106061383D01*
X143150701Y-106458020D01*
X143265885Y-106836562D01*
X143404037Y-107198251D01*
X143560877Y-107535203D01*
X143598912Y-107609262D01*
X143632762Y-107673978D01*
X143659877Y-107724573D01*
X143677712Y-107756267D01*
X143683134Y-107764484D01*
X143696458Y-107758845D01*
X143721342Y-107733287D01*
X143752898Y-107692986D01*
X143759708Y-107683429D01*
X143824799Y-107590635D01*
X143777225Y-107548128D01*
X143747944Y-107520320D01*
X143731185Y-107501217D01*
X143729652Y-107497908D01*
X143743044Y-107493237D01*
X143776796Y-107490496D01*
X143794790Y-107490195D01*
X143836005Y-107488418D01*
X143857980Y-107477885D01*
X143871466Y-107450789D01*
X143878038Y-107429750D01*
X143893650Y-107393908D01*
X143909867Y-107378981D01*
X143921695Y-107387237D01*
X143924690Y-107408564D01*
X143927509Y-107424912D01*
X143937398Y-107426174D01*
X143956502Y-107410269D01*
X143986968Y-107375119D01*
X144030941Y-107318644D01*
X144066689Y-107270987D01*
X144185100Y-107111791D01*
X144148998Y-107084559D01*
X144112896Y-107057328D01*
X144172546Y-107052468D01*
X144214727Y-107044634D01*
X144244148Y-107024223D01*
X144268493Y-106991346D01*
X144304791Y-106935085D01*
X144984912Y-106935085D01*
X145124530Y-106935267D01*
X145254496Y-106935786D01*
X145371829Y-106936606D01*
X145473543Y-106937688D01*
X145556657Y-106938997D01*
X145618186Y-106940495D01*
X145655148Y-106942144D01*
X145665033Y-106943588D01*
X145656731Y-106959683D01*
X145635874Y-106990031D01*
X145625745Y-107003600D01*
X145586457Y-107055109D01*
X145620743Y-107055109D01*
X145638841Y-107056929D01*
X145639117Y-107065550D01*
X145619445Y-107085711D01*
X145598852Y-107103869D01*
X145565728Y-107134735D01*
X145552091Y-107156901D01*
X145553695Y-107180027D01*
X145558845Y-107194863D01*
X145573998Y-107242111D01*
X145573071Y-107264639D01*
X145555349Y-107263500D01*
X145525549Y-107243951D01*
X145476083Y-107206221D01*
X145375520Y-107340480D01*
X145335257Y-107394882D01*
X145302672Y-107440150D01*
X145281408Y-107471135D01*
X145274956Y-107482466D01*
X145287721Y-107488744D01*
X145308713Y-107490819D01*
X145326888Y-107492947D01*
X145327342Y-107501710D01*
X145308030Y-107522139D01*
X145288903Y-107539579D01*
X145257076Y-107569760D01*
X145243844Y-107592324D01*
X145245380Y-107619600D01*
X145254194Y-107651476D01*
X145263970Y-107689647D01*
X145266883Y-107712423D01*
X145265501Y-107715239D01*
X145249988Y-107706965D01*
X145220140Y-107686222D01*
X145207544Y-107676792D01*
X145157138Y-107638345D01*
X145051653Y-107778062D01*
X145006939Y-107838133D01*
X144978818Y-107878771D01*
X144965200Y-107904024D01*
X144963997Y-107917939D01*
X144973117Y-107924564D01*
X144975639Y-107925280D01*
X144990993Y-107931947D01*
X144987960Y-107943523D01*
X144963944Y-107965456D01*
X144951852Y-107975194D01*
X144915482Y-108011326D01*
X144905438Y-108040063D01*
X144906026Y-108042707D01*
X144914979Y-108075711D01*
X144923967Y-108111720D01*
X144934473Y-108155633D01*
X144888606Y-108122973D01*
X144855308Y-108101596D01*
X144831888Y-108090677D01*
X144829388Y-108090313D01*
X144815556Y-108101729D01*
X144788719Y-108132566D01*
X144753139Y-108177706D01*
X144724134Y-108216694D01*
X144681510Y-108276933D01*
X144657151Y-108317531D01*
X144650671Y-108342355D01*
X144661687Y-108355271D01*
X144689815Y-108360144D01*
X144709821Y-108360769D01*
X144727394Y-108363008D01*
X144725920Y-108372290D01*
X144703326Y-108393449D01*
X144691599Y-108403267D01*
X144660553Y-108430989D01*
X144648958Y-108452558D01*
X144652719Y-108480423D01*
X144659338Y-108501388D01*
X144670755Y-108545318D01*
X144666409Y-108564232D01*
X144644745Y-108559540D01*
X144615700Y-108541024D01*
X144575116Y-108520000D01*
X144542336Y-108517098D01*
X144542003Y-108517201D01*
X144511098Y-108535495D01*
X144471268Y-108569785D01*
X144431039Y-108611659D01*
X144398933Y-108652703D01*
X144390336Y-108666891D01*
X144380560Y-108691124D01*
X144383682Y-108713289D01*
X144402544Y-108743215D01*
X144418345Y-108763625D01*
X144472089Y-108825261D01*
X144546111Y-108901046D01*
X144636442Y-108987454D01*
X144739115Y-109080957D01*
X144850161Y-109178027D01*
X144965612Y-109275137D01*
X145081500Y-109368760D01*
X145193856Y-109455367D01*
X145210456Y-109467755D01*
X145302570Y-109536054D01*
X145372995Y-109587976D01*
X145424021Y-109625180D01*
X145457940Y-109649323D01*
X145477042Y-109662066D01*
X145483228Y-109665167D01*
X145496922Y-109657141D01*
X145530044Y-109634932D01*
X145577679Y-109601903D01*
X145634913Y-109561417D01*
X145637119Y-109559843D01*
X145975042Y-109301584D01*
X146287535Y-109027509D01*
X146574549Y-108737682D01*
X146836037Y-108432166D01*
X147071954Y-108111023D01*
X147282251Y-107774317D01*
X147466882Y-107422111D01*
X147625799Y-107054467D01*
X147734948Y-106747548D01*
X147815375Y-106480125D01*
X147882268Y-106215499D01*
X147936806Y-105947178D01*
X147980166Y-105668670D01*
X148013528Y-105373483D01*
X148035880Y-105089722D01*
X148041351Y-104994144D01*
X148045469Y-104899752D01*
X148047977Y-104814457D01*
X148048620Y-104746172D01*
X148047951Y-104715383D01*
X148043001Y-104603596D01*
X147847962Y-104456616D01*
X147781430Y-104407163D01*
X147722767Y-104364852D01*
X147676326Y-104332719D01*
X147646457Y-104313802D01*
X147637921Y-104310031D01*
X147625403Y-104321736D01*
X147597625Y-104354565D01*
X147557025Y-104405410D01*
X147506042Y-104471165D01*
X147447112Y-104548722D01*
X147382675Y-104634973D01*
X147377744Y-104641630D01*
X147305026Y-104740103D01*
X147248412Y-104817645D01*
X147206008Y-104877334D01*
X147175921Y-104922247D01*
X147156257Y-104955462D01*
X147145122Y-104980057D01*
X147140624Y-104999110D01*
X147140867Y-105015699D01*
X147142245Y-105024401D01*
X147147342Y-105057862D01*
X147142565Y-105067486D01*
X147124384Y-105058762D01*
X147121359Y-105056884D01*
X147106066Y-105048346D01*
X147092494Y-105046591D01*
X147077021Y-105054883D01*
X147056021Y-105076482D01*
X147025873Y-105114651D01*
X146982951Y-105172652D01*
X146964056Y-105198493D01*
X146925372Y-105252626D01*
X146903390Y-105287239D01*
X146896208Y-105306353D01*
X146901925Y-105313993D01*
X146909085Y-105314766D01*
X146932764Y-105305286D01*
X146950928Y-105273225D01*
X146957059Y-105254755D01*
X146970380Y-105217661D01*
X146982233Y-105196575D01*
X146985293Y-105194743D01*
X146995502Y-105207664D01*
X147008810Y-105240058D01*
X147013526Y-105254755D01*
X147026466Y-105291861D01*
X147042677Y-105309283D01*
X147072673Y-105314453D01*
X147098417Y-105314766D01*
X147138454Y-105317021D01*
X147162302Y-105322719D01*
X147165225Y-105326019D01*
X147153889Y-105340747D01*
X147125700Y-105363832D01*
X147114415Y-105371797D01*
X147063707Y-105406322D01*
X147083794Y-105473067D01*
X147094091Y-105512238D01*
X147097528Y-105536247D01*
X147096096Y-105539811D01*
X147080373Y-105531544D01*
X147050607Y-105510905D01*
X147039677Y-105502716D01*
X146991044Y-105465621D01*
X146936454Y-105502716D01*
X146901895Y-105525240D01*
X146878964Y-105538404D01*
X146875035Y-105539811D01*
X146874870Y-105527013D01*
X146882192Y-105494524D01*
X146888208Y-105473346D01*
X146899381Y-105432008D01*
X146899480Y-105408810D01*
X146886996Y-105393449D01*
X146875283Y-105385306D01*
X146858268Y-105376222D01*
X146843129Y-105377225D01*
X146824825Y-105392105D01*
X146798317Y-105424652D01*
X146767545Y-105466330D01*
X146692735Y-105568930D01*
X146012966Y-105569373D01*
X145847037Y-105569328D01*
X145708985Y-105568917D01*
X145596683Y-105568082D01*
X145508003Y-105566765D01*
X145440819Y-105564907D01*
X145393003Y-105562451D01*
X145362429Y-105559338D01*
X145346968Y-105555511D01*
X145344397Y-105551063D01*
X145357060Y-105532772D01*
X145384180Y-105495362D01*
X145422187Y-105443703D01*
X145467512Y-105382664D01*
X145484602Y-105359775D01*
X145558407Y-105260967D01*
X145615752Y-105183811D01*
X145658201Y-105125967D01*
X145687317Y-105085099D01*
X145704664Y-105058868D01*
X145711806Y-105044935D01*
X145710304Y-105040962D01*
X145701725Y-105044611D01*
X145690735Y-105051499D01*
X145650524Y-105077846D01*
X145671246Y-105008993D01*
X145691968Y-104940139D01*
X145637242Y-104895410D01*
X145582516Y-104850681D01*
X145653178Y-104850178D01*
X145696405Y-104848479D01*
X145719712Y-104839599D01*
X145733182Y-104816653D01*
X145741820Y-104789663D01*
X145755534Y-104752545D01*
X145768349Y-104731468D01*
X145771826Y-104729651D01*
X145783141Y-104742592D01*
X145797083Y-104775029D01*
X145801832Y-104789663D01*
X145820286Y-104832178D01*
X145841410Y-104848856D01*
X145843692Y-104848954D01*
X145855892Y-104837253D01*
X145883803Y-104804243D01*
X145925290Y-104752737D01*
X145978216Y-104685546D01*
X146040444Y-104605482D01*
X146109838Y-104515357D01*
X146184263Y-104417982D01*
X146261581Y-104316171D01*
X146339656Y-104212735D01*
X146416352Y-104110485D01*
X146489532Y-104012235D01*
X146557060Y-103920794D01*
X146616800Y-103838976D01*
X146666615Y-103769593D01*
X146699844Y-103722077D01*
X146699464Y-103714455D01*
X146676915Y-103723947D01*
X146634016Y-103749638D01*
X146597088Y-103773910D01*
X146375180Y-103908112D01*
X146152728Y-104012314D01*
X145929799Y-104086517D01*
X145706456Y-104130721D01*
X145482766Y-104144926D01*
X145258793Y-104129133D01*
X145034603Y-104083342D01*
X144810261Y-104007552D01*
X144585831Y-103901764D01*
X144361380Y-103765979D01*
X144360955Y-103765693D01*
X144295553Y-103722206D01*
X144249842Y-103693645D01*
X144218867Y-103677820D01*
X144197676Y-103672539D01*
X144181313Y-103675612D01*
X144170361Y-103681389D01*
X144151871Y-103694244D01*
X144111780Y-103723264D01*
X144052522Y-103766653D01*
X143976531Y-103822613D01*
X143886242Y-103889348D01*
X143784089Y-103965061D01*
X143672506Y-104047954D01*
X143553927Y-104136231D01*
X143527806Y-104155702D01*
X142919492Y-104609238D01*
X142650970Y-104609238D01*
X142647275Y-104467099D01*
X143400305Y-103904489D01*
X143533277Y-103805255D01*
X143659617Y-103711189D01*
X143777197Y-103623862D01*
X143883889Y-103544844D01*
X143977563Y-103475706D01*
X144056089Y-103418019D01*
X144117340Y-103373353D01*
X144159186Y-103343280D01*
X144179499Y-103329371D01*
X144180630Y-103328739D01*
X144196613Y-103327201D01*
X144221524Y-103336172D01*
X144258885Y-103357704D01*
X144312217Y-103393846D01*
X144385043Y-103446651D01*
X144392279Y-103451999D01*
X144600557Y-103593340D01*
X144804123Y-103705475D01*
X145003778Y-103788694D01*
X145200327Y-103843287D01*
X145394571Y-103869542D01*
X145551861Y-103870175D01*
X145750414Y-103844652D01*
X145953207Y-103789938D01*
X146159329Y-103706403D01*
X146367869Y-103594415D01*
X146577916Y-103454345D01*
X146579580Y-103453127D01*
X146650828Y-103401225D01*
X146702254Y-103365042D01*
X146738109Y-103342386D01*
X146762646Y-103331067D01*
X146780115Y-103328892D01*
X146794769Y-103333670D01*
X146802641Y-103338146D01*
X146820864Y-103350845D01*
X146860940Y-103379894D01*
X146920684Y-103423679D01*
X146997916Y-103480587D01*
X147090453Y-103549003D01*
X147196111Y-103627314D01*
X147312709Y-103713905D01*
X147438064Y-103807164D01*
X147569993Y-103905476D01*
X147580875Y-103913592D01*
X148322953Y-104467099D01*
X148314953Y-104819669D01*
X148310185Y-104990243D01*
X148303760Y-105139612D01*
X148294962Y-105276560D01*
X148283079Y-105409873D01*
X148267394Y-105548336D01*
X148247194Y-105700735D01*
X148238081Y-105764855D01*
X148163734Y-106186288D01*
X148064353Y-106594215D01*
X147940349Y-106987411D01*
X147792133Y-107364648D01*
X147620118Y-107724701D01*
X147518212Y-107910277D01*
X147301037Y-108257634D01*
X147058402Y-108589620D01*
X146791155Y-108905291D01*
X146500145Y-109203706D01*
X146186219Y-109483923D01*
X145897578Y-109710362D01*
X145840499Y-109751863D01*
X145775728Y-109797905D01*
X145707841Y-109845359D01*
X145641418Y-109891099D01*
X145581033Y-109931999D01*
X145531265Y-109964932D01*
X145496690Y-109986771D01*
X145481885Y-109994390D01*
X145481822Y-109994375D01*
X145468554Y-109985893D01*
X145435249Y-109963580D01*
X145386597Y-109930605D01*
X145327289Y-109890136D01*
X145312463Y-109879984D01*
X144958216Y-109621484D01*
X144630611Y-109349535D01*
X144329202Y-109063596D01*
X144053544Y-108763124D01*
X143803190Y-108447578D01*
X143577694Y-108116413D01*
X143376609Y-107769090D01*
X143199491Y-107405064D01*
X143118178Y-107212640D01*
X142990909Y-106866573D01*
X142884905Y-106513353D01*
X142799562Y-106149839D01*
X142734276Y-105772890D01*
X142688442Y-105379364D01*
X142661456Y-104966120D01*
X142656246Y-104812167D01*
X142650970Y-104609238D01*
G37*
G36*
X145498772Y-109133018D02*
G01*
X145512903Y-109170596D01*
X145522479Y-109196781D01*
X145541420Y-109209060D01*
X145583534Y-109215296D01*
X145600799Y-109215757D01*
X145672534Y-109215981D01*
X145615204Y-109264517D01*
X145581512Y-109295082D01*
X145567428Y-109317015D01*
X145568643Y-109339802D01*
X145573946Y-109355288D01*
X145589029Y-109402332D01*
X145587959Y-109424880D01*
X145569529Y-109424456D01*
X145535073Y-109404324D01*
X145500010Y-109381903D01*
X145477768Y-109375437D01*
X145456629Y-109383613D01*
X145441304Y-109393822D01*
X145398706Y-109422238D01*
X145375154Y-109434683D01*
X145365821Y-109433363D01*
X145364974Y-109428700D01*
X145369556Y-109406360D01*
X145380757Y-109369836D01*
X145382432Y-109364968D01*
X145391288Y-109334035D01*
X145388066Y-109311991D01*
X145368657Y-109288590D01*
X145342425Y-109265210D01*
X145284960Y-109215534D01*
X145355588Y-109215534D01*
X145399179Y-109213928D01*
X145424061Y-109204233D01*
X145441519Y-109179129D01*
X145453934Y-109151772D01*
X145481651Y-109088009D01*
X145498772Y-109133018D01*
G37*
G36*
X144914414Y-108668573D02*
G01*
X144928147Y-108706792D01*
X144929658Y-108712114D01*
X144948790Y-108780449D01*
X145018105Y-108781058D01*
X145087419Y-108781668D01*
X145036123Y-108825527D01*
X145004973Y-108853986D01*
X144992878Y-108876140D01*
X144995846Y-108904902D01*
X145003406Y-108931398D01*
X145013731Y-108970082D01*
X145017797Y-108994271D01*
X145017195Y-108997649D01*
X145003122Y-108992683D01*
X144973131Y-108975223D01*
X144956876Y-108964639D01*
X144901348Y-108927391D01*
X144854742Y-108960577D01*
X144818590Y-108982745D01*
X144801030Y-108982300D01*
X144799805Y-108957515D01*
X144807540Y-108924461D01*
X144814879Y-108890278D01*
X144809914Y-108866829D01*
X144788068Y-108842748D01*
X144767708Y-108825535D01*
X144713010Y-108780449D01*
X144782778Y-108780449D01*
X144825806Y-108778917D01*
X144849061Y-108769952D01*
X144862764Y-108747002D01*
X144870525Y-108724188D01*
X144887863Y-108676809D01*
X144901740Y-108658425D01*
X144914414Y-108668573D01*
G37*
G36*
X146053882Y-108697932D02*
G01*
X146068012Y-108735510D01*
X146077588Y-108761695D01*
X146096530Y-108773975D01*
X146138643Y-108780210D01*
X146155909Y-108780672D01*
X146227643Y-108780895D01*
X146170314Y-108829431D01*
X146136621Y-108859996D01*
X146122538Y-108881929D01*
X146123752Y-108904716D01*
X146129056Y-108920203D01*
X146144131Y-108967221D01*
X146143037Y-108989733D01*
X146124533Y-108989262D01*
X146089493Y-108968770D01*
X146053367Y-108946225D01*
X146030350Y-108940119D01*
X146009822Y-108948522D01*
X146003226Y-108953102D01*
X145954487Y-108985858D01*
X145927042Y-108998220D01*
X145920083Y-108993257D01*
X145924659Y-108971181D01*
X145935847Y-108934807D01*
X145937542Y-108929882D01*
X145946397Y-108898949D01*
X145943175Y-108876906D01*
X145923767Y-108853505D01*
X145897535Y-108830124D01*
X145840069Y-108780449D01*
X145910697Y-108780449D01*
X145954288Y-108778843D01*
X145979170Y-108769147D01*
X145996628Y-108744044D01*
X146009043Y-108716686D01*
X146036760Y-108652923D01*
X146053882Y-108697932D01*
G37*
G36*
X145500082Y-108614722D02*
G01*
X145515072Y-108653132D01*
X145527777Y-108685045D01*
X145544775Y-108700384D01*
X145576202Y-108705245D01*
X145602434Y-108705657D01*
X145672534Y-108705880D01*
X145615204Y-108754417D01*
X145581512Y-108784981D01*
X145567428Y-108806915D01*
X145568643Y-108829701D01*
X145573946Y-108845188D01*
X145589228Y-108893074D01*
X145588417Y-108916199D01*
X145570725Y-108915608D01*
X145537333Y-108893854D01*
X145503874Y-108869598D01*
X145482578Y-108862108D01*
X145461773Y-108869921D01*
X145443564Y-108882112D01*
X145399101Y-108912110D01*
X145374627Y-108925878D01*
X145366018Y-108925044D01*
X145369046Y-108911500D01*
X145378119Y-108880258D01*
X145387182Y-108838336D01*
X145387285Y-108837775D01*
X145389968Y-108801591D01*
X145376754Y-108777554D01*
X145350700Y-108757944D01*
X145315901Y-108731698D01*
X145308818Y-108715417D01*
X145330121Y-108707289D01*
X145370100Y-108705434D01*
X145411315Y-108703657D01*
X145433290Y-108693124D01*
X145446776Y-108666028D01*
X145453349Y-108644989D01*
X145468882Y-108605539D01*
X145484006Y-108595391D01*
X145500082Y-108614722D01*
G37*
G36*
X146413265Y-108253283D02*
G01*
X146427207Y-108285720D01*
X146431956Y-108300354D01*
X146444703Y-108337081D01*
X146460629Y-108354681D01*
X146490021Y-108360331D01*
X146518825Y-108360976D01*
X146587714Y-108361585D01*
X146535840Y-108405927D01*
X146504404Y-108434708D01*
X146491911Y-108457398D01*
X146494162Y-108487005D01*
X146500965Y-108513957D01*
X146510531Y-108553187D01*
X146514775Y-108577635D01*
X146514479Y-108581130D01*
X146501262Y-108575648D01*
X146471864Y-108557764D01*
X146455240Y-108546730D01*
X146420057Y-108524038D01*
X146397869Y-108517156D01*
X146376928Y-108524922D01*
X146358574Y-108537166D01*
X146316262Y-108565725D01*
X146294536Y-108575829D01*
X146289356Y-108566164D01*
X146296678Y-108535416D01*
X146301677Y-108518663D01*
X146322092Y-108450830D01*
X146267366Y-108406101D01*
X146212640Y-108361372D01*
X146283302Y-108360869D01*
X146326529Y-108359170D01*
X146349836Y-108350290D01*
X146363306Y-108327344D01*
X146371944Y-108300354D01*
X146385658Y-108263236D01*
X146398473Y-108242159D01*
X146401950Y-108240342D01*
X146413265Y-108253283D01*
G37*
G36*
X145192277Y-108230328D02*
G01*
X145209465Y-108271834D01*
X145226133Y-108292490D01*
X145252220Y-108299572D01*
X145287914Y-108300354D01*
X145356807Y-108300354D01*
X145302109Y-108345441D01*
X145269278Y-108374569D01*
X145255791Y-108396946D01*
X145257073Y-108423937D01*
X145262277Y-108444367D01*
X145271216Y-108487357D01*
X145265412Y-108504790D01*
X145242611Y-108498394D01*
X145215100Y-108480501D01*
X145168520Y-108447333D01*
X145109216Y-108486578D01*
X145074843Y-108507513D01*
X145053439Y-108517061D01*
X145049912Y-108516100D01*
X145053868Y-108496789D01*
X145063746Y-108460438D01*
X145067656Y-108447149D01*
X145077366Y-108409122D01*
X145073980Y-108385376D01*
X145053162Y-108363100D01*
X145034066Y-108347889D01*
X144982730Y-108307856D01*
X145049730Y-108300354D01*
X145091495Y-108293591D01*
X145115395Y-108279707D01*
X145132101Y-108250087D01*
X145141132Y-108226577D01*
X145165534Y-108160302D01*
X145192277Y-108230328D01*
G37*
G36*
X145794819Y-108208702D02*
G01*
X145808822Y-108245170D01*
X145830686Y-108283452D01*
X145861333Y-108297053D01*
X145906937Y-108303968D01*
X145933679Y-108309179D01*
X145954339Y-108315021D01*
X145956314Y-108323424D01*
X145937329Y-108339971D01*
X145914387Y-108356518D01*
X145876625Y-108389765D01*
X145867101Y-108415975D01*
X145868085Y-108419406D01*
X145877792Y-108451405D01*
X145885847Y-108485866D01*
X145894518Y-108528850D01*
X145834665Y-108494403D01*
X145774811Y-108459956D01*
X145728858Y-108492677D01*
X145689554Y-108518083D01*
X145670204Y-108523306D01*
X145668776Y-108508576D01*
X145671980Y-108499143D01*
X145689424Y-108443519D01*
X145689285Y-108404823D01*
X145670401Y-108374871D01*
X145652174Y-108359579D01*
X145620778Y-108331112D01*
X145617511Y-108312287D01*
X145642698Y-108302378D01*
X145678546Y-108300354D01*
X145715012Y-108298029D01*
X145735086Y-108285614D01*
X145748748Y-108254952D01*
X145753715Y-108238882D01*
X145767978Y-108200149D01*
X145780805Y-108189990D01*
X145794819Y-108208702D01*
G37*
G36*
X146136988Y-107833439D02*
G01*
X146152240Y-107864557D01*
X146153880Y-107869244D01*
X146167209Y-107899535D01*
X146187342Y-107915420D01*
X146224356Y-107923426D01*
X146240379Y-107925280D01*
X146310624Y-107932782D01*
X146257237Y-107975194D01*
X146220764Y-108011327D01*
X146210694Y-108040056D01*
X146211283Y-108042707D01*
X146220273Y-108075846D01*
X146229055Y-108111051D01*
X146239394Y-108154294D01*
X146182253Y-108115465D01*
X146144889Y-108094128D01*
X146116270Y-108084932D01*
X146108864Y-108085935D01*
X146086083Y-108100392D01*
X146052396Y-108123129D01*
X146049066Y-108125433D01*
X146005515Y-108155633D01*
X146016022Y-108111720D01*
X146026237Y-108070988D01*
X146033962Y-108042707D01*
X146026954Y-108014960D01*
X145993358Y-107979536D01*
X145988009Y-107975194D01*
X145934621Y-107932782D01*
X146004867Y-107925280D01*
X146048962Y-107918371D01*
X146073133Y-107905554D01*
X146087455Y-107880304D01*
X146091366Y-107869244D01*
X146106245Y-107836564D01*
X146121098Y-107820935D01*
X146122623Y-107820709D01*
X146136988Y-107833439D01*
G37*
G36*
X146785460Y-107818178D02*
G01*
X146798768Y-107850572D01*
X146803485Y-107865268D01*
X146816023Y-107901640D01*
X146831583Y-107919294D01*
X146860249Y-107925121D01*
X146892126Y-107925844D01*
X146962788Y-107926407D01*
X146908058Y-107974603D01*
X146853328Y-108022799D01*
X146874361Y-108081501D01*
X146886378Y-108118863D01*
X146891233Y-108141991D01*
X146890731Y-108144866D01*
X146876799Y-108140083D01*
X146846959Y-108122605D01*
X146830314Y-108111644D01*
X146795131Y-108088952D01*
X146772943Y-108082071D01*
X146752001Y-108089836D01*
X146733648Y-108102080D01*
X146689993Y-108131319D01*
X146665819Y-108144522D01*
X146656739Y-108143839D01*
X146656369Y-108139958D01*
X146661995Y-108118997D01*
X146674390Y-108082948D01*
X146677222Y-108075310D01*
X146687791Y-108042720D01*
X146685870Y-108020475D01*
X146667661Y-107997610D01*
X146642324Y-107974603D01*
X146587714Y-107926407D01*
X146658376Y-107925844D01*
X146701605Y-107924105D01*
X146724915Y-107915197D01*
X146738390Y-107892227D01*
X146747018Y-107865268D01*
X146760339Y-107828175D01*
X146772191Y-107807089D01*
X146775251Y-107805257D01*
X146785460Y-107818178D01*
G37*
G36*
X145479755Y-107788625D02*
G01*
X145493743Y-107825087D01*
X145512707Y-107860864D01*
X145542946Y-107875661D01*
X145553755Y-107877166D01*
X145603721Y-107884229D01*
X145625792Y-107894587D01*
X145622078Y-107911467D01*
X145594688Y-107938092D01*
X145593999Y-107938674D01*
X145563764Y-107966959D01*
X145553110Y-107990157D01*
X145557418Y-108020919D01*
X145560242Y-108031103D01*
X145571661Y-108075267D01*
X145570319Y-108094388D01*
X145552609Y-108091996D01*
X145517382Y-108073042D01*
X145459749Y-108039873D01*
X145413796Y-108072594D01*
X145375265Y-108097727D01*
X145356076Y-108103251D01*
X145353158Y-108089508D01*
X145355749Y-108079061D01*
X145370650Y-108024902D01*
X145374754Y-107990683D01*
X145366844Y-107967910D01*
X145345701Y-107948086D01*
X145335954Y-107940985D01*
X145304464Y-107912718D01*
X145301667Y-107893219D01*
X145327548Y-107882515D01*
X145363484Y-107880271D01*
X145399950Y-107877946D01*
X145420024Y-107865532D01*
X145433686Y-107834869D01*
X145438653Y-107818799D01*
X145452918Y-107780065D01*
X145465746Y-107769907D01*
X145479755Y-107788625D01*
G37*
G36*
X145806273Y-107405379D02*
G01*
X145816077Y-107426432D01*
X145834546Y-107464902D01*
X145853207Y-107483639D01*
X145883181Y-107489786D01*
X145915717Y-107490418D01*
X145987596Y-107490641D01*
X145929216Y-107540034D01*
X145895217Y-107570192D01*
X145880289Y-107591850D01*
X145880421Y-107615680D01*
X145889454Y-107645837D01*
X145899802Y-107682983D01*
X145902653Y-107706046D01*
X145901750Y-107708567D01*
X145887045Y-107704518D01*
X145857786Y-107686787D01*
X145845505Y-107678054D01*
X145810676Y-107657132D01*
X145784152Y-107649499D01*
X145779066Y-107650684D01*
X145755805Y-107665416D01*
X145722429Y-107687929D01*
X145721294Y-107688715D01*
X145693852Y-107704562D01*
X145680332Y-107706185D01*
X145680036Y-107704909D01*
X145683938Y-107683378D01*
X145693518Y-107646629D01*
X145695398Y-107640125D01*
X145702934Y-107607403D01*
X145698528Y-107584287D01*
X145677794Y-107560051D01*
X145654139Y-107539177D01*
X145597519Y-107490641D01*
X145669155Y-107490418D01*
X145713659Y-107488389D01*
X145737967Y-107479558D01*
X145751813Y-107459270D01*
X145755867Y-107448936D01*
X145770010Y-107410657D01*
X145779630Y-107385174D01*
X145789805Y-107380922D01*
X145806273Y-107405379D01*
G37*
G36*
X146409939Y-107398546D02*
G01*
X146423933Y-107435010D01*
X146436983Y-107464297D01*
X146456654Y-107479899D01*
X146492734Y-107487864D01*
X146513254Y-107490195D01*
X146586322Y-107497696D01*
X146529777Y-107542903D01*
X146496142Y-107571887D01*
X146482491Y-107593107D01*
X146484352Y-107616183D01*
X146489216Y-107630146D01*
X146504243Y-107677111D01*
X146503109Y-107699578D01*
X146484599Y-107699069D01*
X146450253Y-107678984D01*
X146415190Y-107656563D01*
X146392948Y-107650097D01*
X146371809Y-107658274D01*
X146356484Y-107668482D01*
X146312777Y-107697863D01*
X146289029Y-107710943D01*
X146281111Y-107709312D01*
X146284226Y-107696261D01*
X146293299Y-107665018D01*
X146302362Y-107623097D01*
X146302465Y-107622536D01*
X146305148Y-107586352D01*
X146291934Y-107562314D01*
X146265880Y-107542705D01*
X146231081Y-107516458D01*
X146223998Y-107500178D01*
X146245301Y-107492049D01*
X146285280Y-107490195D01*
X146326476Y-107488434D01*
X146348463Y-107477863D01*
X146362023Y-107450549D01*
X146368837Y-107428722D01*
X146383100Y-107389989D01*
X146395928Y-107379830D01*
X146409939Y-107398546D01*
G37*
G36*
X147055513Y-107383093D02*
G01*
X147068822Y-107415487D01*
X147073538Y-107430183D01*
X147086081Y-107466557D01*
X147101653Y-107484220D01*
X147130340Y-107490070D01*
X147162179Y-107490819D01*
X147232841Y-107491444D01*
X147178691Y-107539579D01*
X147146616Y-107569557D01*
X147133361Y-107591327D01*
X147135252Y-107616538D01*
X147144994Y-107646416D01*
X147156267Y-107684312D01*
X147159846Y-107708457D01*
X147158872Y-107711693D01*
X147144214Y-107707487D01*
X147114854Y-107689225D01*
X147099467Y-107677975D01*
X147046638Y-107637680D01*
X146995795Y-107676459D01*
X146962481Y-107700379D01*
X146939692Y-107714023D01*
X146935834Y-107715239D01*
X146934316Y-107702470D01*
X146940794Y-107670052D01*
X146946687Y-107648880D01*
X146966658Y-107582521D01*
X146912213Y-107537147D01*
X146857767Y-107491774D01*
X146928429Y-107490984D01*
X146971667Y-107489096D01*
X146994988Y-107480082D01*
X147008481Y-107457022D01*
X147017071Y-107430183D01*
X147030392Y-107393089D01*
X147042244Y-107372003D01*
X147045304Y-107370171D01*
X147055513Y-107383093D01*
G37*
G36*
X143738024Y-106991346D02*
G01*
X143755927Y-107030429D01*
X143774613Y-107049102D01*
X143805413Y-107055015D01*
X143833197Y-107055612D01*
X143902186Y-107056115D01*
X143846843Y-107101339D01*
X143791501Y-107146563D01*
X143813247Y-107208197D01*
X143825467Y-107246612D01*
X143830702Y-107270966D01*
X143830229Y-107274595D01*
X143816236Y-107269871D01*
X143786358Y-107252427D01*
X143769711Y-107241473D01*
X143734528Y-107218781D01*
X143712340Y-107211899D01*
X143691399Y-107219665D01*
X143673045Y-107231909D01*
X143628766Y-107261835D01*
X143604527Y-107275451D01*
X143596157Y-107274164D01*
X143599483Y-107259383D01*
X143600628Y-107256359D01*
X143619073Y-107198849D01*
X143620379Y-107157923D01*
X143603257Y-107124688D01*
X143577934Y-107099791D01*
X143527112Y-107056328D01*
X143597126Y-107055719D01*
X143640224Y-107053850D01*
X143663991Y-107044265D01*
X143679099Y-107019527D01*
X143689489Y-106991346D01*
X143711839Y-106927584D01*
X143738024Y-106991346D01*
G37*
G36*
X146089724Y-106960106D02*
G01*
X146101453Y-106993637D01*
X146114382Y-107031232D01*
X146130190Y-107049230D01*
X146159200Y-107054952D01*
X146188760Y-107055549D01*
X146257649Y-107055989D01*
X146206966Y-107102065D01*
X146176281Y-107132123D01*
X146164413Y-107155192D01*
X146167281Y-107183674D01*
X146173210Y-107204635D01*
X146185803Y-107249582D01*
X146185915Y-107268955D01*
X146169869Y-107265864D01*
X146133988Y-107243421D01*
X146130274Y-107240964D01*
X146070411Y-107201349D01*
X146017752Y-107241515D01*
X145983849Y-107264555D01*
X145967692Y-107267463D01*
X145965092Y-107259389D01*
X145970252Y-107229620D01*
X145981262Y-107194863D01*
X145988891Y-107167460D01*
X145983201Y-107145926D01*
X145959937Y-107120424D01*
X145942276Y-107104751D01*
X145887119Y-107056874D01*
X145958601Y-107052241D01*
X146002931Y-107047431D01*
X146027201Y-107036525D01*
X146041357Y-107013594D01*
X146046347Y-106999925D01*
X146063241Y-106957637D01*
X146076826Y-106944464D01*
X146089724Y-106960106D01*
G37*
G36*
X146667151Y-106991346D02*
G01*
X146683916Y-107030565D01*
X146701983Y-107049225D01*
X146732521Y-107055105D01*
X146759598Y-107055719D01*
X146827762Y-107056328D01*
X146775887Y-107100670D01*
X146744451Y-107129451D01*
X146731959Y-107152141D01*
X146734210Y-107181748D01*
X146741012Y-107208700D01*
X146750588Y-107247919D01*
X146754857Y-107272342D01*
X146754574Y-107275825D01*
X146741555Y-107270089D01*
X146712639Y-107251615D01*
X146696647Y-107240491D01*
X146642156Y-107201720D01*
X146599932Y-107230975D01*
X146557149Y-107259922D01*
X146534965Y-107270524D01*
X146529342Y-107261562D01*
X146536238Y-107231818D01*
X146541724Y-107213406D01*
X146562139Y-107145573D01*
X146507413Y-107100844D01*
X146452688Y-107056115D01*
X146521676Y-107055612D01*
X146564647Y-107053589D01*
X146588939Y-107043240D01*
X146605872Y-107016913D01*
X146616766Y-106991346D01*
X146642867Y-106927584D01*
X146667151Y-106991346D01*
G37*
G36*
X147250850Y-106947912D02*
G01*
X147265072Y-106980096D01*
X147270349Y-106995097D01*
X147284308Y-107031864D01*
X147301029Y-107049462D01*
X147331047Y-107055094D01*
X147359017Y-107055719D01*
X147427880Y-107056328D01*
X147376005Y-107100670D01*
X147344570Y-107129451D01*
X147332077Y-107152141D01*
X147334328Y-107181748D01*
X147341130Y-107208700D01*
X147350696Y-107247930D01*
X147354940Y-107272378D01*
X147354644Y-107275873D01*
X147341428Y-107270391D01*
X147312030Y-107252507D01*
X147295406Y-107241473D01*
X147260222Y-107218781D01*
X147238035Y-107211899D01*
X147217093Y-107219665D01*
X147198739Y-107231909D01*
X147152568Y-107262723D01*
X147127336Y-107276504D01*
X147120319Y-107275423D01*
X147124865Y-107258561D01*
X147136290Y-107223880D01*
X147141905Y-107207743D01*
X147163490Y-107146563D01*
X147108148Y-107101339D01*
X147052806Y-107056115D01*
X147123468Y-107055612D01*
X147166695Y-107053913D01*
X147190001Y-107045033D01*
X147203471Y-107022087D01*
X147212109Y-106995097D01*
X147225425Y-106958004D01*
X147237263Y-106936918D01*
X147240316Y-106935085D01*
X147250850Y-106947912D01*
G37*
G36*
X144086484Y-105889101D02*
G01*
X144164737Y-105968338D01*
X144164737Y-106089316D01*
X144163596Y-106152572D01*
X144159149Y-106193405D01*
X144149861Y-106219348D01*
X144134499Y-106237659D01*
X144104260Y-106265024D01*
X144134499Y-106297212D01*
X144149014Y-106316749D01*
X144158062Y-106342440D01*
X144162858Y-106381282D01*
X144164614Y-106440270D01*
X144164737Y-106471525D01*
X144164737Y-106613650D01*
X144092958Y-106684350D01*
X144021179Y-106755050D01*
X143725386Y-106755050D01*
X143429593Y-106755050D01*
X143429593Y-106650029D01*
X143430916Y-106592970D01*
X143435675Y-106560313D01*
X143445052Y-106546540D01*
X143452097Y-106545009D01*
X143460436Y-106541127D01*
X143466476Y-106526853D01*
X143470564Y-106498245D01*
X143473049Y-106451358D01*
X143474279Y-106382249D01*
X143474293Y-106378332D01*
X143744655Y-106378332D01*
X143744655Y-106461670D01*
X143744655Y-106545009D01*
X143802829Y-106545009D01*
X143845325Y-106539759D01*
X143875505Y-106526759D01*
X143878812Y-106523551D01*
X143889354Y-106495203D01*
X143892387Y-106453020D01*
X143891901Y-106444786D01*
X143887644Y-106410166D01*
X143876728Y-106392744D01*
X143850696Y-106385632D01*
X143815919Y-106382905D01*
X143744655Y-106378332D01*
X143474293Y-106378332D01*
X143474601Y-106289958D01*
X143474259Y-106195451D01*
X143473000Y-106127002D01*
X143470475Y-106080666D01*
X143466338Y-106052501D01*
X143460240Y-106038564D01*
X143452097Y-106034908D01*
X143448786Y-106033264D01*
X143744655Y-106033264D01*
X143744655Y-106094920D01*
X143744655Y-106156576D01*
X143815919Y-106152003D01*
X143858853Y-106148165D01*
X143879759Y-106139680D01*
X143886563Y-106120197D01*
X143887183Y-106094920D01*
X143885713Y-106063190D01*
X143876018Y-106047164D01*
X143850169Y-106040491D01*
X143815919Y-106037837D01*
X143744655Y-106033264D01*
X143448786Y-106033264D01*
X143440227Y-106029014D01*
X143433259Y-106007713D01*
X143430108Y-105965581D01*
X143429593Y-105922386D01*
X143429593Y-105809864D01*
X143718912Y-105809864D01*
X144008231Y-105809864D01*
X144086484Y-105889101D01*
G37*
G36*
X144239752Y-106355800D02*
G01*
X144512171Y-106355800D01*
X144512222Y-106427346D01*
X144513226Y-106483273D01*
X144515109Y-106517890D01*
X144516428Y-106525625D01*
X144535403Y-106538511D01*
X144572155Y-106544461D01*
X144615291Y-106543574D01*
X144653422Y-106535952D01*
X144673401Y-106524236D01*
X144680895Y-106500562D01*
X144685513Y-106450357D01*
X144687314Y-106372479D01*
X144686490Y-106272936D01*
X144682339Y-106042410D01*
X144599823Y-106042410D01*
X144517307Y-106042410D01*
X144513148Y-106274325D01*
X144512171Y-106355800D01*
X144239752Y-106355800D01*
X144239752Y-106281378D01*
X144239752Y-105951264D01*
X144311531Y-105880564D01*
X144383311Y-105809864D01*
X144593349Y-105809864D01*
X144803388Y-105809864D01*
X144881641Y-105889101D01*
X144959894Y-105968338D01*
X144959894Y-106290994D01*
X144959894Y-106613650D01*
X144888114Y-106684350D01*
X144816335Y-106755050D01*
X144598744Y-106755050D01*
X144381152Y-106755050D01*
X144310452Y-106683271D01*
X144239752Y-106611491D01*
X144239752Y-106355800D01*
G37*
G36*
X145409982Y-105921136D02*
G01*
X145407727Y-105984047D01*
X145401340Y-106024405D01*
X145393038Y-106038056D01*
X145390798Y-106053197D01*
X145396547Y-106088810D01*
X145408049Y-106137153D01*
X145423069Y-106190487D01*
X145439371Y-106241072D01*
X145454720Y-106281170D01*
X145466880Y-106303039D01*
X145470134Y-106304961D01*
X145478723Y-106291794D01*
X145493347Y-106256932D01*
X145511146Y-106207339D01*
X145514859Y-106196190D01*
X145533708Y-106131423D01*
X145543992Y-106072449D01*
X145547404Y-106006083D01*
X145546622Y-105948641D01*
X145542618Y-105809864D01*
X145738852Y-105809864D01*
X145935086Y-105809864D01*
X145935086Y-105922386D01*
X145935086Y-106034908D01*
X145893556Y-106034908D01*
X145878410Y-106035958D01*
X145865715Y-106041701D01*
X145853549Y-106056023D01*
X145839986Y-106082814D01*
X145823102Y-106125962D01*
X145800973Y-106189354D01*
X145771676Y-106276878D01*
X145767331Y-106289958D01*
X145735841Y-106386735D01*
X145714257Y-106458016D01*
X145701932Y-106506395D01*
X145698220Y-106534466D01*
X145702477Y-106544822D01*
X145703840Y-106545009D01*
X145715538Y-106552395D01*
X145722212Y-106577894D01*
X145724874Y-106626513D01*
X145725044Y-106650029D01*
X145725044Y-106755050D01*
X145469994Y-106755050D01*
X145214944Y-106755050D01*
X145214944Y-106650029D01*
X145216110Y-106593695D01*
X145220509Y-106561407D01*
X145229497Y-106547268D01*
X145239054Y-106545009D01*
X145256308Y-106536015D01*
X145256264Y-106526255D01*
X145249407Y-106506282D01*
X145234846Y-106463016D01*
X145214320Y-106401645D01*
X145189563Y-106327358D01*
X145170897Y-106271205D01*
X145141577Y-106183815D01*
X145119407Y-106121004D01*
X145102439Y-106078760D01*
X145088724Y-106053067D01*
X145076312Y-106039912D01*
X145063256Y-106035281D01*
X145056168Y-106034908D01*
X145037718Y-106033353D01*
X145026902Y-106024479D01*
X145021685Y-106001971D01*
X145020033Y-105959513D01*
X145019906Y-105922386D01*
X145019906Y-105809864D01*
X145214944Y-105809864D01*
X145409982Y-105809864D01*
X145409982Y-105921136D01*
G37*
G36*
X146670231Y-105937389D02*
G01*
X146670231Y-106064914D01*
X146557708Y-106064914D01*
X146501011Y-106063052D01*
X146461493Y-106058013D01*
X146445292Y-106050615D01*
X146445186Y-106049911D01*
X146431693Y-106041353D01*
X146397193Y-106035921D01*
X146370171Y-106034908D01*
X146295157Y-106034908D01*
X146295157Y-106109923D01*
X146297855Y-106152715D01*
X146304755Y-106179875D01*
X146310160Y-106184938D01*
X146323470Y-106172786D01*
X146325163Y-106162433D01*
X146331057Y-106150563D01*
X146352357Y-106143595D01*
X146394490Y-106140444D01*
X146437685Y-106139929D01*
X146550207Y-106139929D01*
X146550207Y-106289958D01*
X146550207Y-106439988D01*
X146437685Y-106439988D01*
X146378332Y-106438809D01*
X146343493Y-106434549D01*
X146327741Y-106426122D01*
X146325163Y-106417483D01*
X146317061Y-106397518D01*
X146310160Y-106394979D01*
X146301601Y-106408472D01*
X146296169Y-106442972D01*
X146295157Y-106469994D01*
X146295157Y-106545009D01*
X146368566Y-106545009D01*
X146420233Y-106541176D01*
X146446624Y-106528981D01*
X146450612Y-106522504D01*
X146463607Y-106509855D01*
X146494143Y-106502746D01*
X146547707Y-106500093D01*
X146564739Y-106500000D01*
X146670231Y-106500000D01*
X146670231Y-106627525D01*
X146670231Y-106755050D01*
X146325163Y-106755050D01*
X145980095Y-106755050D01*
X145980095Y-106650029D01*
X145981418Y-106592970D01*
X145986177Y-106560313D01*
X145995554Y-106546540D01*
X146002599Y-106545009D01*
X146010938Y-106541127D01*
X146016978Y-106526853D01*
X146021066Y-106498245D01*
X146023551Y-106451358D01*
X146024781Y-106382249D01*
X146025104Y-106289958D01*
X146024761Y-106195451D01*
X146023502Y-106127002D01*
X146020977Y-106080666D01*
X146016840Y-106052501D01*
X146010742Y-106038564D01*
X146002599Y-106034908D01*
X145990729Y-106029014D01*
X145983761Y-106007713D01*
X145980610Y-105965581D01*
X145980095Y-105922386D01*
X145980095Y-105809864D01*
X146325163Y-105809864D01*
X146670231Y-105809864D01*
X146670231Y-105937389D01*
G37*
G36*
X147402137Y-105889101D02*
G01*
X147480390Y-105968338D01*
X147480390Y-106089316D01*
X147479249Y-106152572D01*
X147474802Y-106193405D01*
X147465513Y-106219348D01*
X147450151Y-106237659D01*
X147419913Y-106265024D01*
X147450151Y-106297212D01*
X147466873Y-106321091D01*
X147476212Y-106353629D01*
X147480003Y-106403315D01*
X147480390Y-106437204D01*
X147481160Y-106493272D01*
X147484645Y-106525691D01*
X147492611Y-106540799D01*
X147506822Y-106544939D01*
X147510396Y-106545009D01*
X147526165Y-106547842D01*
X147535199Y-106560619D01*
X147539331Y-106589757D01*
X147540393Y-106641670D01*
X147540402Y-106650029D01*
X147540402Y-106755050D01*
X147375831Y-106755050D01*
X147211260Y-106755050D01*
X147207048Y-106571264D01*
X147202835Y-106387478D01*
X147131571Y-106382905D01*
X147060307Y-106378332D01*
X147060307Y-106461670D01*
X147061584Y-106509645D01*
X147067114Y-106534745D01*
X147079449Y-106544053D01*
X147090313Y-106545009D01*
X147106082Y-106547842D01*
X147115116Y-106560619D01*
X147119248Y-106589757D01*
X147120311Y-106641670D01*
X147120319Y-106650029D01*
X147120319Y-106755050D01*
X146932782Y-106755050D01*
X146745245Y-106755050D01*
X146745245Y-106650029D01*
X146746569Y-106592970D01*
X146751328Y-106560313D01*
X146760704Y-106546540D01*
X146767750Y-106545009D01*
X146776089Y-106541127D01*
X146782128Y-106526853D01*
X146786217Y-106498245D01*
X146788702Y-106451358D01*
X146789932Y-106382249D01*
X146790254Y-106289958D01*
X146789912Y-106195451D01*
X146788652Y-106127002D01*
X146786128Y-106080666D01*
X146781991Y-106052501D01*
X146775893Y-106038564D01*
X146767750Y-106034908D01*
X146764439Y-106033264D01*
X147060307Y-106033264D01*
X147060307Y-106094920D01*
X147060307Y-106156576D01*
X147131571Y-106152003D01*
X147174506Y-106148165D01*
X147195411Y-106139680D01*
X147202216Y-106120197D01*
X147202835Y-106094920D01*
X147201366Y-106063190D01*
X147191671Y-106047164D01*
X147165822Y-106040491D01*
X147131571Y-106037837D01*
X147060307Y-106033264D01*
X146764439Y-106033264D01*
X146755879Y-106029014D01*
X146748911Y-106007713D01*
X146745761Y-105965581D01*
X146745245Y-105922386D01*
X146745245Y-105809864D01*
X147034565Y-105809864D01*
X147323884Y-105809864D01*
X147402137Y-105889101D01*
G37*
G36*
X143334781Y-105207664D02*
G01*
X143348089Y-105240058D01*
X143352805Y-105254755D01*
X143365745Y-105291861D01*
X143381957Y-105309283D01*
X143411953Y-105314453D01*
X143437696Y-105314766D01*
X143477733Y-105317021D01*
X143501581Y-105322719D01*
X143504505Y-105326019D01*
X143493168Y-105340747D01*
X143464980Y-105363832D01*
X143453694Y-105371797D01*
X143402986Y-105406322D01*
X143423073Y-105473067D01*
X143434387Y-105517306D01*
X143432090Y-105535894D01*
X143413985Y-105530928D01*
X143384584Y-105509805D01*
X143351237Y-105488964D01*
X143324572Y-105480466D01*
X143297413Y-105489205D01*
X143264560Y-105509805D01*
X143231315Y-105533110D01*
X143215744Y-105534644D01*
X143215650Y-105512307D01*
X143226071Y-105473067D01*
X143246158Y-105406322D01*
X143195450Y-105371797D01*
X143163641Y-105347653D01*
X143145936Y-105329389D01*
X143144639Y-105326019D01*
X143157982Y-105319282D01*
X143191829Y-105315263D01*
X143211448Y-105314766D01*
X143253309Y-105313132D01*
X143275688Y-105303273D01*
X143289096Y-105277759D01*
X143296339Y-105254755D01*
X143309660Y-105217661D01*
X143321512Y-105196575D01*
X143324572Y-105194743D01*
X143334781Y-105207664D01*
G37*
G36*
X143959306Y-105219766D02*
G01*
X143971034Y-105253294D01*
X143984398Y-105291674D01*
X144000920Y-105309434D01*
X144031383Y-105314508D01*
X144054590Y-105314766D01*
X144094033Y-105316855D01*
X144117182Y-105322118D01*
X144119728Y-105324926D01*
X144109245Y-105339987D01*
X144082995Y-105365460D01*
X144071549Y-105375308D01*
X144041582Y-105402638D01*
X144031089Y-105424966D01*
X144035881Y-105455739D01*
X144041056Y-105473156D01*
X144050832Y-105510765D01*
X144053598Y-105534138D01*
X144052713Y-105536812D01*
X144038349Y-105532364D01*
X144009398Y-105514037D01*
X143996064Y-105504231D01*
X143945444Y-105465621D01*
X143890058Y-105503257D01*
X143854782Y-105524745D01*
X143837863Y-105527670D01*
X143834672Y-105518824D01*
X143839797Y-105489185D01*
X143850655Y-105454718D01*
X143858176Y-105427533D01*
X143852253Y-105406650D01*
X143828411Y-105382451D01*
X143810093Y-105367474D01*
X143753549Y-105322268D01*
X143826616Y-105314766D01*
X143871701Y-105308136D01*
X143896577Y-105296216D01*
X143911035Y-105272958D01*
X143915938Y-105259582D01*
X143932824Y-105217293D01*
X143946406Y-105204121D01*
X143959306Y-105219766D01*
G37*
G36*
X144535017Y-105207664D02*
G01*
X144548325Y-105240058D01*
X144553042Y-105254755D01*
X144565981Y-105291861D01*
X144582193Y-105309283D01*
X144612189Y-105314453D01*
X144637933Y-105314766D01*
X144684214Y-105317393D01*
X144701630Y-105326523D01*
X144690963Y-105344031D01*
X144659835Y-105367277D01*
X144626516Y-105396965D01*
X144616195Y-105431136D01*
X144626692Y-105478714D01*
X144630249Y-105488404D01*
X144639967Y-105523523D01*
X144632669Y-105535438D01*
X144607120Y-105524566D01*
X144579897Y-105505287D01*
X144529149Y-105466580D01*
X144475264Y-105503195D01*
X144440935Y-105525551D01*
X144418269Y-105538508D01*
X144414550Y-105539811D01*
X144414381Y-105527015D01*
X144421701Y-105494538D01*
X144427680Y-105473493D01*
X144447639Y-105407175D01*
X144396308Y-105372223D01*
X144364275Y-105347954D01*
X144346288Y-105329561D01*
X144344875Y-105326019D01*
X144358219Y-105319282D01*
X144392065Y-105315263D01*
X144411684Y-105314766D01*
X144453545Y-105313132D01*
X144475924Y-105303273D01*
X144489333Y-105277759D01*
X144496575Y-105254755D01*
X144509896Y-105217661D01*
X144521748Y-105196575D01*
X144524808Y-105194743D01*
X144535017Y-105207664D01*
G37*
G36*
X145159542Y-105219766D02*
G01*
X145171270Y-105253294D01*
X145184634Y-105291674D01*
X145201157Y-105309434D01*
X145231620Y-105314508D01*
X145254826Y-105314766D01*
X145294270Y-105316855D01*
X145317418Y-105322118D01*
X145319965Y-105324926D01*
X145309495Y-105340062D01*
X145283377Y-105365391D01*
X145273311Y-105374034D01*
X145243969Y-105401200D01*
X145234056Y-105424464D01*
X145239174Y-105457956D01*
X145242899Y-105471802D01*
X145252123Y-105509492D01*
X145255471Y-105532324D01*
X145254943Y-105534819D01*
X145241274Y-105529827D01*
X145211830Y-105512316D01*
X145197477Y-105502819D01*
X145144208Y-105466622D01*
X145087434Y-105505201D01*
X145030660Y-105543780D01*
X145040998Y-105500537D01*
X145051057Y-105460359D01*
X145058484Y-105433094D01*
X145051186Y-105407056D01*
X145018557Y-105373157D01*
X145009012Y-105365580D01*
X144952392Y-105322268D01*
X145026156Y-105314766D01*
X145071461Y-105308213D01*
X145096491Y-105296515D01*
X145110967Y-105273714D01*
X145116174Y-105259582D01*
X145133060Y-105217293D01*
X145146643Y-105204121D01*
X145159542Y-105219766D01*
G37*
G36*
X147595620Y-105207664D02*
G01*
X147608928Y-105240058D01*
X147613644Y-105254755D01*
X147626584Y-105291861D01*
X147642796Y-105309283D01*
X147672792Y-105314453D01*
X147698535Y-105314766D01*
X147738572Y-105317021D01*
X147762420Y-105322719D01*
X147765344Y-105326019D01*
X147754007Y-105340747D01*
X147725818Y-105363832D01*
X147714533Y-105371797D01*
X147663825Y-105406322D01*
X147683912Y-105473067D01*
X147695225Y-105517306D01*
X147692929Y-105535894D01*
X147674824Y-105530928D01*
X147645422Y-105509805D01*
X147612076Y-105488964D01*
X147585411Y-105480466D01*
X147558252Y-105489205D01*
X147525399Y-105509805D01*
X147492153Y-105533110D01*
X147476583Y-105534644D01*
X147476489Y-105512307D01*
X147486909Y-105473067D01*
X147506996Y-105406322D01*
X147456288Y-105371797D01*
X147424480Y-105347653D01*
X147406774Y-105329389D01*
X147405478Y-105326019D01*
X147418821Y-105319282D01*
X147452667Y-105315263D01*
X147472286Y-105314766D01*
X147514148Y-105313132D01*
X147536527Y-105303273D01*
X147549935Y-105277759D01*
X147557177Y-105254755D01*
X147570499Y-105217661D01*
X147582351Y-105196575D01*
X147585411Y-105194743D01*
X147595620Y-105207664D01*
G37*
G36*
X143259100Y-104742592D02*
G01*
X143273042Y-104775029D01*
X143277791Y-104789663D01*
X143290325Y-104826032D01*
X143305872Y-104843677D01*
X143334517Y-104849482D01*
X143366432Y-104850178D01*
X143437094Y-104850681D01*
X143382369Y-104895410D01*
X143327643Y-104940139D01*
X143348058Y-105007972D01*
X143358899Y-105046517D01*
X143358903Y-105063839D01*
X143344031Y-105061138D01*
X143310242Y-105039615D01*
X143289575Y-105025346D01*
X143259624Y-105006470D01*
X143239224Y-105004843D01*
X143213416Y-105020407D01*
X143207059Y-105025017D01*
X143163295Y-105055990D01*
X143139296Y-105069883D01*
X143131191Y-105068100D01*
X143135108Y-105052042D01*
X143135536Y-105050925D01*
X143153982Y-104993414D01*
X143155288Y-104952488D01*
X143138165Y-104919254D01*
X143112842Y-104894357D01*
X143062020Y-104850894D01*
X143130909Y-104850285D01*
X143173508Y-104848389D01*
X143196391Y-104838906D01*
X143209843Y-104814657D01*
X143217779Y-104789663D01*
X143231493Y-104752545D01*
X143244308Y-104731468D01*
X143247785Y-104729651D01*
X143259100Y-104742592D01*
G37*
G36*
X144532098Y-104785912D02*
G01*
X144549850Y-104824998D01*
X144568351Y-104843585D01*
X144598857Y-104849281D01*
X144626456Y-104849675D01*
X144694840Y-104849675D01*
X144638663Y-104898434D01*
X144605539Y-104929301D01*
X144591902Y-104951467D01*
X144593506Y-104974593D01*
X144598656Y-104989429D01*
X144613770Y-105036511D01*
X144612752Y-105058852D01*
X144594761Y-105057527D01*
X144562166Y-105036081D01*
X144509506Y-104995915D01*
X144447461Y-105036975D01*
X144385415Y-105078035D01*
X144395461Y-105042620D01*
X144409897Y-104986847D01*
X144413136Y-104950667D01*
X144403398Y-104925182D01*
X144378901Y-104901496D01*
X144365107Y-104890933D01*
X144309935Y-104849675D01*
X144380479Y-104849675D01*
X144424032Y-104848069D01*
X144448864Y-104838364D01*
X144466252Y-104813231D01*
X144478574Y-104785912D01*
X144506123Y-104722150D01*
X144532098Y-104785912D01*
G37*
G36*
X145153017Y-104742592D02*
G01*
X145166959Y-104775029D01*
X145171708Y-104789663D01*
X145184455Y-104826390D01*
X145200381Y-104843990D01*
X145229773Y-104849640D01*
X145258577Y-104850285D01*
X145327466Y-104850894D01*
X145275592Y-104895236D01*
X145244156Y-104924017D01*
X145231663Y-104946707D01*
X145233914Y-104976313D01*
X145240717Y-105003266D01*
X145250283Y-105042496D01*
X145254527Y-105066944D01*
X145254231Y-105070439D01*
X145241014Y-105064957D01*
X145211616Y-105047073D01*
X145194992Y-105036039D01*
X145159809Y-105013347D01*
X145137621Y-105006465D01*
X145116679Y-105014231D01*
X145098326Y-105026475D01*
X145056014Y-105055034D01*
X145034288Y-105065138D01*
X145029108Y-105055473D01*
X145036430Y-105024725D01*
X145041429Y-105007972D01*
X145061843Y-104940139D01*
X145007118Y-104895410D01*
X144952392Y-104850681D01*
X145023054Y-104850178D01*
X145066281Y-104848479D01*
X145089588Y-104839599D01*
X145103058Y-104816653D01*
X145111696Y-104789663D01*
X145125410Y-104752545D01*
X145138225Y-104731468D01*
X145141702Y-104729651D01*
X145153017Y-104742592D01*
G37*
G36*
X147685936Y-104742478D02*
G01*
X147700158Y-104774662D01*
X147705434Y-104789663D01*
X147719393Y-104826429D01*
X147736115Y-104844028D01*
X147766133Y-104849660D01*
X147794103Y-104850285D01*
X147862965Y-104850894D01*
X147811091Y-104895236D01*
X147779655Y-104924017D01*
X147767162Y-104946707D01*
X147769413Y-104976313D01*
X147776216Y-105003266D01*
X147785782Y-105042496D01*
X147790026Y-105066944D01*
X147789730Y-105070439D01*
X147776513Y-105064957D01*
X147747116Y-105047073D01*
X147730491Y-105036039D01*
X147695308Y-105013347D01*
X147673120Y-105006465D01*
X147652179Y-105014231D01*
X147633825Y-105026475D01*
X147591513Y-105055034D01*
X147569787Y-105065138D01*
X147564607Y-105055473D01*
X147571929Y-105024725D01*
X147576928Y-105007972D01*
X147597343Y-104940139D01*
X147542617Y-104895410D01*
X147487891Y-104850681D01*
X147558553Y-104850178D01*
X147601780Y-104848479D01*
X147625087Y-104839599D01*
X147638557Y-104816653D01*
X147647195Y-104789663D01*
X147660510Y-104752570D01*
X147672348Y-104731484D01*
X147675402Y-104729651D01*
X147685936Y-104742478D01*
G37*
G36*
X143893695Y-104744762D02*
G01*
X143902421Y-104775732D01*
X143925762Y-104818800D01*
X143972436Y-104843463D01*
X144026758Y-104849675D01*
X144049840Y-104850595D01*
X144053354Y-104856438D01*
X144035435Y-104871823D01*
X144010574Y-104889724D01*
X143973229Y-104922595D01*
X143960632Y-104949358D01*
X143961281Y-104953486D01*
X143969919Y-104985498D01*
X143978520Y-105020076D01*
X143988767Y-105062952D01*
X143929101Y-105028612D01*
X143869436Y-104994273D01*
X143823483Y-105026995D01*
X143783950Y-105052494D01*
X143764454Y-105057737D01*
X143763156Y-105043004D01*
X143765618Y-105035818D01*
X143783184Y-104982849D01*
X143785311Y-104946996D01*
X143770583Y-104918847D01*
X143744347Y-104894433D01*
X143694608Y-104853837D01*
X143762442Y-104843665D01*
X143805139Y-104835075D01*
X143828417Y-104820365D01*
X143842759Y-104790973D01*
X143848209Y-104773637D01*
X143864298Y-104734029D01*
X143879587Y-104724409D01*
X143893695Y-104744762D01*
G37*
G36*
X143658363Y-104304414D02*
G01*
X143671283Y-104339141D01*
X143684074Y-104376120D01*
X143699938Y-104393819D01*
X143729170Y-104399444D01*
X143758282Y-104400026D01*
X143827171Y-104400466D01*
X143776488Y-104446542D01*
X143745803Y-104476600D01*
X143733935Y-104499669D01*
X143736803Y-104528151D01*
X143742731Y-104549113D01*
X143755324Y-104594059D01*
X143755436Y-104613432D01*
X143739390Y-104610341D01*
X143703510Y-104587898D01*
X143699795Y-104585441D01*
X143639933Y-104545826D01*
X143587273Y-104585992D01*
X143553155Y-104608269D01*
X143536037Y-104610832D01*
X143534613Y-104606541D01*
X143538550Y-104579135D01*
X143548058Y-104540053D01*
X143548426Y-104538764D01*
X143554724Y-104507590D01*
X143548149Y-104484772D01*
X143523972Y-104459633D01*
X143507167Y-104445598D01*
X143452097Y-104400592D01*
X143522198Y-104400089D01*
X143565514Y-104398141D01*
X143588983Y-104389022D01*
X143602748Y-104366603D01*
X143609559Y-104347285D01*
X143627451Y-104303425D01*
X143643266Y-104289195D01*
X143658363Y-104304414D01*
G37*
G36*
X144380544Y-104311369D02*
G01*
X144390614Y-104332073D01*
X144410008Y-104369085D01*
X144431669Y-104388112D01*
X144467009Y-104396965D01*
X144489224Y-104399586D01*
X144560596Y-104407088D01*
X144504456Y-104444595D01*
X144473784Y-104467047D01*
X144458202Y-104488233D01*
X144455967Y-104516657D01*
X144465333Y-104560828D01*
X144474120Y-104592532D01*
X144484166Y-104627946D01*
X144422834Y-104587359D01*
X144361503Y-104546771D01*
X144308129Y-104587482D01*
X144274460Y-104610740D01*
X144258167Y-104614648D01*
X144254755Y-104604883D01*
X144259940Y-104574275D01*
X144270925Y-104539340D01*
X144278522Y-104512146D01*
X144272988Y-104490711D01*
X144250078Y-104465374D01*
X144230918Y-104448346D01*
X144174741Y-104399586D01*
X144245125Y-104399586D01*
X144289187Y-104397622D01*
X144313184Y-104388560D01*
X144326965Y-104367644D01*
X144330586Y-104358328D01*
X144344788Y-104320043D01*
X144354519Y-104294566D01*
X144364556Y-104289198D01*
X144380544Y-104311369D01*
G37*
G36*
X145113650Y-104304414D02*
G01*
X145126569Y-104339141D01*
X145139373Y-104376128D01*
X145155274Y-104393854D01*
X145184569Y-104399545D01*
X145213568Y-104400196D01*
X145282457Y-104400806D01*
X145231801Y-104444130D01*
X145204444Y-104469730D01*
X145190914Y-104493039D01*
X145189954Y-104522829D01*
X145200305Y-104567870D01*
X145209520Y-104599492D01*
X145210735Y-104613360D01*
X145198653Y-104612008D01*
X145168531Y-104594261D01*
X145156447Y-104586345D01*
X145095219Y-104545826D01*
X145042560Y-104585992D01*
X145008441Y-104608269D01*
X144991323Y-104610832D01*
X144989900Y-104606541D01*
X144993836Y-104579135D01*
X145003344Y-104540053D01*
X145003712Y-104538764D01*
X145010011Y-104507590D01*
X145003435Y-104484772D01*
X144979259Y-104459633D01*
X144962454Y-104445598D01*
X144907384Y-104400592D01*
X144977484Y-104400089D01*
X145020800Y-104398141D01*
X145044270Y-104389022D01*
X145058035Y-104366603D01*
X145064846Y-104347285D01*
X145082737Y-104303425D01*
X145098552Y-104289195D01*
X145113650Y-104304414D01*
G37*
G36*
X145830147Y-104308875D02*
G01*
X145845137Y-104347285D01*
X145857869Y-104379214D01*
X145874944Y-104394602D01*
X145906503Y-104399578D01*
X145932499Y-104400089D01*
X146002599Y-104400592D01*
X145947529Y-104445598D01*
X145914419Y-104474968D01*
X145900924Y-104497469D01*
X145902317Y-104523779D01*
X145906271Y-104538764D01*
X145918038Y-104586808D01*
X145916783Y-104609249D01*
X145900658Y-104608330D01*
X145867820Y-104586295D01*
X145867423Y-104585992D01*
X145814763Y-104545826D01*
X145753535Y-104586345D01*
X145717618Y-104608810D01*
X145701045Y-104614556D01*
X145699074Y-104604758D01*
X145700462Y-104599492D01*
X145716091Y-104543311D01*
X145721050Y-104506850D01*
X145714078Y-104481336D01*
X145693920Y-104457999D01*
X145678181Y-104444130D01*
X145627525Y-104400806D01*
X145696415Y-104400196D01*
X145739005Y-104398308D01*
X145761891Y-104388813D01*
X145775370Y-104364486D01*
X145783413Y-104339141D01*
X145798947Y-104299692D01*
X145814071Y-104289543D01*
X145830147Y-104308875D01*
G37*
G36*
X144154344Y-103899506D02*
G01*
X144166072Y-103933034D01*
X144179437Y-103971414D01*
X144195959Y-103989174D01*
X144226422Y-103994248D01*
X144249628Y-103994506D01*
X144289072Y-103996595D01*
X144312220Y-104001858D01*
X144314767Y-104004666D01*
X144304283Y-104019727D01*
X144278034Y-104045200D01*
X144266587Y-104055048D01*
X144236620Y-104082378D01*
X144226127Y-104104706D01*
X144230919Y-104135479D01*
X144236094Y-104152896D01*
X144245844Y-104190537D01*
X144248541Y-104213977D01*
X144247630Y-104216674D01*
X144232771Y-104212967D01*
X144203941Y-104195969D01*
X144197042Y-104191182D01*
X144149295Y-104164978D01*
X144113709Y-104161801D01*
X144097274Y-104174461D01*
X144077377Y-104193261D01*
X144058881Y-104204995D01*
X144036167Y-104212863D01*
X144029728Y-104200028D01*
X144029711Y-104198551D01*
X144034839Y-104168722D01*
X144045247Y-104135633D01*
X144052327Y-104108997D01*
X144045858Y-104087851D01*
X144021392Y-104062708D01*
X144004332Y-104048389D01*
X143947881Y-104002008D01*
X144021302Y-103994506D01*
X144066498Y-103987915D01*
X144091452Y-103976109D01*
X144105918Y-103953085D01*
X144110976Y-103939322D01*
X144127862Y-103897034D01*
X144141445Y-103883861D01*
X144154344Y-103899506D01*
G37*
D14*
%TO.C,J6*%
X133800000Y-105508757D02*
X133800000Y-107263757D01*
X133800000Y-105508757D02*
X133880000Y-105508757D01*
X133800000Y-109808757D02*
X133800000Y-109453757D01*
X133800000Y-109808757D02*
X141200000Y-109808757D01*
X141120000Y-105508757D02*
X141200000Y-105508757D01*
X141200000Y-107263757D02*
X141200000Y-105508757D01*
X141200000Y-109808757D02*
X141200000Y-109453757D01*
X136250000Y-104258757D02*
G75*
G03*
X136250000Y-104258757I-100000J0D01*
G01*
%TO.C,R13*%
X124200000Y-76200000D02*
X124200000Y-77000000D01*
X124200000Y-76200000D02*
X126200000Y-76200000D01*
X124200000Y-77000000D02*
X126200000Y-77000000D01*
X125120000Y-76200000D02*
X125280000Y-76200000D01*
X125120000Y-77000000D02*
X125280000Y-77000000D01*
X126200000Y-76200000D02*
X126200000Y-77000000D01*
%TO.C,LED1*%
X123500000Y-71000000D02*
X124100000Y-71000000D01*
X123500280Y-70999900D02*
X123500280Y-72600100D01*
X123700940Y-71500280D02*
X123700940Y-72099720D01*
X123700940Y-72099720D02*
X124000660Y-71800000D01*
X123800000Y-71599340D02*
X123800000Y-72000660D01*
X123899060Y-71899060D02*
X123899060Y-71700940D01*
X124000660Y-71800000D02*
X123700940Y-71500280D01*
X124099720Y-72600100D02*
X124099720Y-70999900D01*
X124100000Y-72600000D02*
X123500000Y-72600000D01*
%TO.C,C11*%
X130500000Y-100558757D02*
X130500000Y-100258757D01*
X131400000Y-100558757D02*
X131400000Y-100258757D01*
X131420129Y-101247363D02*
X130469900Y-101247363D01*
X130469900Y-100746857D01*
X131420129Y-100746857D01*
X131420129Y-101247363D01*
G36*
X131420129Y-101247363D02*
G01*
X130469900Y-101247363D01*
X130469900Y-100746857D01*
X131420129Y-100746857D01*
X131420129Y-101247363D01*
G37*
X131420869Y-100077876D02*
X130469900Y-100077876D01*
X130469900Y-99578457D01*
X131420869Y-99578457D01*
X131420869Y-100077876D01*
G36*
X131420869Y-100077876D02*
G01*
X130469900Y-100077876D01*
X130469900Y-99578457D01*
X131420869Y-99578457D01*
X131420869Y-100077876D01*
G37*
%TO.C,C12*%
X131100000Y-106108757D02*
X130800000Y-106108757D01*
X131100000Y-105208757D02*
X130800000Y-105208757D01*
X131788606Y-106138857D02*
X131288100Y-106138857D01*
X131288100Y-105188628D01*
X131788606Y-105188628D01*
X131788606Y-106138857D01*
G36*
X131788606Y-106138857D02*
G01*
X131288100Y-106138857D01*
X131288100Y-105188628D01*
X131788606Y-105188628D01*
X131788606Y-106138857D01*
G37*
X130619119Y-106138857D02*
X130119700Y-106138857D01*
X130119700Y-105187888D01*
X130619119Y-105187888D01*
X130619119Y-106138857D01*
G36*
X130619119Y-106138857D02*
G01*
X130119700Y-106138857D01*
X130119700Y-105187888D01*
X130619119Y-105187888D01*
X130619119Y-106138857D01*
G37*
%TO.C,R8*%
X131750000Y-91600000D02*
X130950000Y-91600000D01*
X131750000Y-91600000D02*
X131750000Y-93600000D01*
X130950000Y-91600000D02*
X130950000Y-93600000D01*
X131750000Y-92520000D02*
X131750000Y-92680000D01*
X130950000Y-92520000D02*
X130950000Y-92680000D01*
X131750000Y-93600000D02*
X130950000Y-93600000D01*
%TO.C,J5*%
X122560000Y-82988757D02*
X122560000Y-98228757D01*
X120020000Y-82988757D02*
X122560000Y-82988757D01*
X117480000Y-82988757D02*
X120020000Y-82988757D01*
X120020000Y-93148757D02*
X117480000Y-93148757D01*
X117480000Y-93148757D02*
X117480000Y-82988757D01*
X122560000Y-98228757D02*
X120020000Y-98228757D01*
X120020000Y-98228757D02*
X120020000Y-82988757D01*
%TO.C,U5*%
X150450000Y-82918757D02*
X150450000Y-82918757D01*
X150450000Y-82918757D02*
X179650000Y-82918757D01*
X150450000Y-98368757D02*
X150450000Y-82918757D01*
X150780000Y-83494757D02*
X150780000Y-83494757D01*
X150780000Y-83494757D02*
X156114000Y-83494757D01*
X150780000Y-94162757D02*
X150780000Y-83494757D01*
X150780000Y-94162757D02*
X150780000Y-94162757D01*
X151034000Y-86288757D02*
X151034000Y-86288757D01*
X153320000Y-84002757D02*
X153320000Y-86288757D01*
X153320000Y-86288757D02*
X151034000Y-86288757D01*
X156114000Y-83494757D02*
X156114000Y-94162757D01*
X156114000Y-94162757D02*
X150780000Y-94162757D01*
X179650000Y-82918757D02*
X179650000Y-98368757D01*
X179650000Y-98368757D02*
X150450000Y-98368757D01*
%TO.C,C14*%
X149900000Y-102808757D02*
X150200000Y-102808757D01*
X149900000Y-103708757D02*
X150200000Y-103708757D01*
X149711900Y-103728886D02*
X149211394Y-103728886D01*
X149211394Y-102778657D01*
X149711900Y-102778657D01*
X149711900Y-103728886D01*
G36*
X149711900Y-103728886D02*
G01*
X149211394Y-103728886D01*
X149211394Y-102778657D01*
X149711900Y-102778657D01*
X149711900Y-103728886D01*
G37*
X150880300Y-103729626D02*
X150380881Y-103729626D01*
X150380881Y-102778657D01*
X150880300Y-102778657D01*
X150880300Y-103729626D01*
G36*
X150880300Y-103729626D02*
G01*
X150380881Y-103729626D01*
X150380881Y-102778657D01*
X150880300Y-102778657D01*
X150880300Y-103729626D01*
G37*
%TO.C,C2*%
X126910000Y-72459420D02*
X126910000Y-72740580D01*
X125890000Y-72459420D02*
X125890000Y-72740580D01*
%TO.C,Q2*%
X145502500Y-93302117D02*
X145502500Y-94102117D01*
X145499700Y-94102117D02*
X142502500Y-94102117D01*
X142502500Y-94102117D02*
X142502500Y-93302117D01*
X142502500Y-93302117D02*
X145499700Y-93302117D01*
%TO.C,SW1*%
X125349740Y-81209617D02*
X119350260Y-81209617D01*
X125349740Y-77607897D02*
X125349740Y-81209617D01*
X124950960Y-80808297D02*
X123650480Y-80109797D01*
X124950960Y-80808297D02*
X119749040Y-80808297D01*
X124950960Y-78009217D02*
X124950960Y-80808297D01*
X123650480Y-80109797D02*
X121049520Y-80109797D01*
X123650480Y-78707717D02*
X124950960Y-78009217D01*
X123650480Y-78707717D02*
X123650480Y-80109797D01*
X121049520Y-80109797D02*
X121049520Y-78707717D01*
X121049520Y-80109797D02*
X119749040Y-80808297D01*
X121049520Y-78707717D02*
X123650480Y-78707717D01*
X121049520Y-78707717D02*
X119749040Y-78009217D01*
X119749040Y-80808297D02*
X119749040Y-78009217D01*
X119749040Y-78009217D02*
X124950960Y-78009217D01*
X119350260Y-81209617D02*
X119350260Y-77607897D01*
X119350260Y-77607897D02*
X125349740Y-77607897D01*
%TO.C,U4*%
X132250000Y-100775000D02*
X132250000Y-97225000D01*
X142250000Y-100775000D02*
X142250000Y-97225000D01*
X131595000Y-101750000D02*
G75*
G03*
X131595000Y-101750000I-100000J0D01*
G01*
%TO.C,Q1*%
X130050000Y-93302117D02*
X130050000Y-94102117D01*
X130047200Y-94102117D02*
X127050000Y-94102117D01*
X127050000Y-94102117D02*
X127050000Y-93302117D01*
X127050000Y-93302117D02*
X130047200Y-93302117D01*
%TO.C,R9*%
X147202500Y-92372117D02*
X146402500Y-92372117D01*
X147202500Y-92372117D02*
X147202500Y-94372117D01*
X146402500Y-92372117D02*
X146402500Y-94372117D01*
X147202500Y-93292117D02*
X147202500Y-93452117D01*
X146402500Y-93292117D02*
X146402500Y-93452117D01*
X147202500Y-94372117D02*
X146402500Y-94372117D01*
%TO.C,H4*%
X123778000Y-105858757D02*
G75*
G03*
X123778000Y-105858757I-1778000J0D01*
G01*
%TO.C,C13*%
X119120000Y-75208757D02*
X119120000Y-75508757D01*
X118220000Y-75208757D02*
X118220000Y-75508757D01*
X119150100Y-75020657D02*
X118199871Y-75020657D01*
X118199871Y-74520151D01*
X119150100Y-74520151D01*
X119150100Y-75020657D01*
G36*
X119150100Y-75020657D02*
G01*
X118199871Y-75020657D01*
X118199871Y-74520151D01*
X119150100Y-74520151D01*
X119150100Y-75020657D01*
G37*
X119150100Y-76189057D02*
X118199131Y-76189057D01*
X118199131Y-75689638D01*
X119150100Y-75689638D01*
X119150100Y-76189057D01*
G36*
X119150100Y-76189057D02*
G01*
X118199131Y-76189057D01*
X118199131Y-75689638D01*
X119150100Y-75689638D01*
X119150100Y-76189057D01*
G37*
%TO.C,H3*%
X154278000Y-105858757D02*
G75*
G03*
X154278000Y-105858757I-1778000J0D01*
G01*
%TO.C,SW2*%
X147050260Y-98607897D02*
X153049740Y-98607897D01*
X147050260Y-102209617D02*
X147050260Y-98607897D01*
X147449040Y-99009217D02*
X148749520Y-99707717D01*
X147449040Y-99009217D02*
X152650960Y-99009217D01*
X147449040Y-101808297D02*
X147449040Y-99009217D01*
X148749520Y-99707717D02*
X151350480Y-99707717D01*
X148749520Y-101109797D02*
X147449040Y-101808297D01*
X148749520Y-101109797D02*
X148749520Y-99707717D01*
X151350480Y-99707717D02*
X151350480Y-101109797D01*
X151350480Y-99707717D02*
X152650960Y-99009217D01*
X151350480Y-101109797D02*
X148749520Y-101109797D01*
X151350480Y-101109797D02*
X152650960Y-101808297D01*
X152650960Y-99009217D02*
X152650960Y-101808297D01*
X152650960Y-101808297D02*
X147449040Y-101808297D01*
X153049740Y-98607897D02*
X153049740Y-102209617D01*
X153049740Y-102209617D02*
X147050260Y-102209617D01*
%TO.C,U1*%
X128182000Y-64432757D02*
X146182000Y-64432757D01*
X128182000Y-70622757D02*
X128182000Y-64432757D01*
X128182000Y-70622757D02*
X128182000Y-89932757D01*
X128182000Y-89932757D02*
X146182000Y-89932757D01*
X146182000Y-64432757D02*
X146182000Y-70622757D01*
X146182000Y-70622757D02*
X128182000Y-70622757D01*
X146182000Y-89932757D02*
X146182000Y-70622757D01*
D15*
%TO.C,D2*%
X127300000Y-101513757D02*
X127300000Y-98663757D01*
X129000000Y-98663757D02*
X129000000Y-101513757D01*
D14*
X128250000Y-103088757D02*
G75*
G03*
X128250000Y-103088757I-100000J0D01*
G01*
%TO.C,H2*%
X154278000Y-75358757D02*
G75*
G03*
X154278000Y-75358757I-1778000J0D01*
G01*
%TO.C,R1*%
X126200000Y-75600000D02*
X126200000Y-74800000D01*
X126200000Y-75600000D02*
X124200000Y-75600000D01*
X126200000Y-74800000D02*
X124200000Y-74800000D01*
X125280000Y-75600000D02*
X125120000Y-75600000D01*
X125280000Y-74800000D02*
X125120000Y-74800000D01*
X124200000Y-75600000D02*
X124200000Y-74800000D01*
%TO.C,H1*%
X123778000Y-75358757D02*
G75*
G03*
X123778000Y-75358757I-1778000J0D01*
G01*
%TD*%
D16*
%TO.C,J5*%
X121290000Y-84258757D03*
X121290000Y-86798757D03*
X121290000Y-89338757D03*
X121290000Y-91878757D03*
X121290000Y-94418757D03*
X121290000Y-96958757D03*
X118750000Y-84258757D03*
X118750000Y-86798757D03*
X118750000Y-89338757D03*
X118750000Y-91878757D03*
%TD*%
D17*
%TO.C,H4*%
X122000000Y-105858757D03*
%TD*%
%TO.C,H3*%
X152500000Y-105858757D03*
%TD*%
%TO.C,H2*%
X152500000Y-75358757D03*
%TD*%
%TO.C,H1*%
X122000000Y-75358757D03*
%TD*%
D18*
X117250043Y-105858757D02*
G75*
G03*
X122000000Y-110608757I4749957J-43D01*
G01*
X157250043Y-75358757D02*
G75*
G03*
X152500000Y-70608757I-4750043J-43D01*
G01*
X122000000Y-70608760D02*
G75*
G03*
X117250000Y-75358757I0J-4750000D01*
G01*
X152500000Y-110608757D02*
X122000000Y-110608757D01*
X117250000Y-105858757D02*
X117250000Y-75358757D01*
X152500000Y-110608800D02*
G75*
G03*
X157250000Y-105858756I0J4750000D01*
G01*
X122000000Y-70608757D02*
X152500000Y-70608757D01*
X157250000Y-75358757D02*
X157250000Y-105858757D01*
M02*
