%TF.GenerationSoftware,KiCad,Pcbnew,7.0.1*%
%TF.CreationDate,2023-08-30T02:16:58-03:00*%
%TF.ProjectId,PCB_FC_V2,5043425f-4643-45f5-9632-2e6b69636164,rev?*%
%TF.SameCoordinates,Original*%
%TF.FileFunction,Copper,L2,Bot*%
%TF.FilePolarity,Positive*%
%FSLAX46Y46*%
G04 Gerber Fmt 4.6, Leading zero omitted, Abs format (unit mm)*
G04 Created by KiCad (PCBNEW 7.0.1) date 2023-08-30 02:16:58*
%MOMM*%
%LPD*%
G01*
G04 APERTURE LIST*
G04 Aperture macros list*
%AMRoundRect*
0 Rectangle with rounded corners*
0 $1 Rounding radius*
0 $2 $3 $4 $5 $6 $7 $8 $9 X,Y pos of 4 corners*
0 Add a 4 corners polygon primitive as box body*
4,1,4,$2,$3,$4,$5,$6,$7,$8,$9,$2,$3,0*
0 Add four circle primitives for the rounded corners*
1,1,$1+$1,$2,$3*
1,1,$1+$1,$4,$5*
1,1,$1+$1,$6,$7*
1,1,$1+$1,$8,$9*
0 Add four rect primitives between the rounded corners*
20,1,$1+$1,$2,$3,$4,$5,0*
20,1,$1+$1,$4,$5,$6,$7,0*
20,1,$1+$1,$6,$7,$8,$9,0*
20,1,$1+$1,$8,$9,$2,$3,0*%
G04 Aperture macros list end*
%TA.AperFunction,ComponentPad*%
%ADD10O,1.100000X0.800000*%
%TD*%
%TA.AperFunction,ComponentPad*%
%ADD11O,1.200000X0.800000*%
%TD*%
%TA.AperFunction,ComponentPad*%
%ADD12O,0.750000X1.500000*%
%TD*%
%TA.AperFunction,ComponentPad*%
%ADD13C,1.750000*%
%TD*%
%TA.AperFunction,ComponentPad*%
%ADD14R,1.524000X1.524000*%
%TD*%
%TA.AperFunction,ComponentPad*%
%ADD15C,1.524000*%
%TD*%
%TA.AperFunction,ComponentPad*%
%ADD16C,2.999740*%
%TD*%
%TA.AperFunction,SMDPad,CuDef*%
%ADD17R,0.900000X0.650000*%
%TD*%
%TA.AperFunction,SMDPad,CuDef*%
%ADD18R,0.650000X0.900000*%
%TD*%
%TA.AperFunction,SMDPad,CuDef*%
%ADD19R,1.100000X1.000000*%
%TD*%
%TA.AperFunction,SMDPad,CuDef*%
%ADD20R,1.000000X1.100000*%
%TD*%
%TA.AperFunction,SMDPad,CuDef*%
%ADD21RoundRect,0.060000X-0.615000X0.240000X-0.615000X-0.240000X0.615000X-0.240000X0.615000X0.240000X0*%
%TD*%
%TA.AperFunction,SMDPad,CuDef*%
%ADD22R,0.350000X0.400000*%
%TD*%
%TA.AperFunction,SMDPad,CuDef*%
%ADD23R,0.400000X0.350000*%
%TD*%
%TA.AperFunction,ViaPad*%
%ADD24C,0.800000*%
%TD*%
%TA.AperFunction,ViaPad*%
%ADD25C,1.000000*%
%TD*%
%TA.AperFunction,ViaPad*%
%ADD26C,0.900000*%
%TD*%
%TA.AperFunction,Conductor*%
%ADD27C,0.200000*%
%TD*%
%TA.AperFunction,Conductor*%
%ADD28C,0.350000*%
%TD*%
%TA.AperFunction,Conductor*%
%ADD29C,0.700000*%
%TD*%
%TA.AperFunction,Conductor*%
%ADD30C,0.500000*%
%TD*%
%TA.AperFunction,Conductor*%
%ADD31C,0.400000*%
%TD*%
%TA.AperFunction,Profile*%
%ADD32C,0.100000*%
%TD*%
G04 APERTURE END LIST*
D10*
%TO.P,J6,S1,SHIELD*%
%TO.N,GND*%
X135000000Y-105658757D03*
D11*
%TO.P,J6,S2,SHIELD*%
X140000000Y-105658757D03*
D12*
%TO.P,J6,S3,SHIELD*%
X133975000Y-108358757D03*
%TO.P,J6,S6,SHIELD*%
X141025000Y-108358757D03*
%TD*%
D13*
%TO.P,J5,1,Pin_1*%
%TO.N,/S1_MOTOR*%
X121290000Y-84258757D03*
%TO.P,J5,2,Pin_2*%
%TO.N,/S2_MOTOR*%
X121290000Y-86798757D03*
%TO.P,J5,3,Pin_3*%
%TO.N,/S3_MOTOR*%
X121290000Y-89338757D03*
%TO.P,J5,4,Pin_4*%
%TO.N,/S4_MOTOR*%
X121290000Y-91878757D03*
%TO.P,J5,5,Pin_5*%
%TO.N,GND*%
X121290000Y-94418757D03*
%TO.P,J5,6,Pin_6*%
%TO.N,+5V*%
X121290000Y-96958757D03*
%TO.P,J5,GND*%
%TO.N,N/C*%
X118750000Y-84258757D03*
X118750000Y-86798757D03*
X118750000Y-89338757D03*
X118750000Y-91878757D03*
%TD*%
D14*
%TO.P,U5,1,GND*%
%TO.N,GND*%
X152050000Y-85018757D03*
D15*
%TO.P,U5,2,VCC*%
%TO.N,+3V3*%
X154590000Y-85018757D03*
%TO.P,U5,3,CE*%
%TO.N,/CE_NRF24L01*%
X152050000Y-87558757D03*
%TO.P,U5,4,CSK*%
%TO.N,/CSN_NRF24L01*%
X154590000Y-87558757D03*
%TO.P,U5,5,SCK*%
%TO.N,/SCK_NRF24L01*%
X152050000Y-90098757D03*
%TO.P,U5,6,MOSI*%
%TO.N,/MOSI_NRF24L01*%
X154590000Y-90098757D03*
%TO.P,U5,7,MISO*%
%TO.N,/MISO_NRF24L01*%
X152050000Y-92638757D03*
%TO.P,U5,8,IRQ*%
%TO.N,unconnected-(U5-IRQ-Pad8)*%
X154590000Y-92638757D03*
%TD*%
D16*
%TO.P,H4,1*%
%TO.N,N/C*%
X122000000Y-105858757D03*
%TD*%
%TO.P,H3,1*%
%TO.N,N/C*%
X152500000Y-105858757D03*
%TD*%
%TO.P,H2,1*%
%TO.N,N/C*%
X152500000Y-75358757D03*
%TD*%
%TO.P,H1,1*%
%TO.N,N/C*%
X122000000Y-75358757D03*
%TD*%
D17*
%TO.P,R5,1*%
%TO.N,+3V3*%
X140400000Y-82325000D03*
%TO.P,R5,2*%
%TO.N,/SCL*%
X140400000Y-80875000D03*
%TD*%
D18*
%TO.P,R10,1*%
%TO.N,/IO0*%
X141475000Y-95908757D03*
%TO.P,R10,2*%
%TO.N,+3V3*%
X140025000Y-95908757D03*
%TD*%
D19*
%TO.P,C10,1*%
%TO.N,+3V3*%
X138100000Y-95908757D03*
%TO.P,C10,2*%
%TO.N,GND*%
X136400000Y-95908757D03*
%TD*%
D18*
%TO.P,R7,1*%
%TO.N,/TXD0*%
X141025000Y-77518757D03*
%TO.P,R7,2*%
%TO.N,Net-(U4-RXD)*%
X139575000Y-77518757D03*
%TD*%
D19*
%TO.P,C9,1*%
%TO.N,+3V3*%
X138100000Y-93968757D03*
%TO.P,C9,2*%
%TO.N,GND*%
X136400000Y-93968757D03*
%TD*%
D20*
%TO.P,C7,1*%
%TO.N,GND*%
X133340000Y-93068757D03*
%TO.P,C7,2*%
%TO.N,Net-(U3-CPOUT)*%
X133340000Y-91368757D03*
%TD*%
D18*
%TO.P,R4,1*%
%TO.N,+3V3*%
X136925000Y-87200000D03*
%TO.P,R4,2*%
%TO.N,/SDA*%
X135475000Y-87200000D03*
%TD*%
D20*
%TO.P,C1,1*%
%TO.N,GND*%
X140650000Y-74858757D03*
%TO.P,C1,2*%
%TO.N,+5V*%
X140650000Y-73158757D03*
%TD*%
%TO.P,C3,1*%
%TO.N,GND*%
X134250000Y-74858757D03*
%TO.P,C3,2*%
%TO.N,+3V3*%
X134250000Y-73158757D03*
%TD*%
D21*
%TO.P,U2,1,VIN*%
%TO.N,+5V*%
X138635000Y-73058757D03*
%TO.P,U2,2,GND*%
%TO.N,GND*%
X138635000Y-74008757D03*
%TO.P,U2,3,EN*%
X138635000Y-74958757D03*
%TO.P,U2,4,NC*%
%TO.N,unconnected-(U2-NC-Pad4)*%
X136265000Y-74958757D03*
%TO.P,U2,5,VOUT*%
%TO.N,+3V3*%
X136265000Y-73058757D03*
%TD*%
D20*
%TO.P,C8,1*%
%TO.N,GND*%
X140850000Y-89158757D03*
%TO.P,C8,2*%
%TO.N,Net-(U3-REGOUT)*%
X140850000Y-90858757D03*
%TD*%
D22*
%TO.P,U3,1,CLKIN*%
%TO.N,GND*%
X136000000Y-88873757D03*
%TO.P,U3,2,RESV*%
%TO.N,unconnected-(U3-RESV-Pad2)*%
X136500000Y-88873757D03*
%TO.P,U3,3,VDD*%
%TO.N,+3V3*%
X137000000Y-88873757D03*
%TO.P,U3,4,RESV*%
%TO.N,unconnected-(U3-RESV-Pad4)*%
X137500000Y-88873757D03*
%TO.P,U3,5,RESV*%
%TO.N,unconnected-(U3-RESV-Pad5)*%
X138000000Y-88873757D03*
%TO.P,U3,6,ES_DA*%
%TO.N,unconnected-(U3-ES_DA-Pad6)*%
X138500000Y-88873757D03*
D23*
%TO.P,U3,7,ES_CL*%
%TO.N,unconnected-(U3-ES_CL-Pad7)*%
X138985000Y-89358757D03*
%TO.P,U3,8,VLOGIC*%
%TO.N,+3V3*%
X138985000Y-89858757D03*
%TO.P,U3,9,AD0*%
%TO.N,GND*%
X138985000Y-90358757D03*
%TO.P,U3,10,REGOUT*%
%TO.N,Net-(U3-REGOUT)*%
X138985000Y-90858757D03*
%TO.P,U3,11,FSYNC*%
%TO.N,GND*%
X138985000Y-91358757D03*
%TO.P,U3,12,INT*%
%TO.N,/INT*%
X138985000Y-91858757D03*
D22*
%TO.P,U3,13,VDD*%
%TO.N,+3V3*%
X138500000Y-92343757D03*
%TO.P,U3,14,RESV*%
%TO.N,unconnected-(U3-RESV-Pad14)*%
X138000000Y-92343757D03*
%TO.P,U3,15,GND*%
%TO.N,GND*%
X137500000Y-92343757D03*
%TO.P,U3,16,RESV*%
%TO.N,unconnected-(U3-RESV-Pad16)*%
X137000000Y-92343757D03*
%TO.P,U3,17,GND*%
%TO.N,GND*%
X136500000Y-92343757D03*
%TO.P,U3,18,GND*%
X136000000Y-92343757D03*
D23*
%TO.P,U3,19,RESV*%
%TO.N,unconnected-(U3-RESV-Pad19)*%
X135515000Y-91858757D03*
%TO.P,U3,20,CPOUT*%
%TO.N,Net-(U3-CPOUT)*%
X135515000Y-91358757D03*
%TO.P,U3,21,RESV*%
%TO.N,unconnected-(U3-RESV-Pad21)*%
X135515000Y-90858757D03*
%TO.P,U3,22,RESV*%
%TO.N,unconnected-(U3-RESV-Pad22)*%
X135515000Y-90358757D03*
%TO.P,U3,23,SCL*%
%TO.N,/SCL*%
X135515000Y-89858757D03*
%TO.P,U3,24,SDA*%
%TO.N,/SDA*%
X135515000Y-89358757D03*
%TD*%
D18*
%TO.P,R6,1*%
%TO.N,/RXD0*%
X141025000Y-79168757D03*
%TO.P,R6,2*%
%TO.N,Net-(U4-TXD)*%
X139575000Y-79168757D03*
%TD*%
D24*
%TO.N,GND*%
X152050000Y-81658757D03*
D25*
X121550000Y-72058757D03*
D24*
X147800000Y-71800000D03*
X134600000Y-92400000D03*
D25*
%TO.N,+3V3*%
X127200000Y-73200000D03*
D24*
X136920000Y-86060000D03*
D25*
%TO.N,/EN*%
X125750000Y-93958757D03*
X125750000Y-78000000D03*
%TO.N,/IO0*%
X144000000Y-95918757D03*
X145030000Y-100398757D03*
D24*
%TO.N,/SDA*%
X135480000Y-85040000D03*
%TO.N,/SCL*%
X147600000Y-74478257D03*
D25*
%TO.N,Net-(U4-TXD)*%
X134070000Y-99948757D03*
%TO.N,Net-(U4-RXD)*%
X135345000Y-102800000D03*
D24*
%TO.N,/CE_NRF24L01*%
X144280000Y-84750000D03*
D26*
%TO.N,/INT*%
X142725000Y-87575000D03*
D24*
%TO.N,/SCK_NRF24L01*%
X148917243Y-82082757D03*
X149050000Y-84830000D03*
D25*
%TO.N,/MISO_NRF24L01*%
X147600000Y-85770000D03*
X147600000Y-89600000D03*
X147600000Y-80820000D03*
%TO.N,/RXD0*%
X147600000Y-76950000D03*
%TO.N,/TXD0*%
X147600000Y-75659625D03*
%TO.N,/MOSI_NRF24L01*%
X150290000Y-73170000D03*
%TD*%
D27*
%TO.N,GND*%
X136015000Y-88888757D02*
X136000000Y-88873757D01*
D28*
X133635622Y-95704378D02*
X133340000Y-95408757D01*
X136500000Y-93028757D02*
X136400000Y-93128757D01*
X136400000Y-93968757D02*
X136400000Y-95908757D01*
D29*
X140000000Y-108018757D02*
X140340000Y-108358757D01*
X135000000Y-105658757D02*
X135000000Y-107333757D01*
X135000000Y-105658757D02*
X137470000Y-105658757D01*
X137470000Y-105658757D02*
X137470000Y-99978757D01*
X137470000Y-105658757D02*
X140000000Y-105658757D01*
D30*
X140340000Y-108358757D02*
X141025000Y-108358757D01*
X120750000Y-72058757D02*
X119504379Y-73304379D01*
D27*
X138985000Y-91358757D02*
X137540000Y-91358757D01*
X137500000Y-92343757D02*
X137500000Y-91398757D01*
D28*
X133840000Y-95908757D02*
X133635622Y-95704378D01*
D30*
X118750000Y-74058758D02*
X119504379Y-73304379D01*
D29*
X137470000Y-99978757D02*
X136400000Y-98908757D01*
D28*
X136000000Y-92343757D02*
X136500000Y-92343757D01*
D30*
X133975000Y-108358757D02*
X140340000Y-108358757D01*
X152050000Y-85018757D02*
X152050000Y-81658757D01*
D29*
X136400000Y-98908757D02*
X136400000Y-95908757D01*
D28*
X136400000Y-95908757D02*
X133840000Y-95908757D01*
D29*
X135000000Y-107333757D02*
X133975000Y-108358757D01*
D27*
X140021243Y-89158757D02*
X140850000Y-89158757D01*
X137540000Y-91358757D02*
X137500000Y-91398757D01*
D28*
X136500000Y-92343757D02*
X136500000Y-93028757D01*
D27*
X136015000Y-89883757D02*
X136015000Y-88888757D01*
D28*
X136400000Y-93128757D02*
X136400000Y-93968757D01*
D27*
X136490000Y-90358757D02*
X136500000Y-90368757D01*
X136490000Y-90358757D02*
X136015000Y-89883757D01*
D29*
X140000000Y-105658757D02*
X140000000Y-108018757D01*
D30*
X138635000Y-74958757D02*
X138635000Y-74008757D01*
D27*
X137500000Y-90368757D02*
X137490000Y-90358757D01*
D30*
X121550000Y-72058757D02*
X120750000Y-72058757D01*
D27*
X137490000Y-90358757D02*
X136490000Y-90358757D01*
X137500000Y-91398757D02*
X137500000Y-90368757D01*
X138985000Y-90358757D02*
X139561243Y-90358757D01*
D30*
X140550000Y-74958757D02*
X140650000Y-74858757D01*
D27*
X138985000Y-90358757D02*
X137490000Y-90358757D01*
D30*
X118750000Y-84258757D02*
X118750000Y-74058758D01*
D27*
X139840000Y-90080000D02*
X139840000Y-89340000D01*
D28*
X133340000Y-95408757D02*
X133340000Y-93068757D01*
D27*
X139561243Y-90358757D02*
X139840000Y-90080000D01*
D30*
X138635000Y-74958757D02*
X140550000Y-74958757D01*
D27*
X139840000Y-89340000D02*
X140021243Y-89158757D01*
D30*
X119504379Y-73304379D02*
X119210000Y-73598757D01*
D27*
X136500000Y-90368757D02*
X136500000Y-92343757D01*
D28*
X133340000Y-93068757D02*
X133340000Y-95146617D01*
D29*
%TO.N,+5V*%
X126800000Y-75923832D02*
X125600000Y-74723832D01*
X140650000Y-72128757D02*
X140650000Y-73158757D01*
D30*
X140550000Y-73058757D02*
X140650000Y-73158757D01*
D29*
X140220000Y-71698757D02*
X140650000Y-72128757D01*
X125600000Y-72200000D02*
X126101243Y-71698757D01*
X126200000Y-96958757D02*
X126800000Y-96358757D01*
D30*
X139720000Y-73058757D02*
X140550000Y-73058757D01*
X138635000Y-73058757D02*
X139720000Y-73058757D01*
D29*
X126800000Y-96358757D02*
X126800000Y-75923832D01*
X125600000Y-74723832D02*
X125600000Y-72200000D01*
X121290000Y-96958757D02*
X126200000Y-96958757D01*
X126101243Y-71698757D02*
X140220000Y-71698757D01*
D30*
%TO.N,+3V3*%
X138150000Y-95858757D02*
X138100000Y-95908757D01*
X144280000Y-92758757D02*
X144280000Y-86858757D01*
X143221243Y-82346243D02*
X143242486Y-82325000D01*
D27*
X137290000Y-89858757D02*
X137000000Y-89568757D01*
D30*
X140025000Y-95908757D02*
X138100000Y-95908757D01*
X144280000Y-86858757D02*
X143221243Y-85800000D01*
X140910000Y-93418757D02*
X143620000Y-93418757D01*
X143242486Y-82325000D02*
X143875000Y-82325000D01*
D27*
X138985000Y-89858757D02*
X137290000Y-89858757D01*
D30*
X127241243Y-73158757D02*
X134250000Y-73158757D01*
X127200000Y-73200000D02*
X127241243Y-73158757D01*
X136920000Y-86060000D02*
X136920000Y-87195000D01*
X140025000Y-95908757D02*
X140025000Y-94303757D01*
D27*
X137000000Y-88873757D02*
X137000000Y-87275000D01*
X137000000Y-87275000D02*
X136925000Y-87200000D01*
D30*
X136920000Y-86060000D02*
X136920000Y-82880000D01*
D27*
X137000000Y-89568757D02*
X137000000Y-88873757D01*
D30*
X136265000Y-73058757D02*
X134350000Y-73058757D01*
D28*
X138500000Y-92868757D02*
X138100000Y-93268757D01*
D30*
X143620000Y-93418757D02*
X144280000Y-92758757D01*
X140400000Y-82325000D02*
X143875000Y-82325000D01*
D28*
X138100000Y-93268757D02*
X138100000Y-93968757D01*
D30*
X154590000Y-85018757D02*
X154590000Y-81618757D01*
X136920000Y-82880000D02*
X137475000Y-82325000D01*
D28*
X138500000Y-92343757D02*
X138500000Y-92868757D01*
D30*
X143875000Y-82325000D02*
X144300000Y-81900000D01*
D28*
X138100000Y-93968757D02*
X138100000Y-95908757D01*
D30*
X137000000Y-87125000D02*
X136925000Y-87200000D01*
X146780000Y-79420000D02*
X153311243Y-79420000D01*
X154590000Y-80698757D02*
X154590000Y-81618757D01*
X137475000Y-82325000D02*
X140400000Y-82325000D01*
X153311243Y-79420000D02*
X154590000Y-80698757D01*
X143221243Y-85800000D02*
X143221243Y-82346243D01*
X140025000Y-94303757D02*
X140910000Y-93418757D01*
X134350000Y-73058757D02*
X134250000Y-73158757D01*
X136920000Y-87195000D02*
X136925000Y-87200000D01*
X144300000Y-81900000D02*
X146780000Y-79420000D01*
D28*
%TO.N,Net-(U3-CPOUT)*%
X135515000Y-91358757D02*
X133350000Y-91358757D01*
D27*
X133350000Y-91358757D02*
X133340000Y-91368757D01*
D28*
%TO.N,Net-(U3-REGOUT)*%
X140850000Y-90858757D02*
X138985000Y-90858757D01*
D30*
%TO.N,/EN*%
X125750000Y-78000000D02*
X125750000Y-93958757D01*
%TO.N,/IO0*%
X145030000Y-100398757D02*
X145030000Y-97018757D01*
X145030000Y-97018757D02*
X143920000Y-95908757D01*
X143920000Y-95908757D02*
X141475000Y-95908757D01*
D28*
%TO.N,/SDA*%
X135400000Y-89243757D02*
X135400000Y-88400000D01*
X135400000Y-88400000D02*
X135475000Y-88325000D01*
X135475000Y-88325000D02*
X135475000Y-87200000D01*
X135475000Y-87200000D02*
X135475000Y-85045000D01*
X135475000Y-85045000D02*
X135480000Y-85040000D01*
D31*
X135537500Y-85042500D02*
X135475000Y-85105000D01*
D28*
X135515000Y-89358757D02*
X135400000Y-89243757D01*
D31*
%TO.N,/SCL*%
X149200000Y-75000000D02*
X148600000Y-74400000D01*
X148600000Y-74400000D02*
X147678257Y-74400000D01*
D28*
X134000000Y-89400000D02*
X134000000Y-84200000D01*
D31*
X142925000Y-80875000D02*
X145600000Y-78200000D01*
D28*
X134458757Y-89858757D02*
X134000000Y-89400000D01*
D31*
X140400000Y-80875000D02*
X142925000Y-80875000D01*
D28*
X137325000Y-80875000D02*
X140400000Y-80875000D01*
D31*
X149200000Y-77000000D02*
X149200000Y-75000000D01*
D28*
X135515000Y-89858757D02*
X134458757Y-89858757D01*
D31*
X145600000Y-78200000D02*
X148000000Y-78200000D01*
X148000000Y-78200000D02*
X149200000Y-77000000D01*
D28*
X134000000Y-84200000D02*
X137325000Y-80875000D01*
D31*
X147678257Y-74400000D02*
X147600000Y-74478257D01*
D30*
%TO.N,Net-(U4-TXD)*%
X134070000Y-99948757D02*
X132948757Y-99948757D01*
X132948757Y-99948757D02*
X132000000Y-99000000D01*
X132000000Y-84400000D02*
X137231243Y-79168757D01*
X137231243Y-79168757D02*
X139575000Y-79168757D01*
X132000000Y-99000000D02*
X132000000Y-84400000D01*
%TO.N,Net-(U4-RXD)*%
X130800000Y-100800000D02*
X130800000Y-83600000D01*
X132800000Y-102800000D02*
X130800000Y-100800000D01*
X135345000Y-102800000D02*
X132800000Y-102800000D01*
X136881243Y-77518757D02*
X139575000Y-77518757D01*
X130800000Y-83600000D02*
X136881243Y-77518757D01*
%TO.N,/CE_NRF24L01*%
X145750000Y-85458757D02*
X145750000Y-86958757D01*
X144280000Y-84750000D02*
X145041243Y-84750000D01*
X145041243Y-84750000D02*
X145750000Y-85458757D01*
X146350000Y-87558757D02*
X152050000Y-87558757D01*
X145750000Y-86958757D02*
X146350000Y-87558757D01*
D28*
%TO.N,/INT*%
X141575000Y-92480000D02*
X139600000Y-92480000D01*
X138985000Y-91865000D02*
X138985000Y-91858757D01*
X142700000Y-91355000D02*
X141575000Y-92480000D01*
X142725000Y-87575000D02*
X142700000Y-87600000D01*
X142700000Y-87600000D02*
X142700000Y-91355000D01*
X139600000Y-92480000D02*
X138985000Y-91865000D01*
D30*
%TO.N,/SCK_NRF24L01*%
X148917243Y-82082757D02*
X149050000Y-82215514D01*
X149050000Y-82215514D02*
X149050000Y-84830000D01*
%TO.N,/MISO_NRF24L01*%
X147600000Y-85770000D02*
X147600000Y-80820000D01*
X148968757Y-92638757D02*
X152050000Y-92638757D01*
X147850000Y-80950000D02*
X147840000Y-80960000D01*
X147600000Y-91270000D02*
X148968757Y-92638757D01*
X147600000Y-89600000D02*
X147600000Y-91270000D01*
%TO.N,/RXD0*%
X142005622Y-79168757D02*
X141025000Y-79168757D01*
X144224379Y-76950000D02*
X142005622Y-79168757D01*
X147600000Y-76950000D02*
X144224379Y-76950000D01*
%TO.N,/TXD0*%
X142169132Y-75659625D02*
X141025000Y-76803757D01*
X147600000Y-75659625D02*
X142169132Y-75659625D01*
X141025000Y-76803757D02*
X141025000Y-77518757D01*
%TO.N,/MOSI_NRF24L01*%
X154370000Y-73160000D02*
X156490000Y-75280000D01*
X150290000Y-73170000D02*
X150300000Y-73160000D01*
X156490000Y-89570000D02*
X155961243Y-90098757D01*
X150300000Y-73160000D02*
X154370000Y-73160000D01*
X155961243Y-90098757D02*
X154590000Y-90098757D01*
X156490000Y-75280000D02*
X156490000Y-89570000D01*
%TD*%
%TA.AperFunction,Conductor*%
%TO.N,GND*%
G36*
X152546594Y-70611291D02*
G01*
X152687675Y-70617450D01*
X152915812Y-70628021D01*
X152926227Y-70628946D01*
X153125595Y-70655193D01*
X153125925Y-70655238D01*
X153338875Y-70684943D01*
X153348515Y-70686681D01*
X153549265Y-70731187D01*
X153550434Y-70731454D01*
X153755043Y-70779577D01*
X153763885Y-70782007D01*
X153961722Y-70844384D01*
X153963637Y-70845007D01*
X154161035Y-70911168D01*
X154169029Y-70914159D01*
X154361564Y-70993909D01*
X154364044Y-70994970D01*
X154553574Y-71078655D01*
X154560688Y-71082073D01*
X154746034Y-71178558D01*
X154749072Y-71180195D01*
X154929437Y-71280657D01*
X154935682Y-71284380D01*
X155112229Y-71396852D01*
X155115640Y-71399106D01*
X155285698Y-71515597D01*
X155291079Y-71519501D01*
X155457287Y-71647036D01*
X155460970Y-71649976D01*
X155619409Y-71781540D01*
X155623958Y-71785509D01*
X155778063Y-71926719D01*
X155778477Y-71927098D01*
X155782380Y-71930834D01*
X155927949Y-72076402D01*
X155931673Y-72080293D01*
X156073255Y-72234802D01*
X156077230Y-72239357D01*
X156208772Y-72397765D01*
X156211750Y-72401496D01*
X156255965Y-72459117D01*
X156339278Y-72567691D01*
X156343180Y-72573070D01*
X156369480Y-72611463D01*
X156459655Y-72743102D01*
X156461935Y-72746553D01*
X156574375Y-72923046D01*
X156578124Y-72929332D01*
X156678568Y-73109660D01*
X156680228Y-73112742D01*
X156776697Y-73298054D01*
X156780142Y-73305224D01*
X156801360Y-73353276D01*
X156863795Y-73494676D01*
X156864900Y-73497259D01*
X156944611Y-73689698D01*
X156947622Y-73697744D01*
X157013750Y-73895038D01*
X157014439Y-73897157D01*
X157076769Y-74094839D01*
X157079214Y-74103736D01*
X157127309Y-74308213D01*
X157127663Y-74309765D01*
X157172100Y-74510200D01*
X157173851Y-74519907D01*
X157184757Y-74598085D01*
X157177982Y-74658940D01*
X157142913Y-74709134D01*
X157088101Y-74736427D01*
X157026911Y-74734165D01*
X156974265Y-74702898D01*
X155970867Y-73699500D01*
X154945728Y-72674360D01*
X154933946Y-72660727D01*
X154919609Y-72641469D01*
X154881666Y-72609631D01*
X154873691Y-72602323D01*
X154869782Y-72598414D01*
X154869777Y-72598409D01*
X154845423Y-72579152D01*
X154842647Y-72576890D01*
X154784251Y-72527890D01*
X154767821Y-72517422D01*
X154698691Y-72485186D01*
X154695447Y-72483615D01*
X154627306Y-72449394D01*
X154608903Y-72442997D01*
X154534211Y-72427574D01*
X154530692Y-72426794D01*
X154456490Y-72409208D01*
X154437121Y-72407229D01*
X154360869Y-72409448D01*
X154357263Y-72409500D01*
X150984793Y-72409500D01*
X150943019Y-72402251D01*
X150906128Y-72381353D01*
X150848537Y-72334089D01*
X150674726Y-72241185D01*
X150486133Y-72183976D01*
X150290000Y-72164659D01*
X150093866Y-72183976D01*
X149905273Y-72241185D01*
X149731463Y-72334089D01*
X149579117Y-72459117D01*
X149454089Y-72611463D01*
X149361185Y-72785273D01*
X149303976Y-72973866D01*
X149284659Y-73170000D01*
X149303976Y-73366133D01*
X149361185Y-73554726D01*
X149394532Y-73617113D01*
X149454090Y-73728538D01*
X149579117Y-73880883D01*
X149731462Y-74005910D01*
X149905273Y-74098814D01*
X150093868Y-74156024D01*
X150290000Y-74175341D01*
X150486132Y-74156024D01*
X150665171Y-74101712D01*
X150723179Y-74098343D01*
X150776356Y-74121773D01*
X150813020Y-74166856D01*
X150825119Y-74223692D01*
X150809995Y-74279800D01*
X150683464Y-74511525D01*
X150675751Y-74525650D01*
X150648734Y-74598085D01*
X150575754Y-74793752D01*
X150514933Y-75073346D01*
X150494519Y-75358757D01*
X150514933Y-75644167D01*
X150575754Y-75923761D01*
X150575756Y-75923766D01*
X150675751Y-76191864D01*
X150737426Y-76304812D01*
X150812883Y-76443002D01*
X150931270Y-76601148D01*
X150984359Y-76672067D01*
X151186690Y-76874398D01*
X151201812Y-76885718D01*
X151415754Y-77045873D01*
X151415756Y-77045874D01*
X151666893Y-77183006D01*
X151934991Y-77283001D01*
X151934994Y-77283001D01*
X151934995Y-77283002D01*
X151963106Y-77289117D01*
X152214590Y-77343824D01*
X152500000Y-77364237D01*
X152785410Y-77343824D01*
X153065009Y-77283001D01*
X153333107Y-77183006D01*
X153584244Y-77045874D01*
X153813310Y-76874398D01*
X154015641Y-76672067D01*
X154187117Y-76443001D01*
X154324249Y-76191864D01*
X154424244Y-75923766D01*
X154485067Y-75644167D01*
X154505480Y-75358757D01*
X154485067Y-75073347D01*
X154424244Y-74793748D01*
X154324249Y-74525650D01*
X154316533Y-74511520D01*
X154301402Y-74455049D01*
X154313830Y-74397916D01*
X154351056Y-74352830D01*
X154404804Y-74329814D01*
X154463123Y-74333985D01*
X154513048Y-74364416D01*
X155703181Y-75554549D01*
X155730061Y-75594777D01*
X155739500Y-75642230D01*
X155739500Y-84083449D01*
X155725985Y-84139744D01*
X155688385Y-84183767D01*
X155634898Y-84205922D01*
X155577182Y-84201380D01*
X155527819Y-84171130D01*
X155404621Y-84047932D01*
X155404620Y-84047931D01*
X155393376Y-84040058D01*
X155354511Y-83995741D01*
X155340500Y-83938484D01*
X155340500Y-80762463D01*
X155341809Y-80744493D01*
X155342338Y-80740875D01*
X155345289Y-80720734D01*
X155340971Y-80671390D01*
X155340500Y-80660584D01*
X155340500Y-80655048D01*
X155339905Y-80649961D01*
X155336897Y-80624228D01*
X155336534Y-80620672D01*
X155329888Y-80544699D01*
X155325673Y-80525687D01*
X155299577Y-80453991D01*
X155298414Y-80450647D01*
X155274813Y-80379422D01*
X155274810Y-80379417D01*
X155274411Y-80378213D01*
X155265930Y-80360695D01*
X155265238Y-80359643D01*
X155265237Y-80359640D01*
X155223981Y-80296914D01*
X155222098Y-80293958D01*
X155182711Y-80230101D01*
X155182709Y-80230099D01*
X155182046Y-80229024D01*
X155169748Y-80213927D01*
X155114273Y-80161589D01*
X155111686Y-80159076D01*
X153886971Y-78934360D01*
X153875189Y-78920727D01*
X153860852Y-78901469D01*
X153822909Y-78869631D01*
X153814934Y-78862323D01*
X153811025Y-78858414D01*
X153811020Y-78858409D01*
X153786666Y-78839152D01*
X153783890Y-78836890D01*
X153725494Y-78787890D01*
X153709064Y-78777422D01*
X153639934Y-78745186D01*
X153636690Y-78743615D01*
X153568549Y-78709394D01*
X153550146Y-78702997D01*
X153475454Y-78687574D01*
X153471935Y-78686794D01*
X153397733Y-78669208D01*
X153378364Y-78667229D01*
X153302112Y-78669448D01*
X153298506Y-78669500D01*
X148820519Y-78669500D01*
X148764224Y-78655985D01*
X148720201Y-78618385D01*
X148698046Y-78564898D01*
X148702588Y-78507182D01*
X148732838Y-78457819D01*
X148921400Y-78269257D01*
X149677731Y-77512924D01*
X149683151Y-77507822D01*
X149728183Y-77467929D01*
X149762358Y-77418416D01*
X149766779Y-77412407D01*
X149803877Y-77365057D01*
X149808033Y-77355820D01*
X149819058Y-77336273D01*
X149824818Y-77327930D01*
X149846154Y-77271668D01*
X149849014Y-77264766D01*
X149873694Y-77209932D01*
X149875519Y-77199971D01*
X149881545Y-77178348D01*
X149885140Y-77168872D01*
X149892389Y-77109165D01*
X149893516Y-77101762D01*
X149904357Y-77042606D01*
X149900726Y-76982577D01*
X149900500Y-76975090D01*
X149900500Y-75024910D01*
X149900726Y-75017423D01*
X149902724Y-74984388D01*
X149904357Y-74957394D01*
X149893509Y-74898201D01*
X149892392Y-74890856D01*
X149885140Y-74831128D01*
X149881546Y-74821652D01*
X149875520Y-74800036D01*
X149873694Y-74790068D01*
X149848997Y-74735195D01*
X149846155Y-74728334D01*
X149824818Y-74672070D01*
X149819058Y-74663726D01*
X149808039Y-74644190D01*
X149803878Y-74634943D01*
X149775002Y-74598085D01*
X149766785Y-74587596D01*
X149762354Y-74581577D01*
X149728183Y-74532071D01*
X149683153Y-74492178D01*
X149677715Y-74487058D01*
X149112940Y-73922283D01*
X149107822Y-73916847D01*
X149067929Y-73871817D01*
X149018432Y-73837651D01*
X149012405Y-73833216D01*
X148965054Y-73796120D01*
X148955813Y-73791961D01*
X148936273Y-73780941D01*
X148927930Y-73775182D01*
X148927927Y-73775181D01*
X148927926Y-73775180D01*
X148871701Y-73753856D01*
X148864783Y-73750991D01*
X148809929Y-73726303D01*
X148799952Y-73724475D01*
X148778339Y-73718450D01*
X148768873Y-73714860D01*
X148709172Y-73707610D01*
X148701771Y-73706483D01*
X148642607Y-73695641D01*
X148582566Y-73699274D01*
X148575079Y-73699500D01*
X148091202Y-73699500D01*
X148040766Y-73688779D01*
X147879802Y-73617112D01*
X147694648Y-73577757D01*
X147694646Y-73577757D01*
X147505354Y-73577757D01*
X147505352Y-73577757D01*
X147320197Y-73617112D01*
X147147269Y-73694105D01*
X146994129Y-73805367D01*
X146867466Y-73946040D01*
X146772820Y-74109972D01*
X146714326Y-74289999D01*
X146694540Y-74478257D01*
X146714326Y-74666514D01*
X146740415Y-74746807D01*
X146744957Y-74804523D01*
X146722802Y-74858011D01*
X146678779Y-74895610D01*
X146622484Y-74909125D01*
X142232838Y-74909125D01*
X142214868Y-74907816D01*
X142200985Y-74905782D01*
X142191109Y-74904336D01*
X142191108Y-74904336D01*
X142141763Y-74908653D01*
X142130956Y-74909125D01*
X142125423Y-74909125D01*
X142094633Y-74912723D01*
X142091049Y-74913089D01*
X142015093Y-74919734D01*
X141996053Y-74923955D01*
X141924364Y-74950046D01*
X141920963Y-74951228D01*
X141848611Y-74975204D01*
X141831057Y-74983702D01*
X141767360Y-75025595D01*
X141764322Y-75027530D01*
X141699413Y-75067568D01*
X141682093Y-75081677D01*
X141671955Y-75088347D01*
X141639373Y-75103545D01*
X141603801Y-75108757D01*
X140900000Y-75108757D01*
X140900000Y-75816026D01*
X140890561Y-75863479D01*
X140863681Y-75903707D01*
X140539358Y-76228029D01*
X140525727Y-76239810D01*
X140506467Y-76254149D01*
X140474633Y-76292086D01*
X140467341Y-76300046D01*
X140463408Y-76303979D01*
X140444176Y-76328302D01*
X140441902Y-76331094D01*
X140392894Y-76389501D01*
X140382418Y-76405944D01*
X140350192Y-76475051D01*
X140348622Y-76478293D01*
X140308457Y-76558271D01*
X140306700Y-76557388D01*
X140281917Y-76601148D01*
X140220936Y-76633712D01*
X140151997Y-76628567D01*
X140142333Y-76624962D01*
X140142331Y-76624961D01*
X140007483Y-76574666D01*
X139947873Y-76568257D01*
X139947869Y-76568257D01*
X139202130Y-76568257D01*
X139142515Y-76574666D01*
X139007669Y-76624961D01*
X138944744Y-76672067D01*
X138892454Y-76711211D01*
X138886946Y-76718568D01*
X138843185Y-76755141D01*
X138787680Y-76768257D01*
X136944949Y-76768257D01*
X136926979Y-76766948D01*
X136913096Y-76764914D01*
X136903220Y-76763468D01*
X136903219Y-76763468D01*
X136853877Y-76767785D01*
X136843070Y-76768257D01*
X136837534Y-76768257D01*
X136806726Y-76771857D01*
X136803143Y-76772223D01*
X136727193Y-76778868D01*
X136708165Y-76783086D01*
X136636513Y-76809164D01*
X136633112Y-76810346D01*
X136560723Y-76834335D01*
X136543170Y-76842833D01*
X136479479Y-76884722D01*
X136476439Y-76886659D01*
X136411523Y-76926700D01*
X136396408Y-76939012D01*
X136344091Y-76994465D01*
X136341579Y-76997051D01*
X130314358Y-83024272D01*
X130300727Y-83036053D01*
X130281467Y-83050392D01*
X130249633Y-83088329D01*
X130242341Y-83096289D01*
X130238408Y-83100222D01*
X130219176Y-83124545D01*
X130216902Y-83127337D01*
X130167894Y-83185744D01*
X130157418Y-83202187D01*
X130125192Y-83271294D01*
X130123622Y-83274536D01*
X130089393Y-83342692D01*
X130082996Y-83361098D01*
X130067573Y-83435788D01*
X130066793Y-83439305D01*
X130049208Y-83513505D01*
X130047229Y-83532878D01*
X130049448Y-83609131D01*
X130049500Y-83612737D01*
X130049500Y-100736294D01*
X130048191Y-100754264D01*
X130044711Y-100778023D01*
X130049028Y-100827369D01*
X130049500Y-100838176D01*
X130049500Y-100843708D01*
X130053098Y-100874496D01*
X130053464Y-100878081D01*
X130060110Y-100954041D01*
X130064329Y-100973071D01*
X130064758Y-100974251D01*
X130064759Y-100974255D01*
X130090413Y-101044742D01*
X130091582Y-101048107D01*
X130115580Y-101120524D01*
X130124075Y-101138072D01*
X130165979Y-101201784D01*
X130167889Y-101204782D01*
X130207288Y-101268656D01*
X130207952Y-101269732D01*
X130220253Y-101284830D01*
X130221168Y-101285693D01*
X130221170Y-101285696D01*
X130265555Y-101327571D01*
X130275709Y-101337151D01*
X130278296Y-101339664D01*
X132224267Y-103285634D01*
X132236048Y-103299266D01*
X132250390Y-103318530D01*
X132288355Y-103350386D01*
X132296317Y-103357684D01*
X132300224Y-103361591D01*
X132324542Y-103380819D01*
X132327298Y-103383063D01*
X132384786Y-103431302D01*
X132384788Y-103431303D01*
X132385757Y-103432116D01*
X132402179Y-103442578D01*
X132471320Y-103474819D01*
X132474567Y-103476391D01*
X132542700Y-103510609D01*
X132561088Y-103517000D01*
X132562322Y-103517254D01*
X132562327Y-103517257D01*
X132635829Y-103532432D01*
X132639307Y-103533204D01*
X132686866Y-103544476D01*
X132713502Y-103550790D01*
X132732876Y-103552769D01*
X132734140Y-103552732D01*
X132734144Y-103552733D01*
X132809110Y-103550552D01*
X132812716Y-103550500D01*
X134638022Y-103550500D01*
X134679796Y-103557749D01*
X134716687Y-103578647D01*
X134786462Y-103635910D01*
X134960273Y-103728814D01*
X135148868Y-103786024D01*
X135345000Y-103805341D01*
X135541132Y-103786024D01*
X135729727Y-103728814D01*
X135903538Y-103635910D01*
X136055883Y-103510883D01*
X136180910Y-103358538D01*
X136273814Y-103184727D01*
X136331024Y-102996132D01*
X136350341Y-102800000D01*
X136331024Y-102603868D01*
X136273814Y-102415273D01*
X136180910Y-102241462D01*
X136055883Y-102089117D01*
X135903538Y-101964090D01*
X135881091Y-101952091D01*
X135729726Y-101871185D01*
X135541133Y-101813976D01*
X135443065Y-101804317D01*
X135345000Y-101794659D01*
X135344999Y-101794659D01*
X135148866Y-101813976D01*
X134960273Y-101871185D01*
X134786462Y-101964089D01*
X134716687Y-102021353D01*
X134679796Y-102042251D01*
X134638022Y-102049500D01*
X133162230Y-102049500D01*
X133114777Y-102040061D01*
X133074549Y-102013181D01*
X131586819Y-100525451D01*
X131559939Y-100485223D01*
X131550500Y-100437770D01*
X131550500Y-99911230D01*
X131564015Y-99854935D01*
X131601615Y-99810912D01*
X131655102Y-99788757D01*
X131712818Y-99793299D01*
X131762181Y-99823549D01*
X132373026Y-100434394D01*
X132384808Y-100448027D01*
X132399146Y-100467286D01*
X132437094Y-100499129D01*
X132445068Y-100506437D01*
X132448978Y-100510347D01*
X132473294Y-100529573D01*
X132476093Y-100531853D01*
X132534509Y-100580870D01*
X132550936Y-100591335D01*
X132620077Y-100623576D01*
X132623324Y-100625148D01*
X132691456Y-100659366D01*
X132709844Y-100665757D01*
X132711080Y-100666012D01*
X132711084Y-100666014D01*
X132784652Y-100681204D01*
X132787999Y-100681946D01*
X132861036Y-100699257D01*
X132861038Y-100699257D01*
X132862266Y-100699548D01*
X132881635Y-100701527D01*
X132882897Y-100701490D01*
X132882901Y-100701491D01*
X132955290Y-100699384D01*
X132957888Y-100699309D01*
X132961494Y-100699257D01*
X133363022Y-100699257D01*
X133404796Y-100706506D01*
X133441687Y-100727404D01*
X133463529Y-100745329D01*
X133511462Y-100784667D01*
X133685273Y-100877571D01*
X133873868Y-100934781D01*
X134070000Y-100954098D01*
X134266132Y-100934781D01*
X134454727Y-100877571D01*
X134628538Y-100784667D01*
X134780883Y-100659640D01*
X134905910Y-100507295D01*
X134998814Y-100333484D01*
X135056024Y-100144889D01*
X135075341Y-99948757D01*
X135056024Y-99752625D01*
X134998814Y-99564030D01*
X134905910Y-99390219D01*
X134780883Y-99237874D01*
X134628538Y-99112847D01*
X134606091Y-99100848D01*
X134454726Y-99019942D01*
X134266133Y-98962733D01*
X134070000Y-98943416D01*
X133873866Y-98962733D01*
X133685273Y-99019942D01*
X133511462Y-99112846D01*
X133441687Y-99170110D01*
X133404796Y-99191008D01*
X133363022Y-99198257D01*
X133310987Y-99198257D01*
X133263534Y-99188818D01*
X133223306Y-99161938D01*
X132786819Y-98725451D01*
X132759939Y-98685223D01*
X132750500Y-98637770D01*
X132750500Y-96158757D01*
X135350000Y-96158757D01*
X135350000Y-96456581D01*
X135356402Y-96516132D01*
X135406647Y-96650846D01*
X135492811Y-96765945D01*
X135607910Y-96852109D01*
X135742624Y-96902354D01*
X135802176Y-96908757D01*
X136150000Y-96908757D01*
X136150000Y-96158757D01*
X135350000Y-96158757D01*
X132750500Y-96158757D01*
X132750500Y-94242757D01*
X132756931Y-94218757D01*
X135350000Y-94218757D01*
X135350000Y-94516581D01*
X135356402Y-94576132D01*
X135406647Y-94710846D01*
X135492811Y-94825947D01*
X135510904Y-94839491D01*
X135547476Y-94883253D01*
X135560592Y-94938757D01*
X135547476Y-94994261D01*
X135510904Y-95038023D01*
X135492811Y-95051566D01*
X135406647Y-95166667D01*
X135356402Y-95301381D01*
X135350000Y-95360933D01*
X135350000Y-95658757D01*
X136150000Y-95658757D01*
X136150000Y-94218757D01*
X135350000Y-94218757D01*
X132756931Y-94218757D01*
X132767113Y-94180757D01*
X132812500Y-94135370D01*
X132874500Y-94118757D01*
X133090000Y-94118757D01*
X133090000Y-93318757D01*
X133590000Y-93318757D01*
X133590000Y-94118757D01*
X133887824Y-94118757D01*
X133947375Y-94112354D01*
X134082089Y-94062109D01*
X134197188Y-93975945D01*
X134283352Y-93860846D01*
X134333597Y-93726132D01*
X134340000Y-93666581D01*
X134340000Y-93318757D01*
X133590000Y-93318757D01*
X133090000Y-93318757D01*
X133090000Y-92942757D01*
X133106613Y-92880757D01*
X133152000Y-92835370D01*
X133214000Y-92818757D01*
X134340000Y-92818757D01*
X134340000Y-92470933D01*
X134333597Y-92411381D01*
X134278182Y-92262806D01*
X134270364Y-92219472D01*
X134278182Y-92176138D01*
X134283794Y-92161089D01*
X134283796Y-92161088D01*
X134301015Y-92114921D01*
X134327453Y-92072687D01*
X134368383Y-92044269D01*
X134417196Y-92034257D01*
X134698024Y-92034257D01*
X134756153Y-92048726D01*
X134800716Y-92088756D01*
X134814696Y-92126934D01*
X134815466Y-92126647D01*
X134820909Y-92141240D01*
X134871204Y-92276088D01*
X134957454Y-92391303D01*
X135072669Y-92477553D01*
X135207517Y-92527848D01*
X135220087Y-92529199D01*
X135272625Y-92547383D01*
X135311939Y-92586695D01*
X135330123Y-92639234D01*
X135331402Y-92651132D01*
X135381647Y-92785846D01*
X135467811Y-92900946D01*
X135488384Y-92916347D01*
X135524956Y-92960108D01*
X135538073Y-93015610D01*
X135524960Y-93071113D01*
X135503240Y-93097105D01*
X135503495Y-93097296D01*
X135406647Y-93226667D01*
X135356402Y-93361381D01*
X135350000Y-93420933D01*
X135350000Y-93718757D01*
X136150000Y-93718757D01*
X136150000Y-93052757D01*
X136166613Y-92990757D01*
X136212000Y-92945370D01*
X136274000Y-92928757D01*
X136324999Y-92928757D01*
X136325709Y-92928047D01*
X136375634Y-92897615D01*
X136433954Y-92893444D01*
X136487699Y-92916459D01*
X136582669Y-92987553D01*
X136582671Y-92987553D01*
X136596942Y-92998237D01*
X136596113Y-92999343D01*
X136611576Y-93009024D01*
X136639990Y-93049953D01*
X136650000Y-93098761D01*
X136650000Y-96908757D01*
X136997824Y-96908757D01*
X137057375Y-96902354D01*
X137205951Y-96846939D01*
X137249285Y-96839121D01*
X137292619Y-96846939D01*
X137307667Y-96852551D01*
X137307669Y-96852553D01*
X137442517Y-96902848D01*
X137502127Y-96909257D01*
X138697872Y-96909256D01*
X138757483Y-96902848D01*
X138892331Y-96852553D01*
X139007546Y-96766303D01*
X139016257Y-96754667D01*
X139050485Y-96708946D01*
X139094247Y-96672373D01*
X139149751Y-96659257D01*
X139237680Y-96659257D01*
X139293185Y-96672373D01*
X139336946Y-96708945D01*
X139342454Y-96716303D01*
X139457669Y-96802553D01*
X139592517Y-96852848D01*
X139652127Y-96859257D01*
X140397872Y-96859256D01*
X140457483Y-96852848D01*
X140592331Y-96802553D01*
X140675689Y-96740150D01*
X140723642Y-96718251D01*
X140776358Y-96718251D01*
X140824311Y-96740151D01*
X140904019Y-96799821D01*
X140907669Y-96802553D01*
X141042517Y-96852848D01*
X141102127Y-96859257D01*
X141847872Y-96859256D01*
X141907483Y-96852848D01*
X142042331Y-96802553D01*
X142157546Y-96716303D01*
X142163053Y-96708945D01*
X142206815Y-96672373D01*
X142262320Y-96659257D01*
X143280837Y-96659257D01*
X143322611Y-96666506D01*
X143359502Y-96687404D01*
X143397089Y-96718251D01*
X143441462Y-96754667D01*
X143615273Y-96847571D01*
X143803868Y-96904781D01*
X143816047Y-96905980D01*
X143856911Y-96917287D01*
X143891577Y-96941702D01*
X144243181Y-97293306D01*
X144270061Y-97333534D01*
X144279500Y-97380987D01*
X144279500Y-99691779D01*
X144272251Y-99733553D01*
X144251353Y-99770444D01*
X144194089Y-99840219D01*
X144101185Y-100014030D01*
X144043976Y-100202623D01*
X144024659Y-100398756D01*
X144043976Y-100594890D01*
X144101185Y-100783483D01*
X144151749Y-100878081D01*
X144194090Y-100957295D01*
X144319117Y-101109640D01*
X144471462Y-101234667D01*
X144645273Y-101327571D01*
X144833868Y-101384781D01*
X145030000Y-101404098D01*
X145226132Y-101384781D01*
X145414727Y-101327571D01*
X145588538Y-101234667D01*
X145740883Y-101109640D01*
X145865910Y-100957295D01*
X145958814Y-100783484D01*
X146016024Y-100594889D01*
X146035341Y-100398757D01*
X146016024Y-100202625D01*
X145958814Y-100014030D01*
X145865910Y-99840219D01*
X145808647Y-99770444D01*
X145787749Y-99733553D01*
X145780500Y-99691779D01*
X145780500Y-97082463D01*
X145781809Y-97064493D01*
X145782338Y-97060875D01*
X145785289Y-97040734D01*
X145780972Y-96991388D01*
X145780500Y-96980581D01*
X145780500Y-96975046D01*
X145776903Y-96944278D01*
X145776536Y-96940686D01*
X145773880Y-96910329D01*
X145769999Y-96865960D01*
X145769998Y-96865958D01*
X145769889Y-96864706D01*
X145765672Y-96845687D01*
X145763282Y-96839121D01*
X145739591Y-96774030D01*
X145738408Y-96770625D01*
X145714417Y-96698225D01*
X145705929Y-96680693D01*
X145705237Y-96679641D01*
X145705237Y-96679640D01*
X145663999Y-96616941D01*
X145662087Y-96613938D01*
X145622050Y-96549027D01*
X145609750Y-96533929D01*
X145554290Y-96481605D01*
X145551703Y-96479092D01*
X145038240Y-95965629D01*
X145013826Y-95930964D01*
X145002519Y-95890104D01*
X144986024Y-95722625D01*
X144928814Y-95534030D01*
X144835910Y-95360219D01*
X144710883Y-95207874D01*
X144558538Y-95082847D01*
X144536091Y-95070849D01*
X144384726Y-94989942D01*
X144196133Y-94932733D01*
X144000000Y-94913416D01*
X143803866Y-94932733D01*
X143615273Y-94989942D01*
X143441462Y-95082846D01*
X143383872Y-95130110D01*
X143346981Y-95151008D01*
X143305207Y-95158257D01*
X142262320Y-95158257D01*
X142206815Y-95145141D01*
X142163053Y-95108568D01*
X142157546Y-95101211D01*
X142042331Y-95014961D01*
X141907483Y-94964666D01*
X141847873Y-94958257D01*
X141847869Y-94958257D01*
X141102130Y-94958257D01*
X141042515Y-94964666D01*
X140981242Y-94987520D01*
X140942831Y-95001846D01*
X140884046Y-95008697D01*
X140828780Y-94987520D01*
X140789624Y-94943139D01*
X140775500Y-94885664D01*
X140775500Y-94665987D01*
X140784939Y-94618534D01*
X140811819Y-94578306D01*
X141184549Y-94205576D01*
X141224777Y-94178696D01*
X141272230Y-94169257D01*
X143556294Y-94169257D01*
X143574264Y-94170566D01*
X143578320Y-94171159D01*
X143598023Y-94174046D01*
X143647368Y-94169729D01*
X143658176Y-94169257D01*
X143663706Y-94169257D01*
X143663709Y-94169257D01*
X143694550Y-94165651D01*
X143698031Y-94165296D01*
X143772797Y-94158756D01*
X143772797Y-94158755D01*
X143774052Y-94158646D01*
X143793062Y-94154431D01*
X143794250Y-94153998D01*
X143794255Y-94153998D01*
X143864820Y-94128314D01*
X143868095Y-94127176D01*
X143939334Y-94103571D01*
X143939336Y-94103569D01*
X143940536Y-94103172D01*
X143958063Y-94094686D01*
X143959112Y-94093995D01*
X143959117Y-94093994D01*
X144021806Y-94052762D01*
X144024798Y-94050856D01*
X144088656Y-94011469D01*
X144088656Y-94011468D01*
X144089729Y-94010807D01*
X144104824Y-93998510D01*
X144105692Y-93997589D01*
X144105696Y-93997587D01*
X144157184Y-93943011D01*
X144159630Y-93940493D01*
X144765642Y-93334481D01*
X144779260Y-93322711D01*
X144798530Y-93308367D01*
X144830376Y-93270413D01*
X144837662Y-93262461D01*
X144841591Y-93258534D01*
X144860833Y-93234196D01*
X144863090Y-93231427D01*
X144887809Y-93201968D01*
X144911302Y-93173971D01*
X144911303Y-93173968D01*
X144912115Y-93173001D01*
X144922573Y-93156584D01*
X144923106Y-93155439D01*
X144923111Y-93155434D01*
X144954833Y-93087403D01*
X144956362Y-93084245D01*
X144990040Y-93017190D01*
X144990040Y-93017189D01*
X144990612Y-93016051D01*
X144997000Y-92997671D01*
X144997255Y-92996432D01*
X144997257Y-92996430D01*
X145012447Y-92922860D01*
X145013186Y-92919527D01*
X145030500Y-92846478D01*
X145030500Y-92846474D01*
X145030791Y-92845246D01*
X145032770Y-92825878D01*
X145032733Y-92824616D01*
X145032734Y-92824613D01*
X145030552Y-92749626D01*
X145030500Y-92746020D01*
X145030500Y-87599987D01*
X145044015Y-87543692D01*
X145081615Y-87499669D01*
X145135102Y-87477514D01*
X145192818Y-87482056D01*
X145242181Y-87512306D01*
X145774268Y-88044392D01*
X145786044Y-88058017D01*
X145800390Y-88077287D01*
X145838355Y-88109143D01*
X145846317Y-88116441D01*
X145850224Y-88120348D01*
X145874542Y-88139576D01*
X145877298Y-88141820D01*
X145934786Y-88190059D01*
X145934788Y-88190060D01*
X145935757Y-88190873D01*
X145952177Y-88201333D01*
X145953321Y-88201866D01*
X145953323Y-88201868D01*
X146021357Y-88233592D01*
X146024456Y-88235092D01*
X146082191Y-88264088D01*
X146092704Y-88269368D01*
X146111084Y-88275755D01*
X146112321Y-88276010D01*
X146112327Y-88276013D01*
X146185862Y-88291196D01*
X146189209Y-88291938D01*
X146262279Y-88309257D01*
X146262281Y-88309257D01*
X146263505Y-88309547D01*
X146282876Y-88311526D01*
X146284140Y-88311489D01*
X146284144Y-88311490D01*
X146359110Y-88309309D01*
X146362716Y-88309257D01*
X150969727Y-88309257D01*
X151026984Y-88323268D01*
X151071301Y-88362133D01*
X151079174Y-88373377D01*
X151235380Y-88529583D01*
X151416338Y-88656291D01*
X151535748Y-88711972D01*
X151545189Y-88716375D01*
X151597365Y-88762132D01*
X151616784Y-88828757D01*
X151597365Y-88895382D01*
X151545189Y-88941139D01*
X151416338Y-89001223D01*
X151235379Y-89127931D01*
X151079174Y-89284136D01*
X150952466Y-89465095D01*
X150859106Y-89665305D01*
X150801929Y-89878691D01*
X150782676Y-90098756D01*
X150801929Y-90318822D01*
X150859106Y-90532208D01*
X150927328Y-90678510D01*
X150952466Y-90732419D01*
X151079174Y-90913377D01*
X151235380Y-91069583D01*
X151416338Y-91196291D01*
X151471150Y-91221850D01*
X151545189Y-91256375D01*
X151597365Y-91302132D01*
X151616784Y-91368757D01*
X151597365Y-91435382D01*
X151545189Y-91481139D01*
X151416338Y-91541223D01*
X151235379Y-91667931D01*
X151079175Y-91824135D01*
X151071302Y-91835380D01*
X151026984Y-91874246D01*
X150969727Y-91888257D01*
X149330986Y-91888257D01*
X149283533Y-91878818D01*
X149243305Y-91851938D01*
X148386819Y-90995451D01*
X148359939Y-90955223D01*
X148350500Y-90907770D01*
X148350500Y-90306978D01*
X148357749Y-90265204D01*
X148378647Y-90228313D01*
X148412962Y-90186500D01*
X148435910Y-90158538D01*
X148528814Y-89984727D01*
X148586024Y-89796132D01*
X148605341Y-89600000D01*
X148586024Y-89403868D01*
X148528814Y-89215273D01*
X148435910Y-89041462D01*
X148310883Y-88889117D01*
X148158538Y-88764090D01*
X148158536Y-88764089D01*
X148158535Y-88764088D01*
X147984726Y-88671185D01*
X147796133Y-88613976D01*
X147600000Y-88594659D01*
X147403866Y-88613976D01*
X147215273Y-88671185D01*
X147041465Y-88764088D01*
X147041463Y-88764089D01*
X147041462Y-88764090D01*
X146919283Y-88864360D01*
X146889117Y-88889117D01*
X146764089Y-89041463D01*
X146671185Y-89215273D01*
X146613976Y-89403866D01*
X146594659Y-89600000D01*
X146613976Y-89796133D01*
X146671185Y-89984726D01*
X146764089Y-90158537D01*
X146821353Y-90228313D01*
X146842251Y-90265204D01*
X146849500Y-90306978D01*
X146849500Y-91206294D01*
X146848191Y-91224264D01*
X146844711Y-91248023D01*
X146849028Y-91297369D01*
X146849500Y-91308176D01*
X146849500Y-91313708D01*
X146853098Y-91344496D01*
X146853464Y-91348081D01*
X146860110Y-91424041D01*
X146864329Y-91443071D01*
X146864758Y-91444251D01*
X146864759Y-91444255D01*
X146890413Y-91514742D01*
X146891582Y-91518107D01*
X146915580Y-91590524D01*
X146924075Y-91608072D01*
X146965979Y-91671784D01*
X146967889Y-91674782D01*
X147007288Y-91738656D01*
X147007952Y-91739732D01*
X147020253Y-91754830D01*
X147021168Y-91755693D01*
X147021170Y-91755696D01*
X147027690Y-91761847D01*
X147075708Y-91807150D01*
X147078295Y-91809663D01*
X148393026Y-93124394D01*
X148404808Y-93138027D01*
X148419146Y-93157286D01*
X148419147Y-93157287D01*
X148426164Y-93163175D01*
X148457094Y-93189129D01*
X148465068Y-93196437D01*
X148468978Y-93200347D01*
X148493294Y-93219573D01*
X148496093Y-93221853D01*
X148554509Y-93270870D01*
X148570936Y-93281335D01*
X148640077Y-93313576D01*
X148643324Y-93315148D01*
X148711456Y-93349366D01*
X148729844Y-93355757D01*
X148731080Y-93356012D01*
X148731084Y-93356014D01*
X148804613Y-93371195D01*
X148808047Y-93371957D01*
X148854173Y-93382890D01*
X148882263Y-93389548D01*
X148901636Y-93391527D01*
X148902898Y-93391490D01*
X148902902Y-93391491D01*
X148975291Y-93389384D01*
X148977889Y-93389309D01*
X148981495Y-93389257D01*
X150969727Y-93389257D01*
X151026984Y-93403268D01*
X151071301Y-93442133D01*
X151079174Y-93453377D01*
X151235380Y-93609583D01*
X151416338Y-93736291D01*
X151616550Y-93829651D01*
X151829932Y-93886827D01*
X152050000Y-93906080D01*
X152270068Y-93886827D01*
X152483450Y-93829651D01*
X152683662Y-93736291D01*
X152864620Y-93609583D01*
X153020826Y-93453377D01*
X153147534Y-93272419D01*
X153207617Y-93143568D01*
X153253375Y-93091392D01*
X153320000Y-93071973D01*
X153386625Y-93091392D01*
X153432382Y-93143568D01*
X153492466Y-93272419D01*
X153619174Y-93453377D01*
X153775380Y-93609583D01*
X153956338Y-93736291D01*
X154156550Y-93829651D01*
X154369932Y-93886827D01*
X154590000Y-93906080D01*
X154810068Y-93886827D01*
X155023450Y-93829651D01*
X155223662Y-93736291D01*
X155404620Y-93609583D01*
X155560826Y-93453377D01*
X155687534Y-93272419D01*
X155780894Y-93072207D01*
X155838070Y-92858825D01*
X155857323Y-92638757D01*
X155838070Y-92418689D01*
X155780894Y-92205307D01*
X155687534Y-92005096D01*
X155560826Y-91824137D01*
X155404620Y-91667931D01*
X155223662Y-91541223D01*
X155094811Y-91481139D01*
X155042635Y-91435382D01*
X155023216Y-91368757D01*
X155042635Y-91302132D01*
X155094811Y-91256375D01*
X155121898Y-91243744D01*
X155223662Y-91196291D01*
X155404620Y-91069583D01*
X155560826Y-90913377D01*
X155568698Y-90902133D01*
X155613016Y-90863268D01*
X155670273Y-90849257D01*
X155897537Y-90849257D01*
X155915507Y-90850566D01*
X155919563Y-90851159D01*
X155939266Y-90854046D01*
X155988611Y-90849729D01*
X155999419Y-90849257D01*
X156004949Y-90849257D01*
X156004952Y-90849257D01*
X156035793Y-90845651D01*
X156039274Y-90845296D01*
X156114040Y-90838756D01*
X156114040Y-90838755D01*
X156115295Y-90838646D01*
X156134305Y-90834431D01*
X156135493Y-90833998D01*
X156135498Y-90833998D01*
X156206063Y-90808314D01*
X156209338Y-90807176D01*
X156280577Y-90783571D01*
X156280579Y-90783569D01*
X156281779Y-90783172D01*
X156299306Y-90774686D01*
X156300355Y-90773995D01*
X156300360Y-90773994D01*
X156363049Y-90732762D01*
X156366041Y-90730856D01*
X156429899Y-90691469D01*
X156429899Y-90691468D01*
X156430972Y-90690807D01*
X156446067Y-90678510D01*
X156446935Y-90677589D01*
X156446939Y-90677587D01*
X156498429Y-90623009D01*
X156500875Y-90620491D01*
X156975641Y-90145724D01*
X156989260Y-90133954D01*
X157008530Y-90119610D01*
X157030509Y-90093415D01*
X157079048Y-90058150D01*
X157138461Y-90049799D01*
X157194840Y-90070319D01*
X157234985Y-90114905D01*
X157249500Y-90173120D01*
X157249500Y-105856051D01*
X157249382Y-105861460D01*
X157241336Y-106045754D01*
X157241321Y-106046083D01*
X157230736Y-106274568D01*
X157229808Y-106285014D01*
X157203629Y-106483879D01*
X157203501Y-106484825D01*
X157173822Y-106697606D01*
X157172072Y-106707314D01*
X157127634Y-106907766D01*
X157127279Y-106909317D01*
X157079188Y-107113793D01*
X157076743Y-107122690D01*
X157014436Y-107320309D01*
X157013747Y-107322428D01*
X156947599Y-107519791D01*
X156944588Y-107527838D01*
X156864912Y-107720196D01*
X156863786Y-107722830D01*
X156780123Y-107912311D01*
X156776678Y-107919481D01*
X156680227Y-108104767D01*
X156678566Y-108107850D01*
X156578110Y-108288204D01*
X156574362Y-108294489D01*
X156461945Y-108470952D01*
X156459664Y-108474405D01*
X156343175Y-108644459D01*
X156339251Y-108649868D01*
X156211758Y-108816022D01*
X156208780Y-108819752D01*
X156077225Y-108978181D01*
X156073250Y-108982738D01*
X155931681Y-109137234D01*
X155927940Y-109141142D01*
X155782371Y-109286712D01*
X155778463Y-109290453D01*
X155623982Y-109432011D01*
X155619425Y-109435986D01*
X155460974Y-109567563D01*
X155457244Y-109570542D01*
X155291098Y-109698031D01*
X155285688Y-109701955D01*
X155115661Y-109818426D01*
X155112210Y-109820706D01*
X154935728Y-109933139D01*
X154929441Y-109936888D01*
X154749048Y-110037367D01*
X154745966Y-110039027D01*
X154560733Y-110135454D01*
X154553563Y-110138899D01*
X154364083Y-110222564D01*
X154361449Y-110223691D01*
X154169079Y-110303374D01*
X154161032Y-110306385D01*
X153963671Y-110372533D01*
X153961553Y-110373222D01*
X153763932Y-110435532D01*
X153755034Y-110437977D01*
X153550520Y-110486079D01*
X153548969Y-110486434D01*
X153348564Y-110530863D01*
X153338856Y-110532613D01*
X153125983Y-110562307D01*
X153125037Y-110562435D01*
X152926296Y-110588600D01*
X152915838Y-110589529D01*
X152677672Y-110600541D01*
X152677354Y-110600555D01*
X152503687Y-110608138D01*
X152498278Y-110608256D01*
X152448142Y-110608256D01*
X152448137Y-110608257D01*
X150286512Y-110608257D01*
X121839807Y-110601145D01*
X121834432Y-110601027D01*
X121798341Y-110599452D01*
X121798032Y-110599438D01*
X121585178Y-110589618D01*
X121574707Y-110588689D01*
X121363716Y-110560911D01*
X121362771Y-110560783D01*
X121162224Y-110532808D01*
X121152516Y-110531058D01*
X120944357Y-110484909D01*
X120942806Y-110484554D01*
X120746102Y-110438290D01*
X120737204Y-110435845D01*
X120533801Y-110371712D01*
X120531683Y-110371023D01*
X120392716Y-110324446D01*
X120340138Y-110306823D01*
X120332111Y-110303820D01*
X120206589Y-110251827D01*
X120135055Y-110222196D01*
X120132422Y-110221069D01*
X119947675Y-110139495D01*
X119940504Y-110136050D01*
X119751307Y-110037559D01*
X119748225Y-110035899D01*
X119571819Y-109937641D01*
X119565533Y-109933892D01*
X119385642Y-109819288D01*
X119382190Y-109817008D01*
X119313157Y-109769719D01*
X119215585Y-109702880D01*
X119210210Y-109698981D01*
X119040973Y-109569120D01*
X119037266Y-109566161D01*
X118881925Y-109437166D01*
X118877373Y-109433195D01*
X118720095Y-109289075D01*
X118716187Y-109285334D01*
X118573437Y-109142582D01*
X118569697Y-109138674D01*
X118425573Y-108981390D01*
X118421607Y-108976845D01*
X118292634Y-108821526D01*
X118289656Y-108817796D01*
X118240286Y-108753456D01*
X118159784Y-108648542D01*
X118155882Y-108643163D01*
X118132314Y-108608757D01*
X133100000Y-108608757D01*
X133100000Y-108781202D01*
X133115417Y-108922964D01*
X133176187Y-109103326D01*
X133274308Y-109266404D01*
X133405200Y-109404584D01*
X133562724Y-109511389D01*
X133724999Y-109576044D01*
X133725000Y-109576045D01*
X133725000Y-108608757D01*
X134225000Y-108608757D01*
X134225000Y-109572445D01*
X134300780Y-109551405D01*
X134468932Y-109462257D01*
X134613991Y-109339043D01*
X134729172Y-109187524D01*
X134809085Y-109014794D01*
X134850000Y-108828919D01*
X134850000Y-108608757D01*
X140150000Y-108608757D01*
X140150000Y-108781202D01*
X140165417Y-108922964D01*
X140226187Y-109103326D01*
X140324308Y-109266404D01*
X140455200Y-109404584D01*
X140612724Y-109511389D01*
X140774999Y-109576044D01*
X140775000Y-109576045D01*
X140775000Y-108608757D01*
X141275000Y-108608757D01*
X141275000Y-109572445D01*
X141350780Y-109551405D01*
X141518932Y-109462257D01*
X141663991Y-109339043D01*
X141779172Y-109187524D01*
X141859085Y-109014794D01*
X141900000Y-108828919D01*
X141900000Y-108608757D01*
X141275000Y-108608757D01*
X140775000Y-108608757D01*
X140150000Y-108608757D01*
X134850000Y-108608757D01*
X134225000Y-108608757D01*
X133725000Y-108608757D01*
X133100000Y-108608757D01*
X118132314Y-108608757D01*
X118041758Y-108476560D01*
X118039525Y-108473182D01*
X117924869Y-108293207D01*
X117921156Y-108286979D01*
X117822860Y-108110501D01*
X117821921Y-108108757D01*
X133100000Y-108108757D01*
X133725000Y-108108757D01*
X133725000Y-107145069D01*
X133724999Y-107145068D01*
X133649219Y-107166108D01*
X133481067Y-107255256D01*
X133336008Y-107378470D01*
X133220827Y-107529989D01*
X133140914Y-107702719D01*
X133100000Y-107888595D01*
X133100000Y-108108757D01*
X117821921Y-108108757D01*
X117821210Y-108107438D01*
X117793601Y-108054400D01*
X117722721Y-107918240D01*
X117719301Y-107911120D01*
X117637654Y-107726204D01*
X117636604Y-107723749D01*
X117554957Y-107526632D01*
X117551967Y-107518641D01*
X117487724Y-107326960D01*
X117487083Y-107324989D01*
X117422946Y-107121565D01*
X117420504Y-107112679D01*
X117374210Y-106915845D01*
X117373888Y-106914439D01*
X117327729Y-106706225D01*
X117325986Y-106696556D01*
X117297985Y-106495811D01*
X117297919Y-106495325D01*
X117270100Y-106283998D01*
X117269174Y-106273583D01*
X117259769Y-106070122D01*
X117251297Y-105876044D01*
X117251182Y-105870731D01*
X117251185Y-105858757D01*
X119994519Y-105858757D01*
X120014933Y-106144167D01*
X120075754Y-106423761D01*
X120075756Y-106423766D01*
X120175751Y-106691864D01*
X120261382Y-106848685D01*
X120312883Y-106943002D01*
X120484359Y-107172067D01*
X120686689Y-107374397D01*
X120915754Y-107545873D01*
X120915756Y-107545874D01*
X121166893Y-107683006D01*
X121434991Y-107783001D01*
X121434994Y-107783001D01*
X121434995Y-107783002D01*
X121474790Y-107791658D01*
X121714590Y-107843824D01*
X122000000Y-107864237D01*
X122285410Y-107843824D01*
X122565009Y-107783001D01*
X122833107Y-107683006D01*
X123084244Y-107545874D01*
X123313310Y-107374398D01*
X123515641Y-107172067D01*
X123538546Y-107141469D01*
X134225000Y-107141469D01*
X134225000Y-108108757D01*
X134850000Y-108108757D01*
X140150000Y-108108757D01*
X140775000Y-108108757D01*
X140775000Y-107145069D01*
X140774999Y-107145068D01*
X140699219Y-107166108D01*
X140531067Y-107255256D01*
X140386008Y-107378470D01*
X140270827Y-107529989D01*
X140190914Y-107702719D01*
X140150000Y-107888595D01*
X140150000Y-108108757D01*
X134850000Y-108108757D01*
X134850000Y-107936312D01*
X134834582Y-107794549D01*
X134773812Y-107614187D01*
X134675691Y-107451109D01*
X134544799Y-107312929D01*
X134387275Y-107206124D01*
X134225000Y-107141469D01*
X141275000Y-107141469D01*
X141275000Y-108108757D01*
X141900000Y-108108757D01*
X141900000Y-107936312D01*
X141884582Y-107794549D01*
X141823812Y-107614187D01*
X141725691Y-107451109D01*
X141594799Y-107312929D01*
X141437275Y-107206124D01*
X141275000Y-107141469D01*
X134225000Y-107141469D01*
X123538546Y-107141469D01*
X123687117Y-106943001D01*
X123824249Y-106691864D01*
X123924244Y-106423766D01*
X123985067Y-106144167D01*
X124001904Y-105908757D01*
X133983033Y-105908757D01*
X133989335Y-105938403D01*
X134066283Y-106111235D01*
X134177486Y-106264292D01*
X134318079Y-106390883D01*
X134481920Y-106485476D01*
X134661847Y-106543938D01*
X134750000Y-106553203D01*
X134750000Y-105908757D01*
X135250000Y-105908757D01*
X135250000Y-106553203D01*
X135338152Y-106543938D01*
X135518079Y-106485476D01*
X135681920Y-106390883D01*
X135822515Y-106264289D01*
X135933714Y-106111239D01*
X136010664Y-105938403D01*
X136016967Y-105908757D01*
X138933033Y-105908757D01*
X138939335Y-105938403D01*
X139016283Y-106111235D01*
X139127486Y-106264292D01*
X139268079Y-106390883D01*
X139431920Y-106485476D01*
X139611847Y-106543938D01*
X139750000Y-106558458D01*
X139750000Y-105908757D01*
X140250000Y-105908757D01*
X140250000Y-106558458D01*
X140388152Y-106543938D01*
X140568079Y-106485476D01*
X140731920Y-106390883D01*
X140872515Y-106264289D01*
X140983714Y-106111239D01*
X141060664Y-105938403D01*
X141066967Y-105908757D01*
X140250000Y-105908757D01*
X139750000Y-105908757D01*
X138933033Y-105908757D01*
X136016967Y-105908757D01*
X135250000Y-105908757D01*
X134750000Y-105908757D01*
X133983033Y-105908757D01*
X124001904Y-105908757D01*
X124005480Y-105858757D01*
X124005480Y-105858756D01*
X150494519Y-105858756D01*
X150514933Y-106144167D01*
X150575754Y-106423761D01*
X150575756Y-106423766D01*
X150675751Y-106691864D01*
X150761382Y-106848685D01*
X150812883Y-106943002D01*
X150984359Y-107172067D01*
X151186689Y-107374397D01*
X151415754Y-107545873D01*
X151415756Y-107545874D01*
X151666893Y-107683006D01*
X151934991Y-107783001D01*
X151934994Y-107783001D01*
X151934995Y-107783002D01*
X151974790Y-107791658D01*
X152214590Y-107843824D01*
X152500000Y-107864237D01*
X152785410Y-107843824D01*
X153065009Y-107783001D01*
X153333107Y-107683006D01*
X153584244Y-107545874D01*
X153813310Y-107374398D01*
X154015641Y-107172067D01*
X154187117Y-106943001D01*
X154324249Y-106691864D01*
X154424244Y-106423766D01*
X154485067Y-106144167D01*
X154505480Y-105858757D01*
X154505286Y-105856051D01*
X154504019Y-105838343D01*
X154485067Y-105573347D01*
X154424244Y-105293748D01*
X154324249Y-105025650D01*
X154187117Y-104774513D01*
X154179479Y-104764310D01*
X154015640Y-104545446D01*
X153813310Y-104343116D01*
X153584245Y-104171640D01*
X153489928Y-104120139D01*
X153333107Y-104034508D01*
X153065009Y-103934513D01*
X153065004Y-103934511D01*
X152785410Y-103873690D01*
X152500000Y-103853276D01*
X152214589Y-103873690D01*
X151934995Y-103934511D01*
X151836935Y-103971085D01*
X151666893Y-104034508D01*
X151604386Y-104068639D01*
X151415754Y-104171640D01*
X151186689Y-104343116D01*
X150984359Y-104545446D01*
X150812883Y-104774511D01*
X150781472Y-104832037D01*
X150675751Y-105025650D01*
X150612328Y-105195692D01*
X150575754Y-105293752D01*
X150514933Y-105573346D01*
X150494519Y-105858756D01*
X124005480Y-105858756D01*
X123985067Y-105573347D01*
X123949263Y-105408757D01*
X133983033Y-105408757D01*
X134750000Y-105408757D01*
X134750000Y-104764310D01*
X135250000Y-104764310D01*
X135250000Y-105408757D01*
X136016967Y-105408757D01*
X138933033Y-105408757D01*
X139750000Y-105408757D01*
X139750000Y-104759056D01*
X140250000Y-104759056D01*
X140250000Y-105408757D01*
X141066967Y-105408757D01*
X141060664Y-105379110D01*
X140983716Y-105206278D01*
X140872513Y-105053221D01*
X140731920Y-104926630D01*
X140568079Y-104832037D01*
X140388152Y-104773575D01*
X140250000Y-104759056D01*
X139750000Y-104759056D01*
X139611847Y-104773575D01*
X139431920Y-104832037D01*
X139268079Y-104926630D01*
X139127484Y-105053224D01*
X139016285Y-105206274D01*
X138939335Y-105379110D01*
X138933033Y-105408757D01*
X136016967Y-105408757D01*
X136010664Y-105379110D01*
X135933716Y-105206278D01*
X135822513Y-105053221D01*
X135681920Y-104926630D01*
X135518079Y-104832037D01*
X135338152Y-104773575D01*
X135250000Y-104764310D01*
X134750000Y-104764310D01*
X134661847Y-104773575D01*
X134481920Y-104832037D01*
X134318079Y-104926630D01*
X134177484Y-105053224D01*
X134066285Y-105206274D01*
X133989335Y-105379110D01*
X133983033Y-105408757D01*
X123949263Y-105408757D01*
X123924244Y-105293748D01*
X123824249Y-105025650D01*
X123687117Y-104774513D01*
X123679479Y-104764310D01*
X123515640Y-104545446D01*
X123313310Y-104343116D01*
X123084245Y-104171640D01*
X122989928Y-104120139D01*
X122833107Y-104034508D01*
X122565009Y-103934513D01*
X122565004Y-103934511D01*
X122285410Y-103873690D01*
X122000000Y-103853276D01*
X121714589Y-103873690D01*
X121434995Y-103934511D01*
X121336935Y-103971085D01*
X121166893Y-104034508D01*
X121104386Y-104068639D01*
X120915754Y-104171640D01*
X120686689Y-104343116D01*
X120484359Y-104545446D01*
X120312883Y-104774511D01*
X120281472Y-104832037D01*
X120175751Y-105025650D01*
X120112328Y-105195692D01*
X120075754Y-105293752D01*
X120014933Y-105573346D01*
X119994519Y-105858757D01*
X117251185Y-105858757D01*
X117254047Y-94418757D01*
X119910287Y-94418757D01*
X119929104Y-94645844D01*
X119985046Y-94866752D01*
X120076579Y-95075426D01*
X120156874Y-95198327D01*
X120936446Y-94418758D01*
X120936446Y-94418757D01*
X120936445Y-94418756D01*
X121643553Y-94418756D01*
X122423124Y-95198328D01*
X122503419Y-95075427D01*
X122594953Y-94866751D01*
X122650895Y-94645844D01*
X122669712Y-94418757D01*
X122650895Y-94191669D01*
X122594953Y-93970761D01*
X122503420Y-93762086D01*
X122423124Y-93639185D01*
X121643553Y-94418755D01*
X121643553Y-94418756D01*
X120936445Y-94418756D01*
X120156873Y-93639184D01*
X120076581Y-93762083D01*
X119985046Y-93970761D01*
X119929104Y-94191669D01*
X119910287Y-94418757D01*
X117254047Y-94418757D01*
X117254531Y-92485013D01*
X117272549Y-92420676D01*
X117321340Y-92375025D01*
X117386738Y-92361321D01*
X117449752Y-92383543D01*
X117492086Y-92435239D01*
X117536136Y-92535663D01*
X117536138Y-92535666D01*
X117660817Y-92726502D01*
X117815206Y-92894213D01*
X117995094Y-93034226D01*
X118195574Y-93142720D01*
X118232801Y-93155500D01*
X118411174Y-93216737D01*
X118636023Y-93254257D01*
X118863977Y-93254257D01*
X119088825Y-93216737D01*
X119216221Y-93173001D01*
X119304426Y-93142720D01*
X119504906Y-93034226D01*
X119684794Y-92894213D01*
X119839183Y-92726502D01*
X119916191Y-92608631D01*
X119960982Y-92567398D01*
X120020000Y-92552453D01*
X120079018Y-92567398D01*
X120123808Y-92608631D01*
X120200817Y-92726502D01*
X120355206Y-92894213D01*
X120535094Y-93034226D01*
X120541787Y-93037848D01*
X120545739Y-93039987D01*
X120593244Y-93085567D01*
X120610721Y-93149040D01*
X120593245Y-93212513D01*
X120545741Y-93258094D01*
X120535369Y-93263706D01*
X120509016Y-93284217D01*
X120509016Y-93284219D01*
X121289998Y-94065203D01*
X121289999Y-94065203D01*
X122070983Y-93284219D01*
X122070982Y-93284218D01*
X122044634Y-93263710D01*
X122034260Y-93258096D01*
X121986754Y-93212514D01*
X121969277Y-93149039D01*
X121986756Y-93085564D01*
X122034258Y-93039987D01*
X122044906Y-93034226D01*
X122224794Y-92894213D01*
X122379183Y-92726502D01*
X122503862Y-92535666D01*
X122595430Y-92326912D01*
X122651390Y-92105933D01*
X122670214Y-91878757D01*
X122651390Y-91651581D01*
X122595430Y-91430602D01*
X122515343Y-91248023D01*
X122503863Y-91221850D01*
X122493700Y-91206294D01*
X122379183Y-91031012D01*
X122224794Y-90863301D01*
X122152666Y-90807161D01*
X122044908Y-90723289D01*
X122034782Y-90717809D01*
X121987278Y-90672226D01*
X121969803Y-90608751D01*
X121987283Y-90545277D01*
X122034786Y-90499702D01*
X122044906Y-90494226D01*
X122224794Y-90354213D01*
X122379183Y-90186502D01*
X122503862Y-89995666D01*
X122595430Y-89786912D01*
X122651390Y-89565933D01*
X122670214Y-89338757D01*
X122651390Y-89111581D01*
X122595430Y-88890602D01*
X122507291Y-88689666D01*
X122503863Y-88681850D01*
X122496896Y-88671186D01*
X122379183Y-88491012D01*
X122224794Y-88323301D01*
X122183989Y-88291541D01*
X122044907Y-88183288D01*
X122034787Y-88177812D01*
X121987281Y-88132231D01*
X121969803Y-88068757D01*
X121987281Y-88005283D01*
X122034787Y-87959702D01*
X122044906Y-87954226D01*
X122224794Y-87814213D01*
X122379183Y-87646502D01*
X122503862Y-87455666D01*
X122595430Y-87246912D01*
X122651390Y-87025933D01*
X122670214Y-86798757D01*
X122651390Y-86571581D01*
X122595430Y-86350602D01*
X122503862Y-86141848D01*
X122379183Y-85951012D01*
X122224794Y-85783301D01*
X122201925Y-85765501D01*
X122044907Y-85643288D01*
X122034787Y-85637812D01*
X121987281Y-85592231D01*
X121969803Y-85528757D01*
X121987281Y-85465283D01*
X122034787Y-85419702D01*
X122044906Y-85414226D01*
X122224794Y-85274213D01*
X122379183Y-85106502D01*
X122503862Y-84915666D01*
X122595430Y-84706912D01*
X122651390Y-84485933D01*
X122670214Y-84258757D01*
X122651390Y-84031581D01*
X122595430Y-83810602D01*
X122503862Y-83601848D01*
X122379183Y-83411012D01*
X122224794Y-83243301D01*
X122044906Y-83103288D01*
X121844426Y-82994794D01*
X121844425Y-82994793D01*
X121844424Y-82994793D01*
X121628825Y-82920776D01*
X121403977Y-82883257D01*
X121176023Y-82883257D01*
X120951174Y-82920776D01*
X120735575Y-82994793D01*
X120663175Y-83033974D01*
X120535094Y-83103288D01*
X120535092Y-83103289D01*
X120535091Y-83103290D01*
X120355209Y-83243298D01*
X120355206Y-83243300D01*
X120355206Y-83243301D01*
X120200817Y-83411012D01*
X120127440Y-83523325D01*
X120123809Y-83528882D01*
X120079018Y-83570116D01*
X120020000Y-83585061D01*
X119960982Y-83570116D01*
X119916191Y-83528882D01*
X119839183Y-83411012D01*
X119684794Y-83243301D01*
X119504906Y-83103288D01*
X119304426Y-82994794D01*
X119304425Y-82994793D01*
X119304424Y-82994793D01*
X119088825Y-82920776D01*
X118863977Y-82883257D01*
X118636023Y-82883257D01*
X118411174Y-82920776D01*
X118195575Y-82994793D01*
X118123175Y-83033974D01*
X117995094Y-83103288D01*
X117995092Y-83103289D01*
X117995091Y-83103290D01*
X117815209Y-83243298D01*
X117815206Y-83243300D01*
X117815206Y-83243301D01*
X117660817Y-83411012D01*
X117619257Y-83474624D01*
X117536136Y-83601850D01*
X117494297Y-83697234D01*
X117451953Y-83748937D01*
X117388924Y-83771154D01*
X117323518Y-83757431D01*
X117274734Y-83711755D01*
X117256742Y-83647397D01*
X117258816Y-75358756D01*
X119994519Y-75358756D01*
X120014933Y-75644167D01*
X120075754Y-75923761D01*
X120075756Y-75923766D01*
X120175751Y-76191864D01*
X120237426Y-76304812D01*
X120312883Y-76443002D01*
X120431270Y-76601148D01*
X120484359Y-76672067D01*
X120686690Y-76874398D01*
X120701812Y-76885718D01*
X120915754Y-77045873D01*
X120915756Y-77045874D01*
X121166893Y-77183006D01*
X121434991Y-77283001D01*
X121434994Y-77283001D01*
X121434995Y-77283002D01*
X121463106Y-77289117D01*
X121714590Y-77343824D01*
X122000000Y-77364237D01*
X122285410Y-77343824D01*
X122565009Y-77283001D01*
X122833107Y-77183006D01*
X123084244Y-77045874D01*
X123313310Y-76874398D01*
X123515641Y-76672067D01*
X123687117Y-76443001D01*
X123824249Y-76191864D01*
X123924244Y-75923766D01*
X123985067Y-75644167D01*
X124005480Y-75358757D01*
X123985067Y-75073347D01*
X123924244Y-74793748D01*
X123824249Y-74525650D01*
X123687117Y-74274513D01*
X123676951Y-74260933D01*
X123538955Y-74076591D01*
X123515641Y-74045447D01*
X123313310Y-73843116D01*
X123277408Y-73816240D01*
X123084245Y-73671640D01*
X122919030Y-73581426D01*
X122833107Y-73534508D01*
X122565009Y-73434513D01*
X122565004Y-73434511D01*
X122285410Y-73373690D01*
X121999999Y-73353276D01*
X121714589Y-73373690D01*
X121434995Y-73434511D01*
X121336935Y-73471085D01*
X121166893Y-73534508D01*
X121129867Y-73554726D01*
X120915754Y-73671640D01*
X120686689Y-73843116D01*
X120484359Y-74045446D01*
X120312883Y-74274511D01*
X120224656Y-74436088D01*
X120175751Y-74525650D01*
X120144754Y-74608757D01*
X120075754Y-74793752D01*
X120014933Y-75073346D01*
X119994519Y-75358756D01*
X117258816Y-75358756D01*
X117258863Y-75169837D01*
X117258983Y-75164465D01*
X117259036Y-75163256D01*
X117268893Y-74950046D01*
X117269197Y-74943469D01*
X117270123Y-74933042D01*
X117297237Y-74727089D01*
X117297263Y-74726899D01*
X117326061Y-74520454D01*
X117327797Y-74510822D01*
X117373211Y-74305975D01*
X117373476Y-74304819D01*
X117420636Y-74104306D01*
X117423066Y-74095464D01*
X117486424Y-73894518D01*
X117486993Y-73892769D01*
X117552166Y-73698320D01*
X117555140Y-73690370D01*
X117635916Y-73495360D01*
X117636978Y-73492876D01*
X117719578Y-73305807D01*
X117722979Y-73298730D01*
X117820556Y-73111285D01*
X117822190Y-73108254D01*
X117921499Y-72929960D01*
X117925204Y-72923746D01*
X118038837Y-72745378D01*
X118041076Y-72741988D01*
X118156338Y-72573727D01*
X118160216Y-72568381D01*
X118289064Y-72400464D01*
X118291929Y-72396875D01*
X118422162Y-72240041D01*
X118426071Y-72235560D01*
X118569110Y-72079460D01*
X118572752Y-72075656D01*
X118716904Y-71931504D01*
X118720732Y-71927841D01*
X118876774Y-71784854D01*
X118881269Y-71780933D01*
X119038112Y-71650692D01*
X119041721Y-71647811D01*
X119209644Y-71518959D01*
X119214965Y-71515099D01*
X119383225Y-71399838D01*
X119386583Y-71397619D01*
X119565005Y-71283952D01*
X119571199Y-71280258D01*
X119749569Y-71180907D01*
X119752413Y-71179375D01*
X119939977Y-71081735D01*
X119947105Y-71078311D01*
X120134090Y-70995750D01*
X120136544Y-70994699D01*
X120331622Y-70913896D01*
X120339554Y-70910927D01*
X120533989Y-70845759D01*
X120535772Y-70845179D01*
X120736702Y-70781826D01*
X120745549Y-70779395D01*
X120945983Y-70732254D01*
X120947312Y-70731949D01*
X121152059Y-70686559D01*
X121161701Y-70684820D01*
X121368195Y-70656016D01*
X121368476Y-70655977D01*
X121574287Y-70628882D01*
X121584690Y-70627958D01*
X121778447Y-70618999D01*
X121784124Y-70618868D01*
X125889264Y-70617841D01*
X125955490Y-70636988D01*
X126001256Y-70688545D01*
X126012416Y-70756575D01*
X125985519Y-70820051D01*
X125928880Y-70859353D01*
X125917469Y-70863197D01*
X125894879Y-70868491D01*
X125820348Y-70895871D01*
X125817185Y-70896985D01*
X125741910Y-70922349D01*
X125721221Y-70932264D01*
X125654269Y-70975057D01*
X125651419Y-70976824D01*
X125583412Y-71017743D01*
X125565339Y-71031872D01*
X125509202Y-71088008D01*
X125506799Y-71090346D01*
X125449118Y-71144986D01*
X125434337Y-71162872D01*
X125026610Y-71570599D01*
X125019208Y-71577424D01*
X124978898Y-71611664D01*
X124930922Y-71674773D01*
X124928859Y-71677412D01*
X124879086Y-71739335D01*
X124866998Y-71758824D01*
X124866946Y-71758935D01*
X124866946Y-71758936D01*
X124862096Y-71769420D01*
X124833644Y-71830916D01*
X124832194Y-71833941D01*
X124796908Y-71905090D01*
X124789293Y-71926719D01*
X124772219Y-72004283D01*
X124771453Y-72007549D01*
X124752289Y-72084610D01*
X124749500Y-72107390D01*
X124749500Y-72186773D01*
X124749455Y-72190130D01*
X124747303Y-72269551D01*
X124749500Y-72292650D01*
X124749500Y-74684226D01*
X124749091Y-74694289D01*
X124744799Y-74746999D01*
X124755502Y-74825564D01*
X124755910Y-74828894D01*
X124764498Y-74907857D01*
X124769732Y-74930188D01*
X124769772Y-74930299D01*
X124769773Y-74930300D01*
X124797129Y-75004766D01*
X124798228Y-75007886D01*
X124812577Y-75050472D01*
X124823092Y-75081677D01*
X124823594Y-75083165D01*
X124833508Y-75103855D01*
X124841727Y-75116713D01*
X124876295Y-75170794D01*
X124878037Y-75173603D01*
X124915277Y-75235497D01*
X124918990Y-75241667D01*
X124933116Y-75259737D01*
X124933199Y-75259820D01*
X124933200Y-75259821D01*
X124989303Y-75315924D01*
X124991609Y-75318294D01*
X125046151Y-75375873D01*
X125046152Y-75375874D01*
X125046234Y-75375960D01*
X125064118Y-75390739D01*
X125913181Y-76239802D01*
X125940061Y-76280030D01*
X125949500Y-76327483D01*
X125949500Y-76877495D01*
X125930801Y-76942975D01*
X125880344Y-76988707D01*
X125813346Y-77000897D01*
X125750000Y-76994659D01*
X125749999Y-76994659D01*
X125553866Y-77013976D01*
X125365273Y-77071185D01*
X125191463Y-77164089D01*
X125039117Y-77289117D01*
X124914089Y-77441463D01*
X124821185Y-77615273D01*
X124763976Y-77803866D01*
X124744659Y-77999999D01*
X124763976Y-78196133D01*
X124821185Y-78384726D01*
X124914089Y-78558537D01*
X124971353Y-78628313D01*
X124992251Y-78665204D01*
X124999500Y-78706978D01*
X124999500Y-93251779D01*
X124992251Y-93293553D01*
X124971353Y-93330444D01*
X124914089Y-93400219D01*
X124821185Y-93574030D01*
X124763976Y-93762623D01*
X124744659Y-93958757D01*
X124763976Y-94154890D01*
X124821185Y-94343483D01*
X124821186Y-94343484D01*
X124914090Y-94517295D01*
X125039117Y-94669640D01*
X125191462Y-94794667D01*
X125365273Y-94887571D01*
X125553868Y-94944781D01*
X125750000Y-94964098D01*
X125813346Y-94957859D01*
X125880344Y-94970050D01*
X125930801Y-95015782D01*
X125949500Y-95081262D01*
X125949500Y-95955106D01*
X125940061Y-96002560D01*
X125913180Y-96042789D01*
X125884028Y-96071940D01*
X125843800Y-96098818D01*
X125796348Y-96108257D01*
X122431039Y-96108257D01*
X122381229Y-96097813D01*
X122339810Y-96068240D01*
X122224794Y-95943300D01*
X122044911Y-95803292D01*
X122044906Y-95803288D01*
X122034259Y-95797526D01*
X121986756Y-95751947D01*
X121969278Y-95688472D01*
X121986756Y-95624998D01*
X122034263Y-95579417D01*
X122044630Y-95573806D01*
X122070982Y-95553294D01*
X122070982Y-95553293D01*
X121290001Y-94772310D01*
X121290000Y-94772310D01*
X120509015Y-95553293D01*
X120509016Y-95553294D01*
X120535367Y-95573805D01*
X120545736Y-95579416D01*
X120593242Y-95624995D01*
X120610721Y-95688468D01*
X120593246Y-95751941D01*
X120545744Y-95797524D01*
X120535092Y-95803289D01*
X120355209Y-95943298D01*
X120355206Y-95943300D01*
X120355206Y-95943301D01*
X120236785Y-96071940D01*
X120200818Y-96111011D01*
X120076136Y-96301850D01*
X119984571Y-96510598D01*
X119984569Y-96510602D01*
X119984570Y-96510602D01*
X119941764Y-96679640D01*
X119928609Y-96731586D01*
X119909785Y-96958756D01*
X119928609Y-97185927D01*
X119928609Y-97185929D01*
X119928610Y-97185933D01*
X119955801Y-97293306D01*
X119984571Y-97406915D01*
X120076136Y-97615663D01*
X120076138Y-97615666D01*
X120200817Y-97806502D01*
X120355206Y-97974213D01*
X120535094Y-98114226D01*
X120735574Y-98222720D01*
X120789474Y-98241224D01*
X120951174Y-98296737D01*
X121176023Y-98334257D01*
X121403977Y-98334257D01*
X121628825Y-98296737D01*
X121736624Y-98259728D01*
X121844426Y-98222720D01*
X122044906Y-98114226D01*
X122224794Y-97974213D01*
X122224793Y-97974213D01*
X122339810Y-97849274D01*
X122381229Y-97819701D01*
X122431039Y-97809257D01*
X126160394Y-97809257D01*
X126170457Y-97809666D01*
X126174124Y-97809964D01*
X126223167Y-97813958D01*
X126301748Y-97803250D01*
X126305074Y-97802843D01*
X126337583Y-97799308D01*
X126384031Y-97794258D01*
X126406351Y-97789026D01*
X126406463Y-97788984D01*
X126406468Y-97788984D01*
X126480983Y-97761608D01*
X126484033Y-97760534D01*
X126559221Y-97735201D01*
X126559224Y-97735198D01*
X126559340Y-97735160D01*
X126580020Y-97725249D01*
X126580110Y-97725190D01*
X126580116Y-97725189D01*
X126647004Y-97682434D01*
X126649742Y-97680735D01*
X126717736Y-97639827D01*
X126717735Y-97639827D01*
X126717836Y-97639767D01*
X126735899Y-97625646D01*
X126735986Y-97625558D01*
X126735989Y-97625557D01*
X126792091Y-97569453D01*
X126794422Y-97567184D01*
X126852041Y-97512606D01*
X126852042Y-97512604D01*
X126852127Y-97512524D01*
X126866905Y-97494639D01*
X127373397Y-96988147D01*
X127380777Y-96981343D01*
X127421100Y-96947094D01*
X127469128Y-96883912D01*
X127471122Y-96881363D01*
X127520842Y-96819511D01*
X127520843Y-96819508D01*
X127520916Y-96819418D01*
X127532999Y-96799937D01*
X127533050Y-96799825D01*
X127533054Y-96799821D01*
X127566371Y-96727804D01*
X127567814Y-96724796D01*
X127572026Y-96716303D01*
X127603036Y-96653778D01*
X127603037Y-96653773D01*
X127603095Y-96653657D01*
X127610708Y-96632034D01*
X127627779Y-96554475D01*
X127628546Y-96551200D01*
X127628820Y-96550101D01*
X127647684Y-96474252D01*
X127647684Y-96474250D01*
X127647711Y-96474142D01*
X127650500Y-96451377D01*
X127650500Y-96371984D01*
X127650545Y-96368627D01*
X127652696Y-96289205D01*
X127650500Y-96266107D01*
X127650500Y-75963438D01*
X127650909Y-75953375D01*
X127651184Y-75949986D01*
X127655201Y-75900665D01*
X127644490Y-75822056D01*
X127644086Y-75818751D01*
X127637616Y-75759257D01*
X127635514Y-75739922D01*
X127635513Y-75739921D01*
X127635501Y-75739803D01*
X127630270Y-75717482D01*
X127619568Y-75688352D01*
X127609338Y-75660505D01*
X127602877Y-75642918D01*
X127601762Y-75639752D01*
X127586608Y-75594777D01*
X127576444Y-75564611D01*
X127576441Y-75564607D01*
X127576404Y-75564495D01*
X127566496Y-75543817D01*
X127566432Y-75543718D01*
X127566432Y-75543716D01*
X127523715Y-75476887D01*
X127521957Y-75474053D01*
X127518765Y-75468747D01*
X127481070Y-75406096D01*
X127481067Y-75406093D01*
X127481010Y-75405998D01*
X127466882Y-75387926D01*
X127410748Y-75331792D01*
X127408406Y-75329386D01*
X127353770Y-75271708D01*
X127335877Y-75256921D01*
X127187713Y-75108757D01*
X133250000Y-75108757D01*
X133250000Y-75456581D01*
X133256402Y-75516132D01*
X133306647Y-75650846D01*
X133392811Y-75765945D01*
X133507910Y-75852109D01*
X133642624Y-75902354D01*
X133702176Y-75908757D01*
X134000000Y-75908757D01*
X134000000Y-75108757D01*
X133250000Y-75108757D01*
X127187713Y-75108757D01*
X126486819Y-74407862D01*
X126459939Y-74367634D01*
X126450500Y-74320181D01*
X126450500Y-74140720D01*
X126466609Y-74079601D01*
X126510751Y-74034362D01*
X126571457Y-74016757D01*
X126632953Y-74031362D01*
X126659304Y-74045447D01*
X126815273Y-74128814D01*
X127003868Y-74186024D01*
X127200000Y-74205341D01*
X127396132Y-74186024D01*
X127584727Y-74128814D01*
X127758538Y-74035910D01*
X127878567Y-73937403D01*
X127915457Y-73916506D01*
X127957232Y-73909257D01*
X133186765Y-73909257D01*
X133244240Y-73923381D01*
X133288621Y-73962537D01*
X133309798Y-74017804D01*
X133302947Y-74076591D01*
X133256402Y-74201381D01*
X133250000Y-74260933D01*
X133250000Y-74608757D01*
X134376000Y-74608757D01*
X134438000Y-74625370D01*
X134483387Y-74670757D01*
X134500000Y-74732757D01*
X134500000Y-75908757D01*
X134797824Y-75908757D01*
X134857375Y-75902354D01*
X134992089Y-75852109D01*
X135107190Y-75765944D01*
X135163793Y-75690332D01*
X135214700Y-75650461D01*
X135278757Y-75641640D01*
X135338546Y-75666266D01*
X135356561Y-75680089D01*
X135367331Y-75688353D01*
X135503680Y-75744831D01*
X135613259Y-75759257D01*
X136916740Y-75759256D01*
X136916744Y-75759256D01*
X137026318Y-75744832D01*
X137162669Y-75688353D01*
X137279754Y-75598511D01*
X137352092Y-75504238D01*
X137395782Y-75468434D01*
X137450821Y-75455725D01*
X137505786Y-75468747D01*
X137549272Y-75504799D01*
X137620296Y-75598460D01*
X137742959Y-75691476D01*
X137886164Y-75747950D01*
X137976153Y-75758757D01*
X138385000Y-75758757D01*
X138385000Y-75758756D01*
X138885000Y-75758756D01*
X139293839Y-75758756D01*
X139383837Y-75747949D01*
X139527040Y-75691476D01*
X139561591Y-75665276D01*
X139621285Y-75641018D01*
X139685093Y-75649990D01*
X139735784Y-75689768D01*
X139792810Y-75765945D01*
X139907910Y-75852109D01*
X140042624Y-75902354D01*
X140102176Y-75908757D01*
X140400000Y-75908757D01*
X140400000Y-75108757D01*
X139850000Y-75108757D01*
X139841215Y-75117541D01*
X139833387Y-75146757D01*
X139788000Y-75192144D01*
X139726000Y-75208757D01*
X138885000Y-75208757D01*
X138885000Y-75758756D01*
X138385000Y-75758756D01*
X138385000Y-74258757D01*
X137460001Y-74258757D01*
X137424548Y-74294210D01*
X137374154Y-74324789D01*
X137315335Y-74328644D01*
X137261381Y-74304904D01*
X137162669Y-74229161D01*
X137142141Y-74220658D01*
X137026320Y-74172683D01*
X136953267Y-74163065D01*
X136916742Y-74158257D01*
X135613255Y-74158257D01*
X135503679Y-74172682D01*
X135387855Y-74220658D01*
X135322756Y-74228835D01*
X135262597Y-74202648D01*
X135224221Y-74149430D01*
X135188182Y-74052805D01*
X135180364Y-74009472D01*
X135188182Y-73966138D01*
X135193794Y-73951089D01*
X135193796Y-73951088D01*
X135216609Y-73889922D01*
X135243048Y-73847687D01*
X135283978Y-73819269D01*
X135332791Y-73809257D01*
X135393132Y-73809257D01*
X135440584Y-73818696D01*
X135461472Y-73827348D01*
X135503680Y-73844831D01*
X135613259Y-73859257D01*
X136916740Y-73859256D01*
X136916744Y-73859256D01*
X137026318Y-73844832D01*
X137095344Y-73816240D01*
X137162669Y-73788353D01*
X137261383Y-73712606D01*
X137315333Y-73688869D01*
X137374153Y-73692724D01*
X137424547Y-73723304D01*
X137460000Y-73758757D01*
X137656668Y-73758757D01*
X137696526Y-73765338D01*
X137732154Y-73784381D01*
X137735514Y-73786958D01*
X137737331Y-73788353D01*
X137873680Y-73844831D01*
X137983259Y-73859257D01*
X138761001Y-73859256D01*
X138823000Y-73875869D01*
X138868387Y-73921256D01*
X138885000Y-73983256D01*
X138885000Y-74708757D01*
X139610000Y-74708757D01*
X139618784Y-74699972D01*
X139626613Y-74670757D01*
X139672000Y-74625370D01*
X139734000Y-74608757D01*
X141650000Y-74608757D01*
X141650000Y-74260933D01*
X141643597Y-74201381D01*
X141588182Y-74052806D01*
X141580364Y-74009472D01*
X141588182Y-73966138D01*
X141593794Y-73951089D01*
X141593796Y-73951088D01*
X141644091Y-73816240D01*
X141650500Y-73756630D01*
X141650499Y-72560885D01*
X141644091Y-72501274D01*
X141593796Y-72366426D01*
X141525232Y-72274837D01*
X141506846Y-72239686D01*
X141500500Y-72200527D01*
X141500500Y-72168363D01*
X141500909Y-72158300D01*
X141501885Y-72146310D01*
X141505201Y-72105590D01*
X141494490Y-72026981D01*
X141494086Y-72023676D01*
X141492332Y-72007549D01*
X141485514Y-71944847D01*
X141485513Y-71944846D01*
X141485501Y-71944728D01*
X141480270Y-71922407D01*
X141473867Y-71904979D01*
X141452877Y-71847843D01*
X141451762Y-71844677D01*
X141426444Y-71769536D01*
X141426441Y-71769532D01*
X141426404Y-71769420D01*
X141416494Y-71748737D01*
X141373722Y-71681821D01*
X141371951Y-71678967D01*
X141331009Y-71610920D01*
X141316885Y-71592853D01*
X141260731Y-71536699D01*
X141258389Y-71534293D01*
X141203768Y-71476631D01*
X141185882Y-71461850D01*
X140849400Y-71125368D01*
X140842573Y-71117962D01*
X140808341Y-71077661D01*
X140808339Y-71077659D01*
X140808337Y-71077657D01*
X140745167Y-71029636D01*
X140742622Y-71027646D01*
X140680754Y-70977915D01*
X140680751Y-70977913D01*
X140680666Y-70977845D01*
X140661174Y-70965754D01*
X140589082Y-70932400D01*
X140586057Y-70930950D01*
X140514907Y-70895664D01*
X140493280Y-70888049D01*
X140415733Y-70870980D01*
X140412462Y-70870214D01*
X140365549Y-70858547D01*
X140313091Y-70830888D01*
X140279477Y-70782031D01*
X140272394Y-70723152D01*
X140293463Y-70667718D01*
X140337866Y-70628407D01*
X140395441Y-70614212D01*
X152541220Y-70611174D01*
X152546594Y-70611291D01*
G37*
%TD.AperFunction*%
%TA.AperFunction,Conductor*%
G36*
X136412384Y-89767060D02*
G01*
X136454060Y-89819925D01*
X136475463Y-89871598D01*
X136571716Y-89997038D01*
X136596768Y-90016260D01*
X136608964Y-90026956D01*
X136831799Y-90249791D01*
X136842494Y-90261986D01*
X136861717Y-90287039D01*
X136979913Y-90377733D01*
X136987159Y-90383293D01*
X137133238Y-90443801D01*
X137258698Y-90460318D01*
X137289999Y-90464439D01*
X137289999Y-90464438D01*
X137290000Y-90464439D01*
X137321302Y-90460317D01*
X137337487Y-90459257D01*
X138161000Y-90459257D01*
X138223000Y-90475870D01*
X138268387Y-90521257D01*
X138282825Y-90575141D01*
X138284291Y-90574984D01*
X138286244Y-90593163D01*
X138286243Y-90619655D01*
X138284500Y-90635877D01*
X138284500Y-91081631D01*
X138286244Y-91097851D01*
X138286244Y-91124349D01*
X138285000Y-91135925D01*
X138285000Y-91183757D01*
X138300640Y-91199397D01*
X138329139Y-91243742D01*
X138341204Y-91276088D01*
X138347461Y-91284446D01*
X138369360Y-91332396D01*
X138369361Y-91385111D01*
X138347463Y-91433063D01*
X138341204Y-91441424D01*
X138329140Y-91473769D01*
X138300641Y-91518115D01*
X138279692Y-91539063D01*
X138268387Y-91581257D01*
X138223000Y-91626644D01*
X138161000Y-91643257D01*
X137777125Y-91643257D01*
X137760905Y-91645001D01*
X137734406Y-91645001D01*
X137722831Y-91643757D01*
X137674999Y-91643757D01*
X137659358Y-91659398D01*
X137615012Y-91687897D01*
X137582669Y-91699960D01*
X137574309Y-91706219D01*
X137526358Y-91728117D01*
X137473642Y-91728117D01*
X137425691Y-91706219D01*
X137417333Y-91699962D01*
X137417331Y-91699961D01*
X137384985Y-91687896D01*
X137340640Y-91659397D01*
X137325000Y-91643757D01*
X137277173Y-91643757D01*
X137265593Y-91645001D01*
X137239101Y-91645000D01*
X137222879Y-91643257D01*
X136777125Y-91643257D01*
X136760905Y-91645001D01*
X136734406Y-91645001D01*
X136722831Y-91643757D01*
X136674999Y-91643757D01*
X136659358Y-91659398D01*
X136615012Y-91687897D01*
X136582672Y-91699959D01*
X136582669Y-91699960D01*
X136582669Y-91699961D01*
X136523309Y-91744397D01*
X136460053Y-91768636D01*
X136393496Y-91756014D01*
X136343505Y-91710297D01*
X136325000Y-91645130D01*
X136325000Y-91643757D01*
X136319692Y-91638449D01*
X136277500Y-91627144D01*
X136232113Y-91581757D01*
X136215500Y-91519757D01*
X136215499Y-91135881D01*
X136214008Y-91122013D01*
X136214008Y-91095506D01*
X136215500Y-91081630D01*
X136215499Y-90635885D01*
X136215498Y-90635877D01*
X136214008Y-90622013D01*
X136214008Y-90595506D01*
X136215500Y-90581630D01*
X136215499Y-90135885D01*
X136215290Y-90133945D01*
X136214008Y-90122013D01*
X136214008Y-90095506D01*
X136215500Y-90081630D01*
X136215499Y-89867377D01*
X136233771Y-89802589D01*
X136283204Y-89756893D01*
X136349228Y-89743760D01*
X136412384Y-89767060D01*
G37*
%TD.AperFunction*%
%TA.AperFunction,Conductor*%
G36*
X139681119Y-83081846D02*
G01*
X139694749Y-83088976D01*
X139707666Y-83093793D01*
X139707669Y-83093796D01*
X139842517Y-83144091D01*
X139902127Y-83150500D01*
X140897872Y-83150499D01*
X140957483Y-83144091D01*
X141092331Y-83093796D01*
X141092335Y-83093792D01*
X141105247Y-83088977D01*
X141118881Y-83081846D01*
X141158042Y-83075500D01*
X142346743Y-83075500D01*
X142408743Y-83092113D01*
X142454130Y-83137500D01*
X142470743Y-83199500D01*
X142470743Y-85736294D01*
X142469434Y-85754264D01*
X142465954Y-85778023D01*
X142470271Y-85827369D01*
X142470743Y-85838176D01*
X142470743Y-85843708D01*
X142474341Y-85874496D01*
X142474707Y-85878081D01*
X142481353Y-85954041D01*
X142485572Y-85973071D01*
X142486001Y-85974251D01*
X142486002Y-85974255D01*
X142511656Y-86044742D01*
X142512825Y-86048107D01*
X142536823Y-86120524D01*
X142545318Y-86138072D01*
X142587222Y-86201784D01*
X142589132Y-86204782D01*
X142599902Y-86222241D01*
X142629195Y-86269733D01*
X142641491Y-86284826D01*
X142642412Y-86285695D01*
X142642413Y-86285696D01*
X142696989Y-86337185D01*
X142699541Y-86339665D01*
X142771547Y-86411671D01*
X142804853Y-86472183D01*
X142800617Y-86541126D01*
X142760155Y-86597107D01*
X142696020Y-86622755D01*
X142538667Y-86638253D01*
X142359499Y-86692603D01*
X142194375Y-86780863D01*
X142049643Y-86899643D01*
X141930863Y-87044375D01*
X141842603Y-87209499D01*
X141788253Y-87388667D01*
X141769901Y-87575000D01*
X141788253Y-87761332D01*
X141842603Y-87940500D01*
X141930863Y-88105624D01*
X141996353Y-88185423D01*
X142017251Y-88222313D01*
X142024500Y-88264088D01*
X142024500Y-88302884D01*
X142009332Y-88362311D01*
X141967540Y-88407199D01*
X141909346Y-88426568D01*
X141848989Y-88415679D01*
X141801233Y-88377195D01*
X141707189Y-88251568D01*
X141592089Y-88165404D01*
X141457375Y-88115159D01*
X141397824Y-88108757D01*
X141100000Y-88108757D01*
X141100000Y-89284757D01*
X141083387Y-89346757D01*
X141038000Y-89392144D01*
X140976000Y-89408757D01*
X140724000Y-89408757D01*
X140662000Y-89392144D01*
X140616613Y-89346757D01*
X140600000Y-89284757D01*
X140600000Y-88108757D01*
X140302176Y-88108757D01*
X140242624Y-88115159D01*
X140107910Y-88165404D01*
X139992811Y-88251568D01*
X139906647Y-88366667D01*
X139856402Y-88501381D01*
X139850000Y-88560933D01*
X139850000Y-88864360D01*
X139834832Y-88923787D01*
X139793040Y-88968675D01*
X139734846Y-88988044D01*
X139674489Y-88977154D01*
X139626734Y-88938672D01*
X139542546Y-88826211D01*
X139427331Y-88739961D01*
X139292479Y-88689664D01*
X139280420Y-88688368D01*
X139227882Y-88670184D01*
X139188570Y-88630871D01*
X139170387Y-88578332D01*
X139169091Y-88566274D01*
X139118796Y-88431426D01*
X139032546Y-88316211D01*
X138917331Y-88229961D01*
X138782483Y-88179666D01*
X138722873Y-88173257D01*
X138722869Y-88173257D01*
X138277127Y-88173257D01*
X138263248Y-88174749D01*
X138236758Y-88174748D01*
X138222880Y-88173257D01*
X137777127Y-88173257D01*
X137763248Y-88174749D01*
X137736752Y-88174748D01*
X137717838Y-88172715D01*
X137657670Y-88149352D01*
X137617394Y-88098916D01*
X137607924Y-88035070D01*
X137631822Y-87975116D01*
X137693796Y-87892331D01*
X137744091Y-87757483D01*
X137750500Y-87697873D01*
X137750499Y-87214347D01*
X137752770Y-87192122D01*
X137752733Y-87190859D01*
X137752734Y-87190856D01*
X137750551Y-87115848D01*
X137750499Y-87112242D01*
X137750499Y-86702130D01*
X137750143Y-86698814D01*
X137744091Y-86642517D01*
X137717175Y-86570351D01*
X137709787Y-86516700D01*
X137725968Y-86465020D01*
X137747179Y-86428284D01*
X137805674Y-86248256D01*
X137825460Y-86060000D01*
X137805674Y-85871744D01*
X137762963Y-85740294D01*
X137747179Y-85691715D01*
X137687113Y-85587678D01*
X137670500Y-85525678D01*
X137670500Y-83242231D01*
X137679939Y-83194779D01*
X137706818Y-83154551D01*
X137749548Y-83111820D01*
X137789777Y-83084939D01*
X137837230Y-83075500D01*
X139641958Y-83075500D01*
X139681119Y-83081846D01*
G37*
%TD.AperFunction*%
%TA.AperFunction,Conductor*%
G36*
X152996466Y-80179939D02*
G01*
X153036694Y-80206819D01*
X153803181Y-80973305D01*
X153830061Y-81013533D01*
X153839500Y-81060986D01*
X153839500Y-83938484D01*
X153825489Y-83995741D01*
X153786623Y-84040058D01*
X153781151Y-84043889D01*
X153775378Y-84047932D01*
X153619174Y-84204136D01*
X153537575Y-84320673D01*
X153490358Y-84361000D01*
X153429510Y-84373380D01*
X153370290Y-84354708D01*
X153327547Y-84309666D01*
X153312000Y-84249550D01*
X153312000Y-84208933D01*
X153305597Y-84149381D01*
X153255352Y-84014667D01*
X153169188Y-83899568D01*
X153054089Y-83813404D01*
X152919375Y-83763159D01*
X152859824Y-83756757D01*
X152300000Y-83756757D01*
X152300000Y-85144757D01*
X152283387Y-85206757D01*
X152238000Y-85252144D01*
X152176000Y-85268757D01*
X150788000Y-85268757D01*
X150788000Y-85828581D01*
X150794402Y-85888132D01*
X150844647Y-86022846D01*
X150930811Y-86137945D01*
X151045910Y-86224109D01*
X151180624Y-86274354D01*
X151240176Y-86280757D01*
X151280793Y-86280757D01*
X151340909Y-86296304D01*
X151385951Y-86339047D01*
X151404623Y-86398267D01*
X151392243Y-86459115D01*
X151351916Y-86506332D01*
X151235379Y-86587931D01*
X151079175Y-86744135D01*
X151079174Y-86744137D01*
X151072865Y-86753148D01*
X151071302Y-86755380D01*
X151026984Y-86794246D01*
X150969727Y-86808257D01*
X148258534Y-86808257D01*
X148200081Y-86793615D01*
X148155432Y-86753148D01*
X148135131Y-86696412D01*
X148143973Y-86636805D01*
X148179869Y-86588404D01*
X148180445Y-86587931D01*
X148310883Y-86480883D01*
X148435910Y-86328538D01*
X148528814Y-86154727D01*
X148586024Y-85966132D01*
X148602862Y-85795162D01*
X148621940Y-85740294D01*
X148663917Y-85700133D01*
X148719579Y-85683499D01*
X148757028Y-85690410D01*
X148757449Y-85688435D01*
X148955352Y-85730500D01*
X148955354Y-85730500D01*
X149144646Y-85730500D01*
X149144648Y-85730500D01*
X149268084Y-85704262D01*
X149329803Y-85691144D01*
X149502730Y-85614151D01*
X149612841Y-85534151D01*
X149655870Y-85502889D01*
X149701505Y-85452207D01*
X149782533Y-85362216D01*
X149877179Y-85198284D01*
X149935674Y-85018256D01*
X149955460Y-84830000D01*
X149949023Y-84768757D01*
X150788000Y-84768757D01*
X151800000Y-84768757D01*
X151800000Y-83756757D01*
X151240176Y-83756757D01*
X151180624Y-83763159D01*
X151045910Y-83813404D01*
X150930811Y-83899568D01*
X150844647Y-84014667D01*
X150794402Y-84149381D01*
X150788000Y-84208933D01*
X150788000Y-84768757D01*
X149949023Y-84768757D01*
X149935674Y-84641744D01*
X149905332Y-84548363D01*
X149877179Y-84461715D01*
X149817113Y-84357678D01*
X149800500Y-84295678D01*
X149800500Y-82298092D01*
X149802717Y-82284096D01*
X149801555Y-82283974D01*
X149805387Y-82247504D01*
X149822703Y-82082757D01*
X149802917Y-81894501D01*
X149744422Y-81714473D01*
X149744422Y-81714472D01*
X149649776Y-81550540D01*
X149523113Y-81409867D01*
X149369973Y-81298605D01*
X149197045Y-81221612D01*
X149011891Y-81182257D01*
X149011889Y-81182257D01*
X148822597Y-81182257D01*
X148822594Y-81182257D01*
X148742289Y-81199326D01*
X148681463Y-81196981D01*
X148629082Y-81165971D01*
X148597770Y-81113771D01*
X148595071Y-81052962D01*
X148602733Y-81015856D01*
X148599157Y-80892987D01*
X148599701Y-80877250D01*
X148605341Y-80820000D01*
X148586024Y-80623868D01*
X148528814Y-80435273D01*
X148484812Y-80352952D01*
X148470208Y-80291457D01*
X148487813Y-80230751D01*
X148533052Y-80186609D01*
X148594171Y-80170500D01*
X152949013Y-80170500D01*
X152996466Y-80179939D01*
G37*
%TD.AperFunction*%
%TD*%
D32*
X117250043Y-105858757D02*
G75*
G03*
X122000000Y-110608757I4749957J-43D01*
G01*
X157250043Y-75358757D02*
G75*
G03*
X152500000Y-70608757I-4750043J-43D01*
G01*
X122000000Y-70608760D02*
G75*
G03*
X117250000Y-75358757I0J-4750000D01*
G01*
X152500000Y-110608757D02*
X122000000Y-110608757D01*
X117250000Y-105858757D02*
X117250000Y-75358757D01*
X152500000Y-110608800D02*
G75*
G03*
X157250000Y-105858756I0J4750000D01*
G01*
X122000000Y-70608757D02*
X152500000Y-70608757D01*
X157250000Y-75358757D02*
X157250000Y-105858757D01*
M02*
