%TF.GenerationSoftware,KiCad,Pcbnew,7.0.1*%
%TF.CreationDate,2023-08-30T02:16:58-03:00*%
%TF.ProjectId,PCB_FC_V2,5043425f-4643-45f5-9632-2e6b69636164,rev?*%
%TF.SameCoordinates,Original*%
%TF.FileFunction,Soldermask,Bot*%
%TF.FilePolarity,Negative*%
%FSLAX46Y46*%
G04 Gerber Fmt 4.6, Leading zero omitted, Abs format (unit mm)*
G04 Created by KiCad (PCBNEW 7.0.1) date 2023-08-30 02:16:58*
%MOMM*%
%LPD*%
G01*
G04 APERTURE LIST*
G04 Aperture macros list*
%AMRoundRect*
0 Rectangle with rounded corners*
0 $1 Rounding radius*
0 $2 $3 $4 $5 $6 $7 $8 $9 X,Y pos of 4 corners*
0 Add a 4 corners polygon primitive as box body*
4,1,4,$2,$3,$4,$5,$6,$7,$8,$9,$2,$3,0*
0 Add four circle primitives for the rounded corners*
1,1,$1+$1,$2,$3*
1,1,$1+$1,$4,$5*
1,1,$1+$1,$6,$7*
1,1,$1+$1,$8,$9*
0 Add four rect primitives between the rounded corners*
20,1,$1+$1,$2,$3,$4,$5,0*
20,1,$1+$1,$4,$5,$6,$7,0*
20,1,$1+$1,$6,$7,$8,$9,0*
20,1,$1+$1,$8,$9,$2,$3,0*%
G04 Aperture macros list end*
%ADD10C,0.010000*%
%ADD11O,1.304000X1.004000*%
%ADD12O,1.404000X1.004000*%
%ADD13O,0.954000X1.704000*%
%ADD14C,1.750000*%
%ADD15R,1.524000X1.524000*%
%ADD16C,1.524000*%
%ADD17C,2.999740*%
%ADD18R,0.900000X0.650000*%
%ADD19R,0.650000X0.900000*%
%ADD20R,1.100000X1.000000*%
%ADD21R,1.000000X1.100000*%
%ADD22RoundRect,0.060000X-0.615000X0.240000X-0.615000X-0.240000X0.615000X-0.240000X0.615000X0.240000X0*%
%TA.AperFunction,Profile*%
%ADD23C,0.100000*%
%TD*%
G04 APERTURE END LIST*
%TO.C,U3*%
D10*
X138725000Y-89123757D02*
X138275000Y-89123757D01*
X138275000Y-88623757D01*
X138725000Y-88623757D01*
X138725000Y-89123757D01*
G36*
X138725000Y-89123757D02*
G01*
X138275000Y-89123757D01*
X138275000Y-88623757D01*
X138725000Y-88623757D01*
X138725000Y-89123757D01*
G37*
X138225000Y-89123757D02*
X137775000Y-89123757D01*
X137775000Y-88623757D01*
X138225000Y-88623757D01*
X138225000Y-89123757D01*
G36*
X138225000Y-89123757D02*
G01*
X137775000Y-89123757D01*
X137775000Y-88623757D01*
X138225000Y-88623757D01*
X138225000Y-89123757D01*
G37*
X137725000Y-89123757D02*
X137275000Y-89123757D01*
X137275000Y-88623757D01*
X137725000Y-88623757D01*
X137725000Y-89123757D01*
G36*
X137725000Y-89123757D02*
G01*
X137275000Y-89123757D01*
X137275000Y-88623757D01*
X137725000Y-88623757D01*
X137725000Y-89123757D01*
G37*
X137225000Y-89123757D02*
X136775000Y-89123757D01*
X136775000Y-88623757D01*
X137225000Y-88623757D01*
X137225000Y-89123757D01*
G36*
X137225000Y-89123757D02*
G01*
X136775000Y-89123757D01*
X136775000Y-88623757D01*
X137225000Y-88623757D01*
X137225000Y-89123757D01*
G37*
X136725000Y-89123757D02*
X136275000Y-89123757D01*
X136275000Y-88623757D01*
X136725000Y-88623757D01*
X136725000Y-89123757D01*
G36*
X136725000Y-89123757D02*
G01*
X136275000Y-89123757D01*
X136275000Y-88623757D01*
X136725000Y-88623757D01*
X136725000Y-89123757D01*
G37*
X136225000Y-89123757D02*
X135775000Y-89123757D01*
X135775000Y-88623757D01*
X136225000Y-88623757D01*
X136225000Y-89123757D01*
G36*
X136225000Y-89123757D02*
G01*
X135775000Y-89123757D01*
X135775000Y-88623757D01*
X136225000Y-88623757D01*
X136225000Y-89123757D01*
G37*
X139235000Y-89583757D02*
X138735000Y-89583757D01*
X138735000Y-89133757D01*
X139235000Y-89133757D01*
X139235000Y-89583757D01*
G36*
X139235000Y-89583757D02*
G01*
X138735000Y-89583757D01*
X138735000Y-89133757D01*
X139235000Y-89133757D01*
X139235000Y-89583757D01*
G37*
X135765000Y-89583757D02*
X135265000Y-89583757D01*
X135265000Y-89133757D01*
X135765000Y-89133757D01*
X135765000Y-89583757D01*
G36*
X135765000Y-89583757D02*
G01*
X135265000Y-89583757D01*
X135265000Y-89133757D01*
X135765000Y-89133757D01*
X135765000Y-89583757D01*
G37*
X139235000Y-90083757D02*
X138735000Y-90083757D01*
X138735000Y-89633757D01*
X139235000Y-89633757D01*
X139235000Y-90083757D01*
G36*
X139235000Y-90083757D02*
G01*
X138735000Y-90083757D01*
X138735000Y-89633757D01*
X139235000Y-89633757D01*
X139235000Y-90083757D01*
G37*
X135765000Y-90083757D02*
X135265000Y-90083757D01*
X135265000Y-89633757D01*
X135765000Y-89633757D01*
X135765000Y-90083757D01*
G36*
X135765000Y-90083757D02*
G01*
X135265000Y-90083757D01*
X135265000Y-89633757D01*
X135765000Y-89633757D01*
X135765000Y-90083757D01*
G37*
X139235000Y-90583757D02*
X138735000Y-90583757D01*
X138735000Y-90133757D01*
X139235000Y-90133757D01*
X139235000Y-90583757D01*
G36*
X139235000Y-90583757D02*
G01*
X138735000Y-90583757D01*
X138735000Y-90133757D01*
X139235000Y-90133757D01*
X139235000Y-90583757D01*
G37*
X135765000Y-90583757D02*
X135265000Y-90583757D01*
X135265000Y-90133757D01*
X135765000Y-90133757D01*
X135765000Y-90583757D01*
G36*
X135765000Y-90583757D02*
G01*
X135265000Y-90583757D01*
X135265000Y-90133757D01*
X135765000Y-90133757D01*
X135765000Y-90583757D01*
G37*
X139235000Y-91083757D02*
X138735000Y-91083757D01*
X138735000Y-90633757D01*
X139235000Y-90633757D01*
X139235000Y-91083757D01*
G36*
X139235000Y-91083757D02*
G01*
X138735000Y-91083757D01*
X138735000Y-90633757D01*
X139235000Y-90633757D01*
X139235000Y-91083757D01*
G37*
X135765000Y-91083757D02*
X135265000Y-91083757D01*
X135265000Y-90633757D01*
X135765000Y-90633757D01*
X135765000Y-91083757D01*
G36*
X135765000Y-91083757D02*
G01*
X135265000Y-91083757D01*
X135265000Y-90633757D01*
X135765000Y-90633757D01*
X135765000Y-91083757D01*
G37*
X139235000Y-91583757D02*
X138735000Y-91583757D01*
X138735000Y-91133757D01*
X139235000Y-91133757D01*
X139235000Y-91583757D01*
G36*
X139235000Y-91583757D02*
G01*
X138735000Y-91583757D01*
X138735000Y-91133757D01*
X139235000Y-91133757D01*
X139235000Y-91583757D01*
G37*
X135765000Y-91583757D02*
X135265000Y-91583757D01*
X135265000Y-91133757D01*
X135765000Y-91133757D01*
X135765000Y-91583757D01*
G36*
X135765000Y-91583757D02*
G01*
X135265000Y-91583757D01*
X135265000Y-91133757D01*
X135765000Y-91133757D01*
X135765000Y-91583757D01*
G37*
X139235000Y-92083757D02*
X138735000Y-92083757D01*
X138735000Y-91633757D01*
X139235000Y-91633757D01*
X139235000Y-92083757D01*
G36*
X139235000Y-92083757D02*
G01*
X138735000Y-92083757D01*
X138735000Y-91633757D01*
X139235000Y-91633757D01*
X139235000Y-92083757D01*
G37*
X135765000Y-92083757D02*
X135265000Y-92083757D01*
X135265000Y-91633757D01*
X135765000Y-91633757D01*
X135765000Y-92083757D01*
G36*
X135765000Y-92083757D02*
G01*
X135265000Y-92083757D01*
X135265000Y-91633757D01*
X135765000Y-91633757D01*
X135765000Y-92083757D01*
G37*
X138725000Y-92593757D02*
X138275000Y-92593757D01*
X138275000Y-92093757D01*
X138725000Y-92093757D01*
X138725000Y-92593757D01*
G36*
X138725000Y-92593757D02*
G01*
X138275000Y-92593757D01*
X138275000Y-92093757D01*
X138725000Y-92093757D01*
X138725000Y-92593757D01*
G37*
X138225000Y-92593757D02*
X137775000Y-92593757D01*
X137775000Y-92093757D01*
X138225000Y-92093757D01*
X138225000Y-92593757D01*
G36*
X138225000Y-92593757D02*
G01*
X137775000Y-92593757D01*
X137775000Y-92093757D01*
X138225000Y-92093757D01*
X138225000Y-92593757D01*
G37*
X137725000Y-92593757D02*
X137275000Y-92593757D01*
X137275000Y-92093757D01*
X137725000Y-92093757D01*
X137725000Y-92593757D01*
G36*
X137725000Y-92593757D02*
G01*
X137275000Y-92593757D01*
X137275000Y-92093757D01*
X137725000Y-92093757D01*
X137725000Y-92593757D01*
G37*
X137225000Y-92593757D02*
X136775000Y-92593757D01*
X136775000Y-92093757D01*
X137225000Y-92093757D01*
X137225000Y-92593757D01*
G36*
X137225000Y-92593757D02*
G01*
X136775000Y-92593757D01*
X136775000Y-92093757D01*
X137225000Y-92093757D01*
X137225000Y-92593757D01*
G37*
X136725000Y-92593757D02*
X136275000Y-92593757D01*
X136275000Y-92093757D01*
X136725000Y-92093757D01*
X136725000Y-92593757D01*
G36*
X136725000Y-92593757D02*
G01*
X136275000Y-92593757D01*
X136275000Y-92093757D01*
X136725000Y-92093757D01*
X136725000Y-92593757D01*
G37*
X136225000Y-92593757D02*
X135775000Y-92593757D01*
X135775000Y-92093757D01*
X136225000Y-92093757D01*
X136225000Y-92593757D01*
G36*
X136225000Y-92593757D02*
G01*
X135775000Y-92593757D01*
X135775000Y-92093757D01*
X136225000Y-92093757D01*
X136225000Y-92593757D01*
G37*
%TD*%
D11*
%TO.C,J6*%
X135000000Y-105658757D03*
D12*
X140000000Y-105658757D03*
D13*
X133975000Y-108358757D03*
X141025000Y-108358757D03*
%TD*%
D14*
%TO.C,J5*%
X121290000Y-84258757D03*
X121290000Y-86798757D03*
X121290000Y-89338757D03*
X121290000Y-91878757D03*
X121290000Y-94418757D03*
X121290000Y-96958757D03*
X118750000Y-84258757D03*
X118750000Y-86798757D03*
X118750000Y-89338757D03*
X118750000Y-91878757D03*
%TD*%
D15*
%TO.C,U5*%
X152050000Y-85018757D03*
D16*
X154590000Y-85018757D03*
X152050000Y-87558757D03*
X154590000Y-87558757D03*
X152050000Y-90098757D03*
X154590000Y-90098757D03*
X152050000Y-92638757D03*
X154590000Y-92638757D03*
%TD*%
D17*
%TO.C,H4*%
X122000000Y-105858757D03*
%TD*%
%TO.C,H3*%
X152500000Y-105858757D03*
%TD*%
%TO.C,H2*%
X152500000Y-75358757D03*
%TD*%
%TO.C,H1*%
X122000000Y-75358757D03*
%TD*%
D18*
%TO.C,R5*%
X140400000Y-82325000D03*
X140400000Y-80875000D03*
%TD*%
D19*
%TO.C,R10*%
X141475000Y-95908757D03*
X140025000Y-95908757D03*
%TD*%
D20*
%TO.C,C10*%
X138100000Y-95908757D03*
X136400000Y-95908757D03*
%TD*%
D19*
%TO.C,R7*%
X141025000Y-77518757D03*
X139575000Y-77518757D03*
%TD*%
D20*
%TO.C,C9*%
X138100000Y-93968757D03*
X136400000Y-93968757D03*
%TD*%
D21*
%TO.C,C7*%
X133340000Y-93068757D03*
X133340000Y-91368757D03*
%TD*%
D19*
%TO.C,R4*%
X136925000Y-87200000D03*
X135475000Y-87200000D03*
%TD*%
D21*
%TO.C,C1*%
X140650000Y-74858757D03*
X140650000Y-73158757D03*
%TD*%
%TO.C,C3*%
X134250000Y-74858757D03*
X134250000Y-73158757D03*
%TD*%
D22*
%TO.C,U2*%
X138635000Y-73058757D03*
X138635000Y-74008757D03*
X138635000Y-74958757D03*
X136265000Y-74958757D03*
X136265000Y-73058757D03*
%TD*%
D21*
%TO.C,C8*%
X140850000Y-89158757D03*
X140850000Y-90858757D03*
%TD*%
D19*
%TO.C,R6*%
X141025000Y-79168757D03*
X139575000Y-79168757D03*
%TD*%
D23*
X117250043Y-105858757D02*
G75*
G03*
X122000000Y-110608757I4749957J-43D01*
G01*
X157250043Y-75358757D02*
G75*
G03*
X152500000Y-70608757I-4750043J-43D01*
G01*
X122000000Y-70608760D02*
G75*
G03*
X117250000Y-75358757I0J-4750000D01*
G01*
X152500000Y-110608757D02*
X122000000Y-110608757D01*
X117250000Y-105858757D02*
X117250000Y-75358757D01*
X152500000Y-110608800D02*
G75*
G03*
X157250000Y-105858756I0J4750000D01*
G01*
X122000000Y-70608757D02*
X152500000Y-70608757D01*
X157250000Y-75358757D02*
X157250000Y-105858757D01*
M02*
