%TF.GenerationSoftware,KiCad,Pcbnew,7.0.1*%
%TF.CreationDate,2023-08-30T02:16:58-03:00*%
%TF.ProjectId,PCB_FC_V2,5043425f-4643-45f5-9632-2e6b69636164,rev?*%
%TF.SameCoordinates,Original*%
%TF.FileFunction,Soldermask,Top*%
%TF.FilePolarity,Negative*%
%FSLAX46Y46*%
G04 Gerber Fmt 4.6, Leading zero omitted, Abs format (unit mm)*
G04 Created by KiCad (PCBNEW 7.0.1) date 2023-08-30 02:16:58*
%MOMM*%
%LPD*%
G01*
G04 APERTURE LIST*
G04 Aperture macros list*
%AMRoundRect*
0 Rectangle with rounded corners*
0 $1 Rounding radius*
0 $2 $3 $4 $5 $6 $7 $8 $9 X,Y pos of 4 corners*
0 Add a 4 corners polygon primitive as box body*
4,1,4,$2,$3,$4,$5,$6,$7,$8,$9,$2,$3,0*
0 Add four circle primitives for the rounded corners*
1,1,$1+$1,$2,$3*
1,1,$1+$1,$4,$5*
1,1,$1+$1,$6,$7*
1,1,$1+$1,$8,$9*
0 Add four rect primitives between the rounded corners*
20,1,$1+$1,$2,$3,$4,$5,0*
20,1,$1+$1,$4,$5,$6,$7,0*
20,1,$1+$1,$6,$7,$8,$9,0*
20,1,$1+$1,$8,$9,$2,$3,0*%
G04 Aperture macros list end*
%ADD10RoundRect,0.102000X-0.200000X-0.675000X0.200000X-0.675000X0.200000X0.675000X-0.200000X0.675000X0*%
%ADD11O,1.304000X1.004000*%
%ADD12O,1.404000X1.004000*%
%ADD13O,0.954000X1.704000*%
%ADD14RoundRect,0.102000X-0.750000X-0.775000X0.750000X-0.775000X0.750000X0.775000X-0.750000X0.775000X0*%
%ADD15R,0.650000X0.900000*%
%ADD16R,1.198880X1.198880*%
%ADD17R,1.000000X1.100000*%
%ADD18R,1.100000X1.000000*%
%ADD19R,0.900000X0.650000*%
%ADD20C,1.750000*%
%ADD21R,1.524000X1.524000*%
%ADD22C,1.524000*%
%ADD23RoundRect,0.225000X-0.250000X0.225000X-0.250000X-0.225000X0.250000X-0.225000X0.250000X0.225000X0*%
%ADD24R,0.599440X1.000760*%
%ADD25R,1.000760X1.000760*%
%ADD26RoundRect,0.151600X0.260400X-0.605400X0.260400X0.605400X-0.260400X0.605400X-0.260400X-0.605400X0*%
%ADD27C,2.999740*%
%ADD28R,1.500000X0.900000*%
%ADD29R,0.900000X1.500000*%
%ADD30R,0.900000X0.900000*%
%ADD31RoundRect,0.102000X0.365000X-0.605000X0.365000X0.605000X-0.365000X0.605000X-0.365000X-0.605000X0*%
%TA.AperFunction,Profile*%
%ADD32C,0.100000*%
%TD*%
G04 APERTURE END LIST*
D10*
%TO.C,J6*%
X136200000Y-105683757D03*
X136850000Y-105683757D03*
X137500000Y-105683757D03*
X138150000Y-105683757D03*
X138800000Y-105683757D03*
D11*
X135000000Y-105658757D03*
D12*
X140000000Y-105658757D03*
D13*
X133975000Y-108358757D03*
D14*
X136500000Y-108358757D03*
X138500000Y-108358757D03*
D13*
X141025000Y-108358757D03*
%TD*%
D15*
%TO.C,R13*%
X124475000Y-76600000D03*
X125925000Y-76600000D03*
%TD*%
D16*
%TO.C,LED1*%
X122750980Y-71800000D03*
X124849020Y-71800000D03*
%TD*%
D17*
%TO.C,C11*%
X130950000Y-101258757D03*
X130950000Y-99558757D03*
%TD*%
D18*
%TO.C,C12*%
X131800000Y-105658757D03*
X130100000Y-105658757D03*
%TD*%
D19*
%TO.C,R8*%
X131350000Y-91875000D03*
X131350000Y-93325000D03*
%TD*%
D20*
%TO.C,J5*%
X121290000Y-84258757D03*
X121290000Y-86798757D03*
X121290000Y-89338757D03*
X121290000Y-91878757D03*
X121290000Y-94418757D03*
X121290000Y-96958757D03*
X118750000Y-84258757D03*
X118750000Y-86798757D03*
X118750000Y-89338757D03*
X118750000Y-91878757D03*
%TD*%
D21*
%TO.C,U5*%
X152050000Y-85018757D03*
D22*
X154590000Y-85018757D03*
X152050000Y-87558757D03*
X154590000Y-87558757D03*
X152050000Y-90098757D03*
X154590000Y-90098757D03*
X152050000Y-92638757D03*
X154590000Y-92638757D03*
%TD*%
D18*
%TO.C,C14*%
X149200000Y-103258757D03*
X150900000Y-103258757D03*
%TD*%
D23*
%TO.C,C2*%
X126400000Y-71825000D03*
X126400000Y-73375000D03*
%TD*%
D24*
%TO.C,Q2*%
X144955000Y-92645477D03*
X143050000Y-92645477D03*
X144002500Y-94758757D03*
%TD*%
D25*
%TO.C,SW1*%
X125949180Y-79408757D03*
X118750820Y-79408757D03*
%TD*%
D26*
%TO.C,U4*%
X132805000Y-101750000D03*
X134075000Y-101750000D03*
X135345000Y-101750000D03*
X136615000Y-101750000D03*
X137885000Y-101750000D03*
X139155000Y-101750000D03*
X140425000Y-101750000D03*
X141695000Y-101750000D03*
X141695000Y-96250000D03*
X140425000Y-96250000D03*
X139155000Y-96250000D03*
X137885000Y-96250000D03*
X136615000Y-96250000D03*
X135345000Y-96250000D03*
X134075000Y-96250000D03*
X132805000Y-96250000D03*
%TD*%
D24*
%TO.C,Q1*%
X129502500Y-92645477D03*
X127597500Y-92645477D03*
X128550000Y-94758757D03*
%TD*%
D19*
%TO.C,R9*%
X146802500Y-92647117D03*
X146802500Y-94097117D03*
%TD*%
D27*
%TO.C,H4*%
X122000000Y-105858757D03*
%TD*%
D17*
%TO.C,C13*%
X118670000Y-74508757D03*
X118670000Y-76208757D03*
%TD*%
D27*
%TO.C,H3*%
X152500000Y-105858757D03*
%TD*%
D25*
%TO.C,SW2*%
X146450820Y-100408757D03*
X153649180Y-100408757D03*
%TD*%
D28*
%TO.C,U1*%
X128432000Y-73192757D03*
X128432000Y-75732757D03*
X128432000Y-77002757D03*
X128432000Y-74462757D03*
X128432000Y-78272757D03*
X128432000Y-79542757D03*
X128432000Y-80812757D03*
X128432000Y-82082757D03*
X128432000Y-83352757D03*
X128432000Y-84622757D03*
X128432000Y-85892757D03*
X128432000Y-87162757D03*
X128432000Y-88432757D03*
D29*
X132737000Y-89682757D03*
X141627000Y-89682757D03*
X142897000Y-89682757D03*
D28*
X145932000Y-88432757D03*
X145932000Y-87162757D03*
X145932000Y-85892757D03*
X145932000Y-84622757D03*
D29*
X134007000Y-89682757D03*
X135277000Y-89682757D03*
X136547000Y-89682757D03*
X137817000Y-89682757D03*
X139087000Y-89682757D03*
X140357000Y-89682757D03*
D28*
X145932000Y-83352757D03*
X145932000Y-82082757D03*
X145932000Y-73192757D03*
X145932000Y-80812757D03*
X145932000Y-74462757D03*
X145932000Y-77002757D03*
X145932000Y-75732757D03*
X145932000Y-78272757D03*
X128432000Y-71922757D03*
D29*
X131467000Y-89682757D03*
D30*
X134282000Y-78242757D03*
X134282000Y-79642757D03*
X134282000Y-81042757D03*
X135682000Y-78242757D03*
X135682000Y-79642757D03*
X135682000Y-81042757D03*
X137082000Y-78242757D03*
X137082000Y-79642757D03*
X137082000Y-81042757D03*
D28*
X145932000Y-71922757D03*
X145932000Y-79542757D03*
%TD*%
D31*
%TO.C,D2*%
X128150000Y-98408757D03*
X128150000Y-101768757D03*
%TD*%
D27*
%TO.C,H2*%
X152500000Y-75358757D03*
%TD*%
D15*
%TO.C,R1*%
X125925000Y-75200000D03*
X124475000Y-75200000D03*
%TD*%
D27*
%TO.C,H1*%
X122000000Y-75358757D03*
%TD*%
D32*
X117250043Y-105858757D02*
G75*
G03*
X122000000Y-110608757I4749957J-43D01*
G01*
X157250043Y-75358757D02*
G75*
G03*
X152500000Y-70608757I-4750043J-43D01*
G01*
X122000000Y-70608760D02*
G75*
G03*
X117250000Y-75358757I0J-4750000D01*
G01*
X152500000Y-110608757D02*
X122000000Y-110608757D01*
X117250000Y-105858757D02*
X117250000Y-75358757D01*
X152500000Y-110608800D02*
G75*
G03*
X157250000Y-105858756I0J4750000D01*
G01*
X122000000Y-70608757D02*
X152500000Y-70608757D01*
X157250000Y-75358757D02*
X157250000Y-105858757D01*
M02*
