%TF.GenerationSoftware,KiCad,Pcbnew,7.0.1*%
%TF.CreationDate,2023-08-30T02:05:44-03:00*%
%TF.ProjectId,RobotLaberinto_PCB,526f626f-744c-4616-9265-72696e746f5f,rev?*%
%TF.SameCoordinates,Original*%
%TF.FileFunction,Copper,L2,Bot*%
%TF.FilePolarity,Positive*%
%FSLAX46Y46*%
G04 Gerber Fmt 4.6, Leading zero omitted, Abs format (unit mm)*
G04 Created by KiCad (PCBNEW 7.0.1) date 2023-08-30 02:05:44*
%MOMM*%
%LPD*%
G01*
G04 APERTURE LIST*
%TA.AperFunction,ComponentPad*%
%ADD10C,2.999740*%
%TD*%
%TA.AperFunction,ComponentPad*%
%ADD11C,0.700000*%
%TD*%
%TA.AperFunction,ComponentPad*%
%ADD12R,3.500000X5.960000*%
%TD*%
%TA.AperFunction,ComponentPad*%
%ADD13R,1.750000X2.000000*%
%TD*%
%TA.AperFunction,ComponentPad*%
%ADD14O,1.750000X2.000000*%
%TD*%
%TA.AperFunction,ComponentPad*%
%ADD15R,1.524000X1.524000*%
%TD*%
%TA.AperFunction,ComponentPad*%
%ADD16C,1.524000*%
%TD*%
%TA.AperFunction,ComponentPad*%
%ADD17R,1.750000X2.200000*%
%TD*%
%TA.AperFunction,ComponentPad*%
%ADD18O,1.750000X2.200000*%
%TD*%
%TA.AperFunction,ViaPad*%
%ADD19C,1.000000*%
%TD*%
%TA.AperFunction,ViaPad*%
%ADD20C,0.800000*%
%TD*%
%TA.AperFunction,Conductor*%
%ADD21C,0.500000*%
%TD*%
%TA.AperFunction,Conductor*%
%ADD22C,0.700000*%
%TD*%
%TA.AperFunction,Conductor*%
%ADD23C,0.600000*%
%TD*%
%TA.AperFunction,Conductor*%
%ADD24C,0.400000*%
%TD*%
G04 APERTURE END LIST*
D10*
%TO.P,H1,1*%
%TO.N,N/C*%
X157000000Y-83000000D03*
%TD*%
D11*
%TO.P,J7,1*%
%TO.N,VCC*%
X130200000Y-122580000D03*
X130200000Y-123200000D03*
X130200000Y-123800000D03*
X130200000Y-124420000D03*
X130800000Y-122580000D03*
X130800000Y-123200000D03*
X130800000Y-123800000D03*
X130800000Y-124420000D03*
D12*
X131060000Y-125180000D03*
D11*
X131400000Y-122560000D03*
X131400000Y-123180000D03*
X131400000Y-123780000D03*
X131400000Y-124400000D03*
X132000000Y-122580000D03*
X132000000Y-123200000D03*
X132000000Y-123800000D03*
X132000000Y-124420000D03*
%TO.P,J7,2*%
%TO.N,GND*%
X135300000Y-122580000D03*
X135300000Y-123200000D03*
X135300000Y-123800000D03*
X135300000Y-124420000D03*
X135900000Y-122580000D03*
X135900000Y-123200000D03*
X135900000Y-123800000D03*
X135900000Y-124420000D03*
D12*
X136140000Y-125180000D03*
D11*
X136500000Y-122580000D03*
X136500000Y-123200000D03*
X136500000Y-123800000D03*
X136500000Y-124420000D03*
X137100000Y-122580000D03*
X137100000Y-123200000D03*
X137100000Y-123800000D03*
X137100000Y-124420000D03*
%TD*%
D13*
%TO.P,J3,1,Pin_1*%
%TO.N,+5V*%
X113780000Y-109500000D03*
D14*
%TO.P,J3,2,Pin_2*%
%TO.N,GND*%
X116320000Y-109500000D03*
%TO.P,J3,3,Pin_3*%
%TO.N,/OUT3_SENSOR*%
X118860000Y-109500000D03*
%TO.P,J3,4,Pin_4*%
%TO.N,/IN3_SENSOR*%
X121400000Y-109500000D03*
%TD*%
D11*
%TO.P,U6,1,GND*%
%TO.N,GND*%
X145095000Y-116626600D03*
X145095000Y-115926600D03*
X145095000Y-115226600D03*
X145095000Y-114526600D03*
X144395000Y-116626600D03*
X144395000Y-115926600D03*
X144395000Y-115226600D03*
X144395000Y-114526600D03*
X143695000Y-116626600D03*
X143695000Y-115926600D03*
X143695000Y-115226600D03*
X143695000Y-114526600D03*
X142995000Y-116626600D03*
X142995000Y-115926600D03*
X142995000Y-115226600D03*
X142995000Y-114526600D03*
X142295000Y-116626600D03*
X142295000Y-115926600D03*
X142295000Y-115226600D03*
X142295000Y-114526600D03*
X141595000Y-116626600D03*
X141595000Y-115926600D03*
X141595000Y-115226600D03*
X141595000Y-114526600D03*
%TD*%
D13*
%TO.P,J6,1,P1*%
%TO.N,+5V*%
X113760000Y-120000000D03*
D14*
%TO.P,J6,2,P2*%
%TO.N,GND*%
X116300000Y-120000000D03*
%TO.P,J6,3,P3*%
%TO.N,/IN{slash}OUT3*%
X118840000Y-120000000D03*
%TD*%
D11*
%TO.P,J8,1*%
%TO.N,/OUT_B_M2*%
X140700000Y-122580000D03*
X140700000Y-123200000D03*
X140700000Y-123800000D03*
X140700000Y-124420000D03*
X141300000Y-122580000D03*
X141300000Y-123200000D03*
X141300000Y-123800000D03*
X141300000Y-124420000D03*
D12*
X141560000Y-125180000D03*
D11*
X141900000Y-122560000D03*
X141900000Y-123180000D03*
X141900000Y-123780000D03*
X141900000Y-124400000D03*
X142500000Y-122580000D03*
X142500000Y-123200000D03*
X142500000Y-123800000D03*
X142500000Y-124420000D03*
%TO.P,J8,2*%
%TO.N,/OUT_A_M2*%
X145800000Y-122580000D03*
X145800000Y-123200000D03*
X145800000Y-123800000D03*
X145800000Y-124420000D03*
X146400000Y-122580000D03*
X146400000Y-123200000D03*
X146400000Y-123800000D03*
X146400000Y-124420000D03*
D12*
X146640000Y-125180000D03*
D11*
X147000000Y-122580000D03*
X147000000Y-123200000D03*
X147000000Y-123800000D03*
X147000000Y-124420000D03*
X147600000Y-122580000D03*
X147600000Y-123200000D03*
X147600000Y-123800000D03*
X147600000Y-124420000D03*
%TD*%
D13*
%TO.P,J4,1,P1*%
%TO.N,+5V*%
X113760000Y-113000000D03*
D14*
%TO.P,J4,2,P2*%
%TO.N,GND*%
X116300000Y-113000000D03*
%TO.P,J4,3,P3*%
%TO.N,/IN{slash}OUT1*%
X118840000Y-113000000D03*
%TD*%
D11*
%TO.P,J9,1*%
%TO.N,/OUT_B_M1*%
X151200000Y-122580000D03*
X151200000Y-123200000D03*
X151200000Y-123800000D03*
X151200000Y-124420000D03*
X151800000Y-122580000D03*
X151800000Y-123200000D03*
X151800000Y-123800000D03*
X151800000Y-124420000D03*
D12*
X152060000Y-125180000D03*
D11*
X152400000Y-122560000D03*
X152400000Y-123180000D03*
X152400000Y-123780000D03*
X152400000Y-124400000D03*
X153000000Y-122580000D03*
X153000000Y-123200000D03*
X153000000Y-123800000D03*
X153000000Y-124420000D03*
%TO.P,J9,2*%
%TO.N,/OUT_A_M1*%
X156300000Y-122580000D03*
X156300000Y-123200000D03*
X156300000Y-123800000D03*
X156300000Y-124420000D03*
X156900000Y-122580000D03*
X156900000Y-123200000D03*
X156900000Y-123800000D03*
X156900000Y-124420000D03*
D12*
X157140000Y-125180000D03*
D11*
X157500000Y-122580000D03*
X157500000Y-123200000D03*
X157500000Y-123800000D03*
X157500000Y-124420000D03*
X158100000Y-122580000D03*
X158100000Y-123200000D03*
X158100000Y-123800000D03*
X158100000Y-124420000D03*
%TD*%
D13*
%TO.P,J2,1,Pin_1*%
%TO.N,+5V*%
X113780000Y-106100000D03*
D14*
%TO.P,J2,2,Pin_2*%
%TO.N,GND*%
X116320000Y-106100000D03*
%TO.P,J2,3,Pin_3*%
%TO.N,/OUT2_SENSOR*%
X118860000Y-106100000D03*
%TO.P,J2,4,Pin_4*%
%TO.N,/IN2_SENSOR*%
X121400000Y-106100000D03*
%TD*%
D10*
%TO.P,H2,1*%
%TO.N,N/C*%
X113000000Y-127000000D03*
%TD*%
D15*
%TO.P,C1,1*%
%TO.N,VCC*%
X150345000Y-112600000D03*
D16*
%TO.P,C1,2*%
%TO.N,GND*%
X148345000Y-112600000D03*
%TD*%
D13*
%TO.P,J5,1,P1*%
%TO.N,+5V*%
X113760000Y-116500000D03*
D14*
%TO.P,J5,2,P2*%
%TO.N,GND*%
X116300000Y-116500000D03*
%TO.P,J5,3,P3*%
%TO.N,/IN{slash}OUT2*%
X118840000Y-116500000D03*
%TD*%
D11*
%TO.P,U5,1,GND*%
%TO.N,GND*%
X157195000Y-116626600D03*
X157195000Y-115926600D03*
X157195000Y-115226600D03*
X157195000Y-114526600D03*
X156495000Y-116626600D03*
X156495000Y-115926600D03*
X156495000Y-115226600D03*
X156495000Y-114526600D03*
X155795000Y-116626600D03*
X155795000Y-115926600D03*
X155795000Y-115226600D03*
X155795000Y-114526600D03*
X155095000Y-116626600D03*
X155095000Y-115926600D03*
X155095000Y-115226600D03*
X155095000Y-114526600D03*
X154395000Y-116626600D03*
X154395000Y-115926600D03*
X154395000Y-115226600D03*
X154395000Y-114526600D03*
X153695000Y-116626600D03*
X153695000Y-115926600D03*
X153695000Y-115226600D03*
X153695000Y-114526600D03*
%TD*%
D13*
%TO.P,J1,1,Pin_1*%
%TO.N,+5V*%
X113780000Y-102700000D03*
D14*
%TO.P,J1,2,Pin_2*%
%TO.N,GND*%
X116320000Y-102700000D03*
%TO.P,J1,3,Pin_3*%
%TO.N,/OUT1_SENSOR*%
X118860000Y-102700000D03*
%TO.P,J1,4,Pin_4*%
%TO.N,/IN1_SENSOR*%
X121400000Y-102700000D03*
%TD*%
D17*
%TO.P,Programador1,1,Pin_1*%
%TO.N,GND*%
X148490000Y-106600000D03*
D18*
%TO.P,Programador1,2,Pin_2*%
%TO.N,+5V*%
X151030000Y-106600000D03*
%TO.P,Programador1,3,Pin_3*%
%TO.N,/RXD0*%
X153570000Y-106600000D03*
%TO.P,Programador1,4,Pin_4*%
%TO.N,/TXD0*%
X156110000Y-106600000D03*
%TD*%
D19*
%TO.N,+5V*%
X147794450Y-81700000D03*
D20*
X116400000Y-81500000D03*
%TO.N,+3V3*%
X136200000Y-103500000D03*
D19*
X137920000Y-112660000D03*
X124150000Y-83120000D03*
%TO.N,VCC*%
X136400000Y-118700000D03*
D20*
X147899100Y-118699100D03*
D19*
%TO.N,/RXD0*%
X149600000Y-89100000D03*
%TO.N,/TXD0*%
X151010000Y-87860000D03*
%TO.N,/IN2_SENSOR*%
X124400000Y-87770000D03*
%TO.N,/IN1_SENSOR*%
X124400000Y-86500000D03*
D20*
%TO.N,/OUT1_SENSOR*%
X122911750Y-90311750D03*
D19*
%TO.N,/SDA*%
X145050628Y-87754772D03*
X138922500Y-104977500D03*
%TO.N,/SCL*%
X140200000Y-106600000D03*
X145500000Y-83970000D03*
%TO.N,/IN3_SENSOR*%
X124400000Y-89169503D03*
%TO.N,/INT*%
X129800000Y-112200000D03*
X124800000Y-96594388D03*
%TO.N,/M2_IN2*%
X145500000Y-95499503D03*
D20*
X143930000Y-110060000D03*
D19*
%TO.N,/M2_IN1*%
X145500000Y-94100000D03*
D20*
X142660000Y-110060000D03*
D19*
%TO.N,/M1_IN2*%
X146900000Y-91600000D03*
D20*
X156040000Y-110210000D03*
%TO.N,/M1_IN1*%
X154760000Y-108980000D03*
D19*
X148300000Y-90290000D03*
%TO.N,/IN{slash}OUT1*%
X123000000Y-94100000D03*
%TO.N,/IN{slash}OUT2*%
X123149500Y-95400000D03*
%TD*%
D21*
%TO.N,/IN3_SENSOR*%
X123300000Y-109500000D02*
X121400000Y-109500000D01*
X124250000Y-101000000D02*
X124250000Y-108550000D01*
X124250000Y-108550000D02*
X123300000Y-109500000D01*
X120500000Y-97250000D02*
X124250000Y-101000000D01*
X120500000Y-90600000D02*
X120500000Y-97250000D01*
X121930497Y-89169503D02*
X120500000Y-90600000D01*
X124400000Y-89169503D02*
X121930497Y-89169503D01*
%TO.N,/IN2_SENSOR*%
X123000000Y-101400000D02*
X123000000Y-105800000D01*
X119200000Y-89300000D02*
X119200000Y-97600000D01*
X122700000Y-106100000D02*
X121400000Y-106100000D01*
X120730000Y-87770000D02*
X119200000Y-89300000D01*
X119200000Y-97600000D02*
X123000000Y-101400000D01*
X123000000Y-105800000D02*
X122700000Y-106100000D01*
X124400000Y-87770000D02*
X120730000Y-87770000D01*
%TO.N,/IN{slash}OUT1*%
X125300000Y-113000000D02*
X118840000Y-113000000D01*
X125700000Y-112600000D02*
X125300000Y-113000000D01*
X125700000Y-100850000D02*
X125700000Y-112600000D01*
X121750000Y-96900000D02*
X125700000Y-100850000D01*
X121750000Y-94500000D02*
X121750000Y-96900000D01*
X122150000Y-94100000D02*
X121750000Y-94500000D01*
X123000000Y-94100000D02*
X122150000Y-94100000D01*
%TO.N,GND*%
X116320000Y-119980000D02*
X116300000Y-120000000D01*
D22*
X148390000Y-106700000D02*
X148490000Y-106600000D01*
D21*
X116320000Y-102700000D02*
X116320000Y-119980000D01*
D22*
%TO.N,+5V*%
X113760000Y-120000000D02*
X113760000Y-122360000D01*
X114520000Y-123120000D02*
X126910000Y-123120000D01*
X137790000Y-115170000D02*
X141530000Y-111430000D01*
X113780000Y-102700000D02*
X113780000Y-119980000D01*
X128200000Y-121830000D02*
X128200000Y-116510000D01*
X116400000Y-81500000D02*
X143000000Y-81500000D01*
X151030000Y-108740000D02*
X151030000Y-106600000D01*
X143200000Y-81700000D02*
X147794450Y-81700000D01*
D21*
X116400000Y-81500000D02*
X116200000Y-81500000D01*
D22*
X126910000Y-123120000D02*
X128200000Y-121830000D01*
X113760000Y-122360000D02*
X114520000Y-123120000D01*
X149740000Y-110030000D02*
X151030000Y-108740000D01*
X128200000Y-116510000D02*
X129540000Y-115170000D01*
X113780000Y-83920000D02*
X113780000Y-102700000D01*
X145330000Y-111430000D02*
X146730000Y-110030000D01*
X129540000Y-115170000D02*
X137790000Y-115170000D01*
X146730000Y-110030000D02*
X149740000Y-110030000D01*
X113780000Y-119980000D02*
X113760000Y-120000000D01*
X141530000Y-111430000D02*
X145330000Y-111430000D01*
D21*
X116200000Y-81500000D02*
X115900000Y-81800000D01*
D22*
X143000000Y-81500000D02*
X143200000Y-81700000D01*
X115900000Y-81800000D02*
X113780000Y-83920000D01*
D21*
%TO.N,+3V3*%
X136200000Y-103500000D02*
X134200000Y-103500000D01*
X134200000Y-85800000D02*
X134200000Y-103500000D01*
X124570000Y-82700000D02*
X131100000Y-82700000D01*
X124150000Y-83120000D02*
X124570000Y-82700000D01*
X137920000Y-109320000D02*
X134200000Y-105600000D01*
X134200000Y-105600000D02*
X134200000Y-103500000D01*
X131100000Y-82700000D02*
X134200000Y-85800000D01*
X137920000Y-112660000D02*
X137920000Y-109320000D01*
D22*
%TO.N,VCC*%
X136400900Y-118699100D02*
X136400000Y-118700000D01*
X147899100Y-118699100D02*
X149400900Y-118699100D01*
X149400900Y-118699100D02*
X150345000Y-117755000D01*
X131060000Y-120640000D02*
X131060000Y-126200000D01*
X136400000Y-118700000D02*
X133000000Y-118700000D01*
X147899100Y-118699100D02*
X136400900Y-118699100D01*
X150345000Y-117755000D02*
X150345000Y-112600000D01*
X133000000Y-118700000D02*
X131060000Y-120640000D01*
D21*
%TO.N,/RXD0*%
X149600000Y-89100000D02*
X151700000Y-89100000D01*
X151700000Y-89100000D02*
X153570000Y-90970000D01*
X153570000Y-90970000D02*
X153570000Y-106600000D01*
%TO.N,/TXD0*%
X156110000Y-90210000D02*
X156110000Y-106600000D01*
X151010000Y-87860000D02*
X153760000Y-87860000D01*
X153760000Y-87860000D02*
X156110000Y-90210000D01*
%TO.N,/IN1_SENSOR*%
X121400000Y-101500000D02*
X121400000Y-102700000D01*
X117800000Y-97900000D02*
X121400000Y-101500000D01*
X117800000Y-88300000D02*
X117800000Y-97900000D01*
X124400000Y-86500000D02*
X119600000Y-86500000D01*
X119600000Y-86500000D02*
X117800000Y-88300000D01*
D23*
%TO.N,/OUT1_SENSOR*%
X126100000Y-89900000D02*
X125688250Y-90311750D01*
X118860000Y-102700000D02*
X118860000Y-101160000D01*
X126100000Y-86500000D02*
X126100000Y-89900000D01*
X118300000Y-85300000D02*
X124900000Y-85300000D01*
X116500000Y-98800000D02*
X116500000Y-87100000D01*
X125688250Y-90311750D02*
X122911750Y-90311750D01*
X118860000Y-101160000D02*
X116500000Y-98800000D01*
X116500000Y-87100000D02*
X118300000Y-85300000D01*
X124900000Y-85300000D02*
X126100000Y-86500000D01*
D24*
%TO.N,/SDA*%
X138922500Y-88677500D02*
X138922500Y-104977500D01*
X139845228Y-87754772D02*
X138922500Y-88677500D01*
X145050628Y-87754772D02*
X139845228Y-87754772D01*
%TO.N,/SCL*%
X138270000Y-83970000D02*
X137200000Y-85040000D01*
X145500000Y-83970000D02*
X138270000Y-83970000D01*
X137200000Y-105600000D02*
X138200000Y-106600000D01*
X138200000Y-106600000D02*
X140200000Y-106600000D01*
X137200000Y-85040000D02*
X137200000Y-105600000D01*
D21*
%TO.N,/INT*%
X127094388Y-96594388D02*
X128500000Y-98000000D01*
X128500000Y-98000000D02*
X128500000Y-112100000D01*
X128500000Y-112100000D02*
X128600000Y-112200000D01*
X128600000Y-112200000D02*
X129800000Y-112200000D01*
X124800000Y-96594388D02*
X127094388Y-96594388D01*
%TO.N,/M2_IN2*%
X145500000Y-95499503D02*
X145500000Y-100760000D01*
X143930000Y-102330000D02*
X143930000Y-110060000D01*
X145500000Y-100760000D02*
X143930000Y-102330000D01*
%TO.N,/M2_IN1*%
X145500000Y-94100000D02*
X144000000Y-94100000D01*
X142660000Y-95440000D02*
X142660000Y-110060000D01*
X144000000Y-94100000D02*
X142660000Y-95440000D01*
%TO.N,/M1_IN2*%
X158900000Y-87800000D02*
X158900000Y-108970000D01*
X146900000Y-91600000D02*
X146900000Y-87600000D01*
X157660000Y-110210000D02*
X156040000Y-110210000D01*
X146900000Y-87600000D02*
X149100000Y-85400000D01*
X158900000Y-108970000D02*
X157660000Y-110210000D01*
X149100000Y-85400000D02*
X156500000Y-85400000D01*
X156500000Y-85400000D02*
X158900000Y-87800000D01*
%TO.N,/M1_IN1*%
X155100000Y-86400000D02*
X157900000Y-89200000D01*
X149900000Y-86400000D02*
X155100000Y-86400000D01*
X157250000Y-108980000D02*
X154760000Y-108980000D01*
X148300000Y-88000000D02*
X149900000Y-86400000D01*
X157900000Y-108330000D02*
X157250000Y-108980000D01*
X157900000Y-89200000D02*
X157900000Y-108330000D01*
X148300000Y-90290000D02*
X148300000Y-88000000D01*
%TO.N,/IN{slash}OUT2*%
X125000000Y-116500000D02*
X118840000Y-116500000D01*
X123149500Y-95400000D02*
X123149500Y-96676708D01*
X127200000Y-100727208D02*
X127200000Y-114300000D01*
X127200000Y-114300000D02*
X125000000Y-116500000D01*
X123149500Y-96676708D02*
X127200000Y-100727208D01*
%TD*%
%TA.AperFunction,Conductor*%
%TO.N,GND*%
G36*
X159745788Y-80019454D02*
G01*
X159826570Y-80073430D01*
X159880546Y-80154212D01*
X159899500Y-80249500D01*
X159899500Y-87133938D01*
X159881005Y-87228109D01*
X159828269Y-87308292D01*
X159749125Y-87362573D01*
X159655330Y-87382891D01*
X159560817Y-87366227D01*
X159479627Y-87315055D01*
X159425617Y-87264100D01*
X159420420Y-87259053D01*
X157489813Y-85328445D01*
X157441910Y-85261174D01*
X157418644Y-85181936D01*
X157422574Y-85099446D01*
X157453267Y-85022778D01*
X157507348Y-84960366D01*
X157578863Y-84919076D01*
X157833107Y-84824249D01*
X158084244Y-84687117D01*
X158313310Y-84515641D01*
X158515641Y-84313310D01*
X158687117Y-84084244D01*
X158824249Y-83833107D01*
X158924244Y-83565009D01*
X158985067Y-83285410D01*
X159005480Y-83000000D01*
X158985067Y-82714590D01*
X158924244Y-82434991D01*
X158824249Y-82166893D01*
X158687117Y-81915756D01*
X158515641Y-81686690D01*
X158313310Y-81484359D01*
X158084244Y-81312883D01*
X157958675Y-81244317D01*
X157833106Y-81175750D01*
X157565009Y-81075756D01*
X157285410Y-81014933D01*
X157000000Y-80994520D01*
X156714590Y-81014933D01*
X156434990Y-81075756D01*
X156166893Y-81175750D01*
X155915754Y-81312884D01*
X155686692Y-81484357D01*
X155484357Y-81686692D01*
X155312884Y-81915754D01*
X155175750Y-82166893D01*
X155075756Y-82434990D01*
X155039969Y-82599500D01*
X155014933Y-82714590D01*
X154994520Y-83000000D01*
X155014933Y-83285410D01*
X155064288Y-83512292D01*
X155075756Y-83565009D01*
X155175750Y-83833106D01*
X155175751Y-83833107D01*
X155312883Y-84084244D01*
X155437926Y-84251283D01*
X155478322Y-84333197D01*
X155486462Y-84424169D01*
X155461252Y-84511957D01*
X155406082Y-84584748D01*
X155328377Y-84632749D01*
X155238590Y-84649500D01*
X149172811Y-84649500D01*
X149136723Y-84646871D01*
X149121977Y-84644711D01*
X149078059Y-84648553D01*
X149056360Y-84649500D01*
X149056291Y-84649500D01*
X149027295Y-84652888D01*
X149020101Y-84653622D01*
X148936167Y-84660965D01*
X148856962Y-84689792D01*
X148850131Y-84692166D01*
X148770144Y-84718672D01*
X148699734Y-84764981D01*
X148693628Y-84768870D01*
X148621915Y-84813103D01*
X148564099Y-84874383D01*
X148559056Y-84879575D01*
X146420793Y-87017837D01*
X146393422Y-87041491D01*
X146381469Y-87050389D01*
X146353130Y-87084162D01*
X146338476Y-87100156D01*
X146338407Y-87100224D01*
X146320312Y-87123109D01*
X146315743Y-87128718D01*
X146263621Y-87190836D01*
X146196905Y-87246694D01*
X146115044Y-87276187D01*
X146028034Y-87275713D01*
X145946498Y-87245331D01*
X145880395Y-87188749D01*
X145849329Y-87150895D01*
X145761511Y-87043889D01*
X145682844Y-86979328D01*
X145609169Y-86918863D01*
X145435353Y-86825957D01*
X145246760Y-86768748D01*
X145050628Y-86749430D01*
X144854495Y-86768748D01*
X144665902Y-86825957D01*
X144492089Y-86918861D01*
X144395964Y-86997751D01*
X144321885Y-87039716D01*
X144237999Y-87054272D01*
X139873914Y-87054272D01*
X139858881Y-87053818D01*
X139839226Y-87052629D01*
X139802622Y-87050415D01*
X139802621Y-87050415D01*
X139747173Y-87060575D01*
X139732316Y-87062836D01*
X139675626Y-87069720D01*
X139635967Y-87080775D01*
X139583889Y-87104213D01*
X139569999Y-87109966D01*
X139516614Y-87130212D01*
X139480750Y-87150440D01*
X139435795Y-87185659D01*
X139423688Y-87194568D01*
X139377298Y-87226589D01*
X139339928Y-87268770D01*
X139329622Y-87279719D01*
X138447447Y-88161894D01*
X138436498Y-88172200D01*
X138394315Y-88209571D01*
X138362288Y-88255969D01*
X138353385Y-88268070D01*
X138345516Y-88278115D01*
X138280160Y-88336526D01*
X138198612Y-88368670D01*
X138110979Y-88370563D01*
X138028119Y-88341972D01*
X137960301Y-88286439D01*
X137915928Y-88210847D01*
X137900500Y-88124561D01*
X137900500Y-85433296D01*
X137919454Y-85338008D01*
X137973430Y-85257227D01*
X138487225Y-84743431D01*
X138538795Y-84703860D01*
X138598849Y-84678984D01*
X138663295Y-84670500D01*
X144687371Y-84670500D01*
X144771257Y-84685056D01*
X144845336Y-84727021D01*
X144941461Y-84805910D01*
X144986658Y-84830068D01*
X145115273Y-84898814D01*
X145303868Y-84956024D01*
X145500000Y-84975341D01*
X145696132Y-84956024D01*
X145884727Y-84898814D01*
X146058538Y-84805910D01*
X146058539Y-84805908D01*
X146058541Y-84805908D01*
X146210883Y-84680883D01*
X146335908Y-84528541D01*
X146335910Y-84528538D01*
X146428814Y-84354727D01*
X146486024Y-84166132D01*
X146505341Y-83970000D01*
X146486024Y-83773868D01*
X146428814Y-83585273D01*
X146335910Y-83411462D01*
X146335908Y-83411458D01*
X146210883Y-83259116D01*
X146058541Y-83134091D01*
X145884725Y-83041185D01*
X145873492Y-83037778D01*
X145795001Y-82997664D01*
X145735405Y-82932715D01*
X145702172Y-82851071D01*
X145699468Y-82762964D01*
X145727631Y-82679436D01*
X145783133Y-82610955D01*
X145859017Y-82566103D01*
X145945773Y-82550500D01*
X147200837Y-82550500D01*
X147261339Y-82557962D01*
X147318215Y-82579902D01*
X147409723Y-82628814D01*
X147598318Y-82686024D01*
X147794450Y-82705341D01*
X147990582Y-82686024D01*
X148179177Y-82628814D01*
X148352988Y-82535910D01*
X148352989Y-82535908D01*
X148352991Y-82535908D01*
X148505333Y-82410883D01*
X148630358Y-82258541D01*
X148679345Y-82166893D01*
X148723264Y-82084727D01*
X148780474Y-81896132D01*
X148799791Y-81700000D01*
X148780474Y-81503868D01*
X148723264Y-81315273D01*
X148630360Y-81141462D01*
X148630358Y-81141458D01*
X148505333Y-80989116D01*
X148352991Y-80864091D01*
X148194092Y-80779158D01*
X148179177Y-80771186D01*
X148179176Y-80771185D01*
X148179175Y-80771185D01*
X147990582Y-80713976D01*
X147794449Y-80694658D01*
X147598317Y-80713976D01*
X147409722Y-80771186D01*
X147318215Y-80820098D01*
X147261339Y-80842038D01*
X147200837Y-80849500D01*
X143635934Y-80849500D01*
X143553240Y-80835368D01*
X143479934Y-80794574D01*
X143453462Y-80773295D01*
X143449570Y-80770881D01*
X143370602Y-80734346D01*
X143364527Y-80731435D01*
X143295021Y-80696964D01*
X143295017Y-80696963D01*
X143286617Y-80692797D01*
X143282311Y-80691280D01*
X143230800Y-80679942D01*
X143197334Y-80672575D01*
X143190800Y-80671044D01*
X143181969Y-80668848D01*
X143115495Y-80652316D01*
X143115494Y-80652315D01*
X143106423Y-80650060D01*
X143101852Y-80649500D01*
X143092497Y-80649500D01*
X143014913Y-80649500D01*
X143008171Y-80649409D01*
X142921198Y-80647053D01*
X142895465Y-80649500D01*
X116756052Y-80649500D01*
X116704283Y-80644059D01*
X116494646Y-80599500D01*
X116305354Y-80599500D01*
X116120197Y-80638856D01*
X116046074Y-80671858D01*
X115947269Y-80715849D01*
X115794125Y-80827114D01*
X115693182Y-80939223D01*
X115647689Y-80978830D01*
X115594007Y-81006335D01*
X115519885Y-81033566D01*
X115364010Y-81133200D01*
X113210190Y-83287018D01*
X113195322Y-83300725D01*
X113158899Y-83331663D01*
X113111956Y-83393415D01*
X113107806Y-83398724D01*
X113053302Y-83466531D01*
X113050873Y-83470446D01*
X113014353Y-83549381D01*
X113011444Y-83555452D01*
X112972803Y-83633369D01*
X112971278Y-83637700D01*
X112952587Y-83722613D01*
X112951049Y-83729176D01*
X112930060Y-83813573D01*
X112929500Y-83818152D01*
X112929500Y-83905087D01*
X112929409Y-83911829D01*
X112927053Y-83998801D01*
X112929500Y-84024535D01*
X112929500Y-100983798D01*
X112918124Y-101058203D01*
X112885034Y-101125808D01*
X112833254Y-101180438D01*
X112767517Y-101217097D01*
X112662669Y-101256204D01*
X112657896Y-101259777D01*
X112547453Y-101342453D01*
X112491621Y-101417037D01*
X112461204Y-101457669D01*
X112446578Y-101496884D01*
X112410908Y-101592519D01*
X112404500Y-101652125D01*
X112404500Y-103747869D01*
X112407939Y-103779855D01*
X112410909Y-103807483D01*
X112461204Y-103942331D01*
X112504328Y-103999938D01*
X112547453Y-104057546D01*
X112612081Y-104105926D01*
X112662669Y-104143796D01*
X112724079Y-104166700D01*
X112798191Y-104210163D01*
X112853121Y-104276231D01*
X112882326Y-104357036D01*
X112882326Y-104442957D01*
X112853124Y-104523763D01*
X112798194Y-104589832D01*
X112724079Y-104633299D01*
X112662669Y-104656204D01*
X112547453Y-104742453D01*
X112472046Y-104843185D01*
X112461204Y-104857669D01*
X112458281Y-104865507D01*
X112410908Y-104992519D01*
X112404500Y-105052125D01*
X112404500Y-107147869D01*
X112406286Y-107164481D01*
X112410909Y-107207483D01*
X112461204Y-107342331D01*
X112499598Y-107393619D01*
X112547453Y-107457546D01*
X112612081Y-107505926D01*
X112662669Y-107543796D01*
X112724079Y-107566700D01*
X112798191Y-107610163D01*
X112853121Y-107676231D01*
X112882326Y-107757036D01*
X112882326Y-107842957D01*
X112853124Y-107923763D01*
X112798194Y-107989832D01*
X112724079Y-108033299D01*
X112662669Y-108056204D01*
X112547453Y-108142453D01*
X112501209Y-108204229D01*
X112461204Y-108257669D01*
X112439551Y-108315724D01*
X112410908Y-108392519D01*
X112404500Y-108452125D01*
X112404500Y-110547869D01*
X112409733Y-110596543D01*
X112410909Y-110607483D01*
X112461204Y-110742331D01*
X112476827Y-110763200D01*
X112547453Y-110857546D01*
X112584396Y-110885201D01*
X112662669Y-110943796D01*
X112767517Y-110982902D01*
X112833254Y-111019562D01*
X112885034Y-111074192D01*
X112918124Y-111141797D01*
X112929500Y-111216202D01*
X112929500Y-111276338D01*
X112918124Y-111350743D01*
X112885034Y-111418348D01*
X112833254Y-111472977D01*
X112767517Y-111509638D01*
X112642670Y-111556203D01*
X112527453Y-111642453D01*
X112461530Y-111730517D01*
X112441204Y-111757669D01*
X112438281Y-111765507D01*
X112390908Y-111892519D01*
X112384500Y-111952125D01*
X112384500Y-114047869D01*
X112386026Y-114062063D01*
X112390909Y-114107483D01*
X112441204Y-114242331D01*
X112476203Y-114289083D01*
X112527453Y-114357546D01*
X112582211Y-114398537D01*
X112642669Y-114443796D01*
X112767520Y-114490362D01*
X112833254Y-114527021D01*
X112885033Y-114581650D01*
X112918123Y-114649256D01*
X112929500Y-114723661D01*
X112929500Y-114776338D01*
X112918124Y-114850743D01*
X112885034Y-114918348D01*
X112833254Y-114972977D01*
X112767517Y-115009638D01*
X112642670Y-115056203D01*
X112527453Y-115142453D01*
X112464463Y-115226599D01*
X112441204Y-115257669D01*
X112438281Y-115265507D01*
X112390908Y-115392519D01*
X112384500Y-115452125D01*
X112384500Y-117547869D01*
X112387939Y-117579855D01*
X112390909Y-117607483D01*
X112441204Y-117742331D01*
X112462805Y-117771186D01*
X112527453Y-117857546D01*
X112581093Y-117897700D01*
X112642669Y-117943796D01*
X112767520Y-117990362D01*
X112833254Y-118027021D01*
X112885033Y-118081650D01*
X112918123Y-118149256D01*
X112929500Y-118223661D01*
X112929500Y-118276338D01*
X112918124Y-118350743D01*
X112885034Y-118418348D01*
X112833254Y-118472977D01*
X112767517Y-118509638D01*
X112642670Y-118556203D01*
X112527453Y-118642453D01*
X112452046Y-118743185D01*
X112441204Y-118757669D01*
X112438281Y-118765507D01*
X112390908Y-118892519D01*
X112384500Y-118952125D01*
X112384500Y-121047869D01*
X112387939Y-121079855D01*
X112390909Y-121107483D01*
X112441204Y-121242331D01*
X112484328Y-121299938D01*
X112527453Y-121357546D01*
X112550199Y-121374573D01*
X112642669Y-121443796D01*
X112747517Y-121482902D01*
X112813254Y-121519562D01*
X112865034Y-121574192D01*
X112898124Y-121641797D01*
X112909500Y-121716202D01*
X112909500Y-122315310D01*
X112908679Y-122335516D01*
X112904799Y-122383169D01*
X112915276Y-122460077D01*
X112916095Y-122466762D01*
X112925498Y-122553219D01*
X112926544Y-122557680D01*
X112956536Y-122639320D01*
X112958773Y-122645674D01*
X112986542Y-122728086D01*
X112988529Y-122732232D01*
X113035364Y-122805506D01*
X113038917Y-122811235D01*
X113083754Y-122885754D01*
X113086579Y-122889368D01*
X113148092Y-122950882D01*
X113152794Y-122955713D01*
X113212599Y-123018848D01*
X113232522Y-123035311D01*
X113887017Y-123689806D01*
X113900713Y-123704664D01*
X113931663Y-123741100D01*
X113931665Y-123741102D01*
X113993447Y-123788067D01*
X113998737Y-123792202D01*
X114009769Y-123801070D01*
X114066561Y-123846721D01*
X114070414Y-123849111D01*
X114078934Y-123853053D01*
X114078936Y-123853054D01*
X114149441Y-123885673D01*
X114155458Y-123888557D01*
X114165318Y-123893447D01*
X114233392Y-123927209D01*
X114237669Y-123928715D01*
X114246833Y-123930732D01*
X114322650Y-123947420D01*
X114329149Y-123948942D01*
X114404505Y-123967684D01*
X114404507Y-123967684D01*
X114413602Y-123969946D01*
X114418123Y-123970500D01*
X114427503Y-123970500D01*
X114505087Y-123970500D01*
X114511828Y-123970590D01*
X114589432Y-123972693D01*
X114589435Y-123972692D01*
X114598801Y-123972946D01*
X114624535Y-123970500D01*
X126865310Y-123970500D01*
X126885516Y-123971321D01*
X126891205Y-123971784D01*
X126933167Y-123975201D01*
X127010089Y-123964719D01*
X127016676Y-123963912D01*
X127093910Y-123955514D01*
X127093911Y-123955513D01*
X127103249Y-123954498D01*
X127107653Y-123953465D01*
X127116466Y-123950227D01*
X127116468Y-123950227D01*
X127189318Y-123923463D01*
X127195682Y-123921222D01*
X127278116Y-123893447D01*
X127282206Y-123891487D01*
X127290111Y-123886433D01*
X127290116Y-123886432D01*
X127355582Y-123844585D01*
X127361189Y-123841108D01*
X127427736Y-123801070D01*
X127427739Y-123801067D01*
X127435777Y-123796231D01*
X127439352Y-123793436D01*
X127445985Y-123786801D01*
X127445989Y-123786800D01*
X127500896Y-123731891D01*
X127505696Y-123727221D01*
X127568847Y-123667402D01*
X127585307Y-123647480D01*
X128384433Y-122848354D01*
X128465212Y-122794381D01*
X128560500Y-122775427D01*
X128655788Y-122794381D01*
X128736570Y-122848357D01*
X128790546Y-122929139D01*
X128809500Y-123024427D01*
X128809500Y-128207869D01*
X128809501Y-128207874D01*
X128815909Y-128267483D01*
X128866204Y-128402331D01*
X128909328Y-128459938D01*
X128952453Y-128517546D01*
X128995578Y-128549828D01*
X129067669Y-128603796D01*
X129202517Y-128654091D01*
X129262127Y-128660500D01*
X132857872Y-128660499D01*
X132917483Y-128654091D01*
X133052331Y-128603796D01*
X133167546Y-128517546D01*
X133253796Y-128402331D01*
X133304091Y-128267483D01*
X133310500Y-128207873D01*
X133310500Y-128207831D01*
X133890000Y-128207831D01*
X133896401Y-128267373D01*
X133946647Y-128402090D01*
X134032810Y-128517189D01*
X134147909Y-128603352D01*
X134282626Y-128653598D01*
X134342169Y-128660000D01*
X135889999Y-128660000D01*
X135890000Y-128659999D01*
X136390000Y-128659999D01*
X136390001Y-128660000D01*
X137937831Y-128660000D01*
X137997373Y-128653598D01*
X138132090Y-128603352D01*
X138247189Y-128517189D01*
X138333352Y-128402090D01*
X138383598Y-128267373D01*
X138389996Y-128207869D01*
X139309500Y-128207869D01*
X139309501Y-128207874D01*
X139315909Y-128267483D01*
X139366204Y-128402331D01*
X139409328Y-128459938D01*
X139452453Y-128517546D01*
X139495578Y-128549828D01*
X139567669Y-128603796D01*
X139702517Y-128654091D01*
X139762127Y-128660500D01*
X143357872Y-128660499D01*
X143417483Y-128654091D01*
X143552331Y-128603796D01*
X143667546Y-128517546D01*
X143753796Y-128402331D01*
X143804091Y-128267483D01*
X143810500Y-128207873D01*
X143810500Y-128207869D01*
X144389500Y-128207869D01*
X144389501Y-128207874D01*
X144395909Y-128267483D01*
X144446204Y-128402331D01*
X144489328Y-128459938D01*
X144532453Y-128517546D01*
X144575578Y-128549828D01*
X144647669Y-128603796D01*
X144782517Y-128654091D01*
X144842127Y-128660500D01*
X148437872Y-128660499D01*
X148497483Y-128654091D01*
X148632331Y-128603796D01*
X148747546Y-128517546D01*
X148833796Y-128402331D01*
X148884091Y-128267483D01*
X148890500Y-128207873D01*
X148890500Y-128207869D01*
X149809500Y-128207869D01*
X149809501Y-128207874D01*
X149815909Y-128267483D01*
X149866204Y-128402331D01*
X149909328Y-128459938D01*
X149952453Y-128517546D01*
X149995578Y-128549828D01*
X150067669Y-128603796D01*
X150202517Y-128654091D01*
X150262127Y-128660500D01*
X153857872Y-128660499D01*
X153917483Y-128654091D01*
X154052331Y-128603796D01*
X154167546Y-128517546D01*
X154253796Y-128402331D01*
X154304091Y-128267483D01*
X154310500Y-128207873D01*
X154310500Y-128207869D01*
X154889500Y-128207869D01*
X154889501Y-128207874D01*
X154895909Y-128267483D01*
X154946204Y-128402331D01*
X154989328Y-128459938D01*
X155032453Y-128517546D01*
X155075578Y-128549828D01*
X155147669Y-128603796D01*
X155282517Y-128654091D01*
X155342127Y-128660500D01*
X158937872Y-128660499D01*
X158997483Y-128654091D01*
X159132331Y-128603796D01*
X159247546Y-128517546D01*
X159333796Y-128402331D01*
X159384091Y-128267483D01*
X159390500Y-128207873D01*
X159390499Y-122152128D01*
X159384091Y-122092517D01*
X159333796Y-121957669D01*
X159247813Y-121842810D01*
X159247546Y-121842453D01*
X159189938Y-121799329D01*
X159132331Y-121756204D01*
X158997483Y-121705909D01*
X158997482Y-121705908D01*
X158997480Y-121705908D01*
X158937874Y-121699500D01*
X155342130Y-121699500D01*
X155282526Y-121705908D01*
X155282517Y-121705909D01*
X155147669Y-121756204D01*
X155133185Y-121767046D01*
X155032453Y-121842453D01*
X154985952Y-121904572D01*
X154946204Y-121957669D01*
X154930468Y-121999860D01*
X154895908Y-122092519D01*
X154889500Y-122152125D01*
X154889500Y-128207869D01*
X154310500Y-128207869D01*
X154310499Y-122152128D01*
X154304091Y-122092517D01*
X154253796Y-121957669D01*
X154167813Y-121842810D01*
X154167546Y-121842453D01*
X154109938Y-121799329D01*
X154052331Y-121756204D01*
X153917483Y-121705909D01*
X153917482Y-121705908D01*
X153917480Y-121705908D01*
X153857874Y-121699500D01*
X150262130Y-121699500D01*
X150202526Y-121705908D01*
X150202517Y-121705909D01*
X150067669Y-121756204D01*
X150053185Y-121767046D01*
X149952453Y-121842453D01*
X149905952Y-121904572D01*
X149866204Y-121957669D01*
X149850468Y-121999860D01*
X149815908Y-122092519D01*
X149809500Y-122152125D01*
X149809500Y-128207869D01*
X148890500Y-128207869D01*
X148890499Y-122152128D01*
X148884091Y-122092517D01*
X148833796Y-121957669D01*
X148747813Y-121842810D01*
X148747546Y-121842453D01*
X148689938Y-121799329D01*
X148632331Y-121756204D01*
X148497483Y-121705909D01*
X148497482Y-121705908D01*
X148497480Y-121705908D01*
X148437874Y-121699500D01*
X144842130Y-121699500D01*
X144782526Y-121705908D01*
X144782517Y-121705909D01*
X144647669Y-121756204D01*
X144633185Y-121767046D01*
X144532453Y-121842453D01*
X144485952Y-121904572D01*
X144446204Y-121957669D01*
X144430468Y-121999860D01*
X144395908Y-122092519D01*
X144389500Y-122152125D01*
X144389500Y-128207869D01*
X143810500Y-128207869D01*
X143810499Y-122152128D01*
X143804091Y-122092517D01*
X143753796Y-121957669D01*
X143667813Y-121842810D01*
X143667546Y-121842453D01*
X143609938Y-121799329D01*
X143552331Y-121756204D01*
X143417483Y-121705909D01*
X143417482Y-121705908D01*
X143417480Y-121705908D01*
X143357874Y-121699500D01*
X139762130Y-121699500D01*
X139702526Y-121705908D01*
X139702517Y-121705909D01*
X139567669Y-121756204D01*
X139553185Y-121767046D01*
X139452453Y-121842453D01*
X139405952Y-121904572D01*
X139366204Y-121957669D01*
X139350468Y-121999860D01*
X139315908Y-122092519D01*
X139309500Y-122152125D01*
X139309500Y-128207869D01*
X138389996Y-128207869D01*
X138390000Y-128207831D01*
X138390000Y-125430001D01*
X138389999Y-125430000D01*
X136390001Y-125430000D01*
X136390000Y-125430001D01*
X136390000Y-128659999D01*
X135890000Y-128659999D01*
X135890000Y-125430001D01*
X135889999Y-125430000D01*
X133890001Y-125430000D01*
X133890000Y-125430001D01*
X133890000Y-128207831D01*
X133310500Y-128207831D01*
X133310499Y-124929999D01*
X133890000Y-124929999D01*
X133890001Y-124930000D01*
X135456446Y-124930000D01*
X135456445Y-124929999D01*
X135300000Y-124773553D01*
X135300000Y-124773554D01*
X135299999Y-124773553D01*
X135300000Y-124773553D01*
X134669968Y-124143522D01*
X134624176Y-124080496D01*
X134600103Y-124006404D01*
X134600103Y-123928500D01*
X134624176Y-123854408D01*
X134651350Y-123817006D01*
X134651350Y-123800756D01*
X134615990Y-123747835D01*
X134597036Y-123652547D01*
X134615990Y-123557259D01*
X134646446Y-123511678D01*
X134646446Y-123491146D01*
X134624177Y-123460496D01*
X134600103Y-123386404D01*
X134600103Y-123308498D01*
X134624177Y-123234406D01*
X134651350Y-123197006D01*
X134651350Y-123180754D01*
X134615990Y-123127833D01*
X134597037Y-123032546D01*
X134615991Y-122937258D01*
X134669968Y-122856477D01*
X135300000Y-122226447D01*
X135299999Y-122226447D01*
X135300000Y-122226446D01*
X135300000Y-122226447D01*
X135576477Y-121949968D01*
X135639503Y-121904177D01*
X135713594Y-121880103D01*
X135791499Y-121880103D01*
X135865590Y-121904176D01*
X135880742Y-121915184D01*
X135890000Y-121911350D01*
X135890000Y-121811349D01*
X136390000Y-121811349D01*
X136500001Y-121921350D01*
X136510769Y-121921350D01*
X136534405Y-121904177D01*
X136608497Y-121880103D01*
X136686402Y-121880102D01*
X136760494Y-121904176D01*
X136823521Y-121949967D01*
X137100001Y-122226447D01*
X137100000Y-122226447D01*
X137730031Y-122856477D01*
X137784008Y-122937258D01*
X137802962Y-123032545D01*
X137784009Y-123127832D01*
X137748650Y-123180753D01*
X137748650Y-123199245D01*
X137784007Y-123252161D01*
X137802961Y-123347449D01*
X137784008Y-123442736D01*
X137753553Y-123488316D01*
X137753553Y-123511679D01*
X137784008Y-123557258D01*
X137802962Y-123652545D01*
X137784009Y-123747832D01*
X137748650Y-123800753D01*
X137748650Y-123819246D01*
X137784009Y-123872165D01*
X137802962Y-123967453D01*
X137784008Y-124062741D01*
X137730032Y-124143522D01*
X137100000Y-124773554D01*
X137100000Y-124773553D01*
X136943554Y-124929999D01*
X136943554Y-124930000D01*
X138389999Y-124930000D01*
X138390000Y-124929999D01*
X138390000Y-122152169D01*
X138383598Y-122092626D01*
X138333352Y-121957909D01*
X138247189Y-121842810D01*
X138132090Y-121756647D01*
X137997373Y-121706401D01*
X137937831Y-121700000D01*
X136390001Y-121700000D01*
X136390000Y-121700001D01*
X136390000Y-121811349D01*
X135890000Y-121811349D01*
X135890000Y-121700001D01*
X135889999Y-121700000D01*
X134342169Y-121700000D01*
X134282626Y-121706401D01*
X134147909Y-121756647D01*
X134032810Y-121842810D01*
X133946647Y-121957909D01*
X133896401Y-122092626D01*
X133890000Y-122152169D01*
X133890000Y-124929999D01*
X133310499Y-124929999D01*
X133310499Y-122152128D01*
X133304091Y-122092517D01*
X133253796Y-121957669D01*
X133167813Y-121842810D01*
X133167546Y-121842453D01*
X133109938Y-121799329D01*
X133052331Y-121756204D01*
X132917483Y-121705909D01*
X132917482Y-121705908D01*
X132917480Y-121705908D01*
X132857875Y-121699500D01*
X132857873Y-121699500D01*
X132159500Y-121699500D01*
X132064212Y-121680546D01*
X131983430Y-121626570D01*
X131929454Y-121545788D01*
X131910500Y-121450500D01*
X131910500Y-121095429D01*
X131929454Y-121000141D01*
X131983430Y-120919359D01*
X133279359Y-119623430D01*
X133360141Y-119569454D01*
X133455429Y-119550500D01*
X135806387Y-119550500D01*
X135866889Y-119557962D01*
X135923765Y-119579902D01*
X136015273Y-119628814D01*
X136203868Y-119686024D01*
X136400000Y-119705341D01*
X136596132Y-119686024D01*
X136784727Y-119628814D01*
X136877917Y-119579002D01*
X136934795Y-119557062D01*
X136995297Y-119549600D01*
X147543048Y-119549600D01*
X147594817Y-119555041D01*
X147804454Y-119599600D01*
X147993746Y-119599600D01*
X148203383Y-119555041D01*
X148255152Y-119549600D01*
X149356210Y-119549600D01*
X149376416Y-119550421D01*
X149382105Y-119550884D01*
X149424067Y-119554301D01*
X149500989Y-119543819D01*
X149507576Y-119543012D01*
X149584810Y-119534614D01*
X149584811Y-119534613D01*
X149594149Y-119533598D01*
X149598553Y-119532565D01*
X149607366Y-119529327D01*
X149607368Y-119529327D01*
X149680218Y-119502563D01*
X149686582Y-119500322D01*
X149769016Y-119472547D01*
X149773106Y-119470587D01*
X149781011Y-119465533D01*
X149781016Y-119465532D01*
X149846482Y-119423685D01*
X149852089Y-119420208D01*
X149918636Y-119380170D01*
X149918639Y-119380167D01*
X149926677Y-119375331D01*
X149930252Y-119372536D01*
X149936885Y-119365901D01*
X149936889Y-119365900D01*
X149991796Y-119310991D01*
X149996596Y-119306321D01*
X150059747Y-119246502D01*
X150076207Y-119226580D01*
X150914814Y-118387973D01*
X150929660Y-118374288D01*
X150966100Y-118343337D01*
X151013117Y-118281486D01*
X151017142Y-118276338D01*
X151065842Y-118215754D01*
X151065844Y-118215749D01*
X151071720Y-118208440D01*
X151074113Y-118204582D01*
X151096689Y-118155784D01*
X151110653Y-118125600D01*
X151113560Y-118119535D01*
X151152213Y-118041599D01*
X151153711Y-118037345D01*
X151155730Y-118028170D01*
X151155732Y-118028167D01*
X151172435Y-117952277D01*
X151173952Y-117945811D01*
X151174163Y-117944962D01*
X151192684Y-117870495D01*
X151192684Y-117870491D01*
X151194945Y-117861401D01*
X151195500Y-117856878D01*
X151195500Y-117769913D01*
X151195591Y-117763171D01*
X151196155Y-117742331D01*
X151197693Y-117685568D01*
X151197692Y-117685564D01*
X151197946Y-117676198D01*
X151195500Y-117650465D01*
X151195500Y-117379320D01*
X153295833Y-117379320D01*
X153430887Y-117439449D01*
X153605663Y-117476600D01*
X153784338Y-117476600D01*
X153984712Y-117434009D01*
X153984820Y-117434517D01*
X154010334Y-117427200D01*
X154079644Y-117427197D01*
X154105182Y-117434519D01*
X154105291Y-117434009D01*
X154305663Y-117476600D01*
X154484338Y-117476600D01*
X154684712Y-117434009D01*
X154684820Y-117434517D01*
X154710334Y-117427200D01*
X154779644Y-117427197D01*
X154805182Y-117434519D01*
X154805291Y-117434009D01*
X155005663Y-117476600D01*
X155184338Y-117476600D01*
X155384712Y-117434009D01*
X155384820Y-117434517D01*
X155410334Y-117427200D01*
X155479644Y-117427197D01*
X155505182Y-117434519D01*
X155505291Y-117434009D01*
X155705663Y-117476600D01*
X155884338Y-117476600D01*
X156084712Y-117434009D01*
X156084820Y-117434517D01*
X156110334Y-117427200D01*
X156179644Y-117427197D01*
X156205182Y-117434519D01*
X156205291Y-117434009D01*
X156405663Y-117476600D01*
X156584338Y-117476600D01*
X156784712Y-117434009D01*
X156784820Y-117434517D01*
X156810334Y-117427200D01*
X156879644Y-117427197D01*
X156905182Y-117434519D01*
X156905291Y-117434009D01*
X157105663Y-117476600D01*
X157284338Y-117476600D01*
X157459112Y-117439450D01*
X157594165Y-117379319D01*
X157195000Y-116980153D01*
X157194997Y-116980149D01*
X156845000Y-116630153D01*
X156815383Y-116659770D01*
X156815374Y-116659776D01*
X156671068Y-116804082D01*
X156590287Y-116858058D01*
X156494999Y-116877012D01*
X156399711Y-116858058D01*
X156318930Y-116804082D01*
X156145000Y-116630153D01*
X156115383Y-116659770D01*
X156115374Y-116659776D01*
X155971068Y-116804082D01*
X155890287Y-116858058D01*
X155794999Y-116877012D01*
X155699711Y-116858058D01*
X155618930Y-116804082D01*
X155445000Y-116630153D01*
X155415383Y-116659770D01*
X155415374Y-116659776D01*
X155271068Y-116804082D01*
X155190287Y-116858058D01*
X155094999Y-116877012D01*
X154999711Y-116858058D01*
X154918930Y-116804082D01*
X154745000Y-116630153D01*
X154715383Y-116659770D01*
X154715374Y-116659776D01*
X154571068Y-116804082D01*
X154490287Y-116858058D01*
X154394999Y-116877012D01*
X154299711Y-116858058D01*
X154218930Y-116804082D01*
X154045000Y-116630153D01*
X154015383Y-116659770D01*
X154015374Y-116659776D01*
X153695000Y-116980153D01*
X153694996Y-116980155D01*
X153295833Y-117379319D01*
X153295833Y-117379320D01*
X151195500Y-117379320D01*
X151195500Y-116626600D01*
X152840317Y-116626600D01*
X152858995Y-116804300D01*
X152914208Y-116974231D01*
X152943345Y-117024697D01*
X152943347Y-117024697D01*
X153588898Y-116379148D01*
X153691446Y-116276600D01*
X153588898Y-116174051D01*
X153588898Y-116174052D01*
X153517515Y-116102669D01*
X153471724Y-116039642D01*
X153447650Y-115965550D01*
X153447651Y-115887646D01*
X153471725Y-115813554D01*
X153517517Y-115750528D01*
X153588900Y-115679146D01*
X153691446Y-115576600D01*
X153691445Y-115576599D01*
X157198552Y-115576599D01*
X157372482Y-115750529D01*
X157426458Y-115831311D01*
X157445412Y-115926599D01*
X157426458Y-116021887D01*
X157372482Y-116102668D01*
X157228176Y-116246974D01*
X157228170Y-116246983D01*
X157198553Y-116276600D01*
X157198553Y-116276601D01*
X157946651Y-117024698D01*
X157975791Y-116974229D01*
X158031004Y-116804299D01*
X158049682Y-116626600D01*
X158031004Y-116448903D01*
X158000021Y-116353543D01*
X157987835Y-116276598D01*
X158000022Y-116199654D01*
X158031004Y-116104299D01*
X158049682Y-115926599D01*
X158031004Y-115748903D01*
X158000021Y-115653543D01*
X157987835Y-115576598D01*
X158000022Y-115499654D01*
X158031004Y-115404299D01*
X158049682Y-115226599D01*
X158031004Y-115048899D01*
X158000022Y-114953544D01*
X157987835Y-114876600D01*
X158000022Y-114799656D01*
X158031004Y-114704300D01*
X158049682Y-114526599D01*
X158031004Y-114348901D01*
X157975791Y-114178971D01*
X157946651Y-114128501D01*
X157228173Y-114846978D01*
X157228170Y-114846983D01*
X157198553Y-114876600D01*
X157372482Y-115050529D01*
X157426458Y-115131311D01*
X157445412Y-115226599D01*
X157426458Y-115321887D01*
X157372482Y-115402668D01*
X157228176Y-115546974D01*
X157228170Y-115546983D01*
X157198552Y-115576599D01*
X153691445Y-115576599D01*
X153588898Y-115474051D01*
X153588898Y-115474052D01*
X153517515Y-115402669D01*
X153471724Y-115339642D01*
X153447650Y-115265550D01*
X153447651Y-115187646D01*
X153471725Y-115113554D01*
X153517517Y-115050528D01*
X153588900Y-114979146D01*
X153691446Y-114876600D01*
X153588899Y-114774052D01*
X152943346Y-114128500D01*
X152914208Y-114178971D01*
X152858995Y-114348899D01*
X152840317Y-114526599D01*
X152858995Y-114704299D01*
X152889978Y-114799654D01*
X152902165Y-114876598D01*
X152889979Y-114953543D01*
X152858995Y-115048903D01*
X152840317Y-115226599D01*
X152858995Y-115404299D01*
X152889978Y-115499654D01*
X152902165Y-115576598D01*
X152889979Y-115653543D01*
X152858995Y-115748903D01*
X152840318Y-115926599D01*
X152858995Y-116104300D01*
X152889978Y-116199656D01*
X152902165Y-116276600D01*
X152889978Y-116353544D01*
X152858995Y-116448899D01*
X152840317Y-116626600D01*
X151195500Y-116626600D01*
X151195500Y-114036055D01*
X151206877Y-113961650D01*
X151239967Y-113894043D01*
X151291748Y-113839414D01*
X151341445Y-113811698D01*
X151349327Y-113805797D01*
X151349331Y-113805796D01*
X151391967Y-113773879D01*
X153295832Y-113773879D01*
X153942447Y-114420494D01*
X153942451Y-114420497D01*
X154045000Y-114523045D01*
X154147542Y-114420504D01*
X154147547Y-114420498D01*
X154218929Y-114349116D01*
X154299711Y-114295140D01*
X154394999Y-114276186D01*
X154490287Y-114295140D01*
X154571069Y-114349116D01*
X154642447Y-114420494D01*
X154642451Y-114420497D01*
X154745000Y-114523045D01*
X154847542Y-114420504D01*
X154847547Y-114420498D01*
X154918929Y-114349116D01*
X154999711Y-114295140D01*
X155094999Y-114276186D01*
X155190287Y-114295140D01*
X155271069Y-114349116D01*
X155342447Y-114420494D01*
X155342451Y-114420497D01*
X155445000Y-114523045D01*
X155547542Y-114420504D01*
X155547547Y-114420498D01*
X155618929Y-114349116D01*
X155699711Y-114295140D01*
X155794999Y-114276186D01*
X155890287Y-114295140D01*
X155971069Y-114349116D01*
X156042447Y-114420494D01*
X156042451Y-114420497D01*
X156145000Y-114523045D01*
X156247542Y-114420504D01*
X156247547Y-114420498D01*
X156318929Y-114349116D01*
X156399711Y-114295140D01*
X156494999Y-114276186D01*
X156590287Y-114295140D01*
X156671069Y-114349116D01*
X156742447Y-114420494D01*
X156742451Y-114420497D01*
X156845000Y-114523045D01*
X156947545Y-114420501D01*
X156947548Y-114420498D01*
X157195000Y-114173047D01*
X157194999Y-114173047D01*
X157195000Y-114173046D01*
X157195000Y-114173047D01*
X157594166Y-113773878D01*
X157459112Y-113713749D01*
X157284338Y-113676600D01*
X157105662Y-113676600D01*
X156905291Y-113719190D01*
X156905182Y-113718680D01*
X156879648Y-113726002D01*
X156810341Y-113726001D01*
X156784817Y-113718681D01*
X156784709Y-113719191D01*
X156584337Y-113676600D01*
X156405662Y-113676600D01*
X156205291Y-113719190D01*
X156205182Y-113718680D01*
X156179648Y-113726002D01*
X156110341Y-113726001D01*
X156084817Y-113718681D01*
X156084709Y-113719191D01*
X155884337Y-113676600D01*
X155705662Y-113676600D01*
X155505291Y-113719190D01*
X155505182Y-113718680D01*
X155479648Y-113726002D01*
X155410341Y-113726001D01*
X155384817Y-113718681D01*
X155384709Y-113719191D01*
X155184337Y-113676600D01*
X155005662Y-113676600D01*
X154805291Y-113719190D01*
X154805182Y-113718680D01*
X154779648Y-113726002D01*
X154710341Y-113726001D01*
X154684817Y-113718681D01*
X154684709Y-113719191D01*
X154484337Y-113676600D01*
X154305662Y-113676600D01*
X154105291Y-113719190D01*
X154105182Y-113718680D01*
X154079648Y-113726002D01*
X154010341Y-113726001D01*
X153984817Y-113718681D01*
X153984709Y-113719191D01*
X153784337Y-113676600D01*
X153605662Y-113676600D01*
X153430888Y-113713749D01*
X153295832Y-113773879D01*
X151391967Y-113773879D01*
X151464546Y-113719546D01*
X151550796Y-113604331D01*
X151601091Y-113469483D01*
X151607500Y-113409873D01*
X151607499Y-111790128D01*
X151601091Y-111730517D01*
X151550796Y-111595669D01*
X151483451Y-111505708D01*
X151464546Y-111480453D01*
X151381583Y-111418348D01*
X151349331Y-111394204D01*
X151214483Y-111343909D01*
X151214482Y-111343908D01*
X151214480Y-111343908D01*
X151154875Y-111337500D01*
X150047176Y-111337500D01*
X149962101Y-111322515D01*
X149887265Y-111279365D01*
X149831676Y-111213243D01*
X149802024Y-111132107D01*
X149801878Y-111045722D01*
X149831256Y-110964487D01*
X149886621Y-110898177D01*
X149961308Y-110854774D01*
X149993266Y-110843034D01*
X150019321Y-110833462D01*
X150025682Y-110831222D01*
X150108116Y-110803447D01*
X150112206Y-110801487D01*
X150120111Y-110796433D01*
X150120116Y-110796432D01*
X150185582Y-110754585D01*
X150191189Y-110751108D01*
X150257736Y-110711070D01*
X150257739Y-110711067D01*
X150265777Y-110706231D01*
X150269352Y-110703436D01*
X150275985Y-110696801D01*
X150275989Y-110696800D01*
X150330896Y-110641891D01*
X150335696Y-110637221D01*
X150367091Y-110607483D01*
X150392041Y-110583849D01*
X150392041Y-110583848D01*
X150398847Y-110577402D01*
X150415307Y-110557480D01*
X151599814Y-109372973D01*
X151614660Y-109359288D01*
X151651100Y-109328337D01*
X151698086Y-109266525D01*
X151702177Y-109261292D01*
X151750841Y-109200754D01*
X151750843Y-109200749D01*
X151756730Y-109193426D01*
X151759105Y-109189597D01*
X151763050Y-109181068D01*
X151763054Y-109181064D01*
X151795663Y-109110577D01*
X151798556Y-109104542D01*
X151801002Y-109099610D01*
X151833036Y-109035022D01*
X151833037Y-109035017D01*
X151837206Y-109026612D01*
X151838714Y-109022331D01*
X151840729Y-109013171D01*
X151840732Y-109013167D01*
X151857433Y-108937286D01*
X151858939Y-108930859D01*
X151877684Y-108855495D01*
X151877684Y-108855493D01*
X151879946Y-108846399D01*
X151880500Y-108841878D01*
X151880500Y-108754913D01*
X151880591Y-108748171D01*
X151882530Y-108676570D01*
X151882693Y-108670568D01*
X151882692Y-108670564D01*
X151882946Y-108661198D01*
X151880500Y-108635465D01*
X151880500Y-108021379D01*
X151890406Y-107951843D01*
X151919338Y-107887840D01*
X151964991Y-107834462D01*
X151977466Y-107823482D01*
X152026641Y-107780203D01*
X152102964Y-107685677D01*
X152173414Y-107625765D01*
X152260873Y-107595695D01*
X152353274Y-107599618D01*
X152437869Y-107636994D01*
X152479332Y-107678807D01*
X152481280Y-107676941D01*
X152495941Y-107692238D01*
X152495943Y-107692241D01*
X152657956Y-107861283D01*
X152846208Y-108000513D01*
X152920208Y-108037823D01*
X153055277Y-108105924D01*
X153055279Y-108105924D01*
X153055282Y-108105926D01*
X153279163Y-108174489D01*
X153511411Y-108204229D01*
X153731772Y-108194868D01*
X153819169Y-108206795D01*
X153896928Y-108248445D01*
X153955285Y-108314594D01*
X153986916Y-108396938D01*
X153987853Y-108485144D01*
X153957978Y-108568142D01*
X153932820Y-108611717D01*
X153874326Y-108791743D01*
X153854540Y-108980000D01*
X153874326Y-109168256D01*
X153932819Y-109348280D01*
X153932820Y-109348282D01*
X153932821Y-109348284D01*
X154027467Y-109512216D01*
X154154129Y-109652888D01*
X154307270Y-109764151D01*
X154480197Y-109841144D01*
X154665354Y-109880500D01*
X154665355Y-109880500D01*
X154880817Y-109880500D01*
X154880817Y-109882542D01*
X154934410Y-109881416D01*
X155021878Y-109913939D01*
X155091230Y-109976379D01*
X155132725Y-110059965D01*
X155140535Y-110152956D01*
X155134768Y-110207832D01*
X155134540Y-110210000D01*
X155140474Y-110266463D01*
X155154326Y-110398256D01*
X155212819Y-110578280D01*
X155212820Y-110578282D01*
X155212821Y-110578284D01*
X155303667Y-110735635D01*
X155307468Y-110742217D01*
X155415138Y-110861797D01*
X155434129Y-110882888D01*
X155587270Y-110994151D01*
X155760197Y-111071144D01*
X155945354Y-111110500D01*
X156134645Y-111110500D01*
X156134646Y-111110500D01*
X156319803Y-111071144D01*
X156492730Y-110994151D01*
X156492731Y-110994149D01*
X156516638Y-110983506D01*
X156517587Y-110985638D01*
X156543016Y-110972684D01*
X156619952Y-110960500D01*
X157587189Y-110960500D01*
X157623276Y-110963128D01*
X157638023Y-110965289D01*
X157676521Y-110961920D01*
X157681941Y-110961447D01*
X157703640Y-110960500D01*
X157703711Y-110960500D01*
X157722331Y-110958323D01*
X157732672Y-110957114D01*
X157739843Y-110956380D01*
X157812797Y-110949999D01*
X157812798Y-110949998D01*
X157823836Y-110949033D01*
X157834254Y-110945241D01*
X157834255Y-110945241D01*
X157903053Y-110920200D01*
X157909818Y-110917848D01*
X157979334Y-110894814D01*
X157979337Y-110894811D01*
X157989857Y-110891326D01*
X157999112Y-110885238D01*
X157999117Y-110885237D01*
X158060286Y-110845004D01*
X158066323Y-110841158D01*
X158128656Y-110802712D01*
X158128659Y-110802708D01*
X158138088Y-110796893D01*
X158145693Y-110788831D01*
X158145696Y-110788830D01*
X158195918Y-110735596D01*
X158200896Y-110730470D01*
X159379209Y-109552157D01*
X159406571Y-109528512D01*
X159418530Y-109519610D01*
X159446855Y-109485852D01*
X159461535Y-109469832D01*
X159461591Y-109469777D01*
X159461594Y-109469772D01*
X159471860Y-109459509D01*
X159473766Y-109461415D01*
X159520657Y-109419858D01*
X159602171Y-109388059D01*
X159689652Y-109386421D01*
X159772299Y-109415147D01*
X159839907Y-109470688D01*
X159884127Y-109546188D01*
X159899500Y-109632324D01*
X159899500Y-129750500D01*
X159880546Y-129845788D01*
X159826570Y-129926570D01*
X159745788Y-129980546D01*
X159650500Y-129999500D01*
X110149500Y-129999500D01*
X110054212Y-129980546D01*
X109973430Y-129926570D01*
X109919454Y-129845788D01*
X109900500Y-129750500D01*
X109900500Y-126999999D01*
X110994520Y-126999999D01*
X111014933Y-127285409D01*
X111075756Y-127565009D01*
X111175750Y-127833106D01*
X111175751Y-127833107D01*
X111312883Y-128084244D01*
X111484359Y-128313310D01*
X111686690Y-128515641D01*
X111915756Y-128687117D01*
X112166893Y-128824249D01*
X112434991Y-128924244D01*
X112714590Y-128985067D01*
X113000000Y-129005480D01*
X113285410Y-128985067D01*
X113565009Y-128924244D01*
X113833107Y-128824249D01*
X114084244Y-128687117D01*
X114313310Y-128515641D01*
X114515641Y-128313310D01*
X114687117Y-128084244D01*
X114824249Y-127833107D01*
X114924244Y-127565009D01*
X114985067Y-127285410D01*
X115005480Y-127000000D01*
X114985067Y-126714590D01*
X114924244Y-126434991D01*
X114824249Y-126166893D01*
X114687117Y-125915756D01*
X114515641Y-125686690D01*
X114313310Y-125484359D01*
X114084244Y-125312883D01*
X113958675Y-125244317D01*
X113833106Y-125175750D01*
X113565009Y-125075756D01*
X113565008Y-125075755D01*
X113285410Y-125014933D01*
X113000000Y-124994520D01*
X112714590Y-125014933D01*
X112434990Y-125075756D01*
X112166893Y-125175750D01*
X111915754Y-125312884D01*
X111686692Y-125484357D01*
X111484357Y-125686692D01*
X111312884Y-125915754D01*
X111175750Y-126166893D01*
X111075756Y-126434990D01*
X111014933Y-126714590D01*
X110994520Y-126999999D01*
X109900500Y-126999999D01*
X109900500Y-80249500D01*
X109919454Y-80154212D01*
X109973430Y-80073430D01*
X110054212Y-80019454D01*
X110149500Y-80000500D01*
X159650500Y-80000500D01*
X159745788Y-80019454D01*
G37*
%TD.AperFunction*%
%TA.AperFunction,Conductor*%
G36*
X130781280Y-83469454D02*
G01*
X130862062Y-83523430D01*
X133376570Y-86037938D01*
X133430546Y-86118720D01*
X133449500Y-86214008D01*
X133449500Y-103470910D01*
X133449079Y-103485387D01*
X133445669Y-103543936D01*
X133445717Y-103544209D01*
X133449500Y-103587447D01*
X133449500Y-105527189D01*
X133446871Y-105563277D01*
X133444711Y-105578022D01*
X133448553Y-105621941D01*
X133449500Y-105643640D01*
X133449500Y-105643714D01*
X133452888Y-105672709D01*
X133453623Y-105679904D01*
X133460966Y-105763834D01*
X133489788Y-105843025D01*
X133492163Y-105849858D01*
X133508613Y-105899500D01*
X133518673Y-105929856D01*
X133524761Y-105939113D01*
X133524763Y-105939117D01*
X133564978Y-106000263D01*
X133568848Y-106006337D01*
X133613106Y-106078089D01*
X133674364Y-106135882D01*
X133679561Y-106140929D01*
X135399915Y-107861283D01*
X137096570Y-109557937D01*
X137136140Y-109609507D01*
X137161016Y-109669561D01*
X137169500Y-109734007D01*
X137169500Y-111908296D01*
X137154944Y-111992183D01*
X137112978Y-112066262D01*
X137084089Y-112101461D01*
X136991185Y-112275274D01*
X136933976Y-112463867D01*
X136914658Y-112659999D01*
X136933976Y-112856132D01*
X136991185Y-113044725D01*
X137084091Y-113218541D01*
X137209116Y-113370883D01*
X137361458Y-113495908D01*
X137361462Y-113495910D01*
X137535273Y-113588814D01*
X137623497Y-113615576D01*
X137699544Y-113653855D01*
X137758251Y-113715516D01*
X137792754Y-113793351D01*
X137799017Y-113878259D01*
X137776310Y-113960314D01*
X137727286Y-114029923D01*
X137510642Y-114246569D01*
X137459073Y-114286140D01*
X137399018Y-114311015D01*
X137334572Y-114319500D01*
X129584690Y-114319500D01*
X129564484Y-114318679D01*
X129535669Y-114316332D01*
X129516833Y-114314799D01*
X129516832Y-114314799D01*
X129439929Y-114325276D01*
X129433239Y-114326095D01*
X129346786Y-114335497D01*
X129342323Y-114336543D01*
X129260667Y-114366541D01*
X129254316Y-114368777D01*
X129171920Y-114396541D01*
X129167755Y-114398537D01*
X129094492Y-114445365D01*
X129088765Y-114448917D01*
X129014262Y-114493744D01*
X129010619Y-114496592D01*
X128949150Y-114558060D01*
X128944323Y-114562759D01*
X128881156Y-114622595D01*
X128864693Y-114642517D01*
X127630191Y-115877018D01*
X127615322Y-115890725D01*
X127578899Y-115921663D01*
X127531956Y-115983415D01*
X127527806Y-115988724D01*
X127473302Y-116056531D01*
X127470873Y-116060446D01*
X127434353Y-116139381D01*
X127431444Y-116145452D01*
X127392803Y-116223369D01*
X127391278Y-116227700D01*
X127372587Y-116312613D01*
X127371049Y-116319176D01*
X127350060Y-116403573D01*
X127349500Y-116408152D01*
X127349500Y-116495087D01*
X127349409Y-116501829D01*
X127347053Y-116588801D01*
X127349500Y-116614535D01*
X127349500Y-121374573D01*
X127341016Y-121439019D01*
X127316140Y-121499073D01*
X127276569Y-121550643D01*
X126630641Y-122196570D01*
X126549860Y-122250546D01*
X126454572Y-122269500D01*
X114975427Y-122269500D01*
X114910981Y-122261015D01*
X114850926Y-122236140D01*
X114799357Y-122196569D01*
X114683430Y-122080641D01*
X114629454Y-121999860D01*
X114610500Y-121904572D01*
X114610500Y-121716202D01*
X114621876Y-121641797D01*
X114654966Y-121574192D01*
X114706746Y-121519562D01*
X114772482Y-121482902D01*
X114877331Y-121443796D01*
X114992546Y-121357546D01*
X115078796Y-121242331D01*
X115078798Y-121242325D01*
X115079958Y-121240776D01*
X115151926Y-121176037D01*
X115243143Y-121143634D01*
X115339825Y-121148466D01*
X115427357Y-121189801D01*
X115576468Y-121300083D01*
X115785470Y-121405460D01*
X116009270Y-121473998D01*
X116049999Y-121479213D01*
X116050000Y-121479213D01*
X116050000Y-121477691D01*
X116550000Y-121477691D01*
X116704086Y-121444482D01*
X116921266Y-121357213D01*
X117120576Y-121234492D01*
X117296276Y-121079855D01*
X117372669Y-120985245D01*
X117443123Y-120925330D01*
X117530584Y-120895261D01*
X117622986Y-120899186D01*
X117707581Y-120936563D01*
X117749401Y-120978740D01*
X117751280Y-120976941D01*
X117765941Y-120992238D01*
X117765943Y-120992241D01*
X117927956Y-121161283D01*
X118116208Y-121300513D01*
X118219896Y-121352791D01*
X118325277Y-121405924D01*
X118325279Y-121405924D01*
X118325282Y-121405926D01*
X118549163Y-121474489D01*
X118781411Y-121504229D01*
X119015345Y-121494292D01*
X119244234Y-121444962D01*
X119461494Y-121357660D01*
X119660875Y-121234896D01*
X119836641Y-121080203D01*
X119983735Y-120898030D01*
X120097926Y-120693619D01*
X120175929Y-120472849D01*
X120181114Y-120442613D01*
X120215500Y-120242074D01*
X120215500Y-119816572D01*
X120200616Y-119641697D01*
X120141618Y-119415113D01*
X120125823Y-119380170D01*
X120045172Y-119201750D01*
X119914057Y-119007759D01*
X119752044Y-118838717D01*
X119563792Y-118699487D01*
X119560397Y-118697775D01*
X119354722Y-118594075D01*
X119231057Y-118556203D01*
X119130837Y-118525511D01*
X119130835Y-118525510D01*
X119130833Y-118525510D01*
X118888881Y-118494527D01*
X118851306Y-118482362D01*
X118770059Y-118501230D01*
X118697078Y-118504330D01*
X118664652Y-118505708D01*
X118435763Y-118555038D01*
X118218507Y-118642339D01*
X118019127Y-118765102D01*
X117843354Y-118919801D01*
X117766706Y-119014728D01*
X117696251Y-119074644D01*
X117608787Y-119104712D01*
X117516384Y-119100785D01*
X117431787Y-119063403D01*
X117390264Y-119021522D01*
X117388331Y-119023375D01*
X117211714Y-118839095D01*
X117023531Y-118699916D01*
X116814529Y-118594539D01*
X116590729Y-118526001D01*
X116550000Y-118520786D01*
X116550000Y-121477691D01*
X116050000Y-121477691D01*
X116050000Y-118522309D01*
X115895913Y-118555517D01*
X115678733Y-118642786D01*
X115479422Y-118765507D01*
X115443772Y-118796884D01*
X115374330Y-118840103D01*
X115294631Y-118858490D01*
X115213273Y-118850061D01*
X115139036Y-118815724D01*
X115079931Y-118759186D01*
X115078796Y-118757670D01*
X115078796Y-118757669D01*
X114992546Y-118642454D01*
X114992392Y-118642339D01*
X114877332Y-118556205D01*
X114877331Y-118556204D01*
X114792479Y-118524556D01*
X114726746Y-118487898D01*
X114674967Y-118433269D01*
X114641877Y-118365663D01*
X114630500Y-118291258D01*
X114630500Y-118208742D01*
X114641877Y-118134337D01*
X114674967Y-118066731D01*
X114726746Y-118012102D01*
X114792479Y-117975443D01*
X114877331Y-117943796D01*
X114992546Y-117857546D01*
X115078796Y-117742331D01*
X115078798Y-117742325D01*
X115079958Y-117740776D01*
X115151926Y-117676037D01*
X115243143Y-117643634D01*
X115339825Y-117648466D01*
X115427357Y-117689801D01*
X115576468Y-117800083D01*
X115785470Y-117905460D01*
X116009270Y-117973998D01*
X116049999Y-117979213D01*
X116050000Y-117979213D01*
X116050000Y-115022309D01*
X115895913Y-115055517D01*
X115678733Y-115142786D01*
X115479422Y-115265507D01*
X115443772Y-115296884D01*
X115374330Y-115340103D01*
X115294631Y-115358490D01*
X115213273Y-115350061D01*
X115139036Y-115315724D01*
X115079931Y-115259186D01*
X115078796Y-115257670D01*
X115078796Y-115257669D01*
X114992546Y-115142454D01*
X114992392Y-115142339D01*
X114877332Y-115056205D01*
X114877331Y-115056204D01*
X114792479Y-115024556D01*
X114726746Y-114987898D01*
X114674967Y-114933269D01*
X114641877Y-114865663D01*
X114630500Y-114791258D01*
X114630500Y-114708742D01*
X114641877Y-114634337D01*
X114674967Y-114566731D01*
X114726746Y-114512102D01*
X114792479Y-114475443D01*
X114877331Y-114443796D01*
X114992546Y-114357546D01*
X115078796Y-114242331D01*
X115078798Y-114242325D01*
X115079958Y-114240776D01*
X115151926Y-114176037D01*
X115243143Y-114143634D01*
X115339825Y-114148466D01*
X115427357Y-114189801D01*
X115576468Y-114300083D01*
X115785470Y-114405460D01*
X116009270Y-114473998D01*
X116049999Y-114479213D01*
X116050000Y-114479213D01*
X116050000Y-111522309D01*
X115895913Y-111555517D01*
X115678733Y-111642786D01*
X115479422Y-111765507D01*
X115443772Y-111796884D01*
X115374330Y-111840103D01*
X115294631Y-111858490D01*
X115213273Y-111850061D01*
X115139036Y-111815724D01*
X115079931Y-111759186D01*
X115078796Y-111757670D01*
X115078796Y-111757669D01*
X114992546Y-111642454D01*
X114992392Y-111642339D01*
X114877332Y-111556205D01*
X114877331Y-111556204D01*
X114792479Y-111524556D01*
X114726746Y-111487898D01*
X114674967Y-111433269D01*
X114641877Y-111365663D01*
X114630500Y-111291258D01*
X114630500Y-111216202D01*
X114641876Y-111141797D01*
X114674966Y-111074192D01*
X114726746Y-111019562D01*
X114792482Y-110982902D01*
X114897331Y-110943796D01*
X115012546Y-110857546D01*
X115098796Y-110742331D01*
X115098798Y-110742325D01*
X115099958Y-110740776D01*
X115171926Y-110676037D01*
X115263143Y-110643634D01*
X115359825Y-110648466D01*
X115447357Y-110689801D01*
X115596468Y-110800083D01*
X115805470Y-110905460D01*
X116029270Y-110973998D01*
X116069999Y-110979213D01*
X116070000Y-110979213D01*
X116070000Y-109499000D01*
X116088954Y-109403712D01*
X116142930Y-109322930D01*
X116223712Y-109268954D01*
X116319000Y-109250000D01*
X116321000Y-109250000D01*
X116416288Y-109268954D01*
X116497070Y-109322930D01*
X116551046Y-109403712D01*
X116570000Y-109499000D01*
X116570000Y-110977691D01*
X116724086Y-110944482D01*
X116941266Y-110857213D01*
X117140576Y-110734492D01*
X117316276Y-110579855D01*
X117392669Y-110485245D01*
X117463123Y-110425330D01*
X117550584Y-110395261D01*
X117642986Y-110399186D01*
X117727581Y-110436563D01*
X117769401Y-110478740D01*
X117771280Y-110476941D01*
X117785941Y-110492238D01*
X117785943Y-110492241D01*
X117947956Y-110661283D01*
X118136208Y-110800513D01*
X118216765Y-110841129D01*
X118345277Y-110905924D01*
X118345279Y-110905924D01*
X118345282Y-110905926D01*
X118569163Y-110974489D01*
X118801411Y-111004229D01*
X118806136Y-111004834D01*
X118841814Y-111016384D01*
X118914917Y-110999407D01*
X119035345Y-110994292D01*
X119264234Y-110944962D01*
X119481494Y-110857660D01*
X119680875Y-110734896D01*
X119856641Y-110580203D01*
X119932964Y-110485677D01*
X120003414Y-110425765D01*
X120090873Y-110395695D01*
X120183274Y-110399618D01*
X120267869Y-110436994D01*
X120309332Y-110478807D01*
X120311280Y-110476941D01*
X120325941Y-110492238D01*
X120325943Y-110492241D01*
X120487956Y-110661283D01*
X120676208Y-110800513D01*
X120756765Y-110841129D01*
X120885277Y-110905924D01*
X120885279Y-110905924D01*
X120885282Y-110905926D01*
X121109163Y-110974489D01*
X121341411Y-111004229D01*
X121575345Y-110994292D01*
X121804234Y-110944962D01*
X122021494Y-110857660D01*
X122220875Y-110734896D01*
X122396641Y-110580203D01*
X122543735Y-110398030D01*
X122545519Y-110394836D01*
X122554891Y-110378062D01*
X122610425Y-110310272D01*
X122686005Y-110265921D01*
X122772270Y-110250500D01*
X123227189Y-110250500D01*
X123263276Y-110253128D01*
X123278023Y-110255289D01*
X123316521Y-110251920D01*
X123321941Y-110251447D01*
X123343640Y-110250500D01*
X123343711Y-110250500D01*
X123362905Y-110248256D01*
X123372672Y-110247114D01*
X123379843Y-110246380D01*
X123452797Y-110239999D01*
X123452798Y-110239998D01*
X123463836Y-110239033D01*
X123474254Y-110235241D01*
X123474255Y-110235241D01*
X123543053Y-110210200D01*
X123549818Y-110207848D01*
X123619334Y-110184814D01*
X123619337Y-110184811D01*
X123629857Y-110181326D01*
X123639112Y-110175238D01*
X123639117Y-110175237D01*
X123700286Y-110135004D01*
X123706323Y-110131158D01*
X123768656Y-110092712D01*
X123768659Y-110092708D01*
X123778088Y-110086893D01*
X123785693Y-110078831D01*
X123785696Y-110078830D01*
X123835918Y-110025596D01*
X123840931Y-110020436D01*
X124524431Y-109336937D01*
X124605212Y-109282961D01*
X124700500Y-109264007D01*
X124795788Y-109282961D01*
X124876570Y-109336937D01*
X124930546Y-109417719D01*
X124949500Y-109513007D01*
X124949500Y-112000500D01*
X124930546Y-112095788D01*
X124876570Y-112176570D01*
X124795788Y-112230546D01*
X124700500Y-112249500D01*
X120209690Y-112249500D01*
X120130069Y-112236427D01*
X120058808Y-112198580D01*
X120003393Y-112139936D01*
X119914057Y-112007759D01*
X119752044Y-111838717D01*
X119563792Y-111699487D01*
X119560397Y-111697775D01*
X119354722Y-111594075D01*
X119231057Y-111556203D01*
X119130837Y-111525511D01*
X119130835Y-111525510D01*
X119130833Y-111525510D01*
X118893862Y-111495165D01*
X118858185Y-111483614D01*
X118785078Y-111500592D01*
X118704182Y-111504028D01*
X118664652Y-111505708D01*
X118435763Y-111555038D01*
X118218507Y-111642339D01*
X118019127Y-111765102D01*
X117843354Y-111919801D01*
X117766706Y-112014728D01*
X117696251Y-112074644D01*
X117608787Y-112104712D01*
X117516384Y-112100785D01*
X117431787Y-112063403D01*
X117390264Y-112021522D01*
X117388331Y-112023375D01*
X117211714Y-111839095D01*
X117023531Y-111699916D01*
X116814529Y-111594539D01*
X116590729Y-111526001D01*
X116550000Y-111520786D01*
X116550000Y-114477691D01*
X116704086Y-114444482D01*
X116921266Y-114357213D01*
X117120576Y-114234492D01*
X117296276Y-114079855D01*
X117372669Y-113985245D01*
X117443123Y-113925330D01*
X117530584Y-113895261D01*
X117622986Y-113899186D01*
X117707581Y-113936563D01*
X117749401Y-113978740D01*
X117751280Y-113976941D01*
X117765941Y-113992238D01*
X117765943Y-113992241D01*
X117927956Y-114161283D01*
X118116208Y-114300513D01*
X118212176Y-114348899D01*
X118325277Y-114405924D01*
X118325279Y-114405924D01*
X118325282Y-114405926D01*
X118549163Y-114474489D01*
X118721772Y-114496592D01*
X118791117Y-114505472D01*
X118828693Y-114517637D01*
X118909936Y-114498769D01*
X119015345Y-114494292D01*
X119244234Y-114444962D01*
X119461494Y-114357660D01*
X119660875Y-114234896D01*
X119836641Y-114080203D01*
X119983735Y-113898030D01*
X119985962Y-113894043D01*
X119994891Y-113878062D01*
X120050425Y-113810272D01*
X120126005Y-113765921D01*
X120212270Y-113750500D01*
X125227189Y-113750500D01*
X125263276Y-113753128D01*
X125278023Y-113755289D01*
X125316521Y-113751920D01*
X125321941Y-113751447D01*
X125343640Y-113750500D01*
X125343711Y-113750500D01*
X125362331Y-113748323D01*
X125372672Y-113747114D01*
X125379843Y-113746380D01*
X125452797Y-113739999D01*
X125452798Y-113739998D01*
X125463836Y-113739033D01*
X125474254Y-113735241D01*
X125474255Y-113735241D01*
X125543053Y-113710200D01*
X125549818Y-113707848D01*
X125619334Y-113684814D01*
X125619337Y-113684811D01*
X125629857Y-113681326D01*
X125639112Y-113675238D01*
X125639117Y-113675237D01*
X125700286Y-113635004D01*
X125706323Y-113631158D01*
X125768656Y-113592712D01*
X125768660Y-113592707D01*
X125778087Y-113586893D01*
X125785690Y-113578833D01*
X125785696Y-113578830D01*
X125835971Y-113525539D01*
X125840882Y-113520484D01*
X126024432Y-113336934D01*
X126105212Y-113282959D01*
X126200500Y-113264005D01*
X126295788Y-113282959D01*
X126376570Y-113336936D01*
X126430546Y-113417717D01*
X126449500Y-113513005D01*
X126449500Y-113885993D01*
X126441016Y-113950439D01*
X126416140Y-114010493D01*
X126376570Y-114062063D01*
X124762062Y-115676570D01*
X124681280Y-115730546D01*
X124585992Y-115749500D01*
X120209690Y-115749500D01*
X120130069Y-115736427D01*
X120058808Y-115698580D01*
X120003393Y-115639936D01*
X119914057Y-115507759D01*
X119752044Y-115338717D01*
X119563792Y-115199487D01*
X119540307Y-115187646D01*
X119354722Y-115094075D01*
X119231057Y-115056203D01*
X119130837Y-115025511D01*
X119130835Y-115025510D01*
X119130833Y-115025510D01*
X118888881Y-114994527D01*
X118851306Y-114982362D01*
X118770059Y-115001230D01*
X118697078Y-115004330D01*
X118664652Y-115005708D01*
X118435763Y-115055038D01*
X118218507Y-115142339D01*
X118019127Y-115265102D01*
X117843354Y-115419801D01*
X117766706Y-115514728D01*
X117696251Y-115574644D01*
X117608787Y-115604712D01*
X117516384Y-115600785D01*
X117431787Y-115563403D01*
X117390264Y-115521522D01*
X117388331Y-115523375D01*
X117211714Y-115339095D01*
X117023531Y-115199916D01*
X116814529Y-115094539D01*
X116590729Y-115026001D01*
X116550000Y-115020786D01*
X116550000Y-117977691D01*
X116704086Y-117944482D01*
X116921266Y-117857213D01*
X117120576Y-117734492D01*
X117296276Y-117579855D01*
X117372669Y-117485245D01*
X117443123Y-117425330D01*
X117530584Y-117395261D01*
X117622986Y-117399186D01*
X117707581Y-117436563D01*
X117749401Y-117478740D01*
X117751280Y-117476941D01*
X117765941Y-117492238D01*
X117765943Y-117492241D01*
X117927956Y-117661283D01*
X118116208Y-117800513D01*
X118213368Y-117849500D01*
X118325277Y-117905924D01*
X118325279Y-117905924D01*
X118325282Y-117905926D01*
X118549163Y-117974489D01*
X118733599Y-117998106D01*
X118791117Y-118005472D01*
X118828693Y-118017637D01*
X118909936Y-117998769D01*
X119015345Y-117994292D01*
X119244234Y-117944962D01*
X119461494Y-117857660D01*
X119660875Y-117734896D01*
X119836641Y-117580203D01*
X119983735Y-117398030D01*
X119985519Y-117394836D01*
X119994891Y-117378062D01*
X120050425Y-117310272D01*
X120126005Y-117265921D01*
X120212270Y-117250500D01*
X124927189Y-117250500D01*
X124963276Y-117253128D01*
X124978023Y-117255289D01*
X125016521Y-117251920D01*
X125021941Y-117251447D01*
X125043640Y-117250500D01*
X125043711Y-117250500D01*
X125062331Y-117248323D01*
X125072672Y-117247114D01*
X125079843Y-117246380D01*
X125152797Y-117239999D01*
X125152798Y-117239998D01*
X125163836Y-117239033D01*
X125174254Y-117235241D01*
X125174255Y-117235241D01*
X125243053Y-117210200D01*
X125249818Y-117207848D01*
X125319334Y-117184814D01*
X125319337Y-117184811D01*
X125329857Y-117181326D01*
X125339112Y-117175238D01*
X125339117Y-117175237D01*
X125400286Y-117135004D01*
X125406323Y-117131158D01*
X125468656Y-117092712D01*
X125468659Y-117092708D01*
X125478088Y-117086893D01*
X125485693Y-117078831D01*
X125485696Y-117078830D01*
X125535918Y-117025596D01*
X125540896Y-117020470D01*
X127679209Y-114882157D01*
X127706571Y-114858512D01*
X127718530Y-114849610D01*
X127746855Y-114815852D01*
X127761535Y-114799832D01*
X127761591Y-114799777D01*
X127779733Y-114776830D01*
X127784226Y-114771314D01*
X127831302Y-114715214D01*
X127831303Y-114715210D01*
X127838425Y-114706724D01*
X127843108Y-114696680D01*
X127843111Y-114696677D01*
X127874080Y-114630261D01*
X127877175Y-114623870D01*
X127910040Y-114558433D01*
X127910040Y-114558430D01*
X127915017Y-114548522D01*
X127932056Y-114465999D01*
X127933624Y-114458923D01*
X127950500Y-114387721D01*
X127950500Y-114387716D01*
X127953055Y-114376935D01*
X127952732Y-114365861D01*
X127952734Y-114365856D01*
X127950605Y-114292690D01*
X127950500Y-114285449D01*
X127950500Y-113117329D01*
X127964702Y-113034438D01*
X128005688Y-112961003D01*
X128068782Y-112905400D01*
X128146787Y-112873973D01*
X128230805Y-112870305D01*
X128311249Y-112894814D01*
X128341567Y-112910040D01*
X128341570Y-112910040D01*
X128351471Y-112915013D01*
X128362321Y-112917253D01*
X128362327Y-112917256D01*
X128434063Y-112932067D01*
X128441018Y-112933610D01*
X128512279Y-112950500D01*
X128523059Y-112953055D01*
X128534142Y-112952732D01*
X128534144Y-112952733D01*
X128602081Y-112950756D01*
X128607290Y-112950605D01*
X128614530Y-112950500D01*
X129048296Y-112950500D01*
X129132183Y-112965056D01*
X129206262Y-113007022D01*
X129241461Y-113035910D01*
X129328367Y-113082362D01*
X129415273Y-113128814D01*
X129603868Y-113186024D01*
X129800000Y-113205341D01*
X129996132Y-113186024D01*
X130184727Y-113128814D01*
X130358538Y-113035910D01*
X130358539Y-113035908D01*
X130358541Y-113035908D01*
X130510883Y-112910883D01*
X130635908Y-112758541D01*
X130638415Y-112753851D01*
X130728814Y-112584727D01*
X130786024Y-112396132D01*
X130805341Y-112200000D01*
X130786024Y-112003868D01*
X130728814Y-111815273D01*
X130635910Y-111641462D01*
X130635908Y-111641458D01*
X130510883Y-111489116D01*
X130358541Y-111364091D01*
X130184725Y-111271185D01*
X129996132Y-111213976D01*
X129800000Y-111194658D01*
X129603866Y-111213976D01*
X129571783Y-111223709D01*
X129479966Y-111233665D01*
X129390835Y-111209470D01*
X129316654Y-111154454D01*
X129267628Y-111076186D01*
X129250500Y-110985432D01*
X129250500Y-98072811D01*
X129253129Y-98036723D01*
X129255289Y-98021977D01*
X129251447Y-97978059D01*
X129250500Y-97956360D01*
X129250500Y-97956295D01*
X129250500Y-97956291D01*
X129247108Y-97927280D01*
X129246380Y-97920155D01*
X129239999Y-97847203D01*
X129239997Y-97847198D01*
X129239032Y-97836163D01*
X129235241Y-97825748D01*
X129235241Y-97825745D01*
X129210196Y-97756935D01*
X129207845Y-97750171D01*
X129184814Y-97680666D01*
X129184811Y-97680662D01*
X129181325Y-97670140D01*
X129135017Y-97599731D01*
X129131124Y-97593620D01*
X129086894Y-97521911D01*
X129025618Y-97464101D01*
X129020421Y-97459054D01*
X127676551Y-96115183D01*
X127652893Y-96087806D01*
X127643999Y-96075859D01*
X127643998Y-96075858D01*
X127610235Y-96047527D01*
X127594234Y-96032865D01*
X127594170Y-96032801D01*
X127571266Y-96014691D01*
X127565649Y-96010115D01*
X127501114Y-95955963D01*
X127424714Y-95920336D01*
X127418201Y-95917183D01*
X127352821Y-95884348D01*
X127352817Y-95884347D01*
X127342909Y-95879371D01*
X127260338Y-95862320D01*
X127253294Y-95860759D01*
X127182109Y-95843888D01*
X127182107Y-95843888D01*
X127171322Y-95841332D01*
X127160245Y-95841654D01*
X127095722Y-95843531D01*
X127087078Y-95843783D01*
X127079837Y-95843888D01*
X125551704Y-95843888D01*
X125467817Y-95829332D01*
X125393738Y-95787366D01*
X125358538Y-95758477D01*
X125184725Y-95665573D01*
X124996132Y-95608364D01*
X124800000Y-95589046D01*
X124603869Y-95608363D01*
X124476465Y-95647011D01*
X124396032Y-95657598D01*
X124316465Y-95641769D01*
X124246210Y-95601202D01*
X124192724Y-95540205D01*
X124161684Y-95465251D01*
X124159000Y-95424233D01*
X124157245Y-95424406D01*
X124142430Y-95273990D01*
X124135524Y-95203868D01*
X124078314Y-95015273D01*
X123985410Y-94841462D01*
X123985409Y-94841461D01*
X123941213Y-94787608D01*
X123903646Y-94724932D01*
X123885891Y-94654049D01*
X123889477Y-94581064D01*
X123914093Y-94512266D01*
X123928814Y-94484727D01*
X123986024Y-94296132D01*
X124005341Y-94100000D01*
X123986024Y-93903868D01*
X123928814Y-93715273D01*
X123835910Y-93541462D01*
X123835908Y-93541458D01*
X123710883Y-93389116D01*
X123558541Y-93264091D01*
X123384725Y-93171185D01*
X123196132Y-93113976D01*
X123000000Y-93094658D01*
X122803867Y-93113976D01*
X122615274Y-93171185D01*
X122441461Y-93264089D01*
X122406262Y-93292978D01*
X122332183Y-93334944D01*
X122248296Y-93349500D01*
X122222811Y-93349500D01*
X122186724Y-93346871D01*
X122171976Y-93344710D01*
X122128075Y-93348552D01*
X122106372Y-93349500D01*
X122106285Y-93349500D01*
X122077281Y-93352889D01*
X122070088Y-93353624D01*
X121986163Y-93360967D01*
X121906979Y-93389786D01*
X121900149Y-93392160D01*
X121820142Y-93418672D01*
X121749714Y-93464993D01*
X121743613Y-93468880D01*
X121671827Y-93513159D01*
X121652300Y-93529067D01*
X121640004Y-93537156D01*
X121638781Y-93535297D01*
X121613095Y-93554586D01*
X121532512Y-93579809D01*
X121448134Y-93576651D01*
X121369662Y-93545476D01*
X121306121Y-93489868D01*
X121264817Y-93416222D01*
X121250500Y-93333007D01*
X121250500Y-91014007D01*
X121269454Y-90918719D01*
X121323430Y-90837938D01*
X121376444Y-90784923D01*
X121649317Y-90512049D01*
X121718186Y-90463378D01*
X121799356Y-90440485D01*
X121883511Y-90446001D01*
X121960998Y-90479292D01*
X122022928Y-90536539D01*
X122062197Y-90611175D01*
X122084571Y-90680034D01*
X122179217Y-90843966D01*
X122305879Y-90984638D01*
X122459020Y-91095901D01*
X122631947Y-91172894D01*
X122817104Y-91212250D01*
X123006395Y-91212250D01*
X123006396Y-91212250D01*
X123191553Y-91172894D01*
X123279407Y-91133778D01*
X123328916Y-91117691D01*
X123380686Y-91112250D01*
X125778442Y-91112250D01*
X125778444Y-91112250D01*
X125808931Y-91105291D01*
X125836431Y-91100619D01*
X125867505Y-91097118D01*
X125897007Y-91086794D01*
X125923825Y-91079067D01*
X125954311Y-91072110D01*
X125982486Y-91058541D01*
X126008255Y-91047867D01*
X126037772Y-91037539D01*
X126064248Y-91020902D01*
X126088662Y-91007408D01*
X126116837Y-90993841D01*
X126141275Y-90974351D01*
X126164034Y-90958202D01*
X126190512Y-90941566D01*
X126318066Y-90814012D01*
X126435703Y-90696375D01*
X126435706Y-90696371D01*
X126697826Y-90434252D01*
X126697826Y-90434251D01*
X126729816Y-90402262D01*
X126746446Y-90375793D01*
X126762601Y-90353025D01*
X126782091Y-90328587D01*
X126795654Y-90300420D01*
X126809154Y-90275994D01*
X126825789Y-90249522D01*
X126836117Y-90220002D01*
X126846794Y-90194226D01*
X126860359Y-90166061D01*
X126867314Y-90135586D01*
X126875039Y-90108771D01*
X126885368Y-90079255D01*
X126888869Y-90048176D01*
X126893542Y-90020677D01*
X126900500Y-89990195D01*
X126900500Y-89809806D01*
X126900500Y-86455046D01*
X126900500Y-86409806D01*
X126893542Y-86379324D01*
X126888868Y-86351817D01*
X126885368Y-86320745D01*
X126875042Y-86291236D01*
X126867315Y-86264411D01*
X126860360Y-86233940D01*
X126860360Y-86233939D01*
X126846794Y-86205769D01*
X126836118Y-86179997D01*
X126825789Y-86150478D01*
X126825787Y-86150475D01*
X126825787Y-86150474D01*
X126809159Y-86124012D01*
X126795655Y-86099579D01*
X126782091Y-86071413D01*
X126762601Y-86046973D01*
X126746442Y-86024199D01*
X126729816Y-85997738D01*
X126729814Y-85997736D01*
X126602262Y-85870183D01*
X126602262Y-85870184D01*
X125402259Y-84670181D01*
X125375798Y-84653555D01*
X125353023Y-84637396D01*
X125328586Y-84617908D01*
X125300428Y-84604348D01*
X125275991Y-84590842D01*
X125249520Y-84574209D01*
X125220011Y-84563883D01*
X125194224Y-84553202D01*
X125166061Y-84539640D01*
X125166060Y-84539639D01*
X125135578Y-84532682D01*
X125108755Y-84524954D01*
X125079255Y-84514631D01*
X125048189Y-84511131D01*
X125020669Y-84506455D01*
X124990194Y-84499500D01*
X124944954Y-84499500D01*
X124685616Y-84499500D01*
X124593563Y-84481860D01*
X124514554Y-84431438D01*
X124459781Y-84355380D01*
X124437008Y-84264461D01*
X124449459Y-84171564D01*
X124495371Y-84089852D01*
X124568237Y-84030902D01*
X124708538Y-83955910D01*
X124708539Y-83955908D01*
X124708541Y-83955908D01*
X124860883Y-83830883D01*
X124985908Y-83678541D01*
X125002857Y-83646833D01*
X125037444Y-83582123D01*
X125092867Y-83512292D01*
X125169334Y-83466459D01*
X125257044Y-83450500D01*
X130685992Y-83450500D01*
X130781280Y-83469454D01*
G37*
%TD.AperFunction*%
%TA.AperFunction,Conductor*%
G36*
X148082634Y-110896459D02*
G01*
X148159101Y-110942292D01*
X148214522Y-111012122D01*
X148241794Y-111096999D01*
X148237419Y-111186041D01*
X148201960Y-111267836D01*
X148139962Y-111331898D01*
X148059371Y-111370015D01*
X147911723Y-111409577D01*
X147711591Y-111502899D01*
X147646812Y-111548258D01*
X148345000Y-112246447D01*
X148522483Y-112423930D01*
X148576459Y-112504712D01*
X148595413Y-112600000D01*
X148576459Y-112695288D01*
X148522483Y-112776069D01*
X147646812Y-113651740D01*
X147646812Y-113651741D01*
X147711590Y-113697099D01*
X147911723Y-113790422D01*
X148125020Y-113847575D01*
X148345000Y-113866821D01*
X148564979Y-113847575D01*
X148778274Y-113790423D01*
X148977046Y-113697734D01*
X149063201Y-113675137D01*
X149151798Y-113684307D01*
X149231497Y-113724070D01*
X149340669Y-113805796D01*
X149340670Y-113805796D01*
X149348554Y-113811698D01*
X149398252Y-113839414D01*
X149450033Y-113894043D01*
X149483123Y-113961650D01*
X149494500Y-114036055D01*
X149494500Y-117299571D01*
X149475546Y-117394859D01*
X149421570Y-117475641D01*
X149121541Y-117775670D01*
X149040759Y-117829646D01*
X148945471Y-117848600D01*
X148255152Y-117848600D01*
X148203383Y-117843159D01*
X147993746Y-117798600D01*
X147804454Y-117798600D01*
X147594817Y-117843159D01*
X147543048Y-117848600D01*
X145611598Y-117848600D01*
X145517171Y-117830001D01*
X145436851Y-117776982D01*
X145382636Y-117697464D01*
X145362626Y-117603326D01*
X145379810Y-117508631D01*
X145431621Y-117427526D01*
X145493274Y-117384125D01*
X145494165Y-117379319D01*
X145095000Y-116980153D01*
X145094997Y-116980149D01*
X144745000Y-116630153D01*
X144715383Y-116659770D01*
X144715374Y-116659776D01*
X144571068Y-116804082D01*
X144490287Y-116858058D01*
X144394999Y-116877012D01*
X144299711Y-116858058D01*
X144218930Y-116804082D01*
X144045000Y-116630153D01*
X144015383Y-116659770D01*
X144015374Y-116659776D01*
X143871068Y-116804082D01*
X143790287Y-116858058D01*
X143694999Y-116877012D01*
X143599711Y-116858058D01*
X143518930Y-116804082D01*
X143345000Y-116630153D01*
X143315383Y-116659770D01*
X143315374Y-116659776D01*
X143171068Y-116804082D01*
X143090287Y-116858058D01*
X142994999Y-116877012D01*
X142899711Y-116858058D01*
X142818930Y-116804082D01*
X142645000Y-116630153D01*
X142615383Y-116659770D01*
X142615374Y-116659776D01*
X142471068Y-116804082D01*
X142390287Y-116858058D01*
X142294999Y-116877012D01*
X142199711Y-116858058D01*
X142118930Y-116804082D01*
X141945000Y-116630153D01*
X141915383Y-116659770D01*
X141915374Y-116659776D01*
X141595000Y-116980153D01*
X141594996Y-116980155D01*
X141195833Y-117379319D01*
X141196724Y-117384126D01*
X141258377Y-117427525D01*
X141310188Y-117508630D01*
X141327373Y-117603325D01*
X141307364Y-117697463D01*
X141253149Y-117776982D01*
X141172828Y-117830001D01*
X141078401Y-117848600D01*
X136991929Y-117848600D01*
X136931426Y-117841138D01*
X136874553Y-117819199D01*
X136784727Y-117771186D01*
X136784726Y-117771185D01*
X136784725Y-117771185D01*
X136596132Y-117713976D01*
X136400000Y-117694658D01*
X136203867Y-117713976D01*
X136015272Y-117771186D01*
X135923765Y-117820098D01*
X135866889Y-117842038D01*
X135806387Y-117849500D01*
X133044690Y-117849500D01*
X133024484Y-117848679D01*
X132995669Y-117846332D01*
X132976833Y-117844799D01*
X132976832Y-117844799D01*
X132899929Y-117855276D01*
X132893239Y-117856095D01*
X132806786Y-117865497D01*
X132802323Y-117866543D01*
X132720667Y-117896541D01*
X132714316Y-117898777D01*
X132631920Y-117926541D01*
X132627755Y-117928537D01*
X132554492Y-117975365D01*
X132548765Y-117978917D01*
X132474262Y-118023744D01*
X132470619Y-118026592D01*
X132409151Y-118088059D01*
X132404324Y-118092758D01*
X132341156Y-118152595D01*
X132324693Y-118172517D01*
X130490191Y-120007018D01*
X130475322Y-120020725D01*
X130438899Y-120051663D01*
X130391956Y-120113415D01*
X130387806Y-120118724D01*
X130333302Y-120186531D01*
X130330873Y-120190446D01*
X130294353Y-120269381D01*
X130291444Y-120275452D01*
X130252803Y-120353369D01*
X130251278Y-120357700D01*
X130232587Y-120442613D01*
X130231049Y-120449176D01*
X130210060Y-120533573D01*
X130209500Y-120538152D01*
X130209500Y-120625087D01*
X130209409Y-120631829D01*
X130207053Y-120718801D01*
X130209500Y-120744535D01*
X130209500Y-121450501D01*
X130190546Y-121545789D01*
X130136570Y-121626571D01*
X130055788Y-121680547D01*
X129960500Y-121699501D01*
X129299500Y-121699501D01*
X129204212Y-121680547D01*
X129123430Y-121626571D01*
X129069454Y-121545789D01*
X129050500Y-121450501D01*
X129050500Y-116965429D01*
X129069454Y-116870141D01*
X129123430Y-116789359D01*
X129286189Y-116626600D01*
X140740317Y-116626600D01*
X140758995Y-116804300D01*
X140814208Y-116974231D01*
X140843345Y-117024697D01*
X140843347Y-117024697D01*
X141488898Y-116379148D01*
X141591446Y-116276600D01*
X141488898Y-116174051D01*
X141488898Y-116174052D01*
X141417515Y-116102669D01*
X141371724Y-116039642D01*
X141347650Y-115965550D01*
X141347651Y-115887646D01*
X141371725Y-115813554D01*
X141417517Y-115750528D01*
X141488900Y-115679146D01*
X141591446Y-115576600D01*
X141591445Y-115576599D01*
X145098552Y-115576599D01*
X145272482Y-115750529D01*
X145326458Y-115831311D01*
X145345412Y-115926599D01*
X145326458Y-116021887D01*
X145272482Y-116102668D01*
X145128176Y-116246974D01*
X145128170Y-116246983D01*
X145098553Y-116276600D01*
X145098553Y-116276601D01*
X145846651Y-117024698D01*
X145875791Y-116974229D01*
X145931004Y-116804299D01*
X145949682Y-116626600D01*
X145931004Y-116448903D01*
X145900021Y-116353543D01*
X145887835Y-116276598D01*
X145900022Y-116199654D01*
X145931004Y-116104299D01*
X145949682Y-115926599D01*
X145931004Y-115748903D01*
X145900021Y-115653543D01*
X145887835Y-115576598D01*
X145900022Y-115499654D01*
X145931004Y-115404299D01*
X145949682Y-115226599D01*
X145931004Y-115048899D01*
X145900022Y-114953544D01*
X145887835Y-114876600D01*
X145900022Y-114799656D01*
X145931004Y-114704300D01*
X145949682Y-114526600D01*
X145931004Y-114348901D01*
X145875791Y-114178971D01*
X145846651Y-114128501D01*
X145128173Y-114846978D01*
X145128170Y-114846983D01*
X145098553Y-114876600D01*
X145272482Y-115050529D01*
X145326458Y-115131311D01*
X145345412Y-115226599D01*
X145326458Y-115321887D01*
X145272482Y-115402668D01*
X145128176Y-115546974D01*
X145128170Y-115546983D01*
X145098552Y-115576599D01*
X141591445Y-115576599D01*
X141488898Y-115474051D01*
X141488898Y-115474052D01*
X141417515Y-115402669D01*
X141371724Y-115339642D01*
X141347650Y-115265550D01*
X141347651Y-115187646D01*
X141371725Y-115113554D01*
X141417517Y-115050528D01*
X141488900Y-114979146D01*
X141591446Y-114876600D01*
X141488899Y-114774052D01*
X140843346Y-114128500D01*
X140814208Y-114178971D01*
X140758995Y-114348899D01*
X140740317Y-114526599D01*
X140758995Y-114704299D01*
X140789978Y-114799654D01*
X140802165Y-114876598D01*
X140789979Y-114953543D01*
X140758995Y-115048903D01*
X140740318Y-115226599D01*
X140758995Y-115404299D01*
X140789978Y-115499654D01*
X140802165Y-115576598D01*
X140789979Y-115653543D01*
X140758995Y-115748903D01*
X140740318Y-115926599D01*
X140758995Y-116104300D01*
X140789978Y-116199656D01*
X140802165Y-116276600D01*
X140789978Y-116353544D01*
X140758995Y-116448899D01*
X140740317Y-116626600D01*
X129286189Y-116626600D01*
X129819359Y-116093430D01*
X129900141Y-116039454D01*
X129995429Y-116020500D01*
X137745310Y-116020500D01*
X137765516Y-116021321D01*
X137771205Y-116021784D01*
X137813167Y-116025201D01*
X137890089Y-116014719D01*
X137896676Y-116013912D01*
X137973910Y-116005514D01*
X137973911Y-116005513D01*
X137983249Y-116004498D01*
X137987653Y-116003465D01*
X137996466Y-116000227D01*
X137996468Y-116000227D01*
X138069318Y-115973463D01*
X138075682Y-115971222D01*
X138158116Y-115943447D01*
X138162206Y-115941487D01*
X138170111Y-115936433D01*
X138170116Y-115936432D01*
X138235582Y-115894585D01*
X138241189Y-115891108D01*
X138307736Y-115851070D01*
X138307739Y-115851067D01*
X138315777Y-115846231D01*
X138319352Y-115843436D01*
X138325985Y-115836801D01*
X138325989Y-115836800D01*
X138380896Y-115781891D01*
X138385696Y-115777221D01*
X138448847Y-115717402D01*
X138465307Y-115697480D01*
X140388909Y-113773879D01*
X141195832Y-113773879D01*
X141842447Y-114420494D01*
X141842451Y-114420497D01*
X141945000Y-114523045D01*
X142047542Y-114420504D01*
X142047547Y-114420498D01*
X142118929Y-114349116D01*
X142199711Y-114295140D01*
X142294999Y-114276186D01*
X142390287Y-114295140D01*
X142471069Y-114349116D01*
X142542447Y-114420494D01*
X142542451Y-114420497D01*
X142645000Y-114523045D01*
X142747542Y-114420504D01*
X142747547Y-114420498D01*
X142818929Y-114349116D01*
X142899711Y-114295140D01*
X142994999Y-114276186D01*
X143090287Y-114295140D01*
X143171069Y-114349116D01*
X143242447Y-114420494D01*
X143242451Y-114420497D01*
X143345000Y-114523045D01*
X143447542Y-114420504D01*
X143447547Y-114420498D01*
X143518929Y-114349116D01*
X143599711Y-114295140D01*
X143694999Y-114276186D01*
X143790287Y-114295140D01*
X143871069Y-114349116D01*
X143942447Y-114420494D01*
X143942451Y-114420497D01*
X144045000Y-114523045D01*
X144147542Y-114420504D01*
X144147547Y-114420498D01*
X144218929Y-114349116D01*
X144299711Y-114295140D01*
X144394999Y-114276186D01*
X144490287Y-114295140D01*
X144571069Y-114349116D01*
X144642447Y-114420494D01*
X144642451Y-114420497D01*
X144745000Y-114523045D01*
X144847545Y-114420501D01*
X144847548Y-114420498D01*
X145095000Y-114173047D01*
X145094999Y-114173047D01*
X145095000Y-114173046D01*
X145095000Y-114173047D01*
X145494166Y-113773878D01*
X145359112Y-113713749D01*
X145184338Y-113676600D01*
X145005662Y-113676600D01*
X144805291Y-113719190D01*
X144805182Y-113718680D01*
X144779648Y-113726002D01*
X144710341Y-113726001D01*
X144684817Y-113718681D01*
X144684709Y-113719191D01*
X144484337Y-113676600D01*
X144305662Y-113676600D01*
X144105291Y-113719190D01*
X144105182Y-113718680D01*
X144079648Y-113726002D01*
X144010341Y-113726001D01*
X143984817Y-113718681D01*
X143984709Y-113719191D01*
X143784337Y-113676600D01*
X143605662Y-113676600D01*
X143405291Y-113719190D01*
X143405182Y-113718680D01*
X143379648Y-113726002D01*
X143310341Y-113726001D01*
X143284817Y-113718681D01*
X143284709Y-113719191D01*
X143084337Y-113676600D01*
X142905662Y-113676600D01*
X142705291Y-113719190D01*
X142705182Y-113718680D01*
X142679648Y-113726002D01*
X142610341Y-113726001D01*
X142584817Y-113718681D01*
X142584709Y-113719191D01*
X142384337Y-113676600D01*
X142205662Y-113676600D01*
X142005291Y-113719190D01*
X142005182Y-113718680D01*
X141979648Y-113726002D01*
X141910341Y-113726001D01*
X141884817Y-113718681D01*
X141884709Y-113719191D01*
X141684337Y-113676600D01*
X141505662Y-113676600D01*
X141330888Y-113713749D01*
X141195832Y-113773879D01*
X140388909Y-113773879D01*
X141562788Y-112600000D01*
X147078178Y-112600000D01*
X147097424Y-112819979D01*
X147154577Y-113033276D01*
X147247901Y-113233413D01*
X147293256Y-113298186D01*
X147293258Y-113298186D01*
X147991445Y-112600000D01*
X147293257Y-111901812D01*
X147247899Y-111966591D01*
X147154577Y-112166723D01*
X147097424Y-112380020D01*
X147078178Y-112600000D01*
X141562788Y-112600000D01*
X141809358Y-112353430D01*
X141890140Y-112299454D01*
X141985428Y-112280500D01*
X145285310Y-112280500D01*
X145305516Y-112281321D01*
X145311205Y-112281784D01*
X145353167Y-112285201D01*
X145430089Y-112274719D01*
X145436676Y-112273912D01*
X145513910Y-112265514D01*
X145513911Y-112265513D01*
X145523249Y-112264498D01*
X145527653Y-112263465D01*
X145536466Y-112260227D01*
X145536468Y-112260227D01*
X145609318Y-112233463D01*
X145615682Y-112231222D01*
X145617689Y-112230546D01*
X145689221Y-112206444D01*
X145689220Y-112206444D01*
X145698116Y-112203447D01*
X145702206Y-112201487D01*
X145710111Y-112196433D01*
X145710116Y-112196432D01*
X145775582Y-112154585D01*
X145781189Y-112151108D01*
X145847736Y-112111070D01*
X145847739Y-112111067D01*
X145855777Y-112106231D01*
X145859352Y-112103436D01*
X145865985Y-112096801D01*
X145865989Y-112096800D01*
X145920896Y-112041891D01*
X145925652Y-112037262D01*
X145982041Y-111983849D01*
X145982043Y-111983845D01*
X145988849Y-111977399D01*
X146005306Y-111957481D01*
X147009357Y-110953430D01*
X147090140Y-110899454D01*
X147185428Y-110880500D01*
X147994924Y-110880500D01*
X148082634Y-110896459D01*
G37*
%TD.AperFunction*%
%TA.AperFunction,Conductor*%
G36*
X146006960Y-88448612D02*
G01*
X146082236Y-88503491D01*
X146132074Y-88582194D01*
X146149500Y-88673706D01*
X146149500Y-90848296D01*
X146134944Y-90932183D01*
X146092978Y-91006262D01*
X146064089Y-91041461D01*
X145971185Y-91215274D01*
X145913976Y-91403867D01*
X145894658Y-91599999D01*
X145913976Y-91796132D01*
X145971185Y-91984725D01*
X146064091Y-92158541D01*
X146189116Y-92310883D01*
X146341458Y-92435908D01*
X146341462Y-92435910D01*
X146515273Y-92528814D01*
X146703868Y-92586024D01*
X146880682Y-92603438D01*
X146899999Y-92605341D01*
X146899999Y-92605340D01*
X146900000Y-92605341D01*
X147096132Y-92586024D01*
X147284727Y-92528814D01*
X147458538Y-92435910D01*
X147458539Y-92435908D01*
X147458541Y-92435908D01*
X147610883Y-92310883D01*
X147735908Y-92158541D01*
X147735910Y-92158538D01*
X147828814Y-91984727D01*
X147886024Y-91796132D01*
X147905341Y-91600000D01*
X147900914Y-91555051D01*
X147907783Y-91467775D01*
X147944435Y-91388270D01*
X148006340Y-91326365D01*
X148085845Y-91289713D01*
X148173117Y-91282844D01*
X148300000Y-91295341D01*
X148300000Y-91295340D01*
X148300001Y-91295341D01*
X148317585Y-91293608D01*
X148496132Y-91276024D01*
X148684727Y-91218814D01*
X148858538Y-91125910D01*
X148858539Y-91125908D01*
X148858541Y-91125908D01*
X149010883Y-91000883D01*
X149135908Y-90848541D01*
X149138353Y-90843967D01*
X149228814Y-90674727D01*
X149286024Y-90486132D01*
X149301778Y-90326170D01*
X149321448Y-90250792D01*
X149363450Y-90185179D01*
X149423673Y-90135757D01*
X149496220Y-90107364D01*
X149573981Y-90102778D01*
X149600000Y-90105341D01*
X149796132Y-90086024D01*
X149984727Y-90028814D01*
X150158538Y-89935910D01*
X150193737Y-89907022D01*
X150267817Y-89865056D01*
X150351704Y-89850500D01*
X151285992Y-89850500D01*
X151381280Y-89869454D01*
X151462062Y-89923430D01*
X152746570Y-91207937D01*
X152786140Y-91259507D01*
X152811016Y-91319561D01*
X152819500Y-91384007D01*
X152819500Y-105090611D01*
X152809593Y-105160148D01*
X152780662Y-105224151D01*
X152735009Y-105277526D01*
X152588603Y-105406381D01*
X152573358Y-105419798D01*
X152497036Y-105514321D01*
X152426582Y-105574236D01*
X152339122Y-105604305D01*
X152246720Y-105600379D01*
X152162124Y-105563001D01*
X152120668Y-105521191D01*
X152118720Y-105523059D01*
X152104058Y-105507761D01*
X152104057Y-105507759D01*
X151942044Y-105338717D01*
X151753792Y-105199487D01*
X151750397Y-105197775D01*
X151544722Y-105094075D01*
X151407747Y-105052127D01*
X151320837Y-105025511D01*
X151320835Y-105025510D01*
X151320833Y-105025510D01*
X151088592Y-104995771D01*
X151088589Y-104995771D01*
X150989008Y-105000001D01*
X150854652Y-105005708D01*
X150625763Y-105055038D01*
X150408507Y-105142339D01*
X150209123Y-105265104D01*
X150173094Y-105296814D01*
X150103653Y-105340033D01*
X150023954Y-105358419D01*
X149942597Y-105349990D01*
X149868361Y-105315654D01*
X149809256Y-105259116D01*
X149722189Y-105142811D01*
X149607090Y-105056647D01*
X149472373Y-105006401D01*
X149412831Y-105000000D01*
X148740001Y-105000000D01*
X148740000Y-105000001D01*
X148740000Y-108199999D01*
X148740001Y-108200000D01*
X149412831Y-108200000D01*
X149472373Y-108193598D01*
X149607090Y-108143352D01*
X149722187Y-108057189D01*
X149731165Y-108045198D01*
X149795881Y-107984946D01*
X149877571Y-107951108D01*
X149965936Y-107947952D01*
X150049833Y-107975876D01*
X150118682Y-108031358D01*
X150163800Y-108107401D01*
X150179500Y-108194418D01*
X150179500Y-108284573D01*
X150171016Y-108349019D01*
X150146140Y-108409073D01*
X150106569Y-108460643D01*
X149460641Y-109106570D01*
X149379860Y-109160546D01*
X149284572Y-109179500D01*
X146774690Y-109179500D01*
X146754484Y-109178679D01*
X146725669Y-109176332D01*
X146706833Y-109174799D01*
X146706832Y-109174799D01*
X146629929Y-109185276D01*
X146623239Y-109186095D01*
X146536786Y-109195497D01*
X146532323Y-109196543D01*
X146450667Y-109226541D01*
X146444316Y-109228777D01*
X146410689Y-109240108D01*
X146370779Y-109253556D01*
X146370778Y-109253556D01*
X146361918Y-109256542D01*
X146357750Y-109258539D01*
X146284470Y-109305378D01*
X146278744Y-109308930D01*
X146204255Y-109353748D01*
X146200619Y-109356590D01*
X146139132Y-109418077D01*
X146134305Y-109422776D01*
X146071152Y-109482598D01*
X146054694Y-109502514D01*
X145254943Y-110302266D01*
X145183542Y-110352129D01*
X145099337Y-110374355D01*
X145012629Y-110366224D01*
X144934025Y-110328731D01*
X144873139Y-110266463D01*
X144837420Y-110187036D01*
X144831237Y-110100175D01*
X144835460Y-110060000D01*
X144815674Y-109871744D01*
X144757179Y-109691716D01*
X144757179Y-109691715D01*
X144713860Y-109616685D01*
X144688985Y-109556631D01*
X144680500Y-109492185D01*
X144680500Y-107747831D01*
X147115000Y-107747831D01*
X147121401Y-107807373D01*
X147171647Y-107942090D01*
X147257810Y-108057189D01*
X147372909Y-108143352D01*
X147507626Y-108193598D01*
X147567169Y-108200000D01*
X148239999Y-108200000D01*
X148240000Y-108199999D01*
X148240000Y-106850001D01*
X148239999Y-106850000D01*
X147115001Y-106850000D01*
X147115000Y-106850001D01*
X147115000Y-107747831D01*
X144680500Y-107747831D01*
X144680500Y-106349999D01*
X147115000Y-106349999D01*
X147115001Y-106350000D01*
X148239999Y-106350000D01*
X148240000Y-106349999D01*
X148240000Y-105000001D01*
X148239999Y-105000000D01*
X147567169Y-105000000D01*
X147507626Y-105006401D01*
X147372909Y-105056647D01*
X147257810Y-105142810D01*
X147171647Y-105257909D01*
X147121401Y-105392626D01*
X147115000Y-105452169D01*
X147115000Y-106349999D01*
X144680500Y-106349999D01*
X144680500Y-102744007D01*
X144699454Y-102648719D01*
X144753430Y-102567938D01*
X144875580Y-102445788D01*
X145979201Y-101342164D01*
X146006571Y-101318512D01*
X146018530Y-101309610D01*
X146046870Y-101275834D01*
X146061532Y-101259834D01*
X146061590Y-101259777D01*
X146079710Y-101236858D01*
X146084209Y-101231335D01*
X146131302Y-101175214D01*
X146131302Y-101175212D01*
X146138425Y-101166725D01*
X146143109Y-101156678D01*
X146143111Y-101156677D01*
X146174038Y-101090353D01*
X146177195Y-101083832D01*
X146190066Y-101058203D01*
X146210040Y-101018433D01*
X146210040Y-101018431D01*
X146215013Y-101008530D01*
X146217253Y-100997678D01*
X146217256Y-100997673D01*
X146232063Y-100925956D01*
X146233606Y-100918995D01*
X146250500Y-100847721D01*
X146250500Y-100847718D01*
X146253055Y-100836938D01*
X146252285Y-100810478D01*
X146250605Y-100752710D01*
X146250500Y-100745470D01*
X146250500Y-96251207D01*
X146265056Y-96167320D01*
X146307022Y-96093241D01*
X146335910Y-96058041D01*
X146359081Y-96014691D01*
X146428814Y-95884230D01*
X146486024Y-95695635D01*
X146505341Y-95499503D01*
X146486024Y-95303371D01*
X146428814Y-95114776D01*
X146335910Y-94940965D01*
X146335909Y-94940964D01*
X146324349Y-94919336D01*
X146327086Y-94917872D01*
X146307684Y-94883616D01*
X146293136Y-94799723D01*
X146307703Y-94715834D01*
X146327085Y-94681629D01*
X146324349Y-94680167D01*
X146338309Y-94654049D01*
X146428814Y-94484727D01*
X146486024Y-94296132D01*
X146505341Y-94100000D01*
X146486024Y-93903868D01*
X146428814Y-93715273D01*
X146335910Y-93541462D01*
X146335908Y-93541458D01*
X146210883Y-93389116D01*
X146058541Y-93264091D01*
X145884725Y-93171185D01*
X145696132Y-93113976D01*
X145499999Y-93094658D01*
X145303867Y-93113976D01*
X145115274Y-93171185D01*
X144941461Y-93264089D01*
X144906262Y-93292978D01*
X144832183Y-93334944D01*
X144748296Y-93349500D01*
X144072811Y-93349500D01*
X144036724Y-93346871D01*
X144021976Y-93344710D01*
X143978075Y-93348552D01*
X143956372Y-93349500D01*
X143956284Y-93349500D01*
X143927288Y-93352888D01*
X143920097Y-93353623D01*
X143836159Y-93360968D01*
X143756947Y-93389797D01*
X143750117Y-93392171D01*
X143670139Y-93418674D01*
X143599747Y-93464971D01*
X143593645Y-93468858D01*
X143521911Y-93513105D01*
X143464117Y-93574363D01*
X143459073Y-93579557D01*
X142180793Y-94857837D01*
X142153422Y-94881491D01*
X142141469Y-94890389D01*
X142113130Y-94924162D01*
X142098476Y-94940156D01*
X142098407Y-94940224D01*
X142080312Y-94963109D01*
X142075743Y-94968717D01*
X142021575Y-95033272D01*
X141985961Y-95109645D01*
X141982809Y-95116154D01*
X141944983Y-95191474D01*
X141927945Y-95273990D01*
X141926379Y-95281055D01*
X141906943Y-95363063D01*
X141909395Y-95447310D01*
X141909500Y-95454551D01*
X141909500Y-109492185D01*
X141901015Y-109556631D01*
X141876140Y-109616685D01*
X141832820Y-109691715D01*
X141778694Y-109858301D01*
X141774326Y-109871744D01*
X141754540Y-110060000D01*
X141757978Y-110092712D01*
X141774326Y-110248256D01*
X141775085Y-110250591D01*
X141787248Y-110330906D01*
X141772914Y-110410863D01*
X141733608Y-110481951D01*
X141673512Y-110536605D01*
X141599024Y-110569009D01*
X141518070Y-110575713D01*
X141506836Y-110574798D01*
X141429929Y-110585276D01*
X141423239Y-110586095D01*
X141336786Y-110595497D01*
X141332323Y-110596543D01*
X141250675Y-110626538D01*
X141244324Y-110628774D01*
X141161904Y-110656546D01*
X141157758Y-110658532D01*
X141084454Y-110705387D01*
X141078729Y-110708938D01*
X141004244Y-110753754D01*
X141000629Y-110756581D01*
X140939132Y-110818077D01*
X140934305Y-110822776D01*
X140871154Y-110882597D01*
X140854694Y-110902515D01*
X139289924Y-112467285D01*
X139220315Y-112516308D01*
X139138260Y-112539016D01*
X139053352Y-112532753D01*
X138975517Y-112498251D01*
X138913855Y-112439544D01*
X138875576Y-112363496D01*
X138872522Y-112353430D01*
X138848814Y-112275273D01*
X138790793Y-112166723D01*
X138755910Y-112101461D01*
X138727022Y-112066262D01*
X138685056Y-111992183D01*
X138670500Y-111908296D01*
X138670500Y-109392811D01*
X138673129Y-109356724D01*
X138675289Y-109341976D01*
X138671448Y-109298075D01*
X138670500Y-109276372D01*
X138670500Y-109276292D01*
X138669642Y-109268954D01*
X138667112Y-109247309D01*
X138666376Y-109240108D01*
X138665355Y-109228433D01*
X138659998Y-109167202D01*
X138659996Y-109167198D01*
X138659031Y-109156159D01*
X138630203Y-109076951D01*
X138627825Y-109070110D01*
X138616198Y-109035022D01*
X138604814Y-109000665D01*
X138604813Y-109000664D01*
X138601328Y-108990145D01*
X138595237Y-108980885D01*
X138595237Y-108980883D01*
X138554996Y-108919700D01*
X138551138Y-108913644D01*
X138512711Y-108851344D01*
X138512708Y-108851341D01*
X138506889Y-108841907D01*
X138445617Y-108784100D01*
X138440420Y-108779053D01*
X135023430Y-105362062D01*
X134969454Y-105281280D01*
X134950500Y-105185992D01*
X134950500Y-104499500D01*
X134969454Y-104404212D01*
X135023430Y-104323430D01*
X135104212Y-104269454D01*
X135199500Y-104250500D01*
X135620048Y-104250500D01*
X135696984Y-104262684D01*
X135722412Y-104275638D01*
X135723362Y-104273506D01*
X135747268Y-104284149D01*
X135747270Y-104284151D01*
X135920197Y-104361144D01*
X136105354Y-104400500D01*
X136105355Y-104400500D01*
X136250500Y-104400500D01*
X136345788Y-104419454D01*
X136426570Y-104473430D01*
X136480546Y-104554212D01*
X136499500Y-104649500D01*
X136499500Y-105571301D01*
X136499046Y-105586335D01*
X136495642Y-105642608D01*
X136505805Y-105698071D01*
X136508067Y-105712933D01*
X136514949Y-105769607D01*
X136526003Y-105809262D01*
X136526305Y-105809932D01*
X136548595Y-105859460D01*
X136549436Y-105861327D01*
X136555191Y-105875221D01*
X136575443Y-105928620D01*
X136595664Y-105964473D01*
X136596122Y-105965057D01*
X136630886Y-106009430D01*
X136639790Y-106021531D01*
X136671817Y-106067929D01*
X136713996Y-106105296D01*
X136724949Y-106115606D01*
X137684384Y-107075040D01*
X137694678Y-107085975D01*
X137732071Y-107128183D01*
X137732072Y-107128184D01*
X137778463Y-107160205D01*
X137790579Y-107169120D01*
X137835526Y-107204334D01*
X137871383Y-107224557D01*
X137872068Y-107224816D01*
X137872070Y-107224818D01*
X137924791Y-107244812D01*
X137938661Y-107250557D01*
X137990069Y-107273695D01*
X137990070Y-107273695D01*
X137990741Y-107273997D01*
X138030386Y-107285049D01*
X138031124Y-107285138D01*
X138031128Y-107285140D01*
X138087103Y-107291936D01*
X138101912Y-107294190D01*
X138157394Y-107304358D01*
X138210628Y-107301137D01*
X138213665Y-107300954D01*
X138228699Y-107300500D01*
X139387371Y-107300500D01*
X139471257Y-107315056D01*
X139545336Y-107357021D01*
X139641461Y-107435910D01*
X139681317Y-107457213D01*
X139815273Y-107528814D01*
X140003868Y-107586024D01*
X140200000Y-107605341D01*
X140396132Y-107586024D01*
X140584727Y-107528814D01*
X140758538Y-107435910D01*
X140758539Y-107435908D01*
X140758541Y-107435908D01*
X140910883Y-107310883D01*
X141035908Y-107158541D01*
X141035910Y-107158538D01*
X141128814Y-106984727D01*
X141186024Y-106796132D01*
X141205341Y-106600000D01*
X141186024Y-106403868D01*
X141128814Y-106215273D01*
X141035910Y-106041462D01*
X141035908Y-106041458D01*
X140910883Y-105889116D01*
X140758541Y-105764091D01*
X140584725Y-105671185D01*
X140396132Y-105613976D01*
X140199997Y-105594658D01*
X140138754Y-105600690D01*
X140042067Y-105591166D01*
X139956384Y-105545367D01*
X139894751Y-105470265D01*
X139866549Y-105377293D01*
X139876071Y-105280613D01*
X139908524Y-105173632D01*
X139927841Y-104977500D01*
X139908524Y-104781368D01*
X139851314Y-104592773D01*
X139804861Y-104505867D01*
X139758410Y-104418961D01*
X139679521Y-104322836D01*
X139637556Y-104248757D01*
X139623000Y-104164871D01*
X139623000Y-89070797D01*
X139641954Y-88975509D01*
X139695930Y-88894727D01*
X140062455Y-88528202D01*
X140143237Y-88474226D01*
X140238525Y-88455272D01*
X144237999Y-88455272D01*
X144321885Y-88469828D01*
X144395964Y-88511793D01*
X144492089Y-88590682D01*
X144564627Y-88629454D01*
X144665901Y-88683586D01*
X144854496Y-88740796D01*
X145050628Y-88760113D01*
X145246760Y-88740796D01*
X145435355Y-88683586D01*
X145609166Y-88590682D01*
X145742538Y-88481225D01*
X145824328Y-88436643D01*
X145916784Y-88425239D01*
X146006960Y-88448612D01*
G37*
%TD.AperFunction*%
%TA.AperFunction,Conductor*%
G36*
X117642986Y-106999186D02*
G01*
X117727581Y-107036563D01*
X117769401Y-107078740D01*
X117771280Y-107076941D01*
X117785941Y-107092238D01*
X117785943Y-107092241D01*
X117947956Y-107261283D01*
X118136208Y-107400513D01*
X118206410Y-107435908D01*
X118345277Y-107505924D01*
X118345279Y-107505924D01*
X118345282Y-107505926D01*
X118528959Y-107562176D01*
X118611292Y-107605585D01*
X118671934Y-107676197D01*
X118702410Y-107764144D01*
X118698460Y-107857139D01*
X118660636Y-107942186D01*
X118594224Y-108007401D01*
X118508504Y-108043672D01*
X118455762Y-108055038D01*
X118238507Y-108142339D01*
X118039127Y-108265102D01*
X117863354Y-108419801D01*
X117786706Y-108514728D01*
X117716251Y-108574644D01*
X117628787Y-108604712D01*
X117536384Y-108600785D01*
X117451787Y-108563403D01*
X117410264Y-108521522D01*
X117408331Y-108523375D01*
X117231714Y-108339095D01*
X117043531Y-108199916D01*
X116834525Y-108094537D01*
X116649059Y-108037739D01*
X116566723Y-107994330D01*
X116506080Y-107923717D01*
X116475605Y-107835769D01*
X116479556Y-107742774D01*
X116517380Y-107657727D01*
X116583794Y-107592512D01*
X116669515Y-107556242D01*
X116724089Y-107544480D01*
X116941266Y-107457213D01*
X117140576Y-107334492D01*
X117316276Y-107179855D01*
X117392669Y-107085245D01*
X117463123Y-107025330D01*
X117550584Y-106995261D01*
X117642986Y-106999186D01*
G37*
%TD.AperFunction*%
%TA.AperFunction,Conductor*%
G36*
X115359825Y-107248466D02*
G01*
X115447357Y-107289801D01*
X115596468Y-107400083D01*
X115805470Y-107505460D01*
X115990939Y-107562259D01*
X116073275Y-107605668D01*
X116133918Y-107676280D01*
X116164394Y-107764228D01*
X116160444Y-107857223D01*
X116122620Y-107942270D01*
X116056208Y-108007485D01*
X115970488Y-108043756D01*
X115915912Y-108055518D01*
X115698733Y-108142786D01*
X115499422Y-108265507D01*
X115463772Y-108296884D01*
X115394330Y-108340103D01*
X115314631Y-108358490D01*
X115233273Y-108350061D01*
X115159036Y-108315724D01*
X115099931Y-108259186D01*
X115098796Y-108257670D01*
X115098796Y-108257669D01*
X115012546Y-108142454D01*
X115012392Y-108142339D01*
X114948537Y-108094537D01*
X114897331Y-108056204D01*
X114835919Y-108033299D01*
X114761807Y-107989835D01*
X114706877Y-107923766D01*
X114677673Y-107842961D01*
X114677673Y-107757039D01*
X114706877Y-107676234D01*
X114761807Y-107610165D01*
X114835919Y-107566700D01*
X114897331Y-107543796D01*
X115012546Y-107457546D01*
X115098796Y-107342331D01*
X115098798Y-107342325D01*
X115099958Y-107340776D01*
X115171926Y-107276037D01*
X115263143Y-107243634D01*
X115359825Y-107248466D01*
G37*
%TD.AperFunction*%
%TA.AperFunction,Conductor*%
G36*
X117642986Y-103599186D02*
G01*
X117727581Y-103636563D01*
X117769401Y-103678740D01*
X117771280Y-103676941D01*
X117785941Y-103692238D01*
X117785943Y-103692241D01*
X117947956Y-103861283D01*
X118136208Y-104000513D01*
X118239896Y-104052791D01*
X118345277Y-104105924D01*
X118345279Y-104105924D01*
X118345282Y-104105926D01*
X118528959Y-104162176D01*
X118611292Y-104205585D01*
X118671934Y-104276197D01*
X118702410Y-104364144D01*
X118698460Y-104457139D01*
X118660636Y-104542186D01*
X118594224Y-104607401D01*
X118508504Y-104643672D01*
X118455762Y-104655038D01*
X118238507Y-104742339D01*
X118039127Y-104865102D01*
X117863354Y-105019801D01*
X117786706Y-105114728D01*
X117716251Y-105174644D01*
X117628787Y-105204712D01*
X117536384Y-105200785D01*
X117451787Y-105163403D01*
X117410264Y-105121522D01*
X117408331Y-105123375D01*
X117231714Y-104939095D01*
X117043531Y-104799916D01*
X116834525Y-104694537D01*
X116649059Y-104637739D01*
X116566723Y-104594330D01*
X116506080Y-104523717D01*
X116475605Y-104435769D01*
X116479556Y-104342774D01*
X116517380Y-104257727D01*
X116583794Y-104192512D01*
X116669515Y-104156242D01*
X116724089Y-104144480D01*
X116941266Y-104057213D01*
X117140576Y-103934492D01*
X117316276Y-103779855D01*
X117392669Y-103685245D01*
X117463123Y-103625330D01*
X117550584Y-103595261D01*
X117642986Y-103599186D01*
G37*
%TD.AperFunction*%
%TA.AperFunction,Conductor*%
G36*
X115359825Y-103848466D02*
G01*
X115447357Y-103889801D01*
X115596468Y-104000083D01*
X115805470Y-104105460D01*
X115990939Y-104162259D01*
X116073275Y-104205668D01*
X116133918Y-104276280D01*
X116164394Y-104364228D01*
X116160444Y-104457223D01*
X116122620Y-104542270D01*
X116056208Y-104607485D01*
X115970488Y-104643756D01*
X115915912Y-104655518D01*
X115698733Y-104742786D01*
X115499422Y-104865507D01*
X115463772Y-104896884D01*
X115394330Y-104940103D01*
X115314631Y-104958490D01*
X115233273Y-104950061D01*
X115159036Y-104915724D01*
X115099931Y-104859186D01*
X115098796Y-104857670D01*
X115098796Y-104857669D01*
X115012546Y-104742454D01*
X115012392Y-104742339D01*
X114948537Y-104694537D01*
X114897331Y-104656204D01*
X114835919Y-104633299D01*
X114761807Y-104589835D01*
X114706877Y-104523766D01*
X114677673Y-104442961D01*
X114677673Y-104357039D01*
X114706877Y-104276234D01*
X114761807Y-104210165D01*
X114835919Y-104166700D01*
X114897331Y-104143796D01*
X115012546Y-104057546D01*
X115098796Y-103942331D01*
X115098798Y-103942325D01*
X115099958Y-103940776D01*
X115171926Y-103876037D01*
X115263143Y-103843634D01*
X115359825Y-103848466D01*
G37*
%TD.AperFunction*%
%TA.AperFunction,Conductor*%
G36*
X123095305Y-82365055D02*
G01*
X123169384Y-82407020D01*
X123224994Y-82471488D01*
X123255635Y-82550922D01*
X123257725Y-82636035D01*
X123231019Y-82716877D01*
X123221185Y-82735274D01*
X123163976Y-82923867D01*
X123144658Y-83119999D01*
X123163976Y-83316132D01*
X123221185Y-83504725D01*
X123314091Y-83678541D01*
X123439116Y-83830883D01*
X123591458Y-83955908D01*
X123624595Y-83973620D01*
X123731762Y-84030902D01*
X123804629Y-84089852D01*
X123850541Y-84171564D01*
X123862992Y-84264461D01*
X123840219Y-84355380D01*
X123785446Y-84431438D01*
X123706437Y-84481860D01*
X123614384Y-84499500D01*
X118209802Y-84499500D01*
X118179327Y-84506455D01*
X118151810Y-84511131D01*
X118120745Y-84514631D01*
X118091232Y-84524958D01*
X118064419Y-84532683D01*
X118033936Y-84539641D01*
X118005767Y-84553206D01*
X117979987Y-84563884D01*
X117950478Y-84574210D01*
X117924001Y-84590846D01*
X117899578Y-84604344D01*
X117871412Y-84617908D01*
X117846973Y-84637398D01*
X117824207Y-84653551D01*
X117797738Y-84670182D01*
X117648112Y-84819804D01*
X117648102Y-84819819D01*
X115870183Y-86597738D01*
X115853551Y-86624207D01*
X115837398Y-86646972D01*
X115817910Y-86671410D01*
X115804349Y-86699569D01*
X115790848Y-86723998D01*
X115774209Y-86750479D01*
X115763885Y-86779983D01*
X115753205Y-86805767D01*
X115739639Y-86833937D01*
X115732683Y-86864415D01*
X115724956Y-86891239D01*
X115714630Y-86920750D01*
X115711129Y-86951816D01*
X115706455Y-86979328D01*
X115699500Y-87009805D01*
X115699500Y-98890194D01*
X115706455Y-98920669D01*
X115711131Y-98948189D01*
X115714631Y-98979255D01*
X115724954Y-99008755D01*
X115732684Y-99035585D01*
X115739640Y-99066061D01*
X115753202Y-99094224D01*
X115763883Y-99120011D01*
X115774209Y-99149520D01*
X115790842Y-99175991D01*
X115804348Y-99200428D01*
X115817908Y-99228586D01*
X115837396Y-99253023D01*
X115853555Y-99275798D01*
X115870181Y-99302259D01*
X117849952Y-101282030D01*
X117901319Y-101356742D01*
X117922531Y-101444892D01*
X117910777Y-101534793D01*
X117867614Y-101614526D01*
X117786708Y-101714727D01*
X117716252Y-101774643D01*
X117628789Y-101804712D01*
X117536384Y-101800785D01*
X117451788Y-101763403D01*
X117410264Y-101721522D01*
X117408331Y-101723375D01*
X117231714Y-101539095D01*
X117043531Y-101399916D01*
X116834529Y-101294539D01*
X116610729Y-101226001D01*
X116570000Y-101220786D01*
X116570000Y-102701000D01*
X116551046Y-102796288D01*
X116497070Y-102877070D01*
X116416288Y-102931046D01*
X116321000Y-102950000D01*
X116319000Y-102950000D01*
X116223712Y-102931046D01*
X116142930Y-102877070D01*
X116088954Y-102796288D01*
X116070000Y-102701000D01*
X116070000Y-101222309D01*
X115915913Y-101255517D01*
X115698733Y-101342786D01*
X115499422Y-101465507D01*
X115463772Y-101496884D01*
X115394330Y-101540103D01*
X115314631Y-101558490D01*
X115233273Y-101550061D01*
X115159036Y-101515724D01*
X115099931Y-101459186D01*
X115098796Y-101457670D01*
X115098796Y-101457669D01*
X115012546Y-101342454D01*
X114897331Y-101256204D01*
X114792482Y-101217097D01*
X114726746Y-101180438D01*
X114674966Y-101125808D01*
X114641876Y-101058203D01*
X114630500Y-100983798D01*
X114630500Y-84375428D01*
X114649454Y-84280140D01*
X114703430Y-84199359D01*
X114994320Y-83908469D01*
X116452198Y-82450588D01*
X116509452Y-82407835D01*
X116576494Y-82383102D01*
X116661403Y-82365055D01*
X116704283Y-82355941D01*
X116756051Y-82350500D01*
X123011420Y-82350500D01*
X123095305Y-82365055D01*
G37*
%TD.AperFunction*%
%TD*%
M02*
