%TF.GenerationSoftware,KiCad,Pcbnew,7.0.1*%
%TF.CreationDate,2023-08-30T02:05:44-03:00*%
%TF.ProjectId,RobotLaberinto_PCB,526f626f-744c-4616-9265-72696e746f5f,rev?*%
%TF.SameCoordinates,Original*%
%TF.FileFunction,Legend,Bot*%
%TF.FilePolarity,Positive*%
%FSLAX46Y46*%
G04 Gerber Fmt 4.6, Leading zero omitted, Abs format (unit mm)*
G04 Created by KiCad (PCBNEW 7.0.1) date 2023-08-30 02:05:44*
%MOMM*%
%LPD*%
G01*
G04 APERTURE LIST*
G04 APERTURE END LIST*
%TO.C,G\u002A\u002A\u002A*%
G36*
X141883630Y-100730868D02*
G01*
X141822141Y-100807142D01*
X141748273Y-100896351D01*
X141683117Y-100972078D01*
X141566673Y-101097653D01*
X141352266Y-101304216D01*
X141102937Y-101517517D01*
X140815907Y-101740014D01*
X140529244Y-101952966D01*
X140579070Y-102186475D01*
X140583302Y-102206249D01*
X140653532Y-102517290D01*
X140722467Y-102789060D01*
X140790935Y-103024201D01*
X140859762Y-103225350D01*
X140929776Y-103395149D01*
X141001801Y-103536236D01*
X141066809Y-103646904D01*
X141260346Y-103949904D01*
X141462531Y-104229811D01*
X141668678Y-104480398D01*
X141874101Y-104695437D01*
X141900117Y-104719088D01*
X141967374Y-104776109D01*
X142060304Y-104851933D01*
X142173816Y-104942636D01*
X142302821Y-105044293D01*
X142442229Y-105152980D01*
X142586950Y-105264772D01*
X142731896Y-105375743D01*
X142871975Y-105481971D01*
X143002098Y-105579529D01*
X143117175Y-105664493D01*
X143212118Y-105732938D01*
X143281835Y-105780940D01*
X143332366Y-105814202D01*
X143157642Y-106103352D01*
X143104294Y-106191637D01*
X142896153Y-106533018D01*
X142688034Y-106867834D01*
X142490636Y-107178582D01*
X142305694Y-107462598D01*
X142134943Y-107717218D01*
X141980120Y-107939778D01*
X141842962Y-108127612D01*
X141830859Y-108143650D01*
X141702961Y-108310569D01*
X141552886Y-108502559D01*
X141385575Y-108713551D01*
X141205964Y-108937474D01*
X141018991Y-109168260D01*
X140829596Y-109399838D01*
X140642716Y-109626139D01*
X140463290Y-109841094D01*
X140296255Y-110038633D01*
X140146550Y-110212687D01*
X140033095Y-110340318D01*
X139841829Y-110546263D01*
X139622003Y-110773797D01*
X139376334Y-111020306D01*
X139107534Y-111283174D01*
X138818320Y-111559785D01*
X138511406Y-111847524D01*
X138189506Y-112143775D01*
X137855335Y-112445923D01*
X137511608Y-112751352D01*
X137499975Y-112761584D01*
X137399896Y-112848372D01*
X137293005Y-112938761D01*
X137177022Y-113034504D01*
X137049669Y-113137357D01*
X136908667Y-113249072D01*
X136751738Y-113371404D01*
X136576602Y-113506106D01*
X136380980Y-113654934D01*
X136162595Y-113819639D01*
X135919167Y-114001978D01*
X135648417Y-114203703D01*
X135348067Y-114426569D01*
X135015837Y-114672329D01*
X134965823Y-114708692D01*
X134922434Y-114738919D01*
X134902821Y-114750771D01*
X134893227Y-114745574D01*
X134853077Y-114718259D01*
X134785188Y-114669846D01*
X134693072Y-114602957D01*
X134580241Y-114520217D01*
X134450205Y-114424250D01*
X134306476Y-114317678D01*
X134152567Y-114203126D01*
X133991988Y-114083216D01*
X133828251Y-113960573D01*
X133664868Y-113837821D01*
X133505350Y-113717581D01*
X133353208Y-113602480D01*
X133211955Y-113495139D01*
X133085102Y-113398182D01*
X132976159Y-113314233D01*
X132888640Y-113245916D01*
X132752500Y-113136933D01*
X132526546Y-112950085D01*
X132283553Y-112742875D01*
X132027678Y-112519198D01*
X131763075Y-112282949D01*
X131493903Y-112038025D01*
X131224316Y-111788320D01*
X130958472Y-111537730D01*
X130700527Y-111290150D01*
X130454636Y-111049476D01*
X130224957Y-110819603D01*
X130015646Y-110604428D01*
X129830859Y-110407844D01*
X129674752Y-110233748D01*
X129578817Y-110122907D01*
X129339239Y-109842444D01*
X129100105Y-109557536D01*
X128864535Y-109272120D01*
X128635654Y-108990130D01*
X128416582Y-108715503D01*
X128210444Y-108452173D01*
X128020360Y-108204078D01*
X127849454Y-107975151D01*
X127700848Y-107769329D01*
X127577665Y-107590548D01*
X127552360Y-107552344D01*
X127480973Y-107442700D01*
X127393325Y-107306180D01*
X127293365Y-107149081D01*
X127185044Y-106977696D01*
X127072313Y-106798321D01*
X126959122Y-106617251D01*
X126849421Y-106440782D01*
X126747160Y-106275209D01*
X126656291Y-106126827D01*
X126628345Y-106080614D01*
X127443682Y-106080614D01*
X127478707Y-106135291D01*
X127500570Y-106169337D01*
X127717295Y-106499126D01*
X127952004Y-106843642D01*
X128200404Y-107197168D01*
X128458205Y-107553988D01*
X128721117Y-107908386D01*
X128984849Y-108254643D01*
X129245109Y-108587045D01*
X129497607Y-108899874D01*
X129738052Y-109187414D01*
X129962154Y-109443947D01*
X129996857Y-109482420D01*
X130081091Y-109574579D01*
X130178192Y-109679532D01*
X130284381Y-109793314D01*
X130395881Y-109911958D01*
X130508911Y-110031498D01*
X130619695Y-110147968D01*
X130724452Y-110257401D01*
X130819404Y-110355832D01*
X130900774Y-110439293D01*
X130964781Y-110503819D01*
X131007648Y-110545443D01*
X131025596Y-110560199D01*
X131026200Y-110560104D01*
X131045805Y-110541331D01*
X131083164Y-110494640D01*
X131133151Y-110426734D01*
X131190640Y-110344321D01*
X131242073Y-110269495D01*
X131318594Y-110160082D01*
X131392970Y-110055598D01*
X131454563Y-109971086D01*
X131464195Y-109958241D01*
X131516175Y-109891275D01*
X131582093Y-109809035D01*
X131657447Y-109716849D01*
X131737738Y-109620047D01*
X131818467Y-109523960D01*
X131895134Y-109433916D01*
X131963238Y-109355246D01*
X132018279Y-109293279D01*
X132055759Y-109253345D01*
X132071176Y-109240773D01*
X132071570Y-109242754D01*
X132065288Y-109272446D01*
X132048495Y-109329373D01*
X132024086Y-109403534D01*
X132013301Y-109435867D01*
X131984356Y-109527261D01*
X131949335Y-109642204D01*
X131911713Y-109769203D01*
X131874965Y-109896767D01*
X131779443Y-110233748D01*
X131959339Y-110402239D01*
X132018260Y-110457572D01*
X132111730Y-110545666D01*
X132219277Y-110647281D01*
X132331807Y-110753820D01*
X132440223Y-110856689D01*
X132517944Y-110929704D01*
X132637654Y-111040259D01*
X132774409Y-111164962D01*
X132919971Y-111296347D01*
X133066101Y-111426949D01*
X133204560Y-111549304D01*
X133237485Y-111578221D01*
X133352826Y-111679880D01*
X133456372Y-111771681D01*
X133544135Y-111850055D01*
X133612132Y-111911430D01*
X133656375Y-111952235D01*
X133672881Y-111968900D01*
X133672904Y-111968977D01*
X133657700Y-111985158D01*
X133613488Y-112021645D01*
X133545486Y-112074387D01*
X133458912Y-112139337D01*
X133358987Y-112212444D01*
X133040123Y-112443046D01*
X133143403Y-112536587D01*
X133152551Y-112544844D01*
X133265466Y-112643286D01*
X133397532Y-112753265D01*
X133542364Y-112869903D01*
X133693577Y-112988326D01*
X133844785Y-113103656D01*
X133989604Y-113211018D01*
X134121648Y-113305535D01*
X134234531Y-113382331D01*
X134321869Y-113436531D01*
X134386111Y-113473137D01*
X134643652Y-113300596D01*
X134901193Y-113128054D01*
X135149011Y-113297361D01*
X135182324Y-113319996D01*
X135269073Y-113377726D01*
X135341625Y-113424276D01*
X135393186Y-113455354D01*
X135416964Y-113466667D01*
X135437360Y-113459732D01*
X135490290Y-113429574D01*
X135568141Y-113378582D01*
X135666460Y-113310104D01*
X135780798Y-113227489D01*
X135906705Y-113134083D01*
X136039730Y-113033237D01*
X136175423Y-112928297D01*
X136309334Y-112822612D01*
X136437013Y-112719530D01*
X136554009Y-112622399D01*
X136655872Y-112534568D01*
X136758428Y-112443889D01*
X136476850Y-112238665D01*
X136413016Y-112192108D01*
X136320822Y-112124751D01*
X136242420Y-112067330D01*
X136184565Y-112024796D01*
X136154012Y-112002099D01*
X136153699Y-112001863D01*
X136140499Y-111993582D01*
X136129856Y-111987054D01*
X136124663Y-111979304D01*
X136127812Y-111967360D01*
X136142196Y-111948249D01*
X136170710Y-111918997D01*
X136216245Y-111876632D01*
X136281695Y-111818179D01*
X136369954Y-111740666D01*
X136483914Y-111641120D01*
X136626468Y-111516568D01*
X136669082Y-111479266D01*
X136845221Y-111324336D01*
X136999223Y-111187277D01*
X137139343Y-111060489D01*
X137273834Y-110936371D01*
X137410950Y-110807324D01*
X137558944Y-110665748D01*
X137726070Y-110504041D01*
X138014247Y-110224118D01*
X137900674Y-109824854D01*
X137899127Y-109819420D01*
X137861994Y-109690860D01*
X137826588Y-109571617D01*
X137795302Y-109469508D01*
X137770529Y-109392348D01*
X137754661Y-109347951D01*
X137740504Y-109313061D01*
X137725861Y-109267802D01*
X137731837Y-109256562D01*
X137760441Y-109278876D01*
X137813683Y-109334278D01*
X137829841Y-109351877D01*
X137999491Y-109545504D01*
X138177902Y-109763659D01*
X138355668Y-109994520D01*
X138523381Y-110226263D01*
X138532560Y-110239372D01*
X138604988Y-110341250D01*
X138669260Y-110429007D01*
X138721458Y-110497488D01*
X138757665Y-110541540D01*
X138773966Y-110556008D01*
X138775660Y-110554974D01*
X138800539Y-110532448D01*
X138849346Y-110484291D01*
X138917983Y-110414775D01*
X139002350Y-110328172D01*
X139098347Y-110228755D01*
X139201874Y-110120796D01*
X139308831Y-110008569D01*
X139415120Y-109896345D01*
X139516639Y-109788398D01*
X139609290Y-109688999D01*
X139688972Y-109602422D01*
X139798950Y-109480574D01*
X140093391Y-109142864D01*
X140397428Y-108778737D01*
X140704553Y-108396390D01*
X141008259Y-108004017D01*
X141302037Y-107609813D01*
X141579379Y-107221974D01*
X141586954Y-107211128D01*
X141649965Y-107120387D01*
X141724785Y-107011925D01*
X141807846Y-106890986D01*
X141895580Y-106762811D01*
X141984417Y-106632643D01*
X142070790Y-106505725D01*
X142151131Y-106387297D01*
X142221870Y-106282604D01*
X142279440Y-106196887D01*
X142320272Y-106135389D01*
X142340798Y-106103352D01*
X142335351Y-106090358D01*
X142300532Y-106054167D01*
X142237523Y-105999376D01*
X142149980Y-105929121D01*
X142041559Y-105846540D01*
X141832450Y-105687901D01*
X141548287Y-105460747D01*
X141297233Y-105243277D01*
X141075965Y-105031244D01*
X140881157Y-104820401D01*
X140709488Y-104606501D01*
X140557631Y-104385296D01*
X140422265Y-104152540D01*
X140300063Y-103903984D01*
X140187704Y-103635381D01*
X140081861Y-103342485D01*
X140052187Y-103251439D01*
X139985015Y-103018528D01*
X139925936Y-102775726D01*
X139876788Y-102532696D01*
X139839406Y-102299099D01*
X139815630Y-102084594D01*
X139807296Y-101898844D01*
X139807011Y-101879163D01*
X139799261Y-101819142D01*
X139780970Y-101799689D01*
X139754846Y-101806385D01*
X139695397Y-101825149D01*
X139609617Y-101853728D01*
X139504256Y-101889869D01*
X139386069Y-101931322D01*
X139017495Y-102061941D01*
X139015519Y-102198153D01*
X139003899Y-102999171D01*
X138999058Y-103294181D01*
X138989989Y-103708140D01*
X138978659Y-104084573D01*
X138964870Y-104426221D01*
X138948426Y-104735827D01*
X138929130Y-105016132D01*
X138906784Y-105269879D01*
X138881192Y-105499810D01*
X138852156Y-105708668D01*
X138819479Y-105899193D01*
X138782965Y-106074130D01*
X138716221Y-106327673D01*
X138605557Y-106661319D01*
X138467313Y-107007918D01*
X138304622Y-107360296D01*
X138120617Y-107711276D01*
X137918433Y-108053685D01*
X137865158Y-108137861D01*
X137590800Y-108545247D01*
X137301554Y-108933897D01*
X137000238Y-109300975D01*
X136689671Y-109643647D01*
X136372673Y-109959076D01*
X136052063Y-110244428D01*
X135730660Y-110496866D01*
X135667577Y-110539666D01*
X135411282Y-110713556D01*
X135096750Y-110891662D01*
X134899061Y-110991957D01*
X134694623Y-110886651D01*
X134602666Y-110837748D01*
X134276987Y-110640730D01*
X133948046Y-110405806D01*
X133618911Y-110135769D01*
X133292648Y-109833417D01*
X132972326Y-109501546D01*
X132661013Y-109142950D01*
X132361775Y-108760427D01*
X132129953Y-108437412D01*
X131877070Y-108053518D01*
X131656123Y-107678400D01*
X131463918Y-107306572D01*
X131297262Y-106932551D01*
X131217532Y-106730289D01*
X131133958Y-106493050D01*
X131063010Y-106257258D01*
X131003501Y-106016721D01*
X130954243Y-105765247D01*
X130914050Y-105496642D01*
X130881734Y-105204715D01*
X130856109Y-104883271D01*
X130835987Y-104526120D01*
X130834802Y-104500325D01*
X130829361Y-104367468D01*
X130823599Y-104206279D01*
X130817661Y-104022628D01*
X130811690Y-103822384D01*
X130805829Y-103611415D01*
X130800223Y-103395592D01*
X130795014Y-103180783D01*
X130790346Y-102972858D01*
X130786363Y-102777686D01*
X130783208Y-102601137D01*
X130781024Y-102449079D01*
X130780684Y-102410369D01*
X131070653Y-102410369D01*
X131070670Y-102546277D01*
X131072489Y-102705473D01*
X131075986Y-102883822D01*
X131081034Y-103077187D01*
X131087509Y-103281432D01*
X131095285Y-103492420D01*
X131104238Y-103706016D01*
X131114242Y-103918082D01*
X131125172Y-104124483D01*
X131136903Y-104321083D01*
X131149309Y-104503744D01*
X131162266Y-104668331D01*
X131184535Y-104904120D01*
X131221529Y-105211753D01*
X131267563Y-105506020D01*
X131325337Y-105803600D01*
X131397552Y-106121169D01*
X131452069Y-106347231D01*
X131622759Y-106413508D01*
X131678903Y-106435147D01*
X131926637Y-106526247D01*
X132166958Y-106606558D01*
X132409747Y-106678883D01*
X132664887Y-106746030D01*
X132942260Y-106810804D01*
X133251748Y-106876011D01*
X133275404Y-106880799D01*
X133399793Y-106906485D01*
X133508512Y-106929760D01*
X133595146Y-106949193D01*
X133653279Y-106963352D01*
X133676499Y-106970806D01*
X133678009Y-106976463D01*
X133681861Y-107016579D01*
X133686262Y-107089483D01*
X133691011Y-107188757D01*
X133695902Y-107307985D01*
X133700734Y-107440750D01*
X133705303Y-107580635D01*
X133709404Y-107721223D01*
X133712835Y-107856098D01*
X133715393Y-107978841D01*
X133716873Y-108083038D01*
X133717073Y-108162270D01*
X133715788Y-108210121D01*
X133710033Y-108292630D01*
X133488888Y-108036069D01*
X133442706Y-107981342D01*
X133324654Y-107831637D01*
X133216009Y-107680523D01*
X133127660Y-107542864D01*
X133123551Y-107535925D01*
X133067209Y-107441069D01*
X133015565Y-107354632D01*
X132974186Y-107285901D01*
X132948638Y-107244164D01*
X132944757Y-107238161D01*
X132925797Y-107214998D01*
X132898819Y-107195036D01*
X132857252Y-107175598D01*
X132794526Y-107154004D01*
X132704069Y-107127578D01*
X132579312Y-107093641D01*
X132531864Y-107080863D01*
X132290139Y-107013019D01*
X132086927Y-106950788D01*
X131919609Y-106893333D01*
X131785563Y-106839814D01*
X131735258Y-106818510D01*
X131682419Y-106798102D01*
X131655114Y-106790216D01*
X131652714Y-106798750D01*
X131664379Y-106839167D01*
X131691808Y-106908312D01*
X131732567Y-107001202D01*
X131784224Y-107112854D01*
X131844344Y-107238286D01*
X131910495Y-107372515D01*
X131980244Y-107510560D01*
X132051156Y-107647438D01*
X132120800Y-107778166D01*
X132186741Y-107897762D01*
X132246546Y-108001244D01*
X132330460Y-108137986D01*
X132571606Y-108496558D01*
X132839046Y-108851071D01*
X133122942Y-109188910D01*
X133413455Y-109497461D01*
X133579308Y-109658408D01*
X133757231Y-109818932D01*
X133937318Y-109966908D01*
X134131674Y-110112231D01*
X134352404Y-110264793D01*
X134366472Y-110274216D01*
X134464053Y-110339266D01*
X134556041Y-110400109D01*
X134632657Y-110450300D01*
X134684121Y-110483395D01*
X134773631Y-110539666D01*
X134773631Y-108172137D01*
X134773631Y-105804607D01*
X134620937Y-105790398D01*
X134402409Y-105766010D01*
X134070407Y-105715713D01*
X133734355Y-105650158D01*
X133694956Y-105641684D01*
X133594645Y-105621076D01*
X133512615Y-105605617D01*
X133456468Y-105596685D01*
X133433805Y-105595658D01*
X133433655Y-105596911D01*
X133442221Y-105625047D01*
X133464857Y-105686013D01*
X133499600Y-105774846D01*
X133544483Y-105886585D01*
X133597544Y-106016269D01*
X133656818Y-106158937D01*
X133669218Y-106188599D01*
X133727502Y-106328883D01*
X133779337Y-106455030D01*
X133822738Y-106562108D01*
X133855717Y-106645181D01*
X133876289Y-106699316D01*
X133882468Y-106719577D01*
X133881818Y-106719576D01*
X133864380Y-106701569D01*
X133827677Y-106656639D01*
X133776601Y-106590929D01*
X133716044Y-106510583D01*
X133654528Y-106425816D01*
X133549617Y-106271413D01*
X133440737Y-106098305D01*
X133323737Y-105899798D01*
X133194466Y-105669195D01*
X133095605Y-105489323D01*
X135010699Y-105489323D01*
X135159199Y-105474690D01*
X135327997Y-105454444D01*
X135608920Y-105402097D01*
X135893824Y-105323764D01*
X136139969Y-105246179D01*
X136153107Y-105107294D01*
X136161423Y-105022551D01*
X136171866Y-104950204D01*
X136188365Y-104893915D01*
X136216031Y-104844902D01*
X136259975Y-104794387D01*
X136325307Y-104733591D01*
X136417140Y-104653734D01*
X136422344Y-104649238D01*
X136523391Y-104563331D01*
X136630039Y-104474806D01*
X136729904Y-104393835D01*
X136810598Y-104330593D01*
X136826614Y-104318487D01*
X136910633Y-104256985D01*
X137007372Y-104188731D01*
X137110936Y-104117602D01*
X137215430Y-104047472D01*
X137314959Y-103982217D01*
X137403628Y-103925713D01*
X137475541Y-103881835D01*
X137524804Y-103854458D01*
X137545522Y-103847458D01*
X137545999Y-103848333D01*
X137547380Y-103877352D01*
X137545131Y-103941923D01*
X137539717Y-104036419D01*
X137531602Y-104155216D01*
X137521251Y-104292688D01*
X137509128Y-104443210D01*
X137495697Y-104601157D01*
X137481422Y-104760904D01*
X137466769Y-104916826D01*
X137452200Y-105063298D01*
X137438181Y-105194695D01*
X137425176Y-105305390D01*
X137420964Y-105338274D01*
X137400547Y-105484563D01*
X137376889Y-105638044D01*
X137352597Y-105782361D01*
X137330276Y-105901160D01*
X137261144Y-106184608D01*
X137149369Y-106528790D01*
X137010062Y-106870296D01*
X136848354Y-107196749D01*
X136669375Y-107495772D01*
X136646470Y-107530106D01*
X136580922Y-107625934D01*
X136507233Y-107730960D01*
X136429434Y-107839717D01*
X136351558Y-107946739D01*
X136277640Y-108046561D01*
X136211711Y-108133715D01*
X136157805Y-108202735D01*
X136119954Y-108248156D01*
X136102193Y-108264511D01*
X136099844Y-108255891D01*
X136097077Y-108211935D01*
X136095279Y-108136423D01*
X136094391Y-108035746D01*
X136094353Y-107916298D01*
X136095108Y-107784470D01*
X136096596Y-107646657D01*
X136098759Y-107509249D01*
X136101538Y-107378641D01*
X136104874Y-107261225D01*
X136108708Y-107163393D01*
X136112982Y-107091538D01*
X136124928Y-106940041D01*
X136265407Y-106887436D01*
X136302884Y-106873462D01*
X136399370Y-106837771D01*
X136509656Y-106797247D01*
X136616500Y-106758235D01*
X136681203Y-106733414D01*
X136764577Y-106697350D01*
X136828348Y-106664872D01*
X136862334Y-106640841D01*
X136865606Y-106636852D01*
X136899134Y-106578312D01*
X136937443Y-106484832D01*
X136978855Y-106362417D01*
X137021691Y-106217075D01*
X137064273Y-106054809D01*
X137104924Y-105881627D01*
X137141964Y-105703533D01*
X137173716Y-105526534D01*
X137173933Y-105525206D01*
X137191519Y-105417880D01*
X137207648Y-105319688D01*
X137220542Y-105241440D01*
X137228422Y-105193951D01*
X137240045Y-105124634D01*
X137117825Y-105186154D01*
X136965052Y-105260256D01*
X136579196Y-105423211D01*
X136175959Y-105559263D01*
X135748942Y-105670421D01*
X135291742Y-105758690D01*
X135289742Y-105759016D01*
X135192519Y-105775403D01*
X135111865Y-105789922D01*
X135056126Y-105801006D01*
X135033649Y-105807092D01*
X135033357Y-105809234D01*
X135032457Y-105842842D01*
X135031684Y-105915104D01*
X135031042Y-106023346D01*
X135030534Y-106164893D01*
X135030161Y-106337069D01*
X135029925Y-106537202D01*
X135029830Y-106762615D01*
X135029878Y-107010635D01*
X135030070Y-107278588D01*
X135030410Y-107563797D01*
X135030900Y-107863590D01*
X135031542Y-108175291D01*
X135036898Y-110536027D01*
X135322930Y-110332235D01*
X135472667Y-110224279D01*
X135718997Y-110039501D01*
X135938597Y-109863766D01*
X136138559Y-109690826D01*
X136325974Y-109514434D01*
X136507932Y-109328341D01*
X136691524Y-109126299D01*
X136935302Y-108836075D01*
X137236214Y-108440103D01*
X137518224Y-108026339D01*
X137771654Y-107608382D01*
X137986126Y-107198878D01*
X138183946Y-106740960D01*
X138340642Y-106276825D01*
X138456651Y-105805157D01*
X138532413Y-105324640D01*
X138535966Y-105292172D01*
X138548532Y-105154228D01*
X138561302Y-104980851D01*
X138574037Y-104777229D01*
X138586498Y-104548551D01*
X138598446Y-104300007D01*
X138609642Y-104036786D01*
X138619847Y-103764076D01*
X138628823Y-103487068D01*
X138636331Y-103210949D01*
X138642131Y-102940909D01*
X138655760Y-102198153D01*
X138510177Y-102252808D01*
X138306534Y-102332567D01*
X138064895Y-102434146D01*
X137814245Y-102545837D01*
X137562740Y-102663718D01*
X137318535Y-102783861D01*
X137089786Y-102902343D01*
X136884648Y-103015238D01*
X136711277Y-103118620D01*
X136515949Y-103246338D01*
X136294321Y-103402301D01*
X136075842Y-103566955D01*
X135865333Y-103736152D01*
X135667610Y-103905742D01*
X135487494Y-104071576D01*
X135329803Y-104229506D01*
X135199354Y-104375383D01*
X135100968Y-104505058D01*
X135030219Y-104610365D01*
X135020459Y-105049844D01*
X135010699Y-105489323D01*
X133095605Y-105489323D01*
X133081876Y-105464344D01*
X132862857Y-105344434D01*
X132772026Y-105292417D01*
X132593164Y-105170985D01*
X132447894Y-105039518D01*
X132330291Y-104891084D01*
X132234429Y-104718752D01*
X132154384Y-104515589D01*
X132147839Y-104494818D01*
X132126961Y-104413332D01*
X132107076Y-104315839D01*
X132100046Y-104274163D01*
X132358055Y-104274163D01*
X132369775Y-104329102D01*
X132390357Y-104404703D01*
X132416913Y-104491525D01*
X132446553Y-104580127D01*
X132476392Y-104661070D01*
X132503539Y-104724914D01*
X132525295Y-104767958D01*
X132602339Y-104886117D01*
X132700058Y-104987570D01*
X132825569Y-105078829D01*
X132985990Y-105166408D01*
X133063997Y-105203278D01*
X133153247Y-105242643D01*
X133226509Y-105271909D01*
X133273010Y-105286566D01*
X133341459Y-105300125D01*
X133341209Y-105092144D01*
X133340960Y-104884163D01*
X133228644Y-104806206D01*
X133116328Y-104728250D01*
X133027385Y-104772255D01*
X133020712Y-104775535D01*
X132961331Y-104800063D01*
X132913568Y-104804545D01*
X132855537Y-104791422D01*
X132818271Y-104777559D01*
X132750401Y-104727493D01*
X132711501Y-104650698D01*
X132699087Y-104543230D01*
X132699087Y-104432119D01*
X132531717Y-104337590D01*
X132492951Y-104315962D01*
X132425627Y-104279851D01*
X132377840Y-104256213D01*
X132358055Y-104249352D01*
X132358055Y-104274163D01*
X132100046Y-104274163D01*
X132089537Y-104211862D01*
X132075699Y-104110921D01*
X132066914Y-104022540D01*
X132064538Y-103956239D01*
X132069923Y-103921541D01*
X132085571Y-103921654D01*
X132131765Y-103937699D01*
X132200214Y-103968103D01*
X132282898Y-104009554D01*
X132351130Y-104044683D01*
X132422367Y-104079339D01*
X132472486Y-104101292D01*
X132493524Y-104106863D01*
X132494901Y-104094302D01*
X132482312Y-104059308D01*
X132481486Y-104057583D01*
X132468670Y-104023253D01*
X132445998Y-103956660D01*
X132415716Y-103864880D01*
X132380070Y-103754987D01*
X132341308Y-103634056D01*
X132301676Y-103509163D01*
X132263420Y-103387383D01*
X132228787Y-103275790D01*
X132200024Y-103181459D01*
X132179376Y-103111466D01*
X132169091Y-103072886D01*
X132169772Y-103069783D01*
X132183777Y-103089296D01*
X132212101Y-103138479D01*
X132251742Y-103212008D01*
X132299701Y-103304561D01*
X132318804Y-103341961D01*
X132441613Y-103578256D01*
X132554928Y-103789001D01*
X132656922Y-103970924D01*
X132745770Y-104120758D01*
X132819646Y-104235234D01*
X132826462Y-104245086D01*
X132875237Y-104310565D01*
X132926785Y-104368204D01*
X132989296Y-104425615D01*
X133070961Y-104490414D01*
X133179970Y-104570215D01*
X133210540Y-104592167D01*
X133309133Y-104663632D01*
X133400580Y-104730836D01*
X133475808Y-104787077D01*
X133525746Y-104825654D01*
X133615257Y-104897514D01*
X133615257Y-105074378D01*
X133615257Y-105251242D01*
X133769630Y-105300125D01*
X133849042Y-105325271D01*
X133889205Y-105337208D01*
X133998816Y-105365172D01*
X134129071Y-105393906D01*
X134269721Y-105421559D01*
X134410521Y-105446285D01*
X134541223Y-105466234D01*
X134651580Y-105479559D01*
X134731345Y-105484412D01*
X134742753Y-105483542D01*
X134753868Y-105477181D01*
X134761937Y-105460081D01*
X134767446Y-105427009D01*
X134770883Y-105372737D01*
X134772735Y-105292034D01*
X134773488Y-105179668D01*
X134773631Y-105030411D01*
X134773631Y-104576410D01*
X134441915Y-104244272D01*
X134214715Y-104023127D01*
X133818293Y-103668077D01*
X133422638Y-103353319D01*
X133026243Y-103077764D01*
X132627602Y-102840320D01*
X132225207Y-102639897D01*
X132140848Y-102602596D01*
X132027976Y-102554007D01*
X131901135Y-102500430D01*
X131766185Y-102444243D01*
X131628989Y-102387827D01*
X131495409Y-102333561D01*
X131371306Y-102283825D01*
X131262542Y-102240999D01*
X131174980Y-102207463D01*
X131114481Y-102185596D01*
X131086907Y-102177778D01*
X131082665Y-102183740D01*
X131076525Y-102224964D01*
X131072563Y-102301886D01*
X131070653Y-102410369D01*
X130780684Y-102410369D01*
X130779955Y-102327382D01*
X130780144Y-102241915D01*
X130782504Y-102063846D01*
X130413930Y-101932206D01*
X130298665Y-101891407D01*
X130193408Y-101854874D01*
X130107714Y-101825893D01*
X130048266Y-101806722D01*
X130021746Y-101799620D01*
X130018678Y-101800540D01*
X130005368Y-101829199D01*
X129993359Y-101894901D01*
X129983471Y-101993491D01*
X129963885Y-102204797D01*
X129892821Y-102670975D01*
X129783785Y-103122345D01*
X129635512Y-103563638D01*
X129446734Y-103999586D01*
X129355358Y-104180177D01*
X129247190Y-104370480D01*
X129130319Y-104550093D01*
X129001213Y-104722881D01*
X128856342Y-104892709D01*
X128692174Y-105063441D01*
X128505181Y-105238941D01*
X128291830Y-105423074D01*
X128048591Y-105619704D01*
X127771934Y-105832695D01*
X127443682Y-106080614D01*
X126628345Y-106080614D01*
X126580763Y-106001930D01*
X126468098Y-105813894D01*
X126518594Y-105780786D01*
X126539069Y-105766390D01*
X126591582Y-105728250D01*
X126670134Y-105670593D01*
X126770456Y-105596568D01*
X126888283Y-105509326D01*
X127019346Y-105412017D01*
X127159379Y-105307791D01*
X127341362Y-105170632D01*
X127562654Y-104997876D01*
X127755955Y-104838021D01*
X127926007Y-104686075D01*
X128077554Y-104537044D01*
X128215339Y-104385934D01*
X128344104Y-104227752D01*
X128468594Y-104057505D01*
X128593551Y-103870198D01*
X128723718Y-103660838D01*
X128753281Y-103611005D01*
X128833703Y-103463139D01*
X128905687Y-103309150D01*
X128971278Y-103143067D01*
X129032518Y-102958918D01*
X129091452Y-102750733D01*
X129150122Y-102512541D01*
X129210573Y-102238372D01*
X129271071Y-101951453D01*
X129026373Y-101772168D01*
X128926782Y-101697896D01*
X128691695Y-101511884D01*
X128473674Y-101324214D01*
X128279841Y-101141182D01*
X128117323Y-100969082D01*
X128113572Y-100964805D01*
X128041608Y-100880764D01*
X127962915Y-100785757D01*
X127901689Y-100709967D01*
X128934510Y-100709967D01*
X128984460Y-100749098D01*
X128984951Y-100749482D01*
X129022213Y-100776691D01*
X129085561Y-100821083D01*
X129166255Y-100876596D01*
X129255555Y-100937166D01*
X129317665Y-100978375D01*
X129394061Y-101026979D01*
X129472613Y-101074119D01*
X129556183Y-101121062D01*
X129647631Y-101169076D01*
X129749820Y-101219430D01*
X129865610Y-101273392D01*
X129997863Y-101332229D01*
X130149441Y-101397209D01*
X130323204Y-101469601D01*
X130522015Y-101550671D01*
X130748734Y-101641689D01*
X131006224Y-101743922D01*
X131297345Y-101858639D01*
X131624958Y-101987106D01*
X131745941Y-102035095D01*
X132102039Y-102184896D01*
X132428027Y-102336319D01*
X132732872Y-102493680D01*
X133025539Y-102661294D01*
X133245042Y-102797107D01*
X133612043Y-103043308D01*
X133944590Y-103292408D01*
X134240798Y-103542868D01*
X134498782Y-103793148D01*
X134716654Y-104041709D01*
X134725787Y-104053138D01*
X134789035Y-104131258D01*
X134842331Y-104195351D01*
X134880308Y-104239059D01*
X134897598Y-104256027D01*
X134912483Y-104244310D01*
X134948108Y-104205265D01*
X134998474Y-104145135D01*
X135057960Y-104070425D01*
X135236267Y-103858325D01*
X135489778Y-103601728D01*
X135781429Y-103350396D01*
X136189260Y-103040643D01*
X136621806Y-102750028D01*
X137066353Y-102490778D01*
X137531940Y-102257642D01*
X138027612Y-102045363D01*
X138066491Y-102029954D01*
X138200229Y-101976947D01*
X138361226Y-101913131D01*
X138540680Y-101841996D01*
X138729787Y-101767033D01*
X138919742Y-101691730D01*
X139101741Y-101619578D01*
X139190826Y-101584077D01*
X139364165Y-101514024D01*
X139533379Y-101444460D01*
X139691442Y-101378337D01*
X139831326Y-101318609D01*
X139946001Y-101268228D01*
X140028441Y-101230149D01*
X140065548Y-101211700D01*
X140166200Y-101158124D01*
X140278738Y-101094369D01*
X140396187Y-101024783D01*
X140511571Y-100953709D01*
X140617914Y-100885494D01*
X140708243Y-100824482D01*
X140775580Y-100775019D01*
X140812951Y-100741450D01*
X140817217Y-100730868D01*
X140806315Y-100720626D01*
X140773884Y-100711108D01*
X140714812Y-100701265D01*
X140623986Y-100690045D01*
X140496294Y-100676398D01*
X140409977Y-100667232D01*
X140075747Y-100625314D01*
X139776062Y-100575996D01*
X139505097Y-100517711D01*
X139257032Y-100448891D01*
X139026043Y-100367967D01*
X138806308Y-100273371D01*
X138592006Y-100163536D01*
X138520617Y-100124558D01*
X138448379Y-100086237D01*
X138396795Y-100060189D01*
X138373906Y-100050581D01*
X138369349Y-100053471D01*
X138344797Y-100082054D01*
X138306057Y-100134683D01*
X138259204Y-100203276D01*
X138236105Y-100237886D01*
X138085312Y-100451837D01*
X137919453Y-100669344D01*
X137745419Y-100882218D01*
X137570100Y-101082266D01*
X137400385Y-101261299D01*
X137243165Y-101411125D01*
X137213645Y-101437155D01*
X137118782Y-101518027D01*
X137013253Y-101604701D01*
X136902440Y-101693089D01*
X136791727Y-101779099D01*
X136686498Y-101858643D01*
X136592136Y-101927629D01*
X136514025Y-101981969D01*
X136457548Y-102017572D01*
X136428088Y-102030349D01*
X136427905Y-102029553D01*
X136442884Y-102007962D01*
X136480755Y-101960399D01*
X136537622Y-101891592D01*
X136609589Y-101806271D01*
X136692759Y-101709163D01*
X136906968Y-101457761D01*
X137099152Y-101224843D01*
X137266959Y-101012037D01*
X137413412Y-100814740D01*
X137541534Y-100628351D01*
X137654345Y-100448268D01*
X137754869Y-100269890D01*
X137846127Y-100088615D01*
X137931141Y-99899841D01*
X138012934Y-99698966D01*
X138119488Y-99397161D01*
X138206317Y-99071497D01*
X138257461Y-98757997D01*
X138273142Y-98451602D01*
X138253587Y-98147255D01*
X138199021Y-97839898D01*
X138109667Y-97524475D01*
X138035960Y-97328212D01*
X137943289Y-97127566D01*
X137839304Y-96939662D01*
X137728388Y-96771728D01*
X137614928Y-96630996D01*
X137503308Y-96524695D01*
X137472807Y-96502382D01*
X137432662Y-96480359D01*
X137413763Y-96480781D01*
X137402641Y-96501187D01*
X137372430Y-96550599D01*
X137328346Y-96620174D01*
X137275388Y-96701925D01*
X137249779Y-96739724D01*
X137149814Y-96871655D01*
X137024828Y-97018303D01*
X136881459Y-97171756D01*
X136860326Y-97193460D01*
X136770931Y-97286348D01*
X136707452Y-97355065D01*
X136666423Y-97404058D01*
X136644378Y-97437772D01*
X136637851Y-97460653D01*
X136643377Y-97477146D01*
X136737087Y-97619298D01*
X136820392Y-97762889D01*
X136887316Y-97896911D01*
X136931971Y-98010483D01*
X136954750Y-98087523D01*
X137001962Y-98311870D01*
X137019998Y-98539563D01*
X137008682Y-98777187D01*
X136967838Y-99031329D01*
X136897291Y-99308575D01*
X136882848Y-99358483D01*
X136865567Y-99409524D01*
X136845550Y-99438427D01*
X136815611Y-99446281D01*
X136768561Y-99434175D01*
X136697213Y-99403195D01*
X136594381Y-99354431D01*
X136520525Y-99317432D01*
X136341903Y-99214883D01*
X136138890Y-99082643D01*
X135913594Y-98922242D01*
X135668121Y-98735210D01*
X135404578Y-98523076D01*
X135125073Y-98287372D01*
X134897327Y-98091237D01*
X134682784Y-98277307D01*
X134588907Y-98358095D01*
X134318813Y-98583266D01*
X134061225Y-98787132D01*
X133819100Y-98967535D01*
X133595397Y-99122322D01*
X133393075Y-99249338D01*
X133215091Y-99346428D01*
X133124863Y-99391038D01*
X133046120Y-99427896D01*
X132993114Y-99446033D01*
X132959024Y-99444867D01*
X132937028Y-99423817D01*
X132920304Y-99382301D01*
X132902031Y-99319737D01*
X132891060Y-99281692D01*
X132846901Y-99117369D01*
X132816111Y-98976518D01*
X132796664Y-98846236D01*
X132786536Y-98713616D01*
X132783700Y-98565755D01*
X132783874Y-98534415D01*
X132795327Y-98318213D01*
X132827294Y-98126927D01*
X132883435Y-97948527D01*
X132967411Y-97770982D01*
X133082880Y-97582260D01*
X133177065Y-97441220D01*
X132959137Y-97224217D01*
X132922378Y-97187250D01*
X132731392Y-96980426D01*
X132575787Y-96783401D01*
X132452115Y-96591879D01*
X132415959Y-96532504D01*
X132384482Y-96488014D01*
X132366110Y-96470776D01*
X132353890Y-96474416D01*
X132313414Y-96503503D01*
X132257144Y-96555946D01*
X132191480Y-96624873D01*
X132122821Y-96703407D01*
X132057566Y-96784676D01*
X132002115Y-96861803D01*
X131919995Y-96994681D01*
X131786830Y-97259088D01*
X131677837Y-97543422D01*
X131595224Y-97839076D01*
X131541205Y-98137447D01*
X131517988Y-98429930D01*
X131527786Y-98707919D01*
X131542986Y-98828774D01*
X131599091Y-99113429D01*
X131683345Y-99413365D01*
X131792570Y-99720848D01*
X131923594Y-100028141D01*
X132073242Y-100327508D01*
X132238338Y-100611215D01*
X132415708Y-100871525D01*
X132434994Y-100897196D01*
X132505791Y-100988340D01*
X132596190Y-101101576D01*
X132700271Y-101229737D01*
X132812115Y-101365656D01*
X132925800Y-101502168D01*
X133035408Y-101632104D01*
X133135017Y-101748300D01*
X133218707Y-101843587D01*
X133261659Y-101892223D01*
X133313714Y-101953207D01*
X133349324Y-101997540D01*
X133362520Y-102017985D01*
X133360786Y-102019650D01*
X133335420Y-102009083D01*
X133284137Y-101977881D01*
X133212507Y-101929935D01*
X133126100Y-101869139D01*
X133030485Y-101799384D01*
X132931232Y-101724563D01*
X132833911Y-101648568D01*
X132791563Y-101614540D01*
X132527069Y-101386317D01*
X132284460Y-101146474D01*
X132048583Y-100880185D01*
X132030175Y-100857981D01*
X131954045Y-100763597D01*
X131868646Y-100654536D01*
X131779055Y-100537598D01*
X131690350Y-100419584D01*
X131607605Y-100307295D01*
X131535899Y-100207532D01*
X131480308Y-100127097D01*
X131445907Y-100072789D01*
X131434387Y-100059488D01*
X131411851Y-100057481D01*
X131371699Y-100073486D01*
X131305002Y-100109851D01*
X131200899Y-100166760D01*
X130994129Y-100268716D01*
X130779421Y-100362417D01*
X130577077Y-100438692D01*
X130457810Y-100475178D01*
X130275799Y-100520867D01*
X130066080Y-100564861D01*
X129836688Y-100605754D01*
X129595658Y-100642135D01*
X129351026Y-100672597D01*
X129110828Y-100695730D01*
X128934510Y-100709967D01*
X127901689Y-100709967D01*
X127881693Y-100685214D01*
X127802138Y-100584559D01*
X127728449Y-100489221D01*
X127664822Y-100404628D01*
X127615457Y-100336205D01*
X127584549Y-100289382D01*
X127576298Y-100269583D01*
X127590411Y-100266381D01*
X127641941Y-100257969D01*
X127726564Y-100245338D01*
X127839428Y-100229180D01*
X127975677Y-100210189D01*
X128130460Y-100189057D01*
X128298921Y-100166476D01*
X128429865Y-100148978D01*
X128718912Y-100109376D01*
X128972032Y-100072937D01*
X129193443Y-100038779D01*
X129387364Y-100006021D01*
X129558014Y-99973778D01*
X129709614Y-99941169D01*
X129846382Y-99907310D01*
X129972537Y-99871321D01*
X130092299Y-99832317D01*
X130209887Y-99789417D01*
X130329520Y-99741737D01*
X130417430Y-99704154D01*
X130518090Y-99658141D01*
X130609041Y-99613639D01*
X130683008Y-99574366D01*
X130732717Y-99544040D01*
X130750894Y-99526378D01*
X130750730Y-99524374D01*
X130745074Y-99492405D01*
X130732979Y-99432451D01*
X130716659Y-99355556D01*
X130703538Y-99273345D01*
X130692247Y-99145672D01*
X130685441Y-98993584D01*
X130683109Y-98826529D01*
X130685236Y-98653951D01*
X130691811Y-98485296D01*
X130702820Y-98330009D01*
X130718249Y-98197535D01*
X130766050Y-97930654D01*
X130870279Y-97524813D01*
X131009162Y-97136441D01*
X131181199Y-96769518D01*
X131384888Y-96428027D01*
X131438554Y-96349405D01*
X131644360Y-96077524D01*
X131856933Y-95843934D01*
X132079503Y-95645672D01*
X132315300Y-95479774D01*
X132567557Y-95343278D01*
X132590427Y-95332429D01*
X132662367Y-95297750D01*
X132718257Y-95273910D01*
X132762607Y-95264188D01*
X132799924Y-95271861D01*
X132834718Y-95300208D01*
X132871497Y-95352504D01*
X132914771Y-95432029D01*
X132969047Y-95542060D01*
X133038834Y-95685875D01*
X133113979Y-95836690D01*
X133240711Y-96075352D01*
X133361888Y-96281512D01*
X133480876Y-96460419D01*
X133601037Y-96617323D01*
X133725739Y-96757474D01*
X133806925Y-96838737D01*
X134000953Y-97005297D01*
X134207374Y-97142567D01*
X134435502Y-97256260D01*
X134694651Y-97352094D01*
X134900000Y-97417750D01*
X135105348Y-97352250D01*
X135263700Y-97297336D01*
X135496252Y-97195599D01*
X135703923Y-97073928D01*
X135896675Y-96926159D01*
X136084468Y-96746125D01*
X136170215Y-96652368D01*
X136265479Y-96537088D01*
X136356000Y-96413123D01*
X136445708Y-96274331D01*
X136538535Y-96114571D01*
X136638414Y-95927700D01*
X136749275Y-95707577D01*
X136794285Y-95615593D01*
X136856671Y-95487881D01*
X136906104Y-95392255D01*
X136947357Y-95325775D01*
X136985205Y-95285501D01*
X137024423Y-95268496D01*
X137069783Y-95271818D01*
X137126061Y-95292528D01*
X137198030Y-95327687D01*
X137290464Y-95374355D01*
X137365920Y-95413383D01*
X137628500Y-95578659D01*
X137878399Y-95782971D01*
X138114357Y-96025065D01*
X138335111Y-96303686D01*
X138539402Y-96617579D01*
X138592754Y-96711506D01*
X138737455Y-97006740D01*
X138864464Y-97328137D01*
X138969942Y-97665249D01*
X139050052Y-98007629D01*
X139050159Y-98008182D01*
X139082568Y-98211324D01*
X139105346Y-98430103D01*
X139118359Y-98655111D01*
X139121476Y-98876940D01*
X139114563Y-99086181D01*
X139097487Y-99273428D01*
X139070116Y-99429271D01*
X139065754Y-99447910D01*
X139054390Y-99499911D01*
X139049590Y-99527696D01*
X139049615Y-99528104D01*
X139069122Y-99544978D01*
X139119913Y-99574285D01*
X139194644Y-99612586D01*
X139285973Y-99656439D01*
X139386556Y-99702405D01*
X139489050Y-99747041D01*
X139586111Y-99786909D01*
X139670398Y-99818568D01*
X139733843Y-99840426D01*
X139834130Y-99873168D01*
X139933742Y-99902858D01*
X140036930Y-99930304D01*
X140147944Y-99956310D01*
X140271033Y-99981684D01*
X140410447Y-100007230D01*
X140570436Y-100033755D01*
X140755249Y-100062065D01*
X140969137Y-100092965D01*
X141216350Y-100127262D01*
X141501136Y-100165762D01*
X141634861Y-100183805D01*
X141792934Y-100205474D01*
X141933503Y-100225125D01*
X142051716Y-100242058D01*
X142142722Y-100255578D01*
X142201669Y-100264987D01*
X142223706Y-100269588D01*
X142223883Y-100272115D01*
X142208790Y-100300057D01*
X142172468Y-100353426D01*
X142119196Y-100426665D01*
X142053249Y-100514214D01*
X141978906Y-100610516D01*
X141900444Y-100710011D01*
X141883630Y-100730868D01*
G37*
G36*
X128864470Y-92704607D02*
G01*
X128864470Y-92764034D01*
X128610225Y-93019607D01*
X128355980Y-93275179D01*
X127658874Y-93275179D01*
X126961768Y-93275179D01*
X126723460Y-93014792D01*
X126485151Y-92754406D01*
X126485151Y-91679040D01*
X126485151Y-90691142D01*
X126577852Y-90691142D01*
X126578120Y-91697333D01*
X126578388Y-92703524D01*
X126792520Y-92927551D01*
X127006651Y-93151578D01*
X127658109Y-93151578D01*
X128309567Y-93151578D01*
X128525218Y-92928093D01*
X128740869Y-92704607D01*
X128740869Y-91685084D01*
X128740869Y-90665562D01*
X128517615Y-90440808D01*
X128294362Y-90216055D01*
X127654988Y-90216055D01*
X127015615Y-90216055D01*
X126796733Y-90453598D01*
X126577852Y-90691142D01*
X126485151Y-90691142D01*
X126485151Y-90603675D01*
X126723903Y-90363515D01*
X126962655Y-90123354D01*
X127657990Y-90123354D01*
X128353325Y-90123354D01*
X128608897Y-90377599D01*
X128864470Y-90631844D01*
X128864470Y-91697939D01*
X128864470Y-92704607D01*
G37*
G36*
X130625784Y-90834060D02*
G01*
X130625784Y-91065812D01*
X130625784Y-91390264D01*
X130376205Y-91390264D01*
X130298694Y-91389879D01*
X130199345Y-91385388D01*
X130134245Y-91372023D01*
X130085771Y-91345101D01*
X130036302Y-91299940D01*
X129972476Y-91205797D01*
X129942325Y-91077559D01*
X130070748Y-91077559D01*
X130080750Y-91170327D01*
X130106660Y-91229583D01*
X130141659Y-91245872D01*
X130226549Y-91260946D01*
X130338411Y-91266663D01*
X130533083Y-91266663D01*
X130533083Y-91050361D01*
X130533083Y-90834060D01*
X130333319Y-90834060D01*
X130268589Y-90834794D01*
X130180410Y-90842033D01*
X130129996Y-90860354D01*
X130101567Y-90893829D01*
X130100060Y-90896732D01*
X130077051Y-90977590D01*
X130070748Y-91077559D01*
X129942325Y-91077559D01*
X129941858Y-91075571D01*
X129958411Y-90942264D01*
X130022723Y-90826335D01*
X130052808Y-90794275D01*
X130093302Y-90765111D01*
X130147614Y-90749243D01*
X130231733Y-90742662D01*
X130361649Y-90741359D01*
X130625784Y-90741359D01*
X130625784Y-90834060D01*
G37*
G36*
X122344518Y-90834060D02*
G01*
X122344518Y-91096712D01*
X122344518Y-91452065D01*
X122076133Y-91452065D01*
X122033101Y-91451942D01*
X121912244Y-91448614D01*
X121832986Y-91438404D01*
X121779568Y-91418197D01*
X121736230Y-91384878D01*
X121704282Y-91349879D01*
X121679219Y-91298031D01*
X121667570Y-91221198D01*
X121665438Y-91131516D01*
X121760629Y-91131516D01*
X121773772Y-91235669D01*
X121800428Y-91305288D01*
X121840626Y-91336968D01*
X121912905Y-91354357D01*
X122031197Y-91359364D01*
X122220917Y-91359364D01*
X122220917Y-91096712D01*
X122220917Y-90834060D01*
X122021153Y-90834060D01*
X121956423Y-90834794D01*
X121868245Y-90842033D01*
X121817830Y-90860354D01*
X121789401Y-90893829D01*
X121777666Y-90923305D01*
X121761696Y-91018753D01*
X121760629Y-91131516D01*
X121665438Y-91131516D01*
X121664713Y-91101042D01*
X121665730Y-91023952D01*
X121674159Y-90927518D01*
X121694769Y-90863363D01*
X121731900Y-90812876D01*
X121752215Y-90792750D01*
X121793139Y-90765426D01*
X121849821Y-90749905D01*
X121937597Y-90742958D01*
X122071803Y-90741359D01*
X122344518Y-90741359D01*
X122344518Y-90834060D01*
G37*
G36*
X146817511Y-92689525D02*
G01*
X146817511Y-92764034D01*
X146563266Y-93019607D01*
X146309022Y-93275179D01*
X145624836Y-93275179D01*
X144940651Y-93275179D01*
X144689888Y-93020252D01*
X144439125Y-92765325D01*
X144439093Y-92691774D01*
X144530893Y-92691774D01*
X144693119Y-92866446D01*
X144701941Y-92875927D01*
X144789074Y-92967854D01*
X144866063Y-93046353D01*
X144917146Y-93095320D01*
X144941632Y-93112378D01*
X144979184Y-93126428D01*
X145036439Y-93136534D01*
X145121813Y-93143348D01*
X145243728Y-93147521D01*
X145410601Y-93149704D01*
X145630852Y-93150550D01*
X146282758Y-93151578D01*
X146503784Y-92920551D01*
X146724810Y-92689525D01*
X146724810Y-91691542D01*
X146724810Y-90693559D01*
X146484650Y-90454807D01*
X146244489Y-90216055D01*
X145612209Y-90216055D01*
X144979928Y-90216055D01*
X144756449Y-90455532D01*
X144532970Y-90695009D01*
X144531932Y-91693391D01*
X144530893Y-92691774D01*
X144439093Y-92691774D01*
X144438659Y-91698154D01*
X144438192Y-90630983D01*
X144673121Y-90377169D01*
X144908049Y-90123354D01*
X145624808Y-90123354D01*
X146341567Y-90123354D01*
X146579539Y-90368077D01*
X146817511Y-90612800D01*
X146817511Y-91688417D01*
X146817511Y-92689525D01*
G37*
G36*
X137392937Y-90834060D02*
G01*
X137392937Y-91045211D01*
X137392165Y-91128236D01*
X137388026Y-91246490D01*
X137381111Y-91331769D01*
X137372337Y-91369664D01*
X137370965Y-91370734D01*
X137326850Y-91380614D01*
X137239933Y-91387609D01*
X137127506Y-91390264D01*
X137014386Y-91388059D01*
X136929048Y-91377375D01*
X136867053Y-91353131D01*
X136808203Y-91310267D01*
X136793590Y-91297718D01*
X136741750Y-91240975D01*
X136718501Y-91175737D01*
X136713132Y-91075560D01*
X136717331Y-91035038D01*
X136808758Y-91035038D01*
X136817631Y-91137903D01*
X136862341Y-91215524D01*
X136888573Y-91233677D01*
X136974499Y-91258790D01*
X137109543Y-91266663D01*
X137300236Y-91266663D01*
X137300236Y-91050361D01*
X137300236Y-90834060D01*
X137101137Y-90834060D01*
X137023635Y-90835154D01*
X136940255Y-90843551D01*
X136889597Y-90864437D01*
X136853935Y-90902736D01*
X136836407Y-90932518D01*
X136808758Y-91035038D01*
X136717331Y-91035038D01*
X136726851Y-90943163D01*
X136777036Y-90831105D01*
X136778368Y-90829236D01*
X136811394Y-90787167D01*
X136846946Y-90761257D01*
X136899842Y-90747594D01*
X136984900Y-90742266D01*
X137116939Y-90741359D01*
X137392937Y-90741359D01*
X137392937Y-90834060D01*
G37*
G36*
X148609725Y-90834060D02*
G01*
X148609725Y-91045211D01*
X148608954Y-91128236D01*
X148604814Y-91246490D01*
X148597900Y-91331769D01*
X148589125Y-91369664D01*
X148586687Y-91371337D01*
X148539686Y-91380935D01*
X148450452Y-91387703D01*
X148335889Y-91390264D01*
X148309696Y-91390215D01*
X148195599Y-91387032D01*
X148121180Y-91375382D01*
X148067741Y-91350403D01*
X148016586Y-91307232D01*
X147998999Y-91289806D01*
X147954963Y-91231433D01*
X147934766Y-91161188D01*
X147929920Y-91054297D01*
X147931777Y-91010657D01*
X148025880Y-91010657D01*
X148027703Y-91115894D01*
X148054608Y-91206894D01*
X148067366Y-91226143D01*
X148105057Y-91251367D01*
X148172796Y-91263517D01*
X148286360Y-91266663D01*
X148486124Y-91266663D01*
X148486124Y-91050361D01*
X148486124Y-90834060D01*
X148302930Y-90834060D01*
X148256865Y-90834836D01*
X148138287Y-90849190D01*
X148071178Y-90882617D01*
X148047713Y-90919050D01*
X148025880Y-91010657D01*
X147931777Y-91010657D01*
X147933924Y-90960206D01*
X147954158Y-90875997D01*
X147997107Y-90812876D01*
X148017422Y-90792750D01*
X148058346Y-90765426D01*
X148115028Y-90749905D01*
X148202804Y-90742958D01*
X148337009Y-90741359D01*
X148609725Y-90741359D01*
X148609725Y-90834060D01*
G37*
G36*
X124686686Y-90486432D02*
G01*
X124695886Y-90679559D01*
X124601711Y-90679559D01*
X124507535Y-90679559D01*
X124507535Y-91603819D01*
X124507535Y-92528079D01*
X124602607Y-92608077D01*
X124649256Y-92643824D01*
X124698511Y-92667812D01*
X124763390Y-92681126D01*
X124859278Y-92686851D01*
X125001563Y-92688074D01*
X125061258Y-92688030D01*
X125181028Y-92686353D01*
X125258914Y-92679582D01*
X125309333Y-92664148D01*
X125346704Y-92636478D01*
X125385446Y-92593003D01*
X125465443Y-92497931D01*
X125465443Y-91588745D01*
X125465443Y-90679559D01*
X125371268Y-90679559D01*
X125277093Y-90679559D01*
X125286292Y-90486432D01*
X125295492Y-90293305D01*
X125743545Y-90293305D01*
X126191599Y-90293305D01*
X126200798Y-90486432D01*
X126209998Y-90679559D01*
X126100373Y-90679559D01*
X125990747Y-90679559D01*
X125990747Y-91687024D01*
X125990747Y-92694489D01*
X125799913Y-92892133D01*
X125609079Y-93089777D01*
X124989557Y-93089777D01*
X124370035Y-93089777D01*
X124160683Y-92882030D01*
X123951331Y-92674282D01*
X123951331Y-91676920D01*
X123951331Y-90679559D01*
X123857156Y-90679559D01*
X123762981Y-90679559D01*
X123772180Y-90486432D01*
X123781380Y-90293305D01*
X124229433Y-90293305D01*
X124677487Y-90293305D01*
X124686686Y-90486432D01*
G37*
G36*
X148597101Y-92008269D02*
G01*
X148603104Y-92238035D01*
X148605135Y-92351246D01*
X148604948Y-92477144D01*
X148601932Y-92570443D01*
X148596349Y-92616563D01*
X148595942Y-92617549D01*
X148561686Y-92640261D01*
X148479226Y-92653120D01*
X148342009Y-92657174D01*
X148303457Y-92657071D01*
X148192089Y-92653595D01*
X148119333Y-92641722D01*
X148066921Y-92616792D01*
X148016586Y-92574142D01*
X148008785Y-92566596D01*
X147966134Y-92518020D01*
X147942394Y-92465017D01*
X147932133Y-92388481D01*
X147929920Y-92269307D01*
X147930190Y-92242552D01*
X148023722Y-92242552D01*
X148026058Y-92351136D01*
X148038051Y-92443204D01*
X148059701Y-92496493D01*
X148094700Y-92512782D01*
X148179590Y-92527856D01*
X148291453Y-92533573D01*
X148486124Y-92533573D01*
X148486124Y-92270921D01*
X148486124Y-92008269D01*
X148291453Y-92008269D01*
X148202372Y-92011833D01*
X148109935Y-92025131D01*
X148059701Y-92045349D01*
X148048021Y-92064883D01*
X148031043Y-92139714D01*
X148023722Y-92242552D01*
X147930190Y-92242552D01*
X147930524Y-92209474D01*
X147938342Y-92099849D01*
X147958434Y-92024699D01*
X147994873Y-91964929D01*
X148025721Y-91928806D01*
X148061790Y-91903355D01*
X148113875Y-91890863D01*
X148197215Y-91887951D01*
X148327051Y-91891236D01*
X148594275Y-91900118D01*
X148597101Y-92008269D01*
G37*
G36*
X146663010Y-92514741D02*
G01*
X146663010Y-92669401D01*
X146446906Y-92879589D01*
X146230802Y-93089777D01*
X145621100Y-93089777D01*
X145011398Y-93089777D01*
X144802046Y-92882030D01*
X144592694Y-92674282D01*
X144592694Y-92531072D01*
X145148898Y-92531072D01*
X145233558Y-92609573D01*
X145236551Y-92612338D01*
X145279349Y-92647339D01*
X145325409Y-92669512D01*
X145389363Y-92681759D01*
X145485843Y-92686979D01*
X145629480Y-92688074D01*
X145675179Y-92688037D01*
X145802682Y-92686442D01*
X145886871Y-92680152D01*
X145942168Y-92665996D01*
X145982995Y-92640805D01*
X146023774Y-92601408D01*
X146106806Y-92514741D01*
X146106806Y-91687076D01*
X146106806Y-90859410D01*
X146021930Y-90769484D01*
X146012624Y-90759684D01*
X145971885Y-90721529D01*
X145928961Y-90697930D01*
X145868949Y-90685396D01*
X145776945Y-90680436D01*
X145638048Y-90679559D01*
X145508916Y-90680546D01*
X145410007Y-90685869D01*
X145343276Y-90698702D01*
X145293129Y-90722209D01*
X145243970Y-90759556D01*
X145148898Y-90839553D01*
X145148898Y-91685313D01*
X145148898Y-92531072D01*
X144592694Y-92531072D01*
X144592694Y-91681990D01*
X144592694Y-90689698D01*
X144805991Y-90483776D01*
X145019288Y-90277855D01*
X145614880Y-90277855D01*
X146210471Y-90277855D01*
X146436740Y-90504125D01*
X146663010Y-90730394D01*
X146663010Y-91699898D01*
X146663010Y-92514741D01*
G37*
G36*
X128679068Y-92514741D02*
G01*
X128679068Y-92677509D01*
X128470900Y-92883643D01*
X128262732Y-93089777D01*
X127649369Y-93089777D01*
X127036006Y-93089777D01*
X126837829Y-92899478D01*
X126639652Y-92709179D01*
X126639652Y-92541763D01*
X127189663Y-92541763D01*
X127277735Y-92613807D01*
X127315651Y-92641789D01*
X127365419Y-92665184D01*
X127432257Y-92678690D01*
X127531068Y-92685039D01*
X127676754Y-92686963D01*
X127723966Y-92687093D01*
X127850807Y-92685944D01*
X127934482Y-92679933D01*
X127989413Y-92665928D01*
X128030023Y-92640797D01*
X128070732Y-92601408D01*
X128153764Y-92514741D01*
X128153621Y-91697576D01*
X128153478Y-90880410D01*
X128059354Y-90779984D01*
X128040473Y-90759976D01*
X127998625Y-90720868D01*
X127955023Y-90697082D01*
X127894655Y-90684807D01*
X127802509Y-90680236D01*
X127663575Y-90679559D01*
X127639123Y-90679569D01*
X127507104Y-90680921D01*
X127419938Y-90686850D01*
X127362883Y-90700638D01*
X127321197Y-90725567D01*
X127280139Y-90764920D01*
X127198357Y-90850282D01*
X127194010Y-91696022D01*
X127189663Y-92541763D01*
X126639652Y-92541763D01*
X126639652Y-91702869D01*
X126639652Y-90696560D01*
X126847400Y-90487207D01*
X127055148Y-90277855D01*
X127653811Y-90277855D01*
X128252474Y-90277855D01*
X128465771Y-90483776D01*
X128679068Y-90689698D01*
X128679068Y-91683603D01*
X128679068Y-92514741D01*
G37*
G36*
X149567633Y-90216055D02*
G01*
X149567633Y-90478707D01*
X149567633Y-90834060D01*
X149474932Y-90834060D01*
X149382231Y-90834060D01*
X149382231Y-91681764D01*
X149382231Y-92529468D01*
X149467207Y-92539246D01*
X149552183Y-92549023D01*
X149560888Y-92912101D01*
X149569594Y-93275179D01*
X148603592Y-93275179D01*
X147637590Y-93275179D01*
X147366602Y-93005446D01*
X147095613Y-92735713D01*
X147095613Y-92705071D01*
X147219214Y-92705071D01*
X147443968Y-92928325D01*
X147668721Y-93151578D01*
X148571827Y-93151578D01*
X149474932Y-93151578D01*
X149474932Y-92906334D01*
X149474932Y-92661090D01*
X149374506Y-92651407D01*
X149274081Y-92641724D01*
X149265909Y-91691541D01*
X149257737Y-90741359D01*
X149366335Y-90741359D01*
X149474932Y-90741359D01*
X149474932Y-90478707D01*
X149474932Y-90216055D01*
X148580497Y-90216055D01*
X147686062Y-90216055D01*
X147452638Y-90441297D01*
X147219214Y-90666539D01*
X147219214Y-91037580D01*
X147219214Y-91408622D01*
X147342666Y-91529169D01*
X147466117Y-91649716D01*
X147342666Y-91768339D01*
X147219214Y-91886962D01*
X147219214Y-92296017D01*
X147219214Y-92705071D01*
X147095613Y-92705071D01*
X147095613Y-92292665D01*
X147095613Y-91849618D01*
X147202726Y-91748597D01*
X147309839Y-91647577D01*
X147202726Y-91543759D01*
X147095613Y-91439941D01*
X147095613Y-91034331D01*
X147095613Y-90628720D01*
X147354490Y-90376037D01*
X147613366Y-90123354D01*
X148590500Y-90123354D01*
X149567633Y-90123354D01*
X149567633Y-90216055D01*
G37*
G36*
X122962523Y-90679559D02*
G01*
X122962523Y-91681764D01*
X122962523Y-92683969D01*
X123047499Y-92693747D01*
X123056217Y-92694791D01*
X123099197Y-92705152D01*
X123123160Y-92732416D01*
X123135021Y-92791541D01*
X123141696Y-92897486D01*
X123150917Y-93091447D01*
X122693642Y-93082887D01*
X122236368Y-93074327D01*
X122236368Y-92888926D01*
X122236373Y-92876510D01*
X122238439Y-92778724D01*
X122248835Y-92725900D01*
X122274243Y-92702689D01*
X122321343Y-92693747D01*
X122406319Y-92683969D01*
X122406319Y-92299769D01*
X122406319Y-91915568D01*
X121924673Y-91915568D01*
X121443027Y-91915568D01*
X121244868Y-91715448D01*
X121046708Y-91515328D01*
X121046708Y-91101724D01*
X121046708Y-91090215D01*
X121572012Y-91090215D01*
X121572202Y-91144420D01*
X121576325Y-91244115D01*
X121590564Y-91309432D01*
X121621049Y-91359913D01*
X121673909Y-91415103D01*
X121698523Y-91438702D01*
X121742460Y-91475128D01*
X121788844Y-91497345D01*
X121852514Y-91508865D01*
X121948307Y-91513201D01*
X122091063Y-91513865D01*
X122406319Y-91513865D01*
X122406319Y-91096712D01*
X122406319Y-90679559D01*
X122089591Y-90680464D01*
X122033572Y-90680682D01*
X121907583Y-90682833D01*
X121823360Y-90689822D01*
X121766017Y-90704939D01*
X121720672Y-90731478D01*
X121672438Y-90772729D01*
X121647480Y-90795884D01*
X121605438Y-90843364D01*
X121582857Y-90895565D01*
X121573721Y-90971508D01*
X121572012Y-91090215D01*
X121046708Y-91090215D01*
X121046708Y-90688119D01*
X121255285Y-90482874D01*
X121463862Y-90277629D01*
X122298168Y-90285467D01*
X123132475Y-90293305D01*
X123141674Y-90486432D01*
X123150874Y-90679559D01*
X123056699Y-90679559D01*
X122962523Y-90679559D01*
G37*
G36*
X123302426Y-90216055D02*
G01*
X123302426Y-90478707D01*
X123302426Y-90834060D01*
X123209725Y-90834060D01*
X123117025Y-90834060D01*
X123117025Y-91681764D01*
X123117025Y-92529468D01*
X123202000Y-92539246D01*
X123286976Y-92549023D01*
X123295682Y-92912101D01*
X123304387Y-93275179D01*
X122668971Y-93275179D01*
X122033555Y-93275179D01*
X122042260Y-92912101D01*
X122050966Y-92549023D01*
X122135942Y-92539246D01*
X122167558Y-92534795D01*
X122198168Y-92520964D01*
X122214036Y-92486282D01*
X122220004Y-92417100D01*
X122220917Y-92299769D01*
X122220917Y-92070069D01*
X121784539Y-92070069D01*
X121348160Y-92070069D01*
X121089283Y-91817386D01*
X120830407Y-91564703D01*
X120830407Y-91527862D01*
X120954008Y-91527862D01*
X121177261Y-91752615D01*
X121400514Y-91977369D01*
X121873562Y-91977369D01*
X122346609Y-91977369D01*
X122337839Y-92309546D01*
X122329068Y-92641724D01*
X122228643Y-92651407D01*
X122128217Y-92661090D01*
X122128217Y-92906334D01*
X122128217Y-93151578D01*
X122668971Y-93151578D01*
X123209725Y-93151578D01*
X123209725Y-92906334D01*
X123209725Y-92661090D01*
X123109299Y-92651407D01*
X123008874Y-92641724D01*
X123000702Y-91691541D01*
X122992530Y-90741359D01*
X123101128Y-90741359D01*
X123209725Y-90741359D01*
X123209725Y-90478707D01*
X123209725Y-90216055D01*
X122305425Y-90216055D01*
X121401124Y-90216055D01*
X121177566Y-90442529D01*
X120954008Y-90669003D01*
X120954008Y-91098432D01*
X120954008Y-91527862D01*
X120830407Y-91527862D01*
X120830407Y-91096712D01*
X120830407Y-90628720D01*
X121089283Y-90376037D01*
X121348160Y-90123354D01*
X122325293Y-90123354D01*
X123302426Y-90123354D01*
X123302426Y-90216055D01*
G37*
G36*
X133844737Y-90488829D02*
G01*
X134055711Y-90699803D01*
X134055711Y-91685438D01*
X134055711Y-92671073D01*
X133847963Y-92880425D01*
X133640215Y-93089777D01*
X133034176Y-93089777D01*
X132428137Y-93089777D01*
X132222216Y-92876480D01*
X132016295Y-92663183D01*
X132016295Y-92165775D01*
X132016295Y-91668366D01*
X132402548Y-91668366D01*
X132788801Y-91668366D01*
X132788801Y-91819562D01*
X132786872Y-91879938D01*
X132767798Y-91959704D01*
X132719622Y-91998245D01*
X132631772Y-92008269D01*
X132613715Y-92009797D01*
X132591650Y-92024706D01*
X132579218Y-92065456D01*
X132573731Y-92144026D01*
X132572499Y-92272396D01*
X132573004Y-92363082D01*
X132577518Y-92462123D01*
X132589983Y-92525936D01*
X132614273Y-92570627D01*
X132654262Y-92612299D01*
X132694481Y-92645651D01*
X132740242Y-92668532D01*
X132803578Y-92681309D01*
X132899225Y-92686863D01*
X133041919Y-92688074D01*
X133182206Y-92686973D01*
X133277782Y-92681710D01*
X133340244Y-92669413D01*
X133384051Y-92647210D01*
X133423660Y-92612228D01*
X133499506Y-92536382D01*
X133499506Y-91694637D01*
X133499506Y-90852891D01*
X133416475Y-90766225D01*
X133412723Y-90762320D01*
X133371189Y-90723275D01*
X133328198Y-90698945D01*
X133268665Y-90685862D01*
X133177507Y-90680556D01*
X133039637Y-90679559D01*
X132904115Y-90680625D01*
X132810890Y-90686116D01*
X132749211Y-90699376D01*
X132703746Y-90723752D01*
X132659165Y-90762590D01*
X132646617Y-90774893D01*
X132599511Y-90834745D01*
X132577770Y-90904949D01*
X132572499Y-91010995D01*
X132572499Y-91176368D01*
X132302122Y-91167440D01*
X132031745Y-91158512D01*
X132022790Y-90940642D01*
X132013836Y-90722772D01*
X132234975Y-90500314D01*
X132456115Y-90277855D01*
X133044939Y-90277855D01*
X133633763Y-90277855D01*
X133844737Y-90488829D01*
G37*
G36*
X146044958Y-91581776D02*
G01*
X146045005Y-91679787D01*
X146045005Y-92483841D01*
X145961973Y-92570508D01*
X145937831Y-92594779D01*
X145893151Y-92628905D01*
X145838774Y-92647645D01*
X145757339Y-92655551D01*
X145631487Y-92657174D01*
X145576055Y-92656967D01*
X145468257Y-92653106D01*
X145397676Y-92640947D01*
X145346612Y-92616092D01*
X145297365Y-92574142D01*
X145210699Y-92491111D01*
X145210699Y-91695294D01*
X145334299Y-91695294D01*
X145334748Y-91879390D01*
X145337146Y-92102219D01*
X145341799Y-92270837D01*
X145348917Y-92389751D01*
X145358708Y-92463467D01*
X145371380Y-92496493D01*
X145411821Y-92514103D01*
X145503721Y-92528344D01*
X145629243Y-92533573D01*
X145676908Y-92533701D01*
X145761838Y-92532369D01*
X145827251Y-92523294D01*
X145875689Y-92499719D01*
X145909697Y-92454888D01*
X145931819Y-92382044D01*
X145944596Y-92274430D01*
X145950574Y-92125291D01*
X145952296Y-91927870D01*
X145952304Y-91675410D01*
X145952333Y-91581776D01*
X145951930Y-91352038D01*
X145948715Y-91174892D01*
X145940018Y-91043511D01*
X145923169Y-90951071D01*
X145895497Y-90890744D01*
X145854333Y-90855706D01*
X145797006Y-90839130D01*
X145720846Y-90834190D01*
X145623183Y-90834060D01*
X145580508Y-90833942D01*
X145504699Y-90835365D01*
X145446283Y-90844619D01*
X145402997Y-90868449D01*
X145372578Y-90913601D01*
X145352764Y-90986821D01*
X145341292Y-91094854D01*
X145335899Y-91244447D01*
X145334322Y-91442345D01*
X145334299Y-91695294D01*
X145210699Y-91695294D01*
X145210699Y-91687752D01*
X145210698Y-91684563D01*
X145210610Y-91418568D01*
X145212237Y-91207867D01*
X145218384Y-91046029D01*
X145231855Y-90926627D01*
X145255454Y-90843232D01*
X145291986Y-90789415D01*
X145344254Y-90758747D01*
X145415064Y-90744801D01*
X145507218Y-90741148D01*
X145623522Y-90741359D01*
X145685165Y-90741601D01*
X145802338Y-90745278D01*
X145879231Y-90755700D01*
X145931171Y-90775808D01*
X145973488Y-90808546D01*
X145991106Y-90825769D01*
X146008822Y-90848925D01*
X146022156Y-90880800D01*
X146031732Y-90928975D01*
X146038170Y-91001036D01*
X146042094Y-91104564D01*
X146044126Y-91247143D01*
X146044889Y-91436356D01*
X146044958Y-91581776D01*
G37*
G36*
X128091929Y-91606127D02*
G01*
X128091964Y-91679787D01*
X128091964Y-92483841D01*
X128008932Y-92570508D01*
X127984789Y-92594779D01*
X127940110Y-92628905D01*
X127885732Y-92647645D01*
X127804297Y-92655551D01*
X127678445Y-92657174D01*
X127623014Y-92656967D01*
X127515215Y-92653106D01*
X127444634Y-92640947D01*
X127393570Y-92616092D01*
X127344324Y-92574142D01*
X127257657Y-92491111D01*
X127257657Y-91687752D01*
X127257657Y-91684563D01*
X127257573Y-91432329D01*
X127350336Y-91432329D01*
X127350358Y-91683361D01*
X127350368Y-91723478D01*
X127351022Y-91955041D01*
X127353022Y-92133335D01*
X127356817Y-92265768D01*
X127362855Y-92359746D01*
X127371585Y-92422675D01*
X127383456Y-92461963D01*
X127398915Y-92485016D01*
X127446589Y-92512413D01*
X127534563Y-92528621D01*
X127672228Y-92533573D01*
X127708991Y-92533657D01*
X127798397Y-92532735D01*
X127867284Y-92524733D01*
X127918321Y-92502812D01*
X127954180Y-92460133D01*
X127977531Y-92389856D01*
X127991044Y-92285142D01*
X127997391Y-92139152D01*
X127999240Y-91945045D01*
X127999263Y-91695984D01*
X127999272Y-91606127D01*
X127998702Y-91372069D01*
X127995388Y-91190834D01*
X127986948Y-91055669D01*
X127971003Y-90959823D01*
X127945173Y-90896543D01*
X127907076Y-90859079D01*
X127854332Y-90840678D01*
X127784562Y-90834589D01*
X127695384Y-90834060D01*
X127646440Y-90833922D01*
X127554880Y-90835020D01*
X127484421Y-90843597D01*
X127432305Y-90866444D01*
X127395774Y-90910348D01*
X127372069Y-90982100D01*
X127358433Y-91088488D01*
X127352108Y-91236301D01*
X127350336Y-91432329D01*
X127257573Y-91432329D01*
X127257568Y-91418568D01*
X127259195Y-91207867D01*
X127265342Y-91046029D01*
X127278813Y-90926627D01*
X127302413Y-90843232D01*
X127338945Y-90789415D01*
X127391213Y-90758747D01*
X127462022Y-90744801D01*
X127554177Y-90741148D01*
X127670480Y-90741359D01*
X127732123Y-90741601D01*
X127849296Y-90745278D01*
X127926189Y-90755700D01*
X127978130Y-90775808D01*
X128020447Y-90808546D01*
X128038064Y-90825769D01*
X128055781Y-90848925D01*
X128069115Y-90880800D01*
X128078690Y-90928975D01*
X128085129Y-91001036D01*
X128089053Y-91104564D01*
X128091085Y-91247143D01*
X128091848Y-91436356D01*
X128091929Y-91606127D01*
G37*
G36*
X138010942Y-91297254D02*
G01*
X138010942Y-91683816D01*
X138010942Y-92688074D01*
X138103643Y-92688074D01*
X138196343Y-92688074D01*
X138196343Y-92888926D01*
X138196343Y-93089777D01*
X137746815Y-93089777D01*
X137297287Y-93089777D01*
X137306487Y-92896651D01*
X137312225Y-92806230D01*
X137323845Y-92738505D01*
X137345681Y-92705969D01*
X137383312Y-92693899D01*
X137394160Y-92692099D01*
X137425353Y-92680194D01*
X137446570Y-92652624D01*
X137459257Y-92600174D01*
X137464858Y-92513629D01*
X137464821Y-92383775D01*
X137460592Y-92201395D01*
X137450996Y-91853768D01*
X137141013Y-91853768D01*
X137051907Y-91854235D01*
X136932378Y-91858385D01*
X136851791Y-91868839D01*
X136795512Y-91888007D01*
X136748906Y-91918296D01*
X136666781Y-91982824D01*
X136651331Y-92528576D01*
X136635881Y-93074327D01*
X136265078Y-93074327D01*
X135894275Y-93074327D01*
X135894275Y-92888926D01*
X135894275Y-92703524D01*
X135994701Y-92693842D01*
X136095127Y-92684159D01*
X136095127Y-92290684D01*
X136095127Y-91897210D01*
X136218728Y-91776517D01*
X136269606Y-91725288D01*
X136321827Y-91668001D01*
X136341893Y-91638920D01*
X136328860Y-91617192D01*
X136284005Y-91560856D01*
X136218292Y-91485447D01*
X136095127Y-91348877D01*
X136095127Y-91056576D01*
X136651331Y-91056576D01*
X136651371Y-91082184D01*
X136654699Y-91184541D01*
X136668880Y-91250261D01*
X136701603Y-91300438D01*
X136760557Y-91356163D01*
X136766390Y-91361274D01*
X136819432Y-91404401D01*
X136869010Y-91431128D01*
X136931439Y-91445370D01*
X137023035Y-91451044D01*
X137160111Y-91452065D01*
X137184956Y-91452126D01*
X137299908Y-91452583D01*
X137379541Y-91446539D01*
X137429928Y-91424780D01*
X137457142Y-91378090D01*
X137467256Y-91297254D01*
X137466343Y-91173058D01*
X137460474Y-90996286D01*
X137450761Y-90679559D01*
X137134078Y-90679559D01*
X137078666Y-90679613D01*
X136952882Y-90681323D01*
X136869792Y-90687754D01*
X136815164Y-90701990D01*
X136774765Y-90727119D01*
X136734363Y-90766225D01*
X136698056Y-90808024D01*
X136668061Y-90864519D01*
X136654504Y-90940311D01*
X136651331Y-91056576D01*
X136095127Y-91056576D01*
X136095127Y-91019287D01*
X136095127Y-90689698D01*
X136308424Y-90483776D01*
X136521721Y-90277855D01*
X137359032Y-90277855D01*
X138196343Y-90277855D01*
X138196343Y-90478707D01*
X138196343Y-90679559D01*
X138103643Y-90679559D01*
X138010942Y-90679559D01*
X138010942Y-91297254D01*
G37*
G36*
X139937468Y-90278035D02*
G01*
X140174258Y-90279141D01*
X140359459Y-90281497D01*
X140499259Y-90285384D01*
X140599843Y-90291079D01*
X140667399Y-90298861D01*
X140708112Y-90309011D01*
X140728171Y-90321805D01*
X140738240Y-90340414D01*
X140753588Y-90415578D01*
X140755130Y-90514931D01*
X140751455Y-90564097D01*
X140739149Y-90631406D01*
X140712291Y-90662257D01*
X140660638Y-90673886D01*
X140575662Y-90683663D01*
X140575662Y-91682006D01*
X140575662Y-92680349D01*
X140668363Y-92698889D01*
X140715605Y-92710809D01*
X140746636Y-92735106D01*
X140758901Y-92786768D01*
X140761063Y-92883003D01*
X140759487Y-92947927D01*
X140752012Y-93028967D01*
X140740463Y-93069177D01*
X140732384Y-93071451D01*
X140672922Y-93076374D01*
X140562671Y-93080767D01*
X140409297Y-93084466D01*
X140220468Y-93087308D01*
X140003848Y-93089133D01*
X139767106Y-93089777D01*
X138814348Y-93089777D01*
X138814348Y-92842576D01*
X138814348Y-92595374D01*
X138999750Y-92595374D01*
X139022088Y-92595465D01*
X139120438Y-92600361D01*
X139170913Y-92614810D01*
X139185151Y-92641724D01*
X139185611Y-92646972D01*
X139199360Y-92664434D01*
X139238909Y-92676276D01*
X139313253Y-92683497D01*
X139431386Y-92687097D01*
X139602304Y-92688074D01*
X140019458Y-92688074D01*
X140019458Y-92301821D01*
X140019458Y-91915568D01*
X139787706Y-91915568D01*
X139745989Y-91915665D01*
X139643638Y-91918334D01*
X139586387Y-91927231D01*
X139561428Y-91945771D01*
X139555954Y-91977369D01*
X139552546Y-92004741D01*
X139530056Y-92027009D01*
X139474103Y-92036914D01*
X139370553Y-92039169D01*
X139185151Y-92039169D01*
X139185151Y-91714717D01*
X139185151Y-91390264D01*
X139370553Y-91390264D01*
X139452670Y-91391400D01*
X139519472Y-91398897D01*
X139549189Y-91417548D01*
X139555954Y-91452065D01*
X139556317Y-91463189D01*
X139566327Y-91490483D01*
X139599690Y-91505750D01*
X139669214Y-91512405D01*
X139787706Y-91513865D01*
X140019458Y-91513865D01*
X140019458Y-91096712D01*
X140019458Y-90679559D01*
X139605908Y-90679559D01*
X139450435Y-90680025D01*
X139330917Y-90682486D01*
X139253835Y-90688397D01*
X139209089Y-90699212D01*
X139186577Y-90716381D01*
X139176198Y-90741359D01*
X139170628Y-90758026D01*
X139144607Y-90786564D01*
X139088760Y-90799877D01*
X138987192Y-90803159D01*
X138814348Y-90803159D01*
X138814348Y-90540507D01*
X138814348Y-90277855D01*
X139753022Y-90277855D01*
X139937468Y-90278035D01*
G37*
G36*
X149263400Y-90679559D02*
G01*
X149227730Y-90683663D01*
X149227730Y-91682006D01*
X149227730Y-91853768D01*
X149227730Y-92680349D01*
X149320431Y-92698889D01*
X149367673Y-92710809D01*
X149398704Y-92735106D01*
X149410969Y-92786768D01*
X149413132Y-92883003D01*
X149411555Y-92947927D01*
X149404081Y-93028967D01*
X149392531Y-93069177D01*
X149392333Y-93069347D01*
X149355428Y-93074753D01*
X149265183Y-93079589D01*
X149129810Y-93083664D01*
X148957523Y-93086782D01*
X148756532Y-93088751D01*
X148535050Y-93089378D01*
X147698168Y-93088978D01*
X147505042Y-92892769D01*
X147311915Y-92696560D01*
X147311915Y-92291730D01*
X147311915Y-92270921D01*
X147837219Y-92270921D01*
X147837408Y-92324155D01*
X147841324Y-92428402D01*
X147854245Y-92496425D01*
X147881282Y-92546712D01*
X147927543Y-92597751D01*
X147949908Y-92619720D01*
X147989986Y-92652480D01*
X148035384Y-92672639D01*
X148100222Y-92683252D01*
X148198619Y-92687378D01*
X148344696Y-92688074D01*
X148671526Y-92688074D01*
X148671526Y-92270921D01*
X148671526Y-91853768D01*
X148344696Y-91853768D01*
X148265092Y-91853877D01*
X148144529Y-91855899D01*
X148064612Y-91862875D01*
X148011223Y-91877860D01*
X147970239Y-91903914D01*
X147927543Y-91944092D01*
X147907285Y-91964845D01*
X147868967Y-92013415D01*
X147847923Y-92068293D01*
X147839044Y-92147966D01*
X147837219Y-92270921D01*
X147311915Y-92270921D01*
X147311915Y-91886900D01*
X147442272Y-91765304D01*
X147572630Y-91643708D01*
X147442272Y-91513351D01*
X147311915Y-91382993D01*
X147311915Y-91062648D01*
X147837219Y-91062648D01*
X147838556Y-91137441D01*
X147850158Y-91218552D01*
X147881663Y-91279982D01*
X147942505Y-91347229D01*
X148047791Y-91452515D01*
X148341921Y-91449428D01*
X148416314Y-91448083D01*
X148533092Y-91443386D01*
X148617086Y-91436570D01*
X148653788Y-91428602D01*
X148660557Y-91394007D01*
X148666255Y-91309952D01*
X148670109Y-91189415D01*
X148671526Y-91045211D01*
X148671526Y-90679559D01*
X148353135Y-90679559D01*
X148034744Y-90679559D01*
X147935982Y-90781455D01*
X147900459Y-90819947D01*
X147859367Y-90881674D01*
X147841266Y-90954091D01*
X147837219Y-91062648D01*
X147311915Y-91062648D01*
X147311915Y-91035059D01*
X147311915Y-90687125D01*
X147520492Y-90482868D01*
X147729068Y-90278611D01*
X148536416Y-90278233D01*
X148686363Y-90278139D01*
X148911826Y-90278590D01*
X149085672Y-90281354D01*
X149214448Y-90288211D01*
X149304699Y-90300939D01*
X149362972Y-90321318D01*
X149395812Y-90351127D01*
X149409765Y-90392146D01*
X149411379Y-90446155D01*
X149407198Y-90514931D01*
X149403524Y-90564097D01*
X149391217Y-90631406D01*
X149364359Y-90662257D01*
X149312706Y-90673886D01*
X149263400Y-90679559D01*
G37*
G36*
X126361550Y-90216055D02*
G01*
X126361550Y-90478707D01*
X126361550Y-90834060D01*
X126253399Y-90834060D01*
X126145248Y-90834060D01*
X126145248Y-91802670D01*
X126145248Y-92771281D01*
X125908592Y-93023230D01*
X125671936Y-93275179D01*
X124981135Y-93275179D01*
X124290333Y-93275179D01*
X124029004Y-93004802D01*
X123767675Y-92734425D01*
X123766802Y-91784242D01*
X123765930Y-90834060D01*
X123673229Y-90834060D01*
X123580528Y-90834060D01*
X123580528Y-90741359D01*
X123704129Y-90741359D01*
X123796830Y-90741359D01*
X123889531Y-90741359D01*
X123889531Y-91738721D01*
X123889531Y-92736082D01*
X124098883Y-92943830D01*
X124308235Y-93151578D01*
X124972643Y-93151578D01*
X125637052Y-93151578D01*
X125844800Y-92942226D01*
X126052548Y-92732874D01*
X126052548Y-91737116D01*
X126052548Y-90741359D01*
X126145248Y-90741359D01*
X126237949Y-90741359D01*
X126237949Y-90478707D01*
X126237949Y-90216055D01*
X125712645Y-90216055D01*
X125187341Y-90216055D01*
X125187341Y-90478707D01*
X125187341Y-90741359D01*
X125280042Y-90741359D01*
X125372742Y-90741359D01*
X125372742Y-91612600D01*
X125372742Y-92483841D01*
X125289711Y-92570508D01*
X125273293Y-92587252D01*
X125227015Y-92625286D01*
X125173519Y-92646310D01*
X125094623Y-92655285D01*
X124972144Y-92657174D01*
X124929057Y-92657045D01*
X124820786Y-92653298D01*
X124749074Y-92640418D01*
X124694595Y-92613145D01*
X124638023Y-92566215D01*
X124538436Y-92475256D01*
X124538436Y-91608308D01*
X124538436Y-90741359D01*
X124646587Y-90741359D01*
X124754737Y-90741359D01*
X124754737Y-90478707D01*
X124754737Y-90216055D01*
X124229433Y-90216055D01*
X123704129Y-90216055D01*
X123704129Y-90478707D01*
X123704129Y-90741359D01*
X123580528Y-90741359D01*
X123580528Y-90478707D01*
X123580528Y-90123354D01*
X124213983Y-90123354D01*
X124847438Y-90123354D01*
X124847438Y-90478707D01*
X124847438Y-90834060D01*
X124754737Y-90834060D01*
X124662037Y-90834060D01*
X124662037Y-91646736D01*
X124662774Y-91893594D01*
X124665421Y-92111649D01*
X124670183Y-92276478D01*
X124677256Y-92392569D01*
X124686836Y-92464411D01*
X124699117Y-92496493D01*
X124705772Y-92501534D01*
X124767823Y-92519910D01*
X124867162Y-92530600D01*
X124984066Y-92533603D01*
X125098816Y-92528919D01*
X125191688Y-92516549D01*
X125242961Y-92496493D01*
X125254191Y-92469115D01*
X125264020Y-92401259D01*
X125271323Y-92289581D01*
X125276297Y-92129594D01*
X125279138Y-91916809D01*
X125280042Y-91646736D01*
X125280042Y-90834060D01*
X125187341Y-90834060D01*
X125094640Y-90834060D01*
X125094640Y-90478707D01*
X125094640Y-90123354D01*
X125728095Y-90123354D01*
X126361550Y-90123354D01*
X126361550Y-90216055D01*
G37*
G36*
X131243789Y-90679559D02*
G01*
X131243789Y-91681859D01*
X131243789Y-92684159D01*
X131344214Y-92693842D01*
X131388745Y-92699523D01*
X131427976Y-92717976D01*
X131445861Y-92763764D01*
X131454213Y-92854099D01*
X131456372Y-92902827D01*
X131455253Y-92992632D01*
X131447458Y-93047226D01*
X131428781Y-93064125D01*
X131380791Y-93076465D01*
X131295549Y-93084357D01*
X131164886Y-93088547D01*
X130980632Y-93089777D01*
X130530134Y-93089777D01*
X130539334Y-92896651D01*
X130540226Y-92878236D01*
X130547237Y-92780123D01*
X130560481Y-92726666D01*
X130586919Y-92702871D01*
X130633509Y-92693747D01*
X130718484Y-92683969D01*
X130718484Y-92268869D01*
X130718484Y-91853768D01*
X130384363Y-91853768D01*
X130298709Y-91853900D01*
X130178039Y-91855972D01*
X130098220Y-91862822D01*
X130045588Y-91877289D01*
X130006473Y-91902214D01*
X129967210Y-91940434D01*
X129884178Y-92027101D01*
X129884178Y-92559390D01*
X129884178Y-93091680D01*
X129505650Y-93083003D01*
X129127122Y-93074327D01*
X129117615Y-92907301D01*
X129116230Y-92817888D01*
X129132898Y-92738777D01*
X129177821Y-92699520D01*
X129258448Y-92688547D01*
X129261753Y-92688518D01*
X129289291Y-92685533D01*
X129307892Y-92670660D01*
X129319307Y-92633917D01*
X129325290Y-92565321D01*
X129327595Y-92454891D01*
X129327973Y-92292642D01*
X129327973Y-91897210D01*
X129451574Y-91776517D01*
X129501570Y-91724914D01*
X129554583Y-91661387D01*
X129575148Y-91623470D01*
X129564613Y-91600232D01*
X129519720Y-91542773D01*
X129451547Y-91471239D01*
X129327973Y-91351362D01*
X129327973Y-91049907D01*
X129884178Y-91049907D01*
X129884263Y-91087236D01*
X129887912Y-91187261D01*
X129902257Y-91251606D01*
X129934490Y-91300646D01*
X129991804Y-91354758D01*
X129996341Y-91358735D01*
X130049065Y-91401626D01*
X130098497Y-91428259D01*
X130160909Y-91442500D01*
X130252574Y-91448211D01*
X130389762Y-91449255D01*
X130460533Y-91448684D01*
X130577397Y-91444918D01*
X130661885Y-91438406D01*
X130699289Y-91430060D01*
X130706605Y-91394991D01*
X130712776Y-91310478D01*
X130716950Y-91189591D01*
X130718484Y-91045211D01*
X130718484Y-90679559D01*
X130396403Y-90679559D01*
X130368448Y-90679576D01*
X130230551Y-90681081D01*
X130137358Y-90687018D01*
X130074193Y-90700200D01*
X130026382Y-90723441D01*
X129979249Y-90759556D01*
X129969127Y-90768146D01*
X129922373Y-90814269D01*
X129896892Y-90863588D01*
X129886291Y-90935627D01*
X129884178Y-91049907D01*
X129327973Y-91049907D01*
X129327973Y-91025583D01*
X129327973Y-90699803D01*
X129539453Y-90488324D01*
X129750932Y-90276845D01*
X130597786Y-90285075D01*
X131444640Y-90293305D01*
X131453840Y-90486432D01*
X131463039Y-90679559D01*
X131243789Y-90679559D01*
G37*
G36*
X142336976Y-90477902D02*
G01*
X142336919Y-90516180D01*
X142334356Y-90608580D01*
X142323924Y-90657311D01*
X142300126Y-90676321D01*
X142257460Y-90679559D01*
X142205580Y-90688163D01*
X142187934Y-90719990D01*
X142208396Y-90791743D01*
X142244179Y-90905181D01*
X142291945Y-91050529D01*
X142348535Y-91218738D01*
X142410791Y-91400754D01*
X142475551Y-91587525D01*
X142539658Y-91770001D01*
X142599951Y-91939129D01*
X142653271Y-92085857D01*
X142696459Y-92201134D01*
X142726356Y-92275908D01*
X142739802Y-92301127D01*
X142746973Y-92288288D01*
X142772123Y-92224739D01*
X142811304Y-92115718D01*
X142861605Y-91969593D01*
X142920115Y-91794735D01*
X142983920Y-91599514D01*
X143017959Y-91494346D01*
X143081990Y-91297338D01*
X143140332Y-91118871D01*
X143189675Y-90969016D01*
X143226709Y-90857846D01*
X143248126Y-90795434D01*
X143260642Y-90760249D01*
X143275353Y-90704297D01*
X143261771Y-90682962D01*
X143215147Y-90679559D01*
X143204788Y-90679466D01*
X143168826Y-90673163D01*
X143149564Y-90646897D01*
X143141813Y-90586726D01*
X143140382Y-90478707D01*
X143140382Y-90277855D01*
X143603886Y-90277855D01*
X144067390Y-90277855D01*
X144067390Y-90478707D01*
X144067316Y-90529385D01*
X144064470Y-90616078D01*
X144052886Y-90660675D01*
X144026391Y-90677170D01*
X143978814Y-90679559D01*
X143939640Y-90682489D01*
X143905840Y-90699397D01*
X143875375Y-90741427D01*
X143840485Y-90819705D01*
X143793412Y-90945353D01*
X143772417Y-91003819D01*
X143733497Y-91117361D01*
X143706530Y-91203349D01*
X143696396Y-91246630D01*
X143685945Y-91290196D01*
X143656069Y-91359364D01*
X143641752Y-91390561D01*
X143607019Y-91484337D01*
X143574685Y-91591116D01*
X143560895Y-91640392D01*
X143525986Y-91751809D01*
X143494231Y-91838318D01*
X143474759Y-91887053D01*
X143441196Y-91979184D01*
X143396813Y-92108676D01*
X143339144Y-92282761D01*
X143265725Y-92508669D01*
X143208895Y-92684617D01*
X143290514Y-92694071D01*
X143295645Y-92694682D01*
X143338397Y-92704842D01*
X143362459Y-92731920D01*
X143374537Y-92790871D01*
X143381334Y-92896651D01*
X143390533Y-93089777D01*
X142724703Y-93089777D01*
X142058874Y-93089777D01*
X142058874Y-92888926D01*
X142058874Y-92688074D01*
X142165417Y-92688074D01*
X142184558Y-92688043D01*
X142244181Y-92682629D01*
X142258218Y-92655191D01*
X142240121Y-92587649D01*
X142210183Y-92499069D01*
X142182309Y-92425422D01*
X142180917Y-92421929D01*
X142162072Y-92368465D01*
X142127370Y-92265611D01*
X142079491Y-92121465D01*
X142021113Y-91944128D01*
X141954916Y-91741697D01*
X141883579Y-91522273D01*
X141610820Y-90680924D01*
X141493470Y-90680241D01*
X141376119Y-90679559D01*
X141385319Y-90486432D01*
X141394518Y-90293305D01*
X141865747Y-90284776D01*
X142336976Y-90276246D01*
X142336976Y-90477902D01*
G37*
G36*
X138350845Y-90216055D02*
G01*
X138350845Y-90478707D01*
X138350845Y-90834060D01*
X138258144Y-90834060D01*
X138165443Y-90834060D01*
X138165443Y-91683816D01*
X138165443Y-92533573D01*
X138258144Y-92533573D01*
X138350845Y-92533573D01*
X138350845Y-92904376D01*
X138350845Y-93275179D01*
X137732840Y-93275179D01*
X137114835Y-93275179D01*
X137114835Y-92904376D01*
X137114835Y-92533573D01*
X137207535Y-92533573D01*
X137300236Y-92533573D01*
X137300236Y-92270921D01*
X137300236Y-92008269D01*
X137095066Y-92008269D01*
X137068034Y-92008399D01*
X136956291Y-92014233D01*
X136888205Y-92031123D01*
X136848847Y-92062344D01*
X136846305Y-92066044D01*
X136831242Y-92108801D01*
X136820207Y-92186434D01*
X136812755Y-92305664D01*
X136808440Y-92473212D01*
X136806815Y-92695799D01*
X136805832Y-93275179D01*
X136280528Y-93275179D01*
X135755224Y-93275179D01*
X135755224Y-93151578D01*
X135847925Y-93151578D01*
X136280528Y-93151578D01*
X136713132Y-93151578D01*
X136713132Y-92585310D01*
X136713138Y-92537697D01*
X136713600Y-92349465D01*
X136715552Y-92211677D01*
X136720051Y-92114974D01*
X136728154Y-92049999D01*
X136740916Y-92007393D01*
X136759396Y-91977798D01*
X136784649Y-91951855D01*
X136796571Y-91941115D01*
X136841126Y-91911747D01*
X136900135Y-91894626D01*
X136989357Y-91886638D01*
X137124551Y-91884668D01*
X137392937Y-91884668D01*
X137392937Y-92270921D01*
X137392937Y-92657174D01*
X137300236Y-92657174D01*
X137207535Y-92657174D01*
X137207535Y-92904376D01*
X137207535Y-93151578D01*
X137732840Y-93151578D01*
X138258144Y-93151578D01*
X138258144Y-92904376D01*
X138258144Y-92657174D01*
X138165443Y-92657174D01*
X138072742Y-92657174D01*
X138072742Y-91699267D01*
X138072742Y-90741359D01*
X138165443Y-90741359D01*
X138258144Y-90741359D01*
X138258144Y-90478707D01*
X138258144Y-90216055D01*
X137369037Y-90216055D01*
X136479930Y-90216055D01*
X136241178Y-90456215D01*
X136002426Y-90696376D01*
X136002426Y-91034425D01*
X136002426Y-91372475D01*
X136132461Y-91504970D01*
X136262495Y-91637466D01*
X136132461Y-91769962D01*
X136002426Y-91902457D01*
X136002426Y-92279816D01*
X136002426Y-92657174D01*
X135925175Y-92657174D01*
X135892619Y-92658674D01*
X135867155Y-92671532D01*
X135853845Y-92708362D01*
X135848748Y-92781774D01*
X135847925Y-92904376D01*
X135847925Y-93151578D01*
X135755224Y-93151578D01*
X135755224Y-92904376D01*
X135755224Y-92533573D01*
X135832475Y-92533573D01*
X135909725Y-92533573D01*
X135909725Y-92187416D01*
X135909725Y-91841260D01*
X136009966Y-91737838D01*
X136110206Y-91634416D01*
X136009966Y-91546896D01*
X135909725Y-91459376D01*
X135909725Y-91046938D01*
X135909725Y-90634499D01*
X136163970Y-90378927D01*
X136418215Y-90123354D01*
X137384530Y-90123354D01*
X138350845Y-90123354D01*
X138350845Y-90216055D01*
G37*
G36*
X134241112Y-92702071D02*
G01*
X134241112Y-92759465D01*
X133986185Y-93017106D01*
X133731258Y-93274747D01*
X133052098Y-93274963D01*
X132372938Y-93275179D01*
X132117366Y-93020934D01*
X131861793Y-92766689D01*
X131861793Y-92702071D01*
X131954494Y-92702071D01*
X132177748Y-92926825D01*
X132401001Y-93151578D01*
X133036003Y-93151578D01*
X133671004Y-93151578D01*
X133894258Y-92926825D01*
X134117511Y-92702071D01*
X134117511Y-91683816D01*
X134117511Y-90665562D01*
X133894258Y-90440808D01*
X133671004Y-90216055D01*
X133039907Y-90216055D01*
X132408810Y-90216055D01*
X132181652Y-90445434D01*
X131954494Y-90674813D01*
X131954494Y-90955288D01*
X131954494Y-91235763D01*
X132294397Y-91235763D01*
X132634299Y-91235763D01*
X132634299Y-91055748D01*
X132634452Y-91029457D01*
X132641381Y-90927112D01*
X132663113Y-90860584D01*
X132705817Y-90808546D01*
X132714772Y-90800388D01*
X132759558Y-90769730D01*
X132817999Y-90751820D01*
X132906118Y-90743437D01*
X133039938Y-90741359D01*
X133136156Y-90741928D01*
X133232593Y-90746712D01*
X133295299Y-90759896D01*
X133340787Y-90785620D01*
X133385574Y-90828025D01*
X133468606Y-90914692D01*
X133468606Y-91696285D01*
X133468606Y-92477878D01*
X133372637Y-92567526D01*
X133351534Y-92586787D01*
X133300076Y-92625104D01*
X133243088Y-92646264D01*
X133161824Y-92655282D01*
X133037541Y-92657174D01*
X132917546Y-92654977D01*
X132829524Y-92645147D01*
X132768489Y-92623700D01*
X132716356Y-92586665D01*
X132708744Y-92580043D01*
X132668589Y-92537609D01*
X132646168Y-92487704D01*
X132636424Y-92412236D01*
X132634299Y-92293112D01*
X132634299Y-92070069D01*
X132742450Y-92070069D01*
X132850601Y-92070069D01*
X132850601Y-91838318D01*
X132850601Y-91606566D01*
X132402548Y-91606566D01*
X131954494Y-91606566D01*
X131954494Y-92154318D01*
X131954494Y-92702071D01*
X131861793Y-92702071D01*
X131861793Y-92140277D01*
X131861793Y-91513865D01*
X132402548Y-91513865D01*
X132943302Y-91513865D01*
X132943302Y-91853768D01*
X132943302Y-92193670D01*
X132835151Y-92193670D01*
X132792831Y-92194257D01*
X132746924Y-92205224D01*
X132729648Y-92243585D01*
X132727000Y-92326541D01*
X132727997Y-92358109D01*
X132740946Y-92444135D01*
X132764081Y-92496493D01*
X132770736Y-92501534D01*
X132832786Y-92519910D01*
X132932125Y-92530600D01*
X133049030Y-92533603D01*
X133163779Y-92528919D01*
X133256652Y-92516549D01*
X133307925Y-92496493D01*
X133316434Y-92471525D01*
X133326366Y-92391348D01*
X133334348Y-92267391D01*
X133340348Y-92110031D01*
X133344332Y-91929644D01*
X133346268Y-91736607D01*
X133346122Y-91541296D01*
X133343862Y-91354089D01*
X133339455Y-91185362D01*
X133332867Y-91045491D01*
X133324065Y-90944855D01*
X133313018Y-90893829D01*
X133290887Y-90865219D01*
X133248694Y-90845664D01*
X133174147Y-90836400D01*
X133052573Y-90834060D01*
X133042358Y-90834072D01*
X132900374Y-90839774D01*
X132808517Y-90862506D01*
X132756116Y-90911962D01*
X132732501Y-90997835D01*
X132727000Y-91129819D01*
X132727000Y-91328464D01*
X132294397Y-91328464D01*
X131861793Y-91328464D01*
X131861793Y-90969562D01*
X131861793Y-90610661D01*
X132098904Y-90367008D01*
X132336014Y-90123354D01*
X133032991Y-90123354D01*
X133729967Y-90123354D01*
X133985540Y-90377599D01*
X134241112Y-90631844D01*
X134241112Y-91695654D01*
X134241112Y-92702071D01*
G37*
G36*
X131614591Y-90216055D02*
G01*
X131614591Y-90478707D01*
X131614591Y-90834060D01*
X131506441Y-90834060D01*
X131398290Y-90834060D01*
X131398290Y-91681859D01*
X131398290Y-92529658D01*
X131498716Y-92539340D01*
X131599141Y-92549023D01*
X131608010Y-92871387D01*
X131609945Y-92969797D01*
X131609947Y-93094709D01*
X131606957Y-93187944D01*
X131601254Y-93234465D01*
X131588702Y-93246208D01*
X131547310Y-93257793D01*
X131471167Y-93266050D01*
X131353515Y-93271411D01*
X131187597Y-93274309D01*
X130966656Y-93275179D01*
X130347681Y-93275179D01*
X130347681Y-92904376D01*
X130347681Y-92533573D01*
X130440382Y-92533573D01*
X130533083Y-92533573D01*
X130533083Y-92270921D01*
X130533287Y-92199453D01*
X130530921Y-92095218D01*
X130515828Y-92035483D01*
X130477179Y-92008735D01*
X130404140Y-92003461D01*
X130285881Y-92008145D01*
X130248547Y-92010673D01*
X130161440Y-92024737D01*
X130108860Y-92045150D01*
X130095886Y-92071774D01*
X130083554Y-92143887D01*
X130074103Y-92264332D01*
X130067199Y-92437589D01*
X130062510Y-92668138D01*
X130054129Y-93259729D01*
X129520113Y-93268188D01*
X128986097Y-93276647D01*
X128989092Y-93151578D01*
X129080772Y-93151578D01*
X129513375Y-93151578D01*
X129945978Y-93151578D01*
X129945978Y-92600180D01*
X129946329Y-92402796D01*
X129948108Y-92256992D01*
X129952402Y-92153466D01*
X129960300Y-92082447D01*
X129972888Y-92034164D01*
X129991255Y-91998847D01*
X130016488Y-91966725D01*
X130045727Y-91935151D01*
X130085153Y-91907432D01*
X130139702Y-91892282D01*
X130224930Y-91885946D01*
X130356390Y-91884668D01*
X130625784Y-91884668D01*
X130625784Y-92270921D01*
X130625784Y-92657174D01*
X130533083Y-92657174D01*
X130440382Y-92657174D01*
X130440382Y-92904376D01*
X130440382Y-93151578D01*
X130965686Y-93151578D01*
X131490990Y-93151578D01*
X131490990Y-92906428D01*
X131490495Y-92797752D01*
X131486140Y-92718515D01*
X131473537Y-92676510D01*
X131448292Y-92658564D01*
X131406015Y-92651501D01*
X131321039Y-92641724D01*
X131312868Y-91691541D01*
X131304696Y-90741359D01*
X131397843Y-90741359D01*
X131490990Y-90741359D01*
X131490990Y-90478707D01*
X131490990Y-90216055D01*
X130601884Y-90216055D01*
X129712777Y-90216055D01*
X129474025Y-90456215D01*
X129235273Y-90696376D01*
X129235273Y-91037757D01*
X129235273Y-91379139D01*
X129380805Y-91509911D01*
X129526336Y-91640683D01*
X129380805Y-91765080D01*
X129235273Y-91889476D01*
X129235273Y-92273325D01*
X129235273Y-92657174D01*
X129158022Y-92657174D01*
X129125466Y-92658674D01*
X129100001Y-92671532D01*
X129086691Y-92708362D01*
X129081595Y-92781774D01*
X129080772Y-92904376D01*
X129080772Y-93151578D01*
X128989092Y-93151578D01*
X128994809Y-92912835D01*
X128997864Y-92795423D01*
X129002780Y-92678698D01*
X129010521Y-92605380D01*
X129023323Y-92564797D01*
X129043420Y-92546277D01*
X129073046Y-92539149D01*
X129093773Y-92535307D01*
X129116956Y-92522306D01*
X129131321Y-92491101D01*
X129138975Y-92430792D01*
X129142024Y-92330483D01*
X129142572Y-92179272D01*
X129142572Y-91829270D01*
X129249438Y-91735440D01*
X129356303Y-91641611D01*
X129249438Y-91547782D01*
X129142572Y-91453953D01*
X129142572Y-91044226D01*
X129142572Y-90634499D01*
X129396817Y-90378927D01*
X129651062Y-90123354D01*
X130632827Y-90123354D01*
X131614591Y-90123354D01*
X131614591Y-90216055D01*
G37*
G36*
X140915565Y-90216055D02*
G01*
X140915565Y-90478707D01*
X140915565Y-90834060D01*
X140822864Y-90834060D01*
X140730163Y-90834060D01*
X140730163Y-91681764D01*
X140730163Y-92529468D01*
X140815139Y-92539246D01*
X140900115Y-92549023D01*
X140908824Y-92912478D01*
X140917532Y-93275933D01*
X139765515Y-93267831D01*
X138613497Y-93259729D01*
X138613497Y-93151578D01*
X138721647Y-93151578D01*
X139772256Y-93151578D01*
X140822864Y-93151578D01*
X140822864Y-92906334D01*
X140822864Y-92661090D01*
X140722438Y-92651407D01*
X140622012Y-92641724D01*
X140613841Y-91691541D01*
X140605669Y-90741359D01*
X140714267Y-90741359D01*
X140822864Y-90741359D01*
X140822864Y-90478707D01*
X140822864Y-90216055D01*
X139772256Y-90216055D01*
X138721647Y-90216055D01*
X138721647Y-90555958D01*
X138721647Y-90895860D01*
X138968849Y-90895860D01*
X139073030Y-90895391D01*
X139154515Y-90891373D01*
X139197108Y-90879864D01*
X139213417Y-90856923D01*
X139216051Y-90818610D01*
X139216051Y-90741359D01*
X139587900Y-90741359D01*
X139959748Y-90741359D01*
X139950978Y-91073537D01*
X139942207Y-91405714D01*
X139793007Y-91415231D01*
X139767142Y-91416734D01*
X139686634Y-91416079D01*
X139645802Y-91399451D01*
X139627176Y-91361156D01*
X139623285Y-91348349D01*
X139604760Y-91321198D01*
X139564833Y-91305875D01*
X139490048Y-91299093D01*
X139366949Y-91297563D01*
X139123351Y-91297563D01*
X139123351Y-91683816D01*
X139123351Y-92070069D01*
X139370553Y-92070069D01*
X139459214Y-92069094D01*
X139553967Y-92062850D01*
X139603476Y-92049304D01*
X139617754Y-92026701D01*
X139624792Y-92012952D01*
X139674342Y-91989562D01*
X139753094Y-91973985D01*
X139839325Y-91968310D01*
X139911311Y-91974625D01*
X139947329Y-91995018D01*
X139950440Y-92015565D01*
X139953414Y-92089670D01*
X139953695Y-92201145D01*
X139951118Y-92334921D01*
X139942207Y-92641724D01*
X139586854Y-92641724D01*
X139474588Y-92641516D01*
X139358727Y-92639506D01*
X139286313Y-92633628D01*
X139246533Y-92621822D01*
X139228576Y-92602032D01*
X139221627Y-92572198D01*
X139217433Y-92550315D01*
X139201425Y-92524094D01*
X139163063Y-92509803D01*
X139089204Y-92503858D01*
X138966700Y-92502673D01*
X138721647Y-92502673D01*
X138721647Y-92827125D01*
X138721647Y-93151578D01*
X138613497Y-93151578D01*
X138613497Y-92827125D01*
X138613497Y-92394522D01*
X138907049Y-92385463D01*
X138943768Y-92384401D01*
X139108909Y-92382626D01*
X139222584Y-92388831D01*
X139293278Y-92404719D01*
X139329473Y-92431995D01*
X139339652Y-92472361D01*
X139340519Y-92487976D01*
X139352884Y-92512536D01*
X139389785Y-92526272D01*
X139463637Y-92532260D01*
X139586854Y-92533573D01*
X139834056Y-92533573D01*
X139834056Y-92301821D01*
X139832994Y-92212857D01*
X139826505Y-92126080D01*
X139812154Y-92082209D01*
X139787706Y-92070069D01*
X139760676Y-92081540D01*
X139741355Y-92131870D01*
X139740552Y-92146979D01*
X139730502Y-92168637D01*
X139700478Y-92182317D01*
X139640024Y-92189836D01*
X139538684Y-92193015D01*
X139386003Y-92193670D01*
X139030650Y-92193670D01*
X139030650Y-91699267D01*
X139030650Y-91204863D01*
X139386003Y-91204863D01*
X139512493Y-91205588D01*
X139627052Y-91209301D01*
X139696968Y-91217307D01*
X139731862Y-91230859D01*
X139741355Y-91251213D01*
X139746739Y-91272829D01*
X139787706Y-91297563D01*
X139805499Y-91292253D01*
X139822854Y-91259810D01*
X139831628Y-91188054D01*
X139834056Y-91065812D01*
X139834056Y-90834060D01*
X139589003Y-90834060D01*
X139511829Y-90834368D01*
X139418913Y-90837853D01*
X139367080Y-90848161D01*
X139343183Y-90868877D01*
X139334076Y-90903585D01*
X139329660Y-90925885D01*
X139315437Y-90948473D01*
X139282156Y-90963119D01*
X139219132Y-90972065D01*
X139115683Y-90977550D01*
X138961124Y-90981817D01*
X138598046Y-90990522D01*
X138598046Y-90556938D01*
X138598046Y-90123354D01*
X139756806Y-90123354D01*
X140915565Y-90123354D01*
X140915565Y-90216055D01*
G37*
G36*
X144221891Y-90216055D02*
G01*
X144221891Y-90478707D01*
X144221891Y-90834060D01*
X144117938Y-90834060D01*
X144081458Y-90835134D01*
X144031072Y-90849316D01*
X143995702Y-90892181D01*
X143958671Y-90978898D01*
X143944556Y-91016446D01*
X143900351Y-91139552D01*
X143863442Y-91249275D01*
X143862948Y-91250827D01*
X143839825Y-91321183D01*
X143800680Y-91438019D01*
X143749413Y-91589787D01*
X143689923Y-91764938D01*
X143626113Y-91951925D01*
X143560511Y-92145003D01*
X143511476Y-92293923D01*
X143479473Y-92399663D01*
X143462682Y-92469874D01*
X143459284Y-92512209D01*
X143467460Y-92534321D01*
X143485391Y-92543862D01*
X143492217Y-92545911D01*
X143514523Y-92561001D01*
X143529031Y-92594904D01*
X143537372Y-92658365D01*
X143541179Y-92762127D01*
X143542085Y-92916933D01*
X143542085Y-93275179D01*
X142723229Y-93275179D01*
X141904372Y-93275179D01*
X141904372Y-92904376D01*
X141904376Y-92892924D01*
X141905557Y-92737612D01*
X141909747Y-92633751D01*
X141918227Y-92571610D01*
X141932277Y-92541461D01*
X141953178Y-92533573D01*
X141958254Y-92533394D01*
X141975424Y-92527220D01*
X141984567Y-92508024D01*
X141984275Y-92470096D01*
X141973141Y-92407725D01*
X141949755Y-92315198D01*
X141912710Y-92186805D01*
X141860596Y-92016835D01*
X141792005Y-91799575D01*
X141705530Y-91529315D01*
X141661890Y-91392468D01*
X141609447Y-91226547D01*
X141561652Y-91074033D01*
X141487219Y-90835052D01*
X141340443Y-90834556D01*
X141193667Y-90834060D01*
X141193667Y-90741359D01*
X141286368Y-90741359D01*
X141417694Y-90742018D01*
X141549020Y-90742677D01*
X141695870Y-91197796D01*
X141704110Y-91223327D01*
X141772773Y-91435515D01*
X141850538Y-91675103D01*
X141928461Y-91914563D01*
X141997598Y-92126367D01*
X142031492Y-92232046D01*
X142077075Y-92382041D01*
X142111398Y-92505140D01*
X142131583Y-92590804D01*
X142134751Y-92628496D01*
X142115472Y-92644057D01*
X142057050Y-92657174D01*
X142042883Y-92657946D01*
X142018338Y-92670200D01*
X142004522Y-92707107D01*
X141998435Y-92781041D01*
X141997073Y-92904376D01*
X141997073Y-93151578D01*
X142723229Y-93151578D01*
X143449385Y-93151578D01*
X143449385Y-92904376D01*
X143449157Y-92839199D01*
X143446055Y-92740916D01*
X143436830Y-92686105D01*
X143418376Y-92662335D01*
X143387584Y-92657174D01*
X143351298Y-92648811D01*
X143325784Y-92605310D01*
X143325955Y-92602604D01*
X143337948Y-92551413D01*
X143366267Y-92454284D01*
X143407280Y-92322181D01*
X143457357Y-92166069D01*
X143512870Y-91996913D01*
X143570188Y-91825677D01*
X143625681Y-91663328D01*
X143675719Y-91520829D01*
X143716672Y-91409146D01*
X143744911Y-91339244D01*
X143748230Y-91331872D01*
X143777336Y-91257828D01*
X143789287Y-91209686D01*
X143789506Y-91206727D01*
X143802336Y-91157001D01*
X143831032Y-91068917D01*
X143870118Y-90959428D01*
X143886565Y-90915491D01*
X143925457Y-90820914D01*
X143957634Y-90768541D01*
X143992652Y-90746111D01*
X144040069Y-90741359D01*
X144129190Y-90741359D01*
X144129190Y-90478707D01*
X144129190Y-90216055D01*
X143603886Y-90216055D01*
X143078582Y-90216055D01*
X143078582Y-90478707D01*
X143078597Y-90494652D01*
X143080828Y-90619322D01*
X143088270Y-90694559D01*
X143102979Y-90731518D01*
X143127014Y-90741359D01*
X143128969Y-90741338D01*
X143145412Y-90740501D01*
X143156804Y-90743333D01*
X143161384Y-90756721D01*
X143157387Y-90787551D01*
X143143052Y-90842709D01*
X143116616Y-90929080D01*
X143076316Y-91053552D01*
X143020390Y-91223010D01*
X142947075Y-91444340D01*
X142941781Y-91460308D01*
X142883118Y-91633592D01*
X142830047Y-91784024D01*
X142785906Y-91902609D01*
X142754034Y-91980355D01*
X142737768Y-92008269D01*
X142736410Y-92008088D01*
X142711390Y-91974345D01*
X142673525Y-91885443D01*
X142624544Y-91745896D01*
X142566175Y-91560215D01*
X142549275Y-91505939D01*
X142516674Y-91409257D01*
X142491380Y-91343914D01*
X142480075Y-91316843D01*
X142449537Y-91233998D01*
X142412374Y-91125577D01*
X142374015Y-91008355D01*
X142339891Y-90899104D01*
X142315435Y-90814597D01*
X142306076Y-90771609D01*
X142311300Y-90757699D01*
X142352426Y-90741359D01*
X142375267Y-90730577D01*
X142389594Y-90690387D01*
X142396798Y-90610019D01*
X142398776Y-90478707D01*
X142398776Y-90216055D01*
X141842572Y-90216055D01*
X141286368Y-90216055D01*
X141286368Y-90478707D01*
X141286368Y-90741359D01*
X141193667Y-90741359D01*
X141193667Y-90478707D01*
X141193667Y-90123354D01*
X141842572Y-90123354D01*
X142491477Y-90123354D01*
X142491477Y-90476132D01*
X142490831Y-90567785D01*
X142485175Y-90716302D01*
X142473511Y-90806582D01*
X142455620Y-90840862D01*
X142455295Y-90840981D01*
X142448953Y-90874860D01*
X142465340Y-90963144D01*
X142504676Y-91106764D01*
X142567187Y-91306653D01*
X142597386Y-91397769D01*
X142647088Y-91539493D01*
X142689776Y-91651096D01*
X142721679Y-91722943D01*
X142739023Y-91745404D01*
X142745740Y-91738144D01*
X142772849Y-91684268D01*
X142809756Y-91590249D01*
X142852632Y-91468380D01*
X142897650Y-91330949D01*
X142940981Y-91190250D01*
X142978796Y-91058571D01*
X143007267Y-90948204D01*
X143022566Y-90871441D01*
X143020864Y-90840571D01*
X143014248Y-90834871D01*
X142998489Y-90776752D01*
X142989033Y-90657169D01*
X142985881Y-90476132D01*
X142985881Y-90123354D01*
X143603886Y-90123354D01*
X144221891Y-90123354D01*
X144221891Y-90216055D01*
G37*
%TD*%
M02*
