%TF.GenerationSoftware,KiCad,Pcbnew,7.0.1*%
%TF.CreationDate,2023-08-30T02:05:44-03:00*%
%TF.ProjectId,RobotLaberinto_PCB,526f626f-744c-4616-9265-72696e746f5f,rev?*%
%TF.SameCoordinates,Original*%
%TF.FileFunction,Copper,L1,Top*%
%TF.FilePolarity,Positive*%
%FSLAX46Y46*%
G04 Gerber Fmt 4.6, Leading zero omitted, Abs format (unit mm)*
G04 Created by KiCad (PCBNEW 7.0.1) date 2023-08-30 02:05:44*
%MOMM*%
%LPD*%
G01*
G04 APERTURE LIST*
G04 Aperture macros list*
%AMRoundRect*
0 Rectangle with rounded corners*
0 $1 Rounding radius*
0 $2 $3 $4 $5 $6 $7 $8 $9 X,Y pos of 4 corners*
0 Add a 4 corners polygon primitive as box body*
4,1,4,$2,$3,$4,$5,$6,$7,$8,$9,$2,$3,0*
0 Add four circle primitives for the rounded corners*
1,1,$1+$1,$2,$3*
1,1,$1+$1,$4,$5*
1,1,$1+$1,$6,$7*
1,1,$1+$1,$8,$9*
0 Add four rect primitives between the rounded corners*
20,1,$1+$1,$2,$3,$4,$5,0*
20,1,$1+$1,$4,$5,$6,$7,0*
20,1,$1+$1,$6,$7,$8,$9,0*
20,1,$1+$1,$8,$9,$2,$3,0*%
G04 Aperture macros list end*
%TA.AperFunction,SMDPad,CuDef*%
%ADD10R,1.498600X1.300480*%
%TD*%
%TA.AperFunction,ComponentPad*%
%ADD11C,2.999740*%
%TD*%
%TA.AperFunction,SMDPad,CuDef*%
%ADD12R,2.000000X1.500000*%
%TD*%
%TA.AperFunction,SMDPad,CuDef*%
%ADD13R,2.000000X3.800000*%
%TD*%
%TA.AperFunction,SMDPad,CuDef*%
%ADD14R,0.900000X0.650000*%
%TD*%
%TA.AperFunction,SMDPad,CuDef*%
%ADD15R,1.000000X1.100000*%
%TD*%
%TA.AperFunction,SMDPad,CuDef*%
%ADD16R,1.300480X1.498600*%
%TD*%
%TA.AperFunction,SMDPad,CuDef*%
%ADD17R,1.198880X1.198880*%
%TD*%
%TA.AperFunction,SMDPad,CuDef*%
%ADD18R,1.100000X1.000000*%
%TD*%
%TA.AperFunction,ComponentPad*%
%ADD19C,0.700000*%
%TD*%
%TA.AperFunction,ComponentPad*%
%ADD20R,3.500000X5.960000*%
%TD*%
%TA.AperFunction,ComponentPad*%
%ADD21R,1.750000X2.000000*%
%TD*%
%TA.AperFunction,ComponentPad*%
%ADD22O,1.750000X2.000000*%
%TD*%
%TA.AperFunction,SMDPad,CuDef*%
%ADD23R,1.500000X1.500000*%
%TD*%
%TA.AperFunction,SMDPad,CuDef*%
%ADD24R,0.711200X2.000000*%
%TD*%
%TA.AperFunction,SMDPad,CuDef*%
%ADD25R,1.000760X1.000760*%
%TD*%
%TA.AperFunction,SMDPad,CuDef*%
%ADD26R,0.650000X0.900000*%
%TD*%
%TA.AperFunction,SMDPad,CuDef*%
%ADD27R,0.350000X0.400000*%
%TD*%
%TA.AperFunction,SMDPad,CuDef*%
%ADD28R,0.400000X0.350000*%
%TD*%
%TA.AperFunction,ComponentPad*%
%ADD29R,1.524000X1.524000*%
%TD*%
%TA.AperFunction,ComponentPad*%
%ADD30C,1.524000*%
%TD*%
%TA.AperFunction,SMDPad,CuDef*%
%ADD31RoundRect,0.060000X-0.615000X0.240000X-0.615000X-0.240000X0.615000X-0.240000X0.615000X0.240000X0*%
%TD*%
%TA.AperFunction,SMDPad,CuDef*%
%ADD32R,1.500000X0.900000*%
%TD*%
%TA.AperFunction,SMDPad,CuDef*%
%ADD33R,0.900000X1.500000*%
%TD*%
%TA.AperFunction,SMDPad,CuDef*%
%ADD34R,0.900000X0.900000*%
%TD*%
%TA.AperFunction,ComponentPad*%
%ADD35R,1.750000X2.200000*%
%TD*%
%TA.AperFunction,ComponentPad*%
%ADD36O,1.750000X2.200000*%
%TD*%
%TA.AperFunction,ViaPad*%
%ADD37C,1.000000*%
%TD*%
%TA.AperFunction,ViaPad*%
%ADD38C,0.800000*%
%TD*%
%TA.AperFunction,Conductor*%
%ADD39C,0.500000*%
%TD*%
%TA.AperFunction,Conductor*%
%ADD40C,0.200000*%
%TD*%
%TA.AperFunction,Conductor*%
%ADD41C,0.300000*%
%TD*%
%TA.AperFunction,Conductor*%
%ADD42C,0.700000*%
%TD*%
%TA.AperFunction,Conductor*%
%ADD43C,0.400000*%
%TD*%
%TA.AperFunction,Conductor*%
%ADD44C,0.900000*%
%TD*%
G04 APERTURE END LIST*
D10*
%TO.P,C6,1*%
%TO.N,+5V*%
X116400000Y-124747500D03*
%TO.P,C6,2*%
%TO.N,GND*%
X116400000Y-126652500D03*
%TD*%
D11*
%TO.P,H1,1*%
%TO.N,N/C*%
X157000000Y-83000000D03*
%TD*%
D10*
%TO.P,C2,1*%
%TO.N,VCC*%
X139185000Y-118699100D03*
%TO.P,C2,2*%
%TO.N,GND*%
X139185000Y-116794100D03*
%TD*%
D12*
%TO.P,U3,1,GND*%
%TO.N,GND*%
X126650000Y-128000000D03*
%TO.P,U3,2,VO*%
%TO.N,+5V*%
X126650000Y-125700000D03*
D13*
X120350000Y-125700000D03*
D12*
%TO.P,U3,3,VI*%
%TO.N,VCC*%
X126650000Y-123400000D03*
%TD*%
D14*
%TO.P,R9,1*%
%TO.N,/EN*%
X121780000Y-88045000D03*
%TO.P,R9,2*%
%TO.N,+3V3*%
X121780000Y-86595000D03*
%TD*%
D15*
%TO.P,C16,1*%
%TO.N,GND*%
X130500000Y-108180000D03*
%TO.P,C16,2*%
%TO.N,Net-(U2-REGOUT)*%
X130500000Y-106480000D03*
%TD*%
%TO.P,C14,1*%
%TO.N,GND*%
X119500000Y-88200000D03*
%TO.P,C14,2*%
%TO.N,+3V3*%
X119500000Y-86500000D03*
%TD*%
D16*
%TO.P,C4,1*%
%TO.N,VCC*%
X122547500Y-120500000D03*
%TO.P,C4,2*%
%TO.N,GND*%
X124452500Y-120500000D03*
%TD*%
D17*
%TO.P,LED1,1,A*%
%TO.N,Net-(LED1-A)*%
X120000000Y-81890000D03*
%TO.P,LED1,2,K*%
%TO.N,GND*%
X122098040Y-81890000D03*
%TD*%
D18*
%TO.P,C10,1*%
%TO.N,GND*%
X153150000Y-103000000D03*
%TO.P,C10,2*%
%TO.N,/IO0*%
X151450000Y-103000000D03*
%TD*%
D19*
%TO.P,J7,1*%
%TO.N,VCC*%
X130200000Y-122580000D03*
X130200000Y-123200000D03*
X130200000Y-123800000D03*
X130200000Y-124420000D03*
X130800000Y-122580000D03*
X130800000Y-123200000D03*
X130800000Y-123800000D03*
X130800000Y-124420000D03*
D20*
X131060000Y-125180000D03*
D19*
X131400000Y-122560000D03*
X131400000Y-123180000D03*
X131400000Y-123780000D03*
X131400000Y-124400000D03*
X132000000Y-122580000D03*
X132000000Y-123200000D03*
X132000000Y-123800000D03*
X132000000Y-124420000D03*
%TO.P,J7,2*%
%TO.N,GND*%
X135300000Y-122580000D03*
X135300000Y-123200000D03*
X135300000Y-123800000D03*
X135300000Y-124420000D03*
X135900000Y-122580000D03*
X135900000Y-123200000D03*
X135900000Y-123800000D03*
X135900000Y-124420000D03*
D20*
X136140000Y-125180000D03*
D19*
X136500000Y-122580000D03*
X136500000Y-123200000D03*
X136500000Y-123800000D03*
X136500000Y-124420000D03*
X137100000Y-122580000D03*
X137100000Y-123200000D03*
X137100000Y-123800000D03*
X137100000Y-124420000D03*
%TD*%
D18*
%TO.P,C8,1*%
%TO.N,+3V3*%
X135770000Y-113760000D03*
%TO.P,C8,2*%
%TO.N,GND*%
X134070000Y-113760000D03*
%TD*%
D21*
%TO.P,J3,1,Pin_1*%
%TO.N,+5V*%
X113780000Y-109500000D03*
D22*
%TO.P,J3,2,Pin_2*%
%TO.N,GND*%
X116320000Y-109500000D03*
%TO.P,J3,3,Pin_3*%
%TO.N,/OUT3_SENSOR*%
X118860000Y-109500000D03*
%TO.P,J3,4,Pin_4*%
%TO.N,/IN3_SENSOR*%
X121400000Y-109500000D03*
%TD*%
D23*
%TO.P,Switch1,1,1*%
%TO.N,GND*%
X155899180Y-92950000D03*
%TO.P,Switch1,2,2*%
%TO.N,/BOTON_SWITCH_1*%
X148700820Y-92950000D03*
%TD*%
D14*
%TO.P,R7,1*%
%TO.N,+3V3*%
X143100000Y-103527500D03*
%TO.P,R7,2*%
%TO.N,/SCL*%
X143100000Y-104977500D03*
%TD*%
D24*
%TO.P,U6,1,GND*%
%TO.N,GND*%
X145200000Y-112626600D03*
D19*
X145095000Y-116626600D03*
X145095000Y-115926600D03*
X145095000Y-115226600D03*
X145095000Y-114526600D03*
X144395000Y-116626600D03*
X144395000Y-115926600D03*
X144395000Y-115226600D03*
X144395000Y-114526600D03*
X143695000Y-116626600D03*
X143695000Y-115926600D03*
X143695000Y-115226600D03*
X143695000Y-114526600D03*
X142995000Y-116626600D03*
X142995000Y-115926600D03*
X142995000Y-115226600D03*
X142995000Y-114526600D03*
X142295000Y-116626600D03*
X142295000Y-115926600D03*
X142295000Y-115226600D03*
X142295000Y-114526600D03*
X141595000Y-116626600D03*
X141595000Y-115926600D03*
X141595000Y-115226600D03*
X141595000Y-114526600D03*
D24*
%TO.P,U6,2,IN2*%
%TO.N,/M2_IN2*%
X143930000Y-112626600D03*
%TO.P,U6,3,IN1*%
%TO.N,/M2_IN1*%
X142660000Y-112626600D03*
%TO.P,U6,4,VREF*%
%TO.N,+5V*%
X141390000Y-112626600D03*
%TO.P,U6,5,VM*%
%TO.N,VCC*%
X141390000Y-118626600D03*
%TO.P,U6,6,OUT1*%
%TO.N,/OUT_B_M2*%
X142660000Y-118626600D03*
%TO.P,U6,7,RS*%
%TO.N,GND*%
X143930000Y-118626600D03*
%TO.P,U6,8,OUT2*%
%TO.N,/OUT_A_M2*%
X145200000Y-118626600D03*
%TD*%
D21*
%TO.P,J6,1,P1*%
%TO.N,+5V*%
X113760000Y-120000000D03*
D22*
%TO.P,J6,2,P2*%
%TO.N,GND*%
X116300000Y-120000000D03*
%TO.P,J6,3,P3*%
%TO.N,/IN{slash}OUT3*%
X118840000Y-120000000D03*
%TD*%
D14*
%TO.P,R8,1*%
%TO.N,/IO0*%
X145400000Y-104977500D03*
%TO.P,R8,2*%
%TO.N,+3V3*%
X145400000Y-103527500D03*
%TD*%
D15*
%TO.P,C12,1*%
%TO.N,+5V*%
X112300000Y-84640000D03*
%TO.P,C12,2*%
%TO.N,GND*%
X112300000Y-82940000D03*
%TD*%
D23*
%TO.P,Star1,1,1*%
%TO.N,GND*%
X155899180Y-86200000D03*
%TO.P,Star1,2,2*%
%TO.N,/BOTON_START*%
X148700820Y-86200000D03*
%TD*%
D18*
%TO.P,C11,1*%
%TO.N,GND*%
X115150000Y-96800000D03*
%TO.P,C11,2*%
%TO.N,/EN*%
X116850000Y-96800000D03*
%TD*%
D19*
%TO.P,J8,1*%
%TO.N,/OUT_B_M2*%
X140700000Y-122580000D03*
X140700000Y-123200000D03*
X140700000Y-123800000D03*
X140700000Y-124420000D03*
X141300000Y-122580000D03*
X141300000Y-123200000D03*
X141300000Y-123800000D03*
X141300000Y-124420000D03*
D20*
X141560000Y-125180000D03*
D19*
X141900000Y-122560000D03*
X141900000Y-123180000D03*
X141900000Y-123780000D03*
X141900000Y-124400000D03*
X142500000Y-122580000D03*
X142500000Y-123200000D03*
X142500000Y-123800000D03*
X142500000Y-124420000D03*
%TO.P,J8,2*%
%TO.N,/OUT_A_M2*%
X145800000Y-122580000D03*
X145800000Y-123200000D03*
X145800000Y-123800000D03*
X145800000Y-124420000D03*
X146400000Y-122580000D03*
X146400000Y-123200000D03*
X146400000Y-123800000D03*
X146400000Y-124420000D03*
D20*
X146640000Y-125180000D03*
D19*
X147000000Y-122580000D03*
X147000000Y-123200000D03*
X147000000Y-123800000D03*
X147000000Y-124420000D03*
X147600000Y-122580000D03*
X147600000Y-123200000D03*
X147600000Y-123800000D03*
X147600000Y-124420000D03*
%TD*%
D17*
%TO.P,LED2,1,A*%
%TO.N,Net-(LED2-A)*%
X135949020Y-101500000D03*
%TO.P,LED2,2,K*%
%TO.N,GND*%
X133850980Y-101500000D03*
%TD*%
D21*
%TO.P,J4,1,P1*%
%TO.N,+5V*%
X113760000Y-113000000D03*
D22*
%TO.P,J4,2,P2*%
%TO.N,GND*%
X116300000Y-113000000D03*
%TO.P,J4,3,P3*%
%TO.N,/IN{slash}OUT1*%
X118840000Y-113000000D03*
%TD*%
D19*
%TO.P,J9,1*%
%TO.N,/OUT_B_M1*%
X151200000Y-122580000D03*
X151200000Y-123200000D03*
X151200000Y-123800000D03*
X151200000Y-124420000D03*
X151800000Y-122580000D03*
X151800000Y-123200000D03*
X151800000Y-123800000D03*
X151800000Y-124420000D03*
D20*
X152060000Y-125180000D03*
D19*
X152400000Y-122560000D03*
X152400000Y-123180000D03*
X152400000Y-123780000D03*
X152400000Y-124400000D03*
X153000000Y-122580000D03*
X153000000Y-123200000D03*
X153000000Y-123800000D03*
X153000000Y-124420000D03*
%TO.P,J9,2*%
%TO.N,/OUT_A_M1*%
X156300000Y-122580000D03*
X156300000Y-123200000D03*
X156300000Y-123800000D03*
X156300000Y-124420000D03*
X156900000Y-122580000D03*
X156900000Y-123200000D03*
X156900000Y-123800000D03*
X156900000Y-124420000D03*
D20*
X157140000Y-125180000D03*
D19*
X157500000Y-122580000D03*
X157500000Y-123200000D03*
X157500000Y-123800000D03*
X157500000Y-124420000D03*
X158100000Y-122580000D03*
X158100000Y-123200000D03*
X158100000Y-123800000D03*
X158100000Y-124420000D03*
%TD*%
D25*
%TO.P,EN1,1,1*%
%TO.N,GND*%
X112400820Y-92950000D03*
%TO.P,EN1,2,2*%
%TO.N,/EN*%
X119599180Y-92950000D03*
%TD*%
D18*
%TO.P,C9,1*%
%TO.N,+3V3*%
X135770000Y-111600000D03*
%TO.P,C9,2*%
%TO.N,GND*%
X134070000Y-111600000D03*
%TD*%
D26*
%TO.P,R2,1*%
%TO.N,Net-(LED2-A)*%
X139265000Y-101500000D03*
%TO.P,R2,2*%
%TO.N,/IO2*%
X140715000Y-101500000D03*
%TD*%
D27*
%TO.P,U2,1,CLKIN*%
%TO.N,GND*%
X136150000Y-105595000D03*
%TO.P,U2,2,RESV*%
%TO.N,unconnected-(U2-RESV-Pad2)*%
X135650000Y-105595000D03*
%TO.P,U2,3,VDD*%
%TO.N,+3V3*%
X135150000Y-105595000D03*
%TO.P,U2,4,RESV*%
%TO.N,unconnected-(U2-RESV-Pad4)*%
X134650000Y-105595000D03*
%TO.P,U2,5,RESV*%
%TO.N,unconnected-(U2-RESV-Pad5)*%
X134150000Y-105595000D03*
%TO.P,U2,6,ES_DA*%
%TO.N,unconnected-(U2-ES_DA-Pad6)*%
X133650000Y-105595000D03*
D28*
%TO.P,U2,7,ES_CL*%
%TO.N,unconnected-(U2-ES_CL-Pad7)*%
X133165000Y-106080000D03*
%TO.P,U2,8,VLOGIC*%
%TO.N,+3V3*%
X133165000Y-106580000D03*
%TO.P,U2,9,AD0*%
%TO.N,GND*%
X133165000Y-107080000D03*
%TO.P,U2,10,REGOUT*%
%TO.N,Net-(U2-REGOUT)*%
X133165000Y-107580000D03*
%TO.P,U2,11,FSYNC*%
%TO.N,GND*%
X133165000Y-108080000D03*
%TO.P,U2,12,INT*%
%TO.N,/INT*%
X133165000Y-108580000D03*
D27*
%TO.P,U2,13,VDD*%
%TO.N,+3V3*%
X133650000Y-109065000D03*
%TO.P,U2,14,RESV*%
%TO.N,unconnected-(U2-RESV-Pad14)*%
X134150000Y-109065000D03*
%TO.P,U2,15,GND*%
%TO.N,GND*%
X134650000Y-109065000D03*
%TO.P,U2,16,RESV*%
%TO.N,unconnected-(U2-RESV-Pad16)*%
X135150000Y-109065000D03*
%TO.P,U2,17,GND*%
%TO.N,GND*%
X135650000Y-109065000D03*
%TO.P,U2,18,GND*%
X136150000Y-109065000D03*
D28*
%TO.P,U2,19,RESV*%
%TO.N,unconnected-(U2-RESV-Pad19)*%
X136635000Y-108580000D03*
%TO.P,U2,20,CPOUT*%
%TO.N,Net-(U2-CPOUT)*%
X136635000Y-108080000D03*
%TO.P,U2,21,RESV*%
%TO.N,unconnected-(U2-RESV-Pad21)*%
X136635000Y-107580000D03*
%TO.P,U2,22,RESV*%
%TO.N,unconnected-(U2-RESV-Pad22)*%
X136635000Y-107080000D03*
%TO.P,U2,23,SCL*%
%TO.N,/SCL*%
X136635000Y-106580000D03*
%TO.P,U2,24,SDA*%
%TO.N,/SDA*%
X136635000Y-106080000D03*
%TD*%
D23*
%TO.P,BOOT1,1,1*%
%TO.N,GND*%
X155899180Y-99700000D03*
%TO.P,BOOT1,2,2*%
%TO.N,/IO0*%
X148700820Y-99700000D03*
%TD*%
D21*
%TO.P,J2,1,Pin_1*%
%TO.N,+5V*%
X113780000Y-106100000D03*
D22*
%TO.P,J2,2,Pin_2*%
%TO.N,GND*%
X116320000Y-106100000D03*
%TO.P,J2,3,Pin_3*%
%TO.N,/OUT2_SENSOR*%
X118860000Y-106100000D03*
%TO.P,J2,4,Pin_4*%
%TO.N,/IN2_SENSOR*%
X121400000Y-106100000D03*
%TD*%
D15*
%TO.P,C15,1*%
%TO.N,GND*%
X139200000Y-109780000D03*
%TO.P,C15,2*%
%TO.N,Net-(U2-CPOUT)*%
X139200000Y-108080000D03*
%TD*%
D14*
%TO.P,R6,1*%
%TO.N,+3V3*%
X140800000Y-103527500D03*
%TO.P,R6,2*%
%TO.N,/SDA*%
X140800000Y-104977500D03*
%TD*%
D11*
%TO.P,H2,1*%
%TO.N,N/C*%
X113000000Y-127000000D03*
%TD*%
D29*
%TO.P,C1,1*%
%TO.N,VCC*%
X150345000Y-112600000D03*
D30*
%TO.P,C1,2*%
%TO.N,GND*%
X148345000Y-112600000D03*
%TD*%
D26*
%TO.P,R1,1*%
%TO.N,+3V3*%
X121774020Y-83790000D03*
%TO.P,R1,2*%
%TO.N,Net-(LED1-A)*%
X120324020Y-83790000D03*
%TD*%
D21*
%TO.P,J5,1,P1*%
%TO.N,+5V*%
X113760000Y-116500000D03*
D22*
%TO.P,J5,2,P2*%
%TO.N,GND*%
X116300000Y-116500000D03*
%TO.P,J5,3,P3*%
%TO.N,/IN{slash}OUT2*%
X118840000Y-116500000D03*
%TD*%
D31*
%TO.P,U4,1,VIN*%
%TO.N,+5V*%
X115015000Y-82840000D03*
%TO.P,U4,2,GND*%
%TO.N,GND*%
X115015000Y-83790000D03*
%TO.P,U4,3,EN*%
%TO.N,+5V*%
X115015000Y-84740000D03*
%TO.P,U4,5,VOUT*%
%TO.N,+3V3*%
X117385000Y-82840000D03*
%TD*%
D14*
%TO.P,R4,1*%
%TO.N,/BOTON_SWITCH_1*%
X153490000Y-83155000D03*
%TO.P,R4,2*%
%TO.N,+5V*%
X153490000Y-81705000D03*
%TD*%
D32*
%TO.P,U1,3V3,3V3*%
%TO.N,+3V3*%
X126250000Y-82691750D03*
%TO.P,U1,5,SENSOR_VP*%
%TO.N,unconnected-(U1-SENSOR_VP-Pad5)*%
X126250000Y-85231750D03*
%TO.P,U1,8,SENSOR_VN*%
%TO.N,/IN1_SENSOR*%
X126250000Y-86501750D03*
%TO.P,U1,9,EN*%
%TO.N,/EN*%
X126250000Y-83961750D03*
%TO.P,U1,10,IO34*%
%TO.N,/IN2_SENSOR*%
X126250000Y-87771750D03*
%TO.P,U1,11,IO35*%
%TO.N,/IN3_SENSOR*%
X126250000Y-89041750D03*
%TO.P,U1,12,IO32*%
%TO.N,/OUT1_SENSOR*%
X126250000Y-90311750D03*
%TO.P,U1,13,IO33*%
%TO.N,/OUT2_SENSOR*%
X126250000Y-91581750D03*
%TO.P,U1,14,IO25*%
%TO.N,/OUT3_SENSOR*%
X126250000Y-92851750D03*
%TO.P,U1,15,IO26*%
%TO.N,/IN{slash}OUT1*%
X126250000Y-94121750D03*
%TO.P,U1,16,IO27*%
%TO.N,/IN{slash}OUT2*%
X126250000Y-95391750D03*
%TO.P,U1,17,IO14*%
%TO.N,/INT*%
X126250000Y-96661750D03*
%TO.P,U1,18,IO12*%
%TO.N,unconnected-(U1-IO12-Pad18)*%
X126250000Y-97931750D03*
D33*
%TO.P,U1,20,IO13*%
%TO.N,/IN{slash}OUT3*%
X130555000Y-99181750D03*
%TO.P,U1,21,IO15*%
%TO.N,unconnected-(U1-IO15-Pad21)*%
X139445000Y-99181750D03*
%TO.P,U1,22,IO2*%
%TO.N,/IO2*%
X140715000Y-99181750D03*
D32*
%TO.P,U1,23,IO0*%
%TO.N,/IO0*%
X143750000Y-97931750D03*
%TO.P,U1,24,IO4*%
%TO.N,/BOTON_SWITCH_1*%
X143750000Y-96661750D03*
%TO.P,U1,25,IO16*%
%TO.N,/M2_IN2*%
X143750000Y-95391750D03*
%TO.P,U1,27,IO17*%
%TO.N,/M2_IN1*%
X143750000Y-94121750D03*
D33*
%TO.P,U1,28,SD2*%
%TO.N,unconnected-(U1-SD2-Pad28)*%
X131825000Y-99181750D03*
%TO.P,U1,29,SD3*%
%TO.N,unconnected-(U1-SD3-Pad29)*%
X133095000Y-99181750D03*
%TO.P,U1,30,CMD*%
%TO.N,unconnected-(U1-CMD-Pad30)*%
X134365000Y-99181750D03*
%TO.P,U1,31,CLK*%
%TO.N,unconnected-(U1-CLK-Pad31)*%
X135635000Y-99181750D03*
%TO.P,U1,32,SD0*%
%TO.N,unconnected-(U1-SD0-Pad32)*%
X136905000Y-99181750D03*
%TO.P,U1,33,SD1*%
%TO.N,unconnected-(U1-SD1-Pad33)*%
X138175000Y-99181750D03*
D32*
%TO.P,U1,34,IO5*%
%TO.N,unconnected-(U1-IO5-Pad34)*%
X143750000Y-92851750D03*
%TO.P,U1,35,IO18*%
%TO.N,/M1_IN2*%
X143750000Y-91581750D03*
%TO.P,U1,36,IO23*%
%TO.N,/BOTON_START*%
X143750000Y-82691750D03*
%TO.P,U1,38,IO19*%
%TO.N,/M1_IN1*%
X143750000Y-90311750D03*
%TO.P,U1,39,IO22*%
%TO.N,/SCL*%
X143750000Y-83961750D03*
%TO.P,U1,40,RXD0*%
%TO.N,/RXD0*%
X143750000Y-86501750D03*
%TO.P,U1,41,TXD0*%
%TO.N,/TXD0*%
X143750000Y-85231750D03*
%TO.P,U1,42,IO21*%
%TO.N,/SDA*%
X143750000Y-87771750D03*
%TO.P,U1,GND,GND*%
%TO.N,GND*%
X126250000Y-81421750D03*
D33*
X129285000Y-99181750D03*
D34*
X132100000Y-87741750D03*
X132100000Y-89141750D03*
X132100000Y-90541750D03*
X133500000Y-87741750D03*
X133500000Y-89141750D03*
X133500000Y-90541750D03*
X134900000Y-87741750D03*
X134900000Y-89141750D03*
X134900000Y-90541750D03*
D32*
X143750000Y-81421750D03*
%TO.P,U1,NC,NC*%
%TO.N,unconnected-(U1-PadNC)*%
X143750000Y-89041750D03*
%TD*%
D14*
%TO.P,R3,1*%
%TO.N,/BOTON_START*%
X151130000Y-83155000D03*
%TO.P,R3,2*%
%TO.N,+5V*%
X151130000Y-81705000D03*
%TD*%
D24*
%TO.P,U5,1,GND*%
%TO.N,GND*%
X157300000Y-112626600D03*
D19*
X157195000Y-116626600D03*
X157195000Y-115926600D03*
X157195000Y-115226600D03*
X157195000Y-114526600D03*
X156495000Y-116626600D03*
X156495000Y-115926600D03*
X156495000Y-115226600D03*
X156495000Y-114526600D03*
X155795000Y-116626600D03*
X155795000Y-115926600D03*
X155795000Y-115226600D03*
X155795000Y-114526600D03*
X155095000Y-116626600D03*
X155095000Y-115926600D03*
X155095000Y-115226600D03*
X155095000Y-114526600D03*
X154395000Y-116626600D03*
X154395000Y-115926600D03*
X154395000Y-115226600D03*
X154395000Y-114526600D03*
X153695000Y-116626600D03*
X153695000Y-115926600D03*
X153695000Y-115226600D03*
X153695000Y-114526600D03*
D24*
%TO.P,U5,2,IN2*%
%TO.N,/M1_IN2*%
X156030000Y-112626600D03*
%TO.P,U5,3,IN1*%
%TO.N,/M1_IN1*%
X154760000Y-112626600D03*
%TO.P,U5,4,VREF*%
%TO.N,+5V*%
X153490000Y-112626600D03*
%TO.P,U5,5,VM*%
%TO.N,VCC*%
X153490000Y-118626600D03*
%TO.P,U5,6,OUT1*%
%TO.N,/OUT_B_M1*%
X154760000Y-118626600D03*
%TO.P,U5,7,RS*%
%TO.N,GND*%
X156030000Y-118626600D03*
%TO.P,U5,8,OUT2*%
%TO.N,/OUT_A_M1*%
X157300000Y-118626600D03*
%TD*%
D15*
%TO.P,C13,1*%
%TO.N,GND*%
X117390000Y-88200000D03*
%TO.P,C13,2*%
%TO.N,+3V3*%
X117390000Y-86500000D03*
%TD*%
D21*
%TO.P,J1,1,Pin_1*%
%TO.N,+5V*%
X113780000Y-102700000D03*
D22*
%TO.P,J1,2,Pin_2*%
%TO.N,GND*%
X116320000Y-102700000D03*
%TO.P,J1,3,Pin_3*%
%TO.N,/OUT1_SENSOR*%
X118860000Y-102700000D03*
%TO.P,J1,4,Pin_4*%
%TO.N,/IN1_SENSOR*%
X121400000Y-102700000D03*
%TD*%
D35*
%TO.P,Programador1,1,Pin_1*%
%TO.N,GND*%
X148490000Y-106600000D03*
D36*
%TO.P,Programador1,2,Pin_2*%
%TO.N,+5V*%
X151030000Y-106600000D03*
%TO.P,Programador1,3,Pin_3*%
%TO.N,/RXD0*%
X153570000Y-106600000D03*
%TO.P,Programador1,4,Pin_4*%
%TO.N,/TXD0*%
X156110000Y-106600000D03*
%TD*%
D10*
%TO.P,C3,1*%
%TO.N,VCC*%
X151295000Y-118699100D03*
%TO.P,C3,2*%
%TO.N,GND*%
X151295000Y-116794100D03*
%TD*%
D37*
%TO.N,+5V*%
X147794450Y-81700000D03*
D38*
X116400000Y-81500000D03*
%TO.N,+3V3*%
X136200000Y-103500000D03*
D37*
X137920000Y-112660000D03*
X124150000Y-83120000D03*
%TO.N,VCC*%
X136400000Y-118700000D03*
D38*
X147899100Y-118699100D03*
D37*
%TO.N,/RXD0*%
X149600000Y-89100000D03*
%TO.N,/TXD0*%
X151010000Y-87860000D03*
%TO.N,/IN2_SENSOR*%
X124400000Y-87770000D03*
%TO.N,/IN1_SENSOR*%
X124400000Y-86500000D03*
D38*
%TO.N,/OUT1_SENSOR*%
X122911750Y-90311750D03*
D37*
%TO.N,/SDA*%
X145050628Y-87754772D03*
X138922500Y-104977500D03*
%TO.N,/SCL*%
X140200000Y-106600000D03*
X145500000Y-83970000D03*
%TO.N,/IN3_SENSOR*%
X124400000Y-89169503D03*
%TO.N,/INT*%
X129800000Y-112200000D03*
X124800000Y-96594388D03*
%TO.N,/M2_IN2*%
X145500000Y-95499503D03*
D38*
X143930000Y-110060000D03*
D37*
%TO.N,/M2_IN1*%
X145500000Y-94100000D03*
D38*
X142660000Y-110060000D03*
D37*
%TO.N,/M1_IN2*%
X146900000Y-91600000D03*
D38*
X156040000Y-110210000D03*
%TO.N,/M1_IN1*%
X154760000Y-108980000D03*
D37*
X148300000Y-90290000D03*
%TO.N,/IN{slash}OUT1*%
X123000000Y-94100000D03*
%TO.N,/IN{slash}OUT2*%
X123149500Y-95400000D03*
%TD*%
D39*
%TO.N,+5V*%
X115400000Y-81500000D02*
X115015000Y-81885000D01*
X115015000Y-81885000D02*
X115015000Y-82840000D01*
X116400000Y-81500000D02*
X115400000Y-81500000D01*
%TO.N,/TXD0*%
X147250000Y-85750000D02*
X146731750Y-85231750D01*
X147250000Y-87549180D02*
X147250000Y-85750000D01*
X147560820Y-87860000D02*
X147250000Y-87549180D01*
X151010000Y-87860000D02*
X147560820Y-87860000D01*
X146731750Y-85231750D02*
X143750000Y-85231750D01*
%TO.N,/RXD0*%
X146200000Y-86700000D02*
X146001750Y-86501750D01*
X146200000Y-88610986D02*
X146200000Y-86700000D01*
X146689014Y-89100000D02*
X146200000Y-88610986D01*
X149600000Y-89100000D02*
X146689014Y-89100000D01*
X146001750Y-86501750D02*
X143750000Y-86501750D01*
%TO.N,GND*%
X155899180Y-102300820D02*
X155899180Y-99700000D01*
D40*
X134650000Y-108100000D02*
X134650000Y-107130000D01*
D39*
X130500000Y-108180000D02*
X128540000Y-108180000D01*
D41*
X136395000Y-109780000D02*
X139200000Y-109780000D01*
X136165000Y-109550000D02*
X136150000Y-109550000D01*
D39*
X116300000Y-102720000D02*
X116320000Y-102700000D01*
X133500000Y-90541750D02*
X133500000Y-89141750D01*
D40*
X136135000Y-105610000D02*
X136150000Y-105595000D01*
D39*
X126650000Y-128000000D02*
X126650000Y-129390000D01*
X126250000Y-81421750D02*
X134700000Y-81421750D01*
X128410000Y-114700000D02*
X128410000Y-108310000D01*
X116400000Y-126652500D02*
X116400000Y-128800000D01*
X124010000Y-81890000D02*
X124478250Y-81421750D01*
X116400000Y-85370000D02*
X115910000Y-85860000D01*
X139185000Y-116794100D02*
X134305900Y-116794100D01*
X151285000Y-115626600D02*
X151295000Y-115636600D01*
X131600000Y-120500000D02*
X134070000Y-120500000D01*
X115910000Y-88170000D02*
X115940000Y-88200000D01*
D42*
X157300000Y-112553200D02*
X157300000Y-115626600D01*
X133850980Y-101500000D02*
X129900000Y-101500000D01*
D39*
X128540000Y-108180000D02*
X128410000Y-108310000D01*
D42*
X157300000Y-115626600D02*
X155395000Y-115626600D01*
D39*
X155899180Y-86200000D02*
X155899180Y-92950000D01*
X153150000Y-104350000D02*
X153150000Y-103102500D01*
X126660000Y-129400000D02*
X127160000Y-129400000D01*
D40*
X135500000Y-107080000D02*
X134700000Y-107080000D01*
D39*
X116320000Y-101020000D02*
X116320000Y-102700000D01*
X148900000Y-104700000D02*
X152800000Y-104700000D01*
X139185000Y-116794100D02*
X139185000Y-115826600D01*
X115910000Y-85860000D02*
X115910000Y-88170000D01*
D40*
X131917500Y-108282500D02*
X132120000Y-108080000D01*
D42*
X143930000Y-116261600D02*
X143295000Y-115626600D01*
D39*
X125060000Y-118050000D02*
X127350000Y-118050000D01*
D42*
X148298200Y-112553200D02*
X148345000Y-112600000D01*
D39*
X112300000Y-82940000D02*
X113160000Y-82940000D01*
X115015000Y-83790000D02*
X116150000Y-83790000D01*
X132100000Y-89141750D02*
X134900000Y-89141750D01*
X153150000Y-103102500D02*
X153252500Y-103000000D01*
D40*
X135650000Y-107080000D02*
X136135000Y-106595000D01*
D39*
X116300000Y-116500000D02*
X116300000Y-102720000D01*
X115150000Y-99850000D02*
X116320000Y-101020000D01*
D40*
X136150000Y-109065000D02*
X135650000Y-109065000D01*
D39*
X126201750Y-81470000D02*
X126250000Y-81421750D01*
D40*
X134700000Y-107080000D02*
X133165000Y-107080000D01*
D39*
X116400000Y-128800000D02*
X117000000Y-129400000D01*
D40*
X134650000Y-109065000D02*
X134650000Y-108100000D01*
D41*
X136150000Y-109065000D02*
X136150000Y-109550000D01*
D42*
X145200000Y-112553200D02*
X148298200Y-112553200D01*
D39*
X134900000Y-87741750D02*
X132100000Y-87741750D01*
X122098040Y-81890000D02*
X124010000Y-81890000D01*
X134070000Y-115330000D02*
X134070000Y-113760000D01*
X134305900Y-116794100D02*
X134070000Y-117030000D01*
X113160000Y-82940000D02*
X114010000Y-83790000D01*
X124478250Y-81421750D02*
X126250000Y-81421750D01*
X128410000Y-102990000D02*
X129900000Y-101500000D01*
D42*
X145200000Y-115626600D02*
X143295000Y-115626600D01*
D39*
X127350000Y-118050000D02*
X128410000Y-116990000D01*
X134700000Y-81421750D02*
X143750000Y-81421750D01*
X128410000Y-116990000D02*
X128410000Y-114700000D01*
X112400820Y-95900820D02*
X112400820Y-89939180D01*
D40*
X133165000Y-108080000D02*
X134630000Y-108080000D01*
D42*
X145200000Y-112553200D02*
X145200000Y-115626600D01*
D39*
X132100000Y-87741750D02*
X132100000Y-90541750D01*
X124452500Y-118657500D02*
X125060000Y-118050000D01*
X155899180Y-99700000D02*
X155899180Y-92950000D01*
X155200000Y-103000000D02*
X155899180Y-102300820D01*
X134900000Y-87741750D02*
X134900000Y-81621750D01*
D42*
X156030000Y-118700000D02*
X156030000Y-116261600D01*
D39*
X114010000Y-83790000D02*
X115015000Y-83790000D01*
X136140000Y-126200000D02*
X136140000Y-121880000D01*
X113300000Y-96800000D02*
X112400820Y-95900820D01*
D41*
X136165000Y-109550000D02*
X136395000Y-109780000D01*
D39*
X128410000Y-108310000D02*
X128410000Y-102990000D01*
X124452500Y-120500000D02*
X131600000Y-120500000D01*
X126248250Y-81420000D02*
X126250000Y-81421750D01*
X139385000Y-115626600D02*
X143295000Y-115626600D01*
X134760000Y-120500000D02*
X131600000Y-120500000D01*
X124452500Y-120500000D02*
X124452500Y-118657500D01*
D40*
X135650000Y-109065000D02*
X135650000Y-107080000D01*
D39*
X143295000Y-115626600D02*
X151285000Y-115626600D01*
X152800000Y-104700000D02*
X153150000Y-104350000D01*
X134900000Y-81621750D02*
X134700000Y-81421750D01*
X133500000Y-87741750D02*
X133500000Y-89141750D01*
D42*
X156030000Y-116261600D02*
X155395000Y-115626600D01*
D39*
X117000000Y-129400000D02*
X126660000Y-129400000D01*
X153252500Y-103000000D02*
X155200000Y-103000000D01*
X148490000Y-106600000D02*
X148490000Y-105110000D01*
D42*
X129900000Y-101500000D02*
X129285000Y-100885000D01*
D39*
X151285000Y-115626600D02*
X155395000Y-115626600D01*
X115940000Y-88200000D02*
X117390000Y-88200000D01*
D40*
X131917500Y-108282500D02*
X130500000Y-108282500D01*
D39*
X132100000Y-90541750D02*
X134900000Y-90541750D01*
X151295000Y-115636600D02*
X151295000Y-116794100D01*
X134070000Y-120500000D02*
X134070000Y-117030000D01*
X126650000Y-129390000D02*
X126660000Y-129400000D01*
X115150000Y-96800000D02*
X113300000Y-96800000D01*
D42*
X143930000Y-118700000D02*
X143930000Y-116261600D01*
D39*
X136140000Y-128460000D02*
X136140000Y-126200000D01*
X126560000Y-127910000D02*
X126560000Y-127850000D01*
X148490000Y-105110000D02*
X148900000Y-104700000D01*
D40*
X134630000Y-108080000D02*
X134650000Y-108100000D01*
X135650000Y-107080000D02*
X135500000Y-107080000D01*
X134650000Y-107130000D02*
X134700000Y-107080000D01*
D39*
X134070000Y-117030000D02*
X134070000Y-115330000D01*
X139185000Y-115826600D02*
X139385000Y-115626600D01*
X127160000Y-129400000D02*
X135200000Y-129400000D01*
X134900000Y-90541750D02*
X134900000Y-87741750D01*
X115150000Y-99850000D02*
X115150000Y-96800000D01*
D42*
X129285000Y-100885000D02*
X129285000Y-99181750D01*
D39*
X116300000Y-120000000D02*
X116300000Y-116500000D01*
X136140000Y-121880000D02*
X134760000Y-120500000D01*
D40*
X133165000Y-108080000D02*
X132120000Y-108080000D01*
D39*
X116400000Y-84040000D02*
X116400000Y-85370000D01*
X112400820Y-89939180D02*
X114140000Y-88200000D01*
X116150000Y-83790000D02*
X116400000Y-84040000D01*
X134070000Y-111600000D02*
X134070000Y-113760000D01*
X135200000Y-129400000D02*
X136140000Y-128460000D01*
D40*
X136135000Y-106595000D02*
X136135000Y-105610000D01*
D39*
X114140000Y-88200000D02*
X115940000Y-88200000D01*
X128410000Y-115410000D02*
X128410000Y-114700000D01*
%TO.N,/IO0*%
X147800820Y-102499180D02*
X148700820Y-102499180D01*
X146652500Y-104977500D02*
X147500000Y-104130000D01*
X148799180Y-102499180D02*
X148700820Y-102499180D01*
X148700820Y-98330820D02*
X148700820Y-99700000D01*
X147500000Y-102800000D02*
X147800820Y-102499180D01*
X148301750Y-97931750D02*
X148700820Y-98330820D01*
X148700820Y-102499180D02*
X148700820Y-99700000D01*
X143750000Y-97931750D02*
X148301750Y-97931750D01*
X147500000Y-104130000D02*
X147500000Y-102800000D01*
X149300000Y-103000000D02*
X148799180Y-102499180D01*
X145400000Y-104977500D02*
X146652500Y-104977500D01*
X151347500Y-103000000D02*
X149300000Y-103000000D01*
%TO.N,/EN*%
X122655000Y-88045000D02*
X123200000Y-87500000D01*
X125048250Y-83961750D02*
X126250000Y-83961750D01*
X119599180Y-92950000D02*
X119599180Y-91600820D01*
X119599180Y-95900820D02*
X119599180Y-92950000D01*
X123200000Y-85810000D02*
X125048250Y-83961750D01*
X123200000Y-87500000D02*
X123200000Y-85810000D01*
X119599180Y-91600820D02*
X121780000Y-89420000D01*
X116850000Y-96800000D02*
X118700000Y-96800000D01*
X121780000Y-88045000D02*
X122655000Y-88045000D01*
X118700000Y-96800000D02*
X119599180Y-95900820D01*
X121780000Y-89420000D02*
X121780000Y-88045000D01*
D42*
%TO.N,+5V*%
X120350000Y-125700000D02*
X118690000Y-125700000D01*
X113780000Y-102700000D02*
X112100000Y-102700000D01*
D39*
X151100000Y-106670000D02*
X151030000Y-106600000D01*
D42*
X151130000Y-81705000D02*
X153490000Y-81705000D01*
X116400000Y-124747500D02*
X116400000Y-123460000D01*
X110940000Y-101540000D02*
X110940000Y-85360000D01*
D39*
X152900000Y-108900000D02*
X153490000Y-109490000D01*
X142100000Y-108900000D02*
X151100000Y-108900000D01*
X113780000Y-84740000D02*
X113680000Y-84640000D01*
D42*
X147794450Y-81700000D02*
X151125000Y-81700000D01*
D39*
X115015000Y-84740000D02*
X113780000Y-84740000D01*
D42*
X118690000Y-125700000D02*
X117737500Y-124747500D01*
X116000000Y-123060000D02*
X114320000Y-123060000D01*
X151125000Y-81700000D02*
X151130000Y-81705000D01*
X117737500Y-124747500D02*
X116400000Y-124747500D01*
D39*
X153490000Y-109490000D02*
X153490000Y-112553200D01*
X113680000Y-84640000D02*
X112300000Y-84640000D01*
D42*
X114320000Y-123060000D02*
X113760000Y-122500000D01*
X116400000Y-123460000D02*
X116000000Y-123060000D01*
X112100000Y-102700000D02*
X110940000Y-101540000D01*
D39*
X141390000Y-112553200D02*
X141390000Y-109610000D01*
X151100000Y-108900000D02*
X152900000Y-108900000D01*
D42*
X111660000Y-84640000D02*
X112300000Y-84640000D01*
X113760000Y-122500000D02*
X113760000Y-120000000D01*
D39*
X141390000Y-109610000D02*
X142100000Y-108900000D01*
D42*
X110940000Y-85360000D02*
X111660000Y-84640000D01*
D39*
X151030000Y-106600000D02*
X151030000Y-108830000D01*
X151030000Y-108830000D02*
X151100000Y-108900000D01*
D42*
X120350000Y-125700000D02*
X126650000Y-125700000D01*
D39*
%TO.N,+3V3*%
X121780000Y-83795980D02*
X121774020Y-83790000D01*
X117390000Y-82845000D02*
X117385000Y-82840000D01*
X121780000Y-86595000D02*
X121780000Y-83795980D01*
D43*
X136200000Y-103500000D02*
X136227500Y-103527500D01*
D39*
X117390000Y-86500000D02*
X117390000Y-82845000D01*
D40*
X135150000Y-106250000D02*
X135150000Y-105595000D01*
D43*
X135150000Y-105595000D02*
X135150000Y-104050000D01*
D39*
X135770000Y-113760000D02*
X135770000Y-112700000D01*
D43*
X133650000Y-109750000D02*
X133900000Y-110000000D01*
X136227500Y-103527500D02*
X140800000Y-103527500D01*
D39*
X121774020Y-83790000D02*
X123480000Y-83790000D01*
X120815000Y-86595000D02*
X121780000Y-86595000D01*
D43*
X136172500Y-103527500D02*
X136200000Y-103500000D01*
D39*
X117390000Y-86500000D02*
X119500000Y-86500000D01*
D43*
X135672500Y-103527500D02*
X136172500Y-103527500D01*
D39*
X123480000Y-83790000D02*
X124578250Y-82691750D01*
D43*
X135150000Y-104050000D02*
X135672500Y-103527500D01*
D39*
X137880000Y-112700000D02*
X135770000Y-112700000D01*
D43*
X133650000Y-109065000D02*
X133650000Y-109750000D01*
X135800000Y-111447500D02*
X135852500Y-111500000D01*
D39*
X137920000Y-112660000D02*
X137880000Y-112700000D01*
X135770000Y-112700000D02*
X135770000Y-111600000D01*
D40*
X134820000Y-106580000D02*
X135150000Y-106250000D01*
D39*
X135872500Y-111520000D02*
X135852500Y-111500000D01*
D43*
X135000000Y-110000000D02*
X135770000Y-110770000D01*
D39*
X119500000Y-86500000D02*
X120720000Y-86500000D01*
D43*
X135770000Y-110770000D02*
X135770000Y-111600000D01*
D39*
X124578250Y-82691750D02*
X126250000Y-82691750D01*
D43*
X140800000Y-103527500D02*
X145400000Y-103527500D01*
D39*
X135750000Y-113740000D02*
X135770000Y-113760000D01*
D40*
X133165000Y-106580000D02*
X134820000Y-106580000D01*
D39*
X120720000Y-86500000D02*
X120815000Y-86595000D01*
D43*
X133900000Y-110000000D02*
X135000000Y-110000000D01*
D42*
%TO.N,VCC*%
X151285000Y-118709100D02*
X151295000Y-118699100D01*
X141317500Y-118699100D02*
X141390000Y-118626600D01*
X130200000Y-123400000D02*
X131060000Y-124260000D01*
X136400900Y-118699100D02*
X139185000Y-118699100D01*
X151295000Y-118699100D02*
X153489100Y-118699100D01*
X126650000Y-123400000D02*
X130200000Y-123400000D01*
X147899100Y-118699100D02*
X151295000Y-118699100D01*
X131060000Y-124260000D02*
X131060000Y-126200000D01*
X136400000Y-118700000D02*
X136400900Y-118699100D01*
X141389100Y-118699100D02*
X141390000Y-118700000D01*
X123200000Y-123400000D02*
X126650000Y-123400000D01*
X122547500Y-122747500D02*
X123200000Y-123400000D01*
X153489100Y-118699100D02*
X153490000Y-118700000D01*
X122547500Y-120500000D02*
X122547500Y-122747500D01*
X139200000Y-118714100D02*
X139185000Y-118699100D01*
X139185000Y-118699100D02*
X141317500Y-118699100D01*
D41*
%TO.N,Net-(U2-CPOUT)*%
X136635000Y-108080000D02*
X139192500Y-108080000D01*
X139192500Y-108080000D02*
X139200000Y-108087500D01*
%TO.N,Net-(U2-REGOUT)*%
X132000000Y-107300000D02*
X132280000Y-107580000D01*
X132000000Y-107300000D02*
X132000000Y-106700000D01*
X132000000Y-106700000D02*
X131780000Y-106480000D01*
X131780000Y-106480000D02*
X130500000Y-106480000D01*
X133165000Y-107580000D02*
X132280000Y-107580000D01*
D39*
%TO.N,/IN2_SENSOR*%
X124400000Y-87770000D02*
X124401750Y-87771750D01*
X124401750Y-87771750D02*
X126250000Y-87771750D01*
%TO.N,/OUT2_SENSOR*%
X120810000Y-99510000D02*
X120810000Y-92290000D01*
X122600000Y-104400000D02*
X123080000Y-103920000D01*
X123080000Y-101780000D02*
X120810000Y-99510000D01*
X119260000Y-104400000D02*
X122600000Y-104400000D01*
X123080000Y-103920000D02*
X123080000Y-101780000D01*
X121518250Y-91581750D02*
X126250000Y-91581750D01*
X118860000Y-104800000D02*
X119260000Y-104400000D01*
X118860000Y-106100000D02*
X118860000Y-104800000D01*
X120810000Y-92290000D02*
X121518250Y-91581750D01*
%TO.N,/IN1_SENSOR*%
X126248250Y-86500000D02*
X126250000Y-86501750D01*
X124400000Y-86500000D02*
X126248250Y-86500000D01*
%TO.N,/OUT1_SENSOR*%
X126248250Y-90310000D02*
X126250000Y-90311750D01*
X122911750Y-90311750D02*
X126250000Y-90311750D01*
%TO.N,/OUT3_SENSOR*%
X121800000Y-93460000D02*
X122408250Y-92851750D01*
X124190000Y-106290000D02*
X124190000Y-101200000D01*
X118860000Y-108270000D02*
X119310000Y-107820000D01*
X124190000Y-101200000D02*
X121800000Y-98810000D01*
X118860000Y-109500000D02*
X118860000Y-108270000D01*
X121800000Y-98810000D02*
X121800000Y-93460000D01*
X122408250Y-92851750D02*
X126250000Y-92851750D01*
X119310000Y-107820000D02*
X122660000Y-107820000D01*
X122660000Y-107820000D02*
X124190000Y-106290000D01*
D43*
%TO.N,/SDA*%
X140800000Y-104977500D02*
X138922500Y-104977500D01*
D41*
X138922500Y-104977500D02*
X138695000Y-105205000D01*
X137820000Y-106080000D02*
X136635000Y-106080000D01*
D39*
X145050628Y-87754772D02*
X145033650Y-87771750D01*
D41*
X138695000Y-105205000D02*
X137820000Y-106080000D01*
D39*
X145033650Y-87771750D02*
X143750000Y-87771750D01*
D43*
X143721750Y-87800000D02*
X143750000Y-87771750D01*
D39*
%TO.N,/SCL*%
X145491750Y-83961750D02*
X143750000Y-83961750D01*
D43*
X143100000Y-104977500D02*
X143100000Y-105750000D01*
X143711750Y-84000000D02*
X143750000Y-83961750D01*
X140220000Y-106580000D02*
X142270000Y-106580000D01*
X143100000Y-105750000D02*
X142270000Y-106580000D01*
X140200000Y-106600000D02*
X140220000Y-106580000D01*
D41*
X141500000Y-106580000D02*
X142270000Y-106580000D01*
X136635000Y-106580000D02*
X141500000Y-106580000D01*
D39*
X145500000Y-83970000D02*
X145491750Y-83961750D01*
D41*
X143100000Y-105750000D02*
X143100000Y-105205000D01*
D39*
%TO.N,/IO2*%
X140715000Y-101500000D02*
X140715000Y-99181750D01*
D40*
X140710750Y-99186000D02*
X140715000Y-99181750D01*
D39*
%TO.N,/BOTON_SWITCH_1*%
X147738250Y-96661750D02*
X148700820Y-95699180D01*
X153490000Y-83155000D02*
X153490000Y-91610000D01*
X152150000Y-92950000D02*
X148700820Y-92950000D01*
X153490000Y-91610000D02*
X152150000Y-92950000D01*
X148700820Y-95699180D02*
X148700820Y-92950000D01*
X143750000Y-96661750D02*
X147738250Y-96661750D01*
%TO.N,/BOTON_START*%
X148700820Y-86200000D02*
X150440000Y-86200000D01*
X148720000Y-83155000D02*
X146625000Y-83155000D01*
X150440000Y-86200000D02*
X151130000Y-85510000D01*
X146625000Y-83155000D02*
X146161750Y-82691750D01*
X148700820Y-83174180D02*
X148720000Y-83155000D01*
X151130000Y-83155000D02*
X148720000Y-83155000D01*
X146161750Y-82691750D02*
X143750000Y-82691750D01*
X151130000Y-85510000D02*
X151130000Y-83155000D01*
%TO.N,/IN3_SENSOR*%
X124527753Y-89041750D02*
X126250000Y-89041750D01*
X124400000Y-89169503D02*
X124527753Y-89041750D01*
%TO.N,/INT*%
X124800000Y-96594388D02*
X126182638Y-96594388D01*
X126182638Y-96594388D02*
X126250000Y-96661750D01*
D41*
X132420000Y-108580000D02*
X132200000Y-108800000D01*
X132200000Y-111600000D02*
X131600000Y-112200000D01*
X132200000Y-108800000D02*
X132200000Y-111600000D01*
X131600000Y-112200000D02*
X129800000Y-112200000D01*
X133165000Y-108580000D02*
X132420000Y-108580000D01*
D39*
%TO.N,/M2_IN2*%
X145500000Y-95499503D02*
X143857753Y-95499503D01*
X143930000Y-110060000D02*
X143930000Y-112553200D01*
X143857753Y-95499503D02*
X143750000Y-95391750D01*
%TO.N,/M2_IN1*%
X145500000Y-94100000D02*
X145478250Y-94121750D01*
X142660000Y-110060000D02*
X142660000Y-112553200D01*
X145478250Y-94121750D02*
X143750000Y-94121750D01*
%TO.N,/M1_IN2*%
X146881750Y-91581750D02*
X143750000Y-91581750D01*
X156030000Y-110220000D02*
X156040000Y-110210000D01*
X146900000Y-91600000D02*
X146881750Y-91581750D01*
X156030000Y-112553200D02*
X156030000Y-110220000D01*
%TO.N,/M1_IN1*%
X154760000Y-112553200D02*
X154760000Y-108980000D01*
X148300000Y-90290000D02*
X148278250Y-90311750D01*
X148278250Y-90311750D02*
X143750000Y-90311750D01*
D44*
%TO.N,/OUT_B_M1*%
X152060000Y-122710000D02*
X154760000Y-120010000D01*
X152060000Y-126200000D02*
X152060000Y-122710000D01*
X154760000Y-120010000D02*
X154760000Y-118626600D01*
%TO.N,/OUT_A_M1*%
X157140000Y-126200000D02*
X157300000Y-126040000D01*
X157300000Y-126040000D02*
X157300000Y-118626600D01*
%TO.N,/OUT_B_M2*%
X142660000Y-118626600D02*
X142660000Y-120540000D01*
D42*
X141560000Y-126200000D02*
X142830000Y-124930000D01*
D44*
X142660000Y-120540000D02*
X141560000Y-121640000D01*
D42*
X142815000Y-124915000D02*
X142830000Y-124930000D01*
D44*
X141560000Y-121640000D02*
X141560000Y-126200000D01*
%TO.N,/OUT_A_M2*%
X145200000Y-118626600D02*
X145200000Y-120280000D01*
X146640000Y-121720000D02*
X146640000Y-126200000D01*
X145200000Y-120280000D02*
X146640000Y-121720000D01*
D39*
%TO.N,Net-(LED1-A)*%
X120000000Y-82690000D02*
X120000000Y-81890000D01*
X120324020Y-83014020D02*
X120000000Y-82690000D01*
X120324020Y-83790000D02*
X120324020Y-83014020D01*
%TO.N,Net-(LED2-A)*%
X139265000Y-101500000D02*
X135949020Y-101500000D01*
%TO.N,/IN{slash}OUT1*%
X123000000Y-94100000D02*
X123021750Y-94121750D01*
X123021750Y-94121750D02*
X126250000Y-94121750D01*
%TO.N,/IN{slash}OUT2*%
X123157750Y-95391750D02*
X126250000Y-95391750D01*
X123149500Y-95400000D02*
X123157750Y-95391750D01*
%TO.N,/IN{slash}OUT3*%
X126460000Y-103280000D02*
X127850000Y-101890000D01*
X130555000Y-98255000D02*
X130555000Y-99181750D01*
X130000000Y-97700000D02*
X130555000Y-98255000D01*
X120860000Y-115860000D02*
X126460000Y-110260000D01*
X120860000Y-119380000D02*
X120860000Y-115860000D01*
X128530000Y-97700000D02*
X130000000Y-97700000D01*
X127850000Y-98380000D02*
X128530000Y-97700000D01*
X127850000Y-101890000D02*
X127850000Y-98380000D01*
X120240000Y-120000000D02*
X120860000Y-119380000D01*
X126460000Y-110260000D02*
X126460000Y-103280000D01*
X118840000Y-120000000D02*
X120240000Y-120000000D01*
%TD*%
%TA.AperFunction,Conductor*%
%TO.N,/OUT_A_M1*%
G36*
X157647923Y-119639136D02*
G01*
X157693675Y-119690637D01*
X157732930Y-119772976D01*
X157745000Y-119826339D01*
X157745000Y-121450500D01*
X157754713Y-121549123D01*
X157773665Y-121644402D01*
X157802432Y-121739234D01*
X157846547Y-121821767D01*
X157849144Y-121826626D01*
X157891043Y-121889333D01*
X157903122Y-121907411D01*
X157973735Y-121993451D01*
X157972126Y-121994771D01*
X157997177Y-122028552D01*
X158006017Y-122088158D01*
X157985715Y-122144893D01*
X157941066Y-122185359D01*
X157882614Y-122200000D01*
X156717387Y-122200000D01*
X156658934Y-122185359D01*
X156614285Y-122144892D01*
X156593984Y-122088156D01*
X156602825Y-122028549D01*
X156627874Y-121994772D01*
X156626265Y-121993452D01*
X156634010Y-121984014D01*
X156634012Y-121984013D01*
X156696880Y-121907409D01*
X156750856Y-121826627D01*
X156797568Y-121739234D01*
X156826333Y-121644407D01*
X156837258Y-121589486D01*
X156845286Y-121549124D01*
X156845286Y-121549123D01*
X156845287Y-121549119D01*
X156855000Y-121450501D01*
X156855000Y-120299239D01*
X156845287Y-120200621D01*
X156826333Y-120105333D01*
X156797568Y-120010507D01*
X156794023Y-119998820D01*
X156795867Y-119998260D01*
X156785500Y-119956868D01*
X156785500Y-119911552D01*
X156803207Y-119847694D01*
X156903868Y-119680142D01*
X156949097Y-119636078D01*
X157010161Y-119620000D01*
X157581745Y-119620000D01*
X157647923Y-119639136D01*
G37*
%TD.AperFunction*%
%TD*%
%TA.AperFunction,Conductor*%
%TO.N,/OUT_A_M2*%
G36*
X145556754Y-119628373D02*
G01*
X145595497Y-119652361D01*
X145604538Y-119660603D01*
X145634434Y-119702153D01*
X145645000Y-119752240D01*
X145645000Y-119783150D01*
X145654713Y-119881773D01*
X145673665Y-119977052D01*
X145702432Y-120071884D01*
X145741715Y-120145377D01*
X145749144Y-120159276D01*
X145799865Y-120235186D01*
X145803122Y-120240061D01*
X145865988Y-120316662D01*
X146900856Y-121351531D01*
X146900872Y-121351546D01*
X146900873Y-121351547D01*
X146924220Y-121373461D01*
X146937413Y-121385080D01*
X146947985Y-121395585D01*
X146951102Y-121399079D01*
X146960711Y-121409851D01*
X146969715Y-121419567D01*
X146973597Y-121423756D01*
X146986864Y-121437538D01*
X146996542Y-121448884D01*
X146998745Y-121451806D01*
X147006987Y-121464227D01*
X147016587Y-121480773D01*
X147026398Y-121496967D01*
X147036621Y-121513139D01*
X147043805Y-121526177D01*
X147045372Y-121529475D01*
X147050957Y-121543325D01*
X147057018Y-121561431D01*
X147063372Y-121579281D01*
X147070143Y-121597213D01*
X147074561Y-121611452D01*
X147078756Y-121628545D01*
X147087367Y-121659374D01*
X147092703Y-121676379D01*
X147120077Y-121744282D01*
X147122598Y-121750535D01*
X147157627Y-121820816D01*
X147171365Y-121843654D01*
X147198841Y-121889331D01*
X147250346Y-121950493D01*
X147288246Y-121988877D01*
X147318134Y-122038281D01*
X147322409Y-122095864D01*
X147300143Y-122149140D01*
X147256165Y-122186556D01*
X147200010Y-122200000D01*
X145330891Y-122200000D01*
X145276179Y-122187277D01*
X145232695Y-122151720D01*
X145209361Y-122100625D01*
X145210965Y-122044477D01*
X145237177Y-121994798D01*
X145290698Y-121933033D01*
X145340306Y-121865095D01*
X145377959Y-121789872D01*
X145408652Y-121713204D01*
X145433310Y-121632780D01*
X145444290Y-121549380D01*
X145448219Y-121466891D01*
X145445216Y-121382828D01*
X145428315Y-121300427D01*
X145405049Y-121221189D01*
X145374717Y-121142730D01*
X145331794Y-121070386D01*
X145283891Y-121003115D01*
X145283889Y-121003112D01*
X145283885Y-121003107D01*
X145229564Y-120938890D01*
X144939125Y-120648450D01*
X144915776Y-120626535D01*
X144902595Y-120614927D01*
X144892023Y-120604424D01*
X144891380Y-120603703D01*
X144888907Y-120600932D01*
X144866002Y-120563676D01*
X144857457Y-120520786D01*
X144842450Y-119746402D01*
X144858248Y-119683392D01*
X144903735Y-119637016D01*
X144966427Y-119620000D01*
X145511961Y-119620000D01*
X145556754Y-119628373D01*
G37*
%TD.AperFunction*%
%TD*%
%TA.AperFunction,Conductor*%
%TO.N,/OUT_B_M2*%
G36*
X142967108Y-119634375D02*
G01*
X143011623Y-119674167D01*
X143032381Y-119730149D01*
X143104224Y-120369303D01*
X143105000Y-120383154D01*
X143105000Y-120463921D01*
X143106012Y-120495919D01*
X143107126Y-120513488D01*
X143107173Y-120528388D01*
X143106084Y-120547468D01*
X143105363Y-120566447D01*
X143105000Y-120585536D01*
X143103821Y-120600398D01*
X143103312Y-120604027D01*
X143100357Y-120618640D01*
X143095449Y-120637112D01*
X143090938Y-120655491D01*
X143086724Y-120674183D01*
X143082581Y-120688490D01*
X143081352Y-120691943D01*
X143075511Y-120705677D01*
X143066969Y-120722814D01*
X143063952Y-120729168D01*
X143058867Y-120739876D01*
X143058855Y-120739900D01*
X143058850Y-120739913D01*
X143050977Y-120757337D01*
X143044038Y-120770522D01*
X143042139Y-120773657D01*
X143033648Y-120785938D01*
X143021877Y-120800945D01*
X143010486Y-120816050D01*
X143006104Y-120822096D01*
X142991138Y-120839196D01*
X142977660Y-120852008D01*
X142973025Y-120856469D01*
X142968480Y-120860898D01*
X142963930Y-120865392D01*
X142905091Y-120924231D01*
X142844741Y-120997102D01*
X142792505Y-121073792D01*
X142746801Y-121156612D01*
X142717326Y-121246508D01*
X142698847Y-121327951D01*
X142696795Y-121336995D01*
X142695276Y-121348666D01*
X142684584Y-121430808D01*
X142690068Y-121525241D01*
X142704092Y-121616972D01*
X142727077Y-121708745D01*
X142766763Y-121794631D01*
X142781985Y-121820816D01*
X142813397Y-121874851D01*
X142836654Y-121907409D01*
X142868385Y-121951830D01*
X142904517Y-121986386D01*
X142936042Y-122035584D01*
X142941535Y-122093758D01*
X142919777Y-122147988D01*
X142875600Y-122186233D01*
X142818813Y-122200000D01*
X140986191Y-122200000D01*
X140931124Y-122187102D01*
X140887513Y-122151091D01*
X140864430Y-122099459D01*
X140866677Y-122042947D01*
X140893787Y-121993311D01*
X140899984Y-121986386D01*
X140947212Y-121933609D01*
X141002202Y-121859216D01*
X141050945Y-121778471D01*
X141083841Y-121690077D01*
X141087528Y-121676375D01*
X141099813Y-121630711D01*
X141100317Y-121628893D01*
X141119622Y-121561429D01*
X141124554Y-121542864D01*
X141129062Y-121524497D01*
X141133276Y-121505800D01*
X141137419Y-121491497D01*
X141138658Y-121488017D01*
X141144475Y-121474344D01*
X141153025Y-121457189D01*
X141161136Y-121440109D01*
X141169016Y-121422666D01*
X141175958Y-121409481D01*
X141177864Y-121406335D01*
X141186336Y-121394078D01*
X141198164Y-121378997D01*
X141209548Y-121363898D01*
X141213878Y-121357921D01*
X141228864Y-121340795D01*
X141242403Y-121327927D01*
X141245056Y-121325373D01*
X141246981Y-121323521D01*
X141249127Y-121321428D01*
X141251489Y-121319126D01*
X141256088Y-121314585D01*
X141661062Y-120909611D01*
X141715889Y-120844683D01*
X141764160Y-120776650D01*
X141807332Y-120703462D01*
X141837635Y-120624076D01*
X141860728Y-120543918D01*
X141876640Y-120463921D01*
X141877305Y-120460578D01*
X141879689Y-120375639D01*
X141879233Y-120367522D01*
X141875012Y-120292349D01*
X141863133Y-120208208D01*
X141853128Y-120176820D01*
X141850526Y-120110951D01*
X141882046Y-120053060D01*
X141955909Y-119976527D01*
X141979594Y-119958996D01*
X141983938Y-119954652D01*
X141983942Y-119954650D01*
X142073650Y-119864942D01*
X142076481Y-119859384D01*
X142097740Y-119829570D01*
X142263433Y-119657888D01*
X142304190Y-119629864D01*
X142352657Y-119620000D01*
X142909157Y-119620000D01*
X142967108Y-119634375D01*
G37*
%TD.AperFunction*%
%TD*%
%TA.AperFunction,Conductor*%
%TO.N,/OUT_B_M1*%
G36*
X155121315Y-119626301D02*
G01*
X155166511Y-119666608D01*
X155187228Y-119723512D01*
X155178526Y-119783442D01*
X154881410Y-120504442D01*
X154854444Y-120544878D01*
X153983088Y-121416235D01*
X153983083Y-121416240D01*
X153983083Y-121416241D01*
X153929795Y-121480781D01*
X153921889Y-121490356D01*
X153869071Y-121568396D01*
X153823012Y-121652748D01*
X153793753Y-121744281D01*
X153773721Y-121836370D01*
X153762311Y-121931792D01*
X153769167Y-122027647D01*
X153784793Y-122120580D01*
X153800774Y-122180224D01*
X153804999Y-122212316D01*
X153804999Y-123091988D01*
X153795645Y-123139235D01*
X153792203Y-123147587D01*
X153756853Y-123195672D01*
X153703135Y-123221673D01*
X153643492Y-123219569D01*
X150943803Y-122448229D01*
X150892846Y-122419262D01*
X150860887Y-122370126D01*
X150855067Y-122311801D01*
X150876686Y-122257319D01*
X150920914Y-122218854D01*
X150977868Y-122205000D01*
X151623148Y-122205000D01*
X151721766Y-122195287D01*
X151797493Y-122180224D01*
X151817050Y-122176334D01*
X151817051Y-122176333D01*
X151817054Y-122176333D01*
X151911881Y-122147568D01*
X151999274Y-122100856D01*
X152080056Y-122046880D01*
X152156660Y-121984012D01*
X153313000Y-120827672D01*
X153367330Y-120763443D01*
X153415235Y-120696168D01*
X153458159Y-120623820D01*
X153488491Y-120545355D01*
X153511756Y-120466112D01*
X153528655Y-120383706D01*
X153531654Y-120299639D01*
X153529103Y-120246132D01*
X153542926Y-120183061D01*
X153586586Y-120135489D01*
X153727227Y-120046360D01*
X153793603Y-120027099D01*
X153877114Y-120027099D01*
X153877118Y-120027099D01*
X153970904Y-120012246D01*
X154083942Y-119954650D01*
X154173650Y-119864942D01*
X154231246Y-119751904D01*
X154231246Y-119751900D01*
X154234607Y-119745305D01*
X154278711Y-119696864D01*
X154370278Y-119638835D01*
X154435187Y-119619586D01*
X155062423Y-119612206D01*
X155121315Y-119626301D01*
G37*
%TD.AperFunction*%
%TD*%
%TA.AperFunction,Conductor*%
%TO.N,GND*%
G36*
X125378076Y-80015432D02*
G01*
X125452821Y-80058438D01*
X125508414Y-80124359D01*
X125538189Y-80205290D01*
X125538573Y-80291522D01*
X125509522Y-80372715D01*
X125454519Y-80439130D01*
X125380161Y-80482801D01*
X125257909Y-80528398D01*
X125142810Y-80614560D01*
X125056647Y-80729659D01*
X125006401Y-80864376D01*
X125000000Y-80923919D01*
X125000000Y-81171749D01*
X125000001Y-81171750D01*
X127499999Y-81171750D01*
X127500000Y-81171749D01*
X127500000Y-80923919D01*
X127493598Y-80864376D01*
X127443352Y-80729659D01*
X127357190Y-80614562D01*
X127297775Y-80570084D01*
X127237524Y-80505368D01*
X127203687Y-80423677D01*
X127200532Y-80335312D01*
X127228455Y-80251416D01*
X127283937Y-80182568D01*
X127359981Y-80137449D01*
X127446997Y-80121750D01*
X142553003Y-80121750D01*
X142640019Y-80137449D01*
X142716063Y-80182568D01*
X142771545Y-80251416D01*
X142799468Y-80335312D01*
X142796313Y-80423677D01*
X142762476Y-80505368D01*
X142702225Y-80570084D01*
X142642809Y-80614562D01*
X142556647Y-80729659D01*
X142506401Y-80864376D01*
X142500000Y-80923919D01*
X142500000Y-81171749D01*
X142500001Y-81171750D01*
X144999999Y-81171750D01*
X145000000Y-81171749D01*
X145000000Y-80923919D01*
X144993598Y-80864376D01*
X144943352Y-80729659D01*
X144857189Y-80614560D01*
X144742090Y-80528398D01*
X144619839Y-80482801D01*
X144545481Y-80439130D01*
X144490478Y-80372715D01*
X144461427Y-80291522D01*
X144461811Y-80205290D01*
X144491586Y-80124359D01*
X144547179Y-80058438D01*
X144621924Y-80015432D01*
X144706855Y-80000500D01*
X159650500Y-80000500D01*
X159745788Y-80019454D01*
X159826570Y-80073430D01*
X159880546Y-80154212D01*
X159899500Y-80249500D01*
X159899500Y-129750500D01*
X159880546Y-129845788D01*
X159826570Y-129926570D01*
X159745788Y-129980546D01*
X159650500Y-129999500D01*
X110149500Y-129999500D01*
X110054212Y-129980546D01*
X109973430Y-129926570D01*
X109919454Y-129845788D01*
X109900500Y-129750500D01*
X109900500Y-117547869D01*
X112384500Y-117547869D01*
X112385242Y-117554769D01*
X112390909Y-117607483D01*
X112441204Y-117742331D01*
X112462805Y-117771186D01*
X112527453Y-117857546D01*
X112570578Y-117889828D01*
X112642669Y-117943796D01*
X112777517Y-117994091D01*
X112837127Y-118000500D01*
X114682872Y-118000499D01*
X114742483Y-117994091D01*
X114877331Y-117943796D01*
X114992546Y-117857546D01*
X115078796Y-117742331D01*
X115078798Y-117742325D01*
X115079958Y-117740776D01*
X115151926Y-117676037D01*
X115243143Y-117643634D01*
X115339825Y-117648466D01*
X115427357Y-117689801D01*
X115576468Y-117800083D01*
X115785470Y-117905460D01*
X116009270Y-117973998D01*
X116049999Y-117979213D01*
X116050000Y-117979213D01*
X116050000Y-115022309D01*
X115895913Y-115055517D01*
X115678733Y-115142786D01*
X115479422Y-115265507D01*
X115443772Y-115296884D01*
X115374330Y-115340103D01*
X115294631Y-115358490D01*
X115213273Y-115350061D01*
X115139036Y-115315724D01*
X115079931Y-115259186D01*
X115078796Y-115257670D01*
X115078796Y-115257669D01*
X114992546Y-115142454D01*
X114992392Y-115142339D01*
X114969399Y-115125126D01*
X114877331Y-115056204D01*
X114742483Y-115005909D01*
X114742482Y-115005908D01*
X114742480Y-115005908D01*
X114682874Y-114999500D01*
X112837130Y-114999500D01*
X112779387Y-115005708D01*
X112777517Y-115005909D01*
X112642669Y-115056204D01*
X112642667Y-115056205D01*
X112642668Y-115056205D01*
X112527453Y-115142453D01*
X112464463Y-115226599D01*
X112441204Y-115257669D01*
X112419551Y-115315724D01*
X112390908Y-115392519D01*
X112384500Y-115452125D01*
X112384500Y-117547869D01*
X109900500Y-117547869D01*
X109900500Y-114047869D01*
X112384500Y-114047869D01*
X112385086Y-114053317D01*
X112390909Y-114107483D01*
X112441204Y-114242331D01*
X112465249Y-114274451D01*
X112527453Y-114357546D01*
X112570578Y-114389828D01*
X112642669Y-114443796D01*
X112777517Y-114494091D01*
X112837127Y-114500500D01*
X114682872Y-114500499D01*
X114742483Y-114494091D01*
X114877331Y-114443796D01*
X114992546Y-114357546D01*
X115078796Y-114242331D01*
X115078798Y-114242325D01*
X115079958Y-114240776D01*
X115151926Y-114176037D01*
X115243143Y-114143634D01*
X115339825Y-114148466D01*
X115427357Y-114189801D01*
X115576468Y-114300083D01*
X115785470Y-114405460D01*
X116009270Y-114473998D01*
X116049999Y-114479213D01*
X116050000Y-114479213D01*
X116050000Y-114477691D01*
X116550000Y-114477691D01*
X116704086Y-114444482D01*
X116921266Y-114357213D01*
X117120576Y-114234492D01*
X117296276Y-114079855D01*
X117372669Y-113985245D01*
X117443123Y-113925330D01*
X117530584Y-113895261D01*
X117622986Y-113899186D01*
X117707581Y-113936563D01*
X117749401Y-113978740D01*
X117751280Y-113976941D01*
X117765941Y-113992238D01*
X117765943Y-113992241D01*
X117927956Y-114161283D01*
X118116208Y-114300513D01*
X118212176Y-114348899D01*
X118325277Y-114405924D01*
X118325279Y-114405924D01*
X118325282Y-114405926D01*
X118549163Y-114474489D01*
X118733599Y-114498106D01*
X118791117Y-114505472D01*
X118828693Y-114517637D01*
X118909936Y-114498769D01*
X119015345Y-114494292D01*
X119244234Y-114444962D01*
X119461494Y-114357660D01*
X119660875Y-114234896D01*
X119836641Y-114080203D01*
X119983735Y-113898030D01*
X120097926Y-113693619D01*
X120175929Y-113472849D01*
X120193413Y-113370883D01*
X120215500Y-113242074D01*
X120215500Y-112816572D01*
X120200616Y-112641697D01*
X120141618Y-112415113D01*
X120124209Y-112376599D01*
X120045172Y-112201750D01*
X119914057Y-112007759D01*
X119752044Y-111838717D01*
X119563792Y-111699487D01*
X119513194Y-111673976D01*
X119354722Y-111594075D01*
X119231060Y-111556204D01*
X119130837Y-111525511D01*
X119130835Y-111525510D01*
X119130833Y-111525510D01*
X118893862Y-111495165D01*
X118858185Y-111483614D01*
X118785078Y-111500592D01*
X118704182Y-111504028D01*
X118664652Y-111505708D01*
X118435763Y-111555038D01*
X118218507Y-111642339D01*
X118019127Y-111765102D01*
X117843354Y-111919801D01*
X117766706Y-112014728D01*
X117696251Y-112074644D01*
X117608787Y-112104712D01*
X117516384Y-112100785D01*
X117431787Y-112063403D01*
X117390264Y-112021522D01*
X117388331Y-112023375D01*
X117211714Y-111839095D01*
X117023531Y-111699916D01*
X116814529Y-111594539D01*
X116590729Y-111526001D01*
X116550000Y-111520786D01*
X116550000Y-114477691D01*
X116050000Y-114477691D01*
X116050000Y-111522309D01*
X115895913Y-111555517D01*
X115678733Y-111642786D01*
X115479422Y-111765507D01*
X115443772Y-111796884D01*
X115374330Y-111840103D01*
X115294631Y-111858490D01*
X115213273Y-111850061D01*
X115139036Y-111815724D01*
X115079931Y-111759186D01*
X115078796Y-111757670D01*
X115078796Y-111757669D01*
X114992546Y-111642454D01*
X114992392Y-111642339D01*
X114930049Y-111595669D01*
X114877331Y-111556204D01*
X114742483Y-111505909D01*
X114742482Y-111505908D01*
X114742480Y-111505908D01*
X114682874Y-111499500D01*
X112837130Y-111499500D01*
X112779387Y-111505708D01*
X112777517Y-111505909D01*
X112642669Y-111556204D01*
X112642667Y-111556205D01*
X112642668Y-111556205D01*
X112527453Y-111642453D01*
X112452046Y-111743185D01*
X112441204Y-111757669D01*
X112419719Y-111815273D01*
X112390908Y-111892519D01*
X112384500Y-111952125D01*
X112384500Y-114047869D01*
X109900500Y-114047869D01*
X109900500Y-102304429D01*
X109919454Y-102209141D01*
X109973430Y-102128359D01*
X110054212Y-102074383D01*
X110149500Y-102055429D01*
X110244788Y-102074383D01*
X110325570Y-102128359D01*
X110328091Y-102130880D01*
X110332793Y-102135712D01*
X110392595Y-102198844D01*
X110412518Y-102215307D01*
X111467011Y-103269799D01*
X111480720Y-103284671D01*
X111511662Y-103321099D01*
X111573456Y-103368074D01*
X111578770Y-103372229D01*
X111646551Y-103426714D01*
X111650423Y-103429116D01*
X111729356Y-103465634D01*
X111735437Y-103468547D01*
X111804979Y-103503037D01*
X111804984Y-103503038D01*
X111813392Y-103507208D01*
X111817670Y-103508714D01*
X111826828Y-103510730D01*
X111826833Y-103510732D01*
X111902655Y-103527421D01*
X111909174Y-103528949D01*
X111952435Y-103539708D01*
X111993601Y-103549946D01*
X111998123Y-103550500D01*
X112007503Y-103550500D01*
X112085087Y-103550500D01*
X112091827Y-103550591D01*
X112097240Y-103550737D01*
X112166576Y-103552615D01*
X112253631Y-103570866D01*
X112328719Y-103618552D01*
X112382254Y-103689588D01*
X112407406Y-103774908D01*
X112410907Y-103807478D01*
X112410909Y-103807483D01*
X112461204Y-103942331D01*
X112499951Y-103994090D01*
X112547453Y-104057546D01*
X112597260Y-104094831D01*
X112662669Y-104143796D01*
X112724079Y-104166700D01*
X112798191Y-104210163D01*
X112853121Y-104276231D01*
X112882326Y-104357036D01*
X112882326Y-104442957D01*
X112853124Y-104523763D01*
X112798194Y-104589832D01*
X112724079Y-104633299D01*
X112662669Y-104656204D01*
X112547453Y-104742453D01*
X112481136Y-104831043D01*
X112461204Y-104857669D01*
X112430834Y-104939095D01*
X112410908Y-104992519D01*
X112404500Y-105052125D01*
X112404500Y-107147869D01*
X112409318Y-107192687D01*
X112410909Y-107207483D01*
X112461204Y-107342331D01*
X112499598Y-107393619D01*
X112547453Y-107457546D01*
X112601827Y-107498250D01*
X112662669Y-107543796D01*
X112724079Y-107566700D01*
X112798191Y-107610163D01*
X112853121Y-107676231D01*
X112882326Y-107757036D01*
X112882326Y-107842957D01*
X112853124Y-107923763D01*
X112798194Y-107989832D01*
X112724079Y-108033299D01*
X112662669Y-108056204D01*
X112547453Y-108142453D01*
X112490397Y-108218672D01*
X112461204Y-108257669D01*
X112431090Y-108338409D01*
X112410908Y-108392519D01*
X112404500Y-108452125D01*
X112404500Y-110547869D01*
X112408713Y-110587057D01*
X112410909Y-110607483D01*
X112461204Y-110742331D01*
X112486301Y-110775856D01*
X112547453Y-110857546D01*
X112590578Y-110889828D01*
X112662669Y-110943796D01*
X112797517Y-110994091D01*
X112857127Y-111000500D01*
X114702872Y-111000499D01*
X114762483Y-110994091D01*
X114897331Y-110943796D01*
X115012546Y-110857546D01*
X115098796Y-110742331D01*
X115098798Y-110742325D01*
X115099958Y-110740776D01*
X115171926Y-110676037D01*
X115263143Y-110643634D01*
X115359825Y-110648466D01*
X115447357Y-110689801D01*
X115596468Y-110800083D01*
X115805470Y-110905460D01*
X116029270Y-110973998D01*
X116069999Y-110979213D01*
X116070000Y-110979213D01*
X116070000Y-109499000D01*
X116088954Y-109403712D01*
X116142930Y-109322930D01*
X116223712Y-109268954D01*
X116319000Y-109250000D01*
X116321000Y-109250000D01*
X116416288Y-109268954D01*
X116497070Y-109322930D01*
X116551046Y-109403712D01*
X116570000Y-109499000D01*
X116570000Y-110977691D01*
X116724086Y-110944482D01*
X116941266Y-110857213D01*
X117140576Y-110734492D01*
X117316276Y-110579855D01*
X117392669Y-110485245D01*
X117463123Y-110425330D01*
X117550584Y-110395261D01*
X117642986Y-110399186D01*
X117727581Y-110436563D01*
X117769401Y-110478740D01*
X117771280Y-110476941D01*
X117785941Y-110492238D01*
X117785943Y-110492241D01*
X117947956Y-110661283D01*
X118136208Y-110800513D01*
X118193383Y-110829340D01*
X118345277Y-110905924D01*
X118345279Y-110905924D01*
X118345282Y-110905926D01*
X118569163Y-110974489D01*
X118801411Y-111004229D01*
X118806136Y-111004834D01*
X118841814Y-111016384D01*
X118914917Y-110999407D01*
X119035345Y-110994292D01*
X119264234Y-110944962D01*
X119481494Y-110857660D01*
X119680875Y-110734896D01*
X119856641Y-110580203D01*
X119932964Y-110485677D01*
X120003414Y-110425765D01*
X120090873Y-110395695D01*
X120183274Y-110399618D01*
X120267869Y-110436994D01*
X120309332Y-110478807D01*
X120311280Y-110476941D01*
X120325941Y-110492238D01*
X120325943Y-110492241D01*
X120487956Y-110661283D01*
X120676208Y-110800513D01*
X120733383Y-110829340D01*
X120885277Y-110905924D01*
X120885279Y-110905924D01*
X120885282Y-110905926D01*
X121109163Y-110974489D01*
X121341411Y-111004229D01*
X121575345Y-110994292D01*
X121804234Y-110944962D01*
X122021494Y-110857660D01*
X122220875Y-110734896D01*
X122396641Y-110580203D01*
X122543735Y-110398030D01*
X122657926Y-110193619D01*
X122735929Y-109972849D01*
X122753265Y-109871744D01*
X122775500Y-109742074D01*
X122775500Y-109316572D01*
X122760616Y-109141697D01*
X122701618Y-108915114D01*
X122701617Y-108915110D01*
X122691277Y-108892236D01*
X122670304Y-108813368D01*
X122675958Y-108731949D01*
X122707635Y-108656731D01*
X122761931Y-108595797D01*
X122833013Y-108555692D01*
X122834250Y-108555241D01*
X122834255Y-108555241D01*
X122903050Y-108530201D01*
X122909818Y-108527848D01*
X122979334Y-108504814D01*
X122979337Y-108504811D01*
X122989857Y-108501326D01*
X122999112Y-108495238D01*
X122999117Y-108495237D01*
X123060286Y-108455004D01*
X123066323Y-108451158D01*
X123128656Y-108412712D01*
X123128659Y-108412708D01*
X123138088Y-108406893D01*
X123145693Y-108398831D01*
X123145696Y-108398830D01*
X123195918Y-108345596D01*
X123200896Y-108340470D01*
X124669209Y-106872157D01*
X124696571Y-106848512D01*
X124708530Y-106839610D01*
X124736855Y-106805852D01*
X124751535Y-106789832D01*
X124751591Y-106789777D01*
X124769733Y-106766830D01*
X124774226Y-106761314D01*
X124821302Y-106705214D01*
X124821303Y-106705210D01*
X124828425Y-106696724D01*
X124833108Y-106686680D01*
X124833111Y-106686677D01*
X124864080Y-106620261D01*
X124867175Y-106613870D01*
X124900040Y-106548433D01*
X124900040Y-106548430D01*
X124905017Y-106538522D01*
X124922056Y-106455999D01*
X124923624Y-106448923D01*
X124940500Y-106377721D01*
X124940500Y-106377716D01*
X124943055Y-106366935D01*
X124942732Y-106355861D01*
X124942734Y-106355856D01*
X124940605Y-106282690D01*
X124940500Y-106275449D01*
X124940500Y-101272811D01*
X124943129Y-101236724D01*
X124944156Y-101229710D01*
X124945289Y-101221977D01*
X124943322Y-101199500D01*
X124941448Y-101178075D01*
X124940500Y-101156372D01*
X124940500Y-101156292D01*
X124937113Y-101127318D01*
X124936376Y-101120108D01*
X124933267Y-101084571D01*
X124929998Y-101047202D01*
X124929996Y-101047198D01*
X124929031Y-101036159D01*
X124900203Y-100956951D01*
X124897825Y-100950110D01*
X124897788Y-100949999D01*
X124874814Y-100880665D01*
X124874813Y-100880664D01*
X124871328Y-100870145D01*
X124865237Y-100860885D01*
X124865237Y-100860883D01*
X124824996Y-100799700D01*
X124821138Y-100793644D01*
X124782711Y-100731344D01*
X124782708Y-100731341D01*
X124776889Y-100721907D01*
X124715617Y-100664100D01*
X124710420Y-100659053D01*
X122623430Y-98572062D01*
X122569454Y-98491280D01*
X122550500Y-98395992D01*
X122550500Y-96599553D01*
X122567627Y-96508800D01*
X122616654Y-96430532D01*
X122690834Y-96375516D01*
X122779964Y-96351321D01*
X122871781Y-96361275D01*
X122895737Y-96368541D01*
X122953368Y-96386024D01*
X123149500Y-96405341D01*
X123345632Y-96386024D01*
X123473033Y-96347376D01*
X123569719Y-96337854D01*
X123662690Y-96366056D01*
X123737792Y-96427689D01*
X123783591Y-96513371D01*
X123789197Y-96570283D01*
X123792255Y-96569982D01*
X123813976Y-96790520D01*
X123871185Y-96979113D01*
X123964091Y-97152929D01*
X124089116Y-97305271D01*
X124241458Y-97430296D01*
X124250302Y-97435023D01*
X124415273Y-97523202D01*
X124603868Y-97580412D01*
X124774907Y-97597257D01*
X124862453Y-97622645D01*
X124934996Y-97677839D01*
X124982815Y-97755444D01*
X124999500Y-97845058D01*
X124999500Y-98429619D01*
X125004387Y-98475078D01*
X125005909Y-98489233D01*
X125056204Y-98624081D01*
X125099329Y-98681688D01*
X125142453Y-98739296D01*
X125163672Y-98755180D01*
X125257669Y-98825546D01*
X125392517Y-98875841D01*
X125452127Y-98882250D01*
X126850500Y-98882249D01*
X126927445Y-98894436D01*
X126996858Y-98929804D01*
X127051945Y-98984890D01*
X127087313Y-99054304D01*
X127099500Y-99131249D01*
X127099500Y-101475994D01*
X127091015Y-101540440D01*
X127066140Y-101600494D01*
X127026569Y-101652064D01*
X125980796Y-102697834D01*
X125953426Y-102721488D01*
X125941469Y-102730389D01*
X125913130Y-102764162D01*
X125898476Y-102780156D01*
X125898407Y-102780224D01*
X125880312Y-102803109D01*
X125875743Y-102808717D01*
X125821575Y-102873272D01*
X125785961Y-102949645D01*
X125782809Y-102956154D01*
X125744983Y-103031474D01*
X125727945Y-103113990D01*
X125726379Y-103121055D01*
X125706943Y-103203063D01*
X125709395Y-103287310D01*
X125709500Y-103294551D01*
X125709500Y-109845993D01*
X125701016Y-109910439D01*
X125676140Y-109970493D01*
X125636570Y-110022063D01*
X120380793Y-115277837D01*
X120353422Y-115301491D01*
X120341469Y-115310389D01*
X120313130Y-115344162D01*
X120298476Y-115360156D01*
X120298407Y-115360224D01*
X120280312Y-115383109D01*
X120275742Y-115388719D01*
X120232081Y-115440753D01*
X120168673Y-115494676D01*
X120091036Y-115524689D01*
X120007845Y-115527438D01*
X119928396Y-115502614D01*
X119861568Y-115452992D01*
X119752047Y-115338720D01*
X119752046Y-115338719D01*
X119752044Y-115338717D01*
X119563792Y-115199487D01*
X119540307Y-115187646D01*
X119354722Y-115094075D01*
X119231060Y-115056204D01*
X119130837Y-115025511D01*
X119130835Y-115025510D01*
X119130833Y-115025510D01*
X118888881Y-114994527D01*
X118851306Y-114982362D01*
X118770059Y-115001230D01*
X118697078Y-115004330D01*
X118664652Y-115005708D01*
X118435763Y-115055038D01*
X118218507Y-115142339D01*
X118019127Y-115265102D01*
X117843354Y-115419801D01*
X117766706Y-115514728D01*
X117696251Y-115574644D01*
X117608787Y-115604712D01*
X117516384Y-115600785D01*
X117431787Y-115563403D01*
X117390264Y-115521522D01*
X117388331Y-115523375D01*
X117211714Y-115339095D01*
X117023531Y-115199916D01*
X116814529Y-115094539D01*
X116590729Y-115026001D01*
X116550000Y-115020786D01*
X116550000Y-117977691D01*
X116704086Y-117944482D01*
X116921266Y-117857213D01*
X117120576Y-117734492D01*
X117296276Y-117579855D01*
X117372669Y-117485245D01*
X117443123Y-117425330D01*
X117530584Y-117395261D01*
X117622986Y-117399186D01*
X117707581Y-117436563D01*
X117749401Y-117478740D01*
X117751280Y-117476941D01*
X117765941Y-117492238D01*
X117765943Y-117492241D01*
X117927956Y-117661283D01*
X118116208Y-117800513D01*
X118184036Y-117834711D01*
X118325277Y-117905924D01*
X118325279Y-117905924D01*
X118325282Y-117905926D01*
X118549163Y-117974489D01*
X118733599Y-117998106D01*
X118791117Y-118005472D01*
X118828693Y-118017637D01*
X118909936Y-117998769D01*
X119015345Y-117994292D01*
X119244234Y-117944962D01*
X119461494Y-117857660D01*
X119660875Y-117734896D01*
X119684645Y-117713976D01*
X119695993Y-117703989D01*
X119777549Y-117656130D01*
X119871069Y-117642131D01*
X119963064Y-117664011D01*
X120040267Y-117718615D01*
X120091544Y-117798066D01*
X120109500Y-117890907D01*
X120109500Y-118609228D01*
X120092835Y-118698790D01*
X120045071Y-118776364D01*
X119972601Y-118831566D01*
X119885126Y-118857007D01*
X119794355Y-118849282D01*
X119712437Y-118809424D01*
X119695482Y-118796884D01*
X119563792Y-118699487D01*
X119560397Y-118697775D01*
X119354722Y-118594075D01*
X119231060Y-118556204D01*
X119130837Y-118525511D01*
X119130835Y-118525510D01*
X119130833Y-118525510D01*
X118888881Y-118494527D01*
X118851306Y-118482362D01*
X118770059Y-118501230D01*
X118697078Y-118504330D01*
X118664652Y-118505708D01*
X118435763Y-118555038D01*
X118218507Y-118642339D01*
X118019127Y-118765102D01*
X117843354Y-118919801D01*
X117766706Y-119014728D01*
X117696251Y-119074644D01*
X117608787Y-119104712D01*
X117516384Y-119100785D01*
X117431787Y-119063403D01*
X117390264Y-119021522D01*
X117388331Y-119023375D01*
X117211714Y-118839095D01*
X117023531Y-118699916D01*
X116814529Y-118594539D01*
X116590729Y-118526001D01*
X116550000Y-118520786D01*
X116550000Y-121477691D01*
X116704086Y-121444482D01*
X116921266Y-121357213D01*
X117120576Y-121234492D01*
X117296276Y-121079855D01*
X117372669Y-120985245D01*
X117443123Y-120925330D01*
X117530584Y-120895261D01*
X117622986Y-120899186D01*
X117707581Y-120936563D01*
X117749401Y-120978740D01*
X117751280Y-120976941D01*
X117765941Y-120992238D01*
X117765943Y-120992241D01*
X117927956Y-121161283D01*
X118116208Y-121300513D01*
X118155971Y-121320561D01*
X118325277Y-121405924D01*
X118325279Y-121405924D01*
X118325282Y-121405926D01*
X118549163Y-121474489D01*
X118781411Y-121504229D01*
X119015345Y-121494292D01*
X119244234Y-121444962D01*
X119461494Y-121357660D01*
X119660875Y-121234896D01*
X119836641Y-121080203D01*
X119983735Y-120898030D01*
X119991478Y-120884168D01*
X120037396Y-120825045D01*
X120098816Y-120782239D01*
X120170185Y-120759625D01*
X120189181Y-120759529D01*
X120189032Y-120757825D01*
X120218022Y-120755288D01*
X120218023Y-120755289D01*
X120235495Y-120753760D01*
X120261941Y-120751447D01*
X120283640Y-120750500D01*
X120283711Y-120750500D01*
X120302331Y-120748323D01*
X120312672Y-120747114D01*
X120319843Y-120746380D01*
X120392797Y-120739999D01*
X120392798Y-120739998D01*
X120403836Y-120739033D01*
X120414254Y-120735241D01*
X120414255Y-120735241D01*
X120483053Y-120710200D01*
X120489818Y-120707848D01*
X120559334Y-120684814D01*
X120559337Y-120684811D01*
X120569857Y-120681326D01*
X120579112Y-120675238D01*
X120579117Y-120675237D01*
X120640286Y-120635004D01*
X120646323Y-120631158D01*
X120708656Y-120592712D01*
X120708659Y-120592708D01*
X120718088Y-120586893D01*
X120725693Y-120578831D01*
X120725696Y-120578830D01*
X120775937Y-120525576D01*
X120780880Y-120520486D01*
X120971695Y-120329671D01*
X121052472Y-120275699D01*
X121147760Y-120256745D01*
X121243048Y-120275699D01*
X121323829Y-120329675D01*
X121377806Y-120410457D01*
X121396760Y-120505745D01*
X121396760Y-121297169D01*
X121397120Y-121300513D01*
X121403169Y-121356783D01*
X121453464Y-121491631D01*
X121494006Y-121545788D01*
X121539712Y-121606844D01*
X121539713Y-121606844D01*
X121539714Y-121606846D01*
X121597223Y-121649897D01*
X121650830Y-121704797D01*
X121685177Y-121773413D01*
X121697000Y-121849230D01*
X121697000Y-122702810D01*
X121696179Y-122723016D01*
X121692299Y-122770669D01*
X121702776Y-122847577D01*
X121703595Y-122854262D01*
X121712998Y-122940719D01*
X121714043Y-122945176D01*
X121724327Y-122973169D01*
X121739576Y-123055613D01*
X121726598Y-123138444D01*
X121686862Y-123212273D01*
X121624875Y-123268727D01*
X121547664Y-123301407D01*
X121463984Y-123306607D01*
X121397877Y-123299500D01*
X119302130Y-123299500D01*
X119242517Y-123305908D01*
X119242517Y-123305909D01*
X119107669Y-123356204D01*
X119102610Y-123359991D01*
X118992453Y-123442453D01*
X118940632Y-123511679D01*
X118906204Y-123557669D01*
X118878477Y-123632009D01*
X118855908Y-123692519D01*
X118849500Y-123752125D01*
X118849500Y-124055571D01*
X118830546Y-124150859D01*
X118776570Y-124231641D01*
X118695788Y-124285617D01*
X118600500Y-124304571D01*
X118505212Y-124285617D01*
X118424430Y-124231641D01*
X118370488Y-124177699D01*
X118356781Y-124162830D01*
X118352952Y-124158323D01*
X118325837Y-124126400D01*
X118301123Y-124107613D01*
X118264069Y-124079444D01*
X118258759Y-124075293D01*
X118190957Y-124020792D01*
X118187070Y-124018381D01*
X118108102Y-123981846D01*
X118102027Y-123978935D01*
X118032521Y-123944464D01*
X118032517Y-123944463D01*
X118024117Y-123940297D01*
X118019811Y-123938780D01*
X117968300Y-123927442D01*
X117934834Y-123920075D01*
X117928300Y-123918544D01*
X117895955Y-123910500D01*
X117852995Y-123899816D01*
X117852994Y-123899815D01*
X117843923Y-123897560D01*
X117839352Y-123897000D01*
X117829997Y-123897000D01*
X117752413Y-123897000D01*
X117745598Y-123896907D01*
X117745547Y-123896905D01*
X117742347Y-123896818D01*
X117669030Y-123883665D01*
X117602884Y-123849414D01*
X117549829Y-123797132D01*
X117506846Y-123739714D01*
X117491297Y-123728074D01*
X117391631Y-123653464D01*
X117391629Y-123653463D01*
X117362970Y-123632009D01*
X117363115Y-123631815D01*
X117348672Y-123623558D01*
X117295195Y-123563416D01*
X117263693Y-123489359D01*
X117261666Y-123463283D01*
X117258857Y-123463666D01*
X117244731Y-123359991D01*
X117243911Y-123353297D01*
X117238060Y-123299500D01*
X117235514Y-123276090D01*
X117235512Y-123276086D01*
X117234500Y-123266774D01*
X117233462Y-123262344D01*
X117230226Y-123253537D01*
X117230226Y-123253532D01*
X117203439Y-123180618D01*
X117201240Y-123174373D01*
X117176444Y-123100779D01*
X117176442Y-123100776D01*
X117173442Y-123091871D01*
X117171489Y-123087795D01*
X117124645Y-123014510D01*
X117121088Y-123008776D01*
X117076238Y-122934233D01*
X117073431Y-122930643D01*
X117011923Y-122869135D01*
X117007219Y-122864301D01*
X116947407Y-122801157D01*
X116927472Y-122784684D01*
X116632988Y-122490199D01*
X116619280Y-122475329D01*
X116588337Y-122438900D01*
X116526569Y-122391944D01*
X116521259Y-122387793D01*
X116453457Y-122333292D01*
X116449570Y-122330881D01*
X116370602Y-122294346D01*
X116364527Y-122291435D01*
X116295021Y-122256964D01*
X116295017Y-122256963D01*
X116286617Y-122252797D01*
X116282311Y-122251280D01*
X116230800Y-122239942D01*
X116197334Y-122232575D01*
X116190800Y-122231044D01*
X116172311Y-122226446D01*
X116115495Y-122212316D01*
X116115494Y-122212315D01*
X116106423Y-122210060D01*
X116101852Y-122209500D01*
X116092497Y-122209500D01*
X116014913Y-122209500D01*
X116008171Y-122209409D01*
X115921198Y-122207053D01*
X115895465Y-122209500D01*
X114859500Y-122209500D01*
X114764212Y-122190546D01*
X114683430Y-122136570D01*
X114629454Y-122055788D01*
X114610500Y-121960500D01*
X114610500Y-121716202D01*
X114621876Y-121641797D01*
X114654966Y-121574192D01*
X114706746Y-121519562D01*
X114772482Y-121482902D01*
X114877331Y-121443796D01*
X114992546Y-121357546D01*
X115078796Y-121242331D01*
X115078798Y-121242325D01*
X115079958Y-121240776D01*
X115151926Y-121176037D01*
X115243143Y-121143634D01*
X115339825Y-121148466D01*
X115427357Y-121189801D01*
X115576468Y-121300083D01*
X115785470Y-121405460D01*
X116009270Y-121473998D01*
X116049999Y-121479213D01*
X116050000Y-121479213D01*
X116050000Y-118522309D01*
X115895913Y-118555517D01*
X115678733Y-118642786D01*
X115479422Y-118765507D01*
X115443772Y-118796884D01*
X115374330Y-118840103D01*
X115294631Y-118858490D01*
X115213273Y-118850061D01*
X115139036Y-118815724D01*
X115079931Y-118759186D01*
X115078796Y-118757670D01*
X115078796Y-118757669D01*
X114992546Y-118642454D01*
X114992392Y-118642339D01*
X114948162Y-118609228D01*
X114877331Y-118556204D01*
X114742483Y-118505909D01*
X114742482Y-118505908D01*
X114742480Y-118505908D01*
X114682874Y-118499500D01*
X112837130Y-118499500D01*
X112779387Y-118505708D01*
X112777517Y-118505909D01*
X112642669Y-118556204D01*
X112642667Y-118556205D01*
X112642668Y-118556205D01*
X112527453Y-118642453D01*
X112452046Y-118743185D01*
X112441204Y-118757669D01*
X112426578Y-118796884D01*
X112390908Y-118892519D01*
X112384500Y-118952125D01*
X112384500Y-121047869D01*
X112387976Y-121080201D01*
X112390909Y-121107483D01*
X112441204Y-121242331D01*
X112481629Y-121296332D01*
X112527453Y-121357546D01*
X112570578Y-121389828D01*
X112642669Y-121443796D01*
X112747517Y-121482902D01*
X112813254Y-121519562D01*
X112865034Y-121574192D01*
X112898124Y-121641797D01*
X112909500Y-121716202D01*
X112909500Y-122455310D01*
X112908679Y-122475516D01*
X112904799Y-122523169D01*
X112915276Y-122600077D01*
X112916095Y-122606762D01*
X112925498Y-122693219D01*
X112926544Y-122697680D01*
X112956536Y-122779320D01*
X112958773Y-122785674D01*
X112986542Y-122868086D01*
X112988529Y-122872232D01*
X113035364Y-122945506D01*
X113038917Y-122951235D01*
X113083754Y-123025754D01*
X113086579Y-123029368D01*
X113148091Y-123090881D01*
X113152792Y-123095711D01*
X113212596Y-123158845D01*
X113232521Y-123175310D01*
X113687004Y-123629792D01*
X113700714Y-123644664D01*
X113731661Y-123681099D01*
X113793456Y-123728074D01*
X113798770Y-123732229D01*
X113866551Y-123786714D01*
X113870423Y-123789116D01*
X113949356Y-123825634D01*
X113955437Y-123828547D01*
X114024979Y-123863037D01*
X114024984Y-123863038D01*
X114033392Y-123867208D01*
X114037670Y-123868714D01*
X114046828Y-123870730D01*
X114046833Y-123870732D01*
X114122655Y-123887421D01*
X114129174Y-123888949D01*
X114197006Y-123905818D01*
X114213601Y-123909946D01*
X114218123Y-123910500D01*
X114227503Y-123910500D01*
X114305088Y-123910500D01*
X114311829Y-123910590D01*
X114389433Y-123912693D01*
X114389436Y-123912692D01*
X114398802Y-123912946D01*
X114424536Y-123910500D01*
X114901200Y-123910500D01*
X114996488Y-123929454D01*
X115077270Y-123983430D01*
X115131246Y-124064212D01*
X115150200Y-124159500D01*
X115150200Y-125445609D01*
X115156609Y-125505226D01*
X115197067Y-125613701D01*
X115212766Y-125700716D01*
X115197067Y-125787730D01*
X115152275Y-125907824D01*
X115103222Y-125988301D01*
X115027773Y-126044782D01*
X114936737Y-126069175D01*
X114843156Y-126057985D01*
X114760437Y-126012817D01*
X114700433Y-125940142D01*
X114687117Y-125915756D01*
X114515641Y-125686690D01*
X114313310Y-125484359D01*
X114084244Y-125312883D01*
X113958675Y-125244317D01*
X113833106Y-125175750D01*
X113565009Y-125075756D01*
X113565008Y-125075755D01*
X113285410Y-125014933D01*
X113000000Y-124994520D01*
X112714590Y-125014933D01*
X112434990Y-125075756D01*
X112166893Y-125175750D01*
X111915754Y-125312884D01*
X111686692Y-125484357D01*
X111484357Y-125686692D01*
X111312884Y-125915754D01*
X111175750Y-126166893D01*
X111075756Y-126434990D01*
X111014933Y-126714590D01*
X110999595Y-126929049D01*
X110994520Y-127000000D01*
X111014933Y-127285410D01*
X111071366Y-127544830D01*
X111075756Y-127565009D01*
X111175750Y-127833106D01*
X111243700Y-127957546D01*
X111312883Y-128084244D01*
X111484359Y-128313310D01*
X111686690Y-128515641D01*
X111915756Y-128687117D01*
X112166893Y-128824249D01*
X112434991Y-128924244D01*
X112714590Y-128985067D01*
X113000000Y-129005480D01*
X113285410Y-128985067D01*
X113565009Y-128924244D01*
X113833107Y-128824249D01*
X113881488Y-128797831D01*
X125150000Y-128797831D01*
X125156401Y-128857373D01*
X125206647Y-128992090D01*
X125292810Y-129107189D01*
X125407909Y-129193352D01*
X125542626Y-129243598D01*
X125602169Y-129250000D01*
X126399999Y-129250000D01*
X126400000Y-129249999D01*
X126900000Y-129249999D01*
X126900001Y-129250000D01*
X127697831Y-129250000D01*
X127757373Y-129243598D01*
X127892090Y-129193352D01*
X128007189Y-129107189D01*
X128093352Y-128992090D01*
X128143598Y-128857373D01*
X128150000Y-128797831D01*
X128150000Y-128250001D01*
X128149999Y-128250000D01*
X126900001Y-128250000D01*
X126900000Y-128250001D01*
X126900000Y-129249999D01*
X126400000Y-129249999D01*
X126400000Y-128250001D01*
X126399999Y-128250000D01*
X125150001Y-128250000D01*
X125150000Y-128250001D01*
X125150000Y-128797831D01*
X113881488Y-128797831D01*
X114084244Y-128687117D01*
X114313310Y-128515641D01*
X114515641Y-128313310D01*
X114687117Y-128084244D01*
X114824249Y-127833107D01*
X114864055Y-127726381D01*
X114909173Y-127650338D01*
X114978022Y-127594856D01*
X115061918Y-127566932D01*
X115150283Y-127570087D01*
X115231974Y-127603924D01*
X115286455Y-127654647D01*
X115408609Y-127746092D01*
X115543326Y-127796338D01*
X115602869Y-127802740D01*
X116149999Y-127802740D01*
X116150000Y-127802739D01*
X116650000Y-127802739D01*
X116650001Y-127802740D01*
X117197131Y-127802740D01*
X117256673Y-127796338D01*
X117391390Y-127746092D01*
X117506489Y-127659929D01*
X117592652Y-127544830D01*
X117642898Y-127410113D01*
X117649300Y-127350571D01*
X117649300Y-126902501D01*
X117649299Y-126902500D01*
X116650001Y-126902500D01*
X116650000Y-126902501D01*
X116650000Y-127802739D01*
X116150000Y-127802739D01*
X116150000Y-126651500D01*
X116168954Y-126556212D01*
X116222930Y-126475430D01*
X116303712Y-126421454D01*
X116399000Y-126402500D01*
X117649299Y-126402500D01*
X117662917Y-126388881D01*
X117664243Y-126381343D01*
X117707280Y-126306579D01*
X117773245Y-126250986D01*
X117854219Y-126221238D01*
X117940484Y-126220904D01*
X118021687Y-126250026D01*
X118088074Y-126305101D01*
X118101663Y-126321100D01*
X118101666Y-126321102D01*
X118163447Y-126368067D01*
X118168737Y-126372202D01*
X118206429Y-126402500D01*
X118236561Y-126426721D01*
X118240415Y-126429111D01*
X118248933Y-126433052D01*
X118248936Y-126433054D01*
X118319391Y-126465649D01*
X118325452Y-126468554D01*
X118403380Y-126507203D01*
X118407683Y-126508718D01*
X118416832Y-126510731D01*
X118416833Y-126510732D01*
X118492633Y-126527415D01*
X118499181Y-126528950D01*
X118574505Y-126547684D01*
X118574506Y-126547684D01*
X118583597Y-126549945D01*
X118588123Y-126550500D01*
X118597503Y-126550500D01*
X118600501Y-126550500D01*
X118695789Y-126569454D01*
X118776571Y-126623430D01*
X118830547Y-126704212D01*
X118849501Y-126799500D01*
X118849501Y-127647872D01*
X118855909Y-127707483D01*
X118906204Y-127842331D01*
X118949329Y-127899938D01*
X118992453Y-127957546D01*
X119035577Y-127989828D01*
X119107669Y-128043796D01*
X119242517Y-128094091D01*
X119302127Y-128100500D01*
X121397872Y-128100499D01*
X121457483Y-128094091D01*
X121592331Y-128043796D01*
X121707546Y-127957546D01*
X121793796Y-127842331D01*
X121844091Y-127707483D01*
X121850500Y-127647873D01*
X121850500Y-126799500D01*
X121869454Y-126704212D01*
X121923430Y-126623430D01*
X122004212Y-126569454D01*
X122099500Y-126550500D01*
X124980420Y-126550500D01*
X125054823Y-126561876D01*
X125122428Y-126594964D01*
X125177056Y-126646742D01*
X125191605Y-126672828D01*
X125206203Y-126692329D01*
X125206204Y-126692331D01*
X125212840Y-126701195D01*
X125249763Y-126771781D01*
X125262506Y-126850415D01*
X125249764Y-126929049D01*
X125212842Y-126999635D01*
X125206648Y-127007909D01*
X125156401Y-127142626D01*
X125150000Y-127202169D01*
X125150000Y-127749999D01*
X125150001Y-127750000D01*
X128149999Y-127750000D01*
X128150000Y-127749999D01*
X128150000Y-127202169D01*
X128143598Y-127142626D01*
X128093351Y-127007909D01*
X128087160Y-126999638D01*
X128050236Y-126929051D01*
X128037493Y-126850415D01*
X128050236Y-126771779D01*
X128087157Y-126701199D01*
X128093796Y-126692331D01*
X128144091Y-126557483D01*
X128150500Y-126497873D01*
X128150499Y-124902128D01*
X128144091Y-124842517D01*
X128093796Y-124707669D01*
X128087470Y-124699218D01*
X128050547Y-124628631D01*
X128037805Y-124549996D01*
X128050549Y-124471361D01*
X128087470Y-124400780D01*
X128093796Y-124392331D01*
X128093797Y-124392326D01*
X128108395Y-124372827D01*
X128122944Y-124346742D01*
X128177572Y-124294964D01*
X128245177Y-124261876D01*
X128319580Y-124250500D01*
X128560500Y-124250500D01*
X128655788Y-124269454D01*
X128736570Y-124323430D01*
X128790546Y-124404212D01*
X128809500Y-124499500D01*
X128809500Y-128207869D01*
X128809501Y-128207874D01*
X128815909Y-128267483D01*
X128866204Y-128402331D01*
X128909328Y-128459938D01*
X128952453Y-128517546D01*
X128995578Y-128549828D01*
X129067669Y-128603796D01*
X129202517Y-128654091D01*
X129262127Y-128660500D01*
X132857872Y-128660499D01*
X132917483Y-128654091D01*
X133052331Y-128603796D01*
X133167546Y-128517546D01*
X133253796Y-128402331D01*
X133304091Y-128267483D01*
X133310500Y-128207873D01*
X133310500Y-128207831D01*
X133890000Y-128207831D01*
X133896401Y-128267373D01*
X133946647Y-128402090D01*
X134032810Y-128517189D01*
X134147909Y-128603352D01*
X134282626Y-128653598D01*
X134342169Y-128660000D01*
X135889999Y-128660000D01*
X135890000Y-128659999D01*
X136390000Y-128659999D01*
X136390001Y-128660000D01*
X137937831Y-128660000D01*
X137997373Y-128653598D01*
X138132090Y-128603352D01*
X138247189Y-128517189D01*
X138333352Y-128402090D01*
X138383598Y-128267373D01*
X138390000Y-128207831D01*
X138390000Y-125430001D01*
X138389999Y-125430000D01*
X136390001Y-125430000D01*
X136390000Y-125430001D01*
X136390000Y-128659999D01*
X135890000Y-128659999D01*
X135890000Y-125430001D01*
X135889999Y-125430000D01*
X133890001Y-125430000D01*
X133890000Y-125430001D01*
X133890000Y-128207831D01*
X133310500Y-128207831D01*
X133310499Y-124929999D01*
X133890000Y-124929999D01*
X133890001Y-124930000D01*
X135456446Y-124930000D01*
X135456445Y-124929999D01*
X135300000Y-124773553D01*
X135300000Y-124773554D01*
X135299999Y-124773553D01*
X135300000Y-124773553D01*
X134669968Y-124143522D01*
X134624176Y-124080496D01*
X134600103Y-124006404D01*
X134600103Y-123928500D01*
X134624176Y-123854408D01*
X134651350Y-123817006D01*
X134651350Y-123800756D01*
X134615990Y-123747835D01*
X134597036Y-123652547D01*
X134615990Y-123557259D01*
X134646446Y-123511678D01*
X134646446Y-123491146D01*
X134624177Y-123460496D01*
X134600103Y-123386404D01*
X134600103Y-123308498D01*
X134624177Y-123234406D01*
X134651350Y-123197006D01*
X134651350Y-123180754D01*
X134615990Y-123127833D01*
X134597037Y-123032546D01*
X134615991Y-122937258D01*
X134669968Y-122856477D01*
X135300000Y-122226447D01*
X135299999Y-122226447D01*
X135300000Y-122226446D01*
X135300000Y-122226447D01*
X135576477Y-121949968D01*
X135639503Y-121904177D01*
X135713594Y-121880103D01*
X135791499Y-121880103D01*
X135865590Y-121904176D01*
X135880742Y-121915184D01*
X135890000Y-121911350D01*
X135890000Y-121811349D01*
X136390000Y-121811349D01*
X136500001Y-121921350D01*
X136510769Y-121921350D01*
X136534405Y-121904177D01*
X136608497Y-121880103D01*
X136686402Y-121880102D01*
X136760494Y-121904176D01*
X136823521Y-121949967D01*
X137100001Y-122226447D01*
X137100000Y-122226447D01*
X137730031Y-122856477D01*
X137784008Y-122937258D01*
X137802962Y-123032545D01*
X137784009Y-123127832D01*
X137748650Y-123180753D01*
X137748650Y-123199245D01*
X137784007Y-123252161D01*
X137802961Y-123347449D01*
X137784008Y-123442736D01*
X137753553Y-123488316D01*
X137753553Y-123511679D01*
X137784008Y-123557258D01*
X137802962Y-123652545D01*
X137784009Y-123747832D01*
X137748650Y-123800753D01*
X137748650Y-123819246D01*
X137784009Y-123872165D01*
X137802962Y-123967453D01*
X137784008Y-124062741D01*
X137730032Y-124143522D01*
X137100000Y-124773554D01*
X137100000Y-124773553D01*
X136943554Y-124929999D01*
X136943554Y-124930000D01*
X138389999Y-124930000D01*
X138390000Y-124929999D01*
X138390000Y-122152169D01*
X138383598Y-122092626D01*
X138333352Y-121957909D01*
X138247189Y-121842810D01*
X138132090Y-121756647D01*
X137997373Y-121706401D01*
X137937831Y-121700000D01*
X136390001Y-121700000D01*
X136390000Y-121700001D01*
X136390000Y-121811349D01*
X135890000Y-121811349D01*
X135890000Y-121700001D01*
X135889999Y-121700000D01*
X134342169Y-121700000D01*
X134282626Y-121706401D01*
X134147909Y-121756647D01*
X134032810Y-121842810D01*
X133946647Y-121957909D01*
X133896401Y-122092626D01*
X133890000Y-122152169D01*
X133890000Y-124929999D01*
X133310499Y-124929999D01*
X133310499Y-122152128D01*
X133304091Y-122092517D01*
X133253796Y-121957669D01*
X133167813Y-121842810D01*
X133167546Y-121842453D01*
X133109938Y-121799329D01*
X133052331Y-121756204D01*
X132917483Y-121705909D01*
X132917482Y-121705908D01*
X132917480Y-121705908D01*
X132857874Y-121699500D01*
X129262130Y-121699500D01*
X129202526Y-121705908D01*
X129202517Y-121705909D01*
X129067669Y-121756204D01*
X129053185Y-121767046D01*
X128952453Y-121842453D01*
X128900878Y-121911350D01*
X128866204Y-121957669D01*
X128836703Y-122036766D01*
X128815908Y-122092519D01*
X128809500Y-122152125D01*
X128809500Y-122300500D01*
X128790546Y-122395788D01*
X128736570Y-122476570D01*
X128655788Y-122530546D01*
X128560500Y-122549500D01*
X128319580Y-122549500D01*
X128245177Y-122538124D01*
X128177572Y-122505036D01*
X128122944Y-122453258D01*
X128108394Y-122427171D01*
X128093796Y-122407671D01*
X128093796Y-122407669D01*
X128038636Y-122333985D01*
X128007546Y-122292453D01*
X127926600Y-122231858D01*
X127892331Y-122206204D01*
X127757483Y-122155909D01*
X127757482Y-122155908D01*
X127757480Y-122155908D01*
X127697874Y-122149500D01*
X125602130Y-122149500D01*
X125542526Y-122155908D01*
X125542517Y-122155909D01*
X125407669Y-122206204D01*
X125393185Y-122217046D01*
X125292453Y-122292453D01*
X125191605Y-122427171D01*
X125177056Y-122453258D01*
X125122428Y-122505036D01*
X125054823Y-122538124D01*
X124980420Y-122549500D01*
X123655427Y-122549500D01*
X123590976Y-122541014D01*
X123530918Y-122516135D01*
X123479347Y-122476559D01*
X123470920Y-122468131D01*
X123416951Y-122387353D01*
X123398000Y-122292072D01*
X123398000Y-121988185D01*
X123411889Y-121906185D01*
X123452008Y-121833334D01*
X123513879Y-121777757D01*
X123590602Y-121745656D01*
X123673616Y-121740612D01*
X123754428Y-121749300D01*
X124202499Y-121749300D01*
X124202500Y-121749299D01*
X124702500Y-121749299D01*
X124702501Y-121749300D01*
X125150571Y-121749300D01*
X125210113Y-121742898D01*
X125344830Y-121692652D01*
X125459929Y-121606489D01*
X125546092Y-121491390D01*
X125596338Y-121356673D01*
X125602740Y-121297131D01*
X125602740Y-120750001D01*
X125602739Y-120750000D01*
X124702501Y-120750000D01*
X124702500Y-120750001D01*
X124702500Y-121749299D01*
X124202500Y-121749299D01*
X124202500Y-120249999D01*
X124702500Y-120249999D01*
X124702501Y-120250000D01*
X125602739Y-120250000D01*
X125602740Y-120249999D01*
X125602740Y-119702869D01*
X125596338Y-119643326D01*
X125546092Y-119508609D01*
X125459929Y-119393510D01*
X125344830Y-119307347D01*
X125210113Y-119257101D01*
X125150571Y-119250700D01*
X124702501Y-119250700D01*
X124702500Y-119250701D01*
X124702500Y-120249999D01*
X124202500Y-120249999D01*
X124202500Y-119250701D01*
X124202499Y-119250700D01*
X123754429Y-119250700D01*
X123694882Y-119257101D01*
X123587729Y-119297067D01*
X123500715Y-119312766D01*
X123413701Y-119297068D01*
X123305221Y-119256608D01*
X123245614Y-119250200D01*
X123245613Y-119250200D01*
X121859499Y-119250200D01*
X121782555Y-119238014D01*
X121713142Y-119202646D01*
X121658055Y-119147560D01*
X121622687Y-119078146D01*
X121610500Y-119001201D01*
X121610500Y-116544099D01*
X137935700Y-116544099D01*
X137935701Y-116544100D01*
X138934999Y-116544100D01*
X138935000Y-116544099D01*
X138935000Y-115643861D01*
X138934999Y-115643860D01*
X138387869Y-115643860D01*
X138328326Y-115650261D01*
X138193609Y-115700507D01*
X138078510Y-115786670D01*
X137992347Y-115901769D01*
X137942101Y-116036486D01*
X137935700Y-116096029D01*
X137935700Y-116544099D01*
X121610500Y-116544099D01*
X121610500Y-116274008D01*
X121629454Y-116178720D01*
X121683430Y-116097938D01*
X122981714Y-114799654D01*
X123473537Y-114307831D01*
X133020000Y-114307831D01*
X133026401Y-114367373D01*
X133076647Y-114502090D01*
X133162810Y-114617189D01*
X133277909Y-114703352D01*
X133412626Y-114753598D01*
X133472169Y-114760000D01*
X133819999Y-114760000D01*
X133820000Y-114759999D01*
X133820000Y-114010001D01*
X133819999Y-114010000D01*
X133020001Y-114010000D01*
X133020000Y-114010001D01*
X133020000Y-114307831D01*
X123473537Y-114307831D01*
X126939209Y-110842157D01*
X126966571Y-110818512D01*
X126978530Y-110809610D01*
X127006855Y-110775852D01*
X127021535Y-110759832D01*
X127021591Y-110759777D01*
X127039733Y-110736830D01*
X127044226Y-110731314D01*
X127091302Y-110675214D01*
X127091303Y-110675210D01*
X127098425Y-110666724D01*
X127103108Y-110656680D01*
X127103111Y-110656677D01*
X127134080Y-110590261D01*
X127137175Y-110583870D01*
X127170040Y-110518433D01*
X127170040Y-110518430D01*
X127175017Y-110508522D01*
X127192056Y-110425999D01*
X127193624Y-110418923D01*
X127196798Y-110405530D01*
X127210500Y-110347721D01*
X127210500Y-110347716D01*
X127213055Y-110336935D01*
X127212732Y-110325861D01*
X127212734Y-110325856D01*
X127210605Y-110252690D01*
X127210500Y-110245449D01*
X127210500Y-108777831D01*
X129500000Y-108777831D01*
X129506401Y-108837373D01*
X129556647Y-108972090D01*
X129642810Y-109087189D01*
X129757909Y-109173352D01*
X129892626Y-109223598D01*
X129952169Y-109230000D01*
X130249999Y-109230000D01*
X130250000Y-109229999D01*
X130250000Y-108430001D01*
X130249999Y-108430000D01*
X129500001Y-108430000D01*
X129500000Y-108430001D01*
X129500000Y-108777831D01*
X127210500Y-108777831D01*
X127210500Y-103694008D01*
X127229454Y-103598720D01*
X127283430Y-103517939D01*
X128329202Y-102472165D01*
X128356571Y-102448512D01*
X128368530Y-102439610D01*
X128396855Y-102405852D01*
X128411535Y-102389832D01*
X128411591Y-102389777D01*
X128429733Y-102366830D01*
X128434226Y-102361314D01*
X128481302Y-102305214D01*
X128481303Y-102305210D01*
X128488425Y-102296724D01*
X128493108Y-102286680D01*
X128493111Y-102286677D01*
X128524080Y-102220261D01*
X128527175Y-102213870D01*
X128560040Y-102148433D01*
X128560040Y-102148430D01*
X128560622Y-102147271D01*
X132751540Y-102147271D01*
X132757941Y-102206813D01*
X132808187Y-102341530D01*
X132894350Y-102456629D01*
X133009449Y-102542792D01*
X133144166Y-102593038D01*
X133203709Y-102599440D01*
X133600979Y-102599440D01*
X133600980Y-102599439D01*
X133600980Y-101750001D01*
X133600979Y-101750000D01*
X132751541Y-101750000D01*
X132751540Y-101750001D01*
X132751540Y-102147271D01*
X128560622Y-102147271D01*
X128565017Y-102138522D01*
X128582056Y-102055999D01*
X128583624Y-102048923D01*
X128600500Y-101977721D01*
X128600500Y-101977716D01*
X128603055Y-101966935D01*
X128602732Y-101955861D01*
X128602734Y-101955856D01*
X128600605Y-101882690D01*
X128600500Y-101875449D01*
X128600500Y-100680750D01*
X128619454Y-100585462D01*
X128673430Y-100504680D01*
X128754212Y-100450704D01*
X128849500Y-100431750D01*
X129034999Y-100431750D01*
X129035000Y-100431749D01*
X129035000Y-99180750D01*
X129053954Y-99085462D01*
X129107930Y-99004680D01*
X129188712Y-98950704D01*
X129284000Y-98931750D01*
X129286000Y-98931750D01*
X129381288Y-98950704D01*
X129462070Y-99004680D01*
X129516046Y-99085462D01*
X129535000Y-99180750D01*
X129535000Y-100431749D01*
X129535001Y-100431750D01*
X129782831Y-100431750D01*
X129869069Y-100422478D01*
X129919282Y-100413418D01*
X129974313Y-100423346D01*
X129997515Y-100425840D01*
X129997517Y-100425841D01*
X130057127Y-100432250D01*
X131052872Y-100432249D01*
X131112483Y-100425841D01*
X131112484Y-100425840D01*
X131137568Y-100423144D01*
X131189999Y-100413684D01*
X131242432Y-100423144D01*
X131267516Y-100425840D01*
X131267517Y-100425841D01*
X131327127Y-100432250D01*
X132322872Y-100432249D01*
X132382483Y-100425841D01*
X132382484Y-100425840D01*
X132407568Y-100423144D01*
X132459999Y-100413684D01*
X132512435Y-100423144D01*
X132537516Y-100425840D01*
X132537517Y-100425841D01*
X132562472Y-100428524D01*
X132648899Y-100454236D01*
X132720502Y-100509043D01*
X132767891Y-100585757D01*
X132784851Y-100674318D01*
X132769158Y-100763112D01*
X132757941Y-100793184D01*
X132751540Y-100852729D01*
X132751540Y-101249999D01*
X132751541Y-101250000D01*
X133851980Y-101250000D01*
X133947268Y-101268954D01*
X134028050Y-101322930D01*
X134082026Y-101403712D01*
X134100980Y-101499000D01*
X134100980Y-102599439D01*
X134100981Y-102599440D01*
X134498251Y-102599440D01*
X134557793Y-102593038D01*
X134692510Y-102542791D01*
X134750361Y-102499485D01*
X134820947Y-102462561D01*
X134899582Y-102449818D01*
X134978217Y-102462560D01*
X135048803Y-102499483D01*
X135107249Y-102543236D01*
X135151891Y-102559886D01*
X135229135Y-102606053D01*
X135284926Y-102676663D01*
X135311974Y-102762493D01*
X135306746Y-102852332D01*
X135269926Y-102934445D01*
X135206322Y-102998108D01*
X135204570Y-102999316D01*
X135167185Y-103041515D01*
X135156878Y-103052464D01*
X134674955Y-103534386D01*
X134664007Y-103544692D01*
X134621815Y-103582071D01*
X134589788Y-103628469D01*
X134580885Y-103640568D01*
X134573889Y-103649500D01*
X134545667Y-103685523D01*
X134525442Y-103721383D01*
X134505195Y-103774769D01*
X134499441Y-103788660D01*
X134476004Y-103840734D01*
X134464948Y-103880399D01*
X134458066Y-103937072D01*
X134455805Y-103951930D01*
X134445642Y-104007394D01*
X134449046Y-104063665D01*
X134449500Y-104078699D01*
X134449500Y-104645500D01*
X134430546Y-104740788D01*
X134376570Y-104821569D01*
X134295789Y-104875546D01*
X134200501Y-104894500D01*
X133927119Y-104894500D01*
X133926588Y-104894558D01*
X133873411Y-104894557D01*
X133872880Y-104894500D01*
X133427130Y-104894500D01*
X133367517Y-104900908D01*
X133367517Y-104900909D01*
X133232669Y-104951204D01*
X133222936Y-104958490D01*
X133117453Y-105037453D01*
X133031203Y-105152670D01*
X132987127Y-105270844D01*
X132953162Y-105333047D01*
X132903047Y-105383162D01*
X132840844Y-105417127D01*
X132722670Y-105461203D01*
X132607453Y-105547453D01*
X132521203Y-105662670D01*
X132474937Y-105786715D01*
X132426838Y-105866136D01*
X132352986Y-105922414D01*
X132263651Y-105947723D01*
X132171255Y-105938544D01*
X132144149Y-105924634D01*
X132142636Y-105928132D01*
X132113764Y-105915638D01*
X132077273Y-105899846D01*
X132056217Y-105889531D01*
X132021367Y-105870371D01*
X132010330Y-105867538D01*
X131973374Y-105854886D01*
X131971082Y-105853894D01*
X131962926Y-105850365D01*
X131962924Y-105850364D01*
X131962923Y-105850364D01*
X131923658Y-105844144D01*
X131900695Y-105839389D01*
X131862178Y-105829500D01*
X131862177Y-105829500D01*
X131850793Y-105829500D01*
X131811840Y-105826434D01*
X131800596Y-105824653D01*
X131800595Y-105824653D01*
X131761669Y-105828332D01*
X131761011Y-105828395D01*
X131737578Y-105829500D01*
X131669580Y-105829500D01*
X131595177Y-105818124D01*
X131527572Y-105785036D01*
X131472944Y-105733258D01*
X131458394Y-105707171D01*
X131443796Y-105687671D01*
X131443796Y-105687669D01*
X131378451Y-105600379D01*
X131357546Y-105572453D01*
X131291563Y-105523059D01*
X131242331Y-105486204D01*
X131107483Y-105435909D01*
X131107482Y-105435908D01*
X131107480Y-105435908D01*
X131047874Y-105429500D01*
X129952130Y-105429500D01*
X129892526Y-105435908D01*
X129892517Y-105435909D01*
X129757669Y-105486204D01*
X129757667Y-105486205D01*
X129757668Y-105486205D01*
X129642453Y-105572453D01*
X129567046Y-105673185D01*
X129556204Y-105687669D01*
X129534338Y-105746296D01*
X129505908Y-105822519D01*
X129499500Y-105882125D01*
X129499500Y-107077869D01*
X129502367Y-107104534D01*
X129505909Y-107137483D01*
X129540625Y-107230562D01*
X129545525Y-107243698D01*
X129561224Y-107330714D01*
X129545525Y-107417729D01*
X129506401Y-107522624D01*
X129500000Y-107582169D01*
X129500000Y-107929999D01*
X129500001Y-107930000D01*
X130501000Y-107930000D01*
X130596288Y-107948954D01*
X130677070Y-108002930D01*
X130731046Y-108083712D01*
X130750000Y-108179000D01*
X130750000Y-109229999D01*
X130750001Y-109230000D01*
X131047831Y-109230000D01*
X131107374Y-109223598D01*
X131213484Y-109184022D01*
X131307611Y-109168425D01*
X131400694Y-109189371D01*
X131479066Y-109243786D01*
X131531221Y-109323680D01*
X131549500Y-109417323D01*
X131549500Y-111227414D01*
X131530546Y-111322702D01*
X131476570Y-111403484D01*
X131403484Y-111476570D01*
X131322702Y-111530546D01*
X131227414Y-111549500D01*
X130673554Y-111549500D01*
X130589668Y-111534944D01*
X130515589Y-111492979D01*
X130358538Y-111364089D01*
X130184725Y-111271185D01*
X129996132Y-111213976D01*
X129800000Y-111194658D01*
X129603867Y-111213976D01*
X129415274Y-111271185D01*
X129241458Y-111364091D01*
X129089116Y-111489116D01*
X128964091Y-111641458D01*
X128871185Y-111815274D01*
X128813976Y-112003867D01*
X128794658Y-112199999D01*
X128813976Y-112396132D01*
X128871185Y-112584725D01*
X128964091Y-112758541D01*
X129089116Y-112910883D01*
X129241458Y-113035908D01*
X129241462Y-113035910D01*
X129415273Y-113128814D01*
X129603868Y-113186024D01*
X129800000Y-113205341D01*
X129996132Y-113186024D01*
X130184727Y-113128814D01*
X130358538Y-113035910D01*
X130510883Y-112910883D01*
X130510882Y-112910883D01*
X130515589Y-112907021D01*
X130589668Y-112865056D01*
X130673554Y-112850500D01*
X131500696Y-112850500D01*
X131524965Y-112853178D01*
X131538292Y-112852759D01*
X131538296Y-112852760D01*
X131606289Y-112850622D01*
X131614111Y-112850500D01*
X131641816Y-112850500D01*
X131662829Y-112848845D01*
X131702569Y-112847597D01*
X131713499Y-112844421D01*
X131751763Y-112836498D01*
X131755882Y-112835977D01*
X131763058Y-112835071D01*
X131800038Y-112820428D01*
X131822203Y-112812839D01*
X131860398Y-112801744D01*
X131870195Y-112795949D01*
X131905284Y-112778759D01*
X131915871Y-112774568D01*
X131948041Y-112751194D01*
X131967632Y-112738325D01*
X132001865Y-112718081D01*
X132009917Y-112710028D01*
X132039621Y-112684657D01*
X132048837Y-112677963D01*
X132074184Y-112647322D01*
X132089952Y-112629992D01*
X132589754Y-112130190D01*
X132632418Y-112096015D01*
X132642104Y-112089868D01*
X132675273Y-112064778D01*
X132755166Y-112039257D01*
X132839001Y-112041710D01*
X132917265Y-112071859D01*
X132981080Y-112126282D01*
X133023206Y-112198806D01*
X133076647Y-112342090D01*
X133162810Y-112457188D01*
X133194173Y-112480667D01*
X133256324Y-112548387D01*
X133289672Y-112634041D01*
X133289672Y-112725959D01*
X133256324Y-112811613D01*
X133194173Y-112879333D01*
X133162810Y-112902811D01*
X133076647Y-113017909D01*
X133026401Y-113152626D01*
X133020000Y-113212169D01*
X133020000Y-113509999D01*
X133020001Y-113510000D01*
X134071000Y-113510000D01*
X134166288Y-113528954D01*
X134247070Y-113582930D01*
X134301046Y-113663712D01*
X134320000Y-113759000D01*
X134320000Y-114759999D01*
X134320001Y-114760000D01*
X134667831Y-114760000D01*
X134727375Y-114753598D01*
X134832268Y-114714475D01*
X134919285Y-114698775D01*
X135006299Y-114714474D01*
X135112517Y-114754091D01*
X135172127Y-114760500D01*
X136367872Y-114760499D01*
X136427483Y-114754091D01*
X136562331Y-114703796D01*
X136677546Y-114617546D01*
X136763796Y-114502331D01*
X136814091Y-114367483D01*
X136820500Y-114307873D01*
X136820499Y-113699498D01*
X136832686Y-113622555D01*
X136868054Y-113553142D01*
X136923140Y-113498055D01*
X136992554Y-113462687D01*
X137069499Y-113450500D01*
X137217035Y-113450500D01*
X137300920Y-113465055D01*
X137338704Y-113486459D01*
X137339832Y-113484349D01*
X137423283Y-113528954D01*
X137535273Y-113588814D01*
X137723868Y-113646024D01*
X137920000Y-113665341D01*
X138116132Y-113646024D01*
X138304727Y-113588814D01*
X138478538Y-113495910D01*
X138478539Y-113495908D01*
X138478541Y-113495908D01*
X138630883Y-113370883D01*
X138755908Y-113218541D01*
X138759314Y-113212169D01*
X138848814Y-113044727D01*
X138906024Y-112856132D01*
X138925341Y-112660000D01*
X138906024Y-112463868D01*
X138848814Y-112275273D01*
X138755910Y-112101462D01*
X138755908Y-112101458D01*
X138630883Y-111949116D01*
X138478541Y-111824091D01*
X138304725Y-111731185D01*
X138116132Y-111673976D01*
X137920000Y-111654658D01*
X137723867Y-111673976D01*
X137535274Y-111731185D01*
X137361462Y-111824089D01*
X137297515Y-111876570D01*
X137278082Y-111892519D01*
X137277521Y-111892979D01*
X137203442Y-111934944D01*
X137119556Y-111949500D01*
X137069500Y-111949500D01*
X136974212Y-111930546D01*
X136893431Y-111876570D01*
X136839454Y-111795788D01*
X136820500Y-111700500D01*
X136820499Y-111052130D01*
X136820499Y-111052127D01*
X136814091Y-110992517D01*
X136763796Y-110857669D01*
X136677546Y-110742454D01*
X136675304Y-110740776D01*
X136557335Y-110652464D01*
X136511354Y-110628007D01*
X136463575Y-110583278D01*
X136429101Y-110527644D01*
X136420568Y-110508686D01*
X136414808Y-110494781D01*
X136413845Y-110492241D01*
X136394818Y-110442070D01*
X136394815Y-110442066D01*
X136394555Y-110441379D01*
X136374337Y-110405530D01*
X136352637Y-110377831D01*
X138200000Y-110377831D01*
X138206401Y-110437373D01*
X138256647Y-110572090D01*
X138342810Y-110687189D01*
X138457909Y-110773352D01*
X138592626Y-110823598D01*
X138652169Y-110830000D01*
X138949999Y-110830000D01*
X138950000Y-110829999D01*
X138950000Y-110030001D01*
X138949999Y-110030000D01*
X138200001Y-110030000D01*
X138200000Y-110030001D01*
X138200000Y-110377831D01*
X136352637Y-110377831D01*
X136339116Y-110360573D01*
X136330202Y-110348459D01*
X136329693Y-110347721D01*
X136298183Y-110302071D01*
X136255992Y-110264693D01*
X136245057Y-110254400D01*
X136180727Y-110190070D01*
X136126751Y-110109288D01*
X136107797Y-110014000D01*
X136126751Y-109918712D01*
X136180727Y-109837930D01*
X136261509Y-109783954D01*
X136356797Y-109765000D01*
X136372831Y-109765000D01*
X136432373Y-109758598D01*
X136567090Y-109708352D01*
X136682189Y-109622189D01*
X136768352Y-109507089D01*
X136812252Y-109389388D01*
X136846218Y-109327183D01*
X136896333Y-109277068D01*
X136958532Y-109243104D01*
X137077331Y-109198796D01*
X137192546Y-109112546D01*
X137278796Y-108997331D01*
X137317902Y-108892482D01*
X137354562Y-108826746D01*
X137409192Y-108774966D01*
X137476797Y-108741876D01*
X137551202Y-108730500D01*
X137994028Y-108730500D01*
X138087671Y-108748779D01*
X138167565Y-108800934D01*
X138221980Y-108879306D01*
X138242926Y-108972388D01*
X138227329Y-109066515D01*
X138206401Y-109122624D01*
X138200000Y-109182169D01*
X138200000Y-109529999D01*
X138200001Y-109530000D01*
X139201000Y-109530000D01*
X139296288Y-109548954D01*
X139377070Y-109602930D01*
X139431046Y-109683712D01*
X139450000Y-109779000D01*
X139450000Y-110829999D01*
X139450001Y-110830000D01*
X139747831Y-110830000D01*
X139807373Y-110823598D01*
X139942090Y-110773352D01*
X140057189Y-110687189D01*
X140143352Y-110572090D01*
X140157199Y-110534965D01*
X140200870Y-110460607D01*
X140267285Y-110405604D01*
X140348478Y-110376553D01*
X140434710Y-110376937D01*
X140515641Y-110406712D01*
X140581562Y-110462305D01*
X140624568Y-110537050D01*
X140639500Y-110621981D01*
X140639500Y-111236076D01*
X140626757Y-111314711D01*
X140591179Y-111382724D01*
X140540308Y-111519117D01*
X140533900Y-111578725D01*
X140533900Y-113674469D01*
X140536591Y-113699500D01*
X140540309Y-113734083D01*
X140590604Y-113868931D01*
X140659526Y-113960999D01*
X140676853Y-113984145D01*
X140695594Y-113998175D01*
X140749373Y-114053317D01*
X140783728Y-114122256D01*
X140795369Y-114198396D01*
X140783185Y-114274451D01*
X140758995Y-114348901D01*
X140740317Y-114526599D01*
X140758995Y-114704299D01*
X140789978Y-114799654D01*
X140802165Y-114876598D01*
X140789979Y-114953543D01*
X140758995Y-115048903D01*
X140740318Y-115226599D01*
X140758995Y-115404299D01*
X140789978Y-115499654D01*
X140802165Y-115576599D01*
X140789978Y-115653543D01*
X140757322Y-115754049D01*
X140714391Y-115833344D01*
X140646035Y-115892150D01*
X140561217Y-115922755D01*
X140471061Y-115921146D01*
X140387390Y-115887534D01*
X140321175Y-115826327D01*
X140291487Y-115786669D01*
X140176390Y-115700507D01*
X140041673Y-115650261D01*
X139982131Y-115643860D01*
X139435001Y-115643860D01*
X139435000Y-115643861D01*
X139435000Y-116795100D01*
X139416046Y-116890388D01*
X139362070Y-116971170D01*
X139281288Y-117025146D01*
X139186000Y-117044100D01*
X137935701Y-117044100D01*
X137935700Y-117044101D01*
X137935700Y-117492172D01*
X137944388Y-117572984D01*
X137939344Y-117655998D01*
X137907243Y-117732721D01*
X137851666Y-117794592D01*
X137778815Y-117834711D01*
X137696815Y-117848600D01*
X136991929Y-117848600D01*
X136931426Y-117841138D01*
X136874553Y-117819199D01*
X136784727Y-117771186D01*
X136784726Y-117771185D01*
X136784725Y-117771185D01*
X136596132Y-117713976D01*
X136400000Y-117694658D01*
X136203867Y-117713976D01*
X136015274Y-117771185D01*
X135841458Y-117864091D01*
X135689116Y-117989116D01*
X135564091Y-118141458D01*
X135471185Y-118315274D01*
X135413976Y-118503867D01*
X135394658Y-118700000D01*
X135413976Y-118896132D01*
X135471185Y-119084725D01*
X135564091Y-119258541D01*
X135689116Y-119410883D01*
X135841458Y-119535908D01*
X135841462Y-119535910D01*
X136015273Y-119628814D01*
X136203868Y-119686024D01*
X136400000Y-119705341D01*
X136596132Y-119686024D01*
X136784727Y-119628814D01*
X136877917Y-119579002D01*
X136934795Y-119557062D01*
X136995297Y-119549600D01*
X137835770Y-119549600D01*
X137911587Y-119561423D01*
X137980203Y-119595770D01*
X138035102Y-119649376D01*
X138078154Y-119706886D01*
X138193369Y-119793136D01*
X138328217Y-119843431D01*
X138387827Y-119849840D01*
X139982172Y-119849839D01*
X140041783Y-119843431D01*
X140176631Y-119793136D01*
X140211868Y-119766757D01*
X140294351Y-119726202D01*
X140385932Y-119718335D01*
X140474127Y-119744229D01*
X140546918Y-119800357D01*
X140578602Y-119852897D01*
X140590603Y-119868928D01*
X140590604Y-119868931D01*
X140603599Y-119886290D01*
X140676853Y-119984146D01*
X140679059Y-119985797D01*
X140792069Y-120070396D01*
X140926917Y-120120691D01*
X140986527Y-120127100D01*
X141127552Y-120127099D01*
X141209788Y-120141072D01*
X141282798Y-120181422D01*
X141338384Y-120243622D01*
X141370307Y-120320691D01*
X141374984Y-120403978D01*
X141351891Y-120484136D01*
X141303620Y-120552169D01*
X140898646Y-120957143D01*
X140894131Y-120961544D01*
X140835080Y-121017676D01*
X140805916Y-121059577D01*
X140794532Y-121074676D01*
X140762266Y-121114248D01*
X140752736Y-121132493D01*
X140736404Y-121159450D01*
X140724644Y-121176345D01*
X140704509Y-121223264D01*
X140696398Y-121240344D01*
X140672762Y-121285595D01*
X140667098Y-121305388D01*
X140656531Y-121335069D01*
X140648412Y-121353988D01*
X140638133Y-121404003D01*
X140633625Y-121422370D01*
X140612962Y-121494585D01*
X140595701Y-121558738D01*
X140540711Y-121633131D01*
X140462358Y-121682315D01*
X140371457Y-121699500D01*
X139762130Y-121699500D01*
X139702526Y-121705908D01*
X139702517Y-121705909D01*
X139567669Y-121756204D01*
X139553185Y-121767046D01*
X139452453Y-121842453D01*
X139400878Y-121911350D01*
X139366204Y-121957669D01*
X139336703Y-122036766D01*
X139315908Y-122092519D01*
X139309500Y-122152125D01*
X139309500Y-128207869D01*
X139309501Y-128207874D01*
X139315909Y-128267483D01*
X139366204Y-128402331D01*
X139409328Y-128459938D01*
X139452453Y-128517546D01*
X139495578Y-128549828D01*
X139567669Y-128603796D01*
X139702517Y-128654091D01*
X139762127Y-128660500D01*
X143357872Y-128660499D01*
X143417483Y-128654091D01*
X143552331Y-128603796D01*
X143667546Y-128517546D01*
X143753796Y-128402331D01*
X143804091Y-128267483D01*
X143810500Y-128207873D01*
X143810499Y-122152128D01*
X143804091Y-122092517D01*
X143753796Y-121957669D01*
X143667813Y-121842810D01*
X143667546Y-121842453D01*
X143609938Y-121799329D01*
X143552331Y-121756204D01*
X143417483Y-121705909D01*
X143417482Y-121705908D01*
X143417480Y-121705908D01*
X143411981Y-121705317D01*
X143323186Y-121678379D01*
X143250420Y-121620801D01*
X143203786Y-121540580D01*
X143189763Y-121448854D01*
X143210296Y-121358364D01*
X143262531Y-121281677D01*
X143321407Y-121222801D01*
X143325844Y-121218476D01*
X143384919Y-121162323D01*
X143414087Y-121120414D01*
X143425475Y-121105313D01*
X143457734Y-121065751D01*
X143467262Y-121047508D01*
X143483599Y-121020545D01*
X143495351Y-121003661D01*
X143495351Y-121003660D01*
X143495353Y-121003658D01*
X143515490Y-120956730D01*
X143523591Y-120939672D01*
X143547237Y-120894406D01*
X143552897Y-120874620D01*
X143563472Y-120844921D01*
X143564981Y-120841404D01*
X143571587Y-120826012D01*
X143581864Y-120775996D01*
X143586370Y-120757639D01*
X143600417Y-120708552D01*
X143601979Y-120688022D01*
X143606359Y-120656802D01*
X143606367Y-120656767D01*
X143610500Y-120636656D01*
X143610500Y-120585605D01*
X143611219Y-120566698D01*
X143615095Y-120515798D01*
X143612495Y-120495383D01*
X143610500Y-120463924D01*
X143610500Y-120299239D01*
X143629454Y-120203951D01*
X143680000Y-120128302D01*
X143680000Y-117153994D01*
X143672547Y-117124241D01*
X143676133Y-117051255D01*
X143691446Y-117008458D01*
X143691446Y-116976600D01*
X143344999Y-116630153D01*
X143315383Y-116659770D01*
X143315374Y-116659776D01*
X143171068Y-116804082D01*
X143090287Y-116858058D01*
X142994999Y-116877012D01*
X142899711Y-116858058D01*
X142818930Y-116804082D01*
X142645000Y-116630153D01*
X142615383Y-116659770D01*
X142615374Y-116659776D01*
X142471068Y-116804082D01*
X142390287Y-116858058D01*
X142294999Y-116877012D01*
X142199711Y-116858058D01*
X142118930Y-116804082D01*
X141945000Y-116630153D01*
X141915383Y-116659770D01*
X141915374Y-116659776D01*
X141771068Y-116804082D01*
X141690287Y-116858058D01*
X141594999Y-116877012D01*
X141499711Y-116858058D01*
X141418929Y-116804082D01*
X141417516Y-116802669D01*
X141363540Y-116721887D01*
X141344586Y-116626599D01*
X141363540Y-116531311D01*
X141417516Y-116450529D01*
X141488898Y-116379147D01*
X141488904Y-116379142D01*
X141591446Y-116276600D01*
X141488898Y-116174051D01*
X141488898Y-116174052D01*
X141417515Y-116102669D01*
X141371724Y-116039642D01*
X141347650Y-115965550D01*
X141347651Y-115887646D01*
X141371725Y-115813554D01*
X141417517Y-115750528D01*
X141488900Y-115679146D01*
X141591446Y-115576600D01*
X141488898Y-115474051D01*
X141488898Y-115474052D01*
X141417515Y-115402669D01*
X141371724Y-115339642D01*
X141347650Y-115265550D01*
X141347651Y-115187646D01*
X141371725Y-115113554D01*
X141417517Y-115050528D01*
X141488900Y-114979146D01*
X141591446Y-114876600D01*
X141488898Y-114774051D01*
X141488898Y-114774052D01*
X141417516Y-114702670D01*
X141371717Y-114639628D01*
X141347646Y-114565517D01*
X141347660Y-114487596D01*
X141371757Y-114413494D01*
X141417579Y-114350468D01*
X141418993Y-114349055D01*
X141499773Y-114295116D01*
X141595044Y-114276187D01*
X141690309Y-114295149D01*
X141771070Y-114349117D01*
X141842447Y-114420494D01*
X141842451Y-114420497D01*
X141945000Y-114523045D01*
X142047542Y-114420504D01*
X142047547Y-114420498D01*
X142118929Y-114349116D01*
X142199711Y-114295140D01*
X142294999Y-114276186D01*
X142390287Y-114295140D01*
X142471069Y-114349116D01*
X142542447Y-114420494D01*
X142542451Y-114420497D01*
X142645000Y-114523045D01*
X142747542Y-114420504D01*
X142747547Y-114420498D01*
X142818929Y-114349116D01*
X142899711Y-114295140D01*
X142994999Y-114276186D01*
X143090287Y-114295140D01*
X143171069Y-114349116D01*
X143242447Y-114420494D01*
X143242451Y-114420497D01*
X143345000Y-114523045D01*
X143447542Y-114420504D01*
X143447547Y-114420498D01*
X143518929Y-114349116D01*
X143599711Y-114295140D01*
X143694999Y-114276186D01*
X143790287Y-114295140D01*
X143871069Y-114349116D01*
X143942447Y-114420494D01*
X143942451Y-114420497D01*
X144045000Y-114523045D01*
X144147542Y-114420504D01*
X144147547Y-114420498D01*
X144218929Y-114349116D01*
X144299711Y-114295140D01*
X144394999Y-114276186D01*
X144490287Y-114295140D01*
X144571069Y-114349116D01*
X144642447Y-114420494D01*
X144642451Y-114420497D01*
X144745000Y-114523045D01*
X144847542Y-114420504D01*
X144847547Y-114420498D01*
X144918929Y-114349116D01*
X144999711Y-114295140D01*
X145094999Y-114276186D01*
X145190287Y-114295140D01*
X145271069Y-114349116D01*
X145272482Y-114350529D01*
X145326458Y-114431311D01*
X145345412Y-114526599D01*
X145326458Y-114621887D01*
X145272482Y-114702668D01*
X145128176Y-114846974D01*
X145128170Y-114846983D01*
X145098553Y-114876600D01*
X145272482Y-115050529D01*
X145326458Y-115131311D01*
X145345412Y-115226599D01*
X145326458Y-115321887D01*
X145272482Y-115402668D01*
X145128176Y-115546974D01*
X145128170Y-115546983D01*
X145098553Y-115576600D01*
X145272482Y-115750529D01*
X145326458Y-115831311D01*
X145345412Y-115926599D01*
X145326458Y-116021887D01*
X145272482Y-116102668D01*
X145128176Y-116246974D01*
X145128170Y-116246983D01*
X145098552Y-116276599D01*
X145272483Y-116450530D01*
X145326459Y-116531312D01*
X145345413Y-116626600D01*
X145326459Y-116721888D01*
X145272483Y-116802670D01*
X145271070Y-116804083D01*
X145190288Y-116858059D01*
X145095000Y-116877013D01*
X144999712Y-116858059D01*
X144918931Y-116804083D01*
X144745000Y-116630153D01*
X144715383Y-116659770D01*
X144715374Y-116659776D01*
X144395000Y-116980153D01*
X144180000Y-117195153D01*
X144180000Y-120127947D01*
X144216332Y-120175713D01*
X144241218Y-120238012D01*
X144248568Y-120304695D01*
X144247355Y-120352545D01*
X144256363Y-120402805D01*
X144258990Y-120421539D01*
X144264153Y-120472318D01*
X144270317Y-120491961D01*
X144277830Y-120522571D01*
X144281461Y-120542829D01*
X144300399Y-120590240D01*
X144306744Y-120608062D01*
X144322025Y-120656767D01*
X144332010Y-120674756D01*
X144345530Y-120703224D01*
X144353169Y-120722348D01*
X144381265Y-120764979D01*
X144391068Y-120781159D01*
X144415842Y-120825793D01*
X144429244Y-120841404D01*
X144448225Y-120866576D01*
X144459550Y-120883761D01*
X144495651Y-120919862D01*
X144508510Y-120933737D01*
X144541761Y-120972470D01*
X144558029Y-120985062D01*
X144581685Y-121005895D01*
X144872122Y-121296332D01*
X144920025Y-121363603D01*
X144943291Y-121442841D01*
X144939362Y-121525330D01*
X144908669Y-121601998D01*
X144854588Y-121664410D01*
X144783069Y-121705702D01*
X144647670Y-121756203D01*
X144532453Y-121842453D01*
X144480878Y-121911350D01*
X144446204Y-121957669D01*
X144416703Y-122036766D01*
X144395908Y-122092519D01*
X144389500Y-122152125D01*
X144389500Y-128207869D01*
X144389501Y-128207874D01*
X144395909Y-128267483D01*
X144446204Y-128402331D01*
X144489328Y-128459938D01*
X144532453Y-128517546D01*
X144575578Y-128549828D01*
X144647669Y-128603796D01*
X144782517Y-128654091D01*
X144842127Y-128660500D01*
X148437872Y-128660499D01*
X148497483Y-128654091D01*
X148632331Y-128603796D01*
X148747546Y-128517546D01*
X148833796Y-128402331D01*
X148884091Y-128267483D01*
X148890500Y-128207873D01*
X148890499Y-122152128D01*
X148884091Y-122092517D01*
X148833796Y-121957669D01*
X148747813Y-121842810D01*
X148747546Y-121842453D01*
X148689938Y-121799329D01*
X148632331Y-121756204D01*
X148497483Y-121705909D01*
X148497482Y-121705908D01*
X148497480Y-121705908D01*
X148437875Y-121699500D01*
X148437873Y-121699500D01*
X147812598Y-121699500D01*
X147735054Y-121687118D01*
X147665221Y-121651202D01*
X147610047Y-121595324D01*
X147575018Y-121525043D01*
X147569685Y-121508046D01*
X147562170Y-121477427D01*
X147558540Y-121457173D01*
X147553662Y-121444962D01*
X147539598Y-121409753D01*
X147533254Y-121391932D01*
X147517974Y-121343232D01*
X147507991Y-121325246D01*
X147494469Y-121296774D01*
X147486831Y-121277652D01*
X147458737Y-121235025D01*
X147448931Y-121218840D01*
X147424159Y-121174209D01*
X147410755Y-121158596D01*
X147391773Y-121133421D01*
X147380451Y-121116241D01*
X147369523Y-121105313D01*
X147344341Y-121080130D01*
X147331482Y-121066254D01*
X147298239Y-121027531D01*
X147281968Y-121014936D01*
X147258315Y-120994105D01*
X146223430Y-119959220D01*
X146169454Y-119878438D01*
X146150500Y-119783150D01*
X146150500Y-118578389D01*
X146135845Y-118434280D01*
X146103383Y-118330816D01*
X146077974Y-118249832D01*
X146077973Y-118249830D01*
X146070394Y-118225674D01*
X146070899Y-118225515D01*
X146064047Y-118208361D01*
X146056099Y-118145951D01*
X146056099Y-117578730D01*
X146056099Y-117578727D01*
X146049691Y-117519117D01*
X145999396Y-117384269D01*
X145913146Y-117269054D01*
X145913145Y-117269053D01*
X145894383Y-117243990D01*
X145852697Y-117157302D01*
X145846979Y-117061281D01*
X145868168Y-116999271D01*
X145867704Y-116999121D01*
X145931004Y-116804300D01*
X145949682Y-116626599D01*
X145941010Y-116544099D01*
X150045700Y-116544099D01*
X150045701Y-116544100D01*
X151044999Y-116544100D01*
X151045000Y-116544099D01*
X151045000Y-115643861D01*
X151044999Y-115643860D01*
X150497869Y-115643860D01*
X150438326Y-115650261D01*
X150303609Y-115700507D01*
X150188510Y-115786670D01*
X150102347Y-115901769D01*
X150052101Y-116036486D01*
X150045700Y-116096029D01*
X150045700Y-116544099D01*
X145941010Y-116544099D01*
X145931004Y-116448903D01*
X145900021Y-116353543D01*
X145887835Y-116276598D01*
X145900022Y-116199654D01*
X145931004Y-116104299D01*
X145949682Y-115926599D01*
X145931004Y-115748903D01*
X145900021Y-115653543D01*
X145887835Y-115576598D01*
X145900022Y-115499654D01*
X145931004Y-115404299D01*
X145949682Y-115226599D01*
X145931004Y-115048899D01*
X145900022Y-114953544D01*
X145887835Y-114876600D01*
X145900022Y-114799656D01*
X145931004Y-114704300D01*
X145949682Y-114526599D01*
X145931004Y-114348899D01*
X145882666Y-114200127D01*
X145870482Y-114121996D01*
X145883410Y-114043985D01*
X145920146Y-113973961D01*
X145998951Y-113868690D01*
X146049198Y-113733973D01*
X146055600Y-113674431D01*
X146055600Y-113651741D01*
X147646812Y-113651741D01*
X147711590Y-113697099D01*
X147911723Y-113790422D01*
X148125020Y-113847575D01*
X148345000Y-113866821D01*
X148564979Y-113847575D01*
X148778274Y-113790423D01*
X148977046Y-113697734D01*
X149063201Y-113675137D01*
X149151798Y-113684307D01*
X149231497Y-113724070D01*
X149340669Y-113805796D01*
X149475517Y-113856091D01*
X149535127Y-113862500D01*
X151154872Y-113862499D01*
X151214483Y-113856091D01*
X151349331Y-113805796D01*
X151464546Y-113719546D01*
X151550796Y-113604331D01*
X151601091Y-113469483D01*
X151607500Y-113409873D01*
X151607499Y-111790128D01*
X151601091Y-111730517D01*
X151550796Y-111595669D01*
X151483451Y-111505708D01*
X151464546Y-111480453D01*
X151406938Y-111437329D01*
X151349331Y-111394204D01*
X151214483Y-111343909D01*
X151214482Y-111343908D01*
X151214480Y-111343908D01*
X151154874Y-111337500D01*
X149535130Y-111337500D01*
X149475517Y-111343909D01*
X149340668Y-111394204D01*
X149231498Y-111475929D01*
X149151798Y-111515692D01*
X149063202Y-111524862D01*
X148977047Y-111502265D01*
X148778276Y-111409577D01*
X148564979Y-111352424D01*
X148345000Y-111333178D01*
X148125020Y-111352424D01*
X147911723Y-111409577D01*
X147711591Y-111502899D01*
X147646812Y-111548258D01*
X148345000Y-112246447D01*
X148522483Y-112423930D01*
X148576459Y-112504712D01*
X148595413Y-112600000D01*
X148576459Y-112695288D01*
X148522483Y-112776069D01*
X147646812Y-113651740D01*
X147646812Y-113651741D01*
X146055600Y-113651741D01*
X146055600Y-112876601D01*
X146055599Y-112876600D01*
X145199000Y-112876600D01*
X145103712Y-112857646D01*
X145022930Y-112803670D01*
X144968954Y-112722888D01*
X144950000Y-112627600D01*
X144950000Y-112600000D01*
X147078178Y-112600000D01*
X147097424Y-112819979D01*
X147154577Y-113033276D01*
X147247901Y-113233413D01*
X147293256Y-113298186D01*
X147293258Y-113298186D01*
X147991445Y-112600000D01*
X147293257Y-111901812D01*
X147247899Y-111966591D01*
X147154577Y-112166723D01*
X147097424Y-112380020D01*
X147078178Y-112600000D01*
X144950000Y-112600000D01*
X144950000Y-112376599D01*
X145450000Y-112376599D01*
X145450001Y-112376600D01*
X146055599Y-112376600D01*
X146055600Y-112376599D01*
X146055600Y-111578769D01*
X146049198Y-111519226D01*
X145998952Y-111384509D01*
X145912789Y-111269410D01*
X145797690Y-111183247D01*
X145662973Y-111133001D01*
X145603431Y-111126600D01*
X145450001Y-111126600D01*
X145450000Y-111126601D01*
X145450000Y-112376599D01*
X144950000Y-112376599D01*
X144950000Y-111126601D01*
X144949999Y-111126600D01*
X144929500Y-111126600D01*
X144834212Y-111107646D01*
X144753430Y-111053670D01*
X144699454Y-110972888D01*
X144680500Y-110877600D01*
X144680500Y-110627815D01*
X144688985Y-110563369D01*
X144713860Y-110503315D01*
X144757179Y-110428284D01*
X144766493Y-110399618D01*
X144815674Y-110248256D01*
X144835460Y-110060000D01*
X144821326Y-109925522D01*
X144826541Y-109842640D01*
X144858724Y-109766079D01*
X144914296Y-109704360D01*
X144987074Y-109664350D01*
X145068962Y-109650500D01*
X150997885Y-109650500D01*
X151022942Y-109653059D01*
X151034140Y-109652733D01*
X151034144Y-109652734D01*
X151103891Y-109650704D01*
X151107310Y-109650605D01*
X151114551Y-109650500D01*
X151143709Y-109650500D01*
X152485992Y-109650500D01*
X152581280Y-109669454D01*
X152662062Y-109723430D01*
X152666570Y-109727938D01*
X152720546Y-109808720D01*
X152739500Y-109904008D01*
X152739500Y-111236076D01*
X152726757Y-111314711D01*
X152691179Y-111382724D01*
X152640308Y-111519117D01*
X152633900Y-111578725D01*
X152633900Y-113674469D01*
X152636591Y-113699500D01*
X152640309Y-113734083D01*
X152690604Y-113868931D01*
X152759526Y-113960999D01*
X152776853Y-113984145D01*
X152795594Y-113998175D01*
X152849373Y-114053317D01*
X152883728Y-114122256D01*
X152895369Y-114198396D01*
X152883185Y-114274451D01*
X152858995Y-114348901D01*
X152840317Y-114526599D01*
X152858995Y-114704299D01*
X152889978Y-114799654D01*
X152902165Y-114876598D01*
X152889979Y-114953543D01*
X152858995Y-115048903D01*
X152840317Y-115226599D01*
X152858995Y-115404299D01*
X152889978Y-115499654D01*
X152902165Y-115576600D01*
X152889978Y-115653545D01*
X152860348Y-115744736D01*
X152817416Y-115824030D01*
X152749060Y-115882836D01*
X152664242Y-115913440D01*
X152574086Y-115911830D01*
X152490414Y-115878218D01*
X152424200Y-115817010D01*
X152401487Y-115786669D01*
X152286390Y-115700507D01*
X152151673Y-115650261D01*
X152092131Y-115643860D01*
X151545001Y-115643860D01*
X151545000Y-115643861D01*
X151545000Y-116795100D01*
X151526046Y-116890388D01*
X151472070Y-116971170D01*
X151391288Y-117025146D01*
X151296000Y-117044100D01*
X150045701Y-117044100D01*
X150045700Y-117044101D01*
X150045700Y-117492172D01*
X150054388Y-117572984D01*
X150049344Y-117655998D01*
X150017243Y-117732721D01*
X149961666Y-117794592D01*
X149888815Y-117834711D01*
X149806815Y-117848600D01*
X148255152Y-117848600D01*
X148203383Y-117843159D01*
X147993746Y-117798600D01*
X147804454Y-117798600D01*
X147619297Y-117837956D01*
X147576046Y-117857213D01*
X147446369Y-117914949D01*
X147293228Y-118026212D01*
X147166568Y-118166882D01*
X147071919Y-118330819D01*
X147013426Y-118510843D01*
X146993640Y-118699100D01*
X147013426Y-118887356D01*
X147071919Y-119067380D01*
X147071920Y-119067382D01*
X147071921Y-119067384D01*
X147166567Y-119231316D01*
X147293229Y-119371988D01*
X147446370Y-119483251D01*
X147619297Y-119560244D01*
X147804454Y-119599600D01*
X147993746Y-119599600D01*
X148203383Y-119555041D01*
X148255152Y-119549600D01*
X149945770Y-119549600D01*
X150021587Y-119561423D01*
X150090203Y-119595770D01*
X150145102Y-119649376D01*
X150188154Y-119706886D01*
X150303369Y-119793136D01*
X150438217Y-119843431D01*
X150497827Y-119849840D01*
X152092172Y-119849839D01*
X152151783Y-119843431D01*
X152286631Y-119793136D01*
X152314050Y-119772609D01*
X152396535Y-119732054D01*
X152488116Y-119724187D01*
X152576311Y-119750082D01*
X152649102Y-119806211D01*
X152671678Y-119843649D01*
X152776853Y-119984146D01*
X152854569Y-120042323D01*
X152892066Y-120070394D01*
X152920730Y-120091851D01*
X152920566Y-120092069D01*
X152938006Y-120102136D01*
X152992095Y-120164548D01*
X153022795Y-120241218D01*
X153026728Y-120323712D01*
X153003463Y-120402955D01*
X152955558Y-120470230D01*
X151799218Y-121626570D01*
X151718436Y-121680546D01*
X151623148Y-121699500D01*
X150262130Y-121699500D01*
X150202526Y-121705908D01*
X150202517Y-121705909D01*
X150067669Y-121756204D01*
X150053185Y-121767046D01*
X149952453Y-121842453D01*
X149900878Y-121911350D01*
X149866204Y-121957669D01*
X149836703Y-122036766D01*
X149815908Y-122092519D01*
X149809500Y-122152125D01*
X149809500Y-128207869D01*
X149809501Y-128207874D01*
X149815909Y-128267483D01*
X149866204Y-128402331D01*
X149909328Y-128459938D01*
X149952453Y-128517546D01*
X149995578Y-128549828D01*
X150067669Y-128603796D01*
X150202517Y-128654091D01*
X150262127Y-128660500D01*
X153857872Y-128660499D01*
X153917483Y-128654091D01*
X154052331Y-128603796D01*
X154167546Y-128517546D01*
X154253796Y-128402331D01*
X154304091Y-128267483D01*
X154310500Y-128207873D01*
X154310499Y-122152128D01*
X154304091Y-122092517D01*
X154283296Y-122036764D01*
X154267669Y-121943824D01*
X154287702Y-121851731D01*
X154340525Y-121773683D01*
X155421407Y-120692801D01*
X155425844Y-120688476D01*
X155484919Y-120632323D01*
X155514087Y-120590414D01*
X155525475Y-120575313D01*
X155532500Y-120566698D01*
X155557734Y-120535751D01*
X155567262Y-120517508D01*
X155583599Y-120490545D01*
X155595351Y-120473661D01*
X155595351Y-120473660D01*
X155595353Y-120473658D01*
X155615490Y-120426730D01*
X155623591Y-120409672D01*
X155647237Y-120364406D01*
X155652897Y-120344620D01*
X155663469Y-120314926D01*
X155671587Y-120296012D01*
X155672332Y-120292383D01*
X155697009Y-120224432D01*
X155740167Y-120166432D01*
X155780000Y-120126599D01*
X155780000Y-117153994D01*
X155772547Y-117124241D01*
X155776133Y-117051255D01*
X155791446Y-117008458D01*
X155791446Y-116976600D01*
X155444999Y-116630153D01*
X155415383Y-116659770D01*
X155415374Y-116659776D01*
X155271068Y-116804082D01*
X155190287Y-116858058D01*
X155094999Y-116877012D01*
X154999711Y-116858058D01*
X154918930Y-116804082D01*
X154745000Y-116630153D01*
X154715383Y-116659770D01*
X154715374Y-116659776D01*
X154571068Y-116804082D01*
X154490287Y-116858058D01*
X154394999Y-116877012D01*
X154299711Y-116858058D01*
X154218930Y-116804082D01*
X154045000Y-116630153D01*
X154015383Y-116659770D01*
X154015374Y-116659776D01*
X153871068Y-116804082D01*
X153790287Y-116858058D01*
X153694999Y-116877012D01*
X153599711Y-116858058D01*
X153518929Y-116804082D01*
X153517516Y-116802669D01*
X153463540Y-116721887D01*
X153444586Y-116626599D01*
X153463540Y-116531311D01*
X153517516Y-116450529D01*
X153588898Y-116379147D01*
X153588904Y-116379142D01*
X153691446Y-116276600D01*
X153588898Y-116174051D01*
X153588898Y-116174052D01*
X153517515Y-116102669D01*
X153471724Y-116039642D01*
X153447650Y-115965550D01*
X153447651Y-115887646D01*
X153471725Y-115813554D01*
X153517517Y-115750528D01*
X153588900Y-115679146D01*
X153691446Y-115576600D01*
X153588898Y-115474051D01*
X153588898Y-115474052D01*
X153517515Y-115402669D01*
X153471724Y-115339642D01*
X153447650Y-115265550D01*
X153447651Y-115187646D01*
X153471725Y-115113554D01*
X153517517Y-115050528D01*
X153588900Y-114979146D01*
X153691446Y-114876600D01*
X153588898Y-114774051D01*
X153588898Y-114774052D01*
X153517516Y-114702670D01*
X153471717Y-114639628D01*
X153447646Y-114565517D01*
X153447660Y-114487596D01*
X153471757Y-114413494D01*
X153517579Y-114350468D01*
X153518993Y-114349055D01*
X153599773Y-114295116D01*
X153695044Y-114276187D01*
X153790309Y-114295149D01*
X153871070Y-114349117D01*
X153942447Y-114420494D01*
X153942451Y-114420497D01*
X154045000Y-114523045D01*
X154147542Y-114420504D01*
X154147547Y-114420498D01*
X154218929Y-114349116D01*
X154299711Y-114295140D01*
X154394999Y-114276186D01*
X154490287Y-114295140D01*
X154571069Y-114349116D01*
X154642447Y-114420494D01*
X154642451Y-114420497D01*
X154745000Y-114523045D01*
X154847542Y-114420504D01*
X154847547Y-114420498D01*
X154918929Y-114349116D01*
X154999711Y-114295140D01*
X155094999Y-114276186D01*
X155190287Y-114295140D01*
X155271069Y-114349116D01*
X155342447Y-114420494D01*
X155342451Y-114420497D01*
X155445000Y-114523045D01*
X155547542Y-114420504D01*
X155547547Y-114420498D01*
X155618929Y-114349116D01*
X155699711Y-114295140D01*
X155794999Y-114276186D01*
X155890287Y-114295140D01*
X155971069Y-114349116D01*
X156042447Y-114420494D01*
X156042451Y-114420497D01*
X156145000Y-114523045D01*
X156247542Y-114420504D01*
X156247547Y-114420498D01*
X156318929Y-114349116D01*
X156399711Y-114295140D01*
X156494999Y-114276186D01*
X156590287Y-114295140D01*
X156671069Y-114349116D01*
X156742447Y-114420494D01*
X156742451Y-114420497D01*
X156845000Y-114523045D01*
X156947542Y-114420504D01*
X156947547Y-114420498D01*
X157018929Y-114349116D01*
X157099711Y-114295140D01*
X157194999Y-114276186D01*
X157290287Y-114295140D01*
X157371069Y-114349116D01*
X157372482Y-114350529D01*
X157426458Y-114431311D01*
X157445412Y-114526599D01*
X157426458Y-114621887D01*
X157372482Y-114702668D01*
X157228176Y-114846974D01*
X157228170Y-114846983D01*
X157198553Y-114876600D01*
X157372482Y-115050529D01*
X157426458Y-115131311D01*
X157445412Y-115226599D01*
X157426458Y-115321887D01*
X157372482Y-115402668D01*
X157228176Y-115546974D01*
X157228170Y-115546983D01*
X157198553Y-115576600D01*
X157372482Y-115750529D01*
X157426458Y-115831311D01*
X157445412Y-115926599D01*
X157426458Y-116021887D01*
X157372482Y-116102668D01*
X157228176Y-116246974D01*
X157228170Y-116246983D01*
X157198552Y-116276599D01*
X157372483Y-116450530D01*
X157426459Y-116531312D01*
X157445413Y-116626600D01*
X157426459Y-116721888D01*
X157372483Y-116802670D01*
X157371070Y-116804083D01*
X157290288Y-116858059D01*
X157195000Y-116877013D01*
X157099712Y-116858059D01*
X157018931Y-116804083D01*
X156845000Y-116630153D01*
X156815383Y-116659770D01*
X156815374Y-116659776D01*
X156495000Y-116980153D01*
X156280000Y-117195153D01*
X156280000Y-120128302D01*
X156330546Y-120203951D01*
X156349500Y-120299239D01*
X156349500Y-121450501D01*
X156330546Y-121545789D01*
X156276570Y-121626571D01*
X156195788Y-121680547D01*
X156100500Y-121699501D01*
X155342128Y-121699501D01*
X155282517Y-121705909D01*
X155147669Y-121756204D01*
X155133185Y-121767046D01*
X155032453Y-121842453D01*
X154980878Y-121911350D01*
X154946204Y-121957669D01*
X154916703Y-122036766D01*
X154895908Y-122092519D01*
X154889500Y-122152125D01*
X154889500Y-128207869D01*
X154889501Y-128207874D01*
X154895909Y-128267483D01*
X154946204Y-128402331D01*
X154989328Y-128459938D01*
X155032453Y-128517546D01*
X155075578Y-128549828D01*
X155147669Y-128603796D01*
X155282517Y-128654091D01*
X155342127Y-128660500D01*
X158937872Y-128660499D01*
X158997483Y-128654091D01*
X159132331Y-128603796D01*
X159247546Y-128517546D01*
X159333796Y-128402331D01*
X159384091Y-128267483D01*
X159390500Y-128207873D01*
X159390499Y-122152128D01*
X159384091Y-122092517D01*
X159333796Y-121957669D01*
X159247813Y-121842810D01*
X159247546Y-121842453D01*
X159189938Y-121799329D01*
X159132331Y-121756204D01*
X158997483Y-121705909D01*
X158997482Y-121705908D01*
X158997480Y-121705908D01*
X158937875Y-121699500D01*
X158937873Y-121699500D01*
X158499500Y-121699500D01*
X158404212Y-121680546D01*
X158323430Y-121626570D01*
X158269454Y-121545788D01*
X158250500Y-121450500D01*
X158250500Y-118578389D01*
X158235845Y-118434280D01*
X158203383Y-118330816D01*
X158177974Y-118249832D01*
X158177973Y-118249830D01*
X158170394Y-118225674D01*
X158170899Y-118225515D01*
X158164047Y-118208361D01*
X158156099Y-118145951D01*
X158156099Y-117578730D01*
X158156099Y-117578727D01*
X158149691Y-117519117D01*
X158099396Y-117384269D01*
X158013146Y-117269054D01*
X158013145Y-117269053D01*
X157994383Y-117243990D01*
X157952697Y-117157302D01*
X157946979Y-117061281D01*
X157968168Y-116999271D01*
X157967704Y-116999121D01*
X158031004Y-116804300D01*
X158049682Y-116626599D01*
X158031004Y-116448903D01*
X158000021Y-116353543D01*
X157987835Y-116276598D01*
X158000022Y-116199654D01*
X158031004Y-116104299D01*
X158049682Y-115926599D01*
X158031004Y-115748903D01*
X158000021Y-115653543D01*
X157987835Y-115576598D01*
X158000022Y-115499654D01*
X158031004Y-115404299D01*
X158049682Y-115226599D01*
X158031004Y-115048899D01*
X158000022Y-114953544D01*
X157987835Y-114876600D01*
X158000022Y-114799656D01*
X158031004Y-114704300D01*
X158049682Y-114526599D01*
X158031004Y-114348899D01*
X157982666Y-114200127D01*
X157970482Y-114121996D01*
X157983410Y-114043985D01*
X158020146Y-113973961D01*
X158098951Y-113868690D01*
X158149198Y-113733973D01*
X158155600Y-113674431D01*
X158155600Y-112876601D01*
X158155599Y-112876600D01*
X157299000Y-112876600D01*
X157203712Y-112857646D01*
X157122930Y-112803670D01*
X157068954Y-112722888D01*
X157050000Y-112627600D01*
X157050000Y-112376599D01*
X157550000Y-112376599D01*
X157550001Y-112376600D01*
X158155599Y-112376600D01*
X158155600Y-112376599D01*
X158155600Y-111578769D01*
X158149198Y-111519226D01*
X158098952Y-111384509D01*
X158012789Y-111269410D01*
X157897690Y-111183247D01*
X157762973Y-111133001D01*
X157703431Y-111126600D01*
X157550001Y-111126600D01*
X157550000Y-111126601D01*
X157550000Y-112376599D01*
X157050000Y-112376599D01*
X157050000Y-111126601D01*
X157049999Y-111126600D01*
X157029500Y-111126600D01*
X156934212Y-111107646D01*
X156853430Y-111053670D01*
X156799454Y-110972888D01*
X156780500Y-110877600D01*
X156780500Y-110795137D01*
X156788984Y-110730692D01*
X156813859Y-110670638D01*
X156835842Y-110632561D01*
X156867179Y-110578284D01*
X156925674Y-110398256D01*
X156945460Y-110210000D01*
X156925674Y-110021744D01*
X156867179Y-109841716D01*
X156772533Y-109677784D01*
X156645871Y-109537112D01*
X156492730Y-109425849D01*
X156319803Y-109348856D01*
X156134646Y-109309500D01*
X155945354Y-109309500D01*
X155919183Y-109309500D01*
X155919183Y-109307458D01*
X155865569Y-109308580D01*
X155778108Y-109276052D01*
X155708762Y-109213611D01*
X155667272Y-109130027D01*
X155659464Y-109037045D01*
X155665460Y-108980000D01*
X155645674Y-108791744D01*
X155587179Y-108611716D01*
X155587179Y-108611715D01*
X155546979Y-108542087D01*
X155517729Y-108462641D01*
X155516788Y-108377986D01*
X155544266Y-108297909D01*
X155596985Y-108231667D01*
X155668851Y-108186917D01*
X155751557Y-108168833D01*
X155797768Y-108174704D01*
X155798141Y-108171797D01*
X155819162Y-108174488D01*
X155819163Y-108174489D01*
X156051411Y-108204229D01*
X156285345Y-108194292D01*
X156514234Y-108144962D01*
X156731494Y-108057660D01*
X156930875Y-107934896D01*
X157106641Y-107780203D01*
X157253735Y-107598030D01*
X157367926Y-107393619D01*
X157445929Y-107172849D01*
X157464249Y-107066010D01*
X157485500Y-106942074D01*
X157485500Y-106316572D01*
X157470616Y-106141697D01*
X157411618Y-105915113D01*
X157404720Y-105899853D01*
X157315172Y-105701750D01*
X157184057Y-105507759D01*
X157022044Y-105338717D01*
X156833792Y-105199487D01*
X156762224Y-105163403D01*
X156624722Y-105094075D01*
X156502506Y-105056647D01*
X156400837Y-105025511D01*
X156400835Y-105025510D01*
X156400833Y-105025510D01*
X156168592Y-104995771D01*
X156168589Y-104995771D01*
X156069008Y-105000001D01*
X155934652Y-105005708D01*
X155705763Y-105055038D01*
X155488507Y-105142339D01*
X155289127Y-105265102D01*
X155113357Y-105419798D01*
X155037036Y-105514321D01*
X154966582Y-105574236D01*
X154879122Y-105604305D01*
X154786720Y-105600379D01*
X154702124Y-105563001D01*
X154660668Y-105521191D01*
X154658720Y-105523059D01*
X154644058Y-105507761D01*
X154644057Y-105507759D01*
X154482044Y-105338717D01*
X154293792Y-105199487D01*
X154222224Y-105163403D01*
X154084722Y-105094075D01*
X153962506Y-105056647D01*
X153860837Y-105025511D01*
X153860835Y-105025510D01*
X153860833Y-105025510D01*
X153628592Y-104995771D01*
X153628589Y-104995771D01*
X153529008Y-105000001D01*
X153394652Y-105005708D01*
X153165763Y-105055038D01*
X152948507Y-105142339D01*
X152749127Y-105265102D01*
X152573357Y-105419798D01*
X152497036Y-105514321D01*
X152426582Y-105574236D01*
X152339122Y-105604305D01*
X152246720Y-105600379D01*
X152162124Y-105563001D01*
X152120668Y-105521191D01*
X152118720Y-105523059D01*
X152104058Y-105507761D01*
X152104057Y-105507759D01*
X151942044Y-105338717D01*
X151753792Y-105199487D01*
X151682224Y-105163403D01*
X151544722Y-105094075D01*
X151422506Y-105056647D01*
X151320837Y-105025511D01*
X151320835Y-105025510D01*
X151320833Y-105025510D01*
X151088592Y-104995771D01*
X151088589Y-104995771D01*
X150989008Y-105000001D01*
X150854652Y-105005708D01*
X150625763Y-105055038D01*
X150408507Y-105142339D01*
X150209123Y-105265104D01*
X150173094Y-105296814D01*
X150103653Y-105340033D01*
X150023954Y-105358419D01*
X149942597Y-105349990D01*
X149868361Y-105315654D01*
X149809256Y-105259116D01*
X149722189Y-105142811D01*
X149607090Y-105056647D01*
X149472373Y-105006401D01*
X149412831Y-105000000D01*
X148740001Y-105000000D01*
X148740000Y-105000001D01*
X148740000Y-106601000D01*
X148721046Y-106696288D01*
X148667070Y-106777070D01*
X148586288Y-106831046D01*
X148491000Y-106850000D01*
X147115001Y-106850000D01*
X147115000Y-106850001D01*
X147115000Y-107747831D01*
X147121401Y-107807371D01*
X147123680Y-107813481D01*
X147139279Y-107907609D01*
X147118333Y-108000692D01*
X147063918Y-108079065D01*
X146984024Y-108131220D01*
X146890380Y-108149500D01*
X142172811Y-108149500D01*
X142136723Y-108146871D01*
X142121977Y-108144711D01*
X142078059Y-108148553D01*
X142056360Y-108149500D01*
X142056291Y-108149500D01*
X142027295Y-108152888D01*
X142020101Y-108153622D01*
X141936167Y-108160965D01*
X141856962Y-108189792D01*
X141850131Y-108192166D01*
X141770144Y-108218672D01*
X141699734Y-108264981D01*
X141693628Y-108268870D01*
X141621915Y-108313103D01*
X141564083Y-108374400D01*
X141559039Y-108379592D01*
X140910796Y-109027834D01*
X140883426Y-109051488D01*
X140871469Y-109060389D01*
X140843130Y-109094162D01*
X140828476Y-109110156D01*
X140828407Y-109110224D01*
X140810312Y-109133109D01*
X140805743Y-109138717D01*
X140751575Y-109203272D01*
X140715961Y-109279645D01*
X140712809Y-109286155D01*
X140671517Y-109368379D01*
X140613764Y-109443325D01*
X140532219Y-109491315D01*
X140438659Y-109505418D01*
X140346592Y-109483599D01*
X140269312Y-109429008D01*
X140217977Y-109349527D01*
X140200000Y-109256633D01*
X140200000Y-109182169D01*
X140193598Y-109122624D01*
X140154475Y-109017732D01*
X140138775Y-108930715D01*
X140154475Y-108843698D01*
X140154683Y-108843142D01*
X140194091Y-108737483D01*
X140200500Y-108677873D01*
X140200499Y-107830037D01*
X140213066Y-107751932D01*
X140249500Y-107681710D01*
X140306123Y-107626460D01*
X140377218Y-107591761D01*
X140396129Y-107586024D01*
X140396132Y-107586024D01*
X140584727Y-107528814D01*
X140758538Y-107435910D01*
X140774857Y-107422517D01*
X140879034Y-107337021D01*
X140953113Y-107295056D01*
X141036999Y-107280500D01*
X142241301Y-107280500D01*
X142256335Y-107280954D01*
X142259792Y-107281163D01*
X142312606Y-107284358D01*
X142368102Y-107274187D01*
X142382896Y-107271936D01*
X142438872Y-107265140D01*
X142438875Y-107265138D01*
X142439614Y-107265049D01*
X142479259Y-107253997D01*
X142479928Y-107253695D01*
X142479932Y-107253695D01*
X142531342Y-107230556D01*
X142545214Y-107224809D01*
X142597930Y-107204818D01*
X142597934Y-107204815D01*
X142598628Y-107204552D01*
X142634471Y-107184336D01*
X142635053Y-107183879D01*
X142635057Y-107183878D01*
X142679438Y-107149106D01*
X142691524Y-107140213D01*
X142737929Y-107108183D01*
X142775307Y-107065990D01*
X142785585Y-107055070D01*
X143575070Y-106265585D01*
X143585990Y-106255307D01*
X143628183Y-106217929D01*
X143660218Y-106171515D01*
X143669095Y-106159451D01*
X143703877Y-106115057D01*
X143703879Y-106115052D01*
X143704340Y-106114464D01*
X143724554Y-106078625D01*
X143734627Y-106052064D01*
X143744812Y-106025205D01*
X143750550Y-106011352D01*
X143773694Y-105959932D01*
X143773694Y-105959927D01*
X143773998Y-105959254D01*
X143785050Y-105919609D01*
X143785139Y-105918874D01*
X143785140Y-105918872D01*
X143791938Y-105862880D01*
X143794190Y-105848081D01*
X143798518Y-105824465D01*
X143831777Y-105738206D01*
X143894217Y-105670023D01*
X143907546Y-105660046D01*
X143993796Y-105544831D01*
X144016700Y-105483420D01*
X144060162Y-105409309D01*
X144126231Y-105354378D01*
X144207036Y-105325173D01*
X144292957Y-105325173D01*
X144373763Y-105354376D01*
X144439833Y-105409305D01*
X144483299Y-105483421D01*
X144506203Y-105544830D01*
X144592453Y-105660046D01*
X144630307Y-105688383D01*
X144707669Y-105746296D01*
X144842517Y-105796591D01*
X144902127Y-105803000D01*
X145897872Y-105802999D01*
X145957483Y-105796591D01*
X146092331Y-105746296D01*
X146092332Y-105746295D01*
X146099293Y-105743699D01*
X146186309Y-105728000D01*
X146579689Y-105728000D01*
X146615776Y-105730628D01*
X146630523Y-105732789D01*
X146669021Y-105729420D01*
X146674441Y-105728947D01*
X146696140Y-105728000D01*
X146696211Y-105728000D01*
X146714831Y-105725823D01*
X146725172Y-105724614D01*
X146732343Y-105723880D01*
X146805297Y-105717499D01*
X146805298Y-105717498D01*
X146834296Y-105714962D01*
X146834489Y-105717174D01*
X146880471Y-105711120D01*
X146971227Y-105734026D01*
X147047114Y-105788822D01*
X147097407Y-105867765D01*
X147115000Y-105959699D01*
X147115000Y-106349999D01*
X147115001Y-106350000D01*
X148239999Y-106350000D01*
X148240000Y-106349999D01*
X148240000Y-105000001D01*
X148229663Y-104989664D01*
X148191739Y-104982407D01*
X148112797Y-104932115D01*
X148058001Y-104856230D01*
X148035093Y-104765475D01*
X148047312Y-104672675D01*
X148092930Y-104590943D01*
X148116942Y-104562327D01*
X148131302Y-104545214D01*
X148131302Y-104545212D01*
X148138424Y-104536726D01*
X148143108Y-104526680D01*
X148143111Y-104526677D01*
X148174080Y-104460261D01*
X148177175Y-104453870D01*
X148210040Y-104388433D01*
X148210040Y-104388430D01*
X148215017Y-104378522D01*
X148232056Y-104295999D01*
X148233624Y-104288923D01*
X148234755Y-104284151D01*
X148250500Y-104217721D01*
X148250500Y-104217716D01*
X148253055Y-104206935D01*
X148252732Y-104195861D01*
X148252734Y-104195856D01*
X148250605Y-104122690D01*
X148250500Y-104115449D01*
X148250500Y-103613006D01*
X148269454Y-103517718D01*
X148323430Y-103436936D01*
X148404212Y-103382960D01*
X148499500Y-103364006D01*
X148594788Y-103382960D01*
X148675566Y-103436933D01*
X148717834Y-103479201D01*
X148741484Y-103506568D01*
X148750388Y-103518528D01*
X148750389Y-103518529D01*
X148750390Y-103518530D01*
X148784160Y-103546867D01*
X148800157Y-103561524D01*
X148800223Y-103561590D01*
X148800226Y-103561592D01*
X148823111Y-103579687D01*
X148828691Y-103584232D01*
X148884786Y-103631302D01*
X148884787Y-103631302D01*
X148893274Y-103638424D01*
X148903322Y-103643109D01*
X148903323Y-103643110D01*
X148969695Y-103674060D01*
X148976150Y-103677186D01*
X149051468Y-103715013D01*
X149062323Y-103717254D01*
X149062327Y-103717256D01*
X149134063Y-103732067D01*
X149141018Y-103733610D01*
X149212279Y-103750500D01*
X149223059Y-103753055D01*
X149234142Y-103752732D01*
X149234144Y-103752733D01*
X149302081Y-103750756D01*
X149307290Y-103750605D01*
X149314530Y-103750500D01*
X150337680Y-103750500D01*
X150413497Y-103762323D01*
X150482114Y-103796670D01*
X150537013Y-103850278D01*
X150542454Y-103857546D01*
X150657669Y-103943796D01*
X150792517Y-103994091D01*
X150852127Y-104000500D01*
X152047872Y-104000499D01*
X152107483Y-103994091D01*
X152213700Y-103954474D01*
X152300715Y-103938775D01*
X152387732Y-103954475D01*
X152492624Y-103993598D01*
X152552169Y-104000000D01*
X152899999Y-104000000D01*
X152900000Y-103999999D01*
X153400000Y-103999999D01*
X153400001Y-104000000D01*
X153747831Y-104000000D01*
X153807373Y-103993598D01*
X153942090Y-103943352D01*
X154057189Y-103857189D01*
X154143352Y-103742090D01*
X154193598Y-103607373D01*
X154200000Y-103547831D01*
X154200000Y-103250001D01*
X154199999Y-103250000D01*
X153400001Y-103250000D01*
X153400000Y-103250001D01*
X153400000Y-103999999D01*
X152900000Y-103999999D01*
X152900000Y-102749999D01*
X153400000Y-102749999D01*
X153400001Y-102750000D01*
X154199999Y-102750000D01*
X154200000Y-102749999D01*
X154200000Y-102452169D01*
X154193598Y-102392626D01*
X154143352Y-102257909D01*
X154057189Y-102142810D01*
X153942090Y-102056647D01*
X153807373Y-102006401D01*
X153747831Y-102000000D01*
X153400001Y-102000000D01*
X153400000Y-102000001D01*
X153400000Y-102749999D01*
X152900000Y-102749999D01*
X152900000Y-102000001D01*
X152899999Y-102000000D01*
X152552169Y-102000000D01*
X152492624Y-102006401D01*
X152387729Y-102045525D01*
X152300714Y-102061224D01*
X152213700Y-102045525D01*
X152148274Y-102021123D01*
X152107481Y-102005908D01*
X152047874Y-101999500D01*
X150852130Y-101999500D01*
X150792526Y-102005908D01*
X150792517Y-102005909D01*
X150657669Y-102056204D01*
X150655623Y-102057736D01*
X150542454Y-102142453D01*
X150537014Y-102149721D01*
X150482114Y-102203330D01*
X150413497Y-102237677D01*
X150337680Y-102249500D01*
X149714006Y-102249500D01*
X149649557Y-102241015D01*
X149589501Y-102216137D01*
X149537930Y-102176563D01*
X149524244Y-102162876D01*
X149470272Y-102082097D01*
X149451320Y-101986813D01*
X149451320Y-101156878D01*
X149462696Y-101082474D01*
X149495786Y-101014868D01*
X149547565Y-100960239D01*
X149613303Y-100923578D01*
X149650555Y-100909683D01*
X149693151Y-100893796D01*
X149808366Y-100807546D01*
X149894616Y-100692331D01*
X149944911Y-100557483D01*
X149951320Y-100497873D01*
X149951320Y-100497831D01*
X154649180Y-100497831D01*
X154655581Y-100557373D01*
X154705827Y-100692090D01*
X154791990Y-100807189D01*
X154907089Y-100893352D01*
X155041806Y-100943598D01*
X155101349Y-100950000D01*
X155649179Y-100950000D01*
X155649180Y-100949999D01*
X156149180Y-100949999D01*
X156149181Y-100950000D01*
X156697011Y-100950000D01*
X156756553Y-100943598D01*
X156891270Y-100893352D01*
X157006369Y-100807189D01*
X157092532Y-100692090D01*
X157142778Y-100557373D01*
X157149180Y-100497831D01*
X157149180Y-99950001D01*
X157149179Y-99950000D01*
X156149181Y-99950000D01*
X156149180Y-99950001D01*
X156149180Y-100949999D01*
X155649180Y-100949999D01*
X155649180Y-99950001D01*
X155649179Y-99950000D01*
X154649181Y-99950000D01*
X154649180Y-99950001D01*
X154649180Y-100497831D01*
X149951320Y-100497831D01*
X149951319Y-99449999D01*
X154649180Y-99449999D01*
X154649181Y-99450000D01*
X155649179Y-99450000D01*
X155649180Y-99449999D01*
X156149180Y-99449999D01*
X156149181Y-99450000D01*
X157149179Y-99450000D01*
X157149180Y-99449999D01*
X157149180Y-98902169D01*
X157142778Y-98842626D01*
X157092532Y-98707909D01*
X157006369Y-98592810D01*
X156891270Y-98506647D01*
X156756553Y-98456401D01*
X156697011Y-98450000D01*
X156149181Y-98450000D01*
X156149180Y-98450001D01*
X156149180Y-99449999D01*
X155649180Y-99449999D01*
X155649180Y-98450001D01*
X155649179Y-98450000D01*
X155101349Y-98450000D01*
X155041806Y-98456401D01*
X154907089Y-98506647D01*
X154791990Y-98592810D01*
X154705827Y-98707909D01*
X154655581Y-98842626D01*
X154649180Y-98902169D01*
X154649180Y-99449999D01*
X149951319Y-99449999D01*
X149951319Y-98902128D01*
X149944911Y-98842517D01*
X149894616Y-98707669D01*
X149808633Y-98592810D01*
X149808366Y-98592453D01*
X149731411Y-98534845D01*
X149693151Y-98506204D01*
X149693149Y-98506203D01*
X149609699Y-98475078D01*
X149532004Y-98428516D01*
X149476105Y-98357242D01*
X149449400Y-98270689D01*
X149447926Y-98258078D01*
X149447200Y-98250972D01*
X149440818Y-98178023D01*
X149440816Y-98178018D01*
X149439851Y-98166982D01*
X149436061Y-98156570D01*
X149436061Y-98156565D01*
X149411017Y-98087758D01*
X149408650Y-98080945D01*
X149382148Y-98000963D01*
X149335857Y-97930582D01*
X149331964Y-97924472D01*
X149287717Y-97852736D01*
X149279651Y-97845126D01*
X149279650Y-97845124D01*
X149226420Y-97794904D01*
X149221258Y-97789890D01*
X148883913Y-97452545D01*
X148860255Y-97425168D01*
X148851361Y-97413221D01*
X148844392Y-97407373D01*
X148817597Y-97384889D01*
X148801596Y-97370227D01*
X148801532Y-97370163D01*
X148778628Y-97352053D01*
X148773011Y-97347477D01*
X148708475Y-97293324D01*
X148662194Y-97271742D01*
X148585321Y-97215888D01*
X148534968Y-97135305D01*
X148518469Y-97041726D01*
X148538226Y-96948781D01*
X148591355Y-96870012D01*
X149180028Y-96281338D01*
X149207391Y-96257693D01*
X149214811Y-96252169D01*
X149219350Y-96248790D01*
X149247690Y-96215014D01*
X149262351Y-96199015D01*
X149262411Y-96198956D01*
X149280554Y-96176009D01*
X149285060Y-96170478D01*
X149332122Y-96114394D01*
X149332123Y-96114391D01*
X149339246Y-96105903D01*
X149343929Y-96095858D01*
X149343931Y-96095857D01*
X149374858Y-96029531D01*
X149378011Y-96023019D01*
X149410860Y-95957613D01*
X149410860Y-95957610D01*
X149415836Y-95947704D01*
X149418076Y-95936853D01*
X149418077Y-95936852D01*
X149432894Y-95865088D01*
X149434419Y-95858207D01*
X149451320Y-95786901D01*
X149451320Y-95786894D01*
X149453875Y-95776114D01*
X149453552Y-95765040D01*
X149453554Y-95765035D01*
X149451425Y-95691869D01*
X149451320Y-95684628D01*
X149451320Y-94406878D01*
X149462696Y-94332474D01*
X149495786Y-94264868D01*
X149547565Y-94210239D01*
X149613303Y-94173578D01*
X149650555Y-94159683D01*
X149693151Y-94143796D01*
X149808366Y-94057546D01*
X149894616Y-93942331D01*
X149924397Y-93862481D01*
X149961057Y-93796746D01*
X150012664Y-93747831D01*
X154649180Y-93747831D01*
X154655581Y-93807373D01*
X154705827Y-93942090D01*
X154791990Y-94057189D01*
X154907089Y-94143352D01*
X155041806Y-94193598D01*
X155101349Y-94200000D01*
X155649179Y-94200000D01*
X155649180Y-94199999D01*
X156149180Y-94199999D01*
X156149181Y-94200000D01*
X156697011Y-94200000D01*
X156756553Y-94193598D01*
X156891270Y-94143352D01*
X157006369Y-94057189D01*
X157092532Y-93942090D01*
X157142778Y-93807373D01*
X157149180Y-93747831D01*
X157149180Y-93200001D01*
X157149179Y-93200000D01*
X156149181Y-93200000D01*
X156149180Y-93200001D01*
X156149180Y-94199999D01*
X155649180Y-94199999D01*
X155649180Y-93200001D01*
X155649179Y-93200000D01*
X154649181Y-93200000D01*
X154649180Y-93200001D01*
X154649180Y-93747831D01*
X150012664Y-93747831D01*
X150015686Y-93744967D01*
X150083292Y-93711877D01*
X150157697Y-93700500D01*
X152077189Y-93700500D01*
X152113276Y-93703128D01*
X152128023Y-93705289D01*
X152166521Y-93701920D01*
X152171941Y-93701447D01*
X152193640Y-93700500D01*
X152193711Y-93700500D01*
X152212331Y-93698323D01*
X152222672Y-93697114D01*
X152229843Y-93696380D01*
X152302797Y-93689999D01*
X152302798Y-93689998D01*
X152313836Y-93689033D01*
X152324254Y-93685241D01*
X152324255Y-93685241D01*
X152393053Y-93660200D01*
X152399818Y-93657848D01*
X152469334Y-93634814D01*
X152469337Y-93634811D01*
X152479857Y-93631326D01*
X152489112Y-93625238D01*
X152489117Y-93625237D01*
X152550286Y-93585004D01*
X152556323Y-93581158D01*
X152618656Y-93542712D01*
X152618659Y-93542708D01*
X152628088Y-93536893D01*
X152635693Y-93528831D01*
X152635696Y-93528830D01*
X152685919Y-93475595D01*
X152690897Y-93470469D01*
X153461366Y-92699999D01*
X154649180Y-92699999D01*
X154649181Y-92700000D01*
X155649179Y-92700000D01*
X155649180Y-92699999D01*
X156149180Y-92699999D01*
X156149181Y-92700000D01*
X157149179Y-92700000D01*
X157149180Y-92699999D01*
X157149180Y-92152169D01*
X157142778Y-92092626D01*
X157092532Y-91957909D01*
X157006369Y-91842810D01*
X156891270Y-91756647D01*
X156756553Y-91706401D01*
X156697011Y-91700000D01*
X156149181Y-91700000D01*
X156149180Y-91700001D01*
X156149180Y-92699999D01*
X155649180Y-92699999D01*
X155649180Y-91700001D01*
X155649179Y-91700000D01*
X155101349Y-91700000D01*
X155041806Y-91706401D01*
X154907089Y-91756647D01*
X154791990Y-91842810D01*
X154705827Y-91957909D01*
X154655581Y-92092626D01*
X154649180Y-92152169D01*
X154649180Y-92699999D01*
X153461366Y-92699999D01*
X153969205Y-92192160D01*
X153996575Y-92168509D01*
X154008530Y-92159610D01*
X154036870Y-92125834D01*
X154051532Y-92109834D01*
X154051590Y-92109777D01*
X154069710Y-92086858D01*
X154074209Y-92081335D01*
X154121302Y-92025214D01*
X154121302Y-92025212D01*
X154128425Y-92016725D01*
X154133109Y-92006678D01*
X154133111Y-92006677D01*
X154164038Y-91940353D01*
X154167195Y-91933832D01*
X154179701Y-91908930D01*
X154200040Y-91868433D01*
X154200040Y-91868431D01*
X154205013Y-91858530D01*
X154207253Y-91847678D01*
X154207256Y-91847673D01*
X154222063Y-91775956D01*
X154223606Y-91768995D01*
X154240500Y-91697721D01*
X154240500Y-91697718D01*
X154243055Y-91686938D01*
X154240605Y-91602710D01*
X154240500Y-91595470D01*
X154240500Y-87318610D01*
X154256199Y-87231594D01*
X154301318Y-87155550D01*
X154370167Y-87100068D01*
X154454063Y-87072145D01*
X154542428Y-87075300D01*
X154624119Y-87109137D01*
X154688834Y-87169389D01*
X154791991Y-87307189D01*
X154907089Y-87393352D01*
X155041806Y-87443598D01*
X155101349Y-87450000D01*
X155649179Y-87450000D01*
X155649180Y-87449999D01*
X156149180Y-87449999D01*
X156149181Y-87450000D01*
X156697011Y-87450000D01*
X156756553Y-87443598D01*
X156891270Y-87393352D01*
X157006369Y-87307189D01*
X157092532Y-87192090D01*
X157142778Y-87057373D01*
X157149180Y-86997831D01*
X157149180Y-86450001D01*
X157149179Y-86450000D01*
X156149181Y-86450000D01*
X156149180Y-86450001D01*
X156149180Y-87449999D01*
X155649180Y-87449999D01*
X155649180Y-86199000D01*
X155668134Y-86103712D01*
X155722110Y-86022930D01*
X155802892Y-85968954D01*
X155898180Y-85950000D01*
X157149179Y-85950000D01*
X157149180Y-85949999D01*
X157149180Y-85402169D01*
X157142778Y-85342626D01*
X157130551Y-85309844D01*
X157114876Y-85226383D01*
X157128161Y-85142508D01*
X157168858Y-85067975D01*
X157232236Y-85011453D01*
X157310917Y-84979518D01*
X157565009Y-84924244D01*
X157833107Y-84824249D01*
X158084244Y-84687117D01*
X158313310Y-84515641D01*
X158515641Y-84313310D01*
X158687117Y-84084244D01*
X158824249Y-83833107D01*
X158924244Y-83565009D01*
X158985067Y-83285410D01*
X159005480Y-83000000D01*
X158985067Y-82714590D01*
X158924244Y-82434991D01*
X158824249Y-82166893D01*
X158687117Y-81915756D01*
X158515641Y-81686690D01*
X158313310Y-81484359D01*
X158084244Y-81312883D01*
X157955687Y-81242685D01*
X157833106Y-81175750D01*
X157565009Y-81075756D01*
X157285410Y-81014933D01*
X157000000Y-80994520D01*
X156714590Y-81014933D01*
X156434990Y-81075756D01*
X156166893Y-81175750D01*
X155915754Y-81312884D01*
X155686692Y-81484357D01*
X155484357Y-81686692D01*
X155312884Y-81915754D01*
X155175750Y-82166893D01*
X155075756Y-82434990D01*
X155075756Y-82434991D01*
X155014933Y-82714590D01*
X154994520Y-83000000D01*
X155014933Y-83285410D01*
X155031740Y-83362669D01*
X155075756Y-83565009D01*
X155175750Y-83833106D01*
X155227246Y-83927413D01*
X155312883Y-84084244D01*
X155484359Y-84313310D01*
X155686690Y-84515641D01*
X155686693Y-84515643D01*
X155695980Y-84524930D01*
X155749956Y-84605712D01*
X155768910Y-84701000D01*
X155749956Y-84796288D01*
X155695980Y-84877070D01*
X155615198Y-84931046D01*
X155519910Y-84950000D01*
X155101349Y-84950000D01*
X155041806Y-84956401D01*
X154907089Y-85006647D01*
X154791991Y-85092810D01*
X154688834Y-85230611D01*
X154624119Y-85290863D01*
X154542428Y-85324700D01*
X154454063Y-85327855D01*
X154370167Y-85299932D01*
X154301318Y-85244450D01*
X154256199Y-85168406D01*
X154240500Y-85081390D01*
X154240500Y-83996625D01*
X154253243Y-83917990D01*
X154290166Y-83847404D01*
X154297546Y-83837546D01*
X154383796Y-83722331D01*
X154434091Y-83587483D01*
X154440500Y-83527873D01*
X154440499Y-82782128D01*
X154434091Y-82722517D01*
X154383796Y-82587669D01*
X154377470Y-82579219D01*
X154340548Y-82508635D01*
X154327805Y-82430000D01*
X154340548Y-82351365D01*
X154377470Y-82280780D01*
X154383796Y-82272331D01*
X154434091Y-82137483D01*
X154440500Y-82077873D01*
X154440499Y-81332128D01*
X154434091Y-81272517D01*
X154383796Y-81137669D01*
X154316841Y-81048229D01*
X154297546Y-81022453D01*
X154224516Y-80967784D01*
X154182331Y-80936204D01*
X154047483Y-80885909D01*
X154047482Y-80885908D01*
X154047480Y-80885908D01*
X153987875Y-80879500D01*
X153987873Y-80879500D01*
X153723156Y-80879500D01*
X153669630Y-80873679D01*
X153582497Y-80854500D01*
X151279773Y-80854500D01*
X151267552Y-80853003D01*
X151267551Y-80853051D01*
X151252502Y-80852642D01*
X151226851Y-80849500D01*
X151217497Y-80849500D01*
X151139913Y-80849500D01*
X151133171Y-80849409D01*
X151046198Y-80847053D01*
X151020465Y-80849500D01*
X148388063Y-80849500D01*
X148327561Y-80842038D01*
X148270685Y-80820098D01*
X148179177Y-80771186D01*
X147990582Y-80713976D01*
X147794449Y-80694658D01*
X147598317Y-80713976D01*
X147409724Y-80771185D01*
X147235908Y-80864091D01*
X147083566Y-80989116D01*
X146958541Y-81141458D01*
X146865635Y-81315274D01*
X146808426Y-81503867D01*
X146789109Y-81700000D01*
X146793201Y-81741553D01*
X146786187Y-81829383D01*
X146749023Y-81909272D01*
X146686362Y-81971215D01*
X146606052Y-82007458D01*
X146518146Y-82013462D01*
X146433654Y-81988475D01*
X146410273Y-81976733D01*
X146327700Y-81959682D01*
X146320656Y-81958121D01*
X146249471Y-81941250D01*
X146249469Y-81941250D01*
X146238684Y-81938694D01*
X146227607Y-81939016D01*
X146163084Y-81940893D01*
X146154440Y-81941145D01*
X146147199Y-81941250D01*
X145249000Y-81941250D01*
X145153712Y-81922296D01*
X145072930Y-81868320D01*
X145018954Y-81787538D01*
X145000000Y-81692250D01*
X145000000Y-81671751D01*
X144999999Y-81671750D01*
X142500001Y-81671750D01*
X142500000Y-81671751D01*
X142500000Y-81919581D01*
X142509270Y-82005810D01*
X142518332Y-82056033D01*
X142508402Y-82111076D01*
X142499500Y-82193875D01*
X142499500Y-83189619D01*
X142508604Y-83274311D01*
X142518065Y-83326747D01*
X142508605Y-83379186D01*
X142499500Y-83463875D01*
X142499500Y-84459619D01*
X142508604Y-84544311D01*
X142518065Y-84596747D01*
X142508605Y-84649186D01*
X142499500Y-84733875D01*
X142499500Y-85729619D01*
X142508605Y-85814312D01*
X142518065Y-85866749D01*
X142508605Y-85919186D01*
X142499500Y-86003875D01*
X142499500Y-86999619D01*
X142508605Y-87084312D01*
X142518065Y-87136749D01*
X142508605Y-87189186D01*
X142499500Y-87273875D01*
X142499500Y-88269619D01*
X142508604Y-88354311D01*
X142518065Y-88406747D01*
X142508605Y-88459186D01*
X142499500Y-88543875D01*
X142499500Y-89539619D01*
X142508604Y-89624311D01*
X142518065Y-89676747D01*
X142508605Y-89729186D01*
X142499500Y-89813875D01*
X142499500Y-90809619D01*
X142508605Y-90894312D01*
X142518065Y-90946749D01*
X142508605Y-90999186D01*
X142499500Y-91083875D01*
X142499500Y-92079619D01*
X142508605Y-92164312D01*
X142518065Y-92216749D01*
X142508605Y-92269186D01*
X142499500Y-92353875D01*
X142499500Y-93349619D01*
X142508604Y-93434311D01*
X142518065Y-93486747D01*
X142508605Y-93539186D01*
X142499500Y-93623875D01*
X142499500Y-94619619D01*
X142508605Y-94704312D01*
X142518065Y-94756749D01*
X142508605Y-94809186D01*
X142499500Y-94893875D01*
X142499500Y-95889619D01*
X142508605Y-95974312D01*
X142518065Y-96026749D01*
X142508605Y-96079186D01*
X142499500Y-96163875D01*
X142499500Y-97159619D01*
X142508604Y-97244311D01*
X142518065Y-97296747D01*
X142508605Y-97349186D01*
X142499500Y-97433875D01*
X142499500Y-98429619D01*
X142504387Y-98475078D01*
X142505909Y-98489233D01*
X142556204Y-98624081D01*
X142599329Y-98681688D01*
X142642453Y-98739296D01*
X142663672Y-98755180D01*
X142757669Y-98825546D01*
X142892517Y-98875841D01*
X142952127Y-98882250D01*
X144547872Y-98882249D01*
X144607483Y-98875841D01*
X144742331Y-98825546D01*
X144857546Y-98739296D01*
X144857546Y-98739295D01*
X144867404Y-98731916D01*
X144937990Y-98694993D01*
X145016625Y-98682250D01*
X147201320Y-98682250D01*
X147296608Y-98701204D01*
X147377390Y-98755180D01*
X147431366Y-98835962D01*
X147450320Y-98931250D01*
X147450320Y-100497869D01*
X147455174Y-100543014D01*
X147456729Y-100557483D01*
X147507024Y-100692331D01*
X147529165Y-100721907D01*
X147593273Y-100807546D01*
X147664523Y-100860883D01*
X147708489Y-100893796D01*
X147788338Y-100923577D01*
X147854074Y-100960237D01*
X147905853Y-101014866D01*
X147938943Y-101082472D01*
X147950320Y-101156877D01*
X147950320Y-101504505D01*
X147934033Y-101593081D01*
X147887302Y-101670069D01*
X147816242Y-101725399D01*
X147730147Y-101751831D01*
X147728045Y-101752076D01*
X147720921Y-101752802D01*
X147636987Y-101760145D01*
X147557782Y-101788972D01*
X147550951Y-101791346D01*
X147470964Y-101817852D01*
X147400554Y-101864161D01*
X147394448Y-101868050D01*
X147322734Y-101912283D01*
X147264887Y-101973596D01*
X147259844Y-101978787D01*
X147020796Y-102217834D01*
X146993426Y-102241488D01*
X146981469Y-102250389D01*
X146953130Y-102284162D01*
X146938476Y-102300156D01*
X146938407Y-102300224D01*
X146920312Y-102323109D01*
X146915743Y-102328717D01*
X146861575Y-102393272D01*
X146825961Y-102469645D01*
X146822809Y-102476154D01*
X146784983Y-102551474D01*
X146767945Y-102633990D01*
X146766379Y-102641055D01*
X146746943Y-102723063D01*
X146749395Y-102807310D01*
X146749500Y-102814551D01*
X146749500Y-102820794D01*
X146733801Y-102907810D01*
X146688682Y-102983854D01*
X146619833Y-103039336D01*
X146535937Y-103067259D01*
X146447572Y-103064104D01*
X146365881Y-103030266D01*
X146301166Y-102970015D01*
X146293796Y-102960170D01*
X146293796Y-102960169D01*
X146207546Y-102844954D01*
X146092331Y-102758704D01*
X145957483Y-102708409D01*
X145957482Y-102708408D01*
X145957480Y-102708408D01*
X145897874Y-102702000D01*
X144902130Y-102702000D01*
X144842515Y-102708409D01*
X144707669Y-102758703D01*
X144682782Y-102777334D01*
X144612196Y-102814257D01*
X144533561Y-102827000D01*
X143966439Y-102827000D01*
X143887804Y-102814257D01*
X143817218Y-102777334D01*
X143792330Y-102758703D01*
X143657482Y-102708408D01*
X143597874Y-102702000D01*
X142602130Y-102702000D01*
X142542515Y-102708409D01*
X142407669Y-102758703D01*
X142382782Y-102777334D01*
X142312196Y-102814257D01*
X142233561Y-102827000D01*
X141666439Y-102827000D01*
X141587804Y-102814257D01*
X141517218Y-102777334D01*
X141492329Y-102758702D01*
X141454069Y-102744432D01*
X141378025Y-102699313D01*
X141322543Y-102630464D01*
X141294620Y-102546567D01*
X141297777Y-102458201D01*
X141331615Y-102376510D01*
X141391866Y-102311797D01*
X141397546Y-102307546D01*
X141483796Y-102192331D01*
X141534091Y-102057483D01*
X141540500Y-101997873D01*
X141540499Y-101002128D01*
X141534091Y-100942517D01*
X141483796Y-100807669D01*
X141483795Y-100807668D01*
X141481199Y-100800707D01*
X141465500Y-100713691D01*
X141465500Y-100448375D01*
X141478243Y-100369740D01*
X141515166Y-100299154D01*
X141522546Y-100289296D01*
X141608796Y-100174081D01*
X141659091Y-100039233D01*
X141665500Y-99979623D01*
X141665499Y-98383878D01*
X141659091Y-98324267D01*
X141608796Y-98189419D01*
X141554828Y-98117327D01*
X141522546Y-98074203D01*
X141438764Y-98011485D01*
X141407331Y-97987954D01*
X141272483Y-97937659D01*
X141272482Y-97937658D01*
X141272480Y-97937658D01*
X141212874Y-97931250D01*
X140217130Y-97931250D01*
X140132432Y-97940355D01*
X140079996Y-97949815D01*
X140027568Y-97940355D01*
X139942874Y-97931250D01*
X138947130Y-97931250D01*
X138862432Y-97940355D01*
X138809996Y-97949815D01*
X138757568Y-97940355D01*
X138672874Y-97931250D01*
X137677130Y-97931250D01*
X137592432Y-97940355D01*
X137539996Y-97949815D01*
X137487568Y-97940355D01*
X137402874Y-97931250D01*
X136407130Y-97931250D01*
X136322432Y-97940355D01*
X136269996Y-97949815D01*
X136217568Y-97940355D01*
X136132874Y-97931250D01*
X135137130Y-97931250D01*
X135052432Y-97940355D01*
X134999996Y-97949815D01*
X134947568Y-97940355D01*
X134862874Y-97931250D01*
X133867130Y-97931250D01*
X133782432Y-97940355D01*
X133729996Y-97949815D01*
X133677568Y-97940355D01*
X133592874Y-97931250D01*
X132597130Y-97931250D01*
X132512432Y-97940355D01*
X132459996Y-97949815D01*
X132407568Y-97940355D01*
X132322874Y-97931250D01*
X131376062Y-97931250D01*
X131293171Y-97917048D01*
X131219735Y-97876062D01*
X131164132Y-97812966D01*
X131141893Y-97776910D01*
X131080601Y-97719085D01*
X131075404Y-97714037D01*
X130582166Y-97220798D01*
X130558508Y-97193422D01*
X130549611Y-97181471D01*
X130523574Y-97159623D01*
X130515847Y-97153139D01*
X130499846Y-97138477D01*
X130499782Y-97138413D01*
X130476878Y-97120303D01*
X130471261Y-97115727D01*
X130406726Y-97061575D01*
X130330326Y-97025948D01*
X130323813Y-97022795D01*
X130320207Y-97020984D01*
X130258433Y-96989960D01*
X130258429Y-96989959D01*
X130248521Y-96984983D01*
X130165950Y-96967932D01*
X130158906Y-96966371D01*
X130087721Y-96949500D01*
X130087719Y-96949500D01*
X130076934Y-96946944D01*
X130065857Y-96947266D01*
X130001334Y-96949143D01*
X129992690Y-96949395D01*
X129985449Y-96949500D01*
X128602811Y-96949500D01*
X128566724Y-96946871D01*
X128551976Y-96944710D01*
X128508075Y-96948552D01*
X128486372Y-96949500D01*
X128486284Y-96949500D01*
X128457288Y-96952888D01*
X128450097Y-96953623D01*
X128366160Y-96960968D01*
X128286966Y-96989791D01*
X128280135Y-96992165D01*
X128210665Y-97015186D01*
X128210664Y-97015186D01*
X128200140Y-97018674D01*
X128129737Y-97064977D01*
X128123636Y-97068864D01*
X128051911Y-97113105D01*
X127994117Y-97174363D01*
X127989073Y-97179557D01*
X127925569Y-97243061D01*
X127844787Y-97297037D01*
X127749499Y-97315991D01*
X127654211Y-97297037D01*
X127573429Y-97243061D01*
X127519453Y-97162279D01*
X127500499Y-97066995D01*
X127500499Y-96163878D01*
X127494091Y-96104267D01*
X127494090Y-96104264D01*
X127491393Y-96079177D01*
X127481934Y-96026746D01*
X127491393Y-95974321D01*
X127494089Y-95949235D01*
X127494091Y-95949233D01*
X127500500Y-95889623D01*
X127500499Y-94893878D01*
X127494091Y-94834267D01*
X127494090Y-94834264D01*
X127491393Y-94809177D01*
X127481934Y-94756746D01*
X127491393Y-94704321D01*
X127494089Y-94679235D01*
X127494091Y-94679233D01*
X127500500Y-94619623D01*
X127500499Y-93623878D01*
X127494091Y-93564267D01*
X127494089Y-93564264D01*
X127491393Y-93539178D01*
X127481934Y-93486747D01*
X127491393Y-93434322D01*
X127494090Y-93409235D01*
X127494091Y-93409233D01*
X127500500Y-93349623D01*
X127500499Y-92353878D01*
X127494091Y-92294267D01*
X127494090Y-92294264D01*
X127491393Y-92269177D01*
X127481934Y-92216746D01*
X127491393Y-92164321D01*
X127494089Y-92139235D01*
X127494091Y-92139233D01*
X127500500Y-92079623D01*
X127500499Y-91083878D01*
X127495737Y-91039581D01*
X131150000Y-91039581D01*
X131156401Y-91099123D01*
X131206647Y-91233840D01*
X131292810Y-91348939D01*
X131407909Y-91435102D01*
X131542626Y-91485348D01*
X131602169Y-91491750D01*
X131849999Y-91491750D01*
X131850000Y-91491749D01*
X132350000Y-91491749D01*
X132350001Y-91491750D01*
X132597831Y-91491750D01*
X132657375Y-91485348D01*
X132712982Y-91464608D01*
X132799998Y-91448908D01*
X132887014Y-91464607D01*
X132942624Y-91485348D01*
X133002169Y-91491750D01*
X133249999Y-91491750D01*
X133250000Y-91491749D01*
X133750000Y-91491749D01*
X133750001Y-91491750D01*
X133997831Y-91491750D01*
X134057375Y-91485348D01*
X134112982Y-91464608D01*
X134199998Y-91448908D01*
X134287014Y-91464607D01*
X134342624Y-91485348D01*
X134402169Y-91491750D01*
X134649999Y-91491750D01*
X134650000Y-91491749D01*
X135150000Y-91491749D01*
X135150001Y-91491750D01*
X135397831Y-91491750D01*
X135457373Y-91485348D01*
X135592090Y-91435102D01*
X135707189Y-91348939D01*
X135793352Y-91233840D01*
X135843598Y-91099123D01*
X135850000Y-91039581D01*
X135850000Y-90791751D01*
X135849999Y-90791750D01*
X135150001Y-90791750D01*
X135150000Y-90791751D01*
X135150000Y-91491749D01*
X134650000Y-91491749D01*
X134650000Y-90791751D01*
X134649999Y-90791750D01*
X133750001Y-90791750D01*
X133750000Y-90791751D01*
X133750000Y-91491749D01*
X133250000Y-91491749D01*
X133250000Y-90791751D01*
X133249999Y-90791750D01*
X132350001Y-90791750D01*
X132350000Y-90791751D01*
X132350000Y-91491749D01*
X131850000Y-91491749D01*
X131850000Y-90791751D01*
X131849999Y-90791750D01*
X131150001Y-90791750D01*
X131150000Y-90791751D01*
X131150000Y-91039581D01*
X127495737Y-91039581D01*
X127494091Y-91024267D01*
X127494090Y-91024264D01*
X127491393Y-90999177D01*
X127481934Y-90946746D01*
X127491393Y-90894321D01*
X127494089Y-90869235D01*
X127494091Y-90869233D01*
X127500500Y-90809623D01*
X127500499Y-90291749D01*
X131150000Y-90291749D01*
X131150001Y-90291750D01*
X131849999Y-90291750D01*
X131850000Y-90291749D01*
X132350000Y-90291749D01*
X132350001Y-90291750D01*
X133249999Y-90291750D01*
X133250000Y-90291749D01*
X133750000Y-90291749D01*
X133750001Y-90291750D01*
X134649999Y-90291750D01*
X134650000Y-90291749D01*
X135150000Y-90291749D01*
X135150001Y-90291750D01*
X135849999Y-90291750D01*
X135850000Y-90291749D01*
X135850000Y-90043919D01*
X135843598Y-89984374D01*
X135822857Y-89928764D01*
X135807158Y-89841748D01*
X135822858Y-89754732D01*
X135843598Y-89699125D01*
X135850000Y-89639580D01*
X135850000Y-89391751D01*
X135849999Y-89391750D01*
X135150001Y-89391750D01*
X135150000Y-89391751D01*
X135150000Y-90291749D01*
X134650000Y-90291749D01*
X134650000Y-89391751D01*
X134649999Y-89391750D01*
X133750001Y-89391750D01*
X133750000Y-89391751D01*
X133750000Y-90291749D01*
X133250000Y-90291749D01*
X133250000Y-89391751D01*
X133249999Y-89391750D01*
X132350001Y-89391750D01*
X132350000Y-89391751D01*
X132350000Y-90291749D01*
X131850000Y-90291749D01*
X131850000Y-89391751D01*
X131849999Y-89391750D01*
X131150001Y-89391750D01*
X131150000Y-89391751D01*
X131150000Y-89639580D01*
X131156401Y-89699126D01*
X131177142Y-89754734D01*
X131192841Y-89841748D01*
X131177143Y-89928762D01*
X131156401Y-89984373D01*
X131150000Y-90043919D01*
X131150000Y-90291749D01*
X127500499Y-90291749D01*
X127500499Y-89813878D01*
X127494091Y-89754267D01*
X127494089Y-89754264D01*
X127491393Y-89729178D01*
X127481934Y-89676747D01*
X127491393Y-89624322D01*
X127494090Y-89599235D01*
X127494091Y-89599233D01*
X127500500Y-89539623D01*
X127500499Y-88891749D01*
X131150000Y-88891749D01*
X131150001Y-88891750D01*
X131849999Y-88891750D01*
X131850000Y-88891749D01*
X132350000Y-88891749D01*
X132350001Y-88891750D01*
X133249999Y-88891750D01*
X133250000Y-88891749D01*
X133750000Y-88891749D01*
X133750001Y-88891750D01*
X134649999Y-88891750D01*
X134650000Y-88891749D01*
X135150000Y-88891749D01*
X135150001Y-88891750D01*
X135849999Y-88891750D01*
X135850000Y-88891749D01*
X135850000Y-88643919D01*
X135843598Y-88584374D01*
X135822857Y-88528764D01*
X135807158Y-88441748D01*
X135822858Y-88354732D01*
X135843598Y-88299125D01*
X135850000Y-88239581D01*
X135850000Y-87991751D01*
X135849999Y-87991750D01*
X135150001Y-87991750D01*
X135150000Y-87991751D01*
X135150000Y-88891749D01*
X134650000Y-88891749D01*
X134650000Y-87991751D01*
X134649999Y-87991750D01*
X133750001Y-87991750D01*
X133750000Y-87991751D01*
X133750000Y-88891749D01*
X133250000Y-88891749D01*
X133250000Y-87991751D01*
X133249999Y-87991750D01*
X132350001Y-87991750D01*
X132350000Y-87991751D01*
X132350000Y-88891749D01*
X131850000Y-88891749D01*
X131850000Y-87991751D01*
X131849999Y-87991750D01*
X131150001Y-87991750D01*
X131150000Y-87991751D01*
X131150000Y-88239581D01*
X131156401Y-88299126D01*
X131177142Y-88354734D01*
X131192841Y-88441748D01*
X131177143Y-88528762D01*
X131156401Y-88584373D01*
X131150000Y-88643919D01*
X131150000Y-88891749D01*
X127500499Y-88891749D01*
X127500499Y-88543878D01*
X127494091Y-88484267D01*
X127494089Y-88484264D01*
X127491393Y-88459178D01*
X127481934Y-88406747D01*
X127491393Y-88354322D01*
X127494090Y-88329235D01*
X127494091Y-88329233D01*
X127500500Y-88269623D01*
X127500499Y-87491749D01*
X131150000Y-87491749D01*
X131150001Y-87491750D01*
X131849999Y-87491750D01*
X131850000Y-87491749D01*
X132350000Y-87491749D01*
X132350001Y-87491750D01*
X133249999Y-87491750D01*
X133250000Y-87491749D01*
X133750000Y-87491749D01*
X133750001Y-87491750D01*
X134649999Y-87491750D01*
X134650000Y-87491749D01*
X135150000Y-87491749D01*
X135150001Y-87491750D01*
X135849999Y-87491750D01*
X135850000Y-87491749D01*
X135850000Y-87243919D01*
X135843598Y-87184376D01*
X135793352Y-87049659D01*
X135707189Y-86934560D01*
X135592090Y-86848397D01*
X135457373Y-86798151D01*
X135397831Y-86791750D01*
X135150001Y-86791750D01*
X135150000Y-86791751D01*
X135150000Y-87491749D01*
X134650000Y-87491749D01*
X134650000Y-86791751D01*
X134649999Y-86791750D01*
X134402169Y-86791750D01*
X134342625Y-86798151D01*
X134287014Y-86818893D01*
X134200000Y-86834591D01*
X134112986Y-86818893D01*
X134057374Y-86798151D01*
X133997831Y-86791750D01*
X133750001Y-86791750D01*
X133750000Y-86791751D01*
X133750000Y-87491749D01*
X133250000Y-87491749D01*
X133250000Y-86791751D01*
X133249999Y-86791750D01*
X133002169Y-86791750D01*
X132942625Y-86798151D01*
X132887014Y-86818893D01*
X132800000Y-86834591D01*
X132712986Y-86818893D01*
X132657374Y-86798151D01*
X132597831Y-86791750D01*
X132350001Y-86791750D01*
X132350000Y-86791751D01*
X132350000Y-87491749D01*
X131850000Y-87491749D01*
X131850000Y-86791751D01*
X131849999Y-86791750D01*
X131602169Y-86791750D01*
X131542626Y-86798151D01*
X131407909Y-86848397D01*
X131292810Y-86934560D01*
X131206647Y-87049659D01*
X131156401Y-87184376D01*
X131150000Y-87243919D01*
X131150000Y-87491749D01*
X127500499Y-87491749D01*
X127500499Y-87273878D01*
X127494091Y-87214267D01*
X127494090Y-87214264D01*
X127491393Y-87189177D01*
X127481934Y-87136746D01*
X127491393Y-87084321D01*
X127494089Y-87059235D01*
X127494091Y-87059233D01*
X127500500Y-86999623D01*
X127500499Y-86003878D01*
X127494091Y-85944267D01*
X127494090Y-85944264D01*
X127491393Y-85919177D01*
X127481934Y-85866746D01*
X127491393Y-85814321D01*
X127494089Y-85789235D01*
X127494091Y-85789233D01*
X127500500Y-85729623D01*
X127500499Y-84733878D01*
X127494091Y-84674267D01*
X127494089Y-84674264D01*
X127491393Y-84649178D01*
X127481934Y-84596747D01*
X127491393Y-84544322D01*
X127494090Y-84519235D01*
X127494091Y-84519233D01*
X127500500Y-84459623D01*
X127500499Y-83463878D01*
X127494091Y-83404267D01*
X127494090Y-83404264D01*
X127491393Y-83379177D01*
X127481934Y-83326746D01*
X127491393Y-83274321D01*
X127494089Y-83249235D01*
X127494091Y-83249233D01*
X127500500Y-83189623D01*
X127500499Y-82193878D01*
X127494091Y-82134267D01*
X127494090Y-82134265D01*
X127491596Y-82111062D01*
X127481668Y-82056032D01*
X127490728Y-82005819D01*
X127500000Y-81919581D01*
X127500000Y-81671751D01*
X127499999Y-81671750D01*
X125000001Y-81671750D01*
X125000000Y-81671751D01*
X125000000Y-81692250D01*
X124981046Y-81787538D01*
X124927070Y-81868320D01*
X124846288Y-81922296D01*
X124751000Y-81941250D01*
X124651061Y-81941250D01*
X124614973Y-81938621D01*
X124600227Y-81936461D01*
X124556309Y-81940303D01*
X124534610Y-81941250D01*
X124534541Y-81941250D01*
X124505545Y-81944638D01*
X124498351Y-81945372D01*
X124414417Y-81952715D01*
X124335212Y-81981542D01*
X124328381Y-81983916D01*
X124248391Y-82010423D01*
X124177997Y-82056721D01*
X124171893Y-82060610D01*
X124120789Y-82092132D01*
X124069680Y-82116135D01*
X124014477Y-82128006D01*
X123953867Y-82133976D01*
X123765274Y-82191185D01*
X123569832Y-82295651D01*
X123568445Y-82293057D01*
X123522659Y-82318017D01*
X123430202Y-82329423D01*
X123340024Y-82306052D01*
X123264746Y-82251173D01*
X123214906Y-82172469D01*
X123211367Y-82153888D01*
X123197479Y-82140000D01*
X122097040Y-82140000D01*
X122001752Y-82121046D01*
X121920970Y-82067070D01*
X121866994Y-81986288D01*
X121848040Y-81891000D01*
X121848040Y-81639999D01*
X122348040Y-81639999D01*
X122348041Y-81640000D01*
X123197479Y-81640000D01*
X123197480Y-81639999D01*
X123197480Y-81242729D01*
X123191078Y-81183186D01*
X123140832Y-81048469D01*
X123054669Y-80933370D01*
X122939570Y-80847207D01*
X122804853Y-80796961D01*
X122745311Y-80790560D01*
X122348041Y-80790560D01*
X122348040Y-80790561D01*
X122348040Y-81639999D01*
X121848040Y-81639999D01*
X121848040Y-80790561D01*
X121848039Y-80790560D01*
X121450769Y-80790560D01*
X121391226Y-80796961D01*
X121256506Y-80847208D01*
X121198655Y-80890516D01*
X121128069Y-80927439D01*
X121049435Y-80940181D01*
X120970802Y-80927439D01*
X120900216Y-80890516D01*
X120864915Y-80864090D01*
X120841771Y-80846764D01*
X120706923Y-80796469D01*
X120706922Y-80796468D01*
X120706920Y-80796468D01*
X120647314Y-80790060D01*
X119352690Y-80790060D01*
X119293077Y-80796468D01*
X119293077Y-80796469D01*
X119158229Y-80846764D01*
X119150377Y-80852642D01*
X119043013Y-80933013D01*
X118981689Y-81014933D01*
X118956764Y-81048229D01*
X118925625Y-81131716D01*
X118906468Y-81183079D01*
X118900060Y-81242685D01*
X118900060Y-82118728D01*
X118884508Y-82205348D01*
X118839795Y-82281148D01*
X118771505Y-82336659D01*
X118688171Y-82364947D01*
X118600200Y-82362478D01*
X118518583Y-82329562D01*
X118453514Y-82270308D01*
X118399755Y-82200247D01*
X118399071Y-82199722D01*
X118282669Y-82110404D01*
X118146320Y-82053926D01*
X118036741Y-82039500D01*
X118036740Y-82039500D01*
X117514267Y-82039500D01*
X117422604Y-82022014D01*
X117343815Y-81972014D01*
X117288966Y-81896520D01*
X117265758Y-81806136D01*
X117277453Y-81713556D01*
X117285674Y-81688256D01*
X117305460Y-81500000D01*
X117285674Y-81311744D01*
X117227179Y-81131716D01*
X117132533Y-80967784D01*
X117005871Y-80827112D01*
X116852730Y-80715849D01*
X116679803Y-80638856D01*
X116494646Y-80599500D01*
X116305354Y-80599500D01*
X116120197Y-80638856D01*
X115947270Y-80715849D01*
X115947268Y-80715849D01*
X115923362Y-80726494D01*
X115922412Y-80724361D01*
X115896984Y-80737316D01*
X115820048Y-80749500D01*
X115472811Y-80749500D01*
X115436724Y-80746871D01*
X115421976Y-80744710D01*
X115378075Y-80748552D01*
X115356372Y-80749500D01*
X115356284Y-80749500D01*
X115327288Y-80752888D01*
X115320097Y-80753623D01*
X115236160Y-80760968D01*
X115156966Y-80789791D01*
X115150135Y-80792165D01*
X115080665Y-80815186D01*
X115080664Y-80815186D01*
X115070140Y-80818674D01*
X114999737Y-80864977D01*
X114993636Y-80868864D01*
X114921911Y-80913105D01*
X114864117Y-80974363D01*
X114859073Y-80979557D01*
X114535793Y-81302837D01*
X114508422Y-81326491D01*
X114496469Y-81335389D01*
X114468130Y-81369162D01*
X114453476Y-81385156D01*
X114453407Y-81385224D01*
X114435312Y-81408109D01*
X114430743Y-81413717D01*
X114376575Y-81478272D01*
X114340961Y-81554645D01*
X114337809Y-81561154D01*
X114299983Y-81636474D01*
X114282945Y-81718990D01*
X114281379Y-81726055D01*
X114261943Y-81808063D01*
X114263921Y-81876023D01*
X114254824Y-81950329D01*
X114224053Y-82018573D01*
X114174389Y-82074587D01*
X114125516Y-82104123D01*
X114000246Y-82200246D01*
X113910404Y-82317331D01*
X113853926Y-82453680D01*
X113839500Y-82563259D01*
X113839500Y-83116742D01*
X113855574Y-83238844D01*
X113871105Y-83315217D01*
X113853755Y-83408687D01*
X113850807Y-83416160D01*
X113840000Y-83506160D01*
X113840000Y-83640500D01*
X113821046Y-83735788D01*
X113767070Y-83816570D01*
X113686288Y-83870546D01*
X113591000Y-83889500D01*
X113539396Y-83889500D01*
X113457396Y-83875611D01*
X113384544Y-83835492D01*
X113328968Y-83773620D01*
X113296867Y-83696896D01*
X113291823Y-83613882D01*
X113300000Y-83537829D01*
X113300000Y-83190001D01*
X113299999Y-83190000D01*
X111300001Y-83190000D01*
X111300000Y-83190001D01*
X111300000Y-83537831D01*
X111306401Y-83597375D01*
X111314180Y-83618230D01*
X111329843Y-83700954D01*
X111317041Y-83784169D01*
X111277239Y-83858361D01*
X111214988Y-83915047D01*
X111214478Y-83915373D01*
X111208744Y-83918930D01*
X111134255Y-83963748D01*
X111130619Y-83966590D01*
X111069132Y-84028077D01*
X111064305Y-84032776D01*
X111001154Y-84092597D01*
X110984694Y-84112515D01*
X110370191Y-84727018D01*
X110355322Y-84740725D01*
X110310701Y-84778627D01*
X110229008Y-84824815D01*
X110136021Y-84837485D01*
X110044948Y-84814837D01*
X109968728Y-84760088D01*
X109918185Y-84681015D01*
X109900500Y-84588850D01*
X109900500Y-82689999D01*
X111300000Y-82689999D01*
X111300001Y-82690000D01*
X112049999Y-82690000D01*
X112050000Y-82689999D01*
X112550000Y-82689999D01*
X112550001Y-82690000D01*
X113299999Y-82690000D01*
X113300000Y-82689999D01*
X113300000Y-82342169D01*
X113293598Y-82282626D01*
X113243352Y-82147909D01*
X113157189Y-82032810D01*
X113042090Y-81946647D01*
X112907373Y-81896401D01*
X112847831Y-81890000D01*
X112550001Y-81890000D01*
X112550000Y-81890001D01*
X112550000Y-82689999D01*
X112050000Y-82689999D01*
X112050000Y-81890001D01*
X112049999Y-81890000D01*
X111752169Y-81890000D01*
X111692626Y-81896401D01*
X111557909Y-81946647D01*
X111442810Y-82032810D01*
X111356647Y-82147909D01*
X111306401Y-82282626D01*
X111300000Y-82342169D01*
X111300000Y-82689999D01*
X109900500Y-82689999D01*
X109900500Y-80249500D01*
X109919454Y-80154212D01*
X109973430Y-80073430D01*
X110054212Y-80019454D01*
X110149500Y-80000500D01*
X125293145Y-80000500D01*
X125378076Y-80015432D01*
G37*
%TD.AperFunction*%
%TA.AperFunction,Conductor*%
G36*
X117642986Y-106999186D02*
G01*
X117727581Y-107036563D01*
X117769401Y-107078740D01*
X117771280Y-107076941D01*
X117785941Y-107092238D01*
X117785943Y-107092241D01*
X117947956Y-107261283D01*
X118136208Y-107400513D01*
X118188323Y-107426789D01*
X118259524Y-107480602D01*
X118307177Y-107556067D01*
X118325156Y-107643488D01*
X118311153Y-107731633D01*
X118266966Y-107809178D01*
X118221575Y-107863272D01*
X118185961Y-107939645D01*
X118182809Y-107946154D01*
X118144983Y-108021474D01*
X118127945Y-108103990D01*
X118126380Y-108111053D01*
X118121525Y-108131540D01*
X118092691Y-108202331D01*
X118043743Y-108261040D01*
X118039126Y-108265103D01*
X118039125Y-108265104D01*
X117981609Y-108315724D01*
X117863354Y-108419801D01*
X117786706Y-108514728D01*
X117716251Y-108574644D01*
X117628787Y-108604712D01*
X117536384Y-108600785D01*
X117451787Y-108563403D01*
X117410264Y-108521522D01*
X117408331Y-108523375D01*
X117231714Y-108339095D01*
X117043531Y-108199916D01*
X116834525Y-108094537D01*
X116649059Y-108037739D01*
X116566723Y-107994330D01*
X116506080Y-107923717D01*
X116475605Y-107835769D01*
X116479556Y-107742774D01*
X116517380Y-107657727D01*
X116583794Y-107592512D01*
X116669515Y-107556242D01*
X116724089Y-107544480D01*
X116941266Y-107457213D01*
X117140576Y-107334492D01*
X117316276Y-107179855D01*
X117392669Y-107085245D01*
X117463123Y-107025330D01*
X117550584Y-106995261D01*
X117642986Y-106999186D01*
G37*
%TD.AperFunction*%
%TA.AperFunction,Conductor*%
G36*
X135780788Y-106685827D02*
G01*
X135861569Y-106739803D01*
X135915546Y-106820584D01*
X135934500Y-106915872D01*
X135934500Y-107302877D01*
X135934558Y-107303409D01*
X135934557Y-107356586D01*
X135934500Y-107357116D01*
X135934500Y-107802877D01*
X135934558Y-107803409D01*
X135934557Y-107856586D01*
X135934500Y-107857116D01*
X135934500Y-107857126D01*
X135934500Y-107857127D01*
X135934500Y-108079500D01*
X135934501Y-108115999D01*
X135922314Y-108192945D01*
X135886947Y-108262358D01*
X135831860Y-108317445D01*
X135762446Y-108352813D01*
X135685501Y-108365000D01*
X135413830Y-108365000D01*
X135413830Y-108364808D01*
X135375738Y-108364808D01*
X135372873Y-108364500D01*
X135372871Y-108364500D01*
X134927125Y-108364500D01*
X134924259Y-108364809D01*
X134886174Y-108364808D01*
X134886174Y-108365000D01*
X134413830Y-108365000D01*
X134413830Y-108364808D01*
X134375738Y-108364808D01*
X134372873Y-108364500D01*
X134372872Y-108364500D01*
X134372870Y-108364500D01*
X134113998Y-108364500D01*
X134037055Y-108352314D01*
X133967642Y-108316947D01*
X133912555Y-108261860D01*
X133877187Y-108192446D01*
X133865000Y-108115501D01*
X133865000Y-107843825D01*
X133865194Y-107843825D01*
X133865194Y-107805719D01*
X133865500Y-107802873D01*
X133865499Y-107429499D01*
X133877686Y-107352555D01*
X133913054Y-107283142D01*
X133968140Y-107228055D01*
X134037554Y-107192687D01*
X134114499Y-107180500D01*
X134764317Y-107180500D01*
X134796816Y-107182629D01*
X134820000Y-107185682D01*
X134976762Y-107165044D01*
X135122841Y-107104536D01*
X135169601Y-107068656D01*
X135248282Y-107008282D01*
X135262518Y-106989728D01*
X135283986Y-106965247D01*
X135509433Y-106739801D01*
X135590212Y-106685827D01*
X135685500Y-106666873D01*
X135780788Y-106685827D01*
G37*
%TD.AperFunction*%
%TA.AperFunction,Conductor*%
G36*
X115359825Y-107248466D02*
G01*
X115447357Y-107289801D01*
X115596468Y-107400083D01*
X115805470Y-107505460D01*
X115990939Y-107562259D01*
X116073275Y-107605668D01*
X116133918Y-107676280D01*
X116164394Y-107764228D01*
X116160444Y-107857223D01*
X116122620Y-107942270D01*
X116056208Y-108007485D01*
X115970488Y-108043756D01*
X115915912Y-108055518D01*
X115698733Y-108142786D01*
X115499422Y-108265507D01*
X115463772Y-108296884D01*
X115394330Y-108340103D01*
X115314631Y-108358490D01*
X115233273Y-108350061D01*
X115159036Y-108315724D01*
X115099931Y-108259186D01*
X115098796Y-108257670D01*
X115098796Y-108257669D01*
X115012546Y-108142454D01*
X115011561Y-108141717D01*
X114976541Y-108115501D01*
X114897331Y-108056204D01*
X114835919Y-108033299D01*
X114761807Y-107989835D01*
X114706877Y-107923766D01*
X114677673Y-107842961D01*
X114677673Y-107757039D01*
X114706877Y-107676234D01*
X114761807Y-107610165D01*
X114835919Y-107566700D01*
X114897331Y-107543796D01*
X115012546Y-107457546D01*
X115098796Y-107342331D01*
X115098798Y-107342325D01*
X115099958Y-107340776D01*
X115171926Y-107276037D01*
X115263143Y-107243634D01*
X115359825Y-107248466D01*
G37*
%TD.AperFunction*%
%TA.AperFunction,Conductor*%
G36*
X117642986Y-103599186D02*
G01*
X117727581Y-103636563D01*
X117769401Y-103678740D01*
X117771280Y-103676941D01*
X117785941Y-103692238D01*
X117785943Y-103692241D01*
X117947956Y-103861283D01*
X118136208Y-104000513D01*
X118147048Y-104005978D01*
X118218247Y-104059788D01*
X118265900Y-104135251D01*
X118283881Y-104222670D01*
X118269881Y-104310814D01*
X118235870Y-104370506D01*
X118235137Y-104371966D01*
X118234206Y-104373425D01*
X118225698Y-104388360D01*
X118221575Y-104393273D01*
X118185961Y-104469645D01*
X118182809Y-104476154D01*
X118144983Y-104551474D01*
X118127945Y-104633990D01*
X118126379Y-104641055D01*
X118102789Y-104740596D01*
X118102391Y-104740501D01*
X118099593Y-104760148D01*
X118070662Y-104824151D01*
X118025009Y-104877526D01*
X117955055Y-104939095D01*
X117863354Y-105019801D01*
X117786706Y-105114728D01*
X117716251Y-105174644D01*
X117628787Y-105204712D01*
X117536384Y-105200785D01*
X117451787Y-105163403D01*
X117410264Y-105121522D01*
X117408331Y-105123375D01*
X117231714Y-104939095D01*
X117043531Y-104799916D01*
X116834525Y-104694537D01*
X116649059Y-104637739D01*
X116566723Y-104594330D01*
X116506080Y-104523717D01*
X116475605Y-104435769D01*
X116479556Y-104342774D01*
X116517380Y-104257727D01*
X116583794Y-104192512D01*
X116669515Y-104156242D01*
X116724089Y-104144480D01*
X116941266Y-104057213D01*
X117140576Y-103934492D01*
X117316276Y-103779855D01*
X117392669Y-103685245D01*
X117463123Y-103625330D01*
X117550584Y-103595261D01*
X117642986Y-103599186D01*
G37*
%TD.AperFunction*%
%TA.AperFunction,Conductor*%
G36*
X115359825Y-103848466D02*
G01*
X115447357Y-103889801D01*
X115596468Y-104000083D01*
X115805470Y-104105460D01*
X115990939Y-104162259D01*
X116073275Y-104205668D01*
X116133918Y-104276280D01*
X116164394Y-104364228D01*
X116160444Y-104457223D01*
X116122620Y-104542270D01*
X116056208Y-104607485D01*
X115970488Y-104643756D01*
X115915912Y-104655518D01*
X115698733Y-104742786D01*
X115499422Y-104865507D01*
X115463772Y-104896884D01*
X115394330Y-104940103D01*
X115314631Y-104958490D01*
X115233273Y-104950061D01*
X115159036Y-104915724D01*
X115099931Y-104859186D01*
X115098796Y-104857670D01*
X115098796Y-104857669D01*
X115012546Y-104742454D01*
X114897331Y-104656204D01*
X114835919Y-104633299D01*
X114761807Y-104589835D01*
X114706877Y-104523766D01*
X114677673Y-104442961D01*
X114677673Y-104357039D01*
X114706877Y-104276234D01*
X114761807Y-104210165D01*
X114835919Y-104166700D01*
X114897331Y-104143796D01*
X115012546Y-104057546D01*
X115098796Y-103942331D01*
X115098798Y-103942325D01*
X115099958Y-103940776D01*
X115171926Y-103876037D01*
X115263143Y-103843634D01*
X115359825Y-103848466D01*
G37*
%TD.AperFunction*%
%TA.AperFunction,Conductor*%
G36*
X116485789Y-85029272D02*
G01*
X116566570Y-85083249D01*
X116620546Y-85164030D01*
X116639500Y-85259318D01*
X116639500Y-85387680D01*
X116627677Y-85463497D01*
X116593330Y-85532114D01*
X116539721Y-85587014D01*
X116532453Y-85592454D01*
X116463531Y-85684522D01*
X116446204Y-85707669D01*
X116410410Y-85803636D01*
X116395908Y-85842519D01*
X116389500Y-85902125D01*
X116389500Y-87097869D01*
X116393680Y-87136746D01*
X116395909Y-87157483D01*
X116432751Y-87256262D01*
X116435525Y-87263698D01*
X116451224Y-87350714D01*
X116435525Y-87437729D01*
X116396401Y-87542624D01*
X116390000Y-87602169D01*
X116390000Y-87949999D01*
X116390001Y-87950000D01*
X117391000Y-87950000D01*
X117486288Y-87968954D01*
X117567070Y-88022930D01*
X117621046Y-88103712D01*
X117640000Y-88199000D01*
X117640000Y-89249999D01*
X117640001Y-89250000D01*
X117937831Y-89250000D01*
X117997373Y-89243598D01*
X118132090Y-89193352D01*
X118250949Y-89104374D01*
X118313385Y-89047071D01*
X118399041Y-89013722D01*
X118490959Y-89013722D01*
X118576615Y-89047071D01*
X118639050Y-89104374D01*
X118757909Y-89193352D01*
X118892626Y-89243598D01*
X118952169Y-89250000D01*
X119249999Y-89250000D01*
X119250000Y-89249999D01*
X119250000Y-88199000D01*
X119268954Y-88103712D01*
X119322930Y-88022930D01*
X119403712Y-87968954D01*
X119499000Y-87950000D01*
X119501000Y-87950000D01*
X119596288Y-87968954D01*
X119677070Y-88022930D01*
X119731046Y-88103712D01*
X119750000Y-88199000D01*
X119750000Y-89249999D01*
X119750001Y-89250000D01*
X120047831Y-89250000D01*
X120107373Y-89243598D01*
X120242088Y-89193352D01*
X120252009Y-89185926D01*
X120335353Y-89145131D01*
X120390676Y-89140676D01*
X120395131Y-89085353D01*
X120435926Y-89002009D01*
X120443352Y-88992088D01*
X120493597Y-88857377D01*
X120498288Y-88813741D01*
X120521520Y-88732320D01*
X120570691Y-88663391D01*
X120640117Y-88614925D01*
X120721769Y-88592523D01*
X120806208Y-88598778D01*
X120883669Y-88632966D01*
X120945195Y-88691133D01*
X120979833Y-88737403D01*
X121016757Y-88807990D01*
X121029500Y-88886625D01*
X121029500Y-89005992D01*
X121021015Y-89070438D01*
X120996140Y-89130492D01*
X120956569Y-89182062D01*
X120811327Y-89327303D01*
X120734636Y-89379542D01*
X120648977Y-89398977D01*
X120629542Y-89484637D01*
X120577303Y-89561328D01*
X119119973Y-91018657D01*
X119092602Y-91042311D01*
X119080649Y-91051209D01*
X119052310Y-91084982D01*
X119037656Y-91100976D01*
X119037587Y-91101044D01*
X119019492Y-91123929D01*
X119014923Y-91129537D01*
X118960755Y-91194092D01*
X118925141Y-91270465D01*
X118921989Y-91276974D01*
X118884163Y-91352294D01*
X118867125Y-91434810D01*
X118865559Y-91441875D01*
X118846123Y-91523883D01*
X118848575Y-91608130D01*
X118848680Y-91615371D01*
X118848680Y-91887015D01*
X118836857Y-91962831D01*
X118802511Y-92031448D01*
X118748902Y-92086348D01*
X118741255Y-92092072D01*
X118687177Y-92164312D01*
X118655004Y-92207289D01*
X118631918Y-92269186D01*
X118604708Y-92342139D01*
X118598300Y-92401745D01*
X118598300Y-93498249D01*
X118602946Y-93541462D01*
X118604709Y-93557863D01*
X118655004Y-93692711D01*
X118740987Y-93807569D01*
X118741255Y-93807927D01*
X118748902Y-93813652D01*
X118802511Y-93868552D01*
X118836857Y-93937169D01*
X118848680Y-94012985D01*
X118848680Y-95486814D01*
X118840195Y-95551260D01*
X118815320Y-95611314D01*
X118775749Y-95662884D01*
X118462062Y-95976570D01*
X118381281Y-96030546D01*
X118285993Y-96049500D01*
X117962320Y-96049500D01*
X117886503Y-96037677D01*
X117817886Y-96003330D01*
X117762986Y-95949721D01*
X117761476Y-95947704D01*
X117757546Y-95942454D01*
X117642331Y-95856204D01*
X117507483Y-95805909D01*
X117507482Y-95805908D01*
X117507480Y-95805908D01*
X117447874Y-95799500D01*
X116252130Y-95799500D01*
X116192514Y-95805909D01*
X116086299Y-95845525D01*
X115999283Y-95861224D01*
X115912268Y-95845525D01*
X115807373Y-95806401D01*
X115747831Y-95800000D01*
X115400001Y-95800000D01*
X115400000Y-95800001D01*
X115400000Y-97799999D01*
X115400001Y-97800000D01*
X115747831Y-97800000D01*
X115807375Y-97793598D01*
X115912268Y-97754475D01*
X115999285Y-97738775D01*
X116086299Y-97754474D01*
X116192517Y-97794091D01*
X116252127Y-97800500D01*
X117447872Y-97800499D01*
X117507483Y-97794091D01*
X117642331Y-97743796D01*
X117757546Y-97657546D01*
X117762986Y-97650278D01*
X117817886Y-97596670D01*
X117886503Y-97562323D01*
X117962320Y-97550500D01*
X118627189Y-97550500D01*
X118663276Y-97553128D01*
X118678023Y-97555289D01*
X118716521Y-97551920D01*
X118721941Y-97551447D01*
X118743640Y-97550500D01*
X118743711Y-97550500D01*
X118762331Y-97548323D01*
X118772672Y-97547114D01*
X118779843Y-97546380D01*
X118852797Y-97539999D01*
X118852798Y-97539998D01*
X118863836Y-97539033D01*
X118874254Y-97535241D01*
X118874255Y-97535241D01*
X118943053Y-97510200D01*
X118949818Y-97507848D01*
X119019334Y-97484814D01*
X119019337Y-97484811D01*
X119029857Y-97481326D01*
X119039112Y-97475238D01*
X119039117Y-97475237D01*
X119100286Y-97435004D01*
X119106323Y-97431158D01*
X119168656Y-97392712D01*
X119168659Y-97392708D01*
X119178088Y-97386893D01*
X119185693Y-97378831D01*
X119185696Y-97378830D01*
X119235919Y-97325595D01*
X119240933Y-97320434D01*
X119634431Y-96926937D01*
X119715212Y-96872961D01*
X119810500Y-96854007D01*
X119905788Y-96872961D01*
X119986570Y-96926937D01*
X120040546Y-97007719D01*
X120059500Y-97103007D01*
X120059500Y-99437189D01*
X120056871Y-99473277D01*
X120054711Y-99488022D01*
X120058553Y-99531941D01*
X120059500Y-99553640D01*
X120059500Y-99553714D01*
X120062888Y-99582709D01*
X120063623Y-99589904D01*
X120070966Y-99673834D01*
X120099788Y-99753025D01*
X120102163Y-99759858D01*
X120128673Y-99839856D01*
X120134761Y-99849113D01*
X120134763Y-99849117D01*
X120174978Y-99910263D01*
X120178848Y-99916337D01*
X120223106Y-99988089D01*
X120284363Y-100045881D01*
X120289560Y-100050928D01*
X121084388Y-100845756D01*
X121131834Y-100912091D01*
X121155301Y-100990198D01*
X121152272Y-101071699D01*
X121123072Y-101147848D01*
X121070833Y-101210479D01*
X121001160Y-101252870D01*
X120778506Y-101342340D01*
X120579127Y-101465102D01*
X120403357Y-101619798D01*
X120327036Y-101714321D01*
X120256582Y-101774236D01*
X120169122Y-101804305D01*
X120076720Y-101800379D01*
X119992124Y-101763001D01*
X119950668Y-101721191D01*
X119948720Y-101723059D01*
X119934058Y-101707761D01*
X119934057Y-101707759D01*
X119772044Y-101538717D01*
X119583792Y-101399487D01*
X119580397Y-101397775D01*
X119374722Y-101294075D01*
X119251060Y-101256204D01*
X119150837Y-101225511D01*
X119150835Y-101225510D01*
X119150833Y-101225510D01*
X118918592Y-101195771D01*
X118918589Y-101195771D01*
X118801621Y-101200739D01*
X118684652Y-101205708D01*
X118455763Y-101255038D01*
X118238507Y-101342339D01*
X118039127Y-101465102D01*
X117863354Y-101619801D01*
X117786706Y-101714728D01*
X117716251Y-101774644D01*
X117628787Y-101804712D01*
X117536384Y-101800785D01*
X117451787Y-101763403D01*
X117410264Y-101721522D01*
X117408331Y-101723375D01*
X117231714Y-101539095D01*
X117043531Y-101399916D01*
X116834529Y-101294539D01*
X116610729Y-101226001D01*
X116570000Y-101220786D01*
X116570000Y-102701000D01*
X116551046Y-102796288D01*
X116497070Y-102877070D01*
X116416288Y-102931046D01*
X116321000Y-102950000D01*
X116319000Y-102950000D01*
X116223712Y-102931046D01*
X116142930Y-102877070D01*
X116088954Y-102796288D01*
X116070000Y-102701000D01*
X116070000Y-101222309D01*
X115915913Y-101255517D01*
X115698733Y-101342786D01*
X115499422Y-101465507D01*
X115463772Y-101496884D01*
X115394330Y-101540103D01*
X115314631Y-101558490D01*
X115233273Y-101550061D01*
X115159036Y-101515724D01*
X115099931Y-101459186D01*
X115098796Y-101457670D01*
X115098796Y-101457669D01*
X115012546Y-101342454D01*
X115012543Y-101342452D01*
X114986465Y-101322930D01*
X114897331Y-101256204D01*
X114762483Y-101205909D01*
X114762482Y-101205908D01*
X114762480Y-101205908D01*
X114702874Y-101199500D01*
X112857130Y-101199500D01*
X112799387Y-101205708D01*
X112797517Y-101205909D01*
X112662669Y-101256204D01*
X112662667Y-101256205D01*
X112662668Y-101256205D01*
X112547455Y-101342452D01*
X112461849Y-101456808D01*
X112400111Y-101515115D01*
X112322369Y-101549285D01*
X112237666Y-101555343D01*
X112155853Y-101532584D01*
X112086445Y-101483656D01*
X111863430Y-101260641D01*
X111809454Y-101179859D01*
X111790500Y-101084571D01*
X111790500Y-97347831D01*
X114100000Y-97347831D01*
X114106401Y-97407373D01*
X114156647Y-97542090D01*
X114242810Y-97657189D01*
X114357909Y-97743352D01*
X114492626Y-97793598D01*
X114552169Y-97800000D01*
X114899999Y-97800000D01*
X114900000Y-97799999D01*
X114900000Y-97050001D01*
X114899999Y-97050000D01*
X114100001Y-97050000D01*
X114100000Y-97050001D01*
X114100000Y-97347831D01*
X111790500Y-97347831D01*
X111790500Y-96549999D01*
X114100000Y-96549999D01*
X114100001Y-96550000D01*
X114899999Y-96550000D01*
X114900000Y-96549999D01*
X114900000Y-95800001D01*
X114899999Y-95800000D01*
X114552169Y-95800000D01*
X114492626Y-95806401D01*
X114357909Y-95856647D01*
X114242810Y-95942810D01*
X114156647Y-96057909D01*
X114106401Y-96192626D01*
X114100000Y-96252169D01*
X114100000Y-96549999D01*
X111790500Y-96549999D01*
X111790500Y-94199380D01*
X111809454Y-94104092D01*
X111863430Y-94023310D01*
X111944212Y-93969334D01*
X112039500Y-93950380D01*
X112150819Y-93950380D01*
X112150820Y-93950379D01*
X112650820Y-93950379D01*
X112650821Y-93950380D01*
X112949031Y-93950380D01*
X113008573Y-93943978D01*
X113143290Y-93893732D01*
X113258389Y-93807569D01*
X113344552Y-93692470D01*
X113394798Y-93557753D01*
X113401200Y-93498211D01*
X113401200Y-93200001D01*
X113401199Y-93200000D01*
X112650821Y-93200000D01*
X112650820Y-93200001D01*
X112650820Y-93950379D01*
X112150820Y-93950379D01*
X112150820Y-92699999D01*
X112650820Y-92699999D01*
X112650821Y-92700000D01*
X113401199Y-92700000D01*
X113401200Y-92699999D01*
X113401200Y-92401789D01*
X113394798Y-92342246D01*
X113344552Y-92207529D01*
X113258389Y-92092430D01*
X113143290Y-92006267D01*
X113008573Y-91956021D01*
X112949031Y-91949620D01*
X112650821Y-91949620D01*
X112650820Y-91949621D01*
X112650820Y-92699999D01*
X112150820Y-92699999D01*
X112150820Y-91949621D01*
X112150819Y-91949620D01*
X112039500Y-91949620D01*
X111944212Y-91930666D01*
X111863430Y-91876690D01*
X111809454Y-91795908D01*
X111790500Y-91700620D01*
X111790500Y-88797831D01*
X116390000Y-88797831D01*
X116396401Y-88857373D01*
X116446647Y-88992090D01*
X116532810Y-89107189D01*
X116647909Y-89193352D01*
X116782626Y-89243598D01*
X116842169Y-89250000D01*
X117139999Y-89250000D01*
X117140000Y-89249999D01*
X117140000Y-88450001D01*
X117139999Y-88450000D01*
X116390001Y-88450000D01*
X116390000Y-88450001D01*
X116390000Y-88797831D01*
X111790500Y-88797831D01*
X111790500Y-85939499D01*
X111809454Y-85844211D01*
X111863430Y-85763429D01*
X111944212Y-85709453D01*
X112039500Y-85690499D01*
X112847870Y-85690499D01*
X112847872Y-85690499D01*
X112907483Y-85684091D01*
X113042331Y-85633796D01*
X113157546Y-85547546D01*
X113185184Y-85510625D01*
X113248103Y-85451540D01*
X113327416Y-85417484D01*
X113413591Y-85412551D01*
X113496265Y-85437333D01*
X113521567Y-85450040D01*
X113521569Y-85450040D01*
X113531472Y-85455014D01*
X113542323Y-85457254D01*
X113542327Y-85457256D01*
X113614063Y-85472067D01*
X113621018Y-85473610D01*
X113692279Y-85490500D01*
X113703059Y-85493055D01*
X113714142Y-85492732D01*
X113714144Y-85492733D01*
X113782081Y-85490756D01*
X113787290Y-85490605D01*
X113794530Y-85490500D01*
X114118268Y-85490500D01*
X114166846Y-85495285D01*
X114213552Y-85509452D01*
X114253680Y-85526074D01*
X114363259Y-85540500D01*
X115666740Y-85540499D01*
X115666742Y-85540499D01*
X115776321Y-85526074D01*
X115912665Y-85469598D01*
X115912665Y-85469597D01*
X115912669Y-85469596D01*
X116029754Y-85379754D01*
X116119596Y-85262669D01*
X116160454Y-85164027D01*
X116214431Y-85083248D01*
X116295212Y-85029272D01*
X116390500Y-85010318D01*
X116485789Y-85029272D01*
G37*
%TD.AperFunction*%
%TD*%
M02*
