M48
; DRILL file {KiCad 7.0.1} date Wed Aug 30 02:05:41 2023
; FORMAT={-:-/ absolute / inch / decimal}
; #@! TF.CreationDate,2023-08-30T02:05:41-03:00
; #@! TF.GenerationSoftware,Kicad,Pcbnew,7.0.1
; #@! TF.FileFunction,Plated,1,2,PTH
FMAT,2
INCH
; #@! TA.AperFunction,Plated,PTH,ComponentDrill
T1C0.0118
; #@! TA.AperFunction,Plated,PTH,ViaDrill
T2C0.0157
; #@! TA.AperFunction,Plated,PTH,ComponentDrill
T3C0.0157
; #@! TA.AperFunction,Plated,PTH,ViaDrill
T4C0.0197
; #@! TA.AperFunction,Plated,PTH,ComponentDrill
T5C0.0256
; #@! TA.AperFunction,Plated,PTH,ViaDrill
T6C0.0276
; #@! TA.AperFunction,Plated,PTH,ComponentDrill
T7C0.0394
; #@! TA.AperFunction,Plated,PTH,ComponentDrill
T8C0.0512
; #@! TA.AperFunction,Plated,PTH,ComponentDrill
T9C0.0787
%
G90
G05
T1
X5.126Y-4.826
X5.126Y-4.8504
X5.126Y-4.874
X5.126Y-4.8984
X5.1496Y-4.826
X5.1496Y-4.8504
X5.1496Y-4.874
X5.1496Y-4.8984
X5.1732Y-4.8252
X5.1732Y-4.8496
X5.1732Y-4.8732
X5.1732Y-4.8976
X5.1969Y-4.826
X5.1969Y-4.8504
X5.1969Y-4.874
X5.1969Y-4.8984
X5.3268Y-4.826
X5.3268Y-4.8504
X5.3268Y-4.874
X5.3268Y-4.8984
X5.3504Y-4.826
X5.3504Y-4.8504
X5.3504Y-4.874
X5.3504Y-4.8984
X5.374Y-4.826
X5.374Y-4.8504
X5.374Y-4.874
X5.374Y-4.8984
X5.3976Y-4.826
X5.3976Y-4.8504
X5.3976Y-4.874
X5.3976Y-4.8984
X5.5394Y-4.826
X5.5394Y-4.8504
X5.5394Y-4.874
X5.5394Y-4.8984
X5.563Y-4.826
X5.563Y-4.8504
X5.563Y-4.874
X5.563Y-4.8984
X5.5866Y-4.8252
X5.5866Y-4.8496
X5.5866Y-4.8732
X5.5866Y-4.8976
X5.6102Y-4.826
X5.6102Y-4.8504
X5.6102Y-4.874
X5.6102Y-4.8984
X5.7402Y-4.826
X5.7402Y-4.8504
X5.7402Y-4.874
X5.7402Y-4.8984
X5.7638Y-4.826
X5.7638Y-4.8504
X5.7638Y-4.874
X5.7638Y-4.8984
X5.7874Y-4.826
X5.7874Y-4.8504
X5.7874Y-4.874
X5.7874Y-4.8984
X5.811Y-4.826
X5.811Y-4.8504
X5.811Y-4.874
X5.811Y-4.8984
X5.9528Y-4.826
X5.9528Y-4.8504
X5.9528Y-4.874
X5.9528Y-4.8984
X5.9764Y-4.826
X5.9764Y-4.8504
X5.9764Y-4.874
X5.9764Y-4.8984
X6.0Y-4.8252
X6.0Y-4.8496
X6.0Y-4.8732
X6.0Y-4.8976
X6.0236Y-4.826
X6.0236Y-4.8504
X6.0236Y-4.874
X6.0236Y-4.8984
X6.1535Y-4.826
X6.1535Y-4.8504
X6.1535Y-4.874
X6.1535Y-4.8984
X6.1772Y-4.826
X6.1772Y-4.8504
X6.1772Y-4.874
X6.1772Y-4.8984
X6.2008Y-4.826
X6.2008Y-4.8504
X6.2008Y-4.874
X6.2008Y-4.8984
X6.2244Y-4.826
X6.2244Y-4.8504
X6.2244Y-4.874
X6.2244Y-4.8984
T2
X4.5827Y-3.2087
X4.839Y-3.5556
X5.3622Y-4.0748
X5.6165Y-4.3331
X5.6665Y-4.3331
X5.8228Y-4.6732
X6.0929Y-4.2906
X6.1433Y-4.339
T3
X5.5746Y-4.5089
X5.5746Y-4.5365
X5.5746Y-4.564
X5.5746Y-4.5916
X5.6022Y-4.5089
X5.6022Y-4.5365
X5.6022Y-4.564
X5.6022Y-4.5916
X5.6297Y-4.5089
X5.6297Y-4.5365
X5.6297Y-4.564
X5.6297Y-4.5916
X5.6573Y-4.5089
X5.6573Y-4.5365
X5.6573Y-4.564
X5.6573Y-4.5916
X5.6848Y-4.5089
X5.6848Y-4.5365
X5.6848Y-4.564
X5.6848Y-4.5916
X5.7124Y-4.5089
X5.7124Y-4.5365
X5.7124Y-4.564
X5.7124Y-4.5916
X6.051Y-4.5089
X6.051Y-4.5365
X6.051Y-4.564
X6.051Y-4.5916
X6.0785Y-4.5089
X6.0785Y-4.5365
X6.0785Y-4.564
X6.0785Y-4.5916
X6.1061Y-4.5089
X6.1061Y-4.5365
X6.1061Y-4.564
X6.1061Y-4.5916
X6.1337Y-4.5089
X6.1337Y-4.5365
X6.1337Y-4.564
X6.1337Y-4.5916
X6.1612Y-4.5089
X6.1612Y-4.5365
X6.1612Y-4.564
X6.1612Y-4.5916
X6.1888Y-4.5089
X6.1888Y-4.5365
X6.1888Y-4.564
X6.1888Y-4.5916
T4
X4.8425Y-3.7047
X4.8484Y-3.7559
X4.8878Y-3.2724
X4.8976Y-3.4055
X4.8976Y-3.4555
X4.8976Y-3.5106
X4.9134Y-3.8029
X5.1102Y-4.4173
X5.3701Y-4.6732
X5.4299Y-4.4354
X5.4694Y-4.133
X5.5197Y-4.1969
X5.7107Y-3.4549
X5.7283Y-3.3059
X5.7283Y-3.7047
X5.7283Y-3.7598
X5.7835Y-3.6063
X5.8386Y-3.5547
X5.8898Y-3.5079
X5.9453Y-3.4591
T5
X5.8404Y-4.4331
X5.9191Y-4.4331
T6
X5.8187Y-3.2165
T7
X4.4787Y-4.4488
X4.4787Y-4.5866
X4.4787Y-4.7244
X4.4795Y-4.0433
X4.4795Y-4.1772
X4.4795Y-4.311
X4.5787Y-4.4488
X4.5787Y-4.5866
X4.5787Y-4.7244
X4.5795Y-4.0433
X4.5795Y-4.1772
X4.5795Y-4.311
X4.6787Y-4.4488
X4.6787Y-4.5866
X4.6787Y-4.7244
X4.6795Y-4.0433
X4.6795Y-4.1772
X4.6795Y-4.311
X4.7795Y-4.0433
X4.7795Y-4.1772
X4.7795Y-4.311
X5.8461Y-4.1969
X5.9461Y-4.1969
X6.0461Y-4.1969
X6.1461Y-4.1969
T8
X5.1598Y-4.9685
X5.3598Y-4.9685
X5.5732Y-4.9685
X5.7732Y-4.9685
X5.9866Y-4.9685
X6.1866Y-4.9685
T9
X4.4488Y-5.0
X6.1811Y-3.2677
T0
M30
