%TF.GenerationSoftware,KiCad,Pcbnew,7.0.1*%
%TF.CreationDate,2023-08-30T02:05:44-03:00*%
%TF.ProjectId,RobotLaberinto_PCB,526f626f-744c-4616-9265-72696e746f5f,rev?*%
%TF.SameCoordinates,Original*%
%TF.FileFunction,Soldermask,Bot*%
%TF.FilePolarity,Negative*%
%FSLAX46Y46*%
G04 Gerber Fmt 4.6, Leading zero omitted, Abs format (unit mm)*
G04 Created by KiCad (PCBNEW 7.0.1) date 2023-08-30 02:05:44*
%MOMM*%
%LPD*%
G01*
G04 APERTURE LIST*
%ADD10C,2.999740*%
%ADD11C,0.700000*%
%ADD12R,3.500000X5.960000*%
%ADD13R,1.750000X2.000000*%
%ADD14O,1.750000X2.000000*%
%ADD15R,1.524000X1.524000*%
%ADD16C,1.524000*%
%ADD17R,1.750000X2.200000*%
%ADD18O,1.750000X2.200000*%
G04 APERTURE END LIST*
D10*
%TO.C,H1*%
X157000000Y-83000000D03*
%TD*%
D11*
%TO.C,J7*%
X130200000Y-122580000D03*
X130200000Y-123200000D03*
X130200000Y-123800000D03*
X130200000Y-124420000D03*
X130800000Y-122580000D03*
X130800000Y-123200000D03*
X130800000Y-123800000D03*
X130800000Y-124420000D03*
D12*
X131060000Y-125180000D03*
D11*
X131400000Y-122560000D03*
X131400000Y-123180000D03*
X131400000Y-123780000D03*
X131400000Y-124400000D03*
X132000000Y-122580000D03*
X132000000Y-123200000D03*
X132000000Y-123800000D03*
X132000000Y-124420000D03*
X135300000Y-122580000D03*
X135300000Y-123200000D03*
X135300000Y-123800000D03*
X135300000Y-124420000D03*
X135900000Y-122580000D03*
X135900000Y-123200000D03*
X135900000Y-123800000D03*
X135900000Y-124420000D03*
D12*
X136140000Y-125180000D03*
D11*
X136500000Y-122580000D03*
X136500000Y-123200000D03*
X136500000Y-123800000D03*
X136500000Y-124420000D03*
X137100000Y-122580000D03*
X137100000Y-123200000D03*
X137100000Y-123800000D03*
X137100000Y-124420000D03*
%TD*%
D13*
%TO.C,J3*%
X113780000Y-109500000D03*
D14*
X116320000Y-109500000D03*
X118860000Y-109500000D03*
X121400000Y-109500000D03*
%TD*%
D11*
%TO.C,U6*%
X145095000Y-116626600D03*
X145095000Y-115926600D03*
X145095000Y-115226600D03*
X145095000Y-114526600D03*
X144395000Y-116626600D03*
X144395000Y-115926600D03*
X144395000Y-115226600D03*
X144395000Y-114526600D03*
X143695000Y-116626600D03*
X143695000Y-115926600D03*
X143695000Y-115226600D03*
X143695000Y-114526600D03*
X142995000Y-116626600D03*
X142995000Y-115926600D03*
X142995000Y-115226600D03*
X142995000Y-114526600D03*
X142295000Y-116626600D03*
X142295000Y-115926600D03*
X142295000Y-115226600D03*
X142295000Y-114526600D03*
X141595000Y-116626600D03*
X141595000Y-115926600D03*
X141595000Y-115226600D03*
X141595000Y-114526600D03*
%TD*%
D13*
%TO.C,J6*%
X113760000Y-120000000D03*
D14*
X116300000Y-120000000D03*
X118840000Y-120000000D03*
%TD*%
D11*
%TO.C,J8*%
X140700000Y-122580000D03*
X140700000Y-123200000D03*
X140700000Y-123800000D03*
X140700000Y-124420000D03*
X141300000Y-122580000D03*
X141300000Y-123200000D03*
X141300000Y-123800000D03*
X141300000Y-124420000D03*
D12*
X141560000Y-125180000D03*
D11*
X141900000Y-122560000D03*
X141900000Y-123180000D03*
X141900000Y-123780000D03*
X141900000Y-124400000D03*
X142500000Y-122580000D03*
X142500000Y-123200000D03*
X142500000Y-123800000D03*
X142500000Y-124420000D03*
X145800000Y-122580000D03*
X145800000Y-123200000D03*
X145800000Y-123800000D03*
X145800000Y-124420000D03*
X146400000Y-122580000D03*
X146400000Y-123200000D03*
X146400000Y-123800000D03*
X146400000Y-124420000D03*
D12*
X146640000Y-125180000D03*
D11*
X147000000Y-122580000D03*
X147000000Y-123200000D03*
X147000000Y-123800000D03*
X147000000Y-124420000D03*
X147600000Y-122580000D03*
X147600000Y-123200000D03*
X147600000Y-123800000D03*
X147600000Y-124420000D03*
%TD*%
D13*
%TO.C,J4*%
X113760000Y-113000000D03*
D14*
X116300000Y-113000000D03*
X118840000Y-113000000D03*
%TD*%
D11*
%TO.C,J9*%
X151200000Y-122580000D03*
X151200000Y-123200000D03*
X151200000Y-123800000D03*
X151200000Y-124420000D03*
X151800000Y-122580000D03*
X151800000Y-123200000D03*
X151800000Y-123800000D03*
X151800000Y-124420000D03*
D12*
X152060000Y-125180000D03*
D11*
X152400000Y-122560000D03*
X152400000Y-123180000D03*
X152400000Y-123780000D03*
X152400000Y-124400000D03*
X153000000Y-122580000D03*
X153000000Y-123200000D03*
X153000000Y-123800000D03*
X153000000Y-124420000D03*
X156300000Y-122580000D03*
X156300000Y-123200000D03*
X156300000Y-123800000D03*
X156300000Y-124420000D03*
X156900000Y-122580000D03*
X156900000Y-123200000D03*
X156900000Y-123800000D03*
X156900000Y-124420000D03*
D12*
X157140000Y-125180000D03*
D11*
X157500000Y-122580000D03*
X157500000Y-123200000D03*
X157500000Y-123800000D03*
X157500000Y-124420000D03*
X158100000Y-122580000D03*
X158100000Y-123200000D03*
X158100000Y-123800000D03*
X158100000Y-124420000D03*
%TD*%
D13*
%TO.C,J2*%
X113780000Y-106100000D03*
D14*
X116320000Y-106100000D03*
X118860000Y-106100000D03*
X121400000Y-106100000D03*
%TD*%
D10*
%TO.C,H2*%
X113000000Y-127000000D03*
%TD*%
D15*
%TO.C,C1*%
X150345000Y-112600000D03*
D16*
X148345000Y-112600000D03*
%TD*%
D13*
%TO.C,J5*%
X113760000Y-116500000D03*
D14*
X116300000Y-116500000D03*
X118840000Y-116500000D03*
%TD*%
D11*
%TO.C,U5*%
X157195000Y-116626600D03*
X157195000Y-115926600D03*
X157195000Y-115226600D03*
X157195000Y-114526600D03*
X156495000Y-116626600D03*
X156495000Y-115926600D03*
X156495000Y-115226600D03*
X156495000Y-114526600D03*
X155795000Y-116626600D03*
X155795000Y-115926600D03*
X155795000Y-115226600D03*
X155795000Y-114526600D03*
X155095000Y-116626600D03*
X155095000Y-115926600D03*
X155095000Y-115226600D03*
X155095000Y-114526600D03*
X154395000Y-116626600D03*
X154395000Y-115926600D03*
X154395000Y-115226600D03*
X154395000Y-114526600D03*
X153695000Y-116626600D03*
X153695000Y-115926600D03*
X153695000Y-115226600D03*
X153695000Y-114526600D03*
%TD*%
D13*
%TO.C,J1*%
X113780000Y-102700000D03*
D14*
X116320000Y-102700000D03*
X118860000Y-102700000D03*
X121400000Y-102700000D03*
%TD*%
D17*
%TO.C,Programador1*%
X148490000Y-106600000D03*
D18*
X151030000Y-106600000D03*
X153570000Y-106600000D03*
X156110000Y-106600000D03*
%TD*%
M02*
