%TF.GenerationSoftware,KiCad,Pcbnew,7.0.1*%
%TF.CreationDate,2023-08-18T01:43:33-03:00*%
%TF.ProjectId,PCB-MPU-9150,5043422d-4d50-4552-9d39-3135302e6b69,rev?*%
%TF.SameCoordinates,Original*%
%TF.FileFunction,Copper,L1,Top*%
%TF.FilePolarity,Positive*%
%FSLAX46Y46*%
G04 Gerber Fmt 4.6, Leading zero omitted, Abs format (unit mm)*
G04 Created by KiCad (PCBNEW 7.0.1) date 2023-08-18 01:43:33*
%MOMM*%
%LPD*%
G01*
G04 APERTURE LIST*
G04 Aperture macros list*
%AMRoundRect*
0 Rectangle with rounded corners*
0 $1 Rounding radius*
0 $2 $3 $4 $5 $6 $7 $8 $9 X,Y pos of 4 corners*
0 Add a 4 corners polygon primitive as box body*
4,1,4,$2,$3,$4,$5,$6,$7,$8,$9,$2,$3,0*
0 Add four circle primitives for the rounded corners*
1,1,$1+$1,$2,$3*
1,1,$1+$1,$4,$5*
1,1,$1+$1,$6,$7*
1,1,$1+$1,$8,$9*
0 Add four rect primitives between the rounded corners*
20,1,$1+$1,$2,$3,$4,$5,0*
20,1,$1+$1,$4,$5,$6,$7,0*
20,1,$1+$1,$6,$7,$8,$9,0*
20,1,$1+$1,$8,$9,$2,$3,0*%
G04 Aperture macros list end*
%TA.AperFunction,SMDPad,CuDef*%
%ADD10R,1.000000X1.100000*%
%TD*%
%TA.AperFunction,SMDPad,CuDef*%
%ADD11R,1.397000X0.889000*%
%TD*%
%TA.AperFunction,SMDPad,CuDef*%
%ADD12R,1.100000X1.000000*%
%TD*%
%TA.AperFunction,SMDPad,CuDef*%
%ADD13RoundRect,0.060000X0.615000X-0.240000X0.615000X0.240000X-0.615000X0.240000X-0.615000X-0.240000X0*%
%TD*%
%TA.AperFunction,SMDPad,CuDef*%
%ADD14R,1.198880X1.198880*%
%TD*%
%TA.AperFunction,SMDPad,CuDef*%
%ADD15R,1.000000X0.889000*%
%TD*%
%TA.AperFunction,SMDPad,CuDef*%
%ADD16R,0.889000X1.397000*%
%TD*%
%TA.AperFunction,SMDPad,CuDef*%
%ADD17R,0.350000X0.400000*%
%TD*%
%TA.AperFunction,SMDPad,CuDef*%
%ADD18R,0.400000X0.350000*%
%TD*%
%TA.AperFunction,ComponentPad*%
%ADD19O,3.016000X1.508000*%
%TD*%
%TA.AperFunction,ViaPad*%
%ADD20C,1.000000*%
%TD*%
%TA.AperFunction,ViaPad*%
%ADD21C,0.800000*%
%TD*%
%TA.AperFunction,Conductor*%
%ADD22C,0.400000*%
%TD*%
%TA.AperFunction,Conductor*%
%ADD23C,0.600000*%
%TD*%
%TA.AperFunction,Conductor*%
%ADD24C,0.500000*%
%TD*%
%TA.AperFunction,Conductor*%
%ADD25C,0.700000*%
%TD*%
%TA.AperFunction,Conductor*%
%ADD26C,0.250000*%
%TD*%
%TA.AperFunction,Profile*%
%ADD27C,0.100000*%
%TD*%
G04 APERTURE END LIST*
D10*
%TO.P,C2,1*%
%TO.N,GND*%
X158600000Y-57950000D03*
%TO.P,C2,2*%
%TO.N,Net-(U1-REGOUT)*%
X158600000Y-56250000D03*
%TD*%
D11*
%TO.P,R3,1*%
%TO.N,+3.3V*%
X158775238Y-47184250D03*
%TO.P,R3,2*%
%TO.N,Net-(LED1-A)*%
X158775238Y-45279250D03*
%TD*%
D12*
%TO.P,C1,1*%
%TO.N,GND*%
X162100000Y-56150000D03*
%TO.P,C1,2*%
%TO.N,Net-(U1-CPOUT)*%
X163800000Y-56150000D03*
%TD*%
D13*
%TO.P,U2,1,VIN*%
%TO.N,VCC*%
X162890238Y-43300000D03*
%TO.P,U2,2,GND*%
%TO.N,GND*%
X162890238Y-42350000D03*
X160520238Y-41400000D03*
%TO.P,U2,3,EN*%
%TO.N,VCC*%
X162890238Y-41400000D03*
%TO.P,U2,5,VOUT*%
%TO.N,+3.3V*%
X160520238Y-43300000D03*
%TD*%
D10*
%TO.P,C5,1*%
%TO.N,GND*%
X156655238Y-41500000D03*
%TO.P,C5,2*%
%TO.N,+3.3V*%
X156655238Y-43200000D03*
%TD*%
D14*
%TO.P,LED1,1,A*%
%TO.N,Net-(LED1-A)*%
X156825238Y-45150980D03*
%TO.P,LED1,2,K*%
%TO.N,GND*%
X156825238Y-47249020D03*
%TD*%
D10*
%TO.P,C7,1*%
%TO.N,VCC*%
X165350000Y-41450000D03*
%TO.P,C7,2*%
%TO.N,GND*%
X165350000Y-43150000D03*
%TD*%
D15*
%TO.P,JP1,1,A*%
%TO.N,GND*%
X156300000Y-58100000D03*
%TO.P,JP1,2,C*%
%TO.N,/AD0*%
X156300000Y-56500000D03*
%TO.P,JP1,3,B*%
%TO.N,+3.3V*%
X156300000Y-54900000D03*
%TD*%
D12*
%TO.P,C4,1*%
%TO.N,+3.3V*%
X157515238Y-52240000D03*
%TO.P,C4,2*%
%TO.N,GND*%
X155815238Y-52240000D03*
%TD*%
D10*
%TO.P,C6,1*%
%TO.N,GND*%
X158515238Y-41500000D03*
%TO.P,C6,2*%
%TO.N,+3.3V*%
X158515238Y-43200000D03*
%TD*%
D12*
%TO.P,C3,1*%
%TO.N,+3.3V*%
X157515238Y-50320000D03*
%TO.P,C3,2*%
%TO.N,GND*%
X155815238Y-50320000D03*
%TD*%
D16*
%TO.P,R1,1*%
%TO.N,+3.3V*%
X162105238Y-48710000D03*
%TO.P,R1,2*%
%TO.N,/SDA*%
X164010238Y-48710000D03*
%TD*%
%TO.P,R2,1*%
%TO.N,+3.3V*%
X162095238Y-46170000D03*
%TO.P,R2,2*%
%TO.N,/SCL*%
X164000238Y-46170000D03*
%TD*%
D17*
%TO.P,U1,1,CLKIN*%
%TO.N,GND*%
X163105238Y-51255000D03*
%TO.P,U1,2,RESV*%
%TO.N,unconnected-(U1-RESV-Pad2)*%
X162605238Y-51255000D03*
%TO.P,U1,3,VDD*%
%TO.N,+3.3V*%
X162105238Y-51255000D03*
%TO.P,U1,4,RESV*%
%TO.N,unconnected-(U1-RESV-Pad4)*%
X161605238Y-51255000D03*
%TO.P,U1,5,RESV*%
%TO.N,unconnected-(U1-RESV-Pad5)*%
X161105238Y-51255000D03*
%TO.P,U1,6,ES_DA*%
%TO.N,/XDA*%
X160605238Y-51255000D03*
D18*
%TO.P,U1,7,ES_CL*%
%TO.N,/XCL*%
X160120238Y-51740000D03*
%TO.P,U1,8,VLOGIC*%
%TO.N,+3.3V*%
X160120238Y-52240000D03*
%TO.P,U1,9,AD0*%
%TO.N,/AD0*%
X160120238Y-52740000D03*
%TO.P,U1,10,REGOUT*%
%TO.N,Net-(U1-REGOUT)*%
X160120238Y-53240000D03*
%TO.P,U1,11,FSYNC*%
%TO.N,GND*%
X160120238Y-53740000D03*
%TO.P,U1,12,INT*%
%TO.N,/INT*%
X160120238Y-54240000D03*
D17*
%TO.P,U1,13,VDD*%
%TO.N,+3.3V*%
X160605238Y-54725000D03*
%TO.P,U1,14,RESV*%
%TO.N,unconnected-(U1-RESV-Pad14)*%
X161105238Y-54725000D03*
%TO.P,U1,15,GND*%
%TO.N,GND*%
X161605238Y-54725000D03*
%TO.P,U1,16,RESV*%
%TO.N,unconnected-(U1-RESV-Pad16)*%
X162105238Y-54725000D03*
%TO.P,U1,17,GND*%
%TO.N,GND*%
X162605238Y-54725000D03*
%TO.P,U1,18,GND*%
X163105238Y-54725000D03*
D18*
%TO.P,U1,19,RESV*%
%TO.N,unconnected-(U1-RESV-Pad19)*%
X163590238Y-54240000D03*
%TO.P,U1,20,CPOUT*%
%TO.N,Net-(U1-CPOUT)*%
X163590238Y-53740000D03*
%TO.P,U1,21,RESV*%
%TO.N,unconnected-(U1-RESV-Pad21)*%
X163590238Y-53240000D03*
%TO.P,U1,22,RESV*%
%TO.N,unconnected-(U1-RESV-Pad22)*%
X163590238Y-52740000D03*
%TO.P,U1,23,SCL*%
%TO.N,/SCL*%
X163590238Y-52240000D03*
%TO.P,U1,24,SDA*%
%TO.N,/SDA*%
X163590238Y-51740000D03*
%TD*%
D19*
%TO.P,P1,1,P1*%
%TO.N,VCC*%
X167895238Y-41090000D03*
%TO.P,P1,2,P2*%
%TO.N,GND*%
X167895238Y-43630000D03*
%TO.P,P1,3,P3*%
%TO.N,/SCL*%
X167895238Y-46170000D03*
%TO.P,P1,4,P4*%
%TO.N,/SDA*%
X167895238Y-48710000D03*
%TO.P,P1,5,P5*%
%TO.N,/XDA*%
X167895238Y-51250000D03*
%TO.P,P1,6,P6*%
%TO.N,/XCL*%
X167895238Y-53790000D03*
%TO.P,P1,7,P7*%
%TO.N,/AD0*%
X167895238Y-56330000D03*
%TO.P,P1,8,P8*%
%TO.N,/INT*%
X167895238Y-58870000D03*
%TD*%
D20*
%TO.N,/SCL*%
X165575238Y-50000000D03*
%TO.N,/XDA*%
X160605238Y-48890000D03*
%TO.N,/XCL*%
X158975238Y-50150000D03*
%TO.N,/INT*%
X160500000Y-56200000D03*
D21*
%TO.N,/AD0*%
X157700000Y-54950000D03*
%TD*%
D22*
%TO.N,GND*%
X163105238Y-51255000D02*
X163090238Y-51270000D01*
X158515238Y-41500000D02*
X160575238Y-41500000D01*
X162600000Y-53689524D02*
X162605238Y-53694762D01*
D23*
X155500000Y-46800000D02*
X155949020Y-47249020D01*
D24*
X161700000Y-44200000D02*
X161700000Y-42450000D01*
X161800000Y-42350000D02*
X162890238Y-42350000D01*
D22*
X161605238Y-54044762D02*
X161605238Y-54725000D01*
D23*
X155815238Y-52240000D02*
X155285238Y-52770000D01*
D22*
X161605238Y-54725000D02*
X161605238Y-55200000D01*
D24*
X165400000Y-43200000D02*
X165350000Y-43150000D01*
X161900000Y-44400000D02*
X161700000Y-44200000D01*
D22*
X162100000Y-55694762D02*
X162100000Y-56150000D01*
X161955238Y-53694762D02*
X161605238Y-54044762D01*
D24*
X160800000Y-42350000D02*
X161800000Y-42350000D01*
D23*
X155815238Y-50320000D02*
X155815238Y-52240000D01*
D24*
X165350000Y-43850000D02*
X164800000Y-44400000D01*
D22*
X163090238Y-51745000D02*
X162600000Y-52235238D01*
D24*
X157450000Y-57950000D02*
X157300000Y-58100000D01*
D23*
X155285238Y-52770000D02*
X155285238Y-57950000D01*
X155685238Y-41500000D02*
X155500000Y-41685238D01*
X155500000Y-41685238D02*
X155500000Y-46800000D01*
D24*
X160665238Y-41590000D02*
X160665238Y-42215238D01*
D23*
X155435238Y-58100000D02*
X156300000Y-58100000D01*
D24*
X161700000Y-42450000D02*
X161800000Y-42350000D01*
D22*
X162605238Y-53694762D02*
X162605238Y-54205238D01*
D24*
X165350000Y-43150000D02*
X165350000Y-43850000D01*
D22*
X162100000Y-56150000D02*
X162100000Y-57450000D01*
X159550000Y-57900000D02*
X159500000Y-57850000D01*
X158515238Y-41500000D02*
X156655238Y-41500000D01*
D24*
X164800000Y-44400000D02*
X161900000Y-44400000D01*
X157300000Y-58100000D02*
X156300000Y-58100000D01*
D22*
X158650000Y-57900000D02*
X158600000Y-57950000D01*
X162600000Y-52235238D02*
X162600000Y-53689524D01*
X159500000Y-57850000D02*
X159500000Y-53900000D01*
X162100000Y-57450000D02*
X161650000Y-57900000D01*
X159500000Y-53900000D02*
X159660000Y-53740000D01*
X162605238Y-53694762D02*
X161955238Y-53694762D01*
X162605238Y-54725000D02*
X162605238Y-54205238D01*
D24*
X167895238Y-43630000D02*
X167465238Y-43200000D01*
D22*
X161605238Y-55200000D02*
X162100000Y-55694762D01*
D24*
X158600000Y-57950000D02*
X157450000Y-57950000D01*
X160665238Y-42215238D02*
X160800000Y-42350000D01*
D22*
X163105238Y-54725000D02*
X162605238Y-54725000D01*
X161650000Y-57900000D02*
X158650000Y-57900000D01*
D23*
X155285238Y-57950000D02*
X155435238Y-58100000D01*
D24*
X167465238Y-43200000D02*
X165400000Y-43200000D01*
D22*
X159660000Y-53740000D02*
X160120238Y-53740000D01*
D23*
X155949020Y-47249020D02*
X155815238Y-47382802D01*
X156655238Y-41500000D02*
X155685238Y-41500000D01*
X155949020Y-47249020D02*
X156825238Y-47249020D01*
X155815238Y-47382802D02*
X155815238Y-50320000D01*
D22*
X163090238Y-51270000D02*
X163090238Y-51745000D01*
%TO.N,Net-(U1-CPOUT)*%
X164385238Y-53740000D02*
X163590238Y-53740000D01*
X164700000Y-55900000D02*
X164700000Y-54054762D01*
X164700000Y-54054762D02*
X164385238Y-53740000D01*
X164450000Y-56150000D02*
X164700000Y-55900000D01*
X163800000Y-56150000D02*
X164450000Y-56150000D01*
%TO.N,Net-(U1-REGOUT)*%
X159260000Y-53240000D02*
X160120238Y-53240000D01*
X158600000Y-53900000D02*
X159260000Y-53240000D01*
X158600000Y-56250000D02*
X158600000Y-53900000D01*
D25*
%TO.N,+3.3V*%
X157515238Y-50320000D02*
X157515238Y-52240000D01*
X158515238Y-43200000D02*
X160420238Y-43200000D01*
X162090988Y-47184250D02*
X160545238Y-47184250D01*
X158775238Y-48090000D02*
X157515238Y-49350000D01*
X160520238Y-47159250D02*
X160545238Y-47184250D01*
X162095238Y-47180000D02*
X162090988Y-47184250D01*
X162095238Y-48700000D02*
X162105238Y-48710000D01*
X156655238Y-43200000D02*
X158515238Y-43200000D01*
X158775238Y-47184250D02*
X158775238Y-48090000D01*
X160520238Y-43300000D02*
X160520238Y-47159250D01*
D24*
X156650000Y-54550000D02*
X156650000Y-53850000D01*
D26*
X160540000Y-52240000D02*
X160120238Y-52240000D01*
D25*
X157515238Y-49350000D02*
X157515238Y-50320000D01*
D24*
X157515238Y-52984762D02*
X157515238Y-52240000D01*
D26*
X160605238Y-52305238D02*
X160540000Y-52240000D01*
D25*
X162095238Y-46170000D02*
X162095238Y-47180000D01*
D24*
X156650000Y-53850000D02*
X157515238Y-52984762D01*
D22*
X162105238Y-51255000D02*
X162105238Y-48710000D01*
D25*
X160545238Y-47184250D02*
X158775238Y-47184250D01*
D26*
X160605238Y-54725000D02*
X160605238Y-52305238D01*
D22*
X157515238Y-52240000D02*
X160120238Y-52240000D01*
D24*
X156300000Y-54900000D02*
X156650000Y-54550000D01*
D25*
X162095238Y-47180000D02*
X162095238Y-48700000D01*
X160420238Y-43200000D02*
X160520238Y-43300000D01*
D23*
%TO.N,VCC*%
X166050000Y-41450000D02*
X165350000Y-41450000D01*
X163800000Y-43300000D02*
X162890238Y-43300000D01*
X164250000Y-42850000D02*
X163800000Y-43300000D01*
X165300000Y-41400000D02*
X165350000Y-41450000D01*
X167895238Y-41090000D02*
X166410000Y-41090000D01*
X162890238Y-41400000D02*
X164250000Y-41400000D01*
X164250000Y-41400000D02*
X164250000Y-42850000D01*
X164250000Y-41400000D02*
X165300000Y-41400000D01*
X166410000Y-41090000D02*
X166050000Y-41450000D01*
D24*
%TO.N,Net-(LED1-A)*%
X158646968Y-45150980D02*
X158775238Y-45279250D01*
X156825238Y-45150980D02*
X158646968Y-45150980D01*
D22*
%TO.N,/SCL*%
X165575238Y-51810000D02*
X165145238Y-52240000D01*
D25*
X165575238Y-46170000D02*
X164000238Y-46170000D01*
D22*
X165145238Y-52240000D02*
X163590238Y-52240000D01*
D25*
X167895238Y-46170000D02*
X165575238Y-46170000D01*
D22*
X165575238Y-50000000D02*
X165575238Y-51810000D01*
D25*
%TO.N,/SDA*%
X167895238Y-48710000D02*
X164010238Y-48710000D01*
D22*
X164145238Y-51740000D02*
X163590238Y-51740000D01*
X164355238Y-51530000D02*
X164355238Y-50240000D01*
X164355238Y-50240000D02*
X164010238Y-49895000D01*
X164145238Y-51740000D02*
X164355238Y-51530000D01*
X164010238Y-49895000D02*
X164010238Y-48710000D01*
%TO.N,/XDA*%
X160605238Y-51255000D02*
X160605238Y-48890000D01*
D25*
%TO.N,/XCL*%
X167895238Y-53790000D02*
X167065238Y-53790000D01*
D22*
X158975238Y-51460000D02*
X158975238Y-50150000D01*
X159255238Y-51740000D02*
X158975238Y-51460000D01*
X160120238Y-51740000D02*
X159255238Y-51740000D01*
D26*
%TO.N,/INT*%
X160120238Y-55070238D02*
X160120238Y-54240000D01*
X160500000Y-56200000D02*
X160500000Y-55450000D01*
X160500000Y-55450000D02*
X160120238Y-55070238D01*
D22*
%TO.N,/AD0*%
X157700000Y-53850000D02*
X158810000Y-52740000D01*
X157700000Y-54950000D02*
X157700000Y-53850000D01*
X157700000Y-54950000D02*
X157650000Y-55000000D01*
X157650000Y-55000000D02*
X157650000Y-55850000D01*
X157000000Y-56500000D02*
X156300000Y-56500000D01*
X158810000Y-52740000D02*
X160120238Y-52740000D01*
X157650000Y-55850000D02*
X157000000Y-56500000D01*
%TD*%
D27*
X154885238Y-60000000D02*
X154885238Y-40000000D01*
X169885238Y-60000000D02*
X169885238Y-40000000D01*
X154885238Y-54825000D02*
X154885238Y-45175000D01*
X154885238Y-40000000D02*
X169885238Y-40000000D01*
X154885238Y-60000000D02*
X169885238Y-60000000D01*
M02*
