%TF.GenerationSoftware,KiCad,Pcbnew,7.0.1*%
%TF.CreationDate,2023-08-18T01:43:33-03:00*%
%TF.ProjectId,PCB-MPU-9150,5043422d-4d50-4552-9d39-3135302e6b69,rev?*%
%TF.SameCoordinates,Original*%
%TF.FileFunction,Copper,L2,Bot*%
%TF.FilePolarity,Positive*%
%FSLAX46Y46*%
G04 Gerber Fmt 4.6, Leading zero omitted, Abs format (unit mm)*
G04 Created by KiCad (PCBNEW 7.0.1) date 2023-08-18 01:43:33*
%MOMM*%
%LPD*%
G01*
G04 APERTURE LIST*
%TA.AperFunction,ComponentPad*%
%ADD10O,3.016000X1.508000*%
%TD*%
%TA.AperFunction,ViaPad*%
%ADD11C,1.000000*%
%TD*%
%TA.AperFunction,ViaPad*%
%ADD12C,0.800000*%
%TD*%
%TA.AperFunction,Conductor*%
%ADD13C,0.700000*%
%TD*%
%TA.AperFunction,Conductor*%
%ADD14C,0.600000*%
%TD*%
%TA.AperFunction,Conductor*%
%ADD15C,0.500000*%
%TD*%
%TA.AperFunction,Profile*%
%ADD16C,0.100000*%
%TD*%
G04 APERTURE END LIST*
D10*
%TO.P,P1,1,P1*%
%TO.N,VCC*%
X167895238Y-41090000D03*
%TO.P,P1,2,P2*%
%TO.N,GND*%
X167895238Y-43630000D03*
%TO.P,P1,3,P3*%
%TO.N,/SCL*%
X167895238Y-46170000D03*
%TO.P,P1,4,P4*%
%TO.N,/SDA*%
X167895238Y-48710000D03*
%TO.P,P1,5,P5*%
%TO.N,/XDA*%
X167895238Y-51250000D03*
%TO.P,P1,6,P6*%
%TO.N,/XCL*%
X167895238Y-53790000D03*
%TO.P,P1,7,P7*%
%TO.N,/AD0*%
X167895238Y-56330000D03*
%TO.P,P1,8,P8*%
%TO.N,/INT*%
X167895238Y-58870000D03*
%TD*%
D11*
%TO.N,/SCL*%
X165575238Y-50000000D03*
%TO.N,/XDA*%
X160605238Y-48890000D03*
%TO.N,/XCL*%
X158975238Y-50150000D03*
%TO.N,/INT*%
X160500000Y-56200000D03*
D12*
%TO.N,/AD0*%
X157700000Y-54950000D03*
%TD*%
D13*
%TO.N,/SCL*%
X165575238Y-46624762D02*
X166030000Y-46170000D01*
X166030000Y-46170000D02*
X167895238Y-46170000D01*
X165575238Y-50000000D02*
X165575238Y-46624762D01*
D14*
%TO.N,/XDA*%
X160605238Y-50755238D02*
X161100000Y-51250000D01*
X160605238Y-48890000D02*
X160605238Y-50755238D01*
X161100000Y-51250000D02*
X167895238Y-51250000D01*
%TO.N,/XCL*%
X158975238Y-50150000D02*
X158975238Y-51975238D01*
X158975238Y-51975238D02*
X160790000Y-53790000D01*
X160790000Y-53790000D02*
X167895238Y-53790000D01*
D15*
%TO.N,/INT*%
X161220000Y-58870000D02*
X167895238Y-58870000D01*
X160500000Y-56200000D02*
X160500000Y-58150000D01*
X160500000Y-58150000D02*
X161220000Y-58870000D01*
D14*
%TO.N,/AD0*%
X157700000Y-54950000D02*
X164100000Y-54950000D01*
X164100000Y-54950000D02*
X165480000Y-56330000D01*
X165480000Y-56330000D02*
X167895238Y-56330000D01*
%TD*%
D16*
X154885238Y-60000000D02*
X154885238Y-40000000D01*
X169885238Y-60000000D02*
X169885238Y-40000000D01*
X154885238Y-54825000D02*
X154885238Y-45175000D01*
X154885238Y-40000000D02*
X169885238Y-40000000D01*
X154885238Y-60000000D02*
X169885238Y-60000000D01*
M02*
