M48
; DRILL file {KiCad (7.0.0)} date Tue Aug 29 19:30:21 2023
; FORMAT={-:-/ absolute / metric / decimal}
; #@! TF.CreationDate,2023-08-29T19:30:21-03:00
; #@! TF.GenerationSoftware,Kicad,Pcbnew,(7.0.0)
; #@! TF.FileFunction,Plated,1,2,PTH
FMAT,2
METRIC
; #@! TA.AperFunction,Plated,PTH,ComponentDrill
T1C0.300
; #@! TA.AperFunction,Plated,PTH,ComponentDrill
T2C0.400
; #@! TA.AperFunction,Plated,PTH,ComponentDrill
T3C0.650
; #@! TA.AperFunction,Plated,PTH,ComponentDrill
T4C1.000
; #@! TA.AperFunction,Plated,PTH,ComponentDrill
T5C1.300
; #@! TA.AperFunction,Plated,PTH,ComponentDrill
T6C3.250
%
G90
G05
T1
X148.48Y-90.0
X148.93Y-88.88
X148.93Y-91.12
X150.07Y-88.4
X150.07Y-91.6
X151.2Y-88.88
X151.2Y-91.12
X151.67Y-90.0
X153.56Y-90.0
X154.01Y-88.88
X154.01Y-91.12
X155.15Y-88.4
X155.15Y-91.6
X156.28Y-88.88
X156.28Y-91.12
X156.75Y-90.0
T2
X148.45Y-98.33
X148.45Y-99.03
X148.45Y-99.73
X148.45Y-100.43
X149.15Y-98.33
X149.15Y-99.03
X149.15Y-99.73
X149.15Y-100.43
X149.85Y-98.33
X149.85Y-99.03
X149.85Y-99.73
X149.85Y-100.43
X150.55Y-98.33
X150.55Y-99.03
X150.55Y-99.73
X150.55Y-100.43
X151.25Y-98.33
X151.25Y-99.03
X151.25Y-99.73
X151.25Y-100.43
X151.95Y-98.33
X151.95Y-99.03
X151.95Y-99.73
X151.95Y-100.43
T3
X163.04Y-97.67
X163.04Y-102.17
T4
X153.97Y-108.15
X156.51Y-108.15
X159.05Y-108.15
X161.59Y-108.15
T5
X150.07Y-90.0
X155.15Y-90.0
X160.44Y-90.0
X165.52Y-90.0
T6
X148.49Y-108.09
X167.1Y-108.09
T0
M30
