M48
; DRILL file {KiCad 7.0.1} date Wed Aug 30 00:45:13 2023
; FORMAT={-:-/ absolute / inch / decimal}
; #@! TF.CreationDate,2023-08-30T00:45:13-03:00
; #@! TF.GenerationSoftware,Kicad,Pcbnew,7.0.1
; #@! TF.FileFunction,Plated,1,2,PTH
FMAT,2
INCH
; #@! TA.AperFunction,Plated,PTH,ComponentDrill
T1C0.0118
; #@! TA.AperFunction,Plated,PTH,ComponentDrill
T2C0.0157
; #@! TA.AperFunction,Plated,PTH,ComponentDrill
T3C0.0256
; #@! TA.AperFunction,Plated,PTH,ComponentDrill
T4C0.0394
; #@! TA.AperFunction,Plated,PTH,ComponentDrill
T5C0.0512
; #@! TA.AperFunction,Plated,PTH,ComponentDrill
T6C0.1280
%
G90
G05
T1
X5.2909Y-4.3591
X5.3087Y-4.315
X5.3087Y-4.4031
X5.3535Y-4.2961
X5.3535Y-4.422
X5.398Y-4.315
X5.398Y-4.4031
X5.4165Y-4.3591
X5.4909Y-4.3591
X5.5087Y-4.315
X5.5087Y-4.4031
X5.5535Y-4.2961
X5.5535Y-4.422
X5.598Y-4.315
X5.598Y-4.4031
X5.6165Y-4.3591
T2
X5.2898Y-4.687
X5.2898Y-4.7146
X5.2898Y-4.7421
X5.2898Y-4.7697
X5.3173Y-4.687
X5.3173Y-4.7146
X5.3173Y-4.7421
X5.3173Y-4.7697
X5.3449Y-4.687
X5.3449Y-4.7146
X5.3449Y-4.7421
X5.3449Y-4.7697
X5.3724Y-4.687
X5.3724Y-4.7146
X5.3724Y-4.7421
X5.3724Y-4.7697
X5.4Y-4.687
X5.4Y-4.7146
X5.4Y-4.7421
X5.4Y-4.7697
X5.4276Y-4.687
X5.4276Y-4.7146
X5.4276Y-4.7421
X5.4276Y-4.7697
T3
X5.8642Y-4.661
X5.8642Y-4.8382
T4
X5.5071Y-5.0736
X5.6071Y-5.0736
X5.7071Y-5.0736
X5.8071Y-5.0736
T5
X5.3535Y-4.3591
X5.5535Y-4.3591
X5.7618Y-4.3591
X5.9618Y-4.3591
T6
X5.2913Y-5.0713
X6.024Y-5.0713
T0
M30
