%TF.GenerationSoftware,KiCad,Pcbnew,7.0.1*%
%TF.CreationDate,2023-08-30T00:45:02-03:00*%
%TF.ProjectId,Driver_TB67H451AFNG,44726976-6572-45f5-9442-363748343531,rev?*%
%TF.SameCoordinates,Original*%
%TF.FileFunction,Soldermask,Bot*%
%TF.FilePolarity,Negative*%
%FSLAX46Y46*%
G04 Gerber Fmt 4.6, Leading zero omitted, Abs format (unit mm)*
G04 Created by KiCad (PCBNEW 7.0.1) date 2023-08-30 00:45:02*
%MOMM*%
%LPD*%
G01*
G04 APERTURE LIST*
%ADD10C,2.500000*%
%ADD11C,3.250000*%
%ADD12C,0.700000*%
%ADD13R,1.700000X1.700000*%
%ADD14O,1.700000X1.700000*%
%ADD15R,1.524000X1.524000*%
%ADD16C,1.524000*%
%TA.AperFunction,Profile*%
%ADD17C,0.100000*%
%TD*%
G04 APERTURE END LIST*
D10*
%TO.C,J1*%
X151430000Y-110720000D03*
X146350000Y-110720000D03*
%TD*%
D11*
%TO.C,H2*%
X153010000Y-128810000D03*
%TD*%
D12*
%TO.C,U1*%
X134360000Y-119050000D03*
X134360000Y-119750000D03*
X134360000Y-120450000D03*
X134360000Y-121150000D03*
X135060000Y-119050000D03*
X135060000Y-119750000D03*
X135060000Y-120450000D03*
X135060000Y-121150000D03*
X135760000Y-119050000D03*
X135760000Y-119750000D03*
X135760000Y-120450000D03*
X135760000Y-121150000D03*
X136460000Y-119050000D03*
X136460000Y-119750000D03*
X136460000Y-120450000D03*
X136460000Y-121150000D03*
X137160000Y-119050000D03*
X137160000Y-119750000D03*
X137160000Y-120450000D03*
X137160000Y-121150000D03*
X137860000Y-119050000D03*
X137860000Y-119750000D03*
X137860000Y-120450000D03*
X137860000Y-121150000D03*
%TD*%
D13*
%TO.C,J4*%
X147500000Y-128870000D03*
D14*
X144960000Y-128870000D03*
X142420000Y-128870000D03*
X139880000Y-128870000D03*
%TD*%
D11*
%TO.C,H1*%
X134400000Y-128810000D03*
%TD*%
D15*
%TO.C,C2*%
X148950000Y-118390000D03*
D16*
X148950000Y-122890000D03*
%TD*%
D12*
%TO.C,J3*%
X142660000Y-110720000D03*
X142190000Y-111840000D03*
X142190000Y-109600000D03*
X141060000Y-112320000D03*
D10*
X141060000Y-110720000D03*
D12*
X141060000Y-109120000D03*
X139920000Y-111840000D03*
X139920000Y-109600000D03*
X139470000Y-110720000D03*
X137580000Y-110720000D03*
X137110000Y-111840000D03*
X137110000Y-109600000D03*
X135980000Y-112320000D03*
D10*
X135980000Y-110720000D03*
D12*
X135980000Y-109120000D03*
X134840000Y-111840000D03*
X134840000Y-109600000D03*
X134390000Y-110720000D03*
%TD*%
D17*
X156200000Y-107000000D02*
X156200000Y-109000000D01*
X131200000Y-107000000D02*
X156200000Y-107000000D01*
X156200000Y-132000000D01*
X131200000Y-132000000D01*
X131200000Y-107000000D01*
M02*
