%TF.GenerationSoftware,KiCad,Pcbnew,(7.0.0)*%
%TF.CreationDate,2023-08-29T19:29:08-03:00*%
%TF.ProjectId,Driver_TB67H451AFNG,44726976-6572-45f5-9442-363748343531,rev?*%
%TF.SameCoordinates,Original*%
%TF.FileFunction,Soldermask,Bot*%
%TF.FilePolarity,Negative*%
%FSLAX46Y46*%
G04 Gerber Fmt 4.6, Leading zero omitted, Abs format (unit mm)*
G04 Created by KiCad (PCBNEW (7.0.0)) date 2023-08-29 19:29:08*
%MOMM*%
%LPD*%
G01*
G04 APERTURE LIST*
%ADD10C,2.500000*%
%ADD11C,0.700000*%
%ADD12R,1.700000X1.700000*%
%ADD13O,1.700000X1.700000*%
%ADD14R,1.524000X1.524000*%
%ADD15C,1.524000*%
%TA.AperFunction,Profile*%
%ADD16C,0.100000*%
%TD*%
G04 APERTURE END LIST*
D10*
%TO.C,J1*%
X165520000Y-90000000D03*
X160440000Y-90000000D03*
%TD*%
D11*
%TO.C,U1*%
X148450000Y-98330000D03*
X148450000Y-99030000D03*
X148450000Y-99730000D03*
X148450000Y-100430000D03*
X149150000Y-98330000D03*
X149150000Y-99030000D03*
X149150000Y-99730000D03*
X149150000Y-100430000D03*
X149850000Y-98330000D03*
X149850000Y-99030000D03*
X149850000Y-99730000D03*
X149850000Y-100430000D03*
X150550000Y-98330000D03*
X150550000Y-99030000D03*
X150550000Y-99730000D03*
X150550000Y-100430000D03*
X151250000Y-98330000D03*
X151250000Y-99030000D03*
X151250000Y-99730000D03*
X151250000Y-100430000D03*
X151950000Y-98330000D03*
X151950000Y-99030000D03*
X151950000Y-99730000D03*
X151950000Y-100430000D03*
%TD*%
D12*
%TO.C,J4*%
X161589999Y-108149999D03*
D13*
X159049999Y-108149999D03*
X156509999Y-108149999D03*
X153969999Y-108149999D03*
%TD*%
D14*
%TO.C,C2*%
X163039999Y-97669999D03*
D15*
X163040000Y-102170000D03*
%TD*%
D11*
%TO.C,J3*%
X156750000Y-90000000D03*
X156280000Y-91120000D03*
X156280000Y-88880000D03*
X155150000Y-91600000D03*
D10*
X155150000Y-90000000D03*
D11*
X155150000Y-88400000D03*
X154010000Y-91120000D03*
X154010000Y-88880000D03*
X153560000Y-90000000D03*
X151670000Y-90000000D03*
X151200000Y-91120000D03*
X151200000Y-88880000D03*
X150070000Y-91600000D03*
D10*
X150070000Y-90000000D03*
D11*
X150070000Y-88400000D03*
X148930000Y-91120000D03*
X148930000Y-88880000D03*
X148480000Y-90000000D03*
%TD*%
D16*
X145290000Y-86280000D02*
X170290000Y-86280000D01*
X170290000Y-86280000D02*
X170290000Y-111280000D01*
X170290000Y-111280000D02*
X145290000Y-111280000D01*
X145290000Y-111280000D02*
X145290000Y-86280000D01*
M02*
