%TF.GenerationSoftware,KiCad,Pcbnew,(7.0.0)*%
%TF.CreationDate,2023-08-29T19:29:08-03:00*%
%TF.ProjectId,Driver_TB67H451AFNG,44726976-6572-45f5-9442-363748343531,rev?*%
%TF.SameCoordinates,Original*%
%TF.FileFunction,Copper,L2,Bot*%
%TF.FilePolarity,Positive*%
%FSLAX46Y46*%
G04 Gerber Fmt 4.6, Leading zero omitted, Abs format (unit mm)*
G04 Created by KiCad (PCBNEW (7.0.0)) date 2023-08-29 19:29:08*
%MOMM*%
%LPD*%
G01*
G04 APERTURE LIST*
%TA.AperFunction,ComponentPad*%
%ADD10C,2.500000*%
%TD*%
%TA.AperFunction,ComponentPad*%
%ADD11C,3.250000*%
%TD*%
%TA.AperFunction,ComponentPad*%
%ADD12C,0.700000*%
%TD*%
%TA.AperFunction,ComponentPad*%
%ADD13R,1.700000X1.700000*%
%TD*%
%TA.AperFunction,ComponentPad*%
%ADD14O,1.700000X1.700000*%
%TD*%
%TA.AperFunction,ComponentPad*%
%ADD15R,1.524000X1.524000*%
%TD*%
%TA.AperFunction,ComponentPad*%
%ADD16C,1.524000*%
%TD*%
%TA.AperFunction,Profile*%
%ADD17C,0.100000*%
%TD*%
G04 APERTURE END LIST*
D10*
%TO.P,J1,1*%
%TO.N,GND*%
X165520000Y-90000000D03*
%TO.P,J1,2*%
%TO.N,/Vin*%
X160440000Y-90000000D03*
%TD*%
D11*
%TO.P,H2,1*%
%TO.N,N/C*%
X167100000Y-108090000D03*
%TD*%
D12*
%TO.P,U1,1,GND*%
%TO.N,GND*%
X148450000Y-98330000D03*
X148450000Y-99030000D03*
X148450000Y-99730000D03*
X148450000Y-100430000D03*
X149150000Y-98330000D03*
X149150000Y-99030000D03*
X149150000Y-99730000D03*
X149150000Y-100430000D03*
X149850000Y-98330000D03*
X149850000Y-99030000D03*
X149850000Y-99730000D03*
X149850000Y-100430000D03*
X150550000Y-98330000D03*
X150550000Y-99030000D03*
X150550000Y-99730000D03*
X150550000Y-100430000D03*
X151250000Y-98330000D03*
X151250000Y-99030000D03*
X151250000Y-99730000D03*
X151250000Y-100430000D03*
X151950000Y-98330000D03*
X151950000Y-99030000D03*
X151950000Y-99730000D03*
X151950000Y-100430000D03*
%TD*%
D13*
%TO.P,J4,1,Pin_1*%
%TO.N,+5V*%
X161589999Y-108149999D03*
D14*
%TO.P,J4,2,Pin_2*%
%TO.N,/M1B*%
X159049999Y-108149999D03*
%TO.P,J4,3,Pin_3*%
%TO.N,/M1A*%
X156509999Y-108149999D03*
%TO.P,J4,4,Pin_4*%
%TO.N,GND*%
X153969999Y-108149999D03*
%TD*%
D11*
%TO.P,H1,1*%
%TO.N,N/C*%
X148490000Y-108090000D03*
%TD*%
D15*
%TO.P,C2,1*%
%TO.N,/Vin*%
X163039999Y-97669999D03*
D16*
%TO.P,C2,2*%
%TO.N,GND*%
X163040000Y-102170000D03*
%TD*%
D12*
%TO.P,J3,1*%
%TO.N,Net-(U1-OUT1)*%
X156750000Y-90000000D03*
X156280000Y-91120000D03*
X156280000Y-88880000D03*
X155150000Y-91600000D03*
D10*
X155150000Y-90000000D03*
D12*
X155150000Y-88400000D03*
X154010000Y-91120000D03*
X154010000Y-88880000D03*
X153560000Y-90000000D03*
%TO.P,J3,2*%
%TO.N,Net-(U1-OUT2)*%
X151670000Y-90000000D03*
X151200000Y-91120000D03*
X151200000Y-88880000D03*
X150070000Y-91600000D03*
D10*
X150070000Y-90000000D03*
D12*
X150070000Y-88400000D03*
X148930000Y-91120000D03*
X148930000Y-88880000D03*
X148480000Y-90000000D03*
%TD*%
%TA.AperFunction,Conductor*%
%TO.N,GND*%
G36*
X170031072Y-86298805D02*
G01*
X170135332Y-86351928D01*
X170218072Y-86434668D01*
X170271195Y-86538928D01*
X170289500Y-86654500D01*
X170289500Y-110905500D01*
X170271195Y-111021072D01*
X170218072Y-111125332D01*
X170135332Y-111208072D01*
X170031072Y-111261195D01*
X169915500Y-111279500D01*
X145664500Y-111279500D01*
X145548928Y-111261195D01*
X145444668Y-111208072D01*
X145361928Y-111125332D01*
X145308805Y-111021072D01*
X145290500Y-110905500D01*
X145290500Y-108090000D01*
X146109403Y-108090000D01*
X146129769Y-108400730D01*
X146132157Y-108412735D01*
X146188130Y-108694132D01*
X146188132Y-108694141D01*
X146190520Y-108706144D01*
X146194457Y-108717742D01*
X146286678Y-108989419D01*
X146286681Y-108989428D01*
X146290615Y-109001015D01*
X146296030Y-109011997D01*
X146296032Y-109012000D01*
X146352951Y-109127421D01*
X146428343Y-109280299D01*
X146601345Y-109539216D01*
X146609415Y-109548418D01*
X146771792Y-109733573D01*
X146806664Y-109773336D01*
X147040784Y-109978655D01*
X147299701Y-110151657D01*
X147578985Y-110289385D01*
X147873856Y-110389480D01*
X148179270Y-110450231D01*
X148490000Y-110470597D01*
X148800730Y-110450231D01*
X149106144Y-110389480D01*
X149401015Y-110289385D01*
X149680299Y-110151657D01*
X149939216Y-109978655D01*
X150173336Y-109773336D01*
X150378655Y-109539216D01*
X150551657Y-109280299D01*
X150689385Y-109001015D01*
X150789480Y-108706144D01*
X150850231Y-108400730D01*
X150866664Y-108150000D01*
X154904551Y-108150000D01*
X154905704Y-108164650D01*
X154923163Y-108386497D01*
X154923164Y-108386508D01*
X154924317Y-108401148D01*
X154983127Y-108646111D01*
X154988748Y-108659683D01*
X154988751Y-108659690D01*
X155007993Y-108706144D01*
X155079534Y-108878859D01*
X155211164Y-109093659D01*
X155220704Y-109104829D01*
X155220707Y-109104833D01*
X155361190Y-109269317D01*
X155374776Y-109285224D01*
X155385946Y-109294764D01*
X155482894Y-109377566D01*
X155566341Y-109448836D01*
X155781141Y-109580466D01*
X156013889Y-109676873D01*
X156258852Y-109735683D01*
X156510000Y-109755449D01*
X156761148Y-109735683D01*
X157006111Y-109676873D01*
X157238859Y-109580466D01*
X157453659Y-109448836D01*
X157537106Y-109377564D01*
X157626093Y-109321093D01*
X157727303Y-109291688D01*
X157832697Y-109291688D01*
X157933907Y-109321093D01*
X158022893Y-109377564D01*
X158106341Y-109448836D01*
X158321141Y-109580466D01*
X158553889Y-109676873D01*
X158798852Y-109735683D01*
X159050000Y-109755449D01*
X159301148Y-109735683D01*
X159546111Y-109676873D01*
X159778859Y-109580466D01*
X159827290Y-109550786D01*
X159931954Y-109506852D01*
X160044988Y-109496340D01*
X160155968Y-109520224D01*
X160254671Y-109576304D01*
X160255937Y-109577305D01*
X160271344Y-109592712D01*
X160420666Y-109684814D01*
X160587203Y-109739999D01*
X160689991Y-109750500D01*
X162490008Y-109750499D01*
X162592797Y-109739999D01*
X162759334Y-109684814D01*
X162908656Y-109592712D01*
X163032712Y-109468656D01*
X163124814Y-109319334D01*
X163179999Y-109152797D01*
X163190500Y-109050009D01*
X163190499Y-108090000D01*
X164719403Y-108090000D01*
X164739769Y-108400730D01*
X164742157Y-108412735D01*
X164798130Y-108694132D01*
X164798132Y-108694141D01*
X164800520Y-108706144D01*
X164804457Y-108717742D01*
X164896678Y-108989419D01*
X164896681Y-108989428D01*
X164900615Y-109001015D01*
X164906030Y-109011997D01*
X164906032Y-109012000D01*
X164962951Y-109127421D01*
X165038343Y-109280299D01*
X165211345Y-109539216D01*
X165219415Y-109548418D01*
X165381792Y-109733573D01*
X165416664Y-109773336D01*
X165650784Y-109978655D01*
X165909701Y-110151657D01*
X166188985Y-110289385D01*
X166483856Y-110389480D01*
X166789270Y-110450231D01*
X167100000Y-110470597D01*
X167410730Y-110450231D01*
X167716144Y-110389480D01*
X168011015Y-110289385D01*
X168290299Y-110151657D01*
X168549216Y-109978655D01*
X168783336Y-109773336D01*
X168988655Y-109539216D01*
X169161657Y-109280299D01*
X169299385Y-109001015D01*
X169399480Y-108706144D01*
X169460231Y-108400730D01*
X169480597Y-108090000D01*
X169460231Y-107779270D01*
X169399480Y-107473856D01*
X169299385Y-107178985D01*
X169161657Y-106899702D01*
X168988655Y-106640784D01*
X168783336Y-106406664D01*
X168549216Y-106201345D01*
X168290299Y-106028343D01*
X168279320Y-106022928D01*
X168279317Y-106022927D01*
X168022000Y-105896032D01*
X168021997Y-105896030D01*
X168011015Y-105890615D01*
X167999428Y-105886681D01*
X167999419Y-105886678D01*
X167727742Y-105794457D01*
X167716144Y-105790520D01*
X167704141Y-105788132D01*
X167704132Y-105788130D01*
X167422735Y-105732157D01*
X167410730Y-105729769D01*
X167398511Y-105728968D01*
X167398510Y-105728968D01*
X167112221Y-105710204D01*
X167100000Y-105709403D01*
X167087779Y-105710204D01*
X167022234Y-105714500D01*
X166801489Y-105728968D01*
X166801486Y-105728968D01*
X166789270Y-105729769D01*
X166777266Y-105732156D01*
X166777264Y-105732157D01*
X166495867Y-105788130D01*
X166495854Y-105788133D01*
X166483856Y-105790520D01*
X166472261Y-105794455D01*
X166472257Y-105794457D01*
X166200576Y-105886680D01*
X166200570Y-105886682D01*
X166188985Y-105890615D01*
X166178016Y-105896023D01*
X166178007Y-105896028D01*
X165920685Y-106022926D01*
X165920676Y-106022931D01*
X165909702Y-106028343D01*
X165899527Y-106035141D01*
X165899516Y-106035148D01*
X165660969Y-106194539D01*
X165660962Y-106194544D01*
X165650784Y-106201345D01*
X165641581Y-106209415D01*
X165641573Y-106209422D01*
X165425874Y-106398586D01*
X165425865Y-106398594D01*
X165416664Y-106406664D01*
X165408594Y-106415865D01*
X165408586Y-106415874D01*
X165219415Y-106631581D01*
X165219408Y-106631588D01*
X165211345Y-106640784D01*
X165204552Y-106650950D01*
X165204547Y-106650957D01*
X165045147Y-106889517D01*
X165045142Y-106889524D01*
X165038343Y-106899701D01*
X165032933Y-106910670D01*
X165032925Y-106910685D01*
X164981594Y-107014776D01*
X164906032Y-107167999D01*
X164906028Y-107168007D01*
X164900615Y-107178985D01*
X164896683Y-107190566D01*
X164896678Y-107190580D01*
X164879727Y-107240518D01*
X164800520Y-107473856D01*
X164798133Y-107485854D01*
X164798130Y-107485867D01*
X164742157Y-107767264D01*
X164739769Y-107779270D01*
X164719403Y-108090000D01*
X163190499Y-108090000D01*
X163190499Y-107249992D01*
X163179999Y-107147203D01*
X163124814Y-106980666D01*
X163032712Y-106831344D01*
X162908656Y-106707288D01*
X162890113Y-106695850D01*
X162890111Y-106695849D01*
X162777875Y-106626622D01*
X162777874Y-106626621D01*
X162759334Y-106615186D01*
X162734801Y-106607056D01*
X162612185Y-106566425D01*
X162612180Y-106566423D01*
X162592797Y-106560001D01*
X162572477Y-106557925D01*
X162499480Y-106550467D01*
X162499468Y-106550466D01*
X162490009Y-106549500D01*
X162480492Y-106549500D01*
X160699516Y-106549500D01*
X160699496Y-106549500D01*
X160689992Y-106549501D01*
X160680533Y-106550467D01*
X160680518Y-106550468D01*
X160607521Y-106557925D01*
X160607516Y-106557925D01*
X160587203Y-106560001D01*
X160567814Y-106566425D01*
X160567813Y-106566426D01*
X160441346Y-106608333D01*
X160441343Y-106608334D01*
X160420666Y-106615186D01*
X160402128Y-106626619D01*
X160402124Y-106626622D01*
X160289884Y-106695852D01*
X160289881Y-106695854D01*
X160271344Y-106707288D01*
X160255942Y-106722689D01*
X160254667Y-106723698D01*
X160155967Y-106779776D01*
X160044989Y-106803659D01*
X159931957Y-106793148D01*
X159827290Y-106749212D01*
X159778859Y-106719534D01*
X159765277Y-106713908D01*
X159559690Y-106628751D01*
X159559683Y-106628748D01*
X159546111Y-106623127D01*
X159531816Y-106619695D01*
X159315440Y-106567748D01*
X159315437Y-106567747D01*
X159301148Y-106564317D01*
X159286508Y-106563164D01*
X159286497Y-106563163D01*
X159064650Y-106545704D01*
X159050000Y-106544551D01*
X159035350Y-106545704D01*
X158813502Y-106563163D01*
X158813489Y-106563165D01*
X158798852Y-106564317D01*
X158784564Y-106567747D01*
X158784559Y-106567748D01*
X158568183Y-106619695D01*
X158568179Y-106619696D01*
X158553889Y-106623127D01*
X158540320Y-106628747D01*
X158540309Y-106628751D01*
X158334722Y-106713908D01*
X158334715Y-106713911D01*
X158321141Y-106719534D01*
X158308615Y-106727209D01*
X158308607Y-106727214D01*
X158118873Y-106843484D01*
X158118869Y-106843486D01*
X158106341Y-106851164D01*
X158095170Y-106860704D01*
X158095167Y-106860707D01*
X158022893Y-106922435D01*
X157933906Y-106978907D01*
X157832697Y-107008311D01*
X157727303Y-107008311D01*
X157626094Y-106978907D01*
X157537107Y-106922435D01*
X157464832Y-106860707D01*
X157453659Y-106851164D01*
X157337165Y-106779776D01*
X157251392Y-106727214D01*
X157251389Y-106727212D01*
X157238859Y-106719534D01*
X157225277Y-106713908D01*
X157019690Y-106628751D01*
X157019683Y-106628748D01*
X157006111Y-106623127D01*
X156991816Y-106619695D01*
X156775440Y-106567748D01*
X156775437Y-106567747D01*
X156761148Y-106564317D01*
X156746508Y-106563164D01*
X156746497Y-106563163D01*
X156524650Y-106545704D01*
X156510000Y-106544551D01*
X156495350Y-106545704D01*
X156273502Y-106563163D01*
X156273489Y-106563165D01*
X156258852Y-106564317D01*
X156244564Y-106567747D01*
X156244559Y-106567748D01*
X156028183Y-106619695D01*
X156028179Y-106619696D01*
X156013889Y-106623127D01*
X156000320Y-106628747D01*
X156000309Y-106628751D01*
X155794722Y-106713908D01*
X155794715Y-106713911D01*
X155781141Y-106719534D01*
X155768615Y-106727209D01*
X155768607Y-106727214D01*
X155578873Y-106843484D01*
X155578869Y-106843486D01*
X155566341Y-106851164D01*
X155555176Y-106860699D01*
X155555166Y-106860707D01*
X155385946Y-107005235D01*
X155385939Y-107005241D01*
X155374776Y-107014776D01*
X155365241Y-107025939D01*
X155365235Y-107025946D01*
X155220707Y-107195166D01*
X155220699Y-107195176D01*
X155211164Y-107206341D01*
X155203486Y-107218869D01*
X155203484Y-107218873D01*
X155087214Y-107408607D01*
X155087209Y-107408615D01*
X155079534Y-107421141D01*
X155073911Y-107434715D01*
X155073908Y-107434722D01*
X154988751Y-107640309D01*
X154988747Y-107640320D01*
X154983127Y-107653889D01*
X154924317Y-107898852D01*
X154923165Y-107913489D01*
X154923163Y-107913502D01*
X154910235Y-108077779D01*
X154904551Y-108150000D01*
X150866664Y-108150000D01*
X150870597Y-108090000D01*
X150850231Y-107779270D01*
X150789480Y-107473856D01*
X150689385Y-107178985D01*
X150551657Y-106899702D01*
X150378655Y-106640784D01*
X150173336Y-106406664D01*
X149939216Y-106201345D01*
X149680299Y-106028343D01*
X149669320Y-106022928D01*
X149669317Y-106022927D01*
X149412000Y-105896032D01*
X149411997Y-105896030D01*
X149401015Y-105890615D01*
X149389428Y-105886681D01*
X149389419Y-105886678D01*
X149117742Y-105794457D01*
X149106144Y-105790520D01*
X149094141Y-105788132D01*
X149094132Y-105788130D01*
X148812735Y-105732157D01*
X148800730Y-105729769D01*
X148788511Y-105728968D01*
X148788510Y-105728968D01*
X148502221Y-105710204D01*
X148490000Y-105709403D01*
X148477779Y-105710204D01*
X148412234Y-105714500D01*
X148191489Y-105728968D01*
X148191486Y-105728968D01*
X148179270Y-105729769D01*
X148167266Y-105732156D01*
X148167264Y-105732157D01*
X147885867Y-105788130D01*
X147885854Y-105788133D01*
X147873856Y-105790520D01*
X147862261Y-105794455D01*
X147862257Y-105794457D01*
X147590576Y-105886680D01*
X147590570Y-105886682D01*
X147578985Y-105890615D01*
X147568016Y-105896023D01*
X147568007Y-105896028D01*
X147310685Y-106022926D01*
X147310676Y-106022931D01*
X147299702Y-106028343D01*
X147289527Y-106035141D01*
X147289516Y-106035148D01*
X147050969Y-106194539D01*
X147050962Y-106194544D01*
X147040784Y-106201345D01*
X147031581Y-106209415D01*
X147031573Y-106209422D01*
X146815874Y-106398586D01*
X146815865Y-106398594D01*
X146806664Y-106406664D01*
X146798594Y-106415865D01*
X146798586Y-106415874D01*
X146609415Y-106631581D01*
X146609408Y-106631588D01*
X146601345Y-106640784D01*
X146594552Y-106650950D01*
X146594547Y-106650957D01*
X146435147Y-106889517D01*
X146435142Y-106889524D01*
X146428343Y-106899701D01*
X146422933Y-106910670D01*
X146422925Y-106910685D01*
X146371594Y-107014776D01*
X146296032Y-107167999D01*
X146296028Y-107168007D01*
X146290615Y-107178985D01*
X146286683Y-107190566D01*
X146286678Y-107190580D01*
X146269727Y-107240518D01*
X146190520Y-107473856D01*
X146188133Y-107485854D01*
X146188130Y-107485867D01*
X146132157Y-107767264D01*
X146129769Y-107779270D01*
X146109403Y-108090000D01*
X145290500Y-108090000D01*
X145290500Y-98472502D01*
X161527500Y-98472502D01*
X161527501Y-98482008D01*
X161528467Y-98491467D01*
X161528468Y-98491481D01*
X161535925Y-98564477D01*
X161538001Y-98584797D01*
X161593186Y-98751334D01*
X161685288Y-98900656D01*
X161809344Y-99024712D01*
X161958666Y-99116814D01*
X162125203Y-99171999D01*
X162227991Y-99182500D01*
X163852008Y-99182499D01*
X163954797Y-99171999D01*
X164121334Y-99116814D01*
X164270656Y-99024712D01*
X164394712Y-98900656D01*
X164486814Y-98751334D01*
X164541999Y-98584797D01*
X164552500Y-98482009D01*
X164552499Y-96857992D01*
X164541999Y-96755203D01*
X164486814Y-96588666D01*
X164394712Y-96439344D01*
X164270656Y-96315288D01*
X164252113Y-96303850D01*
X164252111Y-96303849D01*
X164139875Y-96234622D01*
X164139874Y-96234621D01*
X164121334Y-96223186D01*
X164096801Y-96215056D01*
X163974185Y-96174425D01*
X163974180Y-96174423D01*
X163954797Y-96168001D01*
X163934477Y-96165925D01*
X163861480Y-96158467D01*
X163861468Y-96158466D01*
X163852009Y-96157500D01*
X163842492Y-96157500D01*
X162237516Y-96157500D01*
X162237496Y-96157500D01*
X162227992Y-96157501D01*
X162218533Y-96158467D01*
X162218518Y-96158468D01*
X162145521Y-96165925D01*
X162145516Y-96165925D01*
X162125203Y-96168001D01*
X162105814Y-96174425D01*
X162105813Y-96174426D01*
X161979346Y-96216333D01*
X161979343Y-96216334D01*
X161958666Y-96223186D01*
X161940128Y-96234619D01*
X161940124Y-96234622D01*
X161827888Y-96303849D01*
X161827882Y-96303853D01*
X161809344Y-96315288D01*
X161793941Y-96330690D01*
X161793937Y-96330694D01*
X161700694Y-96423937D01*
X161700690Y-96423941D01*
X161685288Y-96439344D01*
X161673853Y-96457882D01*
X161673849Y-96457888D01*
X161604622Y-96570124D01*
X161604619Y-96570128D01*
X161593186Y-96588666D01*
X161586334Y-96609343D01*
X161586333Y-96609346D01*
X161544425Y-96735814D01*
X161544423Y-96735821D01*
X161538001Y-96755203D01*
X161535925Y-96775520D01*
X161535925Y-96775522D01*
X161528467Y-96848519D01*
X161528466Y-96848532D01*
X161527500Y-96857991D01*
X161527500Y-96867506D01*
X161527500Y-96867507D01*
X161527500Y-98472483D01*
X161527500Y-98472502D01*
X145290500Y-98472502D01*
X145290500Y-90000000D01*
X147374785Y-90000000D01*
X147376380Y-90017213D01*
X147392007Y-90185867D01*
X147392008Y-90185874D01*
X147393603Y-90203083D01*
X147398333Y-90219710D01*
X147398335Y-90219716D01*
X147444685Y-90382618D01*
X147444687Y-90382625D01*
X147449418Y-90399250D01*
X147457122Y-90414723D01*
X147457125Y-90414729D01*
X147524182Y-90549397D01*
X147540327Y-90581821D01*
X147663236Y-90744579D01*
X147706656Y-90784161D01*
X147778584Y-90873547D01*
X147820031Y-90980533D01*
X147827096Y-91095050D01*
X147826380Y-91102778D01*
X147826380Y-91102787D01*
X147824785Y-91120000D01*
X147826380Y-91137213D01*
X147842007Y-91305867D01*
X147842008Y-91305874D01*
X147843603Y-91323083D01*
X147848333Y-91339710D01*
X147848335Y-91339716D01*
X147894685Y-91502618D01*
X147894687Y-91502625D01*
X147899418Y-91519250D01*
X147907122Y-91534723D01*
X147907125Y-91534729D01*
X147974182Y-91669397D01*
X147990327Y-91701821D01*
X148000746Y-91715618D01*
X148078035Y-91817966D01*
X148113236Y-91864579D01*
X148126010Y-91876224D01*
X148126011Y-91876225D01*
X148178822Y-91924369D01*
X148263959Y-92001981D01*
X148437363Y-92109348D01*
X148627544Y-92183024D01*
X148828024Y-92220500D01*
X148845319Y-92220500D01*
X148977145Y-92220500D01*
X149079494Y-92234777D01*
X149174030Y-92276518D01*
X149248601Y-92338441D01*
X149253236Y-92344579D01*
X149403959Y-92481981D01*
X149577363Y-92589348D01*
X149767544Y-92663024D01*
X149968024Y-92700500D01*
X150154681Y-92700500D01*
X150171976Y-92700500D01*
X150372456Y-92663024D01*
X150562637Y-92589348D01*
X150736041Y-92481981D01*
X150886764Y-92344579D01*
X150891398Y-92338441D01*
X150965970Y-92276518D01*
X151060506Y-92234777D01*
X151162855Y-92220500D01*
X151284681Y-92220500D01*
X151301976Y-92220500D01*
X151502456Y-92183024D01*
X151692637Y-92109348D01*
X151866041Y-92001981D01*
X152016764Y-91864579D01*
X152139673Y-91701821D01*
X152230582Y-91519250D01*
X152245279Y-91467595D01*
X152296451Y-91358589D01*
X152379615Y-91271492D01*
X152486146Y-91215338D01*
X152605000Y-91195950D01*
X152723854Y-91215338D01*
X152830385Y-91271492D01*
X152913549Y-91358589D01*
X152964720Y-91467595D01*
X152979418Y-91519250D01*
X152987122Y-91534723D01*
X152987125Y-91534729D01*
X153054182Y-91669397D01*
X153070327Y-91701821D01*
X153080746Y-91715618D01*
X153158035Y-91817966D01*
X153193236Y-91864579D01*
X153206010Y-91876224D01*
X153206011Y-91876225D01*
X153258822Y-91924369D01*
X153343959Y-92001981D01*
X153517363Y-92109348D01*
X153707544Y-92183024D01*
X153908024Y-92220500D01*
X153925319Y-92220500D01*
X154057145Y-92220500D01*
X154159494Y-92234777D01*
X154254030Y-92276518D01*
X154328601Y-92338441D01*
X154333236Y-92344579D01*
X154483959Y-92481981D01*
X154657363Y-92589348D01*
X154847544Y-92663024D01*
X155048024Y-92700500D01*
X155234681Y-92700500D01*
X155251976Y-92700500D01*
X155452456Y-92663024D01*
X155642637Y-92589348D01*
X155816041Y-92481981D01*
X155966764Y-92344579D01*
X155971398Y-92338441D01*
X156045970Y-92276518D01*
X156140506Y-92234777D01*
X156242855Y-92220500D01*
X156364681Y-92220500D01*
X156381976Y-92220500D01*
X156582456Y-92183024D01*
X156772637Y-92109348D01*
X156946041Y-92001981D01*
X157096764Y-91864579D01*
X157219673Y-91701821D01*
X157310582Y-91519250D01*
X157366397Y-91323083D01*
X157385215Y-91120000D01*
X157383620Y-91102787D01*
X157383620Y-91085492D01*
X157386090Y-91085492D01*
X157391522Y-90997362D01*
X157432970Y-90890364D01*
X157504903Y-90800972D01*
X157566764Y-90744579D01*
X157689673Y-90581821D01*
X157780582Y-90399250D01*
X157781765Y-90395090D01*
X157838101Y-90298818D01*
X157927489Y-90220159D01*
X158037071Y-90173583D01*
X158155738Y-90163809D01*
X158271463Y-90191828D01*
X158372517Y-90254801D01*
X158448657Y-90346344D01*
X158492165Y-90457180D01*
X158512790Y-90551989D01*
X158512792Y-90551997D01*
X158515631Y-90565046D01*
X158520295Y-90577552D01*
X158520297Y-90577557D01*
X158586936Y-90756223D01*
X158615633Y-90833161D01*
X158622032Y-90844880D01*
X158622033Y-90844882D01*
X158705294Y-90997362D01*
X158752774Y-91084315D01*
X158760772Y-91094999D01*
X158850856Y-91215338D01*
X158924261Y-91313395D01*
X159126605Y-91515739D01*
X159355685Y-91687226D01*
X159606839Y-91824367D01*
X159874954Y-91924369D01*
X160154572Y-91985196D01*
X160440000Y-92005610D01*
X160725428Y-91985196D01*
X161005046Y-91924369D01*
X161273161Y-91824367D01*
X161524315Y-91687226D01*
X161753395Y-91515739D01*
X161955739Y-91313395D01*
X162127226Y-91084315D01*
X162264367Y-90833161D01*
X162364369Y-90565046D01*
X162425196Y-90285428D01*
X162445610Y-90000000D01*
X162425196Y-89714572D01*
X162364369Y-89434954D01*
X162264367Y-89166839D01*
X162127226Y-88915685D01*
X161955739Y-88686605D01*
X161753395Y-88484261D01*
X161524315Y-88312774D01*
X161512600Y-88306377D01*
X161284882Y-88182033D01*
X161284880Y-88182032D01*
X161273161Y-88175633D01*
X161260648Y-88170966D01*
X161260644Y-88170964D01*
X161017557Y-88080297D01*
X161017552Y-88080295D01*
X161005046Y-88075631D01*
X160992001Y-88072793D01*
X160991997Y-88072792D01*
X160738475Y-88017642D01*
X160738472Y-88017641D01*
X160725428Y-88014804D01*
X160712112Y-88013851D01*
X160712108Y-88013851D01*
X160453325Y-87995343D01*
X160440000Y-87994390D01*
X160426675Y-87995343D01*
X160167891Y-88013851D01*
X160167885Y-88013851D01*
X160154572Y-88014804D01*
X160141529Y-88017641D01*
X160141524Y-88017642D01*
X159888002Y-88072792D01*
X159887994Y-88072794D01*
X159874954Y-88075631D01*
X159862451Y-88080294D01*
X159862442Y-88080297D01*
X159619355Y-88170964D01*
X159619345Y-88170968D01*
X159606839Y-88175633D01*
X159595125Y-88182029D01*
X159595117Y-88182033D01*
X159367399Y-88306377D01*
X159367392Y-88306381D01*
X159355685Y-88312774D01*
X159345006Y-88320767D01*
X159345000Y-88320772D01*
X159137288Y-88476263D01*
X159137281Y-88476268D01*
X159126605Y-88484261D01*
X159117172Y-88493693D01*
X159117165Y-88493700D01*
X158933700Y-88677165D01*
X158933693Y-88677172D01*
X158924261Y-88686605D01*
X158916268Y-88697281D01*
X158916263Y-88697288D01*
X158760772Y-88905000D01*
X158760767Y-88905006D01*
X158752774Y-88915685D01*
X158746381Y-88927392D01*
X158746377Y-88927399D01*
X158622033Y-89155117D01*
X158622029Y-89155125D01*
X158615633Y-89166839D01*
X158610968Y-89179345D01*
X158610964Y-89179355D01*
X158520297Y-89422442D01*
X158520294Y-89422451D01*
X158515631Y-89434954D01*
X158512794Y-89447991D01*
X158512790Y-89448008D01*
X158492165Y-89542820D01*
X158448657Y-89653655D01*
X158372518Y-89745198D01*
X158271464Y-89808170D01*
X158155740Y-89836190D01*
X158037073Y-89826417D01*
X157927492Y-89779841D01*
X157838103Y-89701184D01*
X157781765Y-89604908D01*
X157780582Y-89600750D01*
X157689673Y-89418179D01*
X157566764Y-89255421D01*
X157504900Y-89199025D01*
X157432968Y-89109631D01*
X157391521Y-89002633D01*
X157386091Y-88914508D01*
X157383620Y-88914508D01*
X157383620Y-88897213D01*
X157385215Y-88880000D01*
X157366397Y-88676917D01*
X157310582Y-88480750D01*
X157219673Y-88298179D01*
X157096764Y-88135421D01*
X157036296Y-88080297D01*
X156958824Y-88009672D01*
X156958822Y-88009670D01*
X156946041Y-87998019D01*
X156772637Y-87890652D01*
X156756513Y-87884405D01*
X156756510Y-87884404D01*
X156598574Y-87823220D01*
X156598572Y-87823219D01*
X156582456Y-87816976D01*
X156565467Y-87813800D01*
X156565463Y-87813799D01*
X156398976Y-87782677D01*
X156398967Y-87782676D01*
X156381976Y-87779500D01*
X156242855Y-87779500D01*
X156140506Y-87765223D01*
X156045970Y-87723482D01*
X155971398Y-87661558D01*
X155966764Y-87655421D01*
X155816041Y-87518019D01*
X155642637Y-87410652D01*
X155626513Y-87404405D01*
X155626510Y-87404404D01*
X155468574Y-87343220D01*
X155468572Y-87343219D01*
X155452456Y-87336976D01*
X155435467Y-87333800D01*
X155435463Y-87333799D01*
X155268976Y-87302677D01*
X155268967Y-87302676D01*
X155251976Y-87299500D01*
X155048024Y-87299500D01*
X155031033Y-87302675D01*
X155031023Y-87302677D01*
X154864536Y-87333799D01*
X154864529Y-87333800D01*
X154847544Y-87336976D01*
X154831429Y-87343218D01*
X154831425Y-87343220D01*
X154673489Y-87404404D01*
X154673481Y-87404407D01*
X154657363Y-87410652D01*
X154642661Y-87419754D01*
X154642655Y-87419758D01*
X154498666Y-87508912D01*
X154498659Y-87508916D01*
X154483959Y-87518019D01*
X154471182Y-87529666D01*
X154471175Y-87529672D01*
X154346012Y-87643773D01*
X154346005Y-87643779D01*
X154333236Y-87655421D01*
X154328601Y-87661558D01*
X154254030Y-87723482D01*
X154159494Y-87765223D01*
X154057145Y-87779500D01*
X153908024Y-87779500D01*
X153891033Y-87782675D01*
X153891023Y-87782677D01*
X153724536Y-87813799D01*
X153724529Y-87813800D01*
X153707544Y-87816976D01*
X153691429Y-87823218D01*
X153691425Y-87823220D01*
X153533489Y-87884404D01*
X153533481Y-87884407D01*
X153517363Y-87890652D01*
X153502661Y-87899754D01*
X153502655Y-87899758D01*
X153358666Y-87988912D01*
X153358659Y-87988916D01*
X153343959Y-87998019D01*
X153331182Y-88009666D01*
X153331175Y-88009672D01*
X153206011Y-88123774D01*
X153206005Y-88123780D01*
X153193236Y-88135421D01*
X153182824Y-88149207D01*
X153182819Y-88149214D01*
X153080746Y-88284381D01*
X153080742Y-88284386D01*
X153070327Y-88298179D01*
X153062620Y-88313656D01*
X153062618Y-88313660D01*
X152987125Y-88465270D01*
X152987121Y-88465279D01*
X152979418Y-88480750D01*
X152974688Y-88497373D01*
X152974686Y-88497379D01*
X152964722Y-88532401D01*
X152913548Y-88641411D01*
X152830385Y-88728508D01*
X152723854Y-88784661D01*
X152605000Y-88804049D01*
X152486146Y-88784661D01*
X152379615Y-88728508D01*
X152296452Y-88641411D01*
X152245278Y-88532401D01*
X152235313Y-88497379D01*
X152230582Y-88480750D01*
X152139673Y-88298179D01*
X152016764Y-88135421D01*
X151956296Y-88080297D01*
X151878824Y-88009672D01*
X151878822Y-88009670D01*
X151866041Y-87998019D01*
X151692637Y-87890652D01*
X151676513Y-87884405D01*
X151676510Y-87884404D01*
X151518574Y-87823220D01*
X151518572Y-87823219D01*
X151502456Y-87816976D01*
X151485467Y-87813800D01*
X151485463Y-87813799D01*
X151318976Y-87782677D01*
X151318967Y-87782676D01*
X151301976Y-87779500D01*
X151162855Y-87779500D01*
X151060506Y-87765223D01*
X150965970Y-87723482D01*
X150891398Y-87661558D01*
X150886764Y-87655421D01*
X150736041Y-87518019D01*
X150562637Y-87410652D01*
X150546513Y-87404405D01*
X150546510Y-87404404D01*
X150388574Y-87343220D01*
X150388572Y-87343219D01*
X150372456Y-87336976D01*
X150355467Y-87333800D01*
X150355463Y-87333799D01*
X150188976Y-87302677D01*
X150188967Y-87302676D01*
X150171976Y-87299500D01*
X149968024Y-87299500D01*
X149951033Y-87302675D01*
X149951023Y-87302677D01*
X149784536Y-87333799D01*
X149784529Y-87333800D01*
X149767544Y-87336976D01*
X149751429Y-87343218D01*
X149751425Y-87343220D01*
X149593489Y-87404404D01*
X149593481Y-87404407D01*
X149577363Y-87410652D01*
X149562661Y-87419754D01*
X149562655Y-87419758D01*
X149418666Y-87508912D01*
X149418659Y-87508916D01*
X149403959Y-87518019D01*
X149391182Y-87529666D01*
X149391175Y-87529672D01*
X149266012Y-87643773D01*
X149266005Y-87643779D01*
X149253236Y-87655421D01*
X149248601Y-87661558D01*
X149174030Y-87723482D01*
X149079494Y-87765223D01*
X148977145Y-87779500D01*
X148828024Y-87779500D01*
X148811033Y-87782675D01*
X148811023Y-87782677D01*
X148644536Y-87813799D01*
X148644529Y-87813800D01*
X148627544Y-87816976D01*
X148611429Y-87823218D01*
X148611425Y-87823220D01*
X148453489Y-87884404D01*
X148453481Y-87884407D01*
X148437363Y-87890652D01*
X148422661Y-87899754D01*
X148422655Y-87899758D01*
X148278666Y-87988912D01*
X148278659Y-87988916D01*
X148263959Y-87998019D01*
X148251182Y-88009666D01*
X148251175Y-88009672D01*
X148126011Y-88123774D01*
X148126005Y-88123780D01*
X148113236Y-88135421D01*
X148102824Y-88149207D01*
X148102819Y-88149214D01*
X148000746Y-88284381D01*
X148000742Y-88284386D01*
X147990327Y-88298179D01*
X147982620Y-88313656D01*
X147982618Y-88313660D01*
X147907125Y-88465270D01*
X147907121Y-88465279D01*
X147899418Y-88480750D01*
X147894688Y-88497371D01*
X147894685Y-88497381D01*
X147848335Y-88660283D01*
X147848333Y-88660291D01*
X147843603Y-88676917D01*
X147842008Y-88694123D01*
X147842007Y-88694132D01*
X147826666Y-88859692D01*
X147824785Y-88880000D01*
X147826380Y-88897213D01*
X147826380Y-88897219D01*
X147827096Y-88904947D01*
X147820032Y-89019463D01*
X147778586Y-89126449D01*
X147706657Y-89215837D01*
X147676010Y-89243775D01*
X147676004Y-89243780D01*
X147663236Y-89255421D01*
X147652824Y-89269207D01*
X147652819Y-89269214D01*
X147550746Y-89404381D01*
X147550742Y-89404386D01*
X147540327Y-89418179D01*
X147532620Y-89433656D01*
X147532618Y-89433660D01*
X147457125Y-89585270D01*
X147457121Y-89585279D01*
X147449418Y-89600750D01*
X147444688Y-89617371D01*
X147444685Y-89617381D01*
X147398335Y-89780283D01*
X147398333Y-89780291D01*
X147393603Y-89796917D01*
X147392008Y-89814123D01*
X147392007Y-89814132D01*
X147376666Y-89979692D01*
X147374785Y-90000000D01*
X145290500Y-90000000D01*
X145290500Y-86654500D01*
X145308805Y-86538928D01*
X145361928Y-86434668D01*
X145444668Y-86351928D01*
X145548928Y-86298805D01*
X145664500Y-86280500D01*
X169915500Y-86280500D01*
X170031072Y-86298805D01*
G37*
%TD.AperFunction*%
%TD*%
D17*
X145290000Y-86280000D02*
X170290000Y-86280000D01*
X170290000Y-86280000D02*
X170290000Y-111280000D01*
X170290000Y-111280000D02*
X145290000Y-111280000D01*
X145290000Y-111280000D02*
X145290000Y-86280000D01*
M02*
