%TF.GenerationSoftware,KiCad,Pcbnew,7.0.1*%
%TF.CreationDate,2023-08-30T00:45:02-03:00*%
%TF.ProjectId,Driver_TB67H451AFNG,44726976-6572-45f5-9442-363748343531,rev?*%
%TF.SameCoordinates,Original*%
%TF.FileFunction,Paste,Top*%
%TF.FilePolarity,Positive*%
%FSLAX46Y46*%
G04 Gerber Fmt 4.6, Leading zero omitted, Abs format (unit mm)*
G04 Created by KiCad (PCBNEW 7.0.1) date 2023-08-30 00:45:02*
%MOMM*%
%LPD*%
G01*
G04 APERTURE LIST*
%ADD10R,0.711200X2.000000*%
%ADD11R,1.498600X1.300480*%
%TA.AperFunction,Profile*%
%ADD12C,0.100000*%
%TD*%
G04 APERTURE END LIST*
D10*
%TO.C,U1*%
X134255000Y-123050000D03*
X135525000Y-123050000D03*
X136795000Y-123050000D03*
X138065000Y-123050000D03*
X138065000Y-117050000D03*
X136795000Y-117050000D03*
X135525000Y-117050000D03*
X134255000Y-117050000D03*
%TD*%
D11*
%TO.C,C1*%
X140160000Y-117050000D03*
X140160000Y-118955000D03*
%TD*%
G36*
X143248000Y-108556613D02*
G01*
X143293387Y-108602000D01*
X143310000Y-108664000D01*
X143310000Y-111882581D01*
X143294939Y-111941812D01*
X143253415Y-111986654D01*
X137490000Y-115719999D01*
X137490000Y-117946000D01*
X137473387Y-118008000D01*
X137428000Y-118053387D01*
X137366000Y-118070000D01*
X136214000Y-118070000D01*
X136152000Y-118053387D01*
X136106613Y-118008000D01*
X136090000Y-117946000D01*
X136090000Y-115218342D01*
X136098469Y-115173301D01*
X136122720Y-115134414D01*
X138830000Y-112190000D01*
X138830000Y-108664000D01*
X138846613Y-108602000D01*
X138892000Y-108556613D01*
X138954000Y-108540000D01*
X143186000Y-108540000D01*
X143248000Y-108556613D01*
G37*
G36*
X138078000Y-108556613D02*
G01*
X138123387Y-108602000D01*
X138140000Y-108664000D01*
X138140000Y-111623192D01*
X138132010Y-111666984D01*
X138109068Y-111705133D01*
X134902599Y-115347047D01*
X134897214Y-115352786D01*
X134880000Y-115370000D01*
X134880000Y-117956000D01*
X134863387Y-118018000D01*
X134818000Y-118063387D01*
X134756000Y-118080000D01*
X133433610Y-118080000D01*
X133371723Y-118063452D01*
X133326353Y-118018225D01*
X133309611Y-117956390D01*
X133280391Y-108664390D01*
X133296873Y-108602225D01*
X133342277Y-108556678D01*
X133404390Y-108540000D01*
X138016000Y-108540000D01*
X138078000Y-108556613D01*
G37*
D12*
X156200000Y-107000000D02*
X156200000Y-109000000D01*
X131200000Y-107000000D02*
X156200000Y-107000000D01*
X156200000Y-132000000D01*
X131200000Y-132000000D01*
X131200000Y-107000000D01*
M02*
