%TF.GenerationSoftware,KiCad,Pcbnew,7.0.1*%
%TF.CreationDate,2023-08-30T00:45:02-03:00*%
%TF.ProjectId,Driver_TB67H451AFNG,44726976-6572-45f5-9442-363748343531,rev?*%
%TF.SameCoordinates,Original*%
%TF.FileFunction,Legend,Top*%
%TF.FilePolarity,Positive*%
%FSLAX46Y46*%
G04 Gerber Fmt 4.6, Leading zero omitted, Abs format (unit mm)*
G04 Created by KiCad (PCBNEW 7.0.1) date 2023-08-30 00:45:02*
%MOMM*%
%LPD*%
G01*
G04 APERTURE LIST*
%ADD10C,0.250000*%
%ADD11C,0.200000*%
%ADD12C,0.381000*%
%ADD13C,0.254000*%
%ADD14C,0.150000*%
%ADD15C,0.120000*%
%ADD16C,0.304800*%
%ADD17C,0.300000*%
%ADD18C,0.127000*%
%ADD19C,2.500000*%
%ADD20R,1.524000X1.524000*%
%ADD21C,1.524000*%
%ADD22C,0.700000*%
%TA.AperFunction,Profile*%
%ADD23C,0.100000*%
%TD*%
G04 APERTURE END LIST*
D10*
X131677619Y-125564761D02*
X131677619Y-124993333D01*
X132677619Y-125279047D02*
X131677619Y-125279047D01*
X132153809Y-124326666D02*
X132201428Y-124183809D01*
X132201428Y-124183809D02*
X132249047Y-124136190D01*
X132249047Y-124136190D02*
X132344285Y-124088571D01*
X132344285Y-124088571D02*
X132487142Y-124088571D01*
X132487142Y-124088571D02*
X132582380Y-124136190D01*
X132582380Y-124136190D02*
X132630000Y-124183809D01*
X132630000Y-124183809D02*
X132677619Y-124279047D01*
X132677619Y-124279047D02*
X132677619Y-124659999D01*
X132677619Y-124659999D02*
X131677619Y-124659999D01*
X131677619Y-124659999D02*
X131677619Y-124326666D01*
X131677619Y-124326666D02*
X131725238Y-124231428D01*
X131725238Y-124231428D02*
X131772857Y-124183809D01*
X131772857Y-124183809D02*
X131868095Y-124136190D01*
X131868095Y-124136190D02*
X131963333Y-124136190D01*
X131963333Y-124136190D02*
X132058571Y-124183809D01*
X132058571Y-124183809D02*
X132106190Y-124231428D01*
X132106190Y-124231428D02*
X132153809Y-124326666D01*
X132153809Y-124326666D02*
X132153809Y-124659999D01*
X131677619Y-123231428D02*
X131677619Y-123421904D01*
X131677619Y-123421904D02*
X131725238Y-123517142D01*
X131725238Y-123517142D02*
X131772857Y-123564761D01*
X131772857Y-123564761D02*
X131915714Y-123659999D01*
X131915714Y-123659999D02*
X132106190Y-123707618D01*
X132106190Y-123707618D02*
X132487142Y-123707618D01*
X132487142Y-123707618D02*
X132582380Y-123659999D01*
X132582380Y-123659999D02*
X132630000Y-123612380D01*
X132630000Y-123612380D02*
X132677619Y-123517142D01*
X132677619Y-123517142D02*
X132677619Y-123326666D01*
X132677619Y-123326666D02*
X132630000Y-123231428D01*
X132630000Y-123231428D02*
X132582380Y-123183809D01*
X132582380Y-123183809D02*
X132487142Y-123136190D01*
X132487142Y-123136190D02*
X132249047Y-123136190D01*
X132249047Y-123136190D02*
X132153809Y-123183809D01*
X132153809Y-123183809D02*
X132106190Y-123231428D01*
X132106190Y-123231428D02*
X132058571Y-123326666D01*
X132058571Y-123326666D02*
X132058571Y-123517142D01*
X132058571Y-123517142D02*
X132106190Y-123612380D01*
X132106190Y-123612380D02*
X132153809Y-123659999D01*
X132153809Y-123659999D02*
X132249047Y-123707618D01*
X131677619Y-122802856D02*
X131677619Y-122136190D01*
X131677619Y-122136190D02*
X132677619Y-122564761D01*
X132677619Y-121755237D02*
X131677619Y-121755237D01*
X132153809Y-121755237D02*
X132153809Y-121183809D01*
X132677619Y-121183809D02*
X131677619Y-121183809D01*
X132010952Y-120279047D02*
X132677619Y-120279047D01*
X131630000Y-120517142D02*
X132344285Y-120755237D01*
X132344285Y-120755237D02*
X132344285Y-120136190D01*
X131677619Y-119279047D02*
X131677619Y-119755237D01*
X131677619Y-119755237D02*
X132153809Y-119802856D01*
X132153809Y-119802856D02*
X132106190Y-119755237D01*
X132106190Y-119755237D02*
X132058571Y-119659999D01*
X132058571Y-119659999D02*
X132058571Y-119421904D01*
X132058571Y-119421904D02*
X132106190Y-119326666D01*
X132106190Y-119326666D02*
X132153809Y-119279047D01*
X132153809Y-119279047D02*
X132249047Y-119231428D01*
X132249047Y-119231428D02*
X132487142Y-119231428D01*
X132487142Y-119231428D02*
X132582380Y-119279047D01*
X132582380Y-119279047D02*
X132630000Y-119326666D01*
X132630000Y-119326666D02*
X132677619Y-119421904D01*
X132677619Y-119421904D02*
X132677619Y-119659999D01*
X132677619Y-119659999D02*
X132630000Y-119755237D01*
X132630000Y-119755237D02*
X132582380Y-119802856D01*
X132677619Y-118279047D02*
X132677619Y-118850475D01*
X132677619Y-118564761D02*
X131677619Y-118564761D01*
X131677619Y-118564761D02*
X131820476Y-118659999D01*
X131820476Y-118659999D02*
X131915714Y-118755237D01*
X131915714Y-118755237D02*
X131963333Y-118850475D01*
X132391904Y-117898094D02*
X132391904Y-117421904D01*
X132677619Y-117993332D02*
X131677619Y-117659999D01*
X131677619Y-117659999D02*
X132677619Y-117326666D01*
X132153809Y-116659999D02*
X132153809Y-116993332D01*
X132677619Y-116993332D02*
X131677619Y-116993332D01*
X131677619Y-116993332D02*
X131677619Y-116517142D01*
X132677619Y-116136189D02*
X131677619Y-116136189D01*
X131677619Y-116136189D02*
X132677619Y-115564761D01*
X132677619Y-115564761D02*
X131677619Y-115564761D01*
X131725238Y-114564761D02*
X131677619Y-114659999D01*
X131677619Y-114659999D02*
X131677619Y-114802856D01*
X131677619Y-114802856D02*
X131725238Y-114945713D01*
X131725238Y-114945713D02*
X131820476Y-115040951D01*
X131820476Y-115040951D02*
X131915714Y-115088570D01*
X131915714Y-115088570D02*
X132106190Y-115136189D01*
X132106190Y-115136189D02*
X132249047Y-115136189D01*
X132249047Y-115136189D02*
X132439523Y-115088570D01*
X132439523Y-115088570D02*
X132534761Y-115040951D01*
X132534761Y-115040951D02*
X132630000Y-114945713D01*
X132630000Y-114945713D02*
X132677619Y-114802856D01*
X132677619Y-114802856D02*
X132677619Y-114707618D01*
X132677619Y-114707618D02*
X132630000Y-114564761D01*
X132630000Y-114564761D02*
X132582380Y-114517142D01*
X132582380Y-114517142D02*
X132249047Y-114517142D01*
X132249047Y-114517142D02*
X132249047Y-114707618D01*
X153751904Y-116233333D02*
X152990000Y-116233333D01*
X144148095Y-126927619D02*
X144148095Y-125927619D01*
X144624285Y-126927619D02*
X144624285Y-125927619D01*
X144624285Y-125927619D02*
X145195713Y-126927619D01*
X145195713Y-126927619D02*
X145195713Y-125927619D01*
X145624285Y-126022857D02*
X145671904Y-125975238D01*
X145671904Y-125975238D02*
X145767142Y-125927619D01*
X145767142Y-125927619D02*
X146005237Y-125927619D01*
X146005237Y-125927619D02*
X146100475Y-125975238D01*
X146100475Y-125975238D02*
X146148094Y-126022857D01*
X146148094Y-126022857D02*
X146195713Y-126118095D01*
X146195713Y-126118095D02*
X146195713Y-126213333D01*
X146195713Y-126213333D02*
X146148094Y-126356190D01*
X146148094Y-126356190D02*
X145576666Y-126927619D01*
X145576666Y-126927619D02*
X146195713Y-126927619D01*
X141648095Y-131577619D02*
X141648095Y-130577619D01*
X142124285Y-131577619D02*
X142124285Y-130577619D01*
X142124285Y-130577619D02*
X142695713Y-131577619D01*
X142695713Y-131577619D02*
X142695713Y-130577619D01*
X143695713Y-131577619D02*
X143124285Y-131577619D01*
X143409999Y-131577619D02*
X143409999Y-130577619D01*
X143409999Y-130577619D02*
X143314761Y-130720476D01*
X143314761Y-130720476D02*
X143219523Y-130815714D01*
X143219523Y-130815714D02*
X143124285Y-130863333D01*
X146108095Y-131196666D02*
X146870000Y-131196666D01*
X146489047Y-131577619D02*
X146489047Y-130815714D01*
X147822380Y-130577619D02*
X147346190Y-130577619D01*
X147346190Y-130577619D02*
X147298571Y-131053809D01*
X147298571Y-131053809D02*
X147346190Y-131006190D01*
X147346190Y-131006190D02*
X147441428Y-130958571D01*
X147441428Y-130958571D02*
X147679523Y-130958571D01*
X147679523Y-130958571D02*
X147774761Y-131006190D01*
X147774761Y-131006190D02*
X147822380Y-131053809D01*
X147822380Y-131053809D02*
X147869999Y-131149047D01*
X147869999Y-131149047D02*
X147869999Y-131387142D01*
X147869999Y-131387142D02*
X147822380Y-131482380D01*
X147822380Y-131482380D02*
X147774761Y-131530000D01*
X147774761Y-131530000D02*
X147679523Y-131577619D01*
X147679523Y-131577619D02*
X147441428Y-131577619D01*
X147441428Y-131577619D02*
X147346190Y-131530000D01*
X147346190Y-131530000D02*
X147298571Y-131482380D01*
X148155714Y-130577619D02*
X148489047Y-131577619D01*
X148489047Y-131577619D02*
X148822380Y-130577619D01*
X144678404Y-116233333D02*
X143916500Y-116233333D01*
X144297452Y-115852380D02*
X144297452Y-116614285D01*
X139031904Y-125975238D02*
X138936666Y-125927619D01*
X138936666Y-125927619D02*
X138793809Y-125927619D01*
X138793809Y-125927619D02*
X138650952Y-125975238D01*
X138650952Y-125975238D02*
X138555714Y-126070476D01*
X138555714Y-126070476D02*
X138508095Y-126165714D01*
X138508095Y-126165714D02*
X138460476Y-126356190D01*
X138460476Y-126356190D02*
X138460476Y-126499047D01*
X138460476Y-126499047D02*
X138508095Y-126689523D01*
X138508095Y-126689523D02*
X138555714Y-126784761D01*
X138555714Y-126784761D02*
X138650952Y-126880000D01*
X138650952Y-126880000D02*
X138793809Y-126927619D01*
X138793809Y-126927619D02*
X138889047Y-126927619D01*
X138889047Y-126927619D02*
X139031904Y-126880000D01*
X139031904Y-126880000D02*
X139079523Y-126832380D01*
X139079523Y-126832380D02*
X139079523Y-126499047D01*
X139079523Y-126499047D02*
X138889047Y-126499047D01*
X139508095Y-126927619D02*
X139508095Y-125927619D01*
X139508095Y-125927619D02*
X140079523Y-126927619D01*
X140079523Y-126927619D02*
X140079523Y-125927619D01*
X140555714Y-126927619D02*
X140555714Y-125927619D01*
X140555714Y-125927619D02*
X140793809Y-125927619D01*
X140793809Y-125927619D02*
X140936666Y-125975238D01*
X140936666Y-125975238D02*
X141031904Y-126070476D01*
X141031904Y-126070476D02*
X141079523Y-126165714D01*
X141079523Y-126165714D02*
X141127142Y-126356190D01*
X141127142Y-126356190D02*
X141127142Y-126499047D01*
X141127142Y-126499047D02*
X141079523Y-126689523D01*
X141079523Y-126689523D02*
X141031904Y-126784761D01*
X141031904Y-126784761D02*
X140936666Y-126880000D01*
X140936666Y-126880000D02*
X140793809Y-126927619D01*
X140793809Y-126927619D02*
X140555714Y-126927619D01*
D11*
%TO.C,U1*%
X138992619Y-121981904D02*
X139802142Y-121981904D01*
X139802142Y-121981904D02*
X139897380Y-121934285D01*
X139897380Y-121934285D02*
X139945000Y-121886666D01*
X139945000Y-121886666D02*
X139992619Y-121791428D01*
X139992619Y-121791428D02*
X139992619Y-121600952D01*
X139992619Y-121600952D02*
X139945000Y-121505714D01*
X139945000Y-121505714D02*
X139897380Y-121458095D01*
X139897380Y-121458095D02*
X139802142Y-121410476D01*
X139802142Y-121410476D02*
X138992619Y-121410476D01*
X139992619Y-120410476D02*
X139992619Y-120981904D01*
X139992619Y-120696190D02*
X138992619Y-120696190D01*
X138992619Y-120696190D02*
X139135476Y-120791428D01*
X139135476Y-120791428D02*
X139230714Y-120886666D01*
X139230714Y-120886666D02*
X139278333Y-120981904D01*
D10*
%TO.C,J4*%
X137866666Y-130712619D02*
X137866666Y-131426904D01*
X137866666Y-131426904D02*
X137819047Y-131569761D01*
X137819047Y-131569761D02*
X137723809Y-131665000D01*
X137723809Y-131665000D02*
X137580952Y-131712619D01*
X137580952Y-131712619D02*
X137485714Y-131712619D01*
X138771428Y-131045952D02*
X138771428Y-131712619D01*
X138533333Y-130665000D02*
X138295238Y-131379285D01*
X138295238Y-131379285D02*
X138914285Y-131379285D01*
%TO.C,C2*%
X154033333Y-124797380D02*
X153985714Y-124845000D01*
X153985714Y-124845000D02*
X153842857Y-124892619D01*
X153842857Y-124892619D02*
X153747619Y-124892619D01*
X153747619Y-124892619D02*
X153604762Y-124845000D01*
X153604762Y-124845000D02*
X153509524Y-124749761D01*
X153509524Y-124749761D02*
X153461905Y-124654523D01*
X153461905Y-124654523D02*
X153414286Y-124464047D01*
X153414286Y-124464047D02*
X153414286Y-124321190D01*
X153414286Y-124321190D02*
X153461905Y-124130714D01*
X153461905Y-124130714D02*
X153509524Y-124035476D01*
X153509524Y-124035476D02*
X153604762Y-123940238D01*
X153604762Y-123940238D02*
X153747619Y-123892619D01*
X153747619Y-123892619D02*
X153842857Y-123892619D01*
X153842857Y-123892619D02*
X153985714Y-123940238D01*
X153985714Y-123940238D02*
X154033333Y-123987857D01*
X154414286Y-123987857D02*
X154461905Y-123940238D01*
X154461905Y-123940238D02*
X154557143Y-123892619D01*
X154557143Y-123892619D02*
X154795238Y-123892619D01*
X154795238Y-123892619D02*
X154890476Y-123940238D01*
X154890476Y-123940238D02*
X154938095Y-123987857D01*
X154938095Y-123987857D02*
X154985714Y-124083095D01*
X154985714Y-124083095D02*
X154985714Y-124178333D01*
X154985714Y-124178333D02*
X154938095Y-124321190D01*
X154938095Y-124321190D02*
X154366667Y-124892619D01*
X154366667Y-124892619D02*
X154985714Y-124892619D01*
%TO.C,C1*%
X142387380Y-119209166D02*
X142435000Y-119256785D01*
X142435000Y-119256785D02*
X142482619Y-119399642D01*
X142482619Y-119399642D02*
X142482619Y-119494880D01*
X142482619Y-119494880D02*
X142435000Y-119637737D01*
X142435000Y-119637737D02*
X142339761Y-119732975D01*
X142339761Y-119732975D02*
X142244523Y-119780594D01*
X142244523Y-119780594D02*
X142054047Y-119828213D01*
X142054047Y-119828213D02*
X141911190Y-119828213D01*
X141911190Y-119828213D02*
X141720714Y-119780594D01*
X141720714Y-119780594D02*
X141625476Y-119732975D01*
X141625476Y-119732975D02*
X141530238Y-119637737D01*
X141530238Y-119637737D02*
X141482619Y-119494880D01*
X141482619Y-119494880D02*
X141482619Y-119399642D01*
X141482619Y-119399642D02*
X141530238Y-119256785D01*
X141530238Y-119256785D02*
X141577857Y-119209166D01*
X142482619Y-118256785D02*
X142482619Y-118828213D01*
X142482619Y-118542499D02*
X141482619Y-118542499D01*
X141482619Y-118542499D02*
X141625476Y-118637737D01*
X141625476Y-118637737D02*
X141720714Y-118732975D01*
X141720714Y-118732975D02*
X141768333Y-118828213D01*
D12*
%TO.C,J1*%
X153906500Y-115165000D02*
X153906500Y-107227500D01*
X153890000Y-113120000D02*
X143890000Y-113120000D01*
X153890000Y-108220000D02*
X143890000Y-108220000D01*
X153873500Y-107227500D02*
X143873500Y-107227500D01*
X148890000Y-108180000D02*
X148890000Y-107235500D01*
X143873500Y-115165000D02*
X153873500Y-115165000D01*
X143873500Y-107227500D02*
X143873500Y-115165000D01*
X153440000Y-110720000D02*
G75*
G03*
X153440000Y-110720000I-2000000J0D01*
G01*
X148340000Y-110720000D02*
G75*
G03*
X148340000Y-110720000I-2000000J0D01*
G01*
D13*
%TO.C,H2*%
X150010000Y-128810000D02*
X156010000Y-128810000D01*
X153010000Y-125810000D02*
X153010000Y-131810000D01*
X156010000Y-128810000D02*
G75*
G03*
X156010000Y-128810000I-3000000J0D01*
G01*
D14*
%TO.C,U1*%
X133660000Y-118050000D02*
X133660000Y-122050000D01*
X133660000Y-122050000D02*
X138660000Y-122050000D01*
X138660000Y-118050000D02*
X133660000Y-118050000D01*
X138660000Y-118050000D02*
X138660000Y-121950000D01*
X133160000Y-122050000D02*
G75*
G03*
X133160000Y-122050000I-200000J0D01*
G01*
D15*
%TO.C,J4*%
X148830000Y-127540000D02*
X148830000Y-128870000D01*
X147500000Y-127540000D02*
X148830000Y-127540000D01*
X146230000Y-127540000D02*
X138550000Y-127540000D01*
X146230000Y-127540000D02*
X146230000Y-130200000D01*
X138550000Y-127540000D02*
X138550000Y-130200000D01*
X146230000Y-130200000D02*
X138550000Y-130200000D01*
D13*
%TO.C,H1*%
X131400000Y-128810000D02*
X137400000Y-128810000D01*
X134400000Y-125810000D02*
X134400000Y-131810000D01*
X137400000Y-128810000D02*
G75*
G03*
X137400000Y-128810000I-3000000J0D01*
G01*
D16*
%TO.C,C2*%
X150650000Y-125240000D02*
X147250000Y-125240000D01*
X150250000Y-125440000D02*
X147650000Y-125440000D01*
X149750000Y-125640000D02*
X148150000Y-125640000D01*
D17*
X147950000Y-122890000D02*
X146950000Y-122890000D01*
D16*
X154050000Y-120640000D02*
G75*
G03*
X154050000Y-120640000I-5100000J0D01*
G01*
D14*
%TO.C,C1*%
X139160000Y-120002500D02*
X141160000Y-120002500D01*
X141160000Y-120002500D02*
X141160000Y-119002500D01*
X139160000Y-119002500D02*
X139160000Y-120002500D01*
D18*
X139160000Y-117002500D02*
X139160000Y-116002500D01*
X139160000Y-116002500D02*
X141160000Y-116002500D01*
X141160000Y-116002500D02*
X141160000Y-117002500D01*
D12*
%TO.C,J3*%
X143536500Y-115165000D02*
X143536500Y-107227500D01*
X143520000Y-113120000D02*
X133520000Y-113120000D01*
X143520000Y-108220000D02*
X133520000Y-108220000D01*
X143503500Y-107227500D02*
X133503500Y-107227500D01*
X138520000Y-108180000D02*
X138520000Y-107235500D01*
X133503500Y-115165000D02*
X143503500Y-115165000D01*
X133503500Y-107227500D02*
X133503500Y-115165000D01*
X143070000Y-110720000D02*
G75*
G03*
X143070000Y-110720000I-2000000J0D01*
G01*
X137970000Y-110720000D02*
G75*
G03*
X137970000Y-110720000I-2000000J0D01*
G01*
%TD*%
D19*
%TO.C,J1*%
X151430000Y-110720000D03*
X146350000Y-110720000D03*
%TD*%
D20*
%TO.C,C2*%
X148950000Y-118390000D03*
D21*
X148950000Y-122890000D03*
%TD*%
D22*
%TO.C,J3*%
X142660000Y-110720000D03*
X142190000Y-111840000D03*
X142190000Y-109600000D03*
X141060000Y-112320000D03*
D19*
X141060000Y-110720000D03*
D22*
X141060000Y-109120000D03*
X139920000Y-111840000D03*
X139920000Y-109600000D03*
X139470000Y-110720000D03*
X137580000Y-110720000D03*
X137110000Y-111840000D03*
X137110000Y-109600000D03*
X135980000Y-112320000D03*
D19*
X135980000Y-110720000D03*
D22*
X135980000Y-109120000D03*
X134840000Y-111840000D03*
X134840000Y-109600000D03*
X134390000Y-110720000D03*
%TD*%
D23*
X156200000Y-107000000D02*
X156200000Y-109000000D01*
X131200000Y-107000000D02*
X156200000Y-107000000D01*
X156200000Y-132000000D01*
X131200000Y-132000000D01*
X131200000Y-107000000D01*
M02*
