%TF.GenerationSoftware,KiCad,Pcbnew,7.0.1*%
%TF.CreationDate,2023-08-30T00:45:02-03:00*%
%TF.ProjectId,Driver_TB67H451AFNG,44726976-6572-45f5-9442-363748343531,rev?*%
%TF.SameCoordinates,Original*%
%TF.FileFunction,Copper,L1,Top*%
%TF.FilePolarity,Positive*%
%FSLAX46Y46*%
G04 Gerber Fmt 4.6, Leading zero omitted, Abs format (unit mm)*
G04 Created by KiCad (PCBNEW 7.0.1) date 2023-08-30 00:45:02*
%MOMM*%
%LPD*%
G01*
G04 APERTURE LIST*
%TA.AperFunction,ComponentPad*%
%ADD10C,2.500000*%
%TD*%
%TA.AperFunction,ComponentPad*%
%ADD11C,3.250000*%
%TD*%
%TA.AperFunction,SMDPad,CuDef*%
%ADD12R,0.711200X2.000000*%
%TD*%
%TA.AperFunction,ComponentPad*%
%ADD13C,0.700000*%
%TD*%
%TA.AperFunction,ComponentPad*%
%ADD14R,1.700000X1.700000*%
%TD*%
%TA.AperFunction,ComponentPad*%
%ADD15O,1.700000X1.700000*%
%TD*%
%TA.AperFunction,ComponentPad*%
%ADD16R,1.524000X1.524000*%
%TD*%
%TA.AperFunction,ComponentPad*%
%ADD17C,1.524000*%
%TD*%
%TA.AperFunction,SMDPad,CuDef*%
%ADD18R,1.498600X1.300480*%
%TD*%
%TA.AperFunction,Conductor*%
%ADD19C,0.750000*%
%TD*%
%TA.AperFunction,Profile*%
%ADD20C,0.100000*%
%TD*%
G04 APERTURE END LIST*
D10*
%TO.P,J1,1*%
%TO.N,GND*%
X151430000Y-110720000D03*
%TO.P,J1,2*%
%TO.N,/Vin*%
X146350000Y-110720000D03*
%TD*%
D11*
%TO.P,H2,1*%
%TO.N,N/C*%
X153010000Y-128810000D03*
%TD*%
D12*
%TO.P,U1,1,GND*%
%TO.N,GND*%
X134255000Y-123050000D03*
D13*
X134360000Y-119050000D03*
X134360000Y-119750000D03*
X134360000Y-120450000D03*
X134360000Y-121150000D03*
X135060000Y-119050000D03*
X135060000Y-119750000D03*
X135060000Y-120450000D03*
X135060000Y-121150000D03*
X135760000Y-119050000D03*
X135760000Y-119750000D03*
X135760000Y-120450000D03*
X135760000Y-121150000D03*
X136460000Y-119050000D03*
X136460000Y-119750000D03*
X136460000Y-120450000D03*
X136460000Y-121150000D03*
X137160000Y-119050000D03*
X137160000Y-119750000D03*
X137160000Y-120450000D03*
X137160000Y-121150000D03*
X137860000Y-119050000D03*
X137860000Y-119750000D03*
X137860000Y-120450000D03*
X137860000Y-121150000D03*
D12*
%TO.P,U1,2,IN2*%
%TO.N,/M1A*%
X135525000Y-123050000D03*
%TO.P,U1,3,IN1*%
%TO.N,/M1B*%
X136795000Y-123050000D03*
%TO.P,U1,4,VREF*%
%TO.N,+5V*%
X138065000Y-123050000D03*
%TO.P,U1,5,VM*%
%TO.N,/Vin*%
X138065000Y-117050000D03*
%TO.P,U1,6,OUT1*%
%TO.N,Net-(U1-OUT1)*%
X136795000Y-117050000D03*
%TO.P,U1,7,RS*%
%TO.N,GND*%
X135525000Y-117050000D03*
%TO.P,U1,8,OUT2*%
%TO.N,Net-(U1-OUT2)*%
X134255000Y-117050000D03*
%TD*%
D14*
%TO.P,J4,1,Pin_1*%
%TO.N,+5V*%
X147500000Y-128870000D03*
D15*
%TO.P,J4,2,Pin_2*%
%TO.N,/M1B*%
X144960000Y-128870000D03*
%TO.P,J4,3,Pin_3*%
%TO.N,/M1A*%
X142420000Y-128870000D03*
%TO.P,J4,4,Pin_4*%
%TO.N,GND*%
X139880000Y-128870000D03*
%TD*%
D11*
%TO.P,H1,1*%
%TO.N,N/C*%
X134400000Y-128810000D03*
%TD*%
D16*
%TO.P,C2,1*%
%TO.N,/Vin*%
X148950000Y-118390000D03*
D17*
%TO.P,C2,2*%
%TO.N,GND*%
X148950000Y-122890000D03*
%TD*%
D18*
%TO.P,C1,1*%
%TO.N,/Vin*%
X140160000Y-117050000D03*
%TO.P,C1,2*%
%TO.N,GND*%
X140160000Y-118955000D03*
%TD*%
D13*
%TO.P,J3,1*%
%TO.N,Net-(U1-OUT1)*%
X142660000Y-110720000D03*
X142190000Y-111840000D03*
X142190000Y-109600000D03*
X141060000Y-112320000D03*
D10*
X141060000Y-110720000D03*
D13*
X141060000Y-109120000D03*
X139920000Y-111840000D03*
X139920000Y-109600000D03*
X139470000Y-110720000D03*
%TO.P,J3,2*%
%TO.N,Net-(U1-OUT2)*%
X137580000Y-110720000D03*
X137110000Y-111840000D03*
X137110000Y-109600000D03*
X135980000Y-112320000D03*
D10*
X135980000Y-110720000D03*
D13*
X135980000Y-109120000D03*
X134840000Y-111840000D03*
X134840000Y-109600000D03*
X134390000Y-110720000D03*
%TD*%
D19*
%TO.N,GND*%
X135525000Y-117050000D02*
X135525000Y-119375000D01*
X135525000Y-119375000D02*
X135110000Y-119790000D01*
%TO.N,+5V*%
X144240000Y-123050000D02*
X138065000Y-123050000D01*
X147500000Y-126310000D02*
X144240000Y-123050000D01*
X147500000Y-128870000D02*
X147500000Y-126310000D01*
%TO.N,/M1A*%
X142420000Y-126820000D02*
X141920000Y-126320000D01*
X141920000Y-126320000D02*
X136820000Y-126320000D01*
X136820000Y-126320000D02*
X135525000Y-125025000D01*
X135525000Y-125025000D02*
X135525000Y-123050000D01*
X142420000Y-128870000D02*
X142420000Y-126820000D01*
%TO.N,/M1B*%
X137470000Y-124970000D02*
X136795000Y-124295000D01*
X136795000Y-124295000D02*
X136795000Y-123050000D01*
X144960000Y-128870000D02*
X144960000Y-126040000D01*
X144960000Y-126040000D02*
X143890000Y-124970000D01*
X143890000Y-124970000D02*
X137470000Y-124970000D01*
%TD*%
%TA.AperFunction,Conductor*%
%TO.N,Net-(U1-OUT1)*%
G36*
X143247920Y-108556706D02*
G01*
X143293364Y-108602099D01*
X143310000Y-108664139D01*
X143310000Y-111882581D01*
X143294939Y-111941812D01*
X143253415Y-111986654D01*
X137490000Y-115719999D01*
X137490000Y-115889853D01*
X137484661Y-115925848D01*
X137474352Y-115947644D01*
X137458900Y-116025325D01*
X137458900Y-116089366D01*
X137457655Y-116106892D01*
X137454500Y-116128991D01*
X137454500Y-117925690D01*
X137455041Y-117929794D01*
X137454500Y-117933312D01*
X137454500Y-117933825D01*
X137454421Y-117933825D01*
X137444493Y-117998392D01*
X137398736Y-118050577D01*
X137332105Y-118070000D01*
X136274500Y-118070000D01*
X136212500Y-118053387D01*
X136167113Y-118008000D01*
X136150500Y-117946000D01*
X136150500Y-117010648D01*
X136133701Y-116877666D01*
X136134819Y-116877524D01*
X136131100Y-116858026D01*
X136131100Y-116025325D01*
X136116566Y-115952261D01*
X136116566Y-115952260D01*
X136110894Y-115943771D01*
X136095339Y-115910880D01*
X136090000Y-115874886D01*
X136090000Y-115218407D01*
X136098490Y-115173314D01*
X136122796Y-115134396D01*
X138835000Y-112190000D01*
X138835000Y-108668862D01*
X138851590Y-108606902D01*
X138896920Y-108561521D01*
X138958861Y-108544862D01*
X143185861Y-108540139D01*
X143247920Y-108556706D01*
G37*
%TD.AperFunction*%
%TD*%
%TA.AperFunction,Conductor*%
%TO.N,/Vin*%
G36*
X148457774Y-108556666D02*
G01*
X148503175Y-108602183D01*
X148519683Y-108664316D01*
X148510000Y-112460001D01*
X150420756Y-117127420D01*
X150430000Y-117174399D01*
X150430000Y-119316000D01*
X150413387Y-119378000D01*
X150368000Y-119423387D01*
X150306000Y-119440000D01*
X147227061Y-119440000D01*
X147183062Y-119431931D01*
X147144789Y-119408775D01*
X145590000Y-118029999D01*
X137834315Y-118049684D01*
X137772182Y-118033176D01*
X137726665Y-117987775D01*
X137710000Y-117925684D01*
X137710000Y-116128991D01*
X137729417Y-116062369D01*
X137781587Y-116016612D01*
X140090000Y-114940000D01*
X144180000Y-112280000D01*
X144180000Y-108664000D01*
X144196613Y-108602000D01*
X144242000Y-108556613D01*
X144304000Y-108540000D01*
X148395683Y-108540000D01*
X148457774Y-108556666D01*
G37*
%TD.AperFunction*%
%TD*%
%TA.AperFunction,Conductor*%
%TO.N,Net-(U1-OUT2)*%
G36*
X138073000Y-108561613D02*
G01*
X138118387Y-108607000D01*
X138135000Y-108669000D01*
X138135000Y-111623274D01*
X138127035Y-111666999D01*
X138104163Y-111705107D01*
X134885000Y-115369999D01*
X134885000Y-117956000D01*
X134868387Y-118018000D01*
X134823000Y-118063387D01*
X134761000Y-118080000D01*
X133434000Y-118080000D01*
X133372000Y-118063387D01*
X133326613Y-118018000D01*
X133310000Y-117956000D01*
X133310000Y-114994983D01*
X133285482Y-108669481D01*
X133301934Y-108607278D01*
X133347342Y-108561693D01*
X133409481Y-108545000D01*
X138011000Y-108545000D01*
X138073000Y-108561613D01*
G37*
%TD.AperFunction*%
%TD*%
%TA.AperFunction,Conductor*%
%TO.N,GND*%
G36*
X155941072Y-107018805D02*
G01*
X156045332Y-107071928D01*
X156128072Y-107154668D01*
X156181195Y-107258928D01*
X156199500Y-107374500D01*
X156199500Y-131625500D01*
X156181195Y-131741072D01*
X156128072Y-131845332D01*
X156045332Y-131928072D01*
X155941072Y-131981195D01*
X155825500Y-131999500D01*
X131574500Y-131999500D01*
X131458928Y-131981195D01*
X131354668Y-131928072D01*
X131271928Y-131845332D01*
X131218805Y-131741072D01*
X131200500Y-131625500D01*
X131200500Y-128810000D01*
X132019403Y-128810000D01*
X132039768Y-129120724D01*
X132039768Y-129120728D01*
X132039769Y-129120730D01*
X132100520Y-129426144D01*
X132200615Y-129721015D01*
X132275466Y-129872797D01*
X132338344Y-130000301D01*
X132511346Y-130259218D01*
X132547521Y-130300467D01*
X132716664Y-130493336D01*
X132860210Y-130619223D01*
X132950781Y-130698653D01*
X132950784Y-130698655D01*
X133209701Y-130871657D01*
X133488985Y-131009385D01*
X133783856Y-131109480D01*
X134089270Y-131170231D01*
X134400000Y-131190597D01*
X134710730Y-131170231D01*
X135016144Y-131109480D01*
X135311015Y-131009385D01*
X135590299Y-130871657D01*
X135849216Y-130698655D01*
X136083336Y-130493336D01*
X136288655Y-130259216D01*
X136461657Y-130000299D01*
X136599385Y-129721015D01*
X136699480Y-129426144D01*
X136760231Y-129120730D01*
X136780597Y-128810000D01*
X136760231Y-128499270D01*
X136699480Y-128193856D01*
X136613212Y-127939718D01*
X136593386Y-127823579D01*
X136610674Y-127707036D01*
X136663360Y-127601653D01*
X136746214Y-127517890D01*
X136851016Y-127464058D01*
X136967364Y-127445500D01*
X140747998Y-127445500D01*
X140859572Y-127462531D01*
X140960985Y-127512071D01*
X141043001Y-127589610D01*
X141098150Y-127688085D01*
X141121410Y-127798529D01*
X141110662Y-127910883D01*
X141066886Y-128014914D01*
X140989533Y-128141143D01*
X140893126Y-128373889D01*
X140834316Y-128618851D01*
X140814550Y-128869999D01*
X140834316Y-129121148D01*
X140893126Y-129366110D01*
X140989534Y-129598861D01*
X141121160Y-129813654D01*
X141121163Y-129813657D01*
X141121164Y-129813659D01*
X141155985Y-129854429D01*
X141284775Y-130005224D01*
X141476345Y-130168839D01*
X141691138Y-130300465D01*
X141923889Y-130396873D01*
X142168851Y-130455683D01*
X142420000Y-130475449D01*
X142671148Y-130455683D01*
X142916111Y-130396873D01*
X143148859Y-130300466D01*
X143151294Y-130298974D01*
X143363658Y-130168837D01*
X143447106Y-130097566D01*
X143536093Y-130041092D01*
X143637303Y-130011688D01*
X143742697Y-130011688D01*
X143843907Y-130041092D01*
X143932894Y-130097566D01*
X144016341Y-130168837D01*
X144231138Y-130300465D01*
X144463889Y-130396873D01*
X144708851Y-130455683D01*
X144960000Y-130475449D01*
X145211148Y-130455683D01*
X145456111Y-130396873D01*
X145688859Y-130300466D01*
X145735238Y-130272044D01*
X145826305Y-130231784D01*
X145924774Y-130216979D01*
X146023659Y-130228683D01*
X146115951Y-130266065D01*
X146159073Y-130298974D01*
X146181341Y-130312709D01*
X146181344Y-130312712D01*
X146330666Y-130404814D01*
X146497203Y-130459999D01*
X146599991Y-130470500D01*
X148400008Y-130470499D01*
X148502797Y-130459999D01*
X148669334Y-130404814D01*
X148818656Y-130312712D01*
X148942712Y-130188656D01*
X149034814Y-130039334D01*
X149089999Y-129872797D01*
X149100500Y-129770009D01*
X149100499Y-128810000D01*
X150629403Y-128810000D01*
X150649768Y-129120724D01*
X150649768Y-129120728D01*
X150649769Y-129120730D01*
X150710520Y-129426144D01*
X150810615Y-129721015D01*
X150885466Y-129872797D01*
X150948344Y-130000301D01*
X151121346Y-130259218D01*
X151157521Y-130300467D01*
X151326664Y-130493336D01*
X151470210Y-130619223D01*
X151560781Y-130698653D01*
X151560784Y-130698655D01*
X151819701Y-130871657D01*
X152098985Y-131009385D01*
X152393856Y-131109480D01*
X152699270Y-131170231D01*
X153010000Y-131190597D01*
X153320730Y-131170231D01*
X153626144Y-131109480D01*
X153921015Y-131009385D01*
X154200299Y-130871657D01*
X154459216Y-130698655D01*
X154693336Y-130493336D01*
X154898655Y-130259216D01*
X155071657Y-130000299D01*
X155209385Y-129721015D01*
X155309480Y-129426144D01*
X155370231Y-129120730D01*
X155390597Y-128810000D01*
X155370231Y-128499270D01*
X155309480Y-128193856D01*
X155209385Y-127898985D01*
X155071657Y-127619702D01*
X155071657Y-127619701D01*
X154898655Y-127360784D01*
X154863468Y-127320661D01*
X154693336Y-127126664D01*
X154567447Y-127016261D01*
X154459218Y-126921346D01*
X154200301Y-126748344D01*
X154200297Y-126748342D01*
X153921015Y-126610615D01*
X153626144Y-126510520D01*
X153320730Y-126449769D01*
X153320728Y-126449768D01*
X153320724Y-126449768D01*
X153040292Y-126431388D01*
X153010000Y-126429403D01*
X153009999Y-126429403D01*
X152932234Y-126434499D01*
X152932234Y-126434500D01*
X152699275Y-126449768D01*
X152699269Y-126449769D01*
X152699270Y-126449769D01*
X152393856Y-126510520D01*
X152393854Y-126510520D01*
X152393852Y-126510521D01*
X152098982Y-126610616D01*
X151819701Y-126748342D01*
X151560784Y-126921344D01*
X151326664Y-127126664D01*
X151121344Y-127360784D01*
X150948342Y-127619701D01*
X150891595Y-127734772D01*
X150891594Y-127734776D01*
X150810616Y-127898982D01*
X150710521Y-128193852D01*
X150649768Y-128499275D01*
X150629403Y-128810000D01*
X149100499Y-128810000D01*
X149100499Y-127969992D01*
X149089999Y-127867203D01*
X149034814Y-127700666D01*
X148942712Y-127551344D01*
X148818656Y-127427288D01*
X148803156Y-127417727D01*
X148729336Y-127358038D01*
X148672921Y-127281682D01*
X148637549Y-127193581D01*
X148625500Y-127099412D01*
X148625500Y-126435204D01*
X148628068Y-126404443D01*
X148625606Y-126301024D01*
X148625500Y-126292122D01*
X148625500Y-126256385D01*
X148625496Y-126256343D01*
X148623907Y-126229688D01*
X148622624Y-126175774D01*
X148618767Y-126158043D01*
X148611912Y-126114082D01*
X148610188Y-126096027D01*
X148594996Y-126044289D01*
X148588396Y-126018432D01*
X148576934Y-125965741D01*
X148569792Y-125949065D01*
X148554742Y-125907199D01*
X148549631Y-125889792D01*
X148549631Y-125889791D01*
X148524921Y-125841862D01*
X148513548Y-125817721D01*
X148492322Y-125768154D01*
X148492321Y-125768151D01*
X148482147Y-125753119D01*
X148459450Y-125714865D01*
X148451138Y-125698741D01*
X148451136Y-125698739D01*
X148451135Y-125698736D01*
X148417813Y-125656364D01*
X148402067Y-125634801D01*
X148371842Y-125590144D01*
X148359009Y-125577311D01*
X148329480Y-125544040D01*
X148318269Y-125529784D01*
X148277515Y-125494470D01*
X148257976Y-125476278D01*
X145124382Y-122342685D01*
X145104450Y-122319121D01*
X145029574Y-122247727D01*
X145023205Y-122241508D01*
X144997931Y-122216234D01*
X144997886Y-122216197D01*
X144977933Y-122198487D01*
X144938900Y-122161269D01*
X144923630Y-122151456D01*
X144887720Y-122125235D01*
X144873726Y-122113681D01*
X144826398Y-122087838D01*
X144803437Y-122074214D01*
X144758079Y-122045064D01*
X144741228Y-122038318D01*
X144700996Y-122019362D01*
X144685069Y-122010666D01*
X144685068Y-122010665D01*
X144685065Y-122010664D01*
X144633703Y-121994245D01*
X144608587Y-121985216D01*
X144558536Y-121965179D01*
X144558533Y-121965178D01*
X144558532Y-121965178D01*
X144540708Y-121961742D01*
X144497619Y-121950744D01*
X144480329Y-121945217D01*
X144426782Y-121938814D01*
X144400415Y-121934703D01*
X144347472Y-121924500D01*
X144329332Y-121924500D01*
X144284930Y-121921855D01*
X144266905Y-121919699D01*
X144213118Y-121923547D01*
X144186436Y-121924500D01*
X139433709Y-121924500D01*
X139339540Y-121912451D01*
X139251439Y-121877079D01*
X139175083Y-121820664D01*
X139115391Y-121746841D01*
X139095675Y-121714876D01*
X139013312Y-121581344D01*
X138889256Y-121457288D01*
X138739934Y-121365186D01*
X138573397Y-121310001D01*
X138573394Y-121310000D01*
X138470610Y-121299500D01*
X137659394Y-121299500D01*
X137556597Y-121310001D01*
X137547634Y-121312972D01*
X137429998Y-121331954D01*
X137312363Y-121312972D01*
X137308149Y-121311575D01*
X137303395Y-121310000D01*
X137200610Y-121299500D01*
X136389394Y-121299500D01*
X136286597Y-121310001D01*
X136277634Y-121312972D01*
X136159998Y-121331954D01*
X136042363Y-121312972D01*
X136038149Y-121311575D01*
X136033395Y-121310000D01*
X135930610Y-121299500D01*
X135119394Y-121299500D01*
X135016603Y-121310001D01*
X134850065Y-121365186D01*
X134700744Y-121457288D01*
X134576688Y-121581344D01*
X134484586Y-121730665D01*
X134429400Y-121897205D01*
X134418900Y-121999988D01*
X134418900Y-122806155D01*
X134412142Y-122876931D01*
X134399500Y-122942527D01*
X134399500Y-124899795D01*
X134396931Y-124930552D01*
X134399394Y-125033975D01*
X134399500Y-125042877D01*
X134399500Y-125078629D01*
X134399506Y-125078692D01*
X134401091Y-125105306D01*
X134402375Y-125159228D01*
X134406233Y-125176961D01*
X134413086Y-125220904D01*
X134414811Y-125238968D01*
X134430003Y-125290710D01*
X134436602Y-125316567D01*
X134448064Y-125369253D01*
X134455209Y-125385938D01*
X134470253Y-125427787D01*
X134475369Y-125445209D01*
X134500078Y-125493139D01*
X134511452Y-125517279D01*
X134532678Y-125566849D01*
X134542852Y-125581880D01*
X134565546Y-125620129D01*
X134573862Y-125636260D01*
X134607190Y-125678640D01*
X134622928Y-125700193D01*
X134646264Y-125734671D01*
X134653158Y-125744856D01*
X134665987Y-125757685D01*
X134695513Y-125790952D01*
X134722508Y-125825279D01*
X134781431Y-125932645D01*
X134802510Y-126053289D01*
X134783486Y-126174275D01*
X134726398Y-126282627D01*
X134637368Y-126366729D01*
X134525942Y-126417560D01*
X134424449Y-126427645D01*
X134424460Y-126427800D01*
X134419848Y-126428102D01*
X134404072Y-126429669D01*
X134400000Y-126429403D01*
X134399998Y-126429403D01*
X134322234Y-126434499D01*
X134322234Y-126434500D01*
X134089275Y-126449768D01*
X134089269Y-126449769D01*
X134089270Y-126449769D01*
X133783856Y-126510520D01*
X133783854Y-126510520D01*
X133783852Y-126510521D01*
X133488982Y-126610616D01*
X133209701Y-126748342D01*
X132950784Y-126921344D01*
X132716664Y-127126664D01*
X132511344Y-127360784D01*
X132338342Y-127619701D01*
X132281595Y-127734772D01*
X132281594Y-127734776D01*
X132200616Y-127898982D01*
X132100521Y-128193852D01*
X132039768Y-128499275D01*
X132019403Y-128810000D01*
X131200500Y-128810000D01*
X131200500Y-108672406D01*
X132529987Y-108672406D01*
X132554497Y-114995589D01*
X132554500Y-114997039D01*
X132554500Y-117956002D01*
X132560963Y-118054611D01*
X132580242Y-118151537D01*
X132596856Y-118213542D01*
X132641898Y-118337290D01*
X132707742Y-118451335D01*
X132707744Y-118451337D01*
X132792394Y-118552219D01*
X132837781Y-118597606D01*
X132845952Y-118604462D01*
X132938664Y-118682257D01*
X133052709Y-118748101D01*
X133052711Y-118748102D01*
X133098955Y-118764934D01*
X133176457Y-118793143D01*
X133176461Y-118793144D01*
X133238461Y-118809757D01*
X133335387Y-118829036D01*
X133368257Y-118831190D01*
X133433998Y-118835500D01*
X133434000Y-118835500D01*
X134761000Y-118835500D01*
X134761002Y-118835500D01*
X134810306Y-118832268D01*
X134859613Y-118829036D01*
X134956539Y-118809757D01*
X135018539Y-118793144D01*
X135142289Y-118748102D01*
X135256337Y-118682256D01*
X135283308Y-118659624D01*
X135371585Y-118604462D01*
X135471654Y-118575766D01*
X135575757Y-118575765D01*
X135675827Y-118604460D01*
X135764106Y-118659622D01*
X135779163Y-118672256D01*
X135779167Y-118672259D01*
X135893209Y-118738101D01*
X135893211Y-118738102D01*
X135939455Y-118754934D01*
X136016957Y-118783143D01*
X136016961Y-118783144D01*
X136078961Y-118799757D01*
X136175887Y-118819036D01*
X136208758Y-118821190D01*
X136274498Y-118825500D01*
X136274500Y-118825500D01*
X137332105Y-118825500D01*
X137332107Y-118825500D01*
X137403296Y-118820443D01*
X137438892Y-118817915D01*
X137506456Y-118803320D01*
X137623431Y-118796826D01*
X137659391Y-118800500D01*
X137750250Y-118800499D01*
X137773806Y-118801241D01*
X137836233Y-118805182D01*
X145161605Y-118786588D01*
X145251497Y-118797318D01*
X145336183Y-118829336D01*
X145410693Y-118880765D01*
X146643526Y-119974033D01*
X146753697Y-120055170D01*
X146753700Y-120055171D01*
X146753703Y-120055174D01*
X146791976Y-120078330D01*
X146914983Y-120138269D01*
X146914985Y-120138269D01*
X146914986Y-120138270D01*
X146968299Y-120153143D01*
X147046783Y-120175038D01*
X147090782Y-120183107D01*
X147227061Y-120195500D01*
X150306000Y-120195500D01*
X150306002Y-120195500D01*
X150355306Y-120192267D01*
X150404613Y-120189036D01*
X150501539Y-120169757D01*
X150563539Y-120153144D01*
X150687289Y-120108102D01*
X150801337Y-120042256D01*
X150902219Y-119957606D01*
X150947606Y-119912219D01*
X151032256Y-119811337D01*
X151098102Y-119697289D01*
X151143144Y-119573539D01*
X151159757Y-119511539D01*
X151179036Y-119414613D01*
X151185500Y-119316000D01*
X151185500Y-117174399D01*
X151171286Y-117028537D01*
X151162042Y-116981558D01*
X151119935Y-116841189D01*
X149293948Y-112380837D01*
X149273012Y-112310880D01*
X149266068Y-112238188D01*
X149275181Y-108666243D01*
X149268947Y-108567450D01*
X149249851Y-108470319D01*
X149233343Y-108408186D01*
X149188474Y-108284150D01*
X149188473Y-108284147D01*
X149122718Y-108169810D01*
X149122717Y-108169808D01*
X149038075Y-108068646D01*
X148992674Y-108023129D01*
X148891726Y-107938228D01*
X148891721Y-107938225D01*
X148777553Y-107872179D01*
X148777552Y-107872178D01*
X148777551Y-107872178D01*
X148736243Y-107857116D01*
X148653623Y-107826992D01*
X148591532Y-107810326D01*
X148494462Y-107790985D01*
X148453301Y-107788282D01*
X148395683Y-107784500D01*
X144304000Y-107784500D01*
X144303998Y-107784500D01*
X144205388Y-107790963D01*
X144108462Y-107810242D01*
X144046457Y-107826856D01*
X143893221Y-107882631D01*
X143841675Y-107903987D01*
X143744952Y-107916746D01*
X143648220Y-107904056D01*
X143594401Y-107881804D01*
X143442787Y-107826770D01*
X143442785Y-107826769D01*
X143442781Y-107826768D01*
X143380722Y-107810201D01*
X143380715Y-107810199D01*
X143380709Y-107810198D01*
X143283710Y-107791001D01*
X143185024Y-107784639D01*
X143185017Y-107784639D01*
X138958017Y-107789362D01*
X138933987Y-107790963D01*
X138859478Y-107795927D01*
X138762650Y-107815286D01*
X138762644Y-107815287D01*
X138762642Y-107815288D01*
X138762345Y-107815368D01*
X138700691Y-107831949D01*
X138613083Y-107863923D01*
X138528496Y-107884035D01*
X138441551Y-107884073D01*
X138356946Y-107864034D01*
X138269102Y-107832061D01*
X138268539Y-107831856D01*
X138268538Y-107831855D01*
X138268536Y-107831855D01*
X138206537Y-107815242D01*
X138109611Y-107795963D01*
X138011002Y-107789500D01*
X138011000Y-107789500D01*
X133409481Y-107789500D01*
X133409477Y-107789500D01*
X133310626Y-107795994D01*
X133213475Y-107815368D01*
X133151333Y-107832061D01*
X133027318Y-107877321D01*
X133027316Y-107877321D01*
X133027316Y-107877322D01*
X133015658Y-107884073D01*
X132913068Y-107943480D01*
X132812086Y-108028512D01*
X132766679Y-108074096D01*
X132682036Y-108175412D01*
X132616326Y-108289908D01*
X132571547Y-108414103D01*
X132555098Y-108476296D01*
X132536099Y-108573535D01*
X132529987Y-108672406D01*
X131200500Y-108672406D01*
X131200500Y-107374500D01*
X131218805Y-107258928D01*
X131271928Y-107154668D01*
X131354668Y-107071928D01*
X131458928Y-107018805D01*
X131574500Y-107000500D01*
X155825500Y-107000500D01*
X155941072Y-107018805D01*
G37*
%TD.AperFunction*%
%TD*%
D20*
X156200000Y-107000000D02*
X156200000Y-109000000D01*
X131200000Y-107000000D02*
X156200000Y-107000000D01*
X156200000Y-132000000D01*
X131200000Y-132000000D01*
X131200000Y-107000000D01*
M02*
