%TF.GenerationSoftware,KiCad,Pcbnew,(7.0.0)*%
%TF.CreationDate,2023-08-29T19:28:47-03:00*%
%TF.ProjectId,Driver_TB67H451AFNG,44726976-6572-45f5-9442-363748343531,rev?*%
%TF.SameCoordinates,Original*%
%TF.FileFunction,Copper,L1,Top*%
%TF.FilePolarity,Positive*%
%FSLAX46Y46*%
G04 Gerber Fmt 4.6, Leading zero omitted, Abs format (unit mm)*
G04 Created by KiCad (PCBNEW (7.0.0)) date 2023-08-29 19:28:47*
%MOMM*%
%LPD*%
G01*
G04 APERTURE LIST*
%TA.AperFunction,ComponentPad*%
%ADD10C,2.500000*%
%TD*%
%TA.AperFunction,ComponentPad*%
%ADD11C,3.250000*%
%TD*%
%TA.AperFunction,SMDPad,CuDef*%
%ADD12R,0.711200X2.000000*%
%TD*%
%TA.AperFunction,ComponentPad*%
%ADD13C,0.700000*%
%TD*%
%TA.AperFunction,ComponentPad*%
%ADD14R,1.700000X1.700000*%
%TD*%
%TA.AperFunction,ComponentPad*%
%ADD15O,1.700000X1.700000*%
%TD*%
%TA.AperFunction,ComponentPad*%
%ADD16R,1.524000X1.524000*%
%TD*%
%TA.AperFunction,ComponentPad*%
%ADD17C,1.524000*%
%TD*%
%TA.AperFunction,SMDPad,CuDef*%
%ADD18R,1.498600X1.300480*%
%TD*%
%TA.AperFunction,Conductor*%
%ADD19C,0.750000*%
%TD*%
%TA.AperFunction,Profile*%
%ADD20C,0.100000*%
%TD*%
G04 APERTURE END LIST*
D10*
%TO.P,J1,1*%
%TO.N,GND*%
X165520000Y-90000000D03*
%TO.P,J1,2*%
%TO.N,/Vin*%
X160440000Y-90000000D03*
%TD*%
D11*
%TO.P,H2,1*%
%TO.N,N/C*%
X167100000Y-108090000D03*
%TD*%
D12*
%TO.P,U1,1,GND*%
%TO.N,GND*%
X148344999Y-102329999D03*
D13*
X148450000Y-98330000D03*
X148450000Y-99030000D03*
X148450000Y-99730000D03*
X148450000Y-100430000D03*
X149150000Y-98330000D03*
X149150000Y-99030000D03*
X149150000Y-99730000D03*
X149150000Y-100430000D03*
X149850000Y-98330000D03*
X149850000Y-99030000D03*
X149850000Y-99730000D03*
X149850000Y-100430000D03*
X150550000Y-98330000D03*
X150550000Y-99030000D03*
X150550000Y-99730000D03*
X150550000Y-100430000D03*
X151250000Y-98330000D03*
X151250000Y-99030000D03*
X151250000Y-99730000D03*
X151250000Y-100430000D03*
X151950000Y-98330000D03*
X151950000Y-99030000D03*
X151950000Y-99730000D03*
X151950000Y-100430000D03*
D12*
%TO.P,U1,2,IN2*%
%TO.N,/M1A*%
X149614999Y-102329999D03*
%TO.P,U1,3,IN1*%
%TO.N,/M1B*%
X150884999Y-102329999D03*
%TO.P,U1,4,VREF*%
%TO.N,+5V*%
X152154999Y-102329999D03*
%TO.P,U1,5,VM*%
%TO.N,/Vin*%
X152154999Y-96329999D03*
%TO.P,U1,6,OUT1*%
%TO.N,Net-(U1-OUT1)*%
X150884999Y-96329999D03*
%TO.P,U1,7,RS*%
%TO.N,GND*%
X149614999Y-96329999D03*
%TO.P,U1,8,OUT2*%
%TO.N,Net-(U1-OUT2)*%
X148344999Y-96329999D03*
%TD*%
D14*
%TO.P,J4,1,Pin_1*%
%TO.N,+5V*%
X161589999Y-108149999D03*
D15*
%TO.P,J4,2,Pin_2*%
%TO.N,/M1B*%
X159049999Y-108149999D03*
%TO.P,J4,3,Pin_3*%
%TO.N,/M1A*%
X156509999Y-108149999D03*
%TO.P,J4,4,Pin_4*%
%TO.N,GND*%
X153969999Y-108149999D03*
%TD*%
D11*
%TO.P,H1,1*%
%TO.N,N/C*%
X148490000Y-108090000D03*
%TD*%
D16*
%TO.P,C2,1*%
%TO.N,/Vin*%
X163039999Y-97669999D03*
D17*
%TO.P,C2,2*%
%TO.N,GND*%
X163040000Y-102170000D03*
%TD*%
D18*
%TO.P,C1,1*%
%TO.N,/Vin*%
X154249999Y-96329999D03*
%TO.P,C1,2*%
%TO.N,GND*%
X154249999Y-98234999D03*
%TD*%
D13*
%TO.P,J3,1*%
%TO.N,Net-(U1-OUT1)*%
X156750000Y-90000000D03*
X156280000Y-91120000D03*
X156280000Y-88880000D03*
X155150000Y-91600000D03*
D10*
X155150000Y-90000000D03*
D13*
X155150000Y-88400000D03*
X154010000Y-91120000D03*
X154010000Y-88880000D03*
X153560000Y-90000000D03*
%TO.P,J3,2*%
%TO.N,Net-(U1-OUT2)*%
X151670000Y-90000000D03*
X151200000Y-91120000D03*
X151200000Y-88880000D03*
X150070000Y-91600000D03*
D10*
X150070000Y-90000000D03*
D13*
X150070000Y-88400000D03*
X148930000Y-91120000D03*
X148930000Y-88880000D03*
X148480000Y-90000000D03*
%TD*%
D19*
%TO.N,GND*%
X149615000Y-96330000D02*
X149615000Y-98655000D01*
X149615000Y-98655000D02*
X149200000Y-99070000D01*
%TO.N,+5V*%
X158330000Y-102330000D02*
X152155000Y-102330000D01*
X161590000Y-105590000D02*
X158330000Y-102330000D01*
X161590000Y-108150000D02*
X161590000Y-105590000D01*
%TO.N,/M1A*%
X156510000Y-106100000D02*
X156010000Y-105600000D01*
X156010000Y-105600000D02*
X150910000Y-105600000D01*
X150910000Y-105600000D02*
X149615000Y-104305000D01*
X149615000Y-104305000D02*
X149615000Y-102330000D01*
X156510000Y-108150000D02*
X156510000Y-106100000D01*
%TO.N,/M1B*%
X151560000Y-104250000D02*
X150885000Y-103575000D01*
X150885000Y-103575000D02*
X150885000Y-102330000D01*
X159050000Y-108150000D02*
X159050000Y-105320000D01*
X159050000Y-105320000D02*
X157980000Y-104250000D01*
X157980000Y-104250000D02*
X151560000Y-104250000D01*
%TD*%
%TA.AperFunction,Conductor*%
%TO.N,Net-(U1-OUT1)*%
G36*
X157337920Y-87836706D02*
G01*
X157383364Y-87882099D01*
X157400000Y-87944139D01*
X157400000Y-91162581D01*
X157384939Y-91221812D01*
X157343415Y-91266654D01*
X151593026Y-94991561D01*
X151593023Y-94991563D01*
X151580000Y-95000000D01*
X151580000Y-95015519D01*
X151580000Y-95173826D01*
X151570562Y-95221277D01*
X151570218Y-95222105D01*
X151563434Y-95232260D01*
X151561051Y-95244236D01*
X151561051Y-95244238D01*
X151550089Y-95299346D01*
X151550088Y-95299351D01*
X151548900Y-95305326D01*
X151548900Y-95311421D01*
X151548900Y-95369366D01*
X151547655Y-95386891D01*
X151545121Y-95404637D01*
X151545120Y-95404645D01*
X151544500Y-95408991D01*
X151544500Y-97205684D01*
X151545030Y-97209707D01*
X151545032Y-97209729D01*
X151545041Y-97209794D01*
X151545038Y-97209813D01*
X151545298Y-97213775D01*
X151544419Y-97213832D01*
X151534493Y-97278392D01*
X151488736Y-97330577D01*
X151422105Y-97350000D01*
X150364500Y-97350000D01*
X150302500Y-97333387D01*
X150257113Y-97288000D01*
X150240500Y-97226000D01*
X150240500Y-96294545D01*
X150240500Y-96290650D01*
X150225664Y-96173208D01*
X150224435Y-96170104D01*
X150221100Y-96143700D01*
X150221100Y-95311421D01*
X150221100Y-95305326D01*
X150206566Y-95232260D01*
X150199780Y-95222104D01*
X150197484Y-95216560D01*
X150185339Y-95190879D01*
X150180000Y-95154886D01*
X150180000Y-94498407D01*
X150188490Y-94453314D01*
X150212796Y-94414396D01*
X152925000Y-91470000D01*
X152925000Y-87948862D01*
X152941590Y-87886902D01*
X152986920Y-87841521D01*
X153048861Y-87824862D01*
X157275861Y-87820139D01*
X157337920Y-87836706D01*
G37*
%TD.AperFunction*%
%TD*%
%TA.AperFunction,Conductor*%
%TO.N,/Vin*%
G36*
X162547774Y-87836666D02*
G01*
X162593175Y-87882183D01*
X162609682Y-87944315D01*
X162600000Y-91740000D01*
X162604606Y-91751252D01*
X162604607Y-91751255D01*
X164510756Y-96407420D01*
X164520000Y-96454399D01*
X164520000Y-98596000D01*
X164503387Y-98658000D01*
X164458000Y-98703387D01*
X164396000Y-98720000D01*
X161317061Y-98720000D01*
X161273062Y-98711931D01*
X161234789Y-98688775D01*
X159688468Y-97317509D01*
X159688466Y-97317508D01*
X159680000Y-97310000D01*
X159668690Y-97310028D01*
X159668687Y-97310028D01*
X151924315Y-97329684D01*
X151862182Y-97313176D01*
X151816665Y-97267775D01*
X151800000Y-97205684D01*
X151800000Y-95408991D01*
X151819417Y-95342369D01*
X151871587Y-95296612D01*
X154180000Y-94220000D01*
X158270000Y-91560000D01*
X158270000Y-87944000D01*
X158286613Y-87882000D01*
X158332000Y-87836613D01*
X158394000Y-87820000D01*
X162485683Y-87820000D01*
X162547774Y-87836666D01*
G37*
%TD.AperFunction*%
%TD*%
%TA.AperFunction,Conductor*%
%TO.N,Net-(U1-OUT2)*%
G36*
X152163000Y-87841613D02*
G01*
X152208387Y-87887000D01*
X152225000Y-87949000D01*
X152225000Y-90903274D01*
X152217035Y-90946999D01*
X152194163Y-90985107D01*
X148982391Y-94641584D01*
X148982387Y-94641589D01*
X148975000Y-94650000D01*
X148975000Y-94661199D01*
X148975000Y-97236000D01*
X148958387Y-97298000D01*
X148913000Y-97343387D01*
X148851000Y-97360000D01*
X147524000Y-97360000D01*
X147462000Y-97343387D01*
X147416613Y-97298000D01*
X147400000Y-97236000D01*
X147400000Y-94275258D01*
X147400000Y-94275000D01*
X147375482Y-87949479D01*
X147391934Y-87887278D01*
X147437342Y-87841693D01*
X147499481Y-87825000D01*
X152101000Y-87825000D01*
X152163000Y-87841613D01*
G37*
%TD.AperFunction*%
%TD*%
%TA.AperFunction,Conductor*%
%TO.N,GND*%
G36*
X170031072Y-86298805D02*
G01*
X170135332Y-86351928D01*
X170218072Y-86434668D01*
X170271195Y-86538928D01*
X170289500Y-86654500D01*
X170289500Y-110905500D01*
X170271195Y-111021072D01*
X170218072Y-111125332D01*
X170135332Y-111208072D01*
X170031072Y-111261195D01*
X169915500Y-111279500D01*
X145664500Y-111279500D01*
X145548928Y-111261195D01*
X145444668Y-111208072D01*
X145361928Y-111125332D01*
X145308805Y-111021072D01*
X145290500Y-110905500D01*
X145290500Y-108090000D01*
X146109403Y-108090000D01*
X146129769Y-108400730D01*
X146132157Y-108412735D01*
X146188130Y-108694132D01*
X146188132Y-108694141D01*
X146190520Y-108706144D01*
X146194457Y-108717742D01*
X146286678Y-108989419D01*
X146286681Y-108989428D01*
X146290615Y-109001015D01*
X146296030Y-109011997D01*
X146296032Y-109012000D01*
X146352951Y-109127421D01*
X146428343Y-109280299D01*
X146601345Y-109539216D01*
X146609415Y-109548418D01*
X146771792Y-109733573D01*
X146806664Y-109773336D01*
X147040784Y-109978655D01*
X147299701Y-110151657D01*
X147578985Y-110289385D01*
X147873856Y-110389480D01*
X148179270Y-110450231D01*
X148490000Y-110470597D01*
X148800730Y-110450231D01*
X149106144Y-110389480D01*
X149401015Y-110289385D01*
X149680299Y-110151657D01*
X149939216Y-109978655D01*
X150173336Y-109773336D01*
X150378655Y-109539216D01*
X150551657Y-109280299D01*
X150689385Y-109001015D01*
X150789480Y-108706144D01*
X150850231Y-108400730D01*
X150870597Y-108090000D01*
X150850231Y-107779270D01*
X150789480Y-107473856D01*
X150703212Y-107219718D01*
X150683386Y-107103579D01*
X150700674Y-106987036D01*
X150753359Y-106881653D01*
X150836214Y-106797890D01*
X150941016Y-106744058D01*
X151057364Y-106725500D01*
X154837999Y-106725500D01*
X154949573Y-106742531D01*
X155050987Y-106792071D01*
X155133002Y-106869611D01*
X155188151Y-106968087D01*
X155211411Y-107078531D01*
X155200663Y-107190884D01*
X155156888Y-107294910D01*
X155079534Y-107421141D01*
X155073911Y-107434715D01*
X155073908Y-107434722D01*
X154988751Y-107640309D01*
X154988747Y-107640320D01*
X154983127Y-107653889D01*
X154924317Y-107898852D01*
X154923165Y-107913489D01*
X154923163Y-107913502D01*
X154910235Y-108077779D01*
X154904551Y-108150000D01*
X154905704Y-108164650D01*
X154923163Y-108386497D01*
X154923164Y-108386508D01*
X154924317Y-108401148D01*
X154983127Y-108646111D01*
X154988748Y-108659683D01*
X154988751Y-108659690D01*
X155007993Y-108706144D01*
X155079534Y-108878859D01*
X155211164Y-109093659D01*
X155220704Y-109104829D01*
X155220707Y-109104833D01*
X155361190Y-109269317D01*
X155374776Y-109285224D01*
X155385946Y-109294764D01*
X155482894Y-109377566D01*
X155566341Y-109448836D01*
X155781141Y-109580466D01*
X156013889Y-109676873D01*
X156258852Y-109735683D01*
X156510000Y-109755449D01*
X156761148Y-109735683D01*
X157006111Y-109676873D01*
X157238859Y-109580466D01*
X157453659Y-109448836D01*
X157537106Y-109377564D01*
X157626093Y-109321093D01*
X157727303Y-109291688D01*
X157832697Y-109291688D01*
X157933907Y-109321093D01*
X158022893Y-109377564D01*
X158106341Y-109448836D01*
X158321141Y-109580466D01*
X158553889Y-109676873D01*
X158798852Y-109735683D01*
X159050000Y-109755449D01*
X159301148Y-109735683D01*
X159546111Y-109676873D01*
X159778859Y-109580466D01*
X159827290Y-109550786D01*
X159931954Y-109506852D01*
X160044988Y-109496340D01*
X160155968Y-109520224D01*
X160254671Y-109576304D01*
X160255937Y-109577305D01*
X160271344Y-109592712D01*
X160420666Y-109684814D01*
X160587203Y-109739999D01*
X160689991Y-109750500D01*
X162490008Y-109750499D01*
X162592797Y-109739999D01*
X162759334Y-109684814D01*
X162908656Y-109592712D01*
X163032712Y-109468656D01*
X163124814Y-109319334D01*
X163179999Y-109152797D01*
X163190500Y-109050009D01*
X163190499Y-108090000D01*
X164719403Y-108090000D01*
X164739769Y-108400730D01*
X164742157Y-108412735D01*
X164798130Y-108694132D01*
X164798132Y-108694141D01*
X164800520Y-108706144D01*
X164804457Y-108717742D01*
X164896678Y-108989419D01*
X164896681Y-108989428D01*
X164900615Y-109001015D01*
X164906030Y-109011997D01*
X164906032Y-109012000D01*
X164962951Y-109127421D01*
X165038343Y-109280299D01*
X165211345Y-109539216D01*
X165219415Y-109548418D01*
X165381792Y-109733573D01*
X165416664Y-109773336D01*
X165650784Y-109978655D01*
X165909701Y-110151657D01*
X166188985Y-110289385D01*
X166483856Y-110389480D01*
X166789270Y-110450231D01*
X167100000Y-110470597D01*
X167410730Y-110450231D01*
X167716144Y-110389480D01*
X168011015Y-110289385D01*
X168290299Y-110151657D01*
X168549216Y-109978655D01*
X168783336Y-109773336D01*
X168988655Y-109539216D01*
X169161657Y-109280299D01*
X169299385Y-109001015D01*
X169399480Y-108706144D01*
X169460231Y-108400730D01*
X169480597Y-108090000D01*
X169460231Y-107779270D01*
X169399480Y-107473856D01*
X169299385Y-107178985D01*
X169161657Y-106899702D01*
X168988655Y-106640784D01*
X168783336Y-106406664D01*
X168549216Y-106201345D01*
X168290299Y-106028343D01*
X168279320Y-106022928D01*
X168279317Y-106022927D01*
X168022000Y-105896032D01*
X168021997Y-105896030D01*
X168011015Y-105890615D01*
X167999428Y-105886681D01*
X167999419Y-105886678D01*
X167727742Y-105794457D01*
X167716144Y-105790520D01*
X167704141Y-105788132D01*
X167704132Y-105788130D01*
X167422735Y-105732157D01*
X167410730Y-105729769D01*
X167398511Y-105728968D01*
X167398510Y-105728968D01*
X167112221Y-105710204D01*
X167100000Y-105709403D01*
X167087779Y-105710204D01*
X167022234Y-105714500D01*
X166801489Y-105728968D01*
X166801486Y-105728968D01*
X166789270Y-105729769D01*
X166777266Y-105732156D01*
X166777264Y-105732157D01*
X166495867Y-105788130D01*
X166495854Y-105788133D01*
X166483856Y-105790520D01*
X166472261Y-105794455D01*
X166472257Y-105794457D01*
X166200576Y-105886680D01*
X166200570Y-105886682D01*
X166188985Y-105890615D01*
X166178016Y-105896023D01*
X166178007Y-105896028D01*
X165920685Y-106022926D01*
X165920676Y-106022931D01*
X165909702Y-106028343D01*
X165899527Y-106035141D01*
X165899516Y-106035148D01*
X165660969Y-106194539D01*
X165660962Y-106194544D01*
X165650784Y-106201345D01*
X165641581Y-106209415D01*
X165641573Y-106209422D01*
X165425874Y-106398586D01*
X165425865Y-106398594D01*
X165416664Y-106406664D01*
X165408594Y-106415865D01*
X165408586Y-106415874D01*
X165219415Y-106631581D01*
X165219408Y-106631588D01*
X165211345Y-106640784D01*
X165204552Y-106650950D01*
X165204547Y-106650957D01*
X165045147Y-106889517D01*
X165045142Y-106889524D01*
X165038343Y-106899701D01*
X165032933Y-106910670D01*
X165032925Y-106910685D01*
X164981594Y-107014776D01*
X164906032Y-107167999D01*
X164906028Y-107168007D01*
X164900615Y-107178985D01*
X164896683Y-107190566D01*
X164896678Y-107190580D01*
X164822667Y-107408613D01*
X164800520Y-107473856D01*
X164798133Y-107485854D01*
X164798130Y-107485867D01*
X164742157Y-107767264D01*
X164739769Y-107779270D01*
X164719403Y-108090000D01*
X163190499Y-108090000D01*
X163190499Y-107249992D01*
X163179999Y-107147203D01*
X163124814Y-106980666D01*
X163032712Y-106831344D01*
X162908656Y-106707288D01*
X162890111Y-106695849D01*
X162873028Y-106682342D01*
X162873457Y-106681798D01*
X162819340Y-106638042D01*
X162762923Y-106561685D01*
X162727550Y-106473583D01*
X162715500Y-106379412D01*
X162715500Y-105691594D01*
X162715845Y-105681923D01*
X162717740Y-105670657D01*
X162715606Y-105581024D01*
X162715500Y-105572122D01*
X162715500Y-105545278D01*
X162715500Y-105536382D01*
X162714654Y-105527530D01*
X162714230Y-105518618D01*
X162714507Y-105518604D01*
X162713907Y-105509678D01*
X162712624Y-105455774D01*
X162708769Y-105438054D01*
X162701910Y-105394070D01*
X162700188Y-105376029D01*
X162695166Y-105358926D01*
X162684996Y-105324289D01*
X162678397Y-105298439D01*
X162666934Y-105245741D01*
X162659794Y-105229070D01*
X162644740Y-105187193D01*
X162639631Y-105169791D01*
X162614921Y-105121862D01*
X162603547Y-105097719D01*
X162597976Y-105084710D01*
X162582321Y-105048151D01*
X162572142Y-105033112D01*
X162549454Y-104994873D01*
X162541138Y-104978741D01*
X162507811Y-104936362D01*
X162492069Y-104914803D01*
X162471829Y-104884899D01*
X162471827Y-104884897D01*
X162461843Y-104870145D01*
X162449008Y-104857310D01*
X162419484Y-104824046D01*
X162408268Y-104809783D01*
X162394804Y-104798116D01*
X162394800Y-104798112D01*
X162367515Y-104774469D01*
X162347976Y-104756278D01*
X159197686Y-101605989D01*
X159191092Y-101598907D01*
X159184466Y-101589601D01*
X159171575Y-101577309D01*
X159171572Y-101577306D01*
X159119574Y-101527727D01*
X159113205Y-101521508D01*
X159094228Y-101502531D01*
X159087935Y-101496238D01*
X159081071Y-101490570D01*
X159074487Y-101484585D01*
X159074607Y-101484452D01*
X159067935Y-101478489D01*
X159058000Y-101469016D01*
X159028903Y-101441273D01*
X159013922Y-101431645D01*
X159013917Y-101431641D01*
X159013632Y-101431458D01*
X158977715Y-101405232D01*
X158977460Y-101405021D01*
X158977455Y-101405018D01*
X158963721Y-101393678D01*
X158945161Y-101383543D01*
X158916394Y-101367835D01*
X158893440Y-101354215D01*
X158863075Y-101334700D01*
X158863061Y-101334692D01*
X158848080Y-101325065D01*
X158831546Y-101318446D01*
X158831541Y-101318443D01*
X158831222Y-101318316D01*
X158791003Y-101299367D01*
X158775069Y-101290666D01*
X158741676Y-101279991D01*
X158723705Y-101274246D01*
X158698596Y-101265220D01*
X158648532Y-101245178D01*
X158630703Y-101241741D01*
X158587626Y-101230746D01*
X158587304Y-101230643D01*
X158587297Y-101230641D01*
X158570331Y-101225218D01*
X158552645Y-101223103D01*
X158552639Y-101223102D01*
X158516781Y-101218814D01*
X158490417Y-101214703D01*
X158454969Y-101207871D01*
X158454956Y-101207869D01*
X158437472Y-101204500D01*
X158419655Y-101204500D01*
X158419331Y-101204500D01*
X158374931Y-101201855D01*
X158374596Y-101201815D01*
X158374595Y-101201814D01*
X158356906Y-101199700D01*
X158339145Y-101200970D01*
X158339135Y-101200970D01*
X158303118Y-101203547D01*
X158276437Y-101204500D01*
X153521274Y-101204500D01*
X153416615Y-101189558D01*
X153320319Y-101145925D01*
X153240080Y-101077089D01*
X153196360Y-101010082D01*
X153195414Y-101010666D01*
X153114750Y-100879888D01*
X153114749Y-100879887D01*
X153103312Y-100861344D01*
X152979256Y-100737288D01*
X152960713Y-100725850D01*
X152960711Y-100725849D01*
X152848475Y-100656622D01*
X152848474Y-100656621D01*
X152829934Y-100645186D01*
X152790000Y-100631953D01*
X152682785Y-100596425D01*
X152682780Y-100596423D01*
X152663397Y-100590001D01*
X152643077Y-100587925D01*
X152570080Y-100580467D01*
X152570068Y-100580466D01*
X152560609Y-100579500D01*
X152551092Y-100579500D01*
X151758916Y-100579500D01*
X151758896Y-100579500D01*
X151749392Y-100579501D01*
X151739933Y-100580467D01*
X151739918Y-100580468D01*
X151666921Y-100587925D01*
X151666916Y-100587925D01*
X151646603Y-100590001D01*
X151627214Y-100596425D01*
X151607254Y-100600699D01*
X151606670Y-100597971D01*
X151520000Y-100611954D01*
X151433330Y-100597971D01*
X151432747Y-100600699D01*
X151412785Y-100596425D01*
X151393397Y-100590001D01*
X151373077Y-100587925D01*
X151300080Y-100580467D01*
X151300068Y-100580466D01*
X151290609Y-100579500D01*
X151281092Y-100579500D01*
X150488916Y-100579500D01*
X150488896Y-100579500D01*
X150479392Y-100579501D01*
X150469933Y-100580467D01*
X150469918Y-100580468D01*
X150396921Y-100587925D01*
X150396916Y-100587925D01*
X150376603Y-100590001D01*
X150357214Y-100596425D01*
X150337254Y-100600699D01*
X150336670Y-100597971D01*
X150250000Y-100611954D01*
X150163330Y-100597971D01*
X150162747Y-100600699D01*
X150142785Y-100596425D01*
X150123397Y-100590001D01*
X150103077Y-100587925D01*
X150030080Y-100580467D01*
X150030068Y-100580466D01*
X150020609Y-100579500D01*
X150011092Y-100579500D01*
X149218916Y-100579500D01*
X149218896Y-100579500D01*
X149209392Y-100579501D01*
X149199933Y-100580467D01*
X149199918Y-100580468D01*
X149126921Y-100587925D01*
X149126916Y-100587925D01*
X149106603Y-100590001D01*
X149087214Y-100596425D01*
X149087213Y-100596426D01*
X148960746Y-100638333D01*
X148960743Y-100638334D01*
X148940066Y-100645186D01*
X148921528Y-100656619D01*
X148921524Y-100656622D01*
X148809288Y-100725849D01*
X148809282Y-100725853D01*
X148790744Y-100737288D01*
X148775341Y-100752690D01*
X148775337Y-100752694D01*
X148682094Y-100845937D01*
X148682090Y-100845941D01*
X148666688Y-100861344D01*
X148655253Y-100879882D01*
X148655249Y-100879888D01*
X148586022Y-100992124D01*
X148586019Y-100992128D01*
X148574586Y-101010666D01*
X148567734Y-101031343D01*
X148567733Y-101031346D01*
X148525825Y-101157814D01*
X148525823Y-101157821D01*
X148519401Y-101177203D01*
X148517325Y-101197520D01*
X148517325Y-101197522D01*
X148509867Y-101270519D01*
X148509866Y-101270532D01*
X148508900Y-101279991D01*
X148508900Y-101289508D01*
X148508900Y-102086155D01*
X148502142Y-102156932D01*
X148492871Y-102205032D01*
X148492870Y-102205041D01*
X148489500Y-102222528D01*
X148489500Y-102240346D01*
X148489500Y-104203408D01*
X148489154Y-104213075D01*
X148487260Y-104224342D01*
X148487684Y-104242153D01*
X148487684Y-104242154D01*
X148489394Y-104313975D01*
X148489500Y-104322877D01*
X148489500Y-104358618D01*
X148490346Y-104367482D01*
X148490769Y-104376365D01*
X148490612Y-104376372D01*
X148491091Y-104385302D01*
X148491951Y-104421411D01*
X148491951Y-104421418D01*
X148492376Y-104439226D01*
X148496162Y-104456631D01*
X148496164Y-104456646D01*
X148496236Y-104456974D01*
X148503085Y-104500889D01*
X148503117Y-104501234D01*
X148503119Y-104501246D01*
X148504812Y-104518971D01*
X148509829Y-104536058D01*
X148520003Y-104570708D01*
X148526602Y-104596566D01*
X148538066Y-104649258D01*
X148545076Y-104665629D01*
X148545077Y-104665631D01*
X148545207Y-104665933D01*
X148560254Y-104707791D01*
X148560348Y-104708114D01*
X148560353Y-104708126D01*
X148565369Y-104725209D01*
X148573529Y-104741037D01*
X148573531Y-104741042D01*
X148590072Y-104773126D01*
X148601447Y-104797268D01*
X148622679Y-104846849D01*
X148632658Y-104861594D01*
X148632663Y-104861602D01*
X148632853Y-104861882D01*
X148655544Y-104900125D01*
X148655697Y-104900423D01*
X148655701Y-104900429D01*
X148663862Y-104916259D01*
X148674870Y-104930257D01*
X148674872Y-104930260D01*
X148697192Y-104958642D01*
X148712932Y-104980198D01*
X148743157Y-105024855D01*
X148755754Y-105037452D01*
X148755987Y-105037685D01*
X148785512Y-105070950D01*
X148785719Y-105071214D01*
X148785724Y-105071219D01*
X148796732Y-105085217D01*
X148798452Y-105086708D01*
X148856908Y-105170032D01*
X148891192Y-105276316D01*
X148892568Y-105387984D01*
X148860912Y-105495079D01*
X148799046Y-105588054D01*
X148712488Y-105658618D01*
X148608954Y-105700479D01*
X148514460Y-105708484D01*
X148514460Y-105710204D01*
X148502221Y-105710204D01*
X148490000Y-105709403D01*
X148477779Y-105710204D01*
X148412234Y-105714500D01*
X148191489Y-105728968D01*
X148191486Y-105728968D01*
X148179270Y-105729769D01*
X148167266Y-105732156D01*
X148167264Y-105732157D01*
X147885867Y-105788130D01*
X147885854Y-105788133D01*
X147873856Y-105790520D01*
X147862261Y-105794455D01*
X147862257Y-105794457D01*
X147590576Y-105886680D01*
X147590570Y-105886682D01*
X147578985Y-105890615D01*
X147568016Y-105896023D01*
X147568007Y-105896028D01*
X147310685Y-106022926D01*
X147310676Y-106022931D01*
X147299702Y-106028343D01*
X147289527Y-106035141D01*
X147289516Y-106035148D01*
X147050969Y-106194539D01*
X147050962Y-106194544D01*
X147040784Y-106201345D01*
X147031581Y-106209415D01*
X147031573Y-106209422D01*
X146815874Y-106398586D01*
X146815865Y-106398594D01*
X146806664Y-106406664D01*
X146798594Y-106415865D01*
X146798586Y-106415874D01*
X146609415Y-106631581D01*
X146609408Y-106631588D01*
X146601345Y-106640784D01*
X146594552Y-106650950D01*
X146594547Y-106650957D01*
X146435147Y-106889517D01*
X146435142Y-106889524D01*
X146428343Y-106899701D01*
X146422933Y-106910670D01*
X146422925Y-106910685D01*
X146371594Y-107014776D01*
X146296032Y-107167999D01*
X146296028Y-107168007D01*
X146290615Y-107178985D01*
X146286683Y-107190566D01*
X146286678Y-107190580D01*
X146212667Y-107408613D01*
X146190520Y-107473856D01*
X146188133Y-107485854D01*
X146188130Y-107485867D01*
X146132157Y-107767264D01*
X146129769Y-107779270D01*
X146109403Y-108090000D01*
X145290500Y-108090000D01*
X145290500Y-87952407D01*
X146619988Y-87952407D01*
X146620011Y-87958524D01*
X146620011Y-87958549D01*
X146644497Y-94275606D01*
X146644500Y-94277056D01*
X146644500Y-97236000D01*
X146650964Y-97334613D01*
X146653351Y-97346618D01*
X146653352Y-97346619D01*
X146669046Y-97425524D01*
X146669050Y-97425541D01*
X146670243Y-97431539D01*
X146671825Y-97437444D01*
X146671829Y-97437460D01*
X146684744Y-97485657D01*
X146686856Y-97493539D01*
X146731898Y-97617289D01*
X146740063Y-97631432D01*
X146740064Y-97631433D01*
X146789582Y-97717201D01*
X146789585Y-97717205D01*
X146797744Y-97731337D01*
X146882394Y-97832219D01*
X146927781Y-97877606D01*
X147028663Y-97962256D01*
X147142711Y-98028102D01*
X147266461Y-98073144D01*
X147328461Y-98089757D01*
X147425387Y-98109036D01*
X147524000Y-98115500D01*
X148844869Y-98115500D01*
X148851000Y-98115500D01*
X148949613Y-98109036D01*
X149046539Y-98089757D01*
X149108539Y-98073144D01*
X149232289Y-98028102D01*
X149346337Y-97962256D01*
X149373305Y-97939626D01*
X149461581Y-97884463D01*
X149561651Y-97855767D01*
X149665755Y-97855765D01*
X149765826Y-97884459D01*
X149843053Y-97932716D01*
X149843279Y-97932395D01*
X149849416Y-97936692D01*
X149854111Y-97939626D01*
X149869163Y-97952256D01*
X149983211Y-98018102D01*
X150106961Y-98063144D01*
X150168961Y-98079757D01*
X150265887Y-98099036D01*
X150364500Y-98105500D01*
X151415470Y-98105500D01*
X151422105Y-98105500D01*
X151528892Y-98097915D01*
X151541858Y-98095114D01*
X151541860Y-98095114D01*
X151589636Y-98084794D01*
X151596456Y-98083320D01*
X151713431Y-98076826D01*
X151749391Y-98080500D01*
X151840249Y-98080499D01*
X151863805Y-98081241D01*
X151926232Y-98085182D01*
X159251606Y-98066589D01*
X159341498Y-98077319D01*
X159426184Y-98109337D01*
X159500692Y-98160764D01*
X160733524Y-99254031D01*
X160843703Y-99335174D01*
X160881976Y-99358330D01*
X161004983Y-99418269D01*
X161136783Y-99455038D01*
X161180782Y-99463107D01*
X161317061Y-99475500D01*
X164389869Y-99475500D01*
X164396000Y-99475500D01*
X164494613Y-99469036D01*
X164591539Y-99449757D01*
X164653539Y-99433144D01*
X164777289Y-99388102D01*
X164891337Y-99322256D01*
X164992219Y-99237606D01*
X165037606Y-99192219D01*
X165122256Y-99091337D01*
X165188102Y-98977289D01*
X165233144Y-98853539D01*
X165249757Y-98791539D01*
X165269036Y-98694613D01*
X165275500Y-98596000D01*
X165275500Y-96454399D01*
X165261286Y-96308537D01*
X165252042Y-96261558D01*
X165209935Y-96121189D01*
X163383944Y-91660828D01*
X163363011Y-91590879D01*
X163356067Y-91518197D01*
X163365180Y-87946242D01*
X163358947Y-87847453D01*
X163339852Y-87750326D01*
X163323345Y-87688194D01*
X163278477Y-87564155D01*
X163212719Y-87449811D01*
X163128075Y-87348646D01*
X163093828Y-87314311D01*
X163088451Y-87308920D01*
X163088441Y-87308911D01*
X163082674Y-87303129D01*
X162981726Y-87218228D01*
X162967577Y-87210042D01*
X162967573Y-87210040D01*
X162881702Y-87160364D01*
X162881699Y-87160362D01*
X162867551Y-87152178D01*
X162852197Y-87146579D01*
X162852189Y-87146576D01*
X162765220Y-87114867D01*
X162743627Y-87106994D01*
X162735721Y-87104872D01*
X162735715Y-87104870D01*
X162687465Y-87091919D01*
X162687452Y-87091916D01*
X162681536Y-87090328D01*
X162675542Y-87089133D01*
X162675522Y-87089129D01*
X162596477Y-87073380D01*
X162584457Y-87070985D01*
X162572231Y-87070182D01*
X162572229Y-87070182D01*
X162491779Y-87064900D01*
X162491771Y-87064899D01*
X162485683Y-87064500D01*
X158394000Y-87064500D01*
X158387884Y-87064900D01*
X158387880Y-87064901D01*
X158307601Y-87070163D01*
X158307595Y-87070163D01*
X158295387Y-87070964D01*
X158283383Y-87073351D01*
X158283380Y-87073352D01*
X158204475Y-87089046D01*
X158204451Y-87089051D01*
X158198461Y-87090243D01*
X158192562Y-87091823D01*
X158192539Y-87091829D01*
X158144342Y-87104744D01*
X158144336Y-87104745D01*
X158136461Y-87106856D01*
X158128797Y-87109645D01*
X158128789Y-87109648D01*
X158028056Y-87146312D01*
X158028048Y-87146315D01*
X158012711Y-87151898D01*
X157998574Y-87160059D01*
X157992934Y-87162690D01*
X157889180Y-87193766D01*
X157780873Y-87193809D01*
X157677094Y-87162816D01*
X157670816Y-87159894D01*
X157656657Y-87151734D01*
X157635141Y-87143924D01*
X157540457Y-87109554D01*
X157540450Y-87109551D01*
X157532781Y-87106768D01*
X157524911Y-87104667D01*
X157524895Y-87104662D01*
X157481527Y-87093085D01*
X157470722Y-87090201D01*
X157464730Y-87089015D01*
X157464712Y-87089011D01*
X157385716Y-87073378D01*
X157385710Y-87073377D01*
X157373708Y-87071002D01*
X157361489Y-87070214D01*
X157361488Y-87070214D01*
X157281137Y-87065033D01*
X157281119Y-87065032D01*
X157275017Y-87064639D01*
X157268913Y-87064645D01*
X157268888Y-87064645D01*
X153054121Y-87069355D01*
X153054115Y-87069355D01*
X153048017Y-87069362D01*
X153041949Y-87069766D01*
X153041927Y-87069767D01*
X152961690Y-87075113D01*
X152961681Y-87075114D01*
X152949481Y-87075927D01*
X152937489Y-87078324D01*
X152937478Y-87078326D01*
X152858631Y-87094090D01*
X152858612Y-87094094D01*
X152852642Y-87095288D01*
X152846766Y-87096868D01*
X152846746Y-87096873D01*
X152798564Y-87109832D01*
X152798558Y-87109833D01*
X152790701Y-87111947D01*
X152783071Y-87114731D01*
X152783057Y-87114736D01*
X152703081Y-87143924D01*
X152618495Y-87164035D01*
X152531550Y-87164073D01*
X152446947Y-87144034D01*
X152366206Y-87114646D01*
X152366193Y-87114642D01*
X152358539Y-87111856D01*
X152339879Y-87106856D01*
X152302460Y-87096829D01*
X152302444Y-87096825D01*
X152296539Y-87095243D01*
X152290541Y-87094050D01*
X152290524Y-87094046D01*
X152211619Y-87078352D01*
X152211618Y-87078351D01*
X152199613Y-87075964D01*
X152187402Y-87075163D01*
X152187398Y-87075163D01*
X152107119Y-87069901D01*
X152107116Y-87069900D01*
X152101000Y-87069500D01*
X147499481Y-87069500D01*
X147493355Y-87069902D01*
X147493339Y-87069903D01*
X147412884Y-87075189D01*
X147412873Y-87075190D01*
X147400627Y-87075995D01*
X147388587Y-87078395D01*
X147388579Y-87078397D01*
X147309500Y-87094167D01*
X147309496Y-87094167D01*
X147303473Y-87095369D01*
X147297559Y-87096957D01*
X147297545Y-87096961D01*
X147249240Y-87109937D01*
X147249216Y-87109944D01*
X147241334Y-87112062D01*
X147233660Y-87114862D01*
X147233646Y-87114867D01*
X147132689Y-87151711D01*
X147132682Y-87151714D01*
X147117316Y-87157322D01*
X147103156Y-87165521D01*
X147103151Y-87165524D01*
X147017234Y-87215276D01*
X147017226Y-87215281D01*
X147003070Y-87223479D01*
X146990556Y-87234015D01*
X146990548Y-87234022D01*
X146908346Y-87303241D01*
X146908334Y-87303251D01*
X146902085Y-87308514D01*
X146896326Y-87314294D01*
X146896309Y-87314311D01*
X146862444Y-87348308D01*
X146862427Y-87348326D01*
X146856677Y-87354099D01*
X146851447Y-87360358D01*
X146851439Y-87360368D01*
X146782533Y-87442848D01*
X146782529Y-87442852D01*
X146772039Y-87455410D01*
X146763896Y-87469597D01*
X146763890Y-87469607D01*
X146714474Y-87555712D01*
X146714471Y-87555717D01*
X146706328Y-87569907D01*
X146700779Y-87585295D01*
X146700776Y-87585303D01*
X146664325Y-87686398D01*
X146664319Y-87686416D01*
X146661551Y-87694094D01*
X146659460Y-87701998D01*
X146659457Y-87702009D01*
X146646672Y-87750346D01*
X146645099Y-87756295D01*
X146643922Y-87762314D01*
X146643919Y-87762331D01*
X146628455Y-87841469D01*
X146628453Y-87841483D01*
X146626100Y-87853526D01*
X146625342Y-87865773D01*
X146625342Y-87865781D01*
X146620369Y-87946242D01*
X146619988Y-87952407D01*
X145290500Y-87952407D01*
X145290500Y-86654500D01*
X145308805Y-86538928D01*
X145361928Y-86434668D01*
X145444668Y-86351928D01*
X145548928Y-86298805D01*
X145664500Y-86280500D01*
X169915500Y-86280500D01*
X170031072Y-86298805D01*
G37*
%TD.AperFunction*%
%TD*%
D20*
X145290000Y-86280000D02*
X170290000Y-86280000D01*
X170290000Y-86280000D02*
X170290000Y-111280000D01*
X170290000Y-111280000D02*
X145290000Y-111280000D01*
X145290000Y-111280000D02*
X145290000Y-86280000D01*
M02*
