M48
; DRILL file {KiCad 7.0.1} date Tue Aug 15 21:04:58 2023
; FORMAT={-:-/ absolute / inch / decimal}
; #@! TF.CreationDate,2023-08-15T21:04:58-03:00
; #@! TF.GenerationSoftware,Kicad,Pcbnew,7.0.1
; #@! TF.FileFunction,Plated,1,2,PTH
FMAT,2
INCH
; #@! TA.AperFunction,Plated,PTH,ViaDrill
T1C0.0157
; #@! TA.AperFunction,Plated,PTH,ComponentDrill
T2C0.0300
; #@! TA.AperFunction,Plated,PTH,ComponentDrill
T3C0.0354
; #@! TA.AperFunction,Plated,PTH,ComponentDrill
T4C0.0374
; #@! TA.AperFunction,Plated,PTH,ComponentDrill
T5C0.0394
; #@! TA.AperFunction,Plated,PTH,ComponentDrill
T6C0.0591
; #@! TA.AperFunction,Plated,PTH,ComponentDrill
T7C0.1181
%
G90
G05
T1
X5.9921Y-2.7717
X6.126Y-2.1083
X6.1319Y-2.1585
X6.1909Y-2.2096
T2
X5.6299Y-4.0787
X5.8071Y-4.0787
X6.0Y-4.0787
X6.1772Y-4.0787
T3
X4.1811Y-3.435
X4.2795Y-3.435
X4.378Y-3.435
T4
X4.7047Y-3.6909
X4.8031Y-3.6909
X4.9016Y-3.6909
X5.0Y-3.6909
X5.0984Y-3.6909
X5.1516Y-1.9823
X5.1969Y-3.6909
X5.25Y-1.9823
X5.3484Y-1.9823
X6.4724Y-1.6604
X6.5551Y-3.6909
X6.5709Y-1.6604
X6.6535Y-3.6909
X6.6693Y-1.6604
X6.6693Y-1.9823
X6.752Y-3.6909
X6.7677Y-1.9823
X6.8504Y-3.6909
X6.8661Y-1.9823
X6.9488Y-3.6909
X7.0472Y-3.6909
T5
X4.1339Y-3.7559
X4.2323Y-3.7559
X6.3075Y-3.0
X6.3256Y-3.2136
X6.4075Y-3.0
X6.4256Y-3.2136
X6.5075Y-3.0
X6.5256Y-3.2136
X6.6075Y-3.0
X6.6256Y-3.2136
X6.7075Y-3.0
X6.8075Y-3.0
X6.9075Y-3.0
X7.0075Y-3.0
X7.3967Y-2.4992
X7.3967Y-2.5992
X7.3967Y-2.6992
X7.3967Y-2.7992
T6
X5.6299Y-3.9409
X5.6299Y-4.0787
X5.8071Y-3.9409
X5.8071Y-4.0787
X6.0Y-3.9409
X6.0Y-4.0787
X6.1772Y-3.9409
X6.1772Y-4.0787
T7
X4.3701Y-2.0846
X5.0039Y-4.0827
X5.0039Y-4.9882
X5.3543Y-1.3543
X5.9055Y-4.9547
X6.4567Y-1.3563
X6.8091Y-4.0866
X6.8091Y-4.9921
X7.4409Y-2.0846
T0
M30
