%TF.GenerationSoftware,KiCad,Pcbnew,7.0.1*%
%TF.CreationDate,2023-08-30T01:48:52-03:00*%
%TF.ProjectId,IOT-V2,494f542d-5632-42e6-9b69-6361645f7063,rev?*%
%TF.SameCoordinates,Original*%
%TF.FileFunction,Soldermask,Top*%
%TF.FilePolarity,Negative*%
%FSLAX46Y46*%
G04 Gerber Fmt 4.6, Leading zero omitted, Abs format (unit mm)*
G04 Created by KiCad (PCBNEW 7.0.1) date 2023-08-30 01:48:52*
%MOMM*%
%LPD*%
G01*
G04 APERTURE LIST*
G04 Aperture macros list*
%AMRoundRect*
0 Rectangle with rounded corners*
0 $1 Rounding radius*
0 $2 $3 $4 $5 $6 $7 $8 $9 X,Y pos of 4 corners*
0 Add a 4 corners polygon primitive as box body*
4,1,4,$2,$3,$4,$5,$6,$7,$8,$9,$2,$3,0*
0 Add four circle primitives for the rounded corners*
1,1,$1+$1,$2,$3*
1,1,$1+$1,$4,$5*
1,1,$1+$1,$6,$7*
1,1,$1+$1,$8,$9*
0 Add four rect primitives between the rounded corners*
20,1,$1+$1,$2,$3,$4,$5,0*
20,1,$1+$1,$4,$5,$6,$7,0*
20,1,$1+$1,$6,$7,$8,$9,0*
20,1,$1+$1,$8,$9,$2,$3,0*%
G04 Aperture macros list end*
%ADD10C,0.700000*%
%ADD11R,7.000000X3.500000*%
%ADD12C,3.000000*%
%ADD13R,1.600000X1.600000*%
%ADD14R,1.000760X0.599440*%
%ADD15RoundRect,0.218750X0.256250X-0.218750X0.256250X0.218750X-0.256250X0.218750X-0.256250X-0.218750X0*%
%ADD16RoundRect,0.225000X0.375000X-0.225000X0.375000X0.225000X-0.375000X0.225000X-0.375000X-0.225000X0*%
%ADD17R,1.500000X0.900000*%
%ADD18R,0.900000X1.500000*%
%ADD19R,0.900000X0.900000*%
%ADD20RoundRect,0.250000X-1.250000X-0.550000X1.250000X-0.550000X1.250000X0.550000X-1.250000X0.550000X0*%
%ADD21RoundRect,0.200000X-0.200000X-0.275000X0.200000X-0.275000X0.200000X0.275000X-0.200000X0.275000X0*%
%ADD22RoundRect,0.200000X-0.275000X0.200000X-0.275000X-0.200000X0.275000X-0.200000X0.275000X0.200000X0*%
%ADD23RoundRect,0.200000X0.275000X-0.200000X0.275000X0.200000X-0.275000X0.200000X-0.275000X-0.200000X0*%
%ADD24RoundRect,0.225000X-0.225000X-0.250000X0.225000X-0.250000X0.225000X0.250000X-0.225000X0.250000X0*%
%ADD25RoundRect,0.200000X0.200000X0.275000X-0.200000X0.275000X-0.200000X-0.275000X0.200000X-0.275000X0*%
%ADD26RoundRect,0.225000X-0.250000X0.225000X-0.250000X-0.225000X0.250000X-0.225000X0.250000X0.225000X0*%
%ADD27R,2.000000X1.500000*%
%ADD28R,2.000000X3.800000*%
%ADD29RoundRect,0.225000X0.250000X-0.225000X0.250000X0.225000X-0.250000X0.225000X-0.250000X-0.225000X0*%
%ADD30RoundRect,0.225000X-0.375000X0.225000X-0.375000X-0.225000X0.375000X-0.225000X0.375000X0.225000X0*%
%ADD31RoundRect,0.225000X0.225000X0.250000X-0.225000X0.250000X-0.225000X-0.250000X0.225000X-0.250000X0*%
%ADD32RoundRect,0.102000X0.975000X-0.975000X0.975000X0.975000X-0.975000X0.975000X-0.975000X-0.975000X0*%
%ADD33C,2.154000*%
%ADD34R,1.000760X1.000760*%
%ADD35RoundRect,0.150000X0.150000X-0.825000X0.150000X0.825000X-0.150000X0.825000X-0.150000X-0.825000X0*%
G04 APERTURE END LIST*
D10*
%TO.C,J7*%
X162558500Y-113400000D03*
X163178500Y-113400000D03*
X163778500Y-113400000D03*
X164398500Y-113400000D03*
X162558500Y-112800000D03*
X163178500Y-112800000D03*
X163778500Y-112800000D03*
X164398500Y-112800000D03*
D11*
X164638500Y-112540000D03*
D10*
X162538500Y-112200000D03*
X163158500Y-112200000D03*
X163758500Y-112200000D03*
X164378500Y-112200000D03*
X162558500Y-111600000D03*
X163178500Y-111600000D03*
X163778500Y-111600000D03*
X164398500Y-111600000D03*
X162558500Y-108300000D03*
X163178500Y-108300000D03*
X163778500Y-108300000D03*
X164398500Y-108300000D03*
X162558500Y-107700000D03*
X163178500Y-107700000D03*
X163778500Y-107700000D03*
X164398500Y-107700000D03*
D11*
X164638500Y-107460000D03*
D10*
X162558500Y-107100000D03*
X163178500Y-107100000D03*
X163778500Y-107100000D03*
X164398500Y-107100000D03*
X162558500Y-106500000D03*
X163178500Y-106500000D03*
X163778500Y-106500000D03*
X164398500Y-106500000D03*
%TD*%
%TO.C,J6*%
X162630000Y-95150000D03*
X163250000Y-95150000D03*
X163850000Y-95150000D03*
X164470000Y-95150000D03*
X162630000Y-94550000D03*
X163250000Y-94550000D03*
X163850000Y-94550000D03*
X164470000Y-94550000D03*
D11*
X164710000Y-94290000D03*
D10*
X162610000Y-93950000D03*
X163230000Y-93950000D03*
X163830000Y-93950000D03*
X164450000Y-93950000D03*
X162630000Y-93350000D03*
X163250000Y-93350000D03*
X163850000Y-93350000D03*
X164470000Y-93350000D03*
X162630000Y-90050000D03*
X163250000Y-90050000D03*
X163850000Y-90050000D03*
X164470000Y-90050000D03*
X162630000Y-89450000D03*
X163250000Y-89450000D03*
X163850000Y-89450000D03*
X164470000Y-89450000D03*
D11*
X164710000Y-89210000D03*
D10*
X162630000Y-88850000D03*
X163250000Y-88850000D03*
X163850000Y-88850000D03*
X164470000Y-88850000D03*
X162630000Y-88250000D03*
X163250000Y-88250000D03*
X163850000Y-88250000D03*
X164470000Y-88250000D03*
%TD*%
%TO.C,J5*%
X162630000Y-76150000D03*
X163250000Y-76150000D03*
X163850000Y-76150000D03*
X164470000Y-76150000D03*
X162630000Y-75550000D03*
X163250000Y-75550000D03*
X163850000Y-75550000D03*
X164470000Y-75550000D03*
D11*
X164710000Y-75290000D03*
D10*
X162610000Y-74950000D03*
X163230000Y-74950000D03*
X163830000Y-74950000D03*
X164450000Y-74950000D03*
X162630000Y-74350000D03*
X163250000Y-74350000D03*
X163850000Y-74350000D03*
X164470000Y-74350000D03*
X162630000Y-71050000D03*
X163250000Y-71050000D03*
X163850000Y-71050000D03*
X164470000Y-71050000D03*
X162630000Y-70450000D03*
X163250000Y-70450000D03*
X163850000Y-70450000D03*
X164470000Y-70450000D03*
D11*
X164710000Y-70210000D03*
D10*
X162630000Y-69850000D03*
X163250000Y-69850000D03*
X163850000Y-69850000D03*
X164470000Y-69850000D03*
X162630000Y-69250000D03*
X163250000Y-69250000D03*
X163850000Y-69250000D03*
X164470000Y-69250000D03*
%TD*%
%TO.C,J4*%
X162630000Y-57900000D03*
X163250000Y-57900000D03*
X163850000Y-57900000D03*
X164470000Y-57900000D03*
X162630000Y-57300000D03*
X163250000Y-57300000D03*
X163850000Y-57300000D03*
X164470000Y-57300000D03*
D11*
X164710000Y-57040000D03*
D10*
X162610000Y-56700000D03*
X163230000Y-56700000D03*
X163830000Y-56700000D03*
X164450000Y-56700000D03*
X162630000Y-56100000D03*
X163250000Y-56100000D03*
X163850000Y-56100000D03*
X164470000Y-56100000D03*
X162630000Y-52800000D03*
X163250000Y-52800000D03*
X163850000Y-52800000D03*
X164470000Y-52800000D03*
X162630000Y-52200000D03*
X163250000Y-52200000D03*
X163850000Y-52200000D03*
X164470000Y-52200000D03*
D11*
X164710000Y-51960000D03*
D10*
X162630000Y-51600000D03*
X163250000Y-51600000D03*
X163850000Y-51600000D03*
X164470000Y-51600000D03*
X162630000Y-51000000D03*
X163250000Y-51000000D03*
X163850000Y-51000000D03*
X164470000Y-51000000D03*
%TD*%
D12*
%TO.C,H1*%
X130000000Y-82250000D03*
%TD*%
D13*
%TO.C,U6*%
X127690000Y-89230000D03*
X127690000Y-91770000D03*
X135310000Y-91770000D03*
X135310000Y-89230000D03*
%TD*%
D14*
%TO.C,Q1*%
X101508360Y-74447500D03*
X103621640Y-75400000D03*
X101508360Y-76352500D03*
%TD*%
D15*
%TO.C,LED1*%
X101565000Y-84900000D03*
X101565000Y-83325000D03*
%TD*%
D16*
%TO.C,D4*%
X138500000Y-56000000D03*
X138500000Y-52700000D03*
%TD*%
D17*
%TO.C,U1*%
X97150000Y-55215000D03*
X97150000Y-57755000D03*
X97150000Y-59025000D03*
X97150000Y-56485000D03*
X97150000Y-60295000D03*
X97150000Y-61565000D03*
X97150000Y-62835000D03*
X97150000Y-64105000D03*
X97150000Y-65375000D03*
X97150000Y-66645000D03*
X97150000Y-67915000D03*
X97150000Y-69185000D03*
X97150000Y-70455000D03*
D18*
X101455000Y-71705000D03*
X110345000Y-71705000D03*
X111615000Y-71705000D03*
D17*
X114650000Y-70455000D03*
X114650000Y-69185000D03*
X114650000Y-67915000D03*
X114650000Y-66645000D03*
D18*
X102725000Y-71705000D03*
X103995000Y-71705000D03*
X105265000Y-71705000D03*
X106535000Y-71705000D03*
X107805000Y-71705000D03*
X109075000Y-71705000D03*
D17*
X114650000Y-65375000D03*
X114650000Y-64105000D03*
X114650000Y-55215000D03*
X114650000Y-62835000D03*
X114650000Y-56485000D03*
X114650000Y-59025000D03*
X114650000Y-57755000D03*
X114650000Y-60295000D03*
X97150000Y-53945000D03*
D18*
X100185000Y-71705000D03*
D19*
X103000000Y-60265000D03*
X103000000Y-61665000D03*
X103000000Y-63065000D03*
X104400000Y-60265000D03*
X104400000Y-61665000D03*
X104400000Y-63065000D03*
X105800000Y-60265000D03*
X105800000Y-61665000D03*
X105800000Y-63065000D03*
D17*
X114650000Y-53945000D03*
X114650000Y-61565000D03*
%TD*%
D14*
%TO.C,Q5*%
X134943360Y-76047500D03*
X137056640Y-77000000D03*
X134943360Y-77952500D03*
%TD*%
D20*
%TO.C,C7*%
X93570000Y-88400000D03*
X97970000Y-88400000D03*
%TD*%
D21*
%TO.C,R12*%
X123175000Y-108200000D03*
X124825000Y-108200000D03*
%TD*%
D22*
%TO.C,R1*%
X119030000Y-61100000D03*
X119030000Y-62750000D03*
%TD*%
D20*
%TO.C,C6*%
X93570000Y-106400000D03*
X97970000Y-106400000D03*
%TD*%
D21*
%TO.C,R11*%
X131175000Y-76000000D03*
X132825000Y-76000000D03*
%TD*%
%TO.C,R3*%
X107745000Y-86900000D03*
X109395000Y-86900000D03*
%TD*%
%TO.C,R16*%
X122975000Y-69200000D03*
X124625000Y-69200000D03*
%TD*%
D22*
%TO.C,R2*%
X121500000Y-61075000D03*
X121500000Y-62725000D03*
%TD*%
D23*
%TO.C,R7*%
X103400000Y-84925000D03*
X103400000Y-83275000D03*
%TD*%
D14*
%TO.C,Q4*%
X135500000Y-59000000D03*
X137613280Y-59952500D03*
X135500000Y-60905000D03*
%TD*%
D16*
%TO.C,D5*%
X138500000Y-74650000D03*
X138500000Y-71350000D03*
%TD*%
D13*
%TO.C,U5*%
X127690000Y-69230000D03*
X127690000Y-71770000D03*
X135310000Y-71770000D03*
X135310000Y-69230000D03*
%TD*%
D22*
%TO.C,R15*%
X133500000Y-114175000D03*
X133500000Y-115825000D03*
%TD*%
%TO.C,R14*%
X134000000Y-96175000D03*
X134000000Y-97825000D03*
%TD*%
D24*
%TO.C,C8*%
X98295000Y-93000000D03*
X99845000Y-93000000D03*
%TD*%
D13*
%TO.C,U4*%
X127690000Y-52230000D03*
X127690000Y-54770000D03*
X135310000Y-54770000D03*
X135310000Y-52230000D03*
%TD*%
D25*
%TO.C,R4*%
X109720000Y-90900000D03*
X108070000Y-90900000D03*
%TD*%
D12*
%TO.C,H2*%
X95000000Y-115000000D03*
%TD*%
D26*
%TO.C,C3*%
X105530000Y-99825000D03*
X105530000Y-101375000D03*
%TD*%
D27*
%TO.C,U3*%
X93620000Y-95600000D03*
X93620000Y-97900000D03*
D28*
X99920000Y-97900000D03*
D27*
X93620000Y-100200000D03*
%TD*%
D29*
%TO.C,C4*%
X95570000Y-80675000D03*
X95570000Y-79125000D03*
%TD*%
D30*
%TO.C,D1*%
X102200000Y-103150000D03*
X102200000Y-106450000D03*
%TD*%
D14*
%TO.C,Q7*%
X138556640Y-115952500D03*
X136443360Y-115000000D03*
X138556640Y-114047500D03*
%TD*%
D29*
%TO.C,C2*%
X105530000Y-106875000D03*
X105530000Y-105325000D03*
%TD*%
D16*
%TO.C,D7*%
X138500000Y-111650000D03*
X138500000Y-108350000D03*
%TD*%
D31*
%TO.C,C9*%
X95145000Y-102600000D03*
X93595000Y-102600000D03*
%TD*%
D32*
%TO.C,K7*%
X144500000Y-116000000D03*
D33*
X142500000Y-110000000D03*
X144500000Y-104000000D03*
X156700000Y-104000000D03*
X156700000Y-116000000D03*
%TD*%
D32*
%TO.C,K4*%
X144500000Y-60500000D03*
D33*
X142500000Y-54500000D03*
X144500000Y-48500000D03*
X156700000Y-48500000D03*
X156700000Y-60500000D03*
%TD*%
D32*
%TO.C,K3*%
X144500000Y-98000000D03*
D33*
X142500000Y-92000000D03*
X144500000Y-86000000D03*
X156700000Y-86000000D03*
X156700000Y-98000000D03*
%TD*%
D21*
%TO.C,R8*%
X123175000Y-52200000D03*
X124825000Y-52200000D03*
%TD*%
D13*
%TO.C,U7*%
X127690000Y-108230000D03*
X127690000Y-110770000D03*
X135310000Y-110770000D03*
X135310000Y-108230000D03*
%TD*%
D21*
%TO.C,R10*%
X123175000Y-89200000D03*
X124825000Y-89200000D03*
%TD*%
D14*
%TO.C,Q2*%
X113513360Y-74447500D03*
X115626640Y-75400000D03*
X113513360Y-76352500D03*
%TD*%
%TO.C,Q6*%
X138556640Y-97952500D03*
X136443360Y-97000000D03*
X138556640Y-96047500D03*
%TD*%
D26*
%TO.C,C5*%
X113570000Y-79125000D03*
X113570000Y-80675000D03*
%TD*%
D25*
%TO.C,R5*%
X94425000Y-76800000D03*
X92775000Y-76800000D03*
%TD*%
D32*
%TO.C,K5*%
X144500000Y-79000000D03*
D33*
X142500000Y-73000000D03*
X144500000Y-67000000D03*
X156700000Y-67000000D03*
X156700000Y-79000000D03*
%TD*%
D34*
%TO.C,SW2*%
X110570000Y-83499180D03*
X110570000Y-76300820D03*
%TD*%
D26*
%TO.C,C1*%
X94600000Y-53725000D03*
X94600000Y-55275000D03*
%TD*%
D35*
%TO.C,U2*%
X107530000Y-106375000D03*
X108800000Y-106375000D03*
X110070000Y-106375000D03*
X111340000Y-106375000D03*
X112610000Y-106375000D03*
X113880000Y-106375000D03*
X115150000Y-106375000D03*
X116420000Y-106375000D03*
X116420000Y-101425000D03*
X115150000Y-101425000D03*
X113880000Y-101425000D03*
X112610000Y-101425000D03*
X111340000Y-101425000D03*
X110070000Y-101425000D03*
X108800000Y-101425000D03*
X107530000Y-101425000D03*
%TD*%
D16*
%TO.C,D6*%
X138500000Y-93650000D03*
X138500000Y-90350000D03*
%TD*%
D21*
%TO.C,R9*%
X131731640Y-58952500D03*
X133381640Y-58952500D03*
%TD*%
D34*
%TO.C,SW1*%
X98570000Y-76300820D03*
X98570000Y-83499180D03*
%TD*%
D22*
%TO.C,R6*%
X107570000Y-79075000D03*
X107570000Y-80725000D03*
%TD*%
M02*
