M48
; DRILL file {KiCad 7.0.1} date Wed Aug 30 01:48:57 2023
; FORMAT={-:-/ absolute / inch / decimal}
; #@! TF.CreationDate,2023-08-30T01:48:57-03:00
; #@! TF.GenerationSoftware,Kicad,Pcbnew,7.0.1
; #@! TF.FileFunction,Plated,1,2,PTH
FMAT,2
INCH
; #@! TA.AperFunction,Plated,PTH,ComponentDrill
T1C0.0118
; #@! TA.AperFunction,Plated,PTH,ViaDrill
T2C0.0157
; #@! TA.AperFunction,Plated,PTH,ComponentDrill
T3C0.0217
; #@! TA.AperFunction,Plated,PTH,ComponentDrill
T4C0.0236
; #@! TA.AperFunction,Plated,PTH,ComponentDrill
T5C0.0512
; #@! TA.AperFunction,Plated,PTH,ComponentDrill
T6C0.1181
%
G90
G05
T1
X6.3992Y-4.4173
X6.3999Y-4.1929
X6.3999Y-4.2165
X6.3999Y-4.2402
X6.3999Y-4.2638
X6.3999Y-4.3937
X6.3999Y-4.4409
X6.3999Y-4.4646
X6.402Y-2.2323
X6.402Y-2.9508
X6.402Y-3.6988
X6.4028Y-2.0079
X6.4028Y-2.0315
X6.4028Y-2.0551
X6.4028Y-2.0787
X6.4028Y-2.2087
X6.4028Y-2.2559
X6.4028Y-2.2795
X6.4028Y-2.7264
X6.4028Y-2.75
X6.4028Y-2.7736
X6.4028Y-2.7972
X6.4028Y-2.9272
X6.4028Y-2.9744
X6.4028Y-2.998
X6.4028Y-3.4744
X6.4028Y-3.498
X6.4028Y-3.5217
X6.4028Y-3.5453
X6.4028Y-3.6752
X6.4028Y-3.7224
X6.4028Y-3.7461
X6.4236Y-4.4173
X6.4244Y-4.1929
X6.4244Y-4.2165
X6.4244Y-4.2402
X6.4244Y-4.2638
X6.4244Y-4.3937
X6.4244Y-4.4409
X6.4244Y-4.4646
X6.4264Y-2.2323
X6.4264Y-2.9508
X6.4264Y-3.6988
X6.4272Y-2.0079
X6.4272Y-2.0315
X6.4272Y-2.0551
X6.4272Y-2.0787
X6.4272Y-2.2087
X6.4272Y-2.2559
X6.4272Y-2.2795
X6.4272Y-2.7264
X6.4272Y-2.75
X6.4272Y-2.7736
X6.4272Y-2.7972
X6.4272Y-2.9272
X6.4272Y-2.9744
X6.4272Y-2.998
X6.4272Y-3.4744
X6.4272Y-3.498
X6.4272Y-3.5217
X6.4272Y-3.5453
X6.4272Y-3.6752
X6.4272Y-3.7224
X6.4272Y-3.7461
X6.4472Y-4.4173
X6.448Y-4.1929
X6.448Y-4.2165
X6.448Y-4.2402
X6.448Y-4.2638
X6.448Y-4.3937
X6.448Y-4.4409
X6.448Y-4.4646
X6.45Y-2.2323
X6.45Y-2.9508
X6.45Y-3.6988
X6.4508Y-2.0079
X6.4508Y-2.0315
X6.4508Y-2.0551
X6.4508Y-2.0787
X6.4508Y-2.2087
X6.4508Y-2.2559
X6.4508Y-2.2795
X6.4508Y-2.7264
X6.4508Y-2.75
X6.4508Y-2.7736
X6.4508Y-2.7972
X6.4508Y-2.9272
X6.4508Y-2.9744
X6.4508Y-2.998
X6.4508Y-3.4744
X6.4508Y-3.498
X6.4508Y-3.5217
X6.4508Y-3.5453
X6.4508Y-3.6752
X6.4508Y-3.7224
X6.4508Y-3.7461
X6.4716Y-4.4173
X6.4724Y-4.1929
X6.4724Y-4.2165
X6.4724Y-4.2402
X6.4724Y-4.2638
X6.4724Y-4.3937
X6.4724Y-4.4409
X6.4724Y-4.4646
X6.4744Y-2.2323
X6.4744Y-2.9508
X6.4744Y-3.6988
X6.4752Y-2.0079
X6.4752Y-2.0315
X6.4752Y-2.0551
X6.4752Y-2.0787
X6.4752Y-2.2087
X6.4752Y-2.2559
X6.4752Y-2.2795
X6.4752Y-2.7264
X6.4752Y-2.75
X6.4752Y-2.7736
X6.4752Y-2.7972
X6.4752Y-2.9272
X6.4752Y-2.9744
X6.4752Y-2.998
X6.4752Y-3.4744
X6.4752Y-3.498
X6.4752Y-3.5217
X6.4752Y-3.5453
X6.4752Y-3.6752
X6.4752Y-3.7224
X6.4752Y-3.7461
T2
X3.6024Y-4.0354
X3.7992Y-3.0512
X3.937Y-3.7323
X4.2126Y-3.8976
X4.2362Y-3.2283
X4.252Y-3.3268
X4.2559Y-4.4724
X4.2835Y-4.2756
X4.3189Y-3.5315
X4.3346Y-4.2756
X4.4331Y-4.2756
X4.5512Y-2.9134
X4.6902Y-2.56
X4.7835Y-2.56
T5
X5.6102Y-2.1457
X5.6102Y-2.874
X5.6102Y-3.622
X5.6102Y-4.3307
X5.689Y-1.9094
X5.689Y-2.3819
X5.689Y-2.6378
X5.689Y-3.1102
X5.689Y-3.3858
X5.689Y-3.8583
X5.689Y-4.0945
X5.689Y-4.5669
X6.1693Y-1.9094
X6.1693Y-2.3819
X6.1693Y-2.6378
X6.1693Y-3.1102
X6.1693Y-3.3858
X6.1693Y-3.8583
X6.1693Y-4.0945
X6.1693Y-4.5669
X6.5425Y-4.2307
X6.5425Y-4.4307
X6.5453Y-2.0457
X6.5453Y-2.2457
X6.5453Y-2.7642
X6.5453Y-2.9642
X6.5453Y-3.5122
X6.5453Y-3.7122
T6
X3.7402Y-4.5276
X5.1181Y-3.2382
T3
G00X4.065Y-4.6329
M15
G01X4.065Y-4.6585
M16
G05
G00X4.3425Y-4.6329
M15
G01X4.3425Y-4.6585
M16
G05
T4
G00X4.0994Y-4.5394
M15
G01X4.1112Y-4.5394
M16
G05
G00X4.2963Y-4.5394
M15
G01X4.3081Y-4.5394
M16
G05
T0
M30
