%TF.GenerationSoftware,KiCad,Pcbnew,7.0.1*%
%TF.CreationDate,2023-08-30T01:48:52-03:00*%
%TF.ProjectId,IOT-V2,494f542d-5632-42e6-9b69-6361645f7063,rev?*%
%TF.SameCoordinates,Original*%
%TF.FileFunction,Copper,L2,Bot*%
%TF.FilePolarity,Positive*%
%FSLAX46Y46*%
G04 Gerber Fmt 4.6, Leading zero omitted, Abs format (unit mm)*
G04 Created by KiCad (PCBNEW 7.0.1) date 2023-08-30 01:48:52*
%MOMM*%
%LPD*%
G01*
G04 APERTURE LIST*
%TA.AperFunction,ComponentPad*%
%ADD10C,0.700000*%
%TD*%
%TA.AperFunction,ComponentPad*%
%ADD11R,7.000000X3.500000*%
%TD*%
%TA.AperFunction,ComponentPad*%
%ADD12R,1.950000X1.950000*%
%TD*%
%TA.AperFunction,ComponentPad*%
%ADD13C,1.950000*%
%TD*%
%TA.AperFunction,ComponentPad*%
%ADD14O,1.600000X0.800000*%
%TD*%
%TA.AperFunction,ComponentPad*%
%ADD15O,0.750000X1.500000*%
%TD*%
%TA.AperFunction,ViaPad*%
%ADD16C,0.800000*%
%TD*%
%TA.AperFunction,Conductor*%
%ADD17C,0.800000*%
%TD*%
%TA.AperFunction,Conductor*%
%ADD18C,1.000000*%
%TD*%
%TA.AperFunction,Conductor*%
%ADD19C,2.000000*%
%TD*%
%TA.AperFunction,Conductor*%
%ADD20C,0.500000*%
%TD*%
G04 APERTURE END LIST*
D10*
%TO.P,J7,1*%
%TO.N,Net-(J7-Pad1)*%
X162558500Y-113400000D03*
X163178500Y-113400000D03*
X163778500Y-113400000D03*
X164398500Y-113400000D03*
X162558500Y-112800000D03*
X163178500Y-112800000D03*
X163778500Y-112800000D03*
X164398500Y-112800000D03*
D11*
X164638500Y-112540000D03*
D10*
X162538500Y-112200000D03*
X163158500Y-112200000D03*
X163758500Y-112200000D03*
X164378500Y-112200000D03*
X162558500Y-111600000D03*
X163178500Y-111600000D03*
X163778500Y-111600000D03*
X164398500Y-111600000D03*
%TO.P,J7,2*%
%TO.N,Net-(J7-Pad2)*%
X162558500Y-108300000D03*
X163178500Y-108300000D03*
X163778500Y-108300000D03*
X164398500Y-108300000D03*
X162558500Y-107700000D03*
X163178500Y-107700000D03*
X163778500Y-107700000D03*
X164398500Y-107700000D03*
D11*
X164638500Y-107460000D03*
D10*
X162558500Y-107100000D03*
X163178500Y-107100000D03*
X163778500Y-107100000D03*
X164398500Y-107100000D03*
X162558500Y-106500000D03*
X163178500Y-106500000D03*
X163778500Y-106500000D03*
X164398500Y-106500000D03*
%TD*%
%TO.P,J6,1*%
%TO.N,Net-(J6-Pad1)*%
X162630000Y-95150000D03*
X163250000Y-95150000D03*
X163850000Y-95150000D03*
X164470000Y-95150000D03*
X162630000Y-94550000D03*
X163250000Y-94550000D03*
X163850000Y-94550000D03*
X164470000Y-94550000D03*
D11*
X164710000Y-94290000D03*
D10*
X162610000Y-93950000D03*
X163230000Y-93950000D03*
X163830000Y-93950000D03*
X164450000Y-93950000D03*
X162630000Y-93350000D03*
X163250000Y-93350000D03*
X163850000Y-93350000D03*
X164470000Y-93350000D03*
%TO.P,J6,2*%
%TO.N,Net-(J6-Pad2)*%
X162630000Y-90050000D03*
X163250000Y-90050000D03*
X163850000Y-90050000D03*
X164470000Y-90050000D03*
X162630000Y-89450000D03*
X163250000Y-89450000D03*
X163850000Y-89450000D03*
X164470000Y-89450000D03*
D11*
X164710000Y-89210000D03*
D10*
X162630000Y-88850000D03*
X163250000Y-88850000D03*
X163850000Y-88850000D03*
X164470000Y-88850000D03*
X162630000Y-88250000D03*
X163250000Y-88250000D03*
X163850000Y-88250000D03*
X164470000Y-88250000D03*
%TD*%
%TO.P,J5,1*%
%TO.N,Net-(J5-Pad1)*%
X162630000Y-76150000D03*
X163250000Y-76150000D03*
X163850000Y-76150000D03*
X164470000Y-76150000D03*
X162630000Y-75550000D03*
X163250000Y-75550000D03*
X163850000Y-75550000D03*
X164470000Y-75550000D03*
D11*
X164710000Y-75290000D03*
D10*
X162610000Y-74950000D03*
X163230000Y-74950000D03*
X163830000Y-74950000D03*
X164450000Y-74950000D03*
X162630000Y-74350000D03*
X163250000Y-74350000D03*
X163850000Y-74350000D03*
X164470000Y-74350000D03*
%TO.P,J5,2*%
%TO.N,Net-(J5-Pad2)*%
X162630000Y-71050000D03*
X163250000Y-71050000D03*
X163850000Y-71050000D03*
X164470000Y-71050000D03*
X162630000Y-70450000D03*
X163250000Y-70450000D03*
X163850000Y-70450000D03*
X164470000Y-70450000D03*
D11*
X164710000Y-70210000D03*
D10*
X162630000Y-69850000D03*
X163250000Y-69850000D03*
X163850000Y-69850000D03*
X164470000Y-69850000D03*
X162630000Y-69250000D03*
X163250000Y-69250000D03*
X163850000Y-69250000D03*
X164470000Y-69250000D03*
%TD*%
%TO.P,J4,1*%
%TO.N,Net-(J4-Pad1)*%
X162630000Y-57900000D03*
X163250000Y-57900000D03*
X163850000Y-57900000D03*
X164470000Y-57900000D03*
X162630000Y-57300000D03*
X163250000Y-57300000D03*
X163850000Y-57300000D03*
X164470000Y-57300000D03*
D11*
X164710000Y-57040000D03*
D10*
X162610000Y-56700000D03*
X163230000Y-56700000D03*
X163830000Y-56700000D03*
X164450000Y-56700000D03*
X162630000Y-56100000D03*
X163250000Y-56100000D03*
X163850000Y-56100000D03*
X164470000Y-56100000D03*
%TO.P,J4,2*%
%TO.N,Net-(J4-Pad2)*%
X162630000Y-52800000D03*
X163250000Y-52800000D03*
X163850000Y-52800000D03*
X164470000Y-52800000D03*
X162630000Y-52200000D03*
X163250000Y-52200000D03*
X163850000Y-52200000D03*
X164470000Y-52200000D03*
D11*
X164710000Y-51960000D03*
D10*
X162630000Y-51600000D03*
X163250000Y-51600000D03*
X163850000Y-51600000D03*
X164470000Y-51600000D03*
X162630000Y-51000000D03*
X163250000Y-51000000D03*
X163850000Y-51000000D03*
X164470000Y-51000000D03*
%TD*%
D12*
%TO.P,K7,1*%
%TO.N,Net-(D7-A)*%
X144500000Y-116000000D03*
D13*
%TO.P,K7,2*%
%TO.N,Net-(J7-Pad2)*%
X142500000Y-110000000D03*
%TO.P,K7,3*%
%TO.N,+5V*%
X144500000Y-104000000D03*
%TO.P,K7,4*%
%TO.N,Net-(J7-Pad2)*%
X156700000Y-104000000D03*
%TO.P,K7,5*%
%TO.N,Net-(J7-Pad1)*%
X156700000Y-116000000D03*
%TD*%
D12*
%TO.P,K4,1*%
%TO.N,Net-(D4-A)*%
X144500000Y-60500000D03*
D13*
%TO.P,K4,2*%
%TO.N,Net-(J4-Pad2)*%
X142500000Y-54500000D03*
%TO.P,K4,3*%
%TO.N,+5V*%
X144500000Y-48500000D03*
%TO.P,K4,4*%
%TO.N,Net-(J4-Pad2)*%
X156700000Y-48500000D03*
%TO.P,K4,5*%
%TO.N,Net-(J4-Pad1)*%
X156700000Y-60500000D03*
%TD*%
D12*
%TO.P,K3,1*%
%TO.N,Net-(D6-A)*%
X144500000Y-98000000D03*
D13*
%TO.P,K3,2*%
%TO.N,Net-(J6-Pad2)*%
X142500000Y-92000000D03*
%TO.P,K3,3*%
%TO.N,+5V*%
X144500000Y-86000000D03*
%TO.P,K3,4*%
%TO.N,Net-(J6-Pad2)*%
X156700000Y-86000000D03*
%TO.P,K3,5*%
%TO.N,Net-(J6-Pad1)*%
X156700000Y-98000000D03*
%TD*%
D12*
%TO.P,K5,1*%
%TO.N,Net-(D5-A)*%
X144500000Y-79000000D03*
D13*
%TO.P,K5,2*%
%TO.N,Net-(J5-Pad2)*%
X142500000Y-73000000D03*
%TO.P,K5,3*%
%TO.N,+5V*%
X144500000Y-67000000D03*
%TO.P,K5,4*%
%TO.N,Net-(J5-Pad2)*%
X156700000Y-67000000D03*
%TO.P,K5,5*%
%TO.N,Net-(J5-Pad1)*%
X156700000Y-79000000D03*
%TD*%
D14*
%TO.P,J1,S1,SHIELD*%
%TO.N,GND*%
X104275000Y-115300000D03*
%TO.P,J1,S2,SHIELD*%
X109275000Y-115300000D03*
D15*
%TO.P,J1,S3,SHIELD*%
X103250000Y-118000000D03*
%TO.P,J1,S6,SHIELD*%
X110300000Y-118000000D03*
%TD*%
D16*
%TO.N,GND*%
X108000000Y-84500000D03*
X107000000Y-99000000D03*
X96500000Y-77500000D03*
%TO.N,+3V3*%
X100000000Y-94800000D03*
X107600000Y-82000000D03*
%TO.N,+5V*%
X91500000Y-102500000D03*
%TO.N,Net-(Q2-B)*%
X109700000Y-89700000D03*
X115600000Y-74000000D03*
%TO.N,/D+*%
X112600000Y-108600000D03*
X108100000Y-113600000D03*
%TO.N,Net-(U2-TXD)*%
X108800000Y-108600000D03*
X119130000Y-65025000D03*
%TO.N,Net-(U2-RXD)*%
X110100000Y-108600000D03*
X121500000Y-65025000D03*
%TD*%
D17*
%TO.N,+3V3*%
X102800000Y-82000000D02*
X100000000Y-84800000D01*
X100000000Y-84800000D02*
X100000000Y-94800000D01*
X107600000Y-82000000D02*
X102800000Y-82000000D01*
D18*
%TO.N,+5V*%
X91500000Y-80000000D02*
X123000000Y-48500000D01*
X91500000Y-102500000D02*
X91500000Y-80000000D01*
X123000000Y-48500000D02*
X144500000Y-48500000D01*
D19*
%TO.N,Net-(J4-Pad1)*%
X157300000Y-57300000D02*
X165513750Y-57300000D01*
X156700000Y-57900000D02*
X157300000Y-57300000D01*
X156700000Y-60500000D02*
X156700000Y-57900000D01*
%TO.N,Net-(J4-Pad2)*%
X157260000Y-51960000D02*
X152240000Y-51960000D01*
X156700000Y-50660000D02*
X156700000Y-48500000D01*
X149700000Y-54500000D02*
X142500000Y-54500000D01*
X152240000Y-51960000D02*
X149700000Y-54500000D01*
X158000000Y-51960000D02*
X156700000Y-50660000D01*
X165773750Y-51960000D02*
X157260000Y-51960000D01*
X157260000Y-51960000D02*
X158000000Y-51960000D01*
%TO.N,Net-(J5-Pad1)*%
X156700000Y-76400000D02*
X156700000Y-79000000D01*
X157300000Y-75800000D02*
X156700000Y-76400000D01*
X162153750Y-75800000D02*
X157300000Y-75800000D01*
%TO.N,Net-(J5-Pad2)*%
X156700000Y-68800000D02*
X156700000Y-67000000D01*
X158000000Y-70100000D02*
X156700000Y-68800000D01*
X152600000Y-70100000D02*
X149700000Y-73000000D01*
X158000000Y-70100000D02*
X152600000Y-70100000D01*
X149700000Y-73000000D02*
X142500000Y-73000000D01*
X163993750Y-70100000D02*
X158000000Y-70100000D01*
D17*
%TO.N,Net-(Q2-B)*%
X109800000Y-89800000D02*
X109700000Y-89700000D01*
X115600000Y-74000000D02*
X115600000Y-87200000D01*
X113000000Y-89800000D02*
X109800000Y-89800000D01*
X115600000Y-87200000D02*
X113000000Y-89800000D01*
D20*
%TO.N,/D+*%
X112600000Y-112000000D02*
X112600000Y-108600000D01*
X108100000Y-113600000D02*
X111000000Y-113600000D01*
X111000000Y-113600000D02*
X112600000Y-112000000D01*
D17*
%TO.N,Net-(U2-TXD)*%
X119130000Y-65025000D02*
X119000000Y-65155000D01*
X119000000Y-65155000D02*
X119000000Y-94400000D01*
X108800000Y-104600000D02*
X108800000Y-108600000D01*
X119000000Y-94400000D02*
X108800000Y-104600000D01*
%TO.N,Net-(U2-RXD)*%
X121500000Y-94600000D02*
X110100000Y-106000000D01*
X110100000Y-106000000D02*
X110100000Y-108600000D01*
X121500000Y-65025000D02*
X121500000Y-94600000D01*
D19*
%TO.N,Net-(J6-Pad1)*%
X156700000Y-95300000D02*
X156700000Y-98000000D01*
X157460000Y-94540000D02*
X156700000Y-95300000D01*
X165780000Y-94540000D02*
X157460000Y-94540000D01*
%TO.N,Net-(J6-Pad2)*%
X150500000Y-92000000D02*
X142500000Y-92000000D01*
X157100000Y-89100000D02*
X153400000Y-89100000D01*
X153400000Y-89100000D02*
X150500000Y-92000000D01*
X157100000Y-89100000D02*
X156700000Y-88700000D01*
X162780000Y-89100000D02*
X157100000Y-89100000D01*
X156700000Y-88700000D02*
X156700000Y-86000000D01*
%TO.N,Net-(J7-Pad1)*%
X157500000Y-112500000D02*
X165733750Y-112500000D01*
X156700000Y-113300000D02*
X157500000Y-112500000D01*
X156700000Y-116000000D02*
X156700000Y-113300000D01*
%TO.N,Net-(J7-Pad2)*%
X157500000Y-106500000D02*
X154000000Y-106500000D01*
X150500000Y-110000000D02*
X142500000Y-110000000D01*
X165773750Y-107460000D02*
X158460000Y-107460000D01*
X154000000Y-106500000D02*
X150500000Y-110000000D01*
X158460000Y-107460000D02*
X157500000Y-106500000D01*
X157500000Y-106500000D02*
X156700000Y-105700000D01*
X156700000Y-105700000D02*
X156700000Y-104000000D01*
%TD*%
%TA.AperFunction,Conductor*%
%TO.N,GND*%
G36*
X165002562Y-45000605D02*
G01*
X165217600Y-45009500D01*
X165413455Y-45018052D01*
X165423330Y-45018881D01*
X165636706Y-45045479D01*
X165636793Y-45045490D01*
X165834945Y-45071577D01*
X165844192Y-45073153D01*
X166053521Y-45117044D01*
X166054765Y-45117312D01*
X166250386Y-45160680D01*
X166258901Y-45162889D01*
X166463665Y-45223850D01*
X166465325Y-45224359D01*
X166656696Y-45284698D01*
X166664453Y-45287431D01*
X166863363Y-45365046D01*
X166865513Y-45365911D01*
X167051024Y-45442752D01*
X167057972Y-45445886D01*
X167225903Y-45527982D01*
X167249587Y-45539561D01*
X167252383Y-45540972D01*
X167430420Y-45633652D01*
X167436636Y-45637118D01*
X167619793Y-45746255D01*
X167622929Y-45748187D01*
X167686491Y-45788681D01*
X167792282Y-45856078D01*
X167797710Y-45859741D01*
X167971184Y-45983599D01*
X167974616Y-45986140D01*
X168133912Y-46108372D01*
X168138567Y-46112126D01*
X168301226Y-46249891D01*
X168304838Y-46253072D01*
X168452925Y-46388769D01*
X168456807Y-46392486D01*
X168607512Y-46543191D01*
X168611232Y-46547076D01*
X168746921Y-46695155D01*
X168750107Y-46698772D01*
X168887872Y-46861431D01*
X168891626Y-46866086D01*
X169013858Y-47025382D01*
X169016399Y-47028814D01*
X169140257Y-47202288D01*
X169143920Y-47207716D01*
X169251800Y-47377052D01*
X169253743Y-47380205D01*
X169362880Y-47563362D01*
X169366346Y-47569578D01*
X169459026Y-47747615D01*
X169460437Y-47750411D01*
X169554099Y-47941997D01*
X169557260Y-47949005D01*
X169634051Y-48134395D01*
X169635008Y-48136774D01*
X169712559Y-48335523D01*
X169715302Y-48343309D01*
X169775602Y-48534554D01*
X169776186Y-48536460D01*
X169837105Y-48741084D01*
X169839321Y-48749627D01*
X169882671Y-48945166D01*
X169882971Y-48946559D01*
X169926844Y-49155802D01*
X169928422Y-49165062D01*
X169954459Y-49362829D01*
X169954568Y-49363677D01*
X169981114Y-49576641D01*
X169981948Y-49586570D01*
X169990513Y-49782728D01*
X169990525Y-49783013D01*
X169999394Y-49997438D01*
X169999500Y-50002562D01*
X169999500Y-114997438D01*
X169999394Y-115002563D01*
X169990525Y-115216987D01*
X169990513Y-115217271D01*
X169981948Y-115413428D01*
X169981114Y-115423357D01*
X169954568Y-115636321D01*
X169954459Y-115637169D01*
X169928422Y-115834936D01*
X169926844Y-115844196D01*
X169882971Y-116053439D01*
X169882671Y-116054832D01*
X169839321Y-116250371D01*
X169837105Y-116258914D01*
X169776186Y-116463538D01*
X169775602Y-116465444D01*
X169715302Y-116656689D01*
X169712559Y-116664475D01*
X169635008Y-116863224D01*
X169634051Y-116865603D01*
X169557260Y-117050993D01*
X169554099Y-117058001D01*
X169460437Y-117249587D01*
X169459026Y-117252383D01*
X169366346Y-117430420D01*
X169362880Y-117436636D01*
X169253743Y-117619793D01*
X169251800Y-117622946D01*
X169143920Y-117792282D01*
X169140257Y-117797710D01*
X169016399Y-117971184D01*
X169013858Y-117974616D01*
X168891626Y-118133912D01*
X168887872Y-118138567D01*
X168750107Y-118301226D01*
X168746908Y-118304858D01*
X168611254Y-118452899D01*
X168607512Y-118456807D01*
X168456807Y-118607512D01*
X168452899Y-118611254D01*
X168304858Y-118746908D01*
X168301226Y-118750107D01*
X168138567Y-118887872D01*
X168133912Y-118891626D01*
X167974616Y-119013858D01*
X167971184Y-119016399D01*
X167797710Y-119140257D01*
X167792282Y-119143920D01*
X167622946Y-119251800D01*
X167619793Y-119253743D01*
X167436636Y-119362880D01*
X167430420Y-119366346D01*
X167252383Y-119459026D01*
X167249587Y-119460437D01*
X167058001Y-119554099D01*
X167050993Y-119557260D01*
X166865603Y-119634051D01*
X166863224Y-119635008D01*
X166664475Y-119712559D01*
X166656689Y-119715302D01*
X166465444Y-119775602D01*
X166463538Y-119776186D01*
X166258914Y-119837105D01*
X166250371Y-119839321D01*
X166054832Y-119882671D01*
X166053439Y-119882971D01*
X165844196Y-119926844D01*
X165834936Y-119928422D01*
X165637169Y-119954459D01*
X165636321Y-119954568D01*
X165423357Y-119981114D01*
X165413428Y-119981948D01*
X165217381Y-119990508D01*
X165217097Y-119990520D01*
X165002563Y-119999394D01*
X164997438Y-119999500D01*
X95002562Y-119999500D01*
X94997437Y-119999394D01*
X94782901Y-119990520D01*
X94782617Y-119990508D01*
X94586570Y-119981948D01*
X94576641Y-119981114D01*
X94363677Y-119954568D01*
X94362829Y-119954459D01*
X94165062Y-119928422D01*
X94155802Y-119926844D01*
X93946559Y-119882971D01*
X93945166Y-119882671D01*
X93749627Y-119839321D01*
X93741084Y-119837105D01*
X93536460Y-119776186D01*
X93534554Y-119775602D01*
X93343309Y-119715302D01*
X93335523Y-119712559D01*
X93206985Y-119662404D01*
X93136734Y-119634991D01*
X93134395Y-119634051D01*
X92949005Y-119557260D01*
X92941997Y-119554099D01*
X92750411Y-119460437D01*
X92747615Y-119459026D01*
X92569578Y-119366346D01*
X92563362Y-119362880D01*
X92380205Y-119253743D01*
X92377052Y-119251800D01*
X92207716Y-119143920D01*
X92202288Y-119140257D01*
X92028814Y-119016399D01*
X92025382Y-119013858D01*
X91866086Y-118891626D01*
X91861431Y-118887872D01*
X91698772Y-118750107D01*
X91695155Y-118746921D01*
X91547076Y-118611232D01*
X91543191Y-118607512D01*
X91392486Y-118456807D01*
X91388769Y-118452925D01*
X91253072Y-118304838D01*
X91249891Y-118301226D01*
X91248853Y-118300000D01*
X102275000Y-118300000D01*
X102275000Y-118424443D01*
X102290033Y-118572278D01*
X102349396Y-118761480D01*
X102445628Y-118934859D01*
X102574792Y-119085317D01*
X102731597Y-119206693D01*
X102909630Y-119294022D01*
X102950000Y-119304474D01*
X102950000Y-118300000D01*
X103550000Y-118300000D01*
X103550000Y-119303613D01*
X103681596Y-119254875D01*
X103849883Y-119149980D01*
X103993602Y-119013364D01*
X104106883Y-118850610D01*
X104185082Y-118668384D01*
X104225000Y-118474147D01*
X104225000Y-118300000D01*
X109325000Y-118300000D01*
X109325000Y-118424443D01*
X109340033Y-118572278D01*
X109399396Y-118761480D01*
X109495628Y-118934859D01*
X109624792Y-119085317D01*
X109781597Y-119206693D01*
X109959630Y-119294022D01*
X110000000Y-119304474D01*
X110000000Y-118300000D01*
X110600000Y-118300000D01*
X110600000Y-119303613D01*
X110731596Y-119254875D01*
X110899883Y-119149980D01*
X111043602Y-119013364D01*
X111156883Y-118850610D01*
X111235082Y-118668384D01*
X111275000Y-118474147D01*
X111275000Y-118300000D01*
X110600000Y-118300000D01*
X110000000Y-118300000D01*
X109325000Y-118300000D01*
X104225000Y-118300000D01*
X103550000Y-118300000D01*
X102950000Y-118300000D01*
X102275000Y-118300000D01*
X91248853Y-118300000D01*
X91112126Y-118138567D01*
X91108372Y-118133912D01*
X90986140Y-117974616D01*
X90983599Y-117971184D01*
X90859741Y-117797710D01*
X90856078Y-117792282D01*
X90797287Y-117700000D01*
X102275000Y-117700000D01*
X102950000Y-117700000D01*
X102950000Y-116696388D01*
X102949999Y-116696386D01*
X102818403Y-116745124D01*
X102650116Y-116850019D01*
X102506397Y-116986635D01*
X102393116Y-117149389D01*
X102314917Y-117331615D01*
X102275000Y-117525853D01*
X102275000Y-117700000D01*
X90797287Y-117700000D01*
X90748198Y-117622946D01*
X90746255Y-117619793D01*
X90637118Y-117436636D01*
X90633652Y-117430420D01*
X90540972Y-117252383D01*
X90539561Y-117249587D01*
X90527982Y-117225903D01*
X90445886Y-117057972D01*
X90442752Y-117051024D01*
X90365911Y-116865513D01*
X90365046Y-116863363D01*
X90287431Y-116664453D01*
X90284696Y-116656689D01*
X90277288Y-116633193D01*
X90224359Y-116465325D01*
X90223850Y-116463665D01*
X90162889Y-116258901D01*
X90160680Y-116250386D01*
X90117312Y-116054765D01*
X90117027Y-116053439D01*
X90111495Y-116027057D01*
X90073153Y-115844192D01*
X90071576Y-115834936D01*
X90071149Y-115831692D01*
X90045490Y-115636793D01*
X90045483Y-115636743D01*
X90018881Y-115423330D01*
X90018052Y-115413455D01*
X90009486Y-115217271D01*
X90006442Y-115143678D01*
X92899500Y-115143678D01*
X92938628Y-115428355D01*
X92938629Y-115428358D01*
X92997029Y-115636793D01*
X93016157Y-115705060D01*
X93130637Y-115968622D01*
X93130639Y-115968625D01*
X93258483Y-116178855D01*
X93279946Y-116214148D01*
X93461288Y-116437049D01*
X93461291Y-116437051D01*
X93461292Y-116437053D01*
X93671302Y-116633189D01*
X93671304Y-116633191D01*
X93671307Y-116633193D01*
X93906060Y-116798899D01*
X93906064Y-116798901D01*
X94161203Y-116931104D01*
X94317452Y-116986635D01*
X94431968Y-117027334D01*
X94613901Y-117065140D01*
X94713314Y-117085798D01*
X94928248Y-117100500D01*
X95071751Y-117100500D01*
X95071752Y-117100500D01*
X95286686Y-117085798D01*
X95568032Y-117027334D01*
X95838797Y-116931104D01*
X96093936Y-116798901D01*
X96101863Y-116793306D01*
X96240387Y-116695525D01*
X103550000Y-116695525D01*
X103550000Y-117700000D01*
X104225000Y-117700000D01*
X109325000Y-117700000D01*
X110000000Y-117700000D01*
X110000000Y-116696388D01*
X109999999Y-116696386D01*
X109868403Y-116745124D01*
X109700116Y-116850019D01*
X109556397Y-116986635D01*
X109443116Y-117149389D01*
X109364917Y-117331615D01*
X109325000Y-117525853D01*
X109325000Y-117700000D01*
X104225000Y-117700000D01*
X104225000Y-117575557D01*
X104209966Y-117427721D01*
X104150603Y-117238519D01*
X104054371Y-117065140D01*
X103925207Y-116914682D01*
X103768402Y-116793306D01*
X103590369Y-116705977D01*
X103550000Y-116695525D01*
X110600000Y-116695525D01*
X110600000Y-117700000D01*
X111275000Y-117700000D01*
X111275000Y-117575557D01*
X111259966Y-117427721D01*
X111200603Y-117238519D01*
X111104371Y-117065140D01*
X111060780Y-117014362D01*
X142924500Y-117014362D01*
X142939955Y-117131760D01*
X143000464Y-117277841D01*
X143096717Y-117403282D01*
X143222158Y-117499535D01*
X143222159Y-117499536D01*
X143368238Y-117560044D01*
X143485639Y-117575500D01*
X145514360Y-117575499D01*
X145514362Y-117575499D01*
X145573061Y-117567771D01*
X145631762Y-117560044D01*
X145777841Y-117499536D01*
X145903282Y-117403282D01*
X145999536Y-117277841D01*
X146060044Y-117131762D01*
X146075500Y-117014361D01*
X146075499Y-114985640D01*
X146070926Y-114950904D01*
X146060044Y-114868239D01*
X146060044Y-114868238D01*
X145999536Y-114722159D01*
X145951788Y-114659932D01*
X145903282Y-114596717D01*
X145777840Y-114500463D01*
X145631762Y-114439956D01*
X145514362Y-114424500D01*
X143485637Y-114424500D01*
X143368239Y-114439955D01*
X143222158Y-114500464D01*
X143096717Y-114596717D01*
X143000463Y-114722159D01*
X142939956Y-114868237D01*
X142924500Y-114985637D01*
X142924500Y-117014362D01*
X111060780Y-117014362D01*
X110975207Y-116914682D01*
X110818402Y-116793306D01*
X110640369Y-116705977D01*
X110600000Y-116695525D01*
X103550000Y-116695525D01*
X96240387Y-116695525D01*
X96328698Y-116633189D01*
X96538708Y-116437053D01*
X96720055Y-116214147D01*
X96869361Y-115968625D01*
X96983844Y-115705058D01*
X97013280Y-115600000D01*
X102919728Y-115600000D01*
X102972564Y-115742664D01*
X103080145Y-115915263D01*
X103220266Y-116062669D01*
X103387194Y-116178855D01*
X103574092Y-116259059D01*
X103773311Y-116300000D01*
X103975000Y-116300000D01*
X103975000Y-115600000D01*
X104575000Y-115600000D01*
X104575000Y-116300000D01*
X104725710Y-116300000D01*
X104877339Y-116284580D01*
X105071389Y-116223696D01*
X105249214Y-116124996D01*
X105403531Y-115992520D01*
X105528021Y-115831692D01*
X105617588Y-115649095D01*
X105630300Y-115600000D01*
X107919728Y-115600000D01*
X107972564Y-115742664D01*
X108080145Y-115915263D01*
X108220266Y-116062669D01*
X108387194Y-116178855D01*
X108574092Y-116259059D01*
X108773311Y-116300000D01*
X108975000Y-116300000D01*
X108975000Y-115600000D01*
X109575000Y-115600000D01*
X109575000Y-116300000D01*
X109725710Y-116300000D01*
X109877339Y-116284580D01*
X110071389Y-116223696D01*
X110249214Y-116124996D01*
X110403531Y-115992520D01*
X110528021Y-115831692D01*
X110617588Y-115649095D01*
X110630300Y-115600000D01*
X109575000Y-115600000D01*
X108975000Y-115600000D01*
X107919728Y-115600000D01*
X105630300Y-115600000D01*
X104575000Y-115600000D01*
X103975000Y-115600000D01*
X102919728Y-115600000D01*
X97013280Y-115600000D01*
X97061371Y-115428358D01*
X97100500Y-115143678D01*
X97100500Y-115000000D01*
X102919699Y-115000000D01*
X103975000Y-115000000D01*
X103975000Y-114300000D01*
X104575000Y-114300000D01*
X104575000Y-115000000D01*
X105630272Y-115000000D01*
X105577435Y-114857335D01*
X105469854Y-114684736D01*
X105329733Y-114537330D01*
X105162805Y-114421144D01*
X104975907Y-114340940D01*
X104776689Y-114300000D01*
X104575000Y-114300000D01*
X103975000Y-114300000D01*
X103824290Y-114300000D01*
X103672660Y-114315419D01*
X103478610Y-114376303D01*
X103300785Y-114475003D01*
X103146468Y-114607479D01*
X103021978Y-114768307D01*
X102932411Y-114950904D01*
X102919699Y-114999999D01*
X102919699Y-115000000D01*
X97100500Y-115000000D01*
X97100500Y-114856322D01*
X97061371Y-114571642D01*
X96983844Y-114294942D01*
X96869361Y-114031375D01*
X96720055Y-113785853D01*
X96568853Y-113600000D01*
X107094659Y-113600000D01*
X107113976Y-113796133D01*
X107171185Y-113984726D01*
X107171186Y-113984727D01*
X107264090Y-114158538D01*
X107389117Y-114310883D01*
X107541462Y-114435910D01*
X107715273Y-114528814D01*
X107903868Y-114586024D01*
X107923931Y-114588000D01*
X107979767Y-114607704D01*
X108020100Y-114651054D01*
X108035735Y-114708163D01*
X108023105Y-114766011D01*
X107932411Y-114950904D01*
X107919699Y-114999999D01*
X107919699Y-115000000D01*
X110630272Y-115000000D01*
X110577435Y-114857335D01*
X110469856Y-114684739D01*
X110446275Y-114659932D01*
X110417467Y-114610420D01*
X110413986Y-114553242D01*
X110436576Y-114500602D01*
X110480416Y-114463731D01*
X110536150Y-114450500D01*
X110960394Y-114450500D01*
X110970457Y-114450909D01*
X110974124Y-114451207D01*
X111023167Y-114455201D01*
X111101748Y-114444493D01*
X111105074Y-114444086D01*
X111137583Y-114440551D01*
X111184031Y-114435501D01*
X111206351Y-114430269D01*
X111206463Y-114430227D01*
X111206468Y-114430227D01*
X111280983Y-114402851D01*
X111284033Y-114401777D01*
X111359221Y-114376444D01*
X111359224Y-114376441D01*
X111359340Y-114376403D01*
X111380020Y-114366492D01*
X111380110Y-114366433D01*
X111380116Y-114366432D01*
X111447004Y-114323677D01*
X111449742Y-114321978D01*
X111517736Y-114281070D01*
X111517735Y-114281070D01*
X111517836Y-114281010D01*
X111535899Y-114266889D01*
X111535986Y-114266801D01*
X111535989Y-114266800D01*
X111592090Y-114210697D01*
X111594421Y-114208428D01*
X111652041Y-114153849D01*
X111652042Y-114153847D01*
X111652128Y-114153766D01*
X111666905Y-114135882D01*
X112502786Y-113300000D01*
X155094551Y-113300000D01*
X155098882Y-113355029D01*
X155099118Y-113358029D01*
X155099500Y-113367757D01*
X155099500Y-116062879D01*
X155114317Y-116251149D01*
X155173126Y-116496110D01*
X155221330Y-116612485D01*
X155269534Y-116728859D01*
X155401164Y-116943659D01*
X155564776Y-117135224D01*
X155756341Y-117298836D01*
X155971141Y-117430466D01*
X156203889Y-117526873D01*
X156448852Y-117585683D01*
X156700000Y-117605449D01*
X156951148Y-117585683D01*
X157196111Y-117526873D01*
X157428859Y-117430466D01*
X157643659Y-117298836D01*
X157835224Y-117135224D01*
X157998836Y-116943659D01*
X158130466Y-116728859D01*
X158226873Y-116496111D01*
X158285683Y-116251148D01*
X158300500Y-116062882D01*
X158300500Y-114224500D01*
X158317113Y-114162500D01*
X158362500Y-114117113D01*
X158424500Y-114100500D01*
X160414001Y-114100500D01*
X160476001Y-114117113D01*
X160521388Y-114162500D01*
X160538001Y-114224500D01*
X160538001Y-114329363D01*
X160553455Y-114446760D01*
X160613964Y-114592841D01*
X160710217Y-114718282D01*
X160775412Y-114768307D01*
X160835659Y-114814536D01*
X160981738Y-114875044D01*
X161099139Y-114890500D01*
X168177860Y-114890499D01*
X168177862Y-114890499D01*
X168236561Y-114882771D01*
X168295262Y-114875044D01*
X168441341Y-114814536D01*
X168566782Y-114718282D01*
X168663036Y-114592841D01*
X168723544Y-114446762D01*
X168739000Y-114329361D01*
X168738999Y-110750640D01*
X168723544Y-110633238D01*
X168663036Y-110487159D01*
X168640639Y-110457971D01*
X168566782Y-110361717D01*
X168441340Y-110265463D01*
X168295262Y-110204956D01*
X168177862Y-110189500D01*
X161099137Y-110189500D01*
X160981739Y-110204955D01*
X160835658Y-110265464D01*
X160710217Y-110361717D01*
X160613963Y-110487159D01*
X160553456Y-110633237D01*
X160538000Y-110750638D01*
X160538000Y-110775500D01*
X160521387Y-110837500D01*
X160476000Y-110882887D01*
X160414000Y-110899500D01*
X157567760Y-110899500D01*
X157558033Y-110899118D01*
X157500000Y-110894551D01*
X157248851Y-110914316D01*
X157022336Y-110968698D01*
X157003889Y-110973126D01*
X156771139Y-111069535D01*
X156556338Y-111201165D01*
X156364777Y-111364773D01*
X156326970Y-111409039D01*
X156320362Y-111416187D01*
X155616187Y-112120362D01*
X155609039Y-112126970D01*
X155564773Y-112164777D01*
X155475440Y-112269374D01*
X155401165Y-112356338D01*
X155269535Y-112571139D01*
X155173126Y-112803889D01*
X155114317Y-113048850D01*
X155114317Y-113048852D01*
X155094551Y-113300000D01*
X112502786Y-113300000D01*
X113173391Y-112629395D01*
X113180771Y-112622591D01*
X113221100Y-112588337D01*
X113269114Y-112525174D01*
X113271131Y-112522593D01*
X113320842Y-112460753D01*
X113320844Y-112460747D01*
X113320916Y-112460659D01*
X113333000Y-112441179D01*
X113333051Y-112441066D01*
X113333054Y-112441064D01*
X113366356Y-112369079D01*
X113367795Y-112366077D01*
X113372624Y-112356341D01*
X113403037Y-112295021D01*
X113403038Y-112295016D01*
X113403095Y-112294902D01*
X113410706Y-112273283D01*
X113411567Y-112269375D01*
X113427781Y-112195709D01*
X113428546Y-112192445D01*
X113435428Y-112164776D01*
X113447684Y-112115494D01*
X113447684Y-112115492D01*
X113447711Y-112115384D01*
X113450500Y-112092620D01*
X113450500Y-112013227D01*
X113450545Y-112009870D01*
X113452696Y-111930448D01*
X113450500Y-111907350D01*
X113450500Y-110000000D01*
X140894551Y-110000000D01*
X140914317Y-110251149D01*
X140973126Y-110496110D01*
X141021330Y-110612485D01*
X141069534Y-110728859D01*
X141201164Y-110943659D01*
X141364776Y-111135224D01*
X141556341Y-111298836D01*
X141771141Y-111430466D01*
X142003889Y-111526873D01*
X142248852Y-111585683D01*
X142437118Y-111600500D01*
X150432243Y-111600500D01*
X150441971Y-111600882D01*
X150445496Y-111601159D01*
X150500000Y-111605449D01*
X150751148Y-111585683D01*
X150996111Y-111526873D01*
X151228859Y-111430466D01*
X151443659Y-111298836D01*
X151587260Y-111176189D01*
X151587259Y-111176189D01*
X151635224Y-111135224D01*
X151635227Y-111135219D01*
X151637581Y-111133210D01*
X151638372Y-111131537D01*
X151673040Y-111090945D01*
X151679626Y-111083821D01*
X154626629Y-108136818D01*
X154666857Y-108109939D01*
X154714310Y-108100500D01*
X156785689Y-108100500D01*
X156833142Y-108109939D01*
X156873370Y-108136819D01*
X157280362Y-108543811D01*
X157286970Y-108550959D01*
X157324776Y-108595224D01*
X157372740Y-108636189D01*
X157516341Y-108758836D01*
X157731141Y-108890466D01*
X157963889Y-108986873D01*
X158208852Y-109045683D01*
X158460000Y-109065449D01*
X158514788Y-109061137D01*
X158518029Y-109060882D01*
X158527757Y-109060500D01*
X160414001Y-109060500D01*
X160476001Y-109077113D01*
X160521388Y-109122500D01*
X160538001Y-109184500D01*
X160538001Y-109249363D01*
X160553455Y-109366760D01*
X160613964Y-109512841D01*
X160710217Y-109638282D01*
X160835658Y-109734535D01*
X160835659Y-109734536D01*
X160981738Y-109795044D01*
X161099139Y-109810500D01*
X168177860Y-109810499D01*
X168177862Y-109810499D01*
X168236560Y-109802771D01*
X168295262Y-109795044D01*
X168441341Y-109734536D01*
X168566782Y-109638282D01*
X168663036Y-109512841D01*
X168723544Y-109366762D01*
X168739000Y-109249361D01*
X168738999Y-105670640D01*
X168723544Y-105553238D01*
X168663036Y-105407159D01*
X168640639Y-105377970D01*
X168566782Y-105281717D01*
X168441340Y-105185463D01*
X168295262Y-105124956D01*
X168177862Y-105109500D01*
X161099137Y-105109500D01*
X160981739Y-105124955D01*
X160835658Y-105185464D01*
X160710217Y-105281717D01*
X160613963Y-105407159D01*
X160553456Y-105553237D01*
X160538000Y-105670638D01*
X160538000Y-105735500D01*
X160521387Y-105797500D01*
X160476000Y-105842887D01*
X160414000Y-105859500D01*
X159174311Y-105859500D01*
X159126858Y-105850061D01*
X159086630Y-105823181D01*
X158679631Y-105416182D01*
X158673034Y-105409046D01*
X158635224Y-105364776D01*
X158590959Y-105326970D01*
X158583811Y-105320362D01*
X158336819Y-105073370D01*
X158309939Y-105033142D01*
X158300500Y-104985689D01*
X158300500Y-103937121D01*
X158300500Y-103937118D01*
X158285683Y-103748852D01*
X158226873Y-103503889D01*
X158130466Y-103271141D01*
X157998836Y-103056341D01*
X157835224Y-102864776D01*
X157643659Y-102701164D01*
X157428859Y-102569534D01*
X157312484Y-102521330D01*
X157196110Y-102473126D01*
X156951149Y-102414317D01*
X156700000Y-102394551D01*
X156448850Y-102414317D01*
X156203889Y-102473126D01*
X155971139Y-102569535D01*
X155756342Y-102701163D01*
X155564776Y-102864776D01*
X155401163Y-103056342D01*
X155269535Y-103271139D01*
X155173126Y-103503889D01*
X155114317Y-103748850D01*
X155114317Y-103748852D01*
X155103632Y-103884623D01*
X155099500Y-103937121D01*
X155099500Y-104775500D01*
X155082887Y-104837500D01*
X155037500Y-104882887D01*
X154975500Y-104899500D01*
X154067757Y-104899500D01*
X154058029Y-104899118D01*
X154000000Y-104894551D01*
X153937117Y-104899500D01*
X153937118Y-104899500D01*
X153748850Y-104914317D01*
X153503889Y-104973126D01*
X153271139Y-105069535D01*
X153056338Y-105201165D01*
X152864777Y-105364773D01*
X152826964Y-105409046D01*
X152820356Y-105416194D01*
X149873370Y-108363181D01*
X149833142Y-108390061D01*
X149785689Y-108399500D01*
X142437118Y-108399500D01*
X142324158Y-108408390D01*
X142248850Y-108414317D01*
X142003889Y-108473126D01*
X141771139Y-108569535D01*
X141556342Y-108701163D01*
X141364776Y-108864776D01*
X141201163Y-109056342D01*
X141069535Y-109271139D01*
X140973126Y-109503889D01*
X140914317Y-109748850D01*
X140894551Y-110000000D01*
X113450500Y-110000000D01*
X113450500Y-109162302D01*
X113465142Y-109103849D01*
X113499934Y-109038758D01*
X113528814Y-108984727D01*
X113586024Y-108796132D01*
X113605341Y-108600000D01*
X113586024Y-108403868D01*
X113528814Y-108215273D01*
X113435910Y-108041462D01*
X113310883Y-107889117D01*
X113158538Y-107764090D01*
X113136091Y-107752092D01*
X112984726Y-107671185D01*
X112796133Y-107613976D01*
X112600000Y-107594659D01*
X112403866Y-107613976D01*
X112215273Y-107671185D01*
X112041463Y-107764089D01*
X111889117Y-107889117D01*
X111764089Y-108041463D01*
X111671185Y-108215273D01*
X111613976Y-108403866D01*
X111594659Y-108600000D01*
X111613976Y-108796133D01*
X111671185Y-108984726D01*
X111734858Y-109103849D01*
X111749500Y-109162302D01*
X111749500Y-111596349D01*
X111740061Y-111643802D01*
X111713181Y-111684030D01*
X110684030Y-112713181D01*
X110643802Y-112740061D01*
X110596349Y-112749500D01*
X108662302Y-112749500D01*
X108603849Y-112734858D01*
X108484726Y-112671185D01*
X108296133Y-112613976D01*
X108100000Y-112594659D01*
X107903866Y-112613976D01*
X107715273Y-112671185D01*
X107541463Y-112764089D01*
X107389117Y-112889117D01*
X107264089Y-113041463D01*
X107171185Y-113215273D01*
X107113976Y-113403866D01*
X107094659Y-113600000D01*
X96568853Y-113600000D01*
X96538711Y-113562950D01*
X96368374Y-113403866D01*
X96328698Y-113366811D01*
X96328695Y-113366809D01*
X96328692Y-113366806D01*
X96093939Y-113201100D01*
X95838793Y-113068894D01*
X95568031Y-112972665D01*
X95286690Y-112914202D01*
X95114738Y-112902440D01*
X95071752Y-112899500D01*
X94928248Y-112899500D01*
X94892425Y-112901950D01*
X94713309Y-112914202D01*
X94431968Y-112972665D01*
X94161206Y-113068894D01*
X93906060Y-113201100D01*
X93671307Y-113366806D01*
X93461288Y-113562950D01*
X93279946Y-113785851D01*
X93130637Y-114031377D01*
X93022181Y-114281070D01*
X93016156Y-114294942D01*
X93008095Y-114323712D01*
X92938628Y-114571644D01*
X92899500Y-114856322D01*
X92899500Y-115143678D01*
X90006442Y-115143678D01*
X90000605Y-115002562D01*
X90000500Y-114997439D01*
X90000500Y-108600000D01*
X107794659Y-108600000D01*
X107798903Y-108643090D01*
X107799072Y-108646537D01*
X107804434Y-108699276D01*
X107804338Y-108699285D01*
X107804474Y-108699663D01*
X107810302Y-108758836D01*
X107814447Y-108800911D01*
X107814925Y-108802437D01*
X107814926Y-108802438D01*
X107828729Y-108846430D01*
X107843762Y-108894345D01*
X107844109Y-108895470D01*
X107872981Y-108990647D01*
X107874340Y-108993883D01*
X107875840Y-108996586D01*
X107875841Y-108996588D01*
X107911314Y-109060500D01*
X107920912Y-109077792D01*
X107921849Y-109079513D01*
X107965388Y-109160967D01*
X107974579Y-109174489D01*
X108032778Y-109242282D01*
X108034536Y-109244376D01*
X108089117Y-109310883D01*
X108089396Y-109311112D01*
X108104814Y-109326192D01*
X108107133Y-109328894D01*
X108174941Y-109381382D01*
X108177704Y-109383585D01*
X108241462Y-109435910D01*
X108244942Y-109437770D01*
X108262383Y-109449068D01*
X108268042Y-109453448D01*
X108341049Y-109489258D01*
X108341808Y-109489631D01*
X108345654Y-109491601D01*
X108415273Y-109528814D01*
X108422477Y-109530999D01*
X108441093Y-109538333D01*
X108450731Y-109543061D01*
X108526819Y-109562762D01*
X108531733Y-109564142D01*
X108603868Y-109586024D01*
X108614929Y-109587113D01*
X108633857Y-109590474D01*
X108647715Y-109594063D01*
X108722676Y-109597864D01*
X108728484Y-109598297D01*
X108800000Y-109605341D01*
X108814631Y-109603899D01*
X108833056Y-109603462D01*
X108850936Y-109604369D01*
X108921596Y-109593543D01*
X108928180Y-109592716D01*
X108996132Y-109586024D01*
X109013632Y-109580714D01*
X109030834Y-109576809D01*
X109052071Y-109573556D01*
X109115760Y-109549967D01*
X109122798Y-109547598D01*
X109184727Y-109528814D01*
X109204011Y-109518505D01*
X109219379Y-109511591D01*
X109242887Y-109502886D01*
X109297488Y-109468853D01*
X109304628Y-109464725D01*
X109358538Y-109435910D01*
X109371331Y-109425410D01*
X109421836Y-109400500D01*
X109478154Y-109400499D01*
X109528664Y-109425407D01*
X109541462Y-109435910D01*
X109544942Y-109437770D01*
X109562383Y-109449068D01*
X109568042Y-109453448D01*
X109641049Y-109489258D01*
X109641808Y-109489631D01*
X109645654Y-109491601D01*
X109715273Y-109528814D01*
X109722477Y-109530999D01*
X109741093Y-109538333D01*
X109750731Y-109543061D01*
X109826819Y-109562762D01*
X109831733Y-109564142D01*
X109903868Y-109586024D01*
X109914929Y-109587113D01*
X109933857Y-109590474D01*
X109947715Y-109594063D01*
X110022676Y-109597864D01*
X110028484Y-109598297D01*
X110100000Y-109605341D01*
X110114631Y-109603899D01*
X110133056Y-109603462D01*
X110150936Y-109604369D01*
X110221596Y-109593543D01*
X110228180Y-109592716D01*
X110296132Y-109586024D01*
X110313632Y-109580714D01*
X110330834Y-109576809D01*
X110352071Y-109573556D01*
X110415760Y-109549967D01*
X110422798Y-109547598D01*
X110484727Y-109528814D01*
X110504011Y-109518505D01*
X110519379Y-109511591D01*
X110542887Y-109502886D01*
X110597488Y-109468853D01*
X110604628Y-109464725D01*
X110658538Y-109435910D01*
X110678197Y-109419775D01*
X110691267Y-109410400D01*
X110715571Y-109395252D01*
X110759651Y-109353348D01*
X110766373Y-109347409D01*
X110810883Y-109310883D01*
X110829286Y-109288457D01*
X110839698Y-109277259D01*
X110863053Y-109255059D01*
X110895735Y-109208101D01*
X110901650Y-109200282D01*
X110935910Y-109158538D01*
X110937571Y-109155429D01*
X110951270Y-109129801D01*
X110958852Y-109117418D01*
X110979295Y-109088049D01*
X111000456Y-109038735D01*
X111005031Y-109029220D01*
X111028814Y-108984727D01*
X111039313Y-108950113D01*
X111044011Y-108937240D01*
X111059540Y-108901058D01*
X111069621Y-108851998D01*
X111072414Y-108840996D01*
X111086024Y-108796132D01*
X111089918Y-108756583D01*
X111091855Y-108743803D01*
X111100500Y-108701741D01*
X111100500Y-108655244D01*
X111101097Y-108643090D01*
X111105341Y-108600000D01*
X111101096Y-108556909D01*
X111100500Y-108544756D01*
X111100500Y-106465783D01*
X111109939Y-106418330D01*
X111136819Y-106378102D01*
X113514922Y-103999999D01*
X142919628Y-103999999D01*
X142939085Y-104247226D01*
X142996976Y-104488362D01*
X143027460Y-104561955D01*
X143091878Y-104717474D01*
X143221452Y-104928919D01*
X143382508Y-105117492D01*
X143571081Y-105278548D01*
X143782526Y-105408122D01*
X143951792Y-105478234D01*
X144011637Y-105503023D01*
X144087818Y-105521312D01*
X144252775Y-105560915D01*
X144500000Y-105580372D01*
X144747225Y-105560915D01*
X144988362Y-105503023D01*
X145217474Y-105408122D01*
X145428919Y-105278548D01*
X145617492Y-105117492D01*
X145778548Y-104928919D01*
X145908122Y-104717474D01*
X146003023Y-104488362D01*
X146060915Y-104247225D01*
X146080372Y-104000000D01*
X146060915Y-103752775D01*
X146018077Y-103574344D01*
X146003023Y-103511637D01*
X145978234Y-103451792D01*
X145908122Y-103282526D01*
X145778548Y-103071081D01*
X145617492Y-102882508D01*
X145428919Y-102721452D01*
X145217474Y-102591878D01*
X145122214Y-102552420D01*
X144988362Y-102496976D01*
X144747226Y-102439085D01*
X144500000Y-102419628D01*
X144252773Y-102439085D01*
X144011637Y-102496976D01*
X143782524Y-102591879D01*
X143571082Y-102721451D01*
X143382508Y-102882508D01*
X143221451Y-103071082D01*
X143091879Y-103282524D01*
X142996976Y-103511637D01*
X142939085Y-103752773D01*
X142919628Y-103999999D01*
X113514922Y-103999999D01*
X113766071Y-103748850D01*
X118500558Y-99014362D01*
X142924500Y-99014362D01*
X142939955Y-99131760D01*
X143000464Y-99277841D01*
X143096717Y-99403282D01*
X143222158Y-99499535D01*
X143222159Y-99499536D01*
X143368238Y-99560044D01*
X143485639Y-99575500D01*
X145514360Y-99575499D01*
X145514362Y-99575499D01*
X145573061Y-99567771D01*
X145631762Y-99560044D01*
X145777841Y-99499536D01*
X145903282Y-99403282D01*
X145999536Y-99277841D01*
X146060044Y-99131762D01*
X146075500Y-99014361D01*
X146075499Y-96985640D01*
X146060044Y-96868238D01*
X145999536Y-96722159D01*
X145936877Y-96640500D01*
X145903282Y-96596717D01*
X145777840Y-96500463D01*
X145631762Y-96439956D01*
X145514362Y-96424500D01*
X143485637Y-96424500D01*
X143368239Y-96439955D01*
X143222158Y-96500464D01*
X143096717Y-96596717D01*
X143000463Y-96722159D01*
X142939956Y-96868237D01*
X142924500Y-96985637D01*
X142924500Y-99014362D01*
X118500558Y-99014362D01*
X122197409Y-95317510D01*
X122199579Y-95315394D01*
X122215774Y-95300000D01*
X155094551Y-95300000D01*
X155098882Y-95355029D01*
X155099118Y-95358029D01*
X155099500Y-95367757D01*
X155099500Y-98062879D01*
X155114317Y-98251149D01*
X155173126Y-98496110D01*
X155221330Y-98612485D01*
X155269534Y-98728859D01*
X155401164Y-98943659D01*
X155564776Y-99135224D01*
X155756341Y-99298836D01*
X155971141Y-99430466D01*
X156203889Y-99526873D01*
X156448852Y-99585683D01*
X156700000Y-99605449D01*
X156951148Y-99585683D01*
X157196111Y-99526873D01*
X157428859Y-99430466D01*
X157643659Y-99298836D01*
X157835224Y-99135224D01*
X157998836Y-98943659D01*
X158130466Y-98728859D01*
X158226873Y-98496111D01*
X158285683Y-98251148D01*
X158300500Y-98062882D01*
X158300500Y-96264500D01*
X158317113Y-96202500D01*
X158362500Y-96157113D01*
X158424500Y-96140500D01*
X160518797Y-96140500D01*
X160566250Y-96149939D01*
X160606478Y-96176819D01*
X160633358Y-96217047D01*
X160685464Y-96342841D01*
X160781717Y-96468282D01*
X160907158Y-96564535D01*
X160907159Y-96564536D01*
X161053238Y-96625044D01*
X161170639Y-96640500D01*
X168249360Y-96640499D01*
X168249362Y-96640499D01*
X168308061Y-96632771D01*
X168366762Y-96625044D01*
X168512841Y-96564536D01*
X168638282Y-96468282D01*
X168734536Y-96342841D01*
X168795044Y-96196762D01*
X168810500Y-96079361D01*
X168810499Y-92500640D01*
X168795044Y-92383238D01*
X168734536Y-92237159D01*
X168712139Y-92207971D01*
X168638282Y-92111717D01*
X168512840Y-92015463D01*
X168366762Y-91954956D01*
X168249362Y-91939500D01*
X161170637Y-91939500D01*
X161053239Y-91954955D01*
X160907158Y-92015464D01*
X160781717Y-92111717D01*
X160685463Y-92237159D01*
X160624956Y-92383237D01*
X160609500Y-92500638D01*
X160609500Y-92815500D01*
X160592887Y-92877500D01*
X160547500Y-92922887D01*
X160485500Y-92939500D01*
X157527757Y-92939500D01*
X157518029Y-92939118D01*
X157460000Y-92934551D01*
X157397117Y-92939500D01*
X157397118Y-92939500D01*
X157208850Y-92954317D01*
X156963889Y-93013126D01*
X156731139Y-93109535D01*
X156516338Y-93241165D01*
X156324777Y-93404773D01*
X156286964Y-93449046D01*
X156280356Y-93456194D01*
X155616187Y-94120362D01*
X155609040Y-94126969D01*
X155564777Y-94164775D01*
X155472261Y-94273093D01*
X155472259Y-94273098D01*
X155401163Y-94356342D01*
X155269535Y-94571139D01*
X155173126Y-94803889D01*
X155114317Y-95048850D01*
X155111628Y-95083005D01*
X155094551Y-95300000D01*
X122215774Y-95300000D01*
X122263053Y-95255059D01*
X122296765Y-95206622D01*
X122302408Y-95199138D01*
X122339698Y-95153407D01*
X122353786Y-95126435D01*
X122361911Y-95113024D01*
X122379295Y-95088049D01*
X122402568Y-95033815D01*
X122406598Y-95025331D01*
X122433908Y-94973051D01*
X122433909Y-94973049D01*
X122442278Y-94943797D01*
X122447534Y-94929032D01*
X122459540Y-94901058D01*
X122471418Y-94843256D01*
X122473651Y-94834156D01*
X122489887Y-94777418D01*
X122492197Y-94747077D01*
X122494376Y-94731535D01*
X122500500Y-94701741D01*
X122500500Y-94642757D01*
X122500858Y-94633343D01*
X122500964Y-94631945D01*
X122505337Y-94574523D01*
X122501493Y-94544347D01*
X122500500Y-94528682D01*
X122500500Y-92000000D01*
X140894551Y-92000000D01*
X140904433Y-92125573D01*
X140914317Y-92251149D01*
X140973126Y-92496110D01*
X141021330Y-92612484D01*
X141069534Y-92728859D01*
X141201164Y-92943659D01*
X141364776Y-93135224D01*
X141556341Y-93298836D01*
X141771141Y-93430466D01*
X142003889Y-93526873D01*
X142248852Y-93585683D01*
X142437118Y-93600500D01*
X150432243Y-93600500D01*
X150441971Y-93600882D01*
X150445496Y-93601159D01*
X150500000Y-93605449D01*
X150751148Y-93585683D01*
X150996111Y-93526873D01*
X151228859Y-93430466D01*
X151443659Y-93298836D01*
X151587260Y-93176189D01*
X151587259Y-93176189D01*
X151635224Y-93135224D01*
X151635227Y-93135219D01*
X151637581Y-93133210D01*
X151638372Y-93131537D01*
X151673040Y-93090945D01*
X151679626Y-93083821D01*
X154026628Y-90736819D01*
X154066857Y-90709939D01*
X154114310Y-90700500D01*
X157032243Y-90700500D01*
X157041971Y-90700882D01*
X157044970Y-90701117D01*
X157100000Y-90705449D01*
X157155029Y-90701117D01*
X157158029Y-90700882D01*
X157167757Y-90700500D01*
X160485501Y-90700500D01*
X160547501Y-90717113D01*
X160592888Y-90762500D01*
X160609501Y-90824500D01*
X160609501Y-90999363D01*
X160624955Y-91116760D01*
X160685464Y-91262841D01*
X160781717Y-91388282D01*
X160907158Y-91484535D01*
X160907159Y-91484536D01*
X161053238Y-91545044D01*
X161170639Y-91560500D01*
X168249360Y-91560499D01*
X168249362Y-91560499D01*
X168308060Y-91552771D01*
X168366762Y-91545044D01*
X168512841Y-91484536D01*
X168638282Y-91388282D01*
X168734536Y-91262841D01*
X168795044Y-91116762D01*
X168810500Y-90999361D01*
X168810499Y-87420640D01*
X168806687Y-87391685D01*
X168795044Y-87303239D01*
X168795044Y-87303238D01*
X168734536Y-87157159D01*
X168704098Y-87117491D01*
X168638282Y-87031717D01*
X168512840Y-86935463D01*
X168366762Y-86874956D01*
X168249362Y-86859500D01*
X161170637Y-86859500D01*
X161053239Y-86874955D01*
X160907158Y-86935464D01*
X160781717Y-87031717D01*
X160685463Y-87157159D01*
X160624956Y-87303237D01*
X160613312Y-87391685D01*
X160591948Y-87446623D01*
X160547630Y-87485489D01*
X160490373Y-87499500D01*
X158424500Y-87499500D01*
X158362500Y-87482887D01*
X158317113Y-87437500D01*
X158300500Y-87375500D01*
X158300500Y-85937121D01*
X158300500Y-85937118D01*
X158285683Y-85748852D01*
X158226873Y-85503889D01*
X158130466Y-85271141D01*
X157998836Y-85056341D01*
X157835224Y-84864776D01*
X157643659Y-84701164D01*
X157428859Y-84569534D01*
X157312485Y-84521330D01*
X157196110Y-84473126D01*
X156951149Y-84414317D01*
X156700000Y-84394551D01*
X156448850Y-84414317D01*
X156203889Y-84473126D01*
X155971139Y-84569535D01*
X155756342Y-84701163D01*
X155564776Y-84864776D01*
X155401163Y-85056342D01*
X155269535Y-85271139D01*
X155173126Y-85503889D01*
X155114317Y-85748850D01*
X155099500Y-85937121D01*
X155099500Y-87375500D01*
X155082887Y-87437500D01*
X155037500Y-87482887D01*
X154975500Y-87499500D01*
X153467757Y-87499500D01*
X153458029Y-87499118D01*
X153400000Y-87494551D01*
X153337117Y-87499500D01*
X153337118Y-87499500D01*
X153148850Y-87514317D01*
X152903889Y-87573126D01*
X152671139Y-87669535D01*
X152456338Y-87801165D01*
X152264777Y-87964773D01*
X152226964Y-88009046D01*
X152220356Y-88016194D01*
X149873370Y-90363181D01*
X149833142Y-90390061D01*
X149785689Y-90399500D01*
X142437118Y-90399500D01*
X142324158Y-90408390D01*
X142248850Y-90414317D01*
X142003889Y-90473126D01*
X141771139Y-90569535D01*
X141556342Y-90701163D01*
X141364776Y-90864776D01*
X141201163Y-91056342D01*
X141069535Y-91271139D01*
X140973126Y-91503889D01*
X140914317Y-91748850D01*
X140899312Y-91939501D01*
X140894551Y-92000000D01*
X122500500Y-92000000D01*
X122500500Y-86000000D01*
X142919628Y-86000000D01*
X142939085Y-86247226D01*
X142996976Y-86488362D01*
X143056821Y-86632840D01*
X143091878Y-86717474D01*
X143221452Y-86928919D01*
X143382508Y-87117492D01*
X143571081Y-87278548D01*
X143782526Y-87408122D01*
X143951792Y-87478234D01*
X144011637Y-87503023D01*
X144087818Y-87521312D01*
X144252775Y-87560915D01*
X144500000Y-87580372D01*
X144747225Y-87560915D01*
X144988362Y-87503023D01*
X145217474Y-87408122D01*
X145428919Y-87278548D01*
X145617492Y-87117492D01*
X145778548Y-86928919D01*
X145908122Y-86717474D01*
X146003023Y-86488362D01*
X146060915Y-86247225D01*
X146080372Y-86000000D01*
X146060915Y-85752775D01*
X146003023Y-85511638D01*
X145999813Y-85503889D01*
X145978234Y-85451792D01*
X145908122Y-85282526D01*
X145778548Y-85071081D01*
X145617492Y-84882508D01*
X145428919Y-84721452D01*
X145217474Y-84591878D01*
X145132578Y-84556713D01*
X144988362Y-84496976D01*
X144747226Y-84439085D01*
X144500000Y-84419628D01*
X144252773Y-84439085D01*
X144011637Y-84496976D01*
X143782524Y-84591879D01*
X143571082Y-84721451D01*
X143382508Y-84882508D01*
X143221451Y-85071082D01*
X143091879Y-85282524D01*
X142996976Y-85511637D01*
X142939085Y-85752773D01*
X142919628Y-86000000D01*
X122500500Y-86000000D01*
X122500500Y-82393678D01*
X127899500Y-82393678D01*
X127938628Y-82678355D01*
X127938629Y-82678358D01*
X128008169Y-82926553D01*
X128016157Y-82955060D01*
X128130637Y-83218622D01*
X128279946Y-83464148D01*
X128461288Y-83687049D01*
X128461291Y-83687051D01*
X128461292Y-83687053D01*
X128671302Y-83883189D01*
X128671304Y-83883191D01*
X128671307Y-83883193D01*
X128906060Y-84048899D01*
X128906064Y-84048901D01*
X129161203Y-84181104D01*
X129431968Y-84277334D01*
X129713314Y-84335798D01*
X129928248Y-84350500D01*
X130071751Y-84350500D01*
X130071752Y-84350500D01*
X130286686Y-84335798D01*
X130568032Y-84277334D01*
X130838797Y-84181104D01*
X131093936Y-84048901D01*
X131328698Y-83883189D01*
X131538708Y-83687053D01*
X131720055Y-83464147D01*
X131869361Y-83218625D01*
X131983844Y-82955058D01*
X132061371Y-82678358D01*
X132100500Y-82393678D01*
X132100500Y-82106322D01*
X132061371Y-81821642D01*
X131983844Y-81544942D01*
X131869361Y-81281375D01*
X131720055Y-81035853D01*
X131647516Y-80946690D01*
X131538711Y-80812950D01*
X131538708Y-80812947D01*
X131328698Y-80616811D01*
X131328695Y-80616809D01*
X131328692Y-80616806D01*
X131093939Y-80451100D01*
X130838793Y-80318894D01*
X130568031Y-80222665D01*
X130286690Y-80164202D01*
X130114738Y-80152440D01*
X130071752Y-80149500D01*
X129928248Y-80149500D01*
X129892425Y-80151950D01*
X129713309Y-80164202D01*
X129431968Y-80222665D01*
X129161206Y-80318894D01*
X128906060Y-80451100D01*
X128671307Y-80616806D01*
X128461288Y-80812950D01*
X128279946Y-81035851D01*
X128130637Y-81281377D01*
X128016157Y-81544939D01*
X127938628Y-81821644D01*
X127899500Y-82106322D01*
X127899500Y-82393678D01*
X122500500Y-82393678D01*
X122500500Y-80014362D01*
X142924500Y-80014362D01*
X142939955Y-80131760D01*
X143000464Y-80277841D01*
X143096717Y-80403282D01*
X143170310Y-80459751D01*
X143222159Y-80499536D01*
X143368238Y-80560044D01*
X143485639Y-80575500D01*
X145514360Y-80575499D01*
X145514362Y-80575499D01*
X145573060Y-80567771D01*
X145631762Y-80560044D01*
X145777841Y-80499536D01*
X145903282Y-80403282D01*
X145999536Y-80277841D01*
X146060044Y-80131762D01*
X146075500Y-80014361D01*
X146075499Y-77985640D01*
X146060044Y-77868238D01*
X145999536Y-77722159D01*
X145936877Y-77640500D01*
X145903282Y-77596717D01*
X145777840Y-77500463D01*
X145631762Y-77439956D01*
X145514362Y-77424500D01*
X143485637Y-77424500D01*
X143368239Y-77439955D01*
X143222158Y-77500464D01*
X143096717Y-77596717D01*
X143000463Y-77722159D01*
X142939956Y-77868237D01*
X142924500Y-77985637D01*
X142924500Y-80014362D01*
X122500500Y-80014362D01*
X122500500Y-76400000D01*
X155094551Y-76400000D01*
X155098882Y-76455029D01*
X155099118Y-76458029D01*
X155099500Y-76467757D01*
X155099500Y-79062879D01*
X155114317Y-79251149D01*
X155173126Y-79496110D01*
X155201586Y-79564817D01*
X155269534Y-79728859D01*
X155401164Y-79943659D01*
X155564776Y-80135224D01*
X155756341Y-80298836D01*
X155971141Y-80430466D01*
X156203889Y-80526873D01*
X156448852Y-80585683D01*
X156700000Y-80605449D01*
X156951148Y-80585683D01*
X157196111Y-80526873D01*
X157428859Y-80430466D01*
X157643659Y-80298836D01*
X157835224Y-80135224D01*
X157998836Y-79943659D01*
X158130466Y-79728859D01*
X158226873Y-79496111D01*
X158285683Y-79251148D01*
X158300500Y-79062882D01*
X158300500Y-77524500D01*
X158317113Y-77462500D01*
X158362500Y-77417113D01*
X158424500Y-77400500D01*
X160668557Y-77400500D01*
X160723401Y-77413288D01*
X160766933Y-77449014D01*
X160781717Y-77468282D01*
X160854983Y-77524500D01*
X160907159Y-77564536D01*
X161053238Y-77625044D01*
X161170639Y-77640500D01*
X168249360Y-77640499D01*
X168249362Y-77640499D01*
X168308061Y-77632771D01*
X168366762Y-77625044D01*
X168512841Y-77564536D01*
X168638282Y-77468282D01*
X168734536Y-77342841D01*
X168795044Y-77196762D01*
X168810500Y-77079361D01*
X168810499Y-73500640D01*
X168795044Y-73383238D01*
X168734536Y-73237159D01*
X168690846Y-73180221D01*
X168638282Y-73111717D01*
X168512840Y-73015463D01*
X168366762Y-72954956D01*
X168249362Y-72939500D01*
X161170637Y-72939500D01*
X161053239Y-72954955D01*
X160907158Y-73015464D01*
X160781717Y-73111717D01*
X160685463Y-73237159D01*
X160624956Y-73383237D01*
X160609500Y-73500638D01*
X160609500Y-74075500D01*
X160592887Y-74137500D01*
X160547500Y-74182887D01*
X160485500Y-74199500D01*
X157367757Y-74199500D01*
X157358029Y-74199118D01*
X157300000Y-74194551D01*
X157237117Y-74199500D01*
X157237118Y-74199500D01*
X157048850Y-74214317D01*
X156803889Y-74273126D01*
X156571139Y-74369535D01*
X156356338Y-74501165D01*
X156164777Y-74664773D01*
X156126970Y-74709039D01*
X156120362Y-74716187D01*
X155616187Y-75220362D01*
X155609039Y-75226970D01*
X155564776Y-75264775D01*
X155436678Y-75414759D01*
X155401163Y-75456342D01*
X155269535Y-75671139D01*
X155173126Y-75903889D01*
X155114317Y-76148850D01*
X155114317Y-76148852D01*
X155094551Y-76400000D01*
X122500500Y-76400000D01*
X122500500Y-73000000D01*
X140894551Y-73000000D01*
X140904433Y-73125573D01*
X140914317Y-73251149D01*
X140973126Y-73496110D01*
X141000106Y-73561245D01*
X141069534Y-73728859D01*
X141201164Y-73943659D01*
X141364776Y-74135224D01*
X141556341Y-74298836D01*
X141771141Y-74430466D01*
X142003889Y-74526873D01*
X142248852Y-74585683D01*
X142437118Y-74600500D01*
X149632243Y-74600500D01*
X149641971Y-74600882D01*
X149645496Y-74601159D01*
X149700000Y-74605449D01*
X149951148Y-74585683D01*
X150196111Y-74526873D01*
X150428859Y-74430466D01*
X150643659Y-74298836D01*
X150787260Y-74176189D01*
X150787259Y-74176189D01*
X150835224Y-74135224D01*
X150835227Y-74135219D01*
X150837581Y-74133210D01*
X150838372Y-74131537D01*
X150873040Y-74090945D01*
X150879626Y-74083821D01*
X153226629Y-71736819D01*
X153266857Y-71709939D01*
X153314310Y-71700500D01*
X157932240Y-71700500D01*
X157941967Y-71700882D01*
X157949598Y-71701482D01*
X158000000Y-71705449D01*
X158050401Y-71701482D01*
X158058033Y-71700882D01*
X158067760Y-71700500D01*
X160485501Y-71700500D01*
X160547501Y-71717113D01*
X160592888Y-71762500D01*
X160609501Y-71824500D01*
X160609501Y-71999363D01*
X160624955Y-72116760D01*
X160685464Y-72262841D01*
X160781717Y-72388282D01*
X160907158Y-72484535D01*
X160907159Y-72484536D01*
X161053238Y-72545044D01*
X161170639Y-72560500D01*
X168249360Y-72560499D01*
X168249362Y-72560499D01*
X168308061Y-72552771D01*
X168366762Y-72545044D01*
X168512841Y-72484536D01*
X168638282Y-72388282D01*
X168734536Y-72262841D01*
X168795044Y-72116762D01*
X168810500Y-71999361D01*
X168810499Y-68420640D01*
X168806687Y-68391685D01*
X168795044Y-68303239D01*
X168795044Y-68303238D01*
X168734536Y-68157159D01*
X168704098Y-68117491D01*
X168638282Y-68031717D01*
X168512840Y-67935463D01*
X168366762Y-67874956D01*
X168249362Y-67859500D01*
X161170637Y-67859500D01*
X161053239Y-67874955D01*
X160907158Y-67935464D01*
X160781717Y-68031717D01*
X160685463Y-68157159D01*
X160624956Y-68303237D01*
X160613312Y-68391685D01*
X160591948Y-68446623D01*
X160547630Y-68485489D01*
X160490373Y-68499500D01*
X158714311Y-68499500D01*
X158666858Y-68490061D01*
X158626630Y-68463181D01*
X158336819Y-68173370D01*
X158309939Y-68133142D01*
X158300500Y-68085689D01*
X158300500Y-66937121D01*
X158300500Y-66937118D01*
X158285683Y-66748852D01*
X158226873Y-66503889D01*
X158130466Y-66271141D01*
X157998836Y-66056341D01*
X157835224Y-65864776D01*
X157643659Y-65701164D01*
X157428859Y-65569534D01*
X157307921Y-65519440D01*
X157196110Y-65473126D01*
X156951149Y-65414317D01*
X156700000Y-65394551D01*
X156448850Y-65414317D01*
X156203889Y-65473126D01*
X155971139Y-65569535D01*
X155756342Y-65701163D01*
X155564776Y-65864776D01*
X155401163Y-66056342D01*
X155269535Y-66271139D01*
X155173126Y-66503889D01*
X155114317Y-66748850D01*
X155099500Y-66937121D01*
X155099500Y-68375500D01*
X155082887Y-68437500D01*
X155037500Y-68482887D01*
X154975500Y-68499500D01*
X152667757Y-68499500D01*
X152658029Y-68499118D01*
X152600000Y-68494551D01*
X152537117Y-68499500D01*
X152537118Y-68499500D01*
X152348850Y-68514317D01*
X152103889Y-68573126D01*
X151871139Y-68669535D01*
X151656338Y-68801165D01*
X151464777Y-68964773D01*
X151426964Y-69009046D01*
X151420356Y-69016194D01*
X149073370Y-71363181D01*
X149033142Y-71390061D01*
X148985689Y-71399500D01*
X142437118Y-71399500D01*
X142324158Y-71408390D01*
X142248850Y-71414317D01*
X142003889Y-71473126D01*
X141771139Y-71569535D01*
X141556342Y-71701163D01*
X141364776Y-71864776D01*
X141201163Y-72056342D01*
X141069535Y-72271139D01*
X140973126Y-72503889D01*
X140914317Y-72748850D01*
X140894787Y-72997005D01*
X140894551Y-73000000D01*
X122500500Y-73000000D01*
X122500500Y-66999999D01*
X142919628Y-66999999D01*
X142939085Y-67247226D01*
X142996976Y-67488362D01*
X143056821Y-67632840D01*
X143091878Y-67717474D01*
X143221452Y-67928919D01*
X143382508Y-68117492D01*
X143571081Y-68278548D01*
X143782526Y-68408122D01*
X143915451Y-68463181D01*
X144011637Y-68503023D01*
X144087818Y-68521312D01*
X144252775Y-68560915D01*
X144500000Y-68580372D01*
X144747225Y-68560915D01*
X144988362Y-68503023D01*
X145217474Y-68408122D01*
X145428919Y-68278548D01*
X145617492Y-68117492D01*
X145778548Y-67928919D01*
X145908122Y-67717474D01*
X146003023Y-67488362D01*
X146060915Y-67247225D01*
X146080372Y-67000000D01*
X146060915Y-66752775D01*
X146003023Y-66511638D01*
X145999813Y-66503889D01*
X145978234Y-66451792D01*
X145908122Y-66282526D01*
X145778548Y-66071081D01*
X145617492Y-65882508D01*
X145428919Y-65721452D01*
X145217474Y-65591878D01*
X145116091Y-65549884D01*
X144988362Y-65496976D01*
X144747226Y-65439085D01*
X144500000Y-65419628D01*
X144252773Y-65439085D01*
X144011637Y-65496976D01*
X143782524Y-65591879D01*
X143571082Y-65721451D01*
X143382508Y-65882508D01*
X143221451Y-66071082D01*
X143091879Y-66282524D01*
X142996976Y-66511637D01*
X142939085Y-66752773D01*
X142919628Y-66999999D01*
X122500500Y-66999999D01*
X122500500Y-65080244D01*
X122501097Y-65068090D01*
X122502558Y-65053259D01*
X122505341Y-65025000D01*
X122501096Y-64981909D01*
X122500927Y-64978467D01*
X122500500Y-64974267D01*
X122500500Y-64974258D01*
X122495525Y-64925336D01*
X122486024Y-64828868D01*
X122486023Y-64828864D01*
X122485553Y-64824090D01*
X122485074Y-64822562D01*
X122456189Y-64730501D01*
X122455870Y-64729467D01*
X122452974Y-64719921D01*
X122428814Y-64640273D01*
X122427010Y-64634325D01*
X122425672Y-64631138D01*
X122409273Y-64601593D01*
X122379052Y-64547145D01*
X122378160Y-64545506D01*
X122373823Y-64537392D01*
X122335910Y-64466462D01*
X122335907Y-64466458D01*
X122334608Y-64464027D01*
X122325424Y-64450515D01*
X122267221Y-64382716D01*
X122265454Y-64380611D01*
X122223147Y-64329061D01*
X122210883Y-64314117D01*
X122210882Y-64314116D01*
X122210607Y-64313890D01*
X122195186Y-64298807D01*
X122192866Y-64296105D01*
X122125057Y-64243616D01*
X122122294Y-64241413D01*
X122058538Y-64189090D01*
X122055058Y-64187230D01*
X122037617Y-64175932D01*
X122031958Y-64171552D01*
X121958168Y-64135356D01*
X121954345Y-64133398D01*
X121884726Y-64096185D01*
X121877519Y-64093999D01*
X121858911Y-64086668D01*
X121849271Y-64081940D01*
X121849269Y-64081939D01*
X121849266Y-64081938D01*
X121773189Y-64062240D01*
X121768276Y-64060860D01*
X121696129Y-64038975D01*
X121685056Y-64037884D01*
X121666145Y-64034525D01*
X121652285Y-64030937D01*
X121577345Y-64027135D01*
X121571476Y-64026697D01*
X121500000Y-64019658D01*
X121485369Y-64021099D01*
X121466943Y-64021537D01*
X121449062Y-64020630D01*
X121378433Y-64031450D01*
X121371814Y-64032283D01*
X121303863Y-64038976D01*
X121286367Y-64044283D01*
X121269161Y-64048190D01*
X121247933Y-64051443D01*
X121247931Y-64051443D01*
X121247929Y-64051444D01*
X121184241Y-64075031D01*
X121177199Y-64077400D01*
X121163534Y-64081546D01*
X121115273Y-64096185D01*
X121095998Y-64106488D01*
X121080617Y-64113408D01*
X121057111Y-64122114D01*
X121002499Y-64156153D01*
X120995365Y-64160277D01*
X120941464Y-64189088D01*
X120941460Y-64189090D01*
X120941462Y-64189090D01*
X120921800Y-64205224D01*
X120908738Y-64214595D01*
X120884432Y-64229745D01*
X120840369Y-64271630D01*
X120833607Y-64277604D01*
X120789119Y-64314116D01*
X120789115Y-64314119D01*
X120770712Y-64336541D01*
X120760298Y-64347743D01*
X120736946Y-64369941D01*
X120704268Y-64416891D01*
X120698349Y-64424714D01*
X120664091Y-64466458D01*
X120648731Y-64495195D01*
X120641151Y-64507573D01*
X120620706Y-64536948D01*
X120599550Y-64586245D01*
X120594960Y-64595792D01*
X120571186Y-64640272D01*
X120560693Y-64674863D01*
X120555984Y-64687765D01*
X120540460Y-64723941D01*
X120530379Y-64772990D01*
X120527579Y-64784019D01*
X120513976Y-64828864D01*
X120510081Y-64868408D01*
X120508140Y-64881211D01*
X120499500Y-64923258D01*
X120499500Y-64969756D01*
X120498903Y-64981909D01*
X120494659Y-65025000D01*
X120497442Y-65053259D01*
X120498903Y-65068090D01*
X120499500Y-65080244D01*
X120499500Y-94134218D01*
X120490061Y-94181671D01*
X120463181Y-94221899D01*
X120216923Y-94468156D01*
X120165762Y-94498975D01*
X120106128Y-94502302D01*
X120051856Y-94477364D01*
X120015539Y-94429948D01*
X120008267Y-94386861D01*
X120006930Y-94387032D01*
X120001494Y-94344348D01*
X120000500Y-94328683D01*
X120000500Y-65549884D01*
X120015142Y-65491430D01*
X120058814Y-65409727D01*
X120058815Y-65409722D01*
X120061742Y-65404247D01*
X120063052Y-65401041D01*
X120063907Y-65398052D01*
X120063909Y-65398049D01*
X120089462Y-65308741D01*
X120090012Y-65306877D01*
X120116024Y-65221132D01*
X120116024Y-65221127D01*
X120116824Y-65218492D01*
X120119885Y-65202440D01*
X120121558Y-65180477D01*
X120126667Y-65113374D01*
X120126905Y-65110648D01*
X120135341Y-65025000D01*
X120135305Y-65024643D01*
X120135067Y-65003065D01*
X120135337Y-64999521D01*
X120131269Y-64967581D01*
X120124505Y-64914476D01*
X120124112Y-64910992D01*
X120118493Y-64853942D01*
X120116024Y-64828868D01*
X120115381Y-64826749D01*
X120114878Y-64825089D01*
X120110533Y-64804761D01*
X120109630Y-64797675D01*
X120109630Y-64797672D01*
X120083041Y-64719886D01*
X120081743Y-64715861D01*
X120058814Y-64640273D01*
X120055264Y-64633631D01*
X120047287Y-64615283D01*
X120043816Y-64605128D01*
X120032700Y-64586245D01*
X120003930Y-64537370D01*
X120001444Y-64532940D01*
X119965912Y-64466465D01*
X119965910Y-64466462D01*
X119958861Y-64457873D01*
X119947854Y-64442112D01*
X119940590Y-64429771D01*
X119890285Y-64374092D01*
X119886441Y-64369629D01*
X119840884Y-64314118D01*
X119829523Y-64304794D01*
X119816183Y-64292073D01*
X119804180Y-64278788D01*
X119802570Y-64277606D01*
X119746571Y-64236485D01*
X119741307Y-64232396D01*
X119688537Y-64189089D01*
X119672414Y-64180471D01*
X119657478Y-64171062D01*
X119640167Y-64158350D01*
X119578461Y-64129998D01*
X119571781Y-64126682D01*
X119514725Y-64096185D01*
X119493814Y-64089842D01*
X119478039Y-64083857D01*
X119455269Y-64073394D01*
X119392595Y-64058850D01*
X119384634Y-64056721D01*
X119326131Y-64038975D01*
X119300824Y-64036482D01*
X119284956Y-64033871D01*
X119257053Y-64027396D01*
X119196287Y-64025856D01*
X119187277Y-64025299D01*
X119129998Y-64019658D01*
X119101132Y-64022501D01*
X119085841Y-64023058D01*
X119053637Y-64022242D01*
X118997333Y-64032333D01*
X118987615Y-64033681D01*
X118933864Y-64038976D01*
X118902681Y-64048435D01*
X118888568Y-64051828D01*
X118853349Y-64058141D01*
X118803526Y-64078041D01*
X118793532Y-64081546D01*
X118781646Y-64085151D01*
X118745273Y-64096186D01*
X118745270Y-64096187D01*
X118745268Y-64096188D01*
X118713390Y-64113226D01*
X118700941Y-64119018D01*
X118664382Y-64133622D01*
X118622566Y-64161180D01*
X118612789Y-64166998D01*
X118571464Y-64189088D01*
X118540748Y-64214295D01*
X118530326Y-64221973D01*
X118494480Y-64245598D01*
X118461600Y-64278478D01*
X118452589Y-64286646D01*
X118419117Y-64314117D01*
X118391646Y-64347589D01*
X118383476Y-64356602D01*
X118302646Y-64437432D01*
X118300399Y-64439623D01*
X118236948Y-64499939D01*
X118203244Y-64548362D01*
X118197573Y-64555882D01*
X118160301Y-64601593D01*
X118146210Y-64628566D01*
X118138082Y-64641983D01*
X118120705Y-64666950D01*
X118097439Y-64721165D01*
X118093399Y-64729671D01*
X118066090Y-64781952D01*
X118057720Y-64811201D01*
X118052459Y-64825978D01*
X118040460Y-64853942D01*
X118028587Y-64911713D01*
X118026342Y-64920860D01*
X118010113Y-64977580D01*
X118007802Y-65007925D01*
X118005622Y-65023466D01*
X117999500Y-65053259D01*
X117999500Y-65112242D01*
X117999142Y-65121656D01*
X117994663Y-65180477D01*
X117998506Y-65210651D01*
X117999500Y-65226317D01*
X117999500Y-93934217D01*
X117990061Y-93981670D01*
X117963181Y-94021898D01*
X108102646Y-103882432D01*
X108100399Y-103884623D01*
X108036948Y-103944939D01*
X108003244Y-103993362D01*
X107997573Y-104000882D01*
X107960301Y-104046593D01*
X107946210Y-104073566D01*
X107938082Y-104086983D01*
X107920705Y-104111950D01*
X107897439Y-104166165D01*
X107893399Y-104174671D01*
X107866090Y-104226952D01*
X107857720Y-104256201D01*
X107852459Y-104270978D01*
X107840460Y-104298942D01*
X107828587Y-104356713D01*
X107826342Y-104365860D01*
X107810113Y-104422580D01*
X107807802Y-104452925D01*
X107805622Y-104468466D01*
X107799500Y-104498259D01*
X107799500Y-104557242D01*
X107799142Y-104566656D01*
X107794663Y-104625477D01*
X107798506Y-104655651D01*
X107799500Y-104671317D01*
X107799500Y-108544756D01*
X107798903Y-108556910D01*
X107794659Y-108600000D01*
X90000500Y-108600000D01*
X90000500Y-79973691D01*
X90394807Y-79973691D01*
X90399184Y-80034881D01*
X90399500Y-80043727D01*
X90399500Y-102552425D01*
X90404529Y-102605086D01*
X90414472Y-102709220D01*
X90473683Y-102910873D01*
X90569990Y-103097684D01*
X90699906Y-103262884D01*
X90699908Y-103262886D01*
X90722574Y-103282526D01*
X90858745Y-103400520D01*
X91040754Y-103505603D01*
X91040756Y-103505604D01*
X91134241Y-103537959D01*
X91239366Y-103574344D01*
X91274298Y-103579366D01*
X91447398Y-103604254D01*
X91657330Y-103594254D01*
X91861576Y-103544704D01*
X91933980Y-103511638D01*
X92052752Y-103457397D01*
X92132624Y-103400520D01*
X92223952Y-103335486D01*
X92368986Y-103183378D01*
X92482613Y-103006572D01*
X92560725Y-102811457D01*
X92600500Y-102605085D01*
X92600500Y-94800000D01*
X98994659Y-94800000D01*
X98998903Y-94843090D01*
X98999072Y-94846537D01*
X99004434Y-94899276D01*
X99004338Y-94899285D01*
X99004474Y-94899663D01*
X99011702Y-94973049D01*
X99014447Y-95000911D01*
X99014925Y-95002437D01*
X99014926Y-95002438D01*
X99030479Y-95052009D01*
X99043762Y-95094345D01*
X99044109Y-95095470D01*
X99072981Y-95190647D01*
X99074340Y-95193883D01*
X99075840Y-95196586D01*
X99075841Y-95196588D01*
X99120912Y-95277792D01*
X99121849Y-95279513D01*
X99165388Y-95360967D01*
X99174579Y-95374489D01*
X99232778Y-95442282D01*
X99234536Y-95444376D01*
X99289117Y-95510883D01*
X99289396Y-95511112D01*
X99304814Y-95526192D01*
X99307133Y-95528894D01*
X99374941Y-95581382D01*
X99377704Y-95583585D01*
X99441462Y-95635910D01*
X99444942Y-95637770D01*
X99462383Y-95649068D01*
X99468042Y-95653448D01*
X99541049Y-95689258D01*
X99541808Y-95689631D01*
X99545654Y-95691601D01*
X99615273Y-95728814D01*
X99622477Y-95730999D01*
X99641093Y-95738333D01*
X99650731Y-95743061D01*
X99726819Y-95762762D01*
X99731733Y-95764142D01*
X99803868Y-95786024D01*
X99814929Y-95787113D01*
X99833857Y-95790474D01*
X99847715Y-95794063D01*
X99922676Y-95797864D01*
X99928484Y-95798297D01*
X100000000Y-95805341D01*
X100014631Y-95803899D01*
X100033056Y-95803462D01*
X100050936Y-95804369D01*
X100121596Y-95793543D01*
X100128180Y-95792716D01*
X100196132Y-95786024D01*
X100213632Y-95780714D01*
X100230834Y-95776809D01*
X100252071Y-95773556D01*
X100315760Y-95749967D01*
X100322798Y-95747598D01*
X100384727Y-95728814D01*
X100404011Y-95718505D01*
X100419379Y-95711591D01*
X100442887Y-95702886D01*
X100497488Y-95668853D01*
X100504628Y-95664725D01*
X100558538Y-95635910D01*
X100578197Y-95619775D01*
X100591267Y-95610400D01*
X100615571Y-95595252D01*
X100659651Y-95553348D01*
X100666373Y-95547409D01*
X100710883Y-95510883D01*
X100729286Y-95488457D01*
X100739698Y-95477259D01*
X100763053Y-95455059D01*
X100795735Y-95408101D01*
X100801650Y-95400282D01*
X100835910Y-95358538D01*
X100837571Y-95355429D01*
X100851270Y-95329801D01*
X100858852Y-95317418D01*
X100879295Y-95288049D01*
X100900456Y-95238735D01*
X100905031Y-95229220D01*
X100928814Y-95184727D01*
X100939313Y-95150113D01*
X100944011Y-95137240D01*
X100959540Y-95101058D01*
X100969621Y-95051998D01*
X100972414Y-95040996D01*
X100986024Y-94996132D01*
X100989918Y-94956583D01*
X100991855Y-94943803D01*
X101000500Y-94901741D01*
X101000500Y-94855244D01*
X101001097Y-94843090D01*
X101001980Y-94834122D01*
X101005341Y-94800000D01*
X101001096Y-94756909D01*
X101000500Y-94744756D01*
X101000500Y-89700000D01*
X108694658Y-89700000D01*
X108697501Y-89728865D01*
X108698058Y-89744157D01*
X108697242Y-89776362D01*
X108707333Y-89832665D01*
X108708681Y-89842383D01*
X108713975Y-89896132D01*
X108723435Y-89927315D01*
X108726828Y-89941430D01*
X108733142Y-89976653D01*
X108733143Y-89976655D01*
X108753038Y-90026462D01*
X108756545Y-90036463D01*
X108771185Y-90084726D01*
X108788230Y-90116616D01*
X108794022Y-90129067D01*
X108808621Y-90165615D01*
X108836178Y-90207427D01*
X108842000Y-90217211D01*
X108864090Y-90258538D01*
X108879995Y-90277919D01*
X108889292Y-90289247D01*
X108896975Y-90299675D01*
X108920599Y-90335520D01*
X108953479Y-90368400D01*
X108961651Y-90377416D01*
X108989117Y-90410883D01*
X108993301Y-90414317D01*
X109022581Y-90438346D01*
X109031598Y-90446519D01*
X109082450Y-90497371D01*
X109084643Y-90499620D01*
X109144941Y-90563053D01*
X109170583Y-90580900D01*
X109193352Y-90596748D01*
X109200876Y-90602421D01*
X109246594Y-90639699D01*
X109273555Y-90653782D01*
X109286980Y-90661915D01*
X109311951Y-90679295D01*
X109361365Y-90700500D01*
X109366163Y-90702559D01*
X109374673Y-90706601D01*
X109426951Y-90733909D01*
X109456200Y-90742277D01*
X109470970Y-90747535D01*
X109498942Y-90759540D01*
X109498945Y-90759540D01*
X109498946Y-90759541D01*
X109556726Y-90771414D01*
X109565869Y-90773657D01*
X109622582Y-90789886D01*
X109652920Y-90792196D01*
X109668448Y-90794373D01*
X109698259Y-90800500D01*
X109757244Y-90800500D01*
X109766659Y-90800858D01*
X109770806Y-90801173D01*
X109825476Y-90805337D01*
X109852278Y-90801923D01*
X109855652Y-90801494D01*
X109871317Y-90800500D01*
X112985721Y-90800500D01*
X112988862Y-90800539D01*
X113076363Y-90802757D01*
X113134432Y-90792348D01*
X113143736Y-90791043D01*
X113202438Y-90785074D01*
X113231467Y-90775965D01*
X113246700Y-90772226D01*
X113276653Y-90766858D01*
X113331426Y-90744978D01*
X113340301Y-90741819D01*
X113357675Y-90736367D01*
X113396588Y-90724159D01*
X113423194Y-90709390D01*
X113437362Y-90702662D01*
X113465617Y-90691377D01*
X113514879Y-90658909D01*
X113522910Y-90654043D01*
X113574502Y-90625409D01*
X113597587Y-90605589D01*
X113610114Y-90596144D01*
X113635519Y-90579402D01*
X113677251Y-90537668D01*
X113684123Y-90531300D01*
X113728895Y-90492866D01*
X113747519Y-90468803D01*
X113757880Y-90457039D01*
X116297409Y-87917510D01*
X116299579Y-87915394D01*
X116363053Y-87855059D01*
X116396757Y-87806633D01*
X116402426Y-87799116D01*
X116439698Y-87753407D01*
X116453783Y-87726439D01*
X116461918Y-87713015D01*
X116468373Y-87703740D01*
X116479295Y-87688049D01*
X116502568Y-87633815D01*
X116506588Y-87625350D01*
X116533909Y-87573049D01*
X116542275Y-87543808D01*
X116547539Y-87529019D01*
X116559540Y-87501058D01*
X116571417Y-87443256D01*
X116573652Y-87434148D01*
X116589886Y-87377418D01*
X116592196Y-87347078D01*
X116594376Y-87331540D01*
X116600500Y-87301742D01*
X116600500Y-87242756D01*
X116600858Y-87233341D01*
X116601154Y-87229449D01*
X116605337Y-87174524D01*
X116601494Y-87144348D01*
X116600500Y-87128683D01*
X116600500Y-74055244D01*
X116601097Y-74043090D01*
X116605341Y-74000000D01*
X116601096Y-73956909D01*
X116600927Y-73953467D01*
X116600500Y-73949267D01*
X116600500Y-73949258D01*
X116595525Y-73900336D01*
X116586024Y-73803868D01*
X116586023Y-73803864D01*
X116585553Y-73799090D01*
X116585074Y-73797562D01*
X116556189Y-73705501D01*
X116555870Y-73704467D01*
X116527010Y-73609325D01*
X116525672Y-73606138D01*
X116524159Y-73603412D01*
X116479052Y-73522145D01*
X116478160Y-73520506D01*
X116435910Y-73441462D01*
X116435907Y-73441458D01*
X116434608Y-73439027D01*
X116425424Y-73425515D01*
X116367221Y-73357716D01*
X116365454Y-73355611D01*
X116323147Y-73304061D01*
X116310883Y-73289117D01*
X116310882Y-73289116D01*
X116310607Y-73288890D01*
X116295186Y-73273807D01*
X116292866Y-73271105D01*
X116225057Y-73218616D01*
X116222294Y-73216413D01*
X116158538Y-73164090D01*
X116155058Y-73162230D01*
X116137617Y-73150932D01*
X116131958Y-73146552D01*
X116058168Y-73110356D01*
X116054345Y-73108398D01*
X115984726Y-73071185D01*
X115977519Y-73068999D01*
X115958911Y-73061668D01*
X115949271Y-73056940D01*
X115949269Y-73056939D01*
X115949266Y-73056938D01*
X115873189Y-73037240D01*
X115868276Y-73035860D01*
X115796129Y-73013975D01*
X115785056Y-73012884D01*
X115766145Y-73009525D01*
X115752285Y-73005937D01*
X115677345Y-73002135D01*
X115671476Y-73001697D01*
X115600000Y-72994658D01*
X115585369Y-72996099D01*
X115566943Y-72996537D01*
X115549062Y-72995630D01*
X115478433Y-73006450D01*
X115471814Y-73007283D01*
X115403863Y-73013976D01*
X115386367Y-73019283D01*
X115369161Y-73023190D01*
X115347933Y-73026443D01*
X115347931Y-73026443D01*
X115347929Y-73026444D01*
X115284241Y-73050031D01*
X115277199Y-73052400D01*
X115262242Y-73056938D01*
X115215273Y-73071185D01*
X115195998Y-73081488D01*
X115180617Y-73088408D01*
X115157111Y-73097114D01*
X115102499Y-73131153D01*
X115095365Y-73135277D01*
X115041464Y-73164088D01*
X115041460Y-73164090D01*
X115041462Y-73164090D01*
X115021800Y-73180224D01*
X115008738Y-73189595D01*
X114984432Y-73204745D01*
X114984428Y-73204748D01*
X114984429Y-73204748D01*
X114950334Y-73237158D01*
X114940369Y-73246630D01*
X114933607Y-73252604D01*
X114889119Y-73289116D01*
X114889115Y-73289119D01*
X114870712Y-73311541D01*
X114860298Y-73322743D01*
X114836946Y-73344941D01*
X114814361Y-73377389D01*
X114810291Y-73383238D01*
X114804268Y-73391891D01*
X114798349Y-73399714D01*
X114764091Y-73441458D01*
X114748731Y-73470195D01*
X114741151Y-73482573D01*
X114720706Y-73511948D01*
X114699550Y-73561245D01*
X114694960Y-73570792D01*
X114671186Y-73615272D01*
X114660693Y-73649863D01*
X114655984Y-73662765D01*
X114640460Y-73698941D01*
X114630379Y-73747990D01*
X114627579Y-73759019D01*
X114613976Y-73803864D01*
X114610081Y-73843408D01*
X114608140Y-73856211D01*
X114599500Y-73898258D01*
X114599500Y-73944756D01*
X114598903Y-73956910D01*
X114594659Y-73999999D01*
X114598903Y-74043090D01*
X114599500Y-74055244D01*
X114599500Y-86734217D01*
X114590061Y-86781670D01*
X114563181Y-86821898D01*
X112621899Y-88763181D01*
X112581671Y-88790061D01*
X112534218Y-88799500D01*
X110168759Y-88799500D01*
X110110306Y-88784858D01*
X110084727Y-88771186D01*
X110079272Y-88768270D01*
X110076012Y-88766938D01*
X109983727Y-88740531D01*
X109981845Y-88739977D01*
X109893508Y-88713180D01*
X109877427Y-88710113D01*
X109788378Y-88703332D01*
X109785641Y-88703093D01*
X109699997Y-88694658D01*
X109699637Y-88694694D01*
X109678078Y-88694933D01*
X109674528Y-88694662D01*
X109589480Y-88705493D01*
X109585971Y-88705889D01*
X109503865Y-88713976D01*
X109500085Y-88715123D01*
X109479779Y-88719464D01*
X109472676Y-88720369D01*
X109472673Y-88720369D01*
X109472672Y-88720370D01*
X109394908Y-88746949D01*
X109390818Y-88748268D01*
X109315272Y-88771185D01*
X109308624Y-88774739D01*
X109290294Y-88782708D01*
X109285033Y-88784507D01*
X109280127Y-88786184D01*
X109212398Y-88826053D01*
X109207950Y-88828549D01*
X109141464Y-88864087D01*
X109132866Y-88871144D01*
X109117116Y-88882143D01*
X109112550Y-88884831D01*
X109104768Y-88889412D01*
X109049098Y-88939709D01*
X109044637Y-88943551D01*
X108989117Y-88989116D01*
X108979790Y-89000480D01*
X108967074Y-89013815D01*
X108953787Y-89025820D01*
X108911483Y-89083428D01*
X108907392Y-89088695D01*
X108864090Y-89141460D01*
X108855468Y-89157590D01*
X108846063Y-89172520D01*
X108833352Y-89189831D01*
X108804995Y-89251543D01*
X108801680Y-89258219D01*
X108771186Y-89315270D01*
X108764839Y-89336192D01*
X108758858Y-89351955D01*
X108748395Y-89374728D01*
X108733849Y-89437408D01*
X108731721Y-89445367D01*
X108713975Y-89503871D01*
X108711482Y-89529176D01*
X108708871Y-89545043D01*
X108702396Y-89572946D01*
X108700856Y-89633712D01*
X108700299Y-89642721D01*
X108694658Y-89700000D01*
X101000500Y-89700000D01*
X101000500Y-85265783D01*
X101009939Y-85218330D01*
X101036819Y-85178102D01*
X103178101Y-83036819D01*
X103218329Y-83009939D01*
X103265782Y-83000500D01*
X107544756Y-83000500D01*
X107556909Y-83001096D01*
X107600000Y-83005341D01*
X107643090Y-83001096D01*
X107646529Y-83000928D01*
X107650737Y-83000500D01*
X107650742Y-83000500D01*
X107699663Y-82995525D01*
X107796132Y-82986024D01*
X107796136Y-82986022D01*
X107800905Y-82985553D01*
X107802428Y-82985074D01*
X107802438Y-82985074D01*
X107894615Y-82956152D01*
X107895416Y-82955905D01*
X107984727Y-82928814D01*
X107984731Y-82928811D01*
X107990687Y-82927005D01*
X107993858Y-82925674D01*
X107996586Y-82924159D01*
X107996588Y-82924159D01*
X108077848Y-82879055D01*
X108079432Y-82878192D01*
X108158538Y-82835910D01*
X108158542Y-82835906D01*
X108160975Y-82834606D01*
X108174480Y-82825427D01*
X108174499Y-82825410D01*
X108174502Y-82825409D01*
X108242286Y-82767216D01*
X108244304Y-82765521D01*
X108310883Y-82710883D01*
X108311108Y-82710608D01*
X108326191Y-82695186D01*
X108328895Y-82692866D01*
X108381410Y-82625021D01*
X108383535Y-82622354D01*
X108435910Y-82558538D01*
X108437765Y-82555065D01*
X108449072Y-82537609D01*
X108453448Y-82531958D01*
X108489648Y-82458155D01*
X108491581Y-82454381D01*
X108528814Y-82384727D01*
X108530999Y-82377519D01*
X108538333Y-82358905D01*
X108543060Y-82349271D01*
X108562767Y-82273156D01*
X108564133Y-82268295D01*
X108586024Y-82196132D01*
X108587114Y-82185059D01*
X108590471Y-82166154D01*
X108594063Y-82152285D01*
X108597864Y-82077318D01*
X108598296Y-82071520D01*
X108605341Y-82000000D01*
X108603899Y-81985368D01*
X108603462Y-81966942D01*
X108604369Y-81949064D01*
X108593544Y-81878407D01*
X108592714Y-81871801D01*
X108587774Y-81821644D01*
X108586024Y-81803868D01*
X108580715Y-81786367D01*
X108576809Y-81769167D01*
X108573556Y-81747929D01*
X108549963Y-81684229D01*
X108547598Y-81677200D01*
X108528814Y-81615273D01*
X108518512Y-81596000D01*
X108511587Y-81580609D01*
X108502886Y-81557113D01*
X108495298Y-81544939D01*
X108468836Y-81502484D01*
X108464739Y-81495397D01*
X108435910Y-81441462D01*
X108419776Y-81421803D01*
X108410400Y-81408732D01*
X108395252Y-81384429D01*
X108353373Y-81340373D01*
X108347392Y-81333604D01*
X108345413Y-81331193D01*
X108310883Y-81289117D01*
X108310882Y-81289116D01*
X108288458Y-81270712D01*
X108277254Y-81260295D01*
X108255058Y-81236946D01*
X108208104Y-81204264D01*
X108200280Y-81198345D01*
X108158543Y-81164093D01*
X108158539Y-81164090D01*
X108158538Y-81164090D01*
X108129793Y-81148725D01*
X108117423Y-81141150D01*
X108088049Y-81120705D01*
X108038745Y-81099546D01*
X108029213Y-81094963D01*
X107984728Y-81071186D01*
X107950131Y-81060691D01*
X107937228Y-81055982D01*
X107934991Y-81055022D01*
X107901058Y-81040460D01*
X107901056Y-81040459D01*
X107901055Y-81040459D01*
X107852014Y-81030380D01*
X107840984Y-81027580D01*
X107796134Y-81013976D01*
X107756592Y-81010081D01*
X107743789Y-81008140D01*
X107701742Y-80999500D01*
X107701741Y-80999500D01*
X107655244Y-80999500D01*
X107643090Y-80998903D01*
X107600000Y-80994659D01*
X107556910Y-80998903D01*
X107544756Y-80999500D01*
X102814279Y-80999500D01*
X102811137Y-80999460D01*
X102723637Y-80997242D01*
X102665580Y-81007648D01*
X102656251Y-81008957D01*
X102597562Y-81014926D01*
X102568527Y-81024035D01*
X102553290Y-81027774D01*
X102523350Y-81033141D01*
X102468567Y-81055022D01*
X102459698Y-81058179D01*
X102403410Y-81075841D01*
X102376809Y-81090605D01*
X102362639Y-81097335D01*
X102334385Y-81108622D01*
X102285121Y-81141087D01*
X102277070Y-81145964D01*
X102225498Y-81174590D01*
X102202414Y-81194407D01*
X102189887Y-81203853D01*
X102164481Y-81220598D01*
X102122775Y-81262303D01*
X102115868Y-81268704D01*
X102071103Y-81307135D01*
X102052480Y-81331193D01*
X102042108Y-81342969D01*
X99302646Y-84082432D01*
X99300399Y-84084623D01*
X99236948Y-84144939D01*
X99203244Y-84193362D01*
X99197573Y-84200882D01*
X99160301Y-84246593D01*
X99146210Y-84273566D01*
X99138082Y-84286983D01*
X99120705Y-84311950D01*
X99097439Y-84366165D01*
X99093399Y-84374671D01*
X99066090Y-84426952D01*
X99057720Y-84456201D01*
X99052459Y-84470978D01*
X99040460Y-84498942D01*
X99028587Y-84556713D01*
X99026342Y-84565860D01*
X99010113Y-84622580D01*
X99007802Y-84652925D01*
X99005622Y-84668466D01*
X98999500Y-84698259D01*
X98999500Y-84757242D01*
X98999142Y-84766656D01*
X98994663Y-84825477D01*
X98998506Y-84855651D01*
X98999500Y-84871317D01*
X98999500Y-94744756D01*
X98998903Y-94756910D01*
X98994659Y-94800000D01*
X92600500Y-94800000D01*
X92600500Y-80507204D01*
X92609939Y-80459751D01*
X92636819Y-80419523D01*
X111541980Y-61514362D01*
X142924500Y-61514362D01*
X142939955Y-61631760D01*
X143000464Y-61777841D01*
X143096717Y-61903282D01*
X143222158Y-61999535D01*
X143222159Y-61999536D01*
X143368238Y-62060044D01*
X143485639Y-62075500D01*
X145514360Y-62075499D01*
X145514362Y-62075499D01*
X145573061Y-62067771D01*
X145631762Y-62060044D01*
X145777841Y-61999536D01*
X145903282Y-61903282D01*
X145999536Y-61777841D01*
X146060044Y-61631762D01*
X146075500Y-61514361D01*
X146075499Y-59485640D01*
X146060044Y-59368238D01*
X145999536Y-59222159D01*
X145977139Y-59192970D01*
X145903282Y-59096717D01*
X145777840Y-59000463D01*
X145631762Y-58939956D01*
X145514362Y-58924500D01*
X143485637Y-58924500D01*
X143368239Y-58939955D01*
X143222158Y-59000464D01*
X143096717Y-59096717D01*
X143000463Y-59222159D01*
X142939956Y-59368237D01*
X142924500Y-59485637D01*
X142924500Y-61514362D01*
X111541980Y-61514362D01*
X115156342Y-57900000D01*
X155094551Y-57900000D01*
X155098882Y-57955029D01*
X155099118Y-57958029D01*
X155099500Y-57967757D01*
X155099500Y-60562879D01*
X155114317Y-60751149D01*
X155173126Y-60996110D01*
X155221330Y-61112485D01*
X155269534Y-61228859D01*
X155401164Y-61443659D01*
X155564776Y-61635224D01*
X155756341Y-61798836D01*
X155971141Y-61930466D01*
X156203889Y-62026873D01*
X156448852Y-62085683D01*
X156700000Y-62105449D01*
X156951148Y-62085683D01*
X157196111Y-62026873D01*
X157428859Y-61930466D01*
X157643659Y-61798836D01*
X157835224Y-61635224D01*
X157998836Y-61443659D01*
X158130466Y-61228859D01*
X158226873Y-60996111D01*
X158285683Y-60751148D01*
X158300500Y-60562882D01*
X158300500Y-59024500D01*
X158317113Y-58962500D01*
X158362500Y-58917113D01*
X158424500Y-58900500D01*
X160522939Y-58900500D01*
X160570392Y-58909939D01*
X160610620Y-58936819D01*
X160637500Y-58977047D01*
X160685463Y-59092841D01*
X160781717Y-59218282D01*
X160907158Y-59314535D01*
X160907159Y-59314536D01*
X161053238Y-59375044D01*
X161170639Y-59390500D01*
X168249360Y-59390499D01*
X168249362Y-59390499D01*
X168308061Y-59382771D01*
X168366762Y-59375044D01*
X168512841Y-59314536D01*
X168638282Y-59218282D01*
X168734536Y-59092841D01*
X168795044Y-58946762D01*
X168810500Y-58829361D01*
X168810499Y-55250640D01*
X168795044Y-55133238D01*
X168734536Y-54987159D01*
X168712139Y-54957971D01*
X168638282Y-54861717D01*
X168512840Y-54765463D01*
X168366762Y-54704956D01*
X168249362Y-54689500D01*
X161170637Y-54689500D01*
X161053239Y-54704955D01*
X160907158Y-54765464D01*
X160781717Y-54861717D01*
X160685463Y-54987159D01*
X160624956Y-55133237D01*
X160609500Y-55250638D01*
X160609500Y-55575500D01*
X160592887Y-55637500D01*
X160547500Y-55682887D01*
X160485500Y-55699500D01*
X157367757Y-55699500D01*
X157358029Y-55699118D01*
X157300000Y-55694551D01*
X157237117Y-55699500D01*
X157237118Y-55699500D01*
X157048850Y-55714317D01*
X156803889Y-55773126D01*
X156571139Y-55869535D01*
X156356338Y-56001165D01*
X156164777Y-56164773D01*
X156126970Y-56209039D01*
X156120362Y-56216187D01*
X155616186Y-56720363D01*
X155609039Y-56726970D01*
X155564777Y-56764775D01*
X155472261Y-56873093D01*
X155472259Y-56873098D01*
X155401163Y-56956342D01*
X155269535Y-57171139D01*
X155173126Y-57403889D01*
X155114317Y-57648850D01*
X155114317Y-57648852D01*
X155094551Y-57900000D01*
X115156342Y-57900000D01*
X118556342Y-54500000D01*
X140894551Y-54500000D01*
X140914317Y-54751149D01*
X140973126Y-54996110D01*
X141021330Y-55112485D01*
X141069534Y-55228859D01*
X141201164Y-55443659D01*
X141364776Y-55635224D01*
X141556341Y-55798836D01*
X141771141Y-55930466D01*
X142003889Y-56026873D01*
X142248852Y-56085683D01*
X142437118Y-56100500D01*
X149632243Y-56100500D01*
X149641971Y-56100882D01*
X149645496Y-56101159D01*
X149700000Y-56105449D01*
X149951148Y-56085683D01*
X150196111Y-56026873D01*
X150428859Y-55930466D01*
X150643659Y-55798836D01*
X150787260Y-55676189D01*
X150787259Y-55676189D01*
X150835224Y-55635224D01*
X150835227Y-55635219D01*
X150837581Y-55633210D01*
X150838372Y-55631537D01*
X150873040Y-55590945D01*
X150879626Y-55583821D01*
X152866629Y-53596818D01*
X152906857Y-53569939D01*
X152954310Y-53560500D01*
X157197118Y-53560500D01*
X157322882Y-53560500D01*
X157932240Y-53560500D01*
X157941967Y-53560882D01*
X157949598Y-53561482D01*
X158000000Y-53565449D01*
X158050401Y-53561482D01*
X158058033Y-53560882D01*
X158067760Y-53560500D01*
X160485501Y-53560500D01*
X160547501Y-53577113D01*
X160592888Y-53622500D01*
X160609501Y-53684500D01*
X160609501Y-53749363D01*
X160624955Y-53866760D01*
X160685464Y-54012841D01*
X160781717Y-54138282D01*
X160907158Y-54234535D01*
X160907159Y-54234536D01*
X161053238Y-54295044D01*
X161170639Y-54310500D01*
X168249360Y-54310499D01*
X168249362Y-54310499D01*
X168308061Y-54302771D01*
X168366762Y-54295044D01*
X168512841Y-54234536D01*
X168638282Y-54138282D01*
X168734536Y-54012841D01*
X168795044Y-53866762D01*
X168810500Y-53749361D01*
X168810499Y-50170640D01*
X168795044Y-50053238D01*
X168734536Y-49907159D01*
X168639276Y-49783013D01*
X168638282Y-49781717D01*
X168512840Y-49685463D01*
X168366762Y-49624956D01*
X168249362Y-49609500D01*
X161170637Y-49609500D01*
X161053239Y-49624955D01*
X160907158Y-49685464D01*
X160781717Y-49781717D01*
X160685463Y-49907159D01*
X160624956Y-50053237D01*
X160609500Y-50170638D01*
X160609500Y-50235500D01*
X160592887Y-50297500D01*
X160547500Y-50342887D01*
X160485500Y-50359500D01*
X158714311Y-50359500D01*
X158666858Y-50350061D01*
X158626630Y-50323181D01*
X158336819Y-50033370D01*
X158309939Y-49993142D01*
X158300500Y-49945689D01*
X158300500Y-48437121D01*
X158295742Y-48376665D01*
X158285683Y-48248852D01*
X158226873Y-48003889D01*
X158130466Y-47771141D01*
X157998836Y-47556341D01*
X157835224Y-47364776D01*
X157643659Y-47201164D01*
X157428859Y-47069534D01*
X157312485Y-47021330D01*
X157196110Y-46973126D01*
X156951149Y-46914317D01*
X156700000Y-46894551D01*
X156448850Y-46914317D01*
X156203889Y-46973126D01*
X155971139Y-47069535D01*
X155756342Y-47201163D01*
X155564776Y-47364776D01*
X155401163Y-47556342D01*
X155269535Y-47771139D01*
X155173126Y-48003889D01*
X155114317Y-48248850D01*
X155099500Y-48437121D01*
X155099500Y-50235500D01*
X155082887Y-50297500D01*
X155037500Y-50342887D01*
X154975500Y-50359500D01*
X152307757Y-50359500D01*
X152298029Y-50359118D01*
X152240000Y-50354551D01*
X152177117Y-50359500D01*
X152177118Y-50359500D01*
X151988850Y-50374317D01*
X151743889Y-50433126D01*
X151511139Y-50529535D01*
X151296338Y-50661165D01*
X151104777Y-50824773D01*
X151066964Y-50869046D01*
X151060356Y-50876194D01*
X149073370Y-52863181D01*
X149033142Y-52890061D01*
X148985689Y-52899500D01*
X142437118Y-52899500D01*
X142324158Y-52908390D01*
X142248850Y-52914317D01*
X142003889Y-52973126D01*
X141771139Y-53069535D01*
X141556342Y-53201163D01*
X141364776Y-53364776D01*
X141201163Y-53556342D01*
X141069535Y-53771139D01*
X140973126Y-54003889D01*
X140914317Y-54248850D01*
X140894551Y-54500000D01*
X118556342Y-54500000D01*
X123419523Y-49636819D01*
X123459751Y-49609939D01*
X123507204Y-49600500D01*
X143316867Y-49600500D01*
X143359785Y-49608164D01*
X143397398Y-49630210D01*
X143571078Y-49778546D01*
X143571080Y-49778547D01*
X143571081Y-49778548D01*
X143782526Y-49908122D01*
X143951792Y-49978234D01*
X144011637Y-50003023D01*
X144087818Y-50021312D01*
X144252775Y-50060915D01*
X144500000Y-50080372D01*
X144747225Y-50060915D01*
X144988362Y-50003023D01*
X145217474Y-49908122D01*
X145428919Y-49778548D01*
X145617492Y-49617492D01*
X145778548Y-49428919D01*
X145908122Y-49217474D01*
X146003023Y-48988362D01*
X146060915Y-48747225D01*
X146080372Y-48500000D01*
X146060915Y-48252775D01*
X146003023Y-48011638D01*
X145999813Y-48003889D01*
X145974177Y-47941997D01*
X145908122Y-47782526D01*
X145778548Y-47571081D01*
X145617492Y-47382508D01*
X145428919Y-47221452D01*
X145217474Y-47091878D01*
X145132840Y-47056821D01*
X144988362Y-46996976D01*
X144747226Y-46939085D01*
X144500000Y-46919628D01*
X144252773Y-46939085D01*
X144011637Y-46996976D01*
X143807313Y-47081610D01*
X143782616Y-47091841D01*
X143782524Y-47091879D01*
X143571078Y-47221453D01*
X143397398Y-47369790D01*
X143359785Y-47391836D01*
X143316867Y-47399500D01*
X123102238Y-47399500D01*
X123081673Y-47397783D01*
X123078865Y-47397310D01*
X122988386Y-47399465D01*
X122985435Y-47399500D01*
X122947570Y-47399500D01*
X122938913Y-47400326D01*
X122930088Y-47400852D01*
X122868751Y-47402313D01*
X122837340Y-47409145D01*
X122822776Y-47411416D01*
X122790785Y-47414471D01*
X122731916Y-47431756D01*
X122723342Y-47433944D01*
X122663388Y-47446986D01*
X122633830Y-47459643D01*
X122619959Y-47464629D01*
X122589124Y-47473683D01*
X122534583Y-47501800D01*
X122526582Y-47505570D01*
X122470186Y-47529721D01*
X122443569Y-47547735D01*
X122430896Y-47555254D01*
X122402318Y-47569988D01*
X122354089Y-47607915D01*
X122346945Y-47613131D01*
X122296134Y-47647522D01*
X122273400Y-47670255D01*
X122262379Y-47680037D01*
X122237115Y-47699906D01*
X122196932Y-47746278D01*
X122190902Y-47752754D01*
X90794120Y-79149536D01*
X90778376Y-79162855D01*
X90776050Y-79164510D01*
X90713595Y-79230011D01*
X90711538Y-79232117D01*
X90684758Y-79258898D01*
X90679213Y-79265614D01*
X90673348Y-79272222D01*
X90631014Y-79316621D01*
X90613638Y-79343658D01*
X90604947Y-79355560D01*
X90584475Y-79380355D01*
X90555067Y-79434211D01*
X90550552Y-79441821D01*
X90517385Y-79493429D01*
X90505443Y-79523260D01*
X90499160Y-79536597D01*
X90483750Y-79564818D01*
X90465064Y-79623271D01*
X90462072Y-79631595D01*
X90439274Y-79688544D01*
X90433189Y-79720110D01*
X90429545Y-79734386D01*
X90419758Y-79765005D01*
X90412473Y-79825933D01*
X90411109Y-79834676D01*
X90399500Y-79894913D01*
X90399500Y-79927061D01*
X90398623Y-79941782D01*
X90394807Y-79973691D01*
X90000500Y-79973691D01*
X90000500Y-50002561D01*
X90000606Y-49997437D01*
X90009054Y-49793178D01*
X90009488Y-49782687D01*
X90018052Y-49586540D01*
X90018881Y-49576673D01*
X90045491Y-49363195D01*
X90071578Y-49165045D01*
X90073151Y-49155816D01*
X90117062Y-48946392D01*
X90117297Y-48945302D01*
X90160684Y-48749599D01*
X90162885Y-48741111D01*
X90223875Y-48536253D01*
X90224337Y-48534743D01*
X90284704Y-48343284D01*
X90287423Y-48335565D01*
X90365074Y-48136564D01*
X90365883Y-48134553D01*
X90442762Y-47948951D01*
X90445874Y-47942051D01*
X90539587Y-47750357D01*
X90540945Y-47747667D01*
X90633667Y-47569551D01*
X90637118Y-47563362D01*
X90641302Y-47556341D01*
X90746295Y-47380139D01*
X90748150Y-47377129D01*
X90856090Y-47207697D01*
X90859721Y-47202316D01*
X90983635Y-47028764D01*
X90986102Y-47025433D01*
X91108401Y-46866048D01*
X91112114Y-46861445D01*
X91249903Y-46698758D01*
X91253027Y-46695211D01*
X91388811Y-46547028D01*
X91392440Y-46543238D01*
X91543238Y-46392440D01*
X91547028Y-46388811D01*
X91695211Y-46253027D01*
X91698758Y-46249903D01*
X91861445Y-46112114D01*
X91866048Y-46108401D01*
X92025433Y-45986102D01*
X92028764Y-45983635D01*
X92202316Y-45859721D01*
X92207697Y-45856090D01*
X92377129Y-45748150D01*
X92380139Y-45746295D01*
X92563373Y-45637111D01*
X92569551Y-45633667D01*
X92747667Y-45540945D01*
X92750357Y-45539587D01*
X92942051Y-45445874D01*
X92948951Y-45442762D01*
X93134553Y-45365883D01*
X93136564Y-45365074D01*
X93335565Y-45287423D01*
X93343284Y-45284704D01*
X93534743Y-45224337D01*
X93536253Y-45223875D01*
X93741111Y-45162885D01*
X93749599Y-45160684D01*
X93945302Y-45117297D01*
X93946392Y-45117062D01*
X94155816Y-45073151D01*
X94165045Y-45071578D01*
X94363195Y-45045491D01*
X94576673Y-45018881D01*
X94586540Y-45018052D01*
X94782628Y-45009490D01*
X94997437Y-45000605D01*
X95002561Y-45000500D01*
X164997439Y-45000500D01*
X165002562Y-45000605D01*
G37*
%TD.AperFunction*%
%TD*%
M02*
